<svg width="186" height="126" viewBox="0 0 186 126" fill="none" xmlns="http://www.w3.org/2000/svg">
<g id="uuid-df70b0ae-f035-4859-9c28-e5fac839761a" clip-path="url(#clip0_1448_2720)">
<path id="Vector" d="M146.216 84.1818C146.251 84.1059 146.344 84.0723 146.42 84.108C146.496 84.1436 146.53 84.2365 146.494 84.3124C146.458 84.3883 146.365 84.4218 146.29 84.3862C146.214 84.3506 146.18 84.2576 146.216 84.1818ZM127.155 75.9894C127.431 75.7639 127.417 75.7267 126.993 75.5122C126.506 75.2679 126.371 75.3588 126.551 75.8294C126.693 76.2509 126.819 76.279 127.155 75.9894ZM155.047 88.714C155.237 88.5405 155.255 88.5338 155.173 88.7421C155.108 88.8812 155.167 88.9861 155.298 89.0015C155.417 89.0111 155.576 88.8697 155.641 88.6993C155.771 88.3898 155.758 88.3839 155.309 88.42C155.022 88.4396 154.849 88.5438 154.835 88.7067C154.821 88.9008 154.865 88.906 155.035 88.7393L155.047 88.714ZM137.424 80.7487C137.629 80.9686 137.66 80.9678 138.003 80.8969C138.176 80.8551 138.299 80.7583 138.272 80.684C138.251 80.597 138.308 80.6081 138.423 80.724C138.526 80.834 138.652 80.8621 138.687 80.7862C138.723 80.7103 138.595 80.5885 138.405 80.4994C138.215 80.4103 138.065 80.4015 138.074 80.4826C138.082 80.5636 137.997 80.6783 137.886 80.7497C137.727 80.86 137.663 80.8303 137.558 80.5954C137.479 80.4348 137.396 80.3806 137.36 80.4565C137.325 80.5324 137.359 80.6565 137.43 80.736L137.424 80.7487ZM132.946 79.4029C133.022 79.4386 133.097 79.443 133.115 79.405C133.133 79.3671 133.099 79.2741 133.041 79.2006C132.989 79.1143 132.908 79.1226 132.873 79.1985C132.837 79.2744 132.87 79.3673 132.946 79.4029ZM132.584 78.6618C132.587 78.5242 132.528 78.4194 132.429 78.4344C132.316 78.4434 132.281 78.5505 132.342 78.7178C132.437 79.0405 132.556 79.0188 132.591 78.6804L132.584 78.6618ZM77.2809 52.9446C77.3568 52.9802 77.4497 52.9467 77.4853 52.8708C77.521 52.7949 77.4874 52.702 77.4115 52.6664C77.3356 52.6307 77.2427 52.6643 77.2071 52.7402C77.1714 52.816 77.205 52.909 77.2809 52.9446ZM80.8509 55.7629C80.9268 55.7985 81.0197 55.765 81.0553 55.6891C81.0909 55.6132 81.0574 55.5203 80.9815 55.4847C80.9056 55.449 80.8127 55.4826 80.7771 55.5585C80.7414 55.6344 80.775 55.7273 80.8509 55.7629ZM92.1652 59.84C92.2187 59.7262 92.1851 59.6332 92.0855 59.6482C91.9858 59.6632 91.919 59.7398 91.9272 59.8209C91.952 60.064 92.0457 60.0617 92.1585 59.8214L92.1652 59.84ZM75.8421 52.3926C75.8421 52.3926 75.9699 52.2519 75.9609 52.1396C75.9704 52.0206 75.9206 52.0281 75.8493 52.1799C75.784 52.319 75.7737 52.4068 75.8421 52.3926ZM85.6801 57.1812C85.6801 57.1812 85.8079 57.0406 85.7989 56.9283C85.8085 56.8093 85.7586 56.8167 85.6874 56.9685C85.6221 57.1077 85.6117 57.1954 85.6801 57.1812ZM91.585 59.6293C91.9365 59.4393 92.0323 59.2682 91.8553 59.1851C91.7794 59.1495 91.6746 59.2083 91.6211 59.3221C91.5677 59.436 91.4629 59.4948 91.387 59.4592C91.3111 59.4236 91.2502 59.4876 91.2651 59.5872C91.2809 59.7181 91.3813 59.7343 91.585 59.6293ZM90.5114 59.187C90.4817 59.2503 90.6015 59.2911 90.7822 59.2679C90.9629 59.2446 91.1108 59.1597 91.1026 59.0787C91.086 58.9166 90.5946 59.01 90.5114 59.187ZM104.925 65.5065C105.035 65.4038 105.04 65.3286 104.927 65.3064C104.826 65.2902 104.69 65.3498 104.611 65.4205C104.422 65.6252 104.724 65.7052 104.925 65.5065ZM106.645 66.3141C106.863 66.5399 106.939 66.5756 107.093 66.478C107.179 66.4259 107.331 66.4971 107.511 66.674C107.748 66.9244 107.792 66.9295 107.812 66.7228C107.827 66.5911 107.882 66.5085 107.957 66.5442C108.033 66.5798 108.114 66.5403 108.149 66.4644C108.232 66.2873 107.518 65.9675 106.999 65.9553C106.555 65.9475 106.421 66.0696 106.62 66.3022L106.645 66.3141ZM105.242 65.9175C105.356 65.9709 105.474 65.9492 105.509 65.8733C105.545 65.7975 105.613 65.7833 105.666 65.8695C105.769 66.0107 106.097 65.8713 106.036 65.704C105.969 65.5182 105.224 65.4616 105.135 65.6513C105.088 65.7525 105.135 65.8826 105.248 65.936L105.242 65.9175ZM108.72 67.5504C108.897 67.6336 109.104 67.6534 109.19 67.6013C109.276 67.5492 109.281 67.4741 109.205 67.4384C109.129 67.4028 109.007 67.2995 108.911 67.2082C108.828 67.1227 108.672 67.1266 108.568 67.2166C108.433 67.3387 108.473 67.419 108.713 67.5318L108.72 67.5504ZM108.366 66.8903C108.606 67.0032 108.667 66.9392 108.544 66.7422C108.498 66.6746 108.385 66.6524 108.312 66.7104C108.225 66.7626 108.246 66.8496 108.373 66.9089L108.366 66.8903ZM93.8595 60.867C94.0781 60.8616 94.2046 60.9209 94.2642 61.057C94.3045 61.1685 94.4207 61.3156 94.5345 61.3691C94.6863 61.4403 94.7041 61.4024 94.6615 61.1972C94.613 61.0046 94.6486 60.9287 94.7981 60.9063C94.9104 60.8973 95.0064 60.9886 95.0221 61.1195C95.0379 61.2504 95.1086 61.3299 95.1829 61.3031C95.3874 61.2292 95.2919 60.9066 95.0389 60.7878C94.9124 60.7284 94.6997 60.7212 94.5696 60.7682C94.3711 60.8293 94.3205 60.8056 94.2965 60.5936C94.28 60.4315 94.2354 60.3951 94.1879 60.4963C94.1463 60.5849 94.0467 60.5998 93.9633 60.5144C93.8799 60.4289 93.7684 60.4692 93.6972 60.621C93.5962 60.836 93.6349 60.885 93.8907 60.8662L93.8595 60.867ZM67.8741 49.6705C67.8384 49.7464 67.9538 49.8623 68.1242 49.9268C68.3645 50.0396 68.389 50.0203 68.223 49.8806C68.1017 49.7774 68.0733 49.6406 68.1647 49.5445C68.2747 49.4418 68.2479 49.3675 68.0463 49.3037C67.681 49.194 67.4335 49.2938 67.7117 49.4245C67.8382 49.4839 67.9097 49.5946 67.8741 49.6705ZM124.028 74.3978C123.992 74.4737 124.026 74.5666 124.102 74.6023C124.178 74.6379 124.271 74.6043 124.306 74.5285C124.342 74.4526 124.308 74.3596 124.232 74.324C124.157 74.2884 124.064 74.3219 124.028 74.3978ZM114.128 69.8733C114.104 69.6613 114.472 69.896 114.566 70.1562C114.633 70.3421 114.683 70.3346 114.772 70.1449C114.837 70.0057 115.028 69.8635 115.214 69.8277C115.506 69.7642 115.487 69.7397 115.097 69.6493C114.859 69.5989 114.545 69.5754 114.427 69.5971C114.272 69.6322 114.221 69.6084 114.269 69.5072C114.304 69.4314 114.239 69.308 114.1 69.2426C113.834 69.118 113.099 69.2049 113.016 69.382C112.986 69.4452 113.234 69.6078 113.568 69.7496C113.897 69.904 114.155 69.9476 114.153 69.8851L114.128 69.8733ZM123.954 74.1934C124.017 74.2231 124.148 74.2073 124.222 74.1493C124.308 74.0971 124.287 74.0101 124.161 73.9507C124.034 73.8914 123.929 73.919 123.893 73.9949C123.857 74.0708 123.878 74.1577 123.954 74.1934ZM124.582 74.7967C124.514 74.8421 124.591 74.909 124.748 74.9363C124.93 74.9756 125.013 75.061 124.966 75.1622C124.865 75.3772 125.156 75.2825 125.257 75.0675C125.299 74.979 125.436 74.9818 125.538 75.0606C125.653 75.1452 125.778 75.1422 125.819 75.0536C125.861 74.9651 125.961 74.9813 126.045 75.0668C126.148 75.1768 126.209 75.144 126.231 74.9997C126.245 74.8056 126.11 74.6652 125.783 74.5732C125.732 74.5495 125.673 74.4447 125.67 74.3197C125.647 74.139 125.603 74.1339 125.457 74.2813C125.347 74.384 125.147 74.4139 125.021 74.3545C124.894 74.2952 124.701 74.3124 124.61 74.4084C124.518 74.5045 124.502 74.6049 124.578 74.6405C124.654 74.6761 124.655 74.7386 124.582 74.7967ZM111.182 68.0271C111.218 67.9512 111.222 67.8761 111.184 67.8583C111.146 67.8405 111.053 67.874 110.98 67.9321C110.893 67.9843 110.902 68.0653 110.977 68.1009C111.053 68.1366 111.146 68.103 111.182 68.0271ZM111.686 68.4335C111.789 68.3122 111.86 68.1604 111.84 68.1046C111.78 67.9373 111.315 68.1051 111.22 68.3075C111.089 68.5857 111.486 68.6947 111.698 68.4394L111.686 68.4335ZM112.349 69.7172C112.425 69.7528 112.5 69.7572 112.518 69.7193C112.535 69.6813 112.502 69.5884 112.444 69.5148C112.392 69.4286 112.311 69.4369 112.275 69.5128C112.239 69.5887 112.273 69.6816 112.349 69.7172ZM173.534 102.534C173.576 102.939 172.267 104.377 171.556 104.676C171.321 104.782 171.094 104.938 171.052 105.026C170.945 105.254 169.758 105.546 169.275 105.458C168.992 105.402 168.852 105.306 168.816 105.088C168.772 104.851 168.442 104.635 167.119 103.967C166.22 103.514 165.153 103.059 164.763 102.969C164.166 102.828 163.874 102.66 163.058 101.999C162.331 101.41 161.829 101.098 161.129 100.846C160.183 100.494 158.849 100.146 159.191 100.338C159.33 100.403 159.269 100.467 159.002 100.511C158.666 100.569 158.577 100.528 158.205 100.137C157.615 99.5203 156.627 98.9947 155.747 98.8289C154.994 98.6913 154.32 98.2204 154.456 97.9295C154.486 97.8662 154.282 97.7088 153.998 97.5908C153.72 97.4601 153.339 97.2508 153.154 97.0866C152.937 96.8919 152.565 96.7636 152.02 96.7083C151.305 96.6197 151.172 96.573 150.75 96.1584C150.474 95.8902 150.188 95.7097 150.052 95.7381C149.771 95.7763 148.683 95.2344 148.748 95.0952C148.849 94.8802 148.336 94.5929 147.69 94.5213C147.326 94.4741 146.629 94.3163 146.162 94.1591C145.696 94.0018 145.318 93.6236 145.138 93.6781C144.765 93.781 143.58 93.6103 143.331 93.4164C143.229 93.3377 142.979 93.3439 142.934 93.045C142.904 92.8144 141.269 92.4173 140.61 92.0461C140.083 91.7528 140.526 91.4356 140.413 91.4134C140.161 91.3571 139.68 91.3627 139.357 91.427C139.033 91.4912 138.62 91.4827 138.456 91.4055C138.013 91.1976 137.563 90.6775 137.723 90.5672C137.95 90.4116 137.554 90.3026 137.087 90.3767C136.85 90.42 136.731 90.4105 136.805 90.3524C136.891 90.3003 136.842 90.1077 136.707 89.936C136.5 89.6536 136.393 89.6188 136.026 89.6778C135.459 89.7669 134.669 89.4113 134.913 89.1865C134.999 89.1032 135.033 88.9648 134.993 88.8845C134.935 88.811 134.823 88.82 134.719 88.9101C134.628 89.0061 134.428 89.036 134.302 88.9766C134.175 88.9172 133.843 88.8692 133.574 88.8821C133.093 88.8877 132.188 88.4163 132.428 88.2666C132.533 88.2078 131.825 88.169 130.529 87.5447C130.174 87.3785 129.797 87.2628 129.654 87.3038C129.163 87.4285 128.032 86.9438 127.562 86.3992C127.253 86.038 126.878 85.7847 126.259 85.525C125.729 85.3068 125.265 85.012 125.079 84.7854C124.641 84.2711 121.129 82.5452 119.776 82.1724C119.216 82.0175 118.676 81.6558 118.408 81.6999C117.73 81.8292 116.643 81.1184 116.769 80.6216C116.859 80.2318 117.696 80.7174 117.087 80.3387C117.049 80.3209 117.023 80.309 116.985 80.2912C115.957 79.654 115.106 79.625 114.49 79.459C114.024 79.333 113.871 79.2305 113.784 78.9889C113.69 78.7287 113.62 78.6804 113.309 78.7194C113.115 78.7366 112.936 78.7911 112.912 78.8417C112.888 78.8923 112.658 78.923 112.388 78.9046C111.813 78.8813 110.355 78.0735 110.316 77.762C110.306 77.6185 110.148 77.5286 109.859 77.4857C109.263 77.3755 108.812 77.0866 108.748 76.7631C108.711 76.5453 108.628 76.4911 108.341 76.5106C108.135 76.522 107.757 76.3751 107.439 76.1642C106.918 75.827 106.843 75.8226 106.23 76.0753C105.692 76.3011 105.552 75.4482 104.949 75.0568C104.656 74.8578 104.034 75.2295 103.61 75.0149C102.521 74.4418 102.329 74.259 102.507 73.8796C102.59 73.7025 102.271 74.2167 102.109 74.2019C101.946 74.1872 101.912 74.0943 102.019 73.8666C102.138 73.6137 102.124 73.5765 101.933 73.6875C101.779 73.785 101.742 73.7672 101.789 73.666C101.848 73.5395 101.647 73.4758 101.064 73.4339C100.275 73.3721 100.263 73.3662 100.166 73.0123C100.111 72.8011 99.9832 72.6793 99.8777 72.7069C99.0509 72.8899 96.7303 71.8158 96.3615 71.0561C96.2036 70.735 95.993 70.5589 95.6969 70.4663C95.4641 70.4033 95.191 70.2287 95.0815 70.1002C94.9393 69.9099 94.8397 69.9249 94.5715 70.2003C94.2059 70.5844 93.9418 70.5221 93.2519 69.9204C92.6513 69.3914 91.8713 68.6856 91.3589 68.692C90.8651 68.6917 90.6162 68.9917 90.9577 69.152C91.0715 69.2054 91.1118 69.3169 91.0323 69.3877C90.88 69.5477 89.46 69.2515 88.6898 68.6892C88.1041 68.2599 88.02 68.1432 88.1984 68.0263C88.2719 67.9682 88.2763 67.8931 88.2004 67.8575C87.9973 67.7312 86.0231 67.2675 86.1182 67.0651C86.1894 66.9133 85.2142 66.6562 84.8288 66.4907C84.4621 66.3185 83.9525 66.1873 83.6959 66.1749C83.452 66.1684 83.1239 66.0453 82.952 65.9182C82.7734 65.7726 82.635 65.7386 82.5935 65.8271C82.5578 65.903 82.8047 65.0155 82.615 64.9265C82.2861 64.7721 81.4108 64.7625 80.9268 64.9057C80.6354 65.0004 79.9851 64.7414 80.0683 64.5644C80.098 64.5011 80.0131 64.3532 79.8791 64.244C79.6365 64.0375 79.3166 63.9954 78.5433 64.0645C78.0941 64.1006 77.3187 63.5822 77.4948 63.3716C77.5676 63.2823 77.3823 63.1181 76.9649 62.9221C76.1554 62.5421 75.9366 62.285 75.9116 61.7793L75.8889 61.3673L75.5775 61.6688C75.2358 62.0023 75.0104 61.9891 75.0324 61.6135C75.0507 61.3443 74.6006 61.0866 74.3664 61.2237C74.2802 61.2758 74.0407 61.1942 73.7988 61.0189C73.5443 60.8377 73.4979 60.4763 73.4563 60.5649C73.4266 60.6281 73.3414 60.974 73.369 61.0796C73.3236 61.0119 73.1695 60.847 72.8742 60.7855C72.4473 60.7086 72.1096 60.7044 72.1238 60.7728C72.1537 60.9721 71.4601 61.233 71.1269 61.1537C70.9573 61.1204 70.6752 60.8336 70.4674 60.52C70.1881 60.0956 69.9902 59.9254 69.6063 59.8224C69.3296 59.7542 69.0738 59.7731 69.0263 59.8743C68.9016 60.1399 68.462 60.057 68.3479 59.741C68.2205 59.3879 68.3333 59.1476 68.5736 59.2604C68.6748 59.3079 68.831 59.304 68.9231 59.2392C69.0339 59.1678 68.9825 59.1128 68.7757 59.0929C68.531 59.0552 68.4848 58.9563 68.5403 58.6736C68.5788 58.4602 68.4064 58.5644 68.3305 58.5288C68.2546 58.4932 68.1996 58.5446 68.2019 58.6383C68.2169 58.7379 68.1113 58.7655 67.9848 58.7061C67.8584 58.6467 67.5773 58.6537 67.3602 58.7216C67.1431 58.7894 66.6255 58.8397 66.2001 58.8252C65.5747 58.8094 65.4549 58.7686 65.5261 58.6169C65.633 58.3892 65.3607 58.2459 64.6072 58.1083C63.9921 58.0047 62.8611 57.2576 62.898 56.9817C62.9075 56.8627 62.8317 56.827 62.7075 56.8614C62.5149 56.9099 62.201 56.8551 61.2199 56.6106C60.9997 56.5535 60.7393 56.3849 60.6172 56.2504C60.507 56.0907 60.2726 55.9652 60.0599 55.9579C59.8531 55.938 59.5749 55.8074 59.4089 55.6677C59.243 55.5281 59.2221 55.4411 59.3292 55.4759C59.449 55.5167 59.3901 55.4119 59.1862 55.2545C58.9696 55.091 58.6542 54.9738 58.4043 54.98C58.1418 54.9802 57.9276 54.9105 57.8494 54.7812C57.6282 54.4304 57.3961 54.3986 57.322 54.688C57.2701 54.8643 57.1163 54.9618 56.8723 54.9554C56.5533 54.9445 56.464 54.8717 56.2911 54.4509C56.0913 53.9558 55.804 53.7129 55.6331 53.8796C55.5781 53.931 55.2168 53.9774 54.8166 53.9748C54.1481 53.9851 54.0848 53.9554 53.883 53.6291C53.7594 53.4321 53.6796 53.2403 53.7034 53.1897C53.7271 53.1391 53.4347 52.9401 53.0545 52.7307C52.5478 52.462 52.2897 52.3871 52.0919 52.4795C51.95 52.5518 51.7744 52.5311 51.7223 52.4449C51.6575 52.3527 51.6085 52.3914 51.6064 52.5602C51.5976 52.7105 51.5493 52.7804 51.4972 52.6942C51.4518 52.6266 51.4314 52.3083 51.2886 52.3493C50.6188 52.5596 50.1294 52.4842 48.9353 51.9699C48.2025 51.6568 47.7017 51.3754 47.7373 51.2995C47.767 51.2362 47.7296 50.9871 47.6365 50.7582C47.4904 50.4117 47.2965 50.6603 47.1308 50.7832C47.0141 50.8673 46.8512 50.8526 46.7678 50.7671C46.6845 50.6817 46.3765 50.6143 46.0828 50.6153C45.5206 50.6292 45.0317 50.3225 45.2829 50.1163C45.3624 50.0455 45.2695 50.0791 45.0591 50.1655C44.5707 50.3839 43.8975 50.2067 43.7692 49.8224C43.7088 49.6551 43.5555 49.5214 43.4179 49.5185C43.2803 49.5157 43.2416 49.4666 43.3152 49.4086C43.5122 49.2849 43.3039 49.2026 42.697 49.1801C42.4218 49.1744 42.2166 49.2169 42.2434 49.2913C42.2703 49.3656 42.2145 49.3858 42.126 49.3442C42.0248 49.2967 42.0344 49.1777 42.1748 49.043C42.333 48.8703 42.3315 48.8078 42.1374 48.7939C41.9998 48.791 41.8571 48.832 41.8274 48.8953C41.7977 48.9585 41.6007 49.0821 41.3777 49.1627C40.9874 49.3036 40.7249 49.3038 40.9649 49.1541C41.0326 49.1087 40.9306 49.0299 40.7484 48.9907C40.5535 48.9455 40.2982 48.733 40.1552 48.5116C39.934 48.1607 39.8961 48.1429 39.8011 48.3453C39.7417 48.4718 39.814 48.6138 39.9404 48.6731C40.0669 48.7325 40.2009 48.8417 40.221 48.8975C40.2881 49.0833 39.6675 49.5175 39.4042 49.4865C39.2414 49.4717 39.1314 49.5745 39.0624 49.8199C39.0173 50.0148 39.0338 50.1769 39.1208 50.156C39.2018 50.1478 39.1974 50.2229 39.0934 50.313C39.002 50.409 38.8771 50.4121 38.819 50.3385C38.7668 50.2523 38.511 50.2711 38.2568 50.3524C37.8166 50.5008 37.7921 50.5201 37.9299 50.7855C38.0283 50.9706 38.0298 51.0331 37.9033 50.9737C37.7642 50.9084 37.7464 50.9463 37.8083 51.1761C37.8434 51.3315 37.9462 51.4414 38.0272 51.4332C38.1083 51.4249 38.124 51.5558 38.0409 51.7329C37.9102 52.0111 37.9355 52.023 38.1444 51.8741C38.2796 51.7832 38.4291 51.7608 38.4745 51.8284C38.5199 51.896 38.6204 51.9123 38.7066 51.8602C38.7801 51.8021 38.9185 51.8362 39.0019 51.9216C39.1046 52.0316 39.2458 51.9281 39.4812 51.591C39.6684 51.3239 39.8176 51.0389 39.8466 50.9444C39.8569 50.8567 39.9431 50.8045 40.0063 50.8342C40.0822 50.8698 40.1277 50.9375 40.092 51.0134C40.0564 51.0892 40.0595 51.2142 40.1116 51.3004C40.1578 51.3993 40.1697 51.374 40.1473 51.2245C40.124 51.0438 40.1865 51.0423 40.3778 51.1938C40.569 51.3454 40.6627 51.343 40.7518 51.1533C40.8171 51.0142 40.9338 50.9301 41.0097 50.9657C41.0856 51.0013 41.1124 51.0757 41.076 51.1203C40.8889 51.3875 40.918 51.5555 41.1694 51.6118C41.3204 51.6518 41.3979 51.7499 41.3444 51.8637C41.2969 51.9649 41.2048 52.0297 41.1415 52C41.0783 51.9703 41.0233 52.0217 41.0383 52.1213C41.0532 52.221 40.9469 52.2174 40.7757 52.1216C40.5726 51.9953 40.4298 52.0364 40.2293 52.2663C40.0837 52.445 40.0065 52.6094 40.0823 52.645C40.1582 52.6806 40.2563 52.6032 40.3098 52.4894C40.3751 52.3502 40.4747 52.3353 40.5901 52.4512C40.6861 52.5426 40.8015 52.6585 40.8521 52.6822C40.9027 52.706 40.7971 52.7336 40.6097 52.7382C40.3472 52.7385 40.3665 52.763 40.7385 52.8913C41.0413 53.0026 41.1626 53.1059 41.1092 53.2197C41.0676 53.3082 41.1324 53.4004 41.2514 53.4099C41.3704 53.4195 41.6055 53.5762 41.7671 53.791C41.948 54.0303 42.227 54.1922 42.535 54.2596C42.799 54.3218 43.0133 54.3915 43.0141 54.4227C43.0022 54.448 42.9859 54.5484 42.9629 54.6303C42.9273 54.7062 42.9601 54.7679 43.0166 54.779C43.0605 54.7841 43.1759 54.9 43.2422 55.0547C43.3085 55.2093 43.5013 55.4233 43.6479 55.5384C43.8072 55.6595 44.0431 55.8475 44.183 55.944C44.3743 56.0955 44.5297 56.0604 44.7987 55.8163C45.1836 55.4567 45.4789 55.5182 45.6526 55.9702C45.7129 56.1375 45.7093 56.2438 45.6461 56.2141C45.5828 56.1844 45.6678 56.3324 45.8293 56.5471C46.1458 56.9581 46.375 57.1275 46.351 56.9155C46.3368 56.8471 46.487 56.8559 46.6641 56.939C46.8412 57.0222 46.9447 57.1634 46.9031 57.2519C46.7962 57.4796 46.9413 57.5323 47.2557 57.3557C47.5025 57.2246 47.5286 57.2677 47.5721 57.7667C47.615 58.2344 47.6924 58.3325 48.0256 58.4118C48.2458 58.4689 48.3984 58.5713 48.3687 58.6346C48.339 58.6978 48.5109 58.8248 48.7378 58.9005C49.1283 59.0221 49.1484 59.0779 48.9664 59.3011C48.8513 59.4477 48.8276 59.4983 48.9071 59.4276C48.9866 59.3569 49.1487 59.3404 49.2499 59.3879C49.351 59.4354 49.5563 59.3928 49.7034 59.2767C49.8877 59.1471 49.9293 59.0586 49.8281 59.0111C49.7522 58.9754 49.7187 58.8825 49.7602 58.794C49.8018 58.7054 49.9022 58.7217 49.9982 58.8131C50.0942 58.9045 50.22 58.9326 50.3002 58.8931C50.4972 58.7695 50.9719 59.0078 50.8828 59.1975C50.8472 59.2734 50.9179 59.3529 51.0555 59.3558C51.2057 59.3646 51.2444 59.4136 51.1582 59.4657C51.072 59.5179 51.1182 59.6167 51.2514 59.6947C51.4731 59.8142 51.4731 59.8142 51.2158 59.7706C50.7635 59.6818 50.7878 60.1562 51.2387 60.4451C51.4671 60.5832 51.6687 60.647 51.7043 60.5711C51.7815 60.4067 52.613 60.4111 52.8481 60.5678C52.9374 60.6406 53.0484 60.8317 53.0962 60.993C53.1521 61.2354 53.1715 61.2599 53.2613 61.1014C53.3207 60.9749 53.3847 61.0359 53.4289 61.3036C53.4805 61.6211 53.5571 61.6879 53.8256 61.675C54.0003 61.6645 54.2019 61.7282 54.2541 61.8145C54.3062 61.9007 54.4564 61.9095 54.5612 61.8506C54.7151 61.7531 54.7166 61.8155 54.6165 62.0618C54.4918 62.3274 54.5052 62.3646 54.6903 62.2662C54.992 62.0838 54.9081 62.2296 54.524 62.6204C53.9927 63.1273 54.0867 63.3875 54.7387 63.2151C55.0867 63.1315 55.3745 63.1432 55.4772 63.2531C55.5926 63.369 55.6551 63.3675 55.6334 63.2493C55.6244 63.137 55.7047 63.0975 55.8378 63.1755C55.9643 63.2348 56.3355 63.3319 56.6435 63.3993C57.1396 63.4933 57.2095 63.5416 57.2232 63.8413C57.2345 64.0473 57.338 64.1885 57.4883 64.1973C57.6199 64.2128 57.7985 64.3584 57.8656 64.5442C58.052 65.0022 58.7572 65.2098 58.9428 64.8802C59.014 64.7284 59.1225 64.5632 59.1834 64.4992C59.2443 64.4352 59.2918 64.334 59.3156 64.2834C59.3393 64.2328 59.439 64.2178 59.5528 64.2713C59.8057 64.39 60.1545 63.5813 59.9491 63.3614C59.7756 63.1719 60.4156 62.7623 60.7674 62.8349C61.0627 62.8963 61.5123 63.3853 61.4411 63.537C61.3936 63.6382 61.5257 64.1788 61.8509 65.1958C61.912 65.3943 62.0535 65.5534 62.1657 65.5443C62.278 65.5353 62.2974 65.5598 62.2112 65.612C62.0142 65.7356 61.8404 66.7962 62.0048 66.8734C62.0807 66.9091 62.0482 67.1099 61.9472 67.3249C61.781 67.679 61.7102 68.3559 61.7191 69.2245C61.723 69.3806 61.5815 69.978 61.4206 70.5507C61.2471 71.1176 61.1495 71.72 61.204 71.9C61.4158 72.6323 60.2388 75.3367 59.4168 75.9695C58.9078 76.3634 57.6951 76.6121 57.2524 76.4043C57.0374 76.3034 56.7434 76.0418 56.5632 75.8338C56.4016 75.619 56.2519 75.3789 56.2377 75.3105C56.1877 75.0555 55.1826 73.8427 54.7874 73.5337C54.5582 73.3643 54.3074 73.0767 54.2343 72.9035C54.1017 72.5943 52.0857 71.9565 51.9716 71.6406C51.8785 71.4116 51.7548 71.2146 51.6857 71.1976C51.5287 71.1702 50.6274 70.3612 50.2098 69.9027C50.0423 69.7006 49.6783 69.3908 49.4238 69.2095C49.1693 69.0283 48.9564 68.7585 48.9466 68.615C48.9293 68.4217 48.7827 68.3065 48.323 68.1679C47.7747 67.9877 47.2329 67.5635 46.7668 66.9125C46.6246 66.7222 46.2622 66.4749 44.745 65.5311C44.5418 65.4048 44.3624 65.228 44.3601 65.1343C44.3452 65.0346 44.2231 64.9001 44.084 64.8348C42.9761 64.2684 42.3406 63.8465 41.9744 63.4431C41.3446 62.7461 39.3406 61.3267 38.5579 61.021C38.0721 60.8392 37.6963 60.5547 37.2273 60.0413C36.8551 59.6504 36.2612 59.1401 35.8869 58.918C35.5127 58.696 35.0341 58.3016 34.8338 58.0377C34.5048 57.6208 33.3928 56.6357 33.0379 56.4382C32.962 56.4026 32.4716 56.0334 31.9551 55.6211C31.42 55.2156 30.7636 54.7067 30.4957 54.4883C30.2219 54.2826 29.8089 54.0115 29.5812 53.9046C29.3535 53.7977 28.8675 53.3534 28.5131 52.9247C28.1461 52.4899 27.5945 51.9223 27.2634 51.6742C26.9381 51.4134 26.5868 51.1096 26.4707 50.9624C26.2712 50.7298 25.6282 50.2582 24.9496 49.8624C24.3849 49.5201 23.7976 49.0283 23.6732 48.8001C23.6077 48.6767 23.3018 48.4405 22.9975 48.2668C22.4023 47.9564 22.0897 47.7016 21.5753 47.1205C20.9708 46.4354 20.8115 46.3143 19.9009 45.8868C19.4076 45.6552 18.9887 45.3968 18.9871 45.3343C18.973 45.2659 18.7066 45.11 18.3911 44.9928C18.0631 44.8696 17.72 44.6468 17.6158 44.4744C17.4206 44.1667 16.4896 43.4208 15.6577 42.8913C15.4226 42.7346 14.4954 42.145 13.6062 41.5732C11.853 40.4414 11.1084 40.1535 9.5681 40.0478C8.5663 39.9788 8.11459 39.6587 7.67274 38.7258C7.30987 37.9534 7.22294 37.218 7.44265 36.75C7.51391 36.5982 7.53742 36.2851 7.50079 36.0672C7.40738 35.5757 7.92916 34.4315 9.11724 32.4269C9.63925 31.5452 10.4391 29.5127 10.642 29.3765C10.8516 29.2588 11.1555 28.9075 11.3419 28.6091C11.7859 27.8606 12.2674 27.3611 12.7736 27.1048C13.0144 26.9864 13.2537 26.8054 13.3012 26.7042C13.3487 26.6031 13.4543 26.5755 13.5369 26.6297C13.6195 26.6839 13.7496 26.6369 13.8529 26.5156C13.974 26.3563 13.9538 26.3006 13.7917 26.3171C13.6608 26.3328 13.8333 26.2286 14.1864 26.1011C14.5269 25.9676 14.8697 25.9279 14.9218 26.0141C14.974 26.1004 15.0432 26.1174 15.0728 26.0542C15.15 25.8897 16.0783 26.0168 16.4525 26.2388C16.681 26.377 16.7406 26.513 16.6523 26.7339C16.5751 26.8984 16.5485 27.0865 16.5753 27.1609C16.6022 27.2352 16.5234 27.3372 16.406 27.3901C16.2328 27.4631 16.3288 27.5545 16.7968 27.7742C16.9865 27.8633 17.8776 27.2475 18.7736 27.0816C19.4889 26.9389 20.247 27.2639 20.2826 27.188C20.3123 27.1248 20.4432 27.1091 20.5823 27.1744C20.7594 27.2575 20.7602 27.2887 20.5921 27.3179C20.4114 27.3411 20.3877 27.3917 20.4927 27.5954C20.5657 27.7686 20.6669 27.8161 20.7591 27.7513C20.8453 27.6992 20.8624 27.63 20.7991 27.6003C20.7359 27.5706 20.9284 27.5221 21.2088 27.4839C21.5018 27.4517 21.7591 27.4953 21.7927 27.5883C21.8262 27.6812 21.9764 27.69 22.137 27.611C22.3838 27.4799 22.4091 27.4918 22.5291 27.7951C22.6088 27.9869 22.5644 28.213 22.4552 28.347C22.297 28.5196 22.3305 28.6126 22.6356 28.8175C22.8455 28.9624 23.0404 29.0076 23.076 28.9317C23.1116 28.8558 23.1555 28.861 23.1883 28.9227C23.2151 28.997 23.1051 29.0997 22.9632 29.172C22.7409 29.2837 22.735 29.2964 22.9544 29.3222C23.1046 29.331 23.1753 29.4105 23.1397 29.4864C23.1041 29.5623 22.9926 29.6026 22.9167 29.5669C22.8408 29.5313 22.785 29.5514 22.8119 29.6258C22.8387 29.7001 23.2135 29.6909 23.6366 29.6116C24.1467 29.5115 24.491 29.5343 24.657 29.6739C24.8676 29.85 24.9234 29.8299 25.0026 29.4966C25.0656 29.2638 25.1689 29.1425 25.2701 29.19C25.3586 29.2316 25.3622 29.1252 25.2639 28.9401C25.1648 28.7238 25.1633 28.6613 25.2719 28.7586C25.3739 28.8374 25.5621 28.864 25.6922 28.817C25.8594 28.7566 26.0484 28.8145 26.2724 29.0277C26.745 29.4348 27.0357 29.3089 26.8285 28.7639C26.7412 28.5223 26.8163 28.5267 27.3223 28.7642C27.8788 29.0255 27.8981 29.05 27.5948 29.17C27.3227 29.2893 27.3793 29.3004 27.9854 29.2917C28.3728 29.2883 28.7409 29.2605 28.8026 29.2277C28.8643 29.1949 29.077 29.2022 29.2845 29.2533C30.1392 29.4384 30.3214 29.4777 30.6271 29.4514C30.8018 29.4408 30.9655 29.4868 30.9856 29.5425C31.0057 29.5983 31.1485 29.5573 31.2956 29.4411C31.4614 29.3183 31.6361 29.3077 31.7388 29.4177C31.8416 29.5276 32.0476 29.5163 32.2386 29.4053C32.4237 29.307 32.6356 29.283 32.7063 29.3625C32.777 29.442 33.1697 29.3948 33.5726 29.2598C34.1428 29.0645 34.2678 29.0614 34.1787 29.2511C34.1134 29.3902 34.1335 29.446 34.2324 29.3998C34.3186 29.3477 34.5633 29.3854 34.7597 29.493C35.0127 29.6118 35.325 29.6041 35.7585 29.4371C36.1116 29.3096 36.4722 29.2319 36.5607 29.2735C36.6493 29.3151 36.8114 29.2986 36.9221 29.2271C37.0329 29.1556 37.4307 29.0645 37.8106 29.0113C38.1906 28.9582 38.6323 28.8723 38.7743 28.8C38.9289 28.7337 39.1104 28.7417 39.1937 28.8271C39.2771 28.9126 39.4206 28.9028 39.512 28.8068C39.6034 28.7108 39.7841 28.6875 39.8853 28.735C39.9864 28.7826 40.1173 28.7668 40.147 28.7036C40.1767 28.6403 40.283 28.644 40.3605 28.7421C40.4438 28.8275 40.7934 28.8064 41.1406 28.6915C41.4878 28.5767 41.8171 28.4998 41.8863 28.5168C42.0626 28.5687 42.2887 28.6131 42.3951 28.6168C42.5014 28.6204 42.7335 28.6522 42.9165 28.7226C42.9924 28.7583 43.1031 28.6868 43.1566 28.5729C43.21 28.4591 43.4018 28.3794 43.5825 28.3562C43.8071 28.3381 43.8956 28.3797 43.8481 28.4808C43.8125 28.5567 43.846 28.6497 43.9219 28.6853C43.9978 28.7209 44.0884 28.5937 44.1269 28.3802C44.1876 28.0537 44.2248 28.0403 44.5172 28.2393C44.6891 28.3663 44.8587 28.3996 44.8884 28.3364C44.9181 28.2731 45.1553 28.261 45.4067 28.3173C45.6581 28.3736 46.0389 28.3517 46.256 28.2838C46.479 28.2033 46.7356 28.2157 46.8443 28.313C47.0742 28.5136 47.4586 28.3854 47.4829 28.1035C47.5043 27.9592 47.5794 27.9636 47.7395 28.1159C47.8675 28.2378 48.0312 28.2837 48.0988 28.2383C48.1664 28.1929 48.3985 28.2246 48.6008 28.3196C48.8032 28.4147 49.0598 28.4271 49.1958 28.3674C49.3192 28.3019 49.7051 28.2361 50.0487 28.2276C50.3923 28.2191 50.6912 28.1742 50.715 28.1236C50.8218 27.896 51.9638 27.5677 52.1179 27.7327C52.24 27.8672 52.333 27.8336 52.4576 27.568C52.5705 27.3277 52.6567 27.2756 52.778 27.3788C52.8614 27.4643 53.1187 27.5079 53.3492 27.4772C53.5798 27.4465 53.8059 27.4909 53.8454 27.5712C53.8849 27.6515 53.8833 27.589 53.8474 27.4024C53.7907 27.1288 53.8085 27.0908 53.9603 27.1621C54.112 27.2334 54.1239 27.2081 54.0196 27.0356C53.9027 26.8572 53.9265 26.8066 54.1859 26.6815C54.4639 26.5496 54.4572 26.531 54.1694 26.5194C53.9879 26.5114 53.7871 26.4788 53.7053 26.4558C53.6235 26.4329 52.016 26.8976 51.8978 26.9193C51.7796 26.941 51.6405 26.8756 51.5824 26.8021C51.5303 26.7159 51.4492 26.7241 51.4136 26.8C51.3779 26.8759 51.2344 26.8857 51.0826 26.8144C50.9309 26.7432 50.762 26.7411 50.6758 26.7932C50.5896 26.8454 50.3955 26.8314 50.2437 26.7601C49.9655 26.6295 49.9655 26.6295 50.338 26.5265C50.822 26.3833 51.4146 26.3374 51.5917 26.4206C51.6676 26.4562 51.8364 26.4583 51.9546 26.4366C53.3026 26.097 54.8037 25.6286 55.2361 25.9242C55.5285 26.1232 55.6922 26.1692 55.7397 26.068C55.7812 25.9795 55.831 25.972 55.8579 26.0464C55.9384 26.2694 55.3488 26.4402 55.1441 26.2515C54.9782 26.1118 54.9038 26.1387 54.7799 26.4355C54.673 26.6632 54.6931 26.7189 54.7964 26.5976C54.9784 26.3744 55.2543 26.4113 55.1475 26.639C55.1118 26.7149 55.1454 26.8078 55.2213 26.8434C55.2972 26.879 55.3834 26.8269 55.387 26.7206C55.4033 26.6201 55.4939 26.4929 55.5927 26.4467C55.6916 26.4005 55.9139 26.2887 56.099 26.1904C56.426 26.0198 56.426 26.0198 56.2203 26.2937C56.1051 26.4403 56.0778 26.5972 56.1284 26.621C56.179 26.6447 56.2133 26.7689 56.1598 26.8827C56.1064 26.9966 56.0016 27.0554 55.9257 27.0198C55.8498 26.9841 55.7272 27.0809 55.6619 27.2201C55.5965 27.3592 55.6131 27.5213 55.7142 27.5688C56.0051 27.7054 56.8862 27.4398 56.8993 27.2145C56.9089 27.0955 56.9944 27.0121 57.0948 27.0284C57.2138 27.0379 57.2739 26.9427 57.2812 26.73C57.2972 26.3671 57.3068 26.2481 57.3765 26.0338C57.424 25.9326 57.3295 25.9037 57.1183 25.9589C56.876 26.0149 56.2177 25.9374 56.5448 25.7668C56.773 25.6424 57.7234 25.6565 57.8001 25.7233C58.0308 25.9551 58.4449 25.7636 58.5175 25.4118C58.573 25.1292 58.5975 25.1098 58.716 25.3507C58.8277 25.5729 58.8783 25.5967 59.0448 25.505C59.3711 25.3032 60.5601 25.1051 60.7877 25.212C60.9395 25.2832 61.0257 25.2311 61.0219 25.0749C61.0374 24.9433 61.0797 24.886 61.1251 24.9536C61.1966 25.0643 61.5596 25.0804 62.6512 24.9909C62.8572 24.9795 62.9561 24.9333 62.8861 24.8851C62.8102 24.8494 62.9158 24.8218 63.1285 24.8291C63.3353 24.849 63.4958 24.77 63.4749 24.683C63.46 24.5834 63.515 24.532 63.6035 24.5736C63.692 24.6151 63.7842 24.5503 63.8317 24.4492C63.8792 24.348 64.0085 24.2698 64.1149 24.2734C64.2651 24.2822 64.277 24.2569 64.1505 24.1975C64.0493 24.15 64.0411 24.069 64.1146 24.0109C64.1882 23.9528 64.3206 23.9995 64.4166 24.0909C64.532 24.2068 64.5937 24.1741 64.5958 24.0052C64.6105 23.8424 64.5078 23.7324 64.3196 23.7058C64.1627 23.6784 64.0607 23.5997 64.0964 23.5238C64.132 23.4479 64.2502 23.4262 64.364 23.4797C64.4779 23.5331 64.5961 23.5114 64.6317 23.4355C64.6674 23.3597 64.8643 23.236 65.0873 23.1555C65.3104 23.075 65.5608 22.8375 65.6558 22.6352C65.7508 22.4328 65.9759 22.1835 66.1424 22.0918C66.3089 22.0002 66.4553 21.8528 66.4589 21.7465C66.4692 21.6587 66.7346 21.5209 67.0395 21.4634L67.618 21.3491L67.3335 21.7249C66.9888 22.1959 67.1734 22.3289 67.6006 21.912L67.9119 21.6106L67.765 21.9892C67.3251 23.1565 67.3305 23.3751 67.887 23.6364C68.1906 23.7789 68.3446 23.9438 68.3627 24.1684C68.3831 24.4867 67.8507 25.4562 67.5616 25.6446C67.4754 25.6967 67.4888 25.7339 67.5698 25.7257C67.9126 25.6859 68.4131 26.4611 68.3235 26.8822C68.2791 27.1083 68.214 27.5099 68.2016 27.7665C68.1582 28.2864 67.8961 28.8117 67.5995 28.9502C67.4947 29.0091 67.2451 29.2778 67.046 29.5702C66.847 29.8627 66.5788 30.1381 66.4613 30.191C66.3312 30.238 65.944 30.5038 65.5947 30.7875C64.4429 31.7285 63.2059 32.2591 61.6302 32.4918C60.8145 32.6183 60.085 32.6925 60.0344 32.6688C59.9838 32.645 59.4492 32.7645 58.8723 32.9413C58.2954 33.1181 57.7608 33.2375 57.6722 33.196C57.5837 33.1544 57.1614 33.2648 56.7347 33.4504C56.308 33.636 55.4744 33.8003 54.8877 33.8336C54.3069 33.8542 53.5849 33.9783 53.2816 34.0983C52.9783 34.2183 52.6861 34.2818 52.6355 34.258C52.5849 34.2343 52.3231 34.2657 52.0681 34.3158C51.8071 34.3785 51.5007 34.3736 51.3742 34.3142C51.2478 34.2548 50.8864 34.3013 50.5704 34.4153C50.2545 34.5294 49.9504 34.6182 49.8871 34.5885C49.6595 34.4816 48.2728 34.7721 47.5301 35.0718C47.0907 35.2514 46.6811 35.3678 46.6305 35.344C46.5799 35.3203 46.2438 35.3786 45.8966 35.4934C45.5553 35.5956 45.2007 35.6606 45.1121 35.6191C45.0236 35.5775 44.5202 35.6962 44.0058 35.8714C42.9582 36.2286 42.9895 36.2278 41.166 36.2979C39.9918 36.3332 39.4564 36.4214 38.7375 36.6704C38.5947 36.7115 38.42 36.722 38.3567 36.6923C38.2935 36.6627 38.0697 36.7119 37.8973 36.8162C37.6876 36.9339 37.5188 36.9318 37.4473 36.8211C37.3632 36.7044 37.3446 36.7111 37.3544 36.8546C37.3701 36.9855 37.2788 37.0815 37.1419 37.1099C36.9925 37.1323 37.1324 37.2289 37.5237 37.3817C37.8644 37.5108 38.3079 37.7499 38.5244 37.9133C38.7283 38.0708 39.0252 38.1947 39.1999 38.1842C39.362 38.1676 39.7198 38.2276 39.9846 38.321C40.4005 38.4545 40.4586 38.5281 40.4097 38.8293L40.3498 39.1871L40.5742 38.9065C40.7316 38.7026 40.9183 38.6667 41.2143 38.7594C41.4412 38.8351 41.6792 38.8542 41.7402 38.7902C41.807 38.7135 41.9141 38.7484 42.0311 38.9268C42.1346 39.068 42.5661 39.3323 43.008 39.5089C43.444 39.6982 43.8495 39.9194 43.9143 40.0116C43.9791 40.1037 44.1309 40.175 44.2811 40.1838C44.4313 40.1926 44.502 40.2721 44.4605 40.3606C44.4189 40.4492 44.4896 40.5287 44.6399 40.5375C44.834 40.5514 44.8415 40.6012 44.6773 40.7866C44.4945 40.9786 44.5273 41.0403 44.8435 41.1887C45.185 41.3491 45.1976 41.355 44.8868 41.4252C44.7002 41.4611 44.5657 41.5831 44.5807 41.6828C44.6196 41.9944 45.1601 41.8622 45.3636 41.4947C45.4467 41.3176 45.4749 41.1919 45.3938 41.2001C45.1819 41.2241 45.5361 40.6341 45.7599 40.5848C45.8595 40.5698 46.1109 40.6261 46.326 40.7271C46.541 40.828 46.6972 40.8242 46.6822 40.7245C46.6672 40.6249 46.7222 40.5735 46.7981 40.6091C46.874 40.6448 46.9388 40.7369 46.9537 40.8366C46.962 40.9176 47.4248 41.1812 47.9932 41.4172C48.9529 41.806 49.0295 41.8729 49.3253 42.4594C49.5026 42.805 49.6851 43.1068 49.7357 43.1305C49.9128 43.2137 50.5111 42.8926 50.4575 42.7439C50.4366 42.6569 50.4551 42.6502 50.5199 42.7424C50.5721 42.8286 50.9045 42.8766 51.2355 42.8622C51.8847 42.8274 52.6412 43.09 52.3826 43.2464C52.2963 43.2985 52.2919 43.3737 52.3678 43.4093C52.4437 43.4449 52.5746 43.4292 52.6482 43.3711C52.7344 43.319 52.9479 43.3574 53.1502 43.4525C53.3526 43.5475 53.7878 43.7055 54.1151 43.7974C54.455 43.8953 54.7021 44.0267 54.6724 44.0899C54.5774 44.2923 53.9527 44.3077 53.7666 44.1123C53.6706 44.0209 53.5761 43.992 53.5405 44.0679C53.4573 44.2449 53.7841 44.5681 54.0087 44.5501C54.121 44.5411 54.1106 44.6288 53.9405 44.8268C53.7281 45.0821 53.7363 45.1631 54.0734 45.3986C54.4998 45.7068 54.7192 45.7327 54.8439 45.4671C54.8914 45.3659 55.0476 45.362 55.2314 45.4637C55.4211 45.5528 55.4807 45.6888 55.4012 45.7596C55.3217 45.8303 55.4074 46.0094 55.586 46.155C55.9752 46.4767 56.7494 46.4388 56.9156 46.0847C56.975 45.9582 57.1103 45.8673 57.2293 45.8769C57.3862 45.9043 57.4092 45.8224 57.3271 45.5369C57.2593 45.3199 57.2815 45.2068 57.37 45.2484C57.4585 45.2899 57.4921 45.3829 57.4505 45.4714C57.409 45.5599 57.522 45.5821 57.7205 45.521C57.919 45.4598 58.1563 45.4477 58.2701 45.5011C58.3839 45.5546 58.584 45.5559 58.7267 45.5149C58.9067 45.4604 58.9319 45.4723 58.8153 45.5564C58.7231 45.6212 58.695 45.7469 58.7597 45.8391C58.8312 45.9498 58.6826 46.0035 58.3694 45.98C57.9939 45.958 57.8274 46.0496 57.7086 46.3026C57.5305 46.682 57.6332 46.792 58.0049 46.6578C58.2094 46.584 58.2161 46.6026 58.0511 46.7567C57.8557 46.9428 57.9726 47.1212 58.2202 47.0213C58.2945 46.9944 58.6218 47.0864 58.9752 47.2214C59.7072 47.5033 59.9571 47.4972 59.9197 47.2481C59.9106 47.1358 59.9731 47.1342 60.1138 47.262C60.2865 47.4203 60.3667 47.3808 60.5219 47.0832C60.6763 46.7543 60.6815 46.7104 60.4398 46.7977C60.2168 46.8782 60.1283 46.8366 59.9474 46.5973C59.6882 46.2287 59.6196 45.9803 59.792 45.8761C59.8596 45.8306 59.9564 45.9533 60.0168 46.1205C60.1108 46.3807 60.1681 46.4231 60.3531 46.3247C60.4951 46.2525 60.8537 46.3436 61.2837 46.5455C61.8908 46.8306 61.9742 46.916 61.8219 47.076C61.6399 47.2993 61.7813 47.4583 62.0087 47.3027C62.2488 47.153 62.4894 47.5283 62.2888 47.7583C62.161 47.899 62.1641 48.0239 62.368 48.1814C62.7252 48.4726 63.0099 48.3593 62.9248 47.9489C62.8747 47.6938 62.8807 47.6812 62.9604 47.873C63.02 48.009 63.1793 48.1301 63.3109 48.1456C63.5118 48.1781 63.5185 48.1967 63.3065 48.2207C63.0887 48.2573 63.0776 48.3139 63.1656 48.5867C63.2729 48.8841 63.3488 48.9197 64.0264 49.0217C64.5344 49.0904 64.7933 49.1966 64.8529 49.3326C64.8932 49.4441 65.0078 49.5288 65.1074 49.5138C65.3878 49.4756 65.5517 49.0278 65.353 48.8264C65.2629 48.7224 65.1878 48.718 65.2027 48.8177C65.2177 48.9173 65.1552 48.9188 65.0525 48.8089C64.9624 48.7048 64.9095 48.5874 64.9392 48.5241C64.9986 48.3977 64.2851 48.109 64.0048 48.1472C63.7616 48.172 63.5748 47.9453 63.6943 47.7236C63.7418 47.6224 63.7805 47.6714 63.803 47.8209C63.8337 48.0514 63.8463 48.0574 63.9413 47.855C64.0719 47.5767 64.4037 47.5935 64.8174 47.8958C64.9893 48.0229 65.1589 48.0562 65.1945 47.9803C65.2302 47.9044 65.2986 47.8902 65.3507 47.9764C65.4088 48.05 65.8783 48.3322 66.4222 48.5875C67.2569 48.9794 67.4102 49.1131 67.4425 49.4061C67.4807 49.6865 67.4265 49.7691 67.1975 49.8622C66.77 50.0165 66.7328 50.7863 67.1628 50.9882C67.4537 51.1248 67.4596 51.1121 67.3218 50.8467C67.184 50.5814 67.2085 50.562 67.6466 50.5824C67.9032 50.5949 68.1605 50.6385 68.2178 50.6808C68.2625 50.7172 68.3866 50.6829 68.478 50.5869C68.7284 50.3494 68.913 50.4824 68.7705 50.7859C68.6814 50.9757 68.7209 51.0559 68.9596 51.1063C69.2043 51.144 69.2475 51.1179 69.1499 50.9641C69.0717 50.8348 69.0769 50.7909 69.178 50.8384C69.4437 50.9631 69.9685 50.7001 69.9987 50.4056C70.0237 50.1549 70.4646 50.0378 70.7006 50.2257C70.7511 50.2494 70.8255 50.2226 70.8611 50.1467C70.9086 50.0455 71.0106 50.1243 71.1409 50.3398C71.2772 50.5427 71.5258 50.7366 71.7712 50.8055C72.1804 50.9204 72.1804 50.9204 71.8324 51.0041C71.6272 51.0466 71.5291 51.1241 71.6303 51.1716C71.7188 51.2131 71.7472 51.3499 71.6937 51.4638C71.5215 51.8306 72.4942 51.7315 72.9077 51.7713C73.0267 51.7809 73.186 51.9019 73.2887 52.0119C73.3922 52.1531 73.512 52.1939 73.6041 52.1291C73.6903 52.077 73.8718 52.085 74.0236 52.1563C74.1754 52.2275 74.275 52.2126 74.2667 52.1315C74.2585 52.0505 74.3871 51.941 74.5425 51.9059C74.7722 51.844 74.8101 51.8618 74.7009 51.9958C74.5375 52.2123 76.1201 53.017 76.4943 53.2391C76.8686 53.4611 76.7643 54.045 76.6373 54.2169C76.5526 54.3315 76.5557 54.4564 76.6316 54.4921C76.7074 54.5277 76.8004 54.4941 76.836 54.4182C76.8716 54.3424 77.0152 54.3326 77.1669 54.4038C77.3187 54.4751 77.4875 54.4772 77.5678 54.4377C77.654 54.3855 77.9181 54.4478 78.1651 54.5792C78.8995 54.9548 79.0696 54.7568 78.5536 54.1133C78.3146 53.8004 78.0072 53.5017 77.8934 53.4483C77.6404 53.3295 77.5769 53.0373 77.8075 53.0066C78.1689 52.9602 79.0921 53.3936 79.3252 53.7192C79.4674 53.9094 79.6393 54.0364 79.7263 54.0155C79.8007 53.9887 79.7896 54.0452 79.6737 54.1606C79.3869 54.4427 79.5342 54.5891 79.9498 54.4601C80.3097 54.3512 80.3223 54.3571 80.0675 54.6697C79.8796 54.9056 79.8582 55.0499 79.9877 55.2342C80.0786 55.3695 80.1121 55.4624 80.0489 55.4327C79.8971 55.3614 80.278 56.3584 80.4424 56.4356C80.5183 56.4712 80.6113 56.4377 80.6469 56.3618C80.6825 56.2859 80.9272 56.3236 81.1928 56.4483C81.4964 56.5908 81.7909 56.621 81.9701 56.5353C82.1552 56.437 82.2742 56.4466 82.2899 56.5774C82.3467 56.8511 82.9024 57.0811 82.9148 56.8245C82.9339 56.5865 83.1735 56.6681 83.4385 57.0241C83.5614 57.1898 83.6499 57.2314 83.6915 57.1429C83.7331 57.0543 83.8848 57.1256 84.1022 57.3202C84.3448 57.5268 84.4772 57.5735 84.5247 57.4723C84.5722 57.3711 84.6102 57.3889 84.6267 57.551C84.6656 57.8626 84.9362 57.6809 84.9894 57.3046C85.0041 57.1417 85.0405 57.097 85.0808 57.2085C85.1703 57.5439 85.8796 58.1701 86.1026 58.0896C86.2327 58.0427 86.2438 57.9861 86.1426 57.9386C86.0541 57.8971 86.0198 57.7729 86.0732 57.6591C86.1267 57.5452 86.2263 57.5303 86.3097 57.6157C86.5084 57.8171 86.3058 58.2159 85.9511 58.2809C85.7087 58.3369 85.7786 58.3852 86.2897 58.5788C87.4882 59.018 88.322 59.1161 88.4645 58.8126C88.5595 58.6102 88.5267 58.5485 88.3014 58.5353C87.8321 58.5157 86.725 57.9805 86.5678 57.6906C86.4501 57.481 86.479 57.3865 86.6819 57.2502C86.977 57.0492 87.5676 57.1721 88.836 57.6595C89.3344 57.8472 89.8701 58.0215 90.0389 58.0236C90.233 58.0376 90.2903 58.0799 90.2041 58.132C90.1179 58.1842 90.2265 58.2815 90.4973 58.3623C90.8499 58.4661 90.9013 58.5211 90.7288 58.6254C90.5073 58.7683 90.4523 58.8197 90.2667 59.1493C90.2073 59.2758 90.0891 59.2975 89.999 59.1934C89.9157 59.108 89.671 59.0703 89.4717 59.1002C89.1668 59.1578 89.1059 59.2218 89.1485 59.427C89.2179 59.7066 89.5609 59.9293 89.6441 59.7523C89.7272 59.5752 90.4982 60.1687 90.843 60.7165C90.8884 60.7841 90.9315 60.7581 90.9411 60.6391C90.9566 60.5074 91.1061 60.485 91.4088 60.5962C92.0776 60.8485 92.3417 60.9107 92.4904 60.857C92.5647 60.8302 92.6793 60.9149 92.739 61.0509C92.8246 61.2301 92.9318 61.2649 93.186 61.1836C93.4217 61.1091 93.7237 61.1891 94.1672 61.4282C94.7059 61.7274 94.8754 61.7607 95.2962 61.5878C95.5624 61.4812 95.8553 61.449 95.9446 61.5218C96.0466 61.6005 96.17 61.5349 96.2472 61.3705C96.3541 61.1429 96.4664 61.1338 96.9596 61.3654C97.2758 61.5139 97.569 61.7441 97.6287 61.8802C97.6898 62.0787 97.759 62.0957 97.9374 61.9788C98.0853 61.8939 98.1292 61.8991 98.0817 62.0003C97.957 62.2659 98.4546 62.4223 98.8628 62.2435C99.0605 62.1511 99.329 62.1382 99.4369 62.2043C99.608 62.3001 99.5894 62.3068 99.3759 62.2683C99.1498 62.2239 99.1193 62.2559 99.2133 62.5161C99.2737 62.6834 99.4076 62.7926 99.514 62.7962C99.6263 62.7872 99.9334 62.8233 100.216 62.8788C100.662 62.9803 100.694 63.0108 100.454 63.1292C100.293 63.2082 100.406 63.2304 100.717 63.1602C101.526 63.0152 102.069 63.2393 101.873 63.6567C101.784 63.8464 101.823 63.9267 101.999 63.9474C102.206 63.9673 102.223 63.9293 102.138 63.7502C102.053 63.6023 102.071 63.5956 102.237 63.7352C102.353 63.8511 102.579 63.8956 102.734 63.8605C103.138 63.7567 103.442 63.9305 103.508 64.3164C103.544 64.503 103.673 64.6561 103.823 64.6649C104.017 64.6788 104.018 64.7101 103.802 64.8092C103.66 64.8814 103.39 64.8631 103.213 64.78C103.024 64.6909 102.893 64.7066 102.908 64.8063C102.923 64.9059 102.832 65.0332 102.727 65.092C102.622 65.1509 102.432 65.2931 102.316 65.4084C102.145 65.5752 102.159 65.6124 102.376 65.5445C102.556 65.49 102.644 65.5316 102.66 65.6625C102.676 65.7933 102.777 65.8409 103.002 65.8228C103.257 65.804 103.289 65.8344 103.149 65.9692C103.033 66.0845 103.054 66.1715 103.244 66.2606C103.395 66.3319 103.533 66.566 103.569 66.7839L103.629 67.1824L103.923 66.9189C104.087 66.7648 104.192 66.706 104.175 66.7751C104.146 66.8384 104.302 66.8345 104.513 66.7793C104.73 66.7114 104.911 66.7194 104.938 66.7938C104.965 66.8681 105.141 66.8888 105.332 66.809C105.524 66.7293 105.65 66.7575 105.62 66.8207C105.591 66.8839 105.681 67.0192 105.815 67.0972C105.966 67.1684 106.098 67.1839 106.128 67.1207C106.157 67.0574 106.364 67.0773 106.592 67.1842C106.857 67.3089 107.026 67.311 107.092 67.1719C107.145 67.058 107.25 66.9992 107.326 67.0348C107.402 67.0704 107.404 67.1641 107.35 67.2467C107.277 67.3361 107.354 67.4341 107.543 67.492C107.707 67.5379 107.874 67.7088 107.921 67.8702C107.957 68.0256 108.067 68.1854 108.155 68.2269C108.244 68.2685 108.312 68.4856 108.311 68.7169C108.311 68.9482 108.384 69.1214 108.483 69.1064C108.583 69.0915 108.656 69.0334 108.642 68.965C108.628 68.8966 108.839 68.8413 109.096 68.8538C109.358 68.8535 109.557 68.7924 109.549 68.7113C109.516 68.4183 109.772 68.662 109.895 69.059C110.011 69.4687 110.714 69.8451 111.029 69.6686C111.133 69.6097 111.21 69.6766 111.227 69.8387C111.25 70.0194 111.3 70.0431 111.348 69.942C111.39 69.8534 111.488 69.8072 111.564 69.8429C111.64 69.8785 111.636 69.9536 111.55 70.0057C111.439 70.0772 111.559 70.1493 111.874 70.2352C112.145 70.3161 112.63 70.4666 112.971 70.5957C113.299 70.7188 113.644 70.7728 113.73 70.7207C113.884 70.6231 114.185 70.9344 114.083 71.087C114.011 71.2075 114.105 71.2365 114.657 71.3103C115.541 71.4322 115.989 71.5962 116.159 71.892C116.257 72.0459 116.261 72.202 116.199 72.2348C116.124 72.2617 116.132 72.3115 116.195 72.3412C116.258 72.3709 116.415 72.367 116.539 72.3327C116.687 72.279 116.853 72.3874 117.086 72.7129C117.584 73.3945 118.404 73.6867 119.129 73.4563C119.656 73.287 119.705 73.2483 119.58 72.9888C119.462 72.748 119.48 72.71 119.698 72.6734C120.196 72.5986 119.88 72.4501 119.204 72.4418C118.76 72.434 118.358 72.3377 118.053 72.1327C117.792 71.9642 117.484 71.8655 117.347 71.8939C117.185 71.9417 117.109 71.8748 117.097 71.6688C117.079 71.4442 117.009 71.396 116.728 71.4029C116.473 71.4217 116.39 71.3675 116.393 71.2299C116.402 71.0797 116.345 71.0686 116.16 71.1669C115.975 71.2653 115.906 71.2482 115.914 71.098C115.918 70.9916 115.802 70.8445 115.663 70.7792C115.423 70.6663 115.44 70.6284 115.99 70.3461C116.416 70.1293 116.584 70.1001 116.6 70.2622C116.617 70.4243 116.679 70.4228 116.838 70.2813C117.028 70.1079 117.053 70.1198 117.102 70.3436C117.174 70.7168 117.615 71.0935 117.817 70.9572C117.928 70.8857 118.136 70.9681 118.404 71.1552C118.671 71.3424 118.923 71.4299 119.11 71.3941C119.302 71.3455 119.435 71.3923 119.552 71.5707C119.642 71.7059 119.821 71.8515 119.947 71.8797C120.098 71.9197 120.131 72.0126 120.027 72.1027C119.801 72.3208 120.49 72.6288 120.881 72.4879C121.122 72.4007 121.204 72.4237 121.303 72.64C121.375 72.782 121.612 73.0011 121.828 73.1333C122.538 73.5283 122.692 73.6933 122.663 74.0503C122.649 74.2444 122.602 74.3768 122.577 74.3649C122.539 74.3471 122.562 74.4966 122.641 74.6884C122.703 74.8869 122.8 75.0407 122.863 75.0392C122.925 75.0376 123.049 75.2346 123.149 75.4822C123.375 76.0516 123.664 76.1257 124.111 75.7334C124.344 75.5339 124.524 75.4794 124.626 75.5894C124.722 75.6808 124.816 75.6785 124.882 75.5706C124.941 75.4441 124.993 75.4991 125.042 75.7229C125.078 75.9095 125.207 76.0626 125.32 76.0848C125.439 76.0944 125.667 76.2325 125.846 76.3781C126.031 76.5423 126.189 76.6009 126.225 76.525C126.26 76.4491 126.316 76.429 126.379 76.4587C126.672 76.6577 126.833 76.61 126.975 76.3064C127.065 76.1167 127.169 76.0266 127.227 76.1002C127.272 76.1678 127.384 76.1588 127.488 76.0687C127.58 75.9727 127.748 75.9435 127.862 75.997C127.976 76.0504 128.088 76.0414 128.123 75.9655C128.159 75.8896 128.311 75.9609 128.502 76.1124C128.675 76.2707 128.909 76.3962 129.028 76.4057C129.204 76.4264 129.18 76.477 128.909 76.6587C128.725 76.7882 128.561 76.9736 128.545 77.074C128.528 77.1744 128.404 77.2087 128.29 77.1553C128.151 77.0899 128.046 77.1488 128.013 77.3184C127.979 77.4567 127.833 77.6041 127.696 77.6325C127.491 77.6751 127.511 77.7308 127.834 77.8979C128.099 78.0226 128.425 78.052 128.741 77.938C129.014 77.85 129.325 77.811 129.439 77.8644C129.629 77.9535 130.153 77.6593 130.105 77.498C130.079 77.4548 130.186 77.4585 130.331 77.5111C130.47 77.5765 130.567 77.7303 130.54 77.8873C130.507 78.0881 130.433 78.1149 130.267 77.9753C130.146 77.872 130.014 77.8565 129.973 77.945C129.854 78.198 130.49 78.3885 130.797 78.1934C130.957 78.0832 131.163 78.0406 131.251 78.0822C131.378 78.1416 131.36 78.1795 131.174 78.2466C130.802 78.3808 130.824 78.499 131.22 78.608C131.604 78.711 131.757 78.5822 131.595 78.3362C131.38 78.004 132.031 77.5066 132.429 77.6781C132.58 77.7493 132.318 78.2434 132.142 78.2227C131.923 78.1969 132.096 78.8801 132.362 79.0361C132.483 79.1081 132.732 79.3332 132.911 79.5101C133.31 79.944 133.551 79.8568 133.532 79.3072C133.515 78.8826 133.533 78.8759 134.241 78.9459C134.642 78.9797 135.063 79.0693 135.177 79.1228C135.291 79.1762 135.466 79.1657 135.527 79.1016C135.679 78.9416 136.157 79.0736 136.074 79.2506C136.039 79.3265 136.166 79.4171 136.379 79.4556C136.75 79.5215 137.326 80.0698 137.237 80.2595C137.213 80.3101 137.186 80.467 137.176 80.586C137.173 80.7236 136.994 80.8093 136.763 80.8088C136.425 80.8046 136.368 80.7623 136.381 80.5369C136.389 80.3555 136.35 80.3064 136.259 80.4024C136.179 80.4732 135.979 80.4718 135.802 80.3887C135.385 80.1928 135.338 80.3252 135.654 80.9674C135.871 81.3934 135.973 81.4721 136.247 81.4466C136.428 81.4234 136.623 81.4685 136.662 81.5488C136.72 81.6224 136.777 81.6335 136.812 81.5576C136.848 81.4817 137.068 81.5388 137.29 81.6583C137.562 81.8016 137.666 81.9428 137.587 82.0448C137.508 82.1467 137.566 82.2203 137.773 82.2402C138.062 82.2831 138.244 82.3223 139.194 82.5676C139.672 82.6996 140.43 82.2683 140.051 82.0901C139.937 82.0367 139.91 81.9624 139.972 81.9296C140.132 81.8194 139.815 81.3772 139.518 81.2845C139.38 81.2504 139.328 81.1642 139.408 81.1247C139.476 81.0793 139.576 81.0955 139.622 81.1632C139.667 81.2308 139.761 81.2285 139.846 81.1451C139.938 81.0491 140.054 81.1962 140.194 81.5553C140.301 81.8527 140.444 82.0742 140.525 82.0347C140.673 81.9498 141.563 81.8277 141.665 81.8752C141.702 81.8931 141.675 82.05 141.592 82.2271C141.444 82.5433 141.654 82.9506 141.894 82.8009C141.961 82.7555 142.164 82.8505 142.362 83.0206C142.636 83.2576 142.705 83.2747 142.713 83.0932C142.728 82.9303 142.84 82.9213 143.081 83.0341C143.271 83.1232 143.514 83.1297 143.606 83.0336C143.71 82.9436 143.853 82.9338 143.943 83.0378C144.04 83.1292 144.222 83.1684 144.359 83.14C144.551 83.0915 144.608 83.1339 144.594 83.328C144.592 83.4656 144.633 83.6083 144.696 83.638C144.759 83.6677 144.813 83.5851 144.829 83.4535C144.855 83.0028 145.139 83.352 145.152 83.883C145.17 84.3701 145.152 84.4081 144.86 84.4715C144.636 84.5208 144.533 84.6421 144.471 84.9062C144.376 85.3711 144.477 85.4186 145.257 85.3681C145.594 85.341 145.99 85.4187 146.13 85.5153C146.282 85.6178 146.559 85.6859 146.746 85.6501C146.932 85.6142 147.176 85.6207 147.278 85.6682C147.467 85.7572 148.119 85.5849 147.948 85.4891C147.885 85.4594 147.978 85.4258 148.14 85.4093C148.302 85.3928 148.486 85.2633 148.552 85.1241C148.653 84.9091 148.722 84.9262 148.99 85.1446C149.571 85.649 150.639 86.1351 150.937 86.0278C151.253 85.9137 153.085 86.7123 152.845 86.862C152.772 86.92 152.804 86.9505 152.909 86.9229C153.021 86.9139 153.168 87.029 153.253 87.1769C153.371 87.4178 153.384 87.4237 153.403 87.1857C153.424 87.0102 153.491 86.9335 153.605 86.987C153.706 87.0345 153.746 87.146 153.704 87.2345C153.663 87.323 153.624 87.5365 153.616 87.6868C153.602 87.9121 153.534 87.9263 153.256 87.7957C153.066 87.7066 152.878 87.68 152.854 87.7306C152.789 87.8697 152.088 87.8495 151.928 87.6972C151.851 87.6303 151.849 87.5366 151.904 87.4853C151.972 87.4398 151.863 87.3425 151.686 87.2594C151.509 87.1763 151.359 87.1675 151.367 87.2485C151.375 87.3296 151.181 87.3156 150.942 87.234C150.412 87.0471 150.141 87.2288 150.505 87.5386C150.639 87.6478 150.727 87.8894 150.693 88.059C150.649 88.2851 150.694 88.3528 150.868 88.3109C151.166 88.2348 152.509 88.4329 152.888 88.6111C153.065 88.6942 153.233 88.665 153.287 88.5512C153.34 88.4374 153.432 88.3726 153.508 88.4082C153.584 88.4438 153.619 88.568 153.616 88.7056C153.613 88.8432 153.761 89.0208 154.001 89.1336C154.267 89.2583 154.436 89.2604 154.501 89.1213C154.626 88.8557 154.879 88.9744 154.855 89.2875C154.84 89.4192 154.917 89.5173 155.017 89.5023C155.129 89.4933 155.152 89.4114 155.068 89.2948C154.99 89.1654 155.151 89.1177 155.558 89.1389C156.372 89.1813 156.397 89.1932 156.095 89.6382C155.921 89.9113 155.911 90.0303 156.05 90.0643C156.188 90.0984 156.184 90.2048 156.064 90.3953C155.961 90.5478 155.947 90.7107 156.023 90.7463C156.099 90.782 156.191 90.7484 156.221 90.6852C156.281 90.5587 157.049 90.5334 157.682 90.6303C158.04 90.6902 158.343 90.3077 158.155 90.0186C158.09 89.9264 158.059 89.9272 158.074 90.0268C158.089 90.1265 157.991 90.2039 157.872 90.1943C157.74 90.1788 157.674 90.0554 157.702 89.8985C157.746 89.6724 157.67 89.6055 157.33 89.5389C157.092 89.4885 156.821 89.4077 156.713 89.3416C156.599 89.2882 156.32 89.1263 156.06 88.989C155.808 88.8702 155.685 88.7357 155.785 88.7207C155.885 88.7058 156.051 88.6142 156.161 88.5114C156.393 88.2807 157.376 88.5877 157.918 89.0431C158.589 89.6203 160.636 90.2573 161.081 90.0338C161.303 89.922 161.304 89.9533 161.067 90.2591C160.91 90.463 160.572 90.6902 160.28 90.7849C160.007 90.8729 159.773 91.0099 159.762 91.0664C159.758 91.1416 159.645 91.1506 159.532 91.0971C159.418 91.0437 159.306 91.084 159.303 91.1903C159.277 91.4097 159.848 91.7394 160.057 91.6217C160.137 91.5822 160.296 91.6721 160.419 91.8378C160.658 92.1507 161.042 92.2537 161.149 92.026C161.184 91.9501 161.125 91.8453 161.011 91.7919C160.86 91.7206 160.864 91.6455 161.048 91.516C161.196 91.3998 161.279 91.2227 161.262 91.0606C161.237 90.7862 161.57 90.603 161.657 90.8446C161.677 90.9004 161.841 90.9463 162.015 90.9358C162.203 90.9311 162.398 91.0075 162.489 91.1428C162.593 91.284 162.801 91.3664 163.082 91.3594C163.563 91.3538 165.594 92.06 165.214 92.1131C164.921 92.1453 164.942 92.4948 165.233 92.6314C165.422 92.7205 165.41 92.7458 165.101 92.8784C164.755 93.0245 164.746 93.1748 165.125 93.3217C165.238 93.3751 165.368 93.2969 165.396 93.1712C165.424 93.0455 165.565 92.942 165.697 92.9575C165.829 92.973 165.977 92.8881 166.024 92.7869C166.077 92.673 166.29 92.6803 166.612 92.8161C166.878 92.9408 167.155 93.009 167.21 92.9888C167.266 92.9687 167.387 93.072 167.497 93.2005C167.6 93.3417 167.708 93.4078 167.738 93.3446C167.768 93.2813 168.038 93.3309 168.347 93.4608C168.713 93.6018 168.86 93.7169 168.755 93.7757C168.669 93.8279 168.664 93.903 168.74 93.9386C168.816 93.9743 168.903 93.9534 168.939 93.8775C168.974 93.8016 169.107 93.8483 169.228 93.9516C169.362 94.0608 169.57 94.1119 169.706 94.0835C169.831 94.0492 170.226 94.0957 170.565 94.1936C171.189 94.3782 171.61 94.2053 171.395 93.873C171.317 93.7437 171.414 93.635 171.792 93.4882C172.361 93.2616 172.483 93.1336 172.279 92.9448C172.131 92.7985 172.428 91.9036 172.605 91.9867C172.668 92.0164 172.76 91.9516 172.814 91.8378C172.867 91.7239 173.01 91.6829 173.124 91.7363C173.238 91.7898 173.271 91.8827 173.191 91.9222C173.105 91.9743 173.143 92.0234 173.294 92.0322C173.431 92.035 173.729 92.1902 173.964 92.3469C174.505 92.7398 174.58 93.5005 174.093 93.7813C173.921 93.8856 173.64 93.9238 173.445 93.8786C173.169 93.8104 173.175 93.829 173.473 93.9842C173.675 94.0792 173.804 94.2323 173.775 94.2955C173.745 94.3588 173.824 94.5193 173.939 94.6352C174.093 94.769 174.11 94.9623 174.009 95.1773C173.926 95.3544 173.925 95.5857 174.021 95.6771C174.117 95.7684 174.146 95.9365 174.099 96.0377C174.051 96.1388 174.083 96.4006 174.151 96.6177C174.231 96.8407 174.258 97.4089 174.225 97.8722C174.187 98.3482 174.224 98.8286 174.302 98.9267C174.386 99.0434 174.35 99.3505 174.226 99.6474C174.053 100.014 174.065 100.22 174.211 100.335C174.499 100.578 174.448 100.817 173.937 101.611C173.696 101.992 173.493 102.391 173.515 102.509L173.534 102.534ZM150.793 86.7939C150.707 86.846 150.784 86.9441 150.936 87.0154C151.088 87.0866 151.226 87.1207 151.238 87.0954C151.298 86.969 150.923 86.7157 150.806 86.7998L150.793 86.7939ZM67.1898 23.2473C67.2657 23.2829 67.3586 23.2494 67.3943 23.1735C67.4299 23.0976 67.4343 23.0225 67.3963 23.0047C67.3584 22.9869 67.2655 23.0204 67.1919 23.0785C67.1057 23.1306 67.1013 23.2057 67.1898 23.2473ZM59.3539 26.885C59.3539 26.885 59.2767 27.0495 59.1348 27.1217C58.9742 27.2007 59.0307 27.2118 59.2917 27.1491C59.5215 27.0872 59.7378 26.9881 59.7675 26.9248C59.7972 26.8616 59.7146 26.8074 59.577 26.8045C59.4453 26.789 59.3465 26.8352 59.3666 26.891L59.3539 26.885ZM59.3238 26.4232C59.3997 26.4589 59.5179 26.4372 59.5855 26.3918C59.6718 26.3396 59.633 26.2906 59.4828 26.2818C59.2136 26.2635 59.1155 26.3409 59.3052 26.43L59.3238 26.4232ZM58.6714 27.0894C58.7347 27.1191 58.8834 27.0654 58.9747 26.9694C59.2556 26.7 59.1402 26.584 58.8147 26.8171C58.6549 26.9273 58.5955 27.0538 58.6588 27.0835L58.6714 27.0894ZM58.1673 27.1769C58.0901 27.3413 58.2292 27.4066 58.572 27.3669C58.784 27.3429 58.7705 27.3058 58.5302 27.1929C58.3658 27.1157 58.197 27.1137 58.1673 27.1769ZM57.6595 27.3707C57.5568 27.2607 57.4943 27.2623 57.5093 27.3619C57.5258 27.524 57.7491 27.706 57.8025 27.5922C57.8144 27.5669 57.7556 27.4621 57.6655 27.3581L57.6595 27.3707ZM57.6926 26.9386C57.8317 27.0039 57.9195 27.0143 57.9053 26.9458C57.8911 26.8774 57.7646 26.8181 57.6523 26.8271C57.5334 26.8175 57.5408 26.8673 57.6926 26.9386ZM54.3291 27.1655C54.3441 27.2651 54.3776 27.3581 54.4029 27.3699C54.4409 27.3877 54.4959 27.3364 54.5315 27.2605C54.5671 27.1846 54.5336 27.0917 54.4577 27.056C54.3818 27.0204 54.3268 27.0718 54.3291 27.1655ZM20.2479 28.314C20.3238 28.3496 20.4108 28.3287 20.4465 28.2528C20.4821 28.177 20.4604 28.0587 20.4083 27.9725C20.3561 27.8863 20.2691 27.9072 20.2098 28.0337C20.1504 28.1601 20.178 28.2657 20.2539 28.3014L20.2479 28.314ZM22.441 29.0349C22.402 28.7233 21.1986 28.5905 20.9178 28.86C20.7833 28.9821 20.639 28.9606 20.3339 28.7557C20.0794 28.5744 19.9722 28.5396 20.0445 28.6816C20.1101 28.805 20.0641 28.9686 19.9423 29.0966C19.7409 29.2954 19.7409 29.2954 20.0695 29.1872C20.2554 29.1201 20.5305 29.1258 20.657 29.1852C20.7835 29.2446 20.9709 29.24 21.0504 29.1693C21.1604 29.0665 21.2244 29.1275 21.2737 29.3513C21.3699 29.7052 21.5573 29.7005 21.7236 29.3464C21.783 29.2199 21.9807 29.1275 22.1377 29.1549C22.3132 29.1756 22.4433 29.1286 22.4291 29.0602L22.441 29.0349ZM58.0444 65.7087C57.9078 65.9996 58.2418 66.1101 58.4476 65.8362C58.5263 65.7343 58.492 65.6101 58.3782 65.5567C58.2644 65.5032 58.1224 65.5755 58.0571 65.7146L58.0444 65.7087ZM57.1754 64.4363C57.1398 64.5122 57.1733 64.6051 57.2492 64.6407C57.3251 64.6764 57.4002 64.6808 57.418 64.6428C57.4358 64.6049 57.4023 64.5119 57.3442 64.4384C57.2921 64.3521 57.211 64.3604 57.1754 64.4363ZM55.0864 63.6253C55.1623 63.661 55.2931 63.6452 55.3667 63.5871C55.4529 63.535 55.4573 63.4599 55.3815 63.4243C55.3056 63.3886 55.1747 63.4044 55.1011 63.4624C55.0275 63.5205 55.0105 63.5897 55.0864 63.6253ZM51.9105 61.5786C52.0734 61.5933 52.1129 61.6736 52.0238 61.8633C51.8694 62.1922 52.0658 62.2998 52.3348 62.0557C52.4753 61.9209 52.5377 61.9194 52.5602 62.0689C52.5924 62.3618 53.1882 62.4409 53.4007 62.1856C53.7164 61.809 52.7549 61.0952 52.1653 61.266C51.7058 61.3899 51.5788 61.5618 51.9172 61.5972L51.9105 61.5786ZM49.9269 59.7212C50.1027 60.0044 50.2165 60.0578 50.3949 59.9409C50.4811 59.8888 50.3843 59.7661 50.1634 59.6778C49.8725 59.5413 49.8226 59.5488 49.9269 59.7212ZM49.5998 59.8918C49.6148 59.9914 49.6484 60.0844 49.6737 60.0962C49.6989 60.1081 49.7666 60.0627 49.8022 59.9868C49.8378 59.9109 49.8043 59.818 49.7284 59.7823C49.6525 59.7467 49.5975 59.7981 49.5998 59.8918ZM41.3128 53.871C41.4519 53.9363 41.5397 53.9466 41.5255 53.8782C41.4986 53.8039 41.3848 53.7504 41.2725 53.7595C41.1535 53.7499 41.161 53.7997 41.3128 53.871ZM40.8397 39.7875C40.8041 39.8634 40.8376 39.9564 40.9135 39.992C40.9894 40.0276 41.0823 39.9941 41.118 39.9182C41.1536 39.8423 41.12 39.7494 41.0442 39.7137C40.9683 39.6781 40.8753 39.7117 40.8397 39.7875ZM38.6671 39.3849C38.8999 39.4479 39.3015 39.513 39.5581 39.5254C39.7961 39.5446 39.9946 39.4834 39.9797 39.3838C39.9706 39.2715 39.8449 39.2433 39.6717 39.3164C39.3 39.4506 39.2367 39.4209 38.982 38.9771C38.871 38.7861 38.7177 38.6524 38.6434 38.6792C38.569 38.706 38.5713 38.7997 38.6421 38.8793C38.7574 38.9952 38.7337 39.0458 38.5114 39.1575C38.2706 39.276 38.2899 39.3005 38.6797 39.3909L38.6671 39.3849ZM37.3123 49.5694C37.1985 49.516 37.1575 49.3732 37.2228 49.2341C37.3297 49.0064 37.3297 49.0064 37.0837 49.1688C36.7581 49.4018 36.6309 49.3112 36.4296 48.7536C36.2283 48.1961 35.8375 47.8119 35.6346 47.9482C35.5484 48.0003 35.3788 47.967 35.2634 47.8511C34.8861 47.5042 34.908 47.8849 35.2817 48.3382C35.5334 48.657 35.5938 48.8243 35.4533 48.959C35.2884 49.1131 35.3583 49.1614 35.7674 49.2763C36.0821 49.3623 36.3239 49.5376 36.4349 49.7286C36.5854 49.9999 36.5059 50.0706 36.2387 49.8835C36.1881 49.8597 36.1197 49.8739 36.0841 49.9498C35.9832 50.1648 36.2785 50.2263 36.8324 50.1313C37.3864 50.0364 37.6598 49.7171 37.3309 49.5627L37.3123 49.5694ZM37.8007 50.1074C37.8363 50.0315 37.7849 49.9765 37.6853 49.9915C37.5857 50.0064 37.4809 50.0653 37.4452 50.1412C37.4096 50.2171 37.461 50.2721 37.5606 50.2571C37.6602 50.2421 37.765 50.1833 37.8007 50.1074ZM38.6864 49.2729C38.6864 49.2729 38.5754 49.0819 38.3849 48.9616C38.1185 48.8057 38.0687 48.8131 38.173 48.9856C38.342 49.2502 38.6211 49.4121 38.6923 49.2603L38.6864 49.2729ZM43.4325 41.0048C43.3647 40.7877 42.5015 41.0153 42.5322 41.2459C42.5562 41.4578 43.1519 41.5368 43.3347 41.3448C43.4201 41.2614 43.4661 41.0978 43.4325 41.0048ZM44.4673 42.1544C44.5029 42.0785 44.4694 41.9856 44.3935 41.9499C44.3176 41.9143 44.2626 41.9657 44.2649 42.0594C44.2799 42.159 44.3134 42.2519 44.3387 42.2638C44.3767 42.2816 44.4317 42.2303 44.4673 42.1544ZM46.3323 41.9958C46.3739 41.9072 46.3047 41.8902 46.156 41.9439C45.8215 42.0647 45.5551 41.9087 45.6798 41.6431C45.7392 41.5166 45.725 41.4482 45.638 41.4691C45.5636 41.496 45.4299 41.6493 45.3527 41.8137C45.2755 41.9781 45.1462 42.0564 45.051 41.9962C44.9684 41.942 44.8628 41.9696 44.8093 42.0834C44.7321 42.2478 44.7894 42.2902 45.1464 42.3189C45.3844 42.338 45.7272 42.2983 45.9198 42.2498C46.0997 42.1953 46.2908 42.0843 46.3264 42.0084L46.3323 41.9958ZM46.9123 41.9439C46.806 41.9403 46.6387 42.0007 46.5533 42.0841C46.3579 42.2702 46.9471 42.5931 47.1931 42.4308C47.3901 42.3072 47.1875 41.9496 46.9123 41.9439ZM48.5016 42.7673C48.3996 42.6885 48.1869 42.6813 48.0256 42.729C47.5609 42.8968 47.6131 42.983 48.1745 42.9379C48.5114 42.9108 48.6162 42.8519 48.5016 42.7673ZM53.0193 44.2245C53.0193 44.2245 52.9055 44.1711 52.8074 44.2485C52.7026 44.3073 52.5523 44.2986 52.4622 44.1945C52.3662 44.1031 52.1595 44.0832 51.9989 44.1622C51.7209 44.2941 51.7402 44.3186 52.2118 44.432C52.4885 44.5002 52.795 44.5051 52.8871 44.4403C52.9793 44.3755 53.0394 44.2803 53.0319 44.2305L53.0193 44.2245ZM60.8763 47.5119C60.8763 47.5119 60.8606 47.3811 60.8025 47.3075C60.7503 47.2213 60.6693 47.2295 60.6337 47.3054C60.598 47.3813 60.6316 47.4742 60.7075 47.5099C60.7834 47.5455 60.8585 47.5499 60.8763 47.5119ZM61.4238 46.9046C61.35 46.7002 61.1412 46.8491 61.1659 47.0922C61.1892 47.2729 61.2145 47.2848 61.3304 47.1694C61.4099 47.0987 61.4507 46.9789 61.4238 46.9046ZM66.5852 49.6211C66.6208 49.5452 66.5442 49.4783 66.4066 49.4755C66.275 49.46 66.1567 49.4816 66.1448 49.5069C66.133 49.5322 66.2096 49.5991 66.3235 49.6525C66.4373 49.706 66.5555 49.6843 66.5852 49.6211ZM70.7973 51.1046C70.7214 51.069 70.6285 51.1026 70.5928 51.1784C70.5572 51.2543 70.5528 51.3295 70.5908 51.3473C70.6287 51.3651 70.7216 51.3315 70.7952 51.2735C70.8814 51.2213 70.8732 51.1403 70.7973 51.1046ZM71.8641 60.6355C71.8641 60.6355 71.8484 60.5046 71.7903 60.431C71.7382 60.3448 71.6571 60.353 71.6215 60.4289C71.5859 60.5048 71.6194 60.5977 71.6953 60.6334C71.7712 60.669 71.8463 60.6734 71.8641 60.6355ZM80.8451 56.7944C80.8807 56.7185 80.8851 56.6434 80.8472 56.6256C80.8092 56.6078 80.7163 56.6413 80.6427 56.6994C80.5565 56.7515 80.5521 56.8267 80.6407 56.8682C80.7292 56.9098 80.8095 56.8703 80.8451 56.7944ZM84.5853 57.9021C84.5095 57.8665 84.4165 57.9 84.3809 57.9759C84.3453 58.0518 84.3409 58.1269 84.3788 58.1447C84.4168 58.1625 84.5097 58.129 84.5833 58.0709C84.6695 58.0188 84.6739 57.9437 84.5853 57.9021ZM96.8888 62.7986C97.1417 62.9173 97.3627 63.0056 97.3805 62.9677C97.3983 62.9297 97.3506 62.7684 97.2775 62.5952C97.1911 62.3848 97.2231 62.4153 97.4048 62.6858C97.5478 62.9073 97.6825 63.0477 97.6944 63.0224C97.7063 62.9971 97.785 62.8952 97.8705 62.8118C98.1209 62.5743 97.2758 62.2702 96.8297 62.4312C96.5695 62.5252 96.5934 62.6496 96.9014 62.8045L96.8888 62.7986ZM94.7292 69.5026C94.8831 69.405 94.5728 69.2439 94.2158 69.2152C94.0782 69.2124 93.9794 69.2586 93.9876 69.3396C94.0041 69.5017 94.5508 69.6195 94.7419 69.5085L94.7292 69.5026ZM102.408 65.0811C102.686 64.9493 102.68 64.9307 102.279 64.8968C101.966 64.8733 101.89 64.8377 102.019 64.7595C102.13 64.688 102.104 64.6449 101.91 64.6309C101.759 64.6221 101.588 64.5263 101.535 64.4089C101.489 64.31 101.291 64.1399 101.114 64.0568C100.924 63.9677 100.589 63.7947 100.348 63.6507C99.9102 63.399 99.3198 63.5386 99.683 63.8171C99.7849 63.8958 99.826 64.0386 99.7785 64.1398C99.6834 64.3421 99.8948 64.5494 100.477 64.8538C100.743 64.9785 100.849 64.9821 100.827 64.8327C100.81 64.6706 100.842 64.701 100.941 64.8861C101.092 65.1887 101.622 65.4068 101.932 65.3054C102.044 65.2652 102.26 65.1661 102.421 65.0871L102.408 65.0811ZM101.698 71.4931C101.733 71.4172 101.738 71.3421 101.7 71.3242C101.662 71.3064 101.569 71.34 101.495 71.3981C101.409 71.4502 101.423 71.5186 101.499 71.5542C101.575 71.5899 101.668 71.5563 101.698 71.4931ZM109.275 69.7869C109.49 69.8879 109.584 69.8855 109.469 69.8009C109.361 69.7035 109.171 69.6145 109.065 69.6109C108.958 69.6072 109.048 69.68 109.275 69.7869ZM109.309 70.1424C109.135 70.1842 108.974 70.2319 108.962 70.2572C108.908 70.371 109.058 70.3486 109.336 70.2167C109.601 70.0789 109.601 70.0789 109.309 70.1424ZM121.835 74.1707C121.783 74.0845 121.696 74.1054 121.636 74.2319C121.523 74.4722 121.587 74.5331 121.784 74.4095C121.852 74.3641 121.874 74.251 121.822 74.1648L121.835 74.1707ZM123.371 81.6835C123.371 81.6835 123.266 81.5111 123.076 81.3908C122.797 81.2289 122.747 81.2364 122.809 81.4661C122.877 81.7145 123.281 81.8732 123.376 81.6709L123.371 81.6835ZM127.324 76.7479C127.377 76.634 127.356 76.5158 127.292 76.4861C127.229 76.4564 127.162 76.5331 127.147 76.6647C127.131 76.7964 127.153 76.9146 127.178 76.9265C127.204 76.9383 127.27 76.8617 127.324 76.7479ZM135.142 80.7426C134.969 80.5531 134.772 80.4142 134.678 80.4165C134.453 80.4345 134.962 81.0595 135.219 81.0719C135.369 81.0807 135.342 80.9751 135.142 80.7426ZM135.972 82.1972C135.845 82.1378 135.697 82.1915 135.644 82.3366C135.579 82.4757 135.612 82.5374 135.698 82.4852C135.784 82.4331 135.933 82.3794 136.026 82.3459C136.113 82.325 136.098 82.2566 135.972 82.1972ZM140.478 82.4296C140.426 82.3434 140.375 82.3196 140.358 82.3576C140.34 82.3955 140.242 82.5042 140.151 82.6002C140.06 82.6962 140.025 82.8034 140.101 82.839C140.177 82.8746 140.307 82.8276 140.398 82.7316C140.484 82.6483 140.518 82.5099 140.478 82.4296ZM143.61 84.4712C143.646 84.3953 143.625 84.3083 143.549 84.2727C143.473 84.237 143.355 84.2587 143.281 84.3168C143.195 84.3689 143.216 84.4559 143.342 84.5153C143.469 84.5747 143.574 84.5471 143.61 84.4712ZM148.341 86.1982C147.947 86.2142 147.875 86.3035 148.14 86.4282C148.241 86.4757 148.409 86.4465 148.501 86.3505C148.641 86.2158 148.609 86.1853 148.341 86.1982ZM150.021 87.1568C150.056 87.0809 150.023 86.988 149.947 86.9523C149.871 86.9167 149.816 86.9681 149.818 87.0618C149.833 87.1614 149.867 87.2543 149.892 87.2662C149.918 87.2781 149.985 87.2327 150.021 87.1568ZM164.808 93.4045C164.521 93.1928 164.287 93.3299 164.407 93.6332C164.468 93.8004 164.455 93.7945 164.774 93.8054C165.15 93.8273 165.158 93.6459 164.814 93.3918L164.808 93.4045ZM166.11 93.9849C166.11 93.9849 165.99 93.9441 165.937 94.0579C165.83 94.2856 165.862 94.316 166.059 94.1924C166.126 94.147 166.155 94.0525 166.11 93.9849ZM169.586 95.0303C169.498 94.9888 169.374 95.0543 169.327 95.1867C169.257 95.3697 169.126 95.3855 168.766 95.2319C168.172 94.984 168.185 94.99 168.215 95.1892C168.239 95.4012 168.435 95.4776 169.029 95.5254C169.493 95.5577 169.915 95.1847 169.586 95.0303ZM172.991 93.6961C173.077 93.6439 173.044 93.551 172.917 93.4916C172.791 93.4322 172.71 93.4717 172.713 93.5654C172.715 93.6591 172.749 93.7521 172.786 93.7699C172.824 93.7877 172.905 93.7482 172.991 93.6961ZM43.0911 53.2395C43.1773 53.1873 43.1058 53.0766 42.954 53.0053C42.8023 52.9341 42.684 52.9558 42.6863 53.0495C42.7013 53.1491 42.7602 53.2539 42.8234 53.2836C42.8866 53.3133 43.0049 53.2916 43.0911 53.2395ZM42.6019 53.4266C42.5668 53.2712 42.4641 53.1612 42.3704 53.1635C42.2893 53.1718 42.1249 53.0946 42.0162 52.9973C41.8622 52.8323 41.8614 52.8011 42.0978 52.7577C42.3157 52.7211 42.309 52.7025 42.0769 52.6707C41.92 52.6434 41.7504 52.61 41.6872 52.5803C41.6239 52.5507 41.5511 52.64 41.5044 52.7724C41.4703 52.9107 41.5299 53.0468 41.6497 53.0876C41.7754 53.1157 41.8662 53.251 41.8507 53.3826C41.8353 53.5143 41.8696 53.6384 41.9075 53.6563C41.9455 53.6741 41.9752 53.6108 41.9728 53.5171C41.9579 53.4175 42.114 53.4136 42.3164 53.5086C42.62 53.6512 42.6571 53.6377 42.6011 53.3953L42.6019 53.4266ZM39.5631 50.8577C39.6106 50.7565 39.6135 50.6189 39.5681 50.5513C39.5226 50.4836 39.4186 50.5737 39.3355 50.7508C39.2523 50.9279 39.2495 51.0654 39.3305 51.0572C39.4116 51.0489 39.5156 50.9589 39.5631 50.8577ZM39.0775 51.6947C39.1914 51.7482 39.3222 51.7325 39.3579 51.6566C39.3935 51.5807 39.3726 51.4937 39.2967 51.4581C39.2208 51.4224 39.1026 51.4441 39.029 51.5022C38.9428 51.5543 38.9637 51.6413 39.0902 51.7007L39.0775 51.6947ZM43.2281 53.4736C43.1925 53.5495 43.3585 53.6892 43.5988 53.802C43.9656 53.9742 44.0027 53.9608 43.8226 53.7527C43.533 53.4161 43.2927 53.3032 43.2155 53.4677L43.2281 53.4736ZM44.2879 54.3725C44.2226 54.5116 44.2123 54.5994 44.2807 54.5852C44.3424 54.5524 44.4085 54.4445 44.3995 54.3322C44.409 54.2133 44.3592 54.2207 44.2879 54.3725ZM59.3003 45.707C59.0385 45.7384 58.9903 45.8084 58.9794 46.1274C58.9703 46.7715 59.406 46.6982 59.5333 46.0325C59.5881 45.7186 59.562 45.6755 59.2876 45.701L59.3003 45.707ZM56.4705 44.7643C56.3603 44.6045 55.796 44.7872 55.6891 45.0149C55.6475 45.1034 55.7293 45.1264 55.8773 45.0415C56.0192 44.9692 56.2066 44.9646 56.2774 45.0441C56.4374 45.1964 56.5882 44.9739 56.4645 44.7769L56.4705 44.7643ZM115.662 71.2417C115.709 71.1406 115.688 71.0536 115.607 71.0618C115.526 71.0701 115.434 71.1349 115.404 71.1981C115.375 71.2613 115.396 71.3483 115.459 71.378C115.522 71.4077 115.614 71.3429 115.668 71.2291L115.662 71.2417ZM38.4831 51.4157C38.4474 51.4915 38.481 51.5845 38.5569 51.6201C38.6328 51.6557 38.7257 51.6222 38.7613 51.5463C38.797 51.4704 38.7634 51.3775 38.6875 51.3418C38.6116 51.3062 38.5187 51.3398 38.4831 51.4157ZM151.542 87.9943C151.455 88.0464 151.476 88.1334 151.603 88.1928C151.843 88.3056 151.904 88.2416 151.78 88.0446C151.735 87.977 151.622 87.9548 151.536 88.0069L151.542 87.9943ZM45.5652 54.7097C44.9513 54.4061 44.4397 54.4438 44.5233 54.7917C44.5644 54.9345 44.737 55.0927 44.9007 55.1387C45.0643 55.1847 45.2972 55.2477 45.3984 55.2952C45.4995 55.3427 45.5976 55.2652 45.5945 55.1403C45.6041 55.0213 45.7014 54.9126 45.8018 54.9289C45.9082 54.9325 45.7995 54.8352 45.5592 54.7224L45.5652 54.7097ZM56.0205 45.5255C56.1581 45.5283 56.3403 45.5676 56.4288 45.6092C56.5174 45.6507 56.5091 45.5697 56.4183 45.4344C56.2366 45.1639 55.942 45.1336 55.8352 45.3613C55.7995 45.4372 55.8762 45.504 56.0205 45.5255ZM23.4482 29.3225C23.362 29.3747 23.3702 29.4557 23.4461 29.4913C23.522 29.527 23.6149 29.4934 23.6505 29.4175C23.6862 29.3416 23.6906 29.2665 23.6526 29.2487C23.6147 29.2309 23.5217 29.2644 23.4482 29.3225ZM73.5871 61.3054C73.3112 61.2685 72.9136 61.6221 72.9874 61.8266C73.0672 62.0184 73.5969 62.2053 73.8385 62.1181C74.3589 61.9302 74.1829 61.3845 73.5871 61.3054ZM73.4263 61.1219C73.4263 61.1219 73.4144 61.1472 73.4271 61.1531C73.4524 61.165 73.4271 61.1531 73.4263 61.1219ZM81.8114 65.2901C81.72 65.3861 81.6658 65.4687 81.6911 65.4806C81.7164 65.4925 81.8591 65.4515 82.0011 65.3792C82.1557 65.3129 82.2099 65.2303 82.1214 65.1887C82.0329 65.1471 81.9154 65.2 81.8114 65.2901ZM49.9136 26.8058C49.9492 26.7299 49.9536 26.6548 49.9156 26.637C49.8777 26.6192 49.7848 26.6527 49.7112 26.7108C49.625 26.7629 49.6206 26.8381 49.7091 26.8796C49.7977 26.9212 49.8779 26.8817 49.9136 26.8058ZM46.8792 56.2837C46.8435 56.3595 46.8771 56.4525 46.953 56.4881C47.0289 56.5237 47.104 56.5281 47.1218 56.4902C47.1396 56.4522 47.1061 56.3593 47.048 56.2857C46.9959 56.1995 46.9148 56.2078 46.8792 56.2837ZM23.9097 29.0298C24.1067 28.9062 24.0933 28.869 23.6535 28.5236C23.3089 28.2384 23.3029 28.251 23.4185 28.6294C23.5484 29.0763 23.6756 29.1669 23.9097 29.0298ZM49.008 27.0907C49.2876 27.0213 49.4451 26.8174 49.2806 26.7402C49.053 26.6333 48.6939 26.7734 48.7298 26.9601C48.7522 27.1095 48.8154 27.1392 49.008 27.0907ZM58.4503 64.6798C58.3641 64.7319 58.3597 64.8071 58.4482 64.8486C58.5367 64.8902 58.617 64.8507 58.6526 64.7748C58.6883 64.6989 58.6927 64.6238 58.6547 64.606C58.6168 64.5882 58.5238 64.6217 58.4503 64.6798ZM47.3853 56.7837C47.32 56.9228 47.3097 57.0106 47.3781 56.9964C47.4398 56.9636 47.5059 56.8557 47.4968 56.7434C47.5064 56.6244 47.4566 56.6319 47.3853 56.7837ZM47.7467 56.7373C47.6799 56.8139 47.7 56.8697 47.8004 56.886C47.9886 56.9126 48.1215 56.728 47.9698 56.6568C47.9192 56.633 47.8136 56.6606 47.7467 56.7373ZM53.6028 61.2618C53.5672 61.3376 53.6261 61.4425 53.7399 61.4959C53.8537 61.5493 53.9467 61.5158 53.9317 61.4161C53.9167 61.3165 53.8579 61.2117 53.7946 61.182C53.7314 61.1523 53.6385 61.1859 53.6028 61.2618ZM49.1044 58.0539C49.2603 58.5438 49.2923 58.5743 49.507 58.4127C49.5866 58.342 50.1229 58.5475 49.9412 58.2769C49.6426 57.828 48.5247 56.8556 48.4772 56.9567C48.4119 57.0959 48.2085 57.4634 48.1109 57.3096C47.9553 57.0822 47.7056 57.3508 47.7818 57.649C47.8445 57.91 47.8824 57.9278 48.1292 57.7967C48.3143 57.6983 48.4712 57.7257 48.6372 57.8654C48.8292 58.0481 48.879 58.0407 48.8855 57.7967C48.8935 57.6153 48.9769 57.7007 49.0858 58.0606L49.1044 58.0539Z" fill="black"/>
</g>
<defs>
<clipPath id="clip0_1448_2720">
<rect width="178.806" height="54.2972" fill="white" transform="translate(23.8604 0.728271) rotate(25.1494)"/>
</clipPath>
</defs>
</svg>
