<svg width="102" height="50" viewBox="0 0 102 50" fill="none" xmlns="http://www.w3.org/2000/svg">
<path d="M50.2375 33.326C48.83 33.026 47.3142 32.826 45.9067 32.826C41.7924 32.826 39.3022 34.926 39.3022 37.926C39.3022 40.626 41.3593 42.026 43.8496 42.726C44.1744 42.826 44.4992 42.926 44.824 43.026C45.9067 43.326 46.7729 43.826 46.7729 44.626C46.7729 45.526 45.7984 46.126 43.5247 46.126C42.1172 46.126 40.7097 45.926 39.3022 45.526V49.326C40.9262 49.626 42.5503 49.726 44.1744 49.726C47.639 49.726 51.5368 48.326 51.5368 44.226C51.5368 42.226 50.2375 40.426 47.3142 39.526L46.1232 39.126C45.3653 38.926 44.0661 38.526 44.0661 37.526C44.0661 36.726 45.0405 36.226 46.8811 36.226C48.0721 36.226 49.2631 36.426 50.3458 36.726L50.2375 33.326ZM88.024 41.226C88.024 43.626 85.9668 45.526 83.3684 45.426C80.7699 45.426 78.7127 43.526 78.821 41.126C78.821 38.826 80.8781 36.926 83.4766 36.926C85.9669 36.926 88.024 38.826 88.1323 41.126C88.024 41.126 88.024 41.226 88.024 41.226ZM83.4766 32.726C78.3879 32.826 74.3819 36.726 74.4902 41.326C74.5984 46.026 78.821 49.726 83.8014 49.626C88.7819 49.526 92.7879 45.726 92.7879 41.126C92.7879 36.526 88.7819 32.726 83.8014 32.626C83.6932 32.726 83.5849 32.726 83.4766 32.726ZM33.3473 49.426H28.9082V33.026H33.3473" fill="black"/>
<path d="M22.737 33.326C21.4377 32.926 20.0302 32.726 18.6227 32.726C13.6422 32.526 9.41967 36.126 9.20312 40.726C9.20312 40.926 9.20312 41.026 9.20312 41.226C9.20312 46.526 13.6422 49.726 18.6227 49.726C20.0302 49.726 21.3294 49.526 22.737 49.126V44.726C21.546 45.326 20.2467 45.626 18.9475 45.626C16.349 45.726 14.1836 43.826 14.0753 41.426C13.967 39.026 16.0242 37.026 18.6227 36.926C18.7309 36.926 18.8392 36.926 18.9475 36.926C20.2467 36.926 21.546 37.226 22.737 37.826" fill="black"/>
<path d="M69.4015 33.326C68.1023 32.926 66.6947 32.726 65.2872 32.726C60.3068 32.526 56.0842 36.126 55.8677 40.726C55.8677 40.926 55.8677 41.026 55.8677 41.226C55.8677 46.526 60.3068 49.726 65.2872 49.726C66.6947 49.726 67.994 49.526 69.4015 49.126V44.726C68.2105 45.326 66.9113 45.626 65.612 45.626C63.0135 45.726 60.8481 43.826 60.7399 41.426C60.6316 39.026 62.6887 37.026 65.2872 36.926C65.3955 36.926 65.5038 36.926 65.612 36.926C66.9113 36.926 68.2105 37.226 69.4015 37.826" fill="black"/>
<path d="M28.8 2.09998C28.8 0.999976 27.8256 0.0999756 26.6346 0.0999756C25.4436 0.0999756 24.3609 0.999976 24.3609 2.09998V23.9C24.3609 25 25.3353 25.9 26.6346 25.9C27.8256 25.9 28.8 25 28.8 23.9V2.09998ZM16.6737 9.79997C16.6737 8.69997 15.6993 7.69997 14.5083 7.69997C13.3173 7.69997 12.2346 8.59997 12.2346 9.79997V19.7C12.2346 20.8 13.209 21.8 14.5083 21.8C15.6993 21.8 16.6737 20.9 16.6737 19.7V9.79997ZM4.4391 15.5C4.4391 14.4 3.46466 13.5 2.16541 13.5C0.974436 13.5 0 14.4 0 15.5V19.8C0 20.9 0.974434 21.8 2.27368 21.8C3.46466 21.8 4.4391 20.9 4.4391 19.8" fill="black"/>
<path d="M24.3608 2.1C24.3608 1 25.3353 0 26.6345 0C27.9338 0 28.9082 0.9 28.9082 2.1V23.9C28.9082 25 27.9338 25.9 26.6345 25.9C25.3353 25.9 24.3608 25 24.3608 23.9V2.1ZM36.5954 9.8C36.5954 8.7 37.5699 7.8 38.8691 7.8C40.1684 7.8 41.1428 8.7 41.1428 9.8V19.7C41.1428 20.8 40.1684 21.7 38.8691 21.7C37.5699 21.7 36.5954 20.8 36.5954 19.7V9.8ZM48.83 15.5C48.83 14.4 49.8044 13.5 51.1037 13.5C52.2947 13.5 53.2691 14.4 53.2691 15.5V19.8C53.2691 20.9 52.2947 21.8 50.9954 21.8C49.8044 21.8 48.83 20.9 48.83 19.8" fill="black"/>
<path d="M73.1456 2.11699C73.1456 1.01699 74.12 0.0169907 75.311 0.0169907C76.5019 0.0169907 77.5847 0.91699 77.5847 2.11699V23.817C77.5847 24.917 76.6102 25.917 75.311 25.917C74.12 25.917 73.1456 25.017 73.1456 23.817V2.11699ZM85.3801 9.81699C85.3801 8.71699 86.3546 7.81699 87.5456 7.81699C88.7365 7.81699 89.711 8.71699 89.711 9.81699V19.717C89.711 20.817 88.7365 21.817 87.5456 21.817C86.3546 21.817 85.3801 20.917 85.3801 19.717V9.81699ZM97.5065 15.517C97.5065 14.417 98.4809 13.517 99.7801 13.517C100.971 13.517 101.946 14.417 101.946 15.517V19.817C101.946 20.917 100.971 21.817 99.6719 21.817C98.4809 21.817 97.5065 20.917 97.5065 19.817" fill="black"/>
<path d="M77.5847 2.11699C77.5847 1.01699 76.6103 0.116991 75.4193 0.116991C74.2283 0.116991 73.1456 1.01699 73.1456 2.11699V23.817C73.1456 24.917 74.1201 25.917 75.4193 25.917C76.7186 25.917 77.5847 25.017 77.5847 23.817V2.11699ZM65.3501 9.81699C65.3501 8.71699 64.3757 7.71699 63.1847 7.71699C61.9937 7.81699 60.911 8.71699 60.911 9.81699V19.717C60.911 20.817 61.8855 21.717 63.1847 21.717C64.3757 21.717 65.3501 20.817 65.3501 19.717V9.81699ZM53.2238 15.517C53.2238 14.417 52.2494 13.517 50.9501 13.517C49.7591 13.517 48.7847 14.417 48.7847 15.517V19.817C48.7847 20.917 49.7591 21.817 51.0584 21.817C52.2494 21.817 53.2238 20.917 53.2238 19.817" fill="black"/>
</svg>
