<svg width="150" height="31" viewBox="0 0 150 31" fill="none" xmlns="http://www.w3.org/2000/svg">
<path d="M45.2572 21.7805C44.2828 21.7805 43.6331 20.9805 43.6331 19.9805V12.7805H47.2061V9.08054H43.6331V4.68054H38.9775V9.08054H36.0542V12.7805H38.9775V21.1805C38.9775 24.0805 40.7098 25.6805 43.8497 25.6805C45.2572 25.7805 46.5565 25.3805 47.6392 24.5805L46.773 21.2805C46.4482 21.6805 45.9068 21.8805 45.2572 21.7805Z" fill="black"/>
<path d="M57.3828 8.68069C52.5106 8.58069 48.3964 12.2807 48.2881 16.7807V17.0807C48.2881 22.2807 52.2941 25.5807 57.5994 25.5807C60.1979 25.6807 62.7964 24.8807 64.8535 23.2807L62.6881 20.5807C61.3888 21.5807 59.7648 22.0807 58.0324 22.1807C55.6505 22.3807 53.3768 20.7807 52.9437 18.5807H65.9362V17.5807C66.1528 12.2807 62.5798 8.68069 57.3828 8.68069ZM53.052 15.5807C53.3768 13.3807 55.5422 11.8807 57.9242 12.1807C59.873 12.3807 61.3888 13.7807 61.6054 15.5807H53.052Z" fill="black"/>
<path d="M78.4963 8.68054C76.2226 8.68054 73.9489 9.58054 72.3248 11.1805V9.08054H67.6692V25.1805H72.3248V14.2805C73.2993 13.0805 74.7068 12.4805 76.3308 12.3805C78.2797 12.3805 79.579 13.1805 79.579 15.3805V25.1805H84.2346V13.8805C84.2346 10.6805 82.394 8.68054 78.4963 8.68054Z" fill="black"/>
<path d="M94.3039 8.6805C91.4888 8.5805 88.7821 9.4805 86.6166 11.1805L88.4573 14.1805C89.8648 12.9805 91.5971 12.2805 93.546 12.2805C95.8197 12.2805 97.3354 13.3805 97.3354 14.9805V17.0805C95.9279 15.6805 93.8708 14.9805 91.8136 15.0805C88.9986 15.0805 85.7505 16.4805 85.7505 20.2805C85.7505 23.1805 88.349 25.5805 91.4888 25.5805C91.5971 25.5805 91.7054 25.5805 91.7054 25.5805C93.7625 25.6805 95.8197 24.8805 97.2272 23.4805V25.1805H101.883V14.7805C101.991 10.1805 98.3099 8.6805 94.3039 8.6805ZM97.3354 21.3805C96.361 22.2805 95.0618 22.8805 93.6542 22.7805C91.8136 22.7805 90.2979 21.8805 90.2979 20.3805C90.2979 18.8805 91.8136 17.8805 93.6542 17.8805C95.0618 17.7805 96.361 18.3805 97.3354 19.3805V21.3805Z" fill="black"/>
<path d="M113.901 8.68047C111.736 8.68047 109.787 9.58047 108.488 11.1805V2.98047H103.832V25.2805H108.488V23.1805C109.787 24.6805 111.736 25.6805 113.901 25.6805C118.34 25.6805 121.588 22.5805 121.588 17.1805C121.588 11.8805 118.34 8.68047 113.901 8.68047ZM112.494 21.7805C110.978 21.7805 109.462 21.0805 108.488 19.9805V14.2805C109.462 13.1805 110.87 12.4805 112.494 12.3805C115.2 12.3805 116.933 14.2805 116.933 17.0805C116.933 19.9805 115.2 21.7805 112.494 21.7805Z" fill="black"/>
<path d="M127.868 2.98047H123.212V25.2805H127.868V2.98047Z" fill="black"/>
<path d="M138.586 8.68069C133.714 8.58069 129.599 12.2807 129.491 16.7807V17.0807C129.491 22.2807 133.497 25.5807 138.802 25.5807C141.401 25.6807 143.999 24.8807 146.057 23.2807L143.999 20.4807C142.7 21.4807 141.076 21.9807 139.344 22.0807C136.962 22.2807 134.688 20.6807 134.255 18.4807H147.248V17.4807C147.248 12.2807 143.783 8.68069 138.586 8.68069ZM134.363 15.5807C134.688 13.3807 136.854 11.8807 139.236 12.1807C141.184 12.3807 142.7 13.7807 142.917 15.5807H134.363Z" fill="black"/>
<path d="M148.547 8.28047C148.656 8.18047 148.656 8.08047 148.656 7.98047C148.656 7.68047 148.439 7.48047 147.898 7.48047H147.465V8.98047H147.789V8.38047H147.898L148.222 8.98047H148.656L148.222 8.28047C148.331 8.38047 148.439 8.28047 148.547 8.28047ZM147.898 8.18047H147.789V7.68047H147.898C148.006 7.68047 148.114 7.68047 148.222 7.78047C148.331 7.88047 148.331 7.88047 148.331 7.98047C148.222 8.08047 148.114 8.18047 147.898 8.18047Z" fill="black"/>
<path d="M149.305 7.58049C149.089 7.18049 148.547 6.88049 148.006 6.88049C147.681 6.88049 147.465 6.98049 147.248 7.08049C147.032 7.18049 146.815 7.38049 146.707 7.58049C146.599 7.78049 146.49 8.08049 146.49 8.28049C146.49 8.58049 146.599 8.7805 146.707 8.9805C146.923 9.3805 147.465 9.6805 148.006 9.6805C148.331 9.6805 148.547 9.5805 148.764 9.4805C148.98 9.3805 149.197 9.1805 149.305 8.9805C149.414 8.7805 149.522 8.48049 149.522 8.28049C149.414 8.08049 149.414 7.78049 149.305 7.58049ZM148.98 8.88049C148.872 9.08049 148.764 9.18049 148.547 9.28049C148.331 9.38049 148.114 9.38049 147.898 9.38049C147.681 9.38049 147.465 9.38049 147.356 9.28049C147.248 9.18049 147.032 8.98049 146.923 8.88049C146.707 8.48049 146.707 8.0805 146.923 7.6805C147.032 7.4805 147.14 7.38049 147.356 7.28049C147.573 7.18049 147.681 7.0805 147.898 7.1805C148.114 7.1805 148.331 7.28049 148.547 7.28049C148.764 7.38049 148.872 7.4805 148.98 7.6805C149.197 8.0805 149.197 8.48049 148.98 8.88049Z" fill="black"/>
<path d="M29.1248 4.68051C29.2331 4.98051 29.5579 6.18051 29.8827 7.28051L32.3729 16.0805C32.6977 17.1805 33.0226 18.3805 33.1308 18.6805C33.2391 19.1805 33.1308 19.6805 32.806 19.9805L30.7489 21.8805L23.7113 28.3805L21.6541 30.2805C21.2211 30.5805 20.6797 30.7805 20.2466 30.5805C19.9218 30.4805 18.6226 30.1805 17.4316 29.8805L7.90376 27.5805C6.71279 27.2805 5.41354 26.9805 5.08872 26.8805C4.87218 26.7805 4.54737 26.6805 4.4391 26.4805C4.22256 26.2805 4.11429 26.0805 4.00602 25.8805C3.89775 25.5805 3.57293 24.3805 3.24812 23.2805L0.757896 14.3805C0.433084 13.2805 0.108271 12.0805 0 11.7805L0.324815 11.6805L0.649627 11.5805C0.757897 11.8805 1.08271 13.0805 1.40752 14.1805L4.00602 22.9805C4.33083 24.0805 4.65564 25.2805 4.76391 25.5805C4.87218 25.6805 4.87218 25.7805 5.08872 25.8805C5.19699 25.9805 5.30526 25.9805 5.41353 26.0805L8.22857 26.7805L17.7564 29.0805C18.9474 29.3805 20.2466 29.6805 20.5714 29.7805C20.788 29.8805 21.1128 29.7805 21.3293 29.5805L23.3865 27.6805L30.4241 21.1805L32.4812 19.2805C32.5895 19.0805 32.6978 18.8805 32.6978 18.5805C32.5895 18.2805 32.2647 17.0805 31.9399 15.9805L29.3414 7.28051C29.0165 6.18051 28.6917 4.98051 28.5835 4.68051C28.4752 4.58051 28.4752 4.48051 28.3669 4.38051C28.3669 4.28051 28.2586 4.28051 28.0421 4.18051L25.2271 3.48051L15.6992 1.18051C14.5083 0.880509 13.209 0.580508 12.8842 0.480508C12.6677 0.380508 12.3429 0.480509 12.1263 0.680509L9.85263 2.68051L2.92331 9.08051L0.974438 11.0805C0.866167 11.2805 0.757896 11.4805 0.757896 11.7805L0.433084 11.8805L0.108273 11.9805C2.47651e-06 11.4805 0.108272 10.9805 0.433084 10.6805L2.49023 8.78051L9.52782 2.28051L11.585 0.380506C12.018 0.0805055 12.5594 -0.119494 12.9925 0.0805063C13.3173 0.180506 14.6165 0.480507 15.8075 0.780507L25.3353 3.08051C26.5263 3.38051 27.8256 3.68051 28.1504 3.78051C28.3669 3.88051 28.6917 3.98051 28.8 4.18051C28.9083 4.28051 29.0165 4.48051 29.1248 4.68051Z" fill="black"/>
<path d="M17.215 2.38054C17.5398 2.48054 18.406 3.08054 19.2722 3.48054L26.3097 7.18054C27.1759 7.68054 28.1503 8.18054 28.3669 8.28054C28.6917 8.48054 29.0165 8.88054 29.0165 9.28054V21.2805C29.0165 21.6805 28.8 22.0805 28.3669 22.2805C28.0421 22.3805 27.1759 22.9805 26.3097 23.3805L19.2722 27.0805C18.406 27.5805 17.4316 28.0805 17.215 28.1805C16.7819 28.3805 16.3488 28.3805 16.024 28.1805C15.6992 28.0805 14.8331 27.4805 13.9669 27.0805L6.92929 23.3805L4.87215 22.2805L4.98042 21.9805L5.08869 21.6805L7.14584 22.7805L14.1834 26.4805L16.2406 27.5805C16.3488 27.6805 16.4571 27.6805 16.5654 27.6805C16.6737 27.6805 16.7819 27.6805 16.8902 27.5805L18.9473 26.4805L25.9849 22.7805L28.0421 21.6805C28.1503 21.5805 28.2586 21.3805 28.3669 21.1805V9.38054C28.3669 9.18054 28.2586 8.98054 28.0421 8.88054C27.7173 8.78054 26.8511 8.18054 25.9849 7.78054L18.9473 4.08054C18.0812 3.58054 17.1067 3.08054 16.8902 2.98054C16.6737 2.88054 16.4571 2.88054 16.3488 2.98054L14.2917 4.08054L7.25411 7.78054C6.38794 8.28054 5.41351 8.78054 5.19696 8.88054C5.08869 8.98054 4.98042 9.18054 4.87215 9.38054V21.2805C4.87215 21.4805 4.98042 21.6805 5.19696 21.7805L5.08869 22.0805L4.87215 22.2805C4.43907 22.0805 4.22253 21.6805 4.11426 21.2805V9.38054C4.11426 8.98054 4.3308 8.58054 4.76388 8.38054C5.08869 8.28054 5.95486 7.68054 6.82102 7.28054L13.8586 3.58054C14.7248 3.08054 15.6992 2.58054 15.9158 2.48054C16.1323 2.38054 16.3488 2.38054 16.5654 2.38054C16.8902 2.28054 16.9985 2.28054 17.215 2.38054Z" fill="black"/>
<path d="M8.22856 6.68049L10.2857 6.18049L17.3233 4.48049C18.1895 4.28049 19.1639 3.98049 19.3804 3.98049C19.8135 3.88049 20.1383 3.98049 20.4631 4.28049L21.9789 5.68049L27.0677 10.3805L28.5834 11.7805C28.8 12.0805 28.9083 12.3805 28.9083 12.7805C28.8 13.0805 28.5834 13.8805 28.3669 14.6805L26.5263 21.1805C26.3098 21.9805 25.9849 22.8805 25.9849 23.0805C25.8767 23.4805 25.5519 23.6805 25.2271 23.7805C24.9022 23.8805 24.0361 24.0805 23.1699 24.2805L16.1323 25.9805C15.2662 26.1805 14.2917 26.4805 14.0752 26.4805L13.8586 26.2805L13.7504 25.9805L15.8075 25.4805L22.8451 23.7805C23.7113 23.5805 24.6857 23.2805 24.9022 23.2805C25.0105 23.2805 25.0105 23.1805 25.1188 23.1805C25.2271 23.1805 25.2271 23.0805 25.2271 22.9805C25.3353 22.6805 25.5519 21.8805 25.7684 21.0805L27.609 14.5805C27.8255 13.7805 28.1504 12.8805 28.1504 12.6805C28.1504 12.4805 28.1504 12.3805 28.0421 12.1805L26.5263 10.7805L21.3293 6.08049L19.8135 4.68049C19.7053 4.58049 19.4887 4.48049 19.2722 4.58049C18.9474 4.68049 18.0812 4.88049 17.215 5.08049L10.1774 6.78049C9.31126 6.98049 8.33683 7.28049 8.12028 7.28049C8.01201 7.28049 8.01202 7.38049 7.90375 7.38049C7.79548 7.48049 7.79547 7.48049 7.79547 7.58049C7.6872 7.88049 7.47066 8.68049 7.25412 9.48049L5.41352 15.9805C5.19698 16.7805 4.87216 17.6805 4.87216 17.8805C4.87216 18.0805 4.87217 18.1805 4.98044 18.3805L6.49622 19.7805L11.5849 24.4805L13.1007 25.8805C13.209 25.9805 13.4256 26.0805 13.6421 25.9805L13.7504 26.2805L13.8586 26.5805C13.4256 26.6805 13.1007 26.5805 12.7759 26.2805L11.2601 24.8805L6.17141 20.1805L4.65563 18.7805C4.43908 18.4805 4.33081 18.1805 4.33081 17.7805C4.43908 17.4805 4.65562 16.6805 4.87216 15.8805L6.71277 9.38049C6.92931 8.58049 7.25412 7.68049 7.25412 7.48049C7.25412 7.28049 7.36239 7.18049 7.57893 6.98049C7.90374 6.88049 8.01202 6.78049 8.22856 6.68049Z" fill="black"/>
<path d="M6.38808 24.7805C0.758009 19.5805 0.758009 11.0805 6.38808 5.78048C12.0182 0.480484 21.2212 0.580485 26.9595 5.78048C32.5896 10.9805 32.5896 19.4805 26.9595 24.6805C21.2212 29.9805 12.0182 29.9805 6.38808 24.7805ZM26.4182 24.3805C31.7234 19.3805 31.7234 11.2805 26.3099 6.38048C20.8964 1.48048 12.1264 1.48049 6.82117 6.48049C1.5159 11.4805 1.5159 19.4805 6.92944 24.4805C12.2347 29.3805 21.0046 29.2805 26.4182 24.3805Z" fill="black"/>
<path d="M17.1073 5.68047L18.6231 6.48047L23.8201 9.28047L25.3359 10.0805C25.6607 10.2805 25.7689 10.4805 25.7689 10.7805V19.5805C25.7689 19.8805 25.5524 20.1805 25.3359 20.2805C25.1193 20.3805 24.4697 20.7805 23.8201 21.0805L18.6231 23.8805C17.9734 24.1805 17.2156 24.5805 17.1073 24.6805C16.7825 24.7805 16.4577 24.7805 16.1328 24.6805L14.6171 23.8805L9.42006 21.0805L7.90428 20.2805L8.01254 20.0805L8.12081 19.8805L9.63661 20.6805L14.8336 23.4805C15.4832 23.7805 16.2411 24.1805 16.3494 24.2805C16.4577 24.3805 16.6742 24.3805 16.7825 24.2805C16.999 24.1805 17.6486 23.7805 18.2983 23.4805L23.4953 20.6805L25.011 19.8805C25.1193 19.7805 25.2276 19.6805 25.2276 19.4805V10.6805C25.2276 10.4805 25.1193 10.3805 25.011 10.2805C24.7945 10.1805 24.1449 9.78047 23.4953 9.48047L18.2983 6.68047C17.6486 6.38047 16.8907 5.98047 16.7825 5.88047C16.6742 5.78047 16.4577 5.78047 16.3494 5.88047C16.1328 5.98047 15.4832 6.38047 14.8336 6.68047L9.63661 9.48047L8.12081 10.2805C8.01254 10.3805 7.90428 10.4805 7.90428 10.6805V19.4805C7.90428 19.6805 8.01254 19.7805 8.12081 19.8805L8.01254 20.0805L7.90428 20.2805C7.68773 20.2805 7.47119 19.9805 7.47119 19.6805V10.8805C7.47119 10.5805 7.68773 10.2805 7.90428 10.1805C8.12082 10.0805 8.77044 9.68047 9.42006 9.38047L14.6171 6.58047L16.1328 5.78047C16.2411 5.68047 16.4577 5.68047 16.5659 5.68047C16.7825 5.58047 16.8907 5.58047 17.1073 5.68047Z" fill="black"/>
<path d="M8.9865 22.1805C4.76394 18.2805 4.76394 11.9805 8.9865 8.18047C13.2091 4.38047 20.0301 4.28047 24.1444 8.18047C28.3669 12.0805 28.3669 18.3805 24.1444 22.1805C20.0301 26.0805 13.2091 26.0805 8.9865 22.1805ZM23.8196 21.8805C27.8256 18.1805 27.7173 12.1805 23.7113 8.48047C19.7053 4.78047 13.2091 4.88047 9.20304 8.58047C5.30529 12.2805 5.30529 18.1805 9.20304 21.8805C13.3173 25.5805 19.7053 25.5805 23.8196 21.8805Z" fill="black"/>
</svg>
