<svg width="118" height="49" viewBox="0 0 118 49" fill="none" xmlns="http://www.w3.org/2000/svg">
<path d="M30.9654 22.6C26.7429 22.6 26.418 19.7 26.418 18.8C26.3098 17 27.609 15.5 29.4496 14.9C32.2647 14 32.806 13.9 34.6466 13.3V12.8C34.6466 12.3 34.6466 11.7 34.4301 11.2C33.997 10.1 32.806 9.5 31.615 9.6C30.3158 9.6 29.1248 10.3 28.4752 11.4L27.7173 11C28.1504 9.4 29.991 7.8 33.0226 7.8C35.188 7.8 36.5955 8.3 37.4617 9.6C38.003 10.7 38.3278 12 38.2196 13.3C38.2196 14.5 38.1113 15.9 38.1113 17C38.1113 17.7 38.003 18.4 38.003 18.8C38.003 19.8 38.2196 20.6 39.0857 20.6C39.5188 20.6 39.5188 20.5 39.8436 20.3L40.385 20.8C39.7353 21.9 38.4361 22.5 37.1368 22.6C36.0541 22.7 35.0797 22.1 34.8632 21.1C33.8887 22 32.4812 22.6 30.9654 22.6ZM34.6466 15.1C33.4556 15.4 32.3729 15.8 31.2902 16.3C30.4241 16.7 29.8827 17.6 29.991 18.5C29.8827 19.6 30.7489 20.5 31.8316 20.6C31.9398 20.6 32.1564 20.6 32.2647 20.6C33.1308 20.6 33.997 20.4 34.7549 19.9L34.6466 15.1ZM0.108269 21.8C0.108269 20.4 0.108271 19.2 0 17.7H0.866165C0.757894 18.4 1.08271 19.2 1.62406 19.7C2.5985 20.5 3.89774 20.9 5.19699 20.8C8.1203 20.8 9.52782 19.8 9.52782 17.6C9.52782 15.7 8.22857 14.9 6.49624 13.9L6.2797 13.7L4.4391 12.5C1.8406 10.9 0.649622 9.7 0.649622 7.2C0.649622 6 1.19098 1.9 7.57895 1.9C9.31128 1.9 10.9353 2 12.5594 2.3V4.2C12.5594 5.1 12.5594 5.4 12.6677 6.5H11.9098C11.9098 5.8 11.6932 5 11.1519 4.5C10.1774 3.9 8.87819 3.6 7.68722 3.6C4.22255 3.6 3.89774 5.3 3.89774 6.4C3.89774 8.1 4.87218 8.7 6.92932 9.9L9.20301 11.3C11.1519 12.5 12.9925 13.7 12.9925 16.7C12.9925 21.8 7.79549 22.4 5.63008 22.4C3.6812 22.5 1.8406 22.3 0.108269 21.8ZM41.7925 8.7C42.8752 8.8 43.8496 8.7 44.9323 8.5C45.6902 8.4 46.3398 8.2 46.9895 7.9L47.3143 8.1V9.3C48.6135 8.4 50.2376 7.9 51.8617 8C54.6767 8 56.409 9.2 56.9504 11.4C57.0587 12.2 57.1669 13.1 57.1669 14V18.2C57.1669 20.5 57.2752 21.2 57.8165 21.6C58.2496 21.9 58.791 22 59.3323 22V22.7C58.3579 22.6 56.5173 22.6 55.5429 22.6C54.1353 22.6 52.5113 22.7 51.7534 22.7V22C52.2947 22 52.8361 21.8 53.2692 21.5C53.7023 21.1 53.8105 20.3 53.8105 18.5C53.8105 18 53.9188 16.8 53.9188 16.1C53.9188 15 53.9188 13.9 53.8105 12.9C53.8105 11.4 52.6196 10.2 50.9955 10.2C50.8872 10.2 50.6707 10.2 50.5624 10.2C49.588 10.2 48.5053 10.4 47.6391 10.8V18.3C47.6391 20.6 47.7474 21.3 48.2887 21.7C48.7218 22 49.2632 22.1 49.6962 22.1V22.8C48.397 22.7 46.8812 22.7 45.9068 22.7C43.8496 22.7 43.2 22.8 42.009 22.8V22.1C42.6586 22.1 43.2 21.9 43.6331 21.5C44.0662 21 44.1744 19.8 44.1744 17.4V13.1C44.1744 11.3 44.0662 10.6 43.8496 10.2C43.6331 9.9 43.0917 9.6 42.009 9.6L41.7925 8.7ZM60.8481 21.8C61.4977 21.8 62.0391 21.6 62.4722 21.2C62.9053 20.7 63.0135 19.5 63.0135 17.1V10H61.0647V9.2C61.8226 9 62.4722 8.6 63.0135 8.2C63.0135 6.9 63.1218 5.7 63.2301 4.4C63.8797 1.5 65.9369 0 69.4015 0C70.809 0 72.2165 0.400001 73.2992 1.2L73.4075 1.5L71.8917 3.5H71.4586C71.1338 2.4 69.9429 1.6 68.7519 1.7C68.2105 1.7 67.6692 1.9 67.2361 2.2C66.5865 2.8 66.4782 3.7 66.4782 5.6V8.2H69.9429V10H66.4782V17.9C66.4782 19.8 66.5865 20.7 66.803 21.1C67.2361 21.7 68.6436 21.8 69.2932 21.7V22.4C68.2105 22.3 66.3699 22.3 65.0707 22.3C63.1218 22.3 61.9308 22.4 60.8481 22.4V21.8ZM78.6045 22.7C73.9489 22.7 71.1338 20 71.1338 15.5C71.1338 12 73.191 7.9 78.9293 7.9C83.585 7.9 86.4 10.6 86.4 15.1C86.4 18.6 84.3429 22.7 78.6045 22.7ZM78.8211 9.5C78.0632 9.5 77.197 9.7 76.6556 10.2C75.3564 11.2 74.815 12.9 74.815 15.4C74.815 16.4 75.0316 21.1 78.8211 21.1C79.579 21.2 80.3368 20.9 80.9865 20.5C82.2857 19.5 82.8271 17.8 82.8271 15.3C82.8271 14.2 82.6105 9.5 78.8211 9.5ZM87.9158 8.7C88.9985 8.7 90.1895 8.7 91.2722 8.5C91.9218 8.4 92.5714 8.3 93.1128 8L93.3293 8.1V9.3C94.3038 8.5 95.603 8 96.9023 8C97.8767 8 98.8511 8.3 99.609 8.9V9.2L98.3098 11.4H97.5519C97.0105 10.5 96.0361 10 94.9534 10.1C94.3038 10.1 93.7624 10.2 93.2211 10.5V17.8C93.2211 19.7 93.3293 20.6 93.5459 20.9C93.979 21.5 95.2782 21.6 96.0361 21.5V22.3C94.9534 22.2 93.1128 22.2 91.8135 22.2C90.406 22.2 88.9985 22.2 87.591 22.3V21.6C88.2406 21.6 88.782 21.4 89.215 21C89.6481 20.5 89.7564 19.3 89.7564 16.9V12.9C89.7564 11.1 89.7564 10.4 89.4316 10C89.215 9.7 88.6737 9.5 87.591 9.4L87.9158 8.7ZM109.678 0.900002C110.869 0.800002 112.168 0.7 113.359 0.5C113.901 0.4 114.442 0.3 114.983 0.1L115.2 0.200001C115.092 1.4 115.092 4 115.092 5.9V17.5C114.983 18.5 115.092 19.6 115.308 20.6C115.741 21 116.391 21.2 117.149 21.1V21.8C116.066 21.8 114.983 21.9 113.792 22.1C113.251 22.2 112.602 22.3 112.06 22.5L111.627 22.4V21.2C110.436 22.1 108.92 22.6 107.296 22.5C103.074 22.5 100.367 19.8 100.367 15.6C100.367 14.3 100.583 13 101.125 11.7C102.424 9.1 105.347 7.5 108.487 7.7C109.462 7.7 110.544 7.8 111.519 8V5C111.519 3.2 111.519 2.3 111.194 1.9C110.977 1.6 110.653 1.5 109.462 1.4L109.678 0.900002ZM109.137 20.6C110.003 20.7 110.869 20.5 111.627 20.1V10.6C110.761 9.9 109.678 9.6 108.595 9.6C105.564 9.6 104.156 11.5 104.156 15.4C104.156 17 104.698 20.6 109.137 20.6ZM24.9023 21C23.8195 22.1 22.3038 22.7 20.6797 22.7C18.2977 22.7 16.9985 21.9 16.3489 20.1C16.1323 19.2 16.1323 18.2 16.1323 17.2C16.1323 14.9 16.1323 13.1 16.2406 11V10H14.1835V9.4C14.8331 9.2 15.4827 8.8 16.1323 8.4C17.3233 7.5 18.2977 6.3 18.9474 5H19.597V8.2H25.0105V10H19.8135V17.5C19.8135 19.8 20.2466 21 22.5203 21C23.2782 21 24.0361 20.8 24.6857 20.5L24.9023 21Z" fill="black"/>
<path d="M98.3098 34.4C97.985 34.4 97.7685 34.5 97.5519 34.6C97.4437 34.7 97.3354 34.9 97.3354 35C97.3354 35.3 97.4437 35.6 97.5519 35.9L98.9595 39.4C99.176 39.9 99.3925 40.4 99.3925 40.7L101.233 35.9C101.341 35.6 101.45 35.3 101.45 35C101.45 34.9 101.341 34.7 101.233 34.6C101.017 34.4 100.692 34.4 100.475 34.4V33.9C100.8 33.9 101.017 33.9 101.341 34C101.558 34 101.991 34.1 102.316 34.1C102.965 34.1 103.615 34.1 104.265 34V34.4C104.048 34.4 103.399 34.3 102.857 35.7L99.0677 45C98.5264 46.3 97.7685 48 95.17 48C94.3038 48.1 93.4376 47.8 92.788 47.3V47L93.7625 46H93.979C94.3038 46.5 94.8452 46.9 95.4948 46.8C96.6858 46.8 97.2271 45.8 97.985 43.9L98.2015 43.3L95.0617 35.7C95.0617 35.6 94.9534 35.5 94.9534 35.4C94.8452 35.2 94.7369 34.9 94.7369 34.9C94.5203 34.6 94.1955 34.4 93.7625 34.4V33.9C94.4121 34 95.3865 34 95.9279 34C96.361 34 96.9023 34 97.3354 33.9C97.6602 33.9 97.985 33.9 98.3098 33.8V34.4ZM63.2301 34.2C63.988 34.2 64.6376 34.2 65.3955 34C65.8286 33.9 66.1534 33.8 66.5865 33.7L66.8031 33.8V34.6C67.3444 34 68.2106 33.7 69.0767 33.7C69.7264 33.7 70.376 33.9 70.8091 34.2V34.5L70.0512 35.9H69.6181C69.2933 35.4 68.6437 35 67.994 35.1C67.6692 35.1 67.2361 35.2 66.9113 35.4V40C66.8031 40.7 66.9113 41.4 67.1279 42C67.3444 42.4 68.2106 42.4 68.6437 42.4V42.8C67.994 42.7 66.8031 42.7 66.0452 42.7C65.179 42.7 64.3128 42.7 63.4467 42.8V42.3C63.8798 42.3 64.2046 42.2 64.5294 41.9C64.8542 41.6 64.8542 40.9 64.8542 39.3V36.7C64.8542 35.6 64.8542 35.1 64.6376 34.9C64.5294 34.7 64.0963 34.6 63.5549 34.6L63.2301 34.2ZM19.164 43.1C16.3489 43.1 14.8331 42.3 14.1835 40.6C13.8587 39.7 13.7504 38.7 13.8587 37.8V32.9C13.8587 31.4 13.7504 31.2 13.4256 30.9C13.1008 30.7 12.8843 30.6 12.4512 30.6V30.1C13.1008 30.2 14.1835 30.2 14.9414 30.2C15.8076 30.2 16.6737 30.2 17.4316 30.1V30.6C16.9985 30.6 16.6737 30.7 16.3489 31C16.0241 31.3 16.0241 31.9 16.0241 33.4V37.7C16.0241 40.3 16.2406 41.9 19.3805 41.9C22.5203 41.9 22.7369 40.2 22.7369 37.6V32.8C22.7369 31.3 22.6286 31.1 22.3038 30.8C21.979 30.6 21.6542 30.5 21.3294 30.5V30C21.979 30 22.7369 30.1 23.4948 30.1C24.2527 30.1 25.0106 30.1 25.7685 30V30.5C25.3354 30.5 25.0106 30.6 24.6858 30.9C24.361 31.2 24.3609 31.8 24.3609 33.3V37C24.4692 38.2 24.2527 39.4 23.9279 40.5C23.6031 42.3 21.8707 43.1 19.164 43.1ZM38.0031 42.6C38.4361 42.6 38.761 42.5 39.0858 42.2C39.4106 41.8 39.4106 41.1 39.4106 39.5V36.9C39.4106 35.8 39.4106 35.2 39.194 35C39.0858 34.8 38.761 34.7 38.1113 34.6V34.2C38.8692 34.2 39.6271 34.2 40.385 34C40.7098 34 41.1429 33.8 41.4677 33.7L41.6843 33.9C41.576 34.5 41.576 35.8 41.576 37.5V40.1C41.4677 40.8 41.576 41.4 41.7925 42.1C42.1173 42.4 42.5504 42.6 42.9835 42.5V42.9C42.3339 42.8 41.3594 42.8 40.4933 42.8C39.6271 42.8 38.7609 42.8 37.8948 42.9C38.0031 43 38.0031 42.6 38.0031 42.6ZM40.4933 32.1C39.8437 32.2 39.3023 31.8 39.3023 31.2C39.3023 31.1 39.3023 31.1 39.3023 31C39.3023 30.4 39.8437 29.8 40.4933 29.8H40.6015C41.2512 29.7 41.7925 30.2 41.9008 30.8V30.9C41.9008 31.6 41.2512 32.1 40.4933 32.1ZM79.9038 42.6C80.3369 42.6 80.6617 42.5 80.9865 42.2C81.3113 41.9 81.3113 41.2 81.3113 39.6V37C81.3113 35.9 81.3113 35.3 81.0948 35.1C80.9865 34.9 80.6617 34.8 80.0121 34.7V34.2C80.77 34.2 81.5279 34.2 82.2858 34C82.6106 33.9 83.0437 33.8 83.3685 33.7L83.585 33.9C83.4767 34.5 83.4767 35.8 83.4767 37.5V40.2C83.3685 40.9 83.4767 41.5 83.6933 42.2C84.0181 42.5 84.4512 42.7 84.8843 42.6V43C84.2346 42.9 83.2602 42.9 82.394 42.9C81.5279 42.9 80.6617 42.9 79.7955 43L79.9038 42.6ZM82.2858 32.1C81.6361 32.2 81.0948 31.8 80.9865 31.2C80.9865 31.1 80.9865 31.1 80.9865 31C80.9865 30.4 81.5279 29.8 82.1775 29.8H82.2858C82.9354 29.7 83.4767 30.1 83.585 30.7C83.585 30.8 83.585 30.8 83.585 30.9C83.585 31.5 83.0437 32.1 82.394 32.1C82.394 32.1 82.394 32.1 82.2858 32.1ZM71.8918 42.6C71.8918 41.8 71.8918 41 71.7835 40.2H72.4331C72.4331 40.6 72.5414 41 72.8662 41.4C73.2993 41.9 73.9489 42.1 74.5985 42H74.7068C75.7895 42 76.3309 41.6 76.3309 40.7C76.3309 40 75.8978 39.7 75.0316 39.3L73.6241 38.5C72.6497 38.1 72 37.2 72 36.2C71.8918 35.3 72.4331 34.4 73.4076 33.9C74.0572 33.7 74.7068 33.6 75.3564 33.6C76.2226 33.6 77.0888 33.7 77.9549 33.8C77.9549 34.2 77.8467 34.5 77.8467 34.9C77.8467 35.3 77.8467 35.7 77.9549 36.1H77.3053C77.3053 35.7 77.197 35.4 76.8722 35.1C76.4391 34.7 75.8978 34.6 75.3564 34.6C74.382 34.6 73.8407 35 73.8407 35.8C73.8407 36.4 74.382 36.7 74.8151 37H74.9234L76.2226 37.7C77.3053 38.1 78.1715 39.1 78.1715 40.2C78.1715 42.6 75.7895 43 74.382 43C73.6241 43 72.7579 42.9 71.8918 42.6ZM92.6798 42.1C92.0301 42.8 91.0557 43.2 90.0812 43.1C88.5655 43.1 87.6993 42.6 87.3745 41.4C87.2662 40.8 87.2662 40.2 87.2662 39.6C87.2662 38.1 87.2662 37 87.3745 35.6V35H86.0752V34.6C86.5083 34.4 86.9414 34.2 87.3745 34C88.1324 33.4 88.782 32.6 89.2151 31.8H89.6482V33.8H93.0046V34.9H89.6482V39.7C89.6482 41.1 89.8647 42 91.3805 42C91.9219 42 92.3549 41.9 92.788 41.6L92.6798 42.1ZM47.8557 33.9C47.5309 33.9 47.2061 33.9 46.8813 34C46.3399 34 45.7985 34.1 45.4737 34.1C44.7158 34.1 44.0662 34.1 43.3083 34V34.5C43.7414 34.5 44.1745 34.7 44.2828 35C44.391 35.2 44.4993 35.4 44.4993 35.5C44.6076 35.6 44.6076 35.7 44.6076 35.8L47.7474 43.1L48.7219 43L52.1865 35.8C52.1865 35.7 52.2948 35.7 52.2948 35.6C52.4031 35.4 52.5113 35.2 52.6196 35.1C52.8361 34.8 53.1609 34.6 53.594 34.6V34.1C53.1609 34.1 52.2948 34.2 51.6452 34.2C51.3204 34.2 50.9955 34.2 50.6707 34.1C50.4542 34.1 50.0211 34 49.6963 34V34.4C50.0211 34.4 50.2376 34.5 50.4542 34.6C50.5625 34.7 50.6707 34.8 50.6707 35C50.6707 35.3 50.5625 35.6 50.4542 35.9L48.8301 40.2C48.7219 39.8 48.6136 39.5 48.397 39.1L47.0978 35.9C46.9895 35.6 46.8813 35.3 46.8813 35C46.8813 34.9 46.8812 34.8 46.9895 34.7C47.2061 34.5 47.5309 34.4 47.8557 34.4V33.9ZM26.3098 34.2C26.9594 34.2 27.6091 34.2 28.2587 34.1C28.6918 34 29.1249 33.9 29.5579 33.7L29.7745 33.8V34.5C30.6406 34 31.6151 33.7 32.5895 33.6C34.1053 33.4 35.5128 34.3 35.8376 35.7C35.9459 36.2 35.9459 36.8 35.9459 37.4V40C35.9459 41.5 36.0542 41.9 36.2707 42.2C36.5955 42.4 36.9203 42.5 37.2452 42.4V42.8C36.5955 42.7 35.4046 42.7 34.7549 42.7C33.8888 42.7 33.1309 42.7 32.2647 42.8V42.4C32.5895 42.4 33.0226 42.2 33.2391 42C33.4557 41.8 33.564 41.2 33.6722 40.1V38.5C33.6722 37.8 33.6722 37.1 33.564 36.4C33.564 35.5 32.8061 34.6 31.7234 34.6C31.6151 34.6 31.5068 34.6 31.3985 34.6C30.7489 34.6 30.0993 34.7 29.5579 35V39.8C29.5579 41.3 29.6662 41.7 29.991 42C30.3158 42.2 30.6407 42.3 30.9655 42.2V42.6C30.2076 42.5 29.1249 42.5 28.4752 42.5C27.6091 42.5 26.8512 42.5 25.985 42.6V42.2C26.4181 42.2 26.7429 42.1 27.0677 41.8C27.3925 41.5 27.3925 40.7 27.3925 39.2V36.6C27.3925 35.5 27.3925 35 27.176 34.8C27.0677 34.6 26.7429 34.5 26.0933 34.5L26.3098 34.2ZM58.4662 43C55.4346 43 53.9188 41.4 53.9188 38.5C53.9188 38 54.0271 33.5 58.5745 33.5C59.7655 33.4 60.9564 33.9 61.6061 34.8C62.0391 35.5 62.364 36.4 62.2557 37.2V37.7H56.0843C56.0843 38.1 56.0843 38.5 56.1925 38.9C56.3008 40.4 57.7083 41.6 59.3324 41.5H59.4407C60.3068 41.5 61.0647 41.4 61.7143 41L61.9309 41.4C61.173 42.6 59.8737 43.1 58.4662 43ZM56.0843 37H59.8737C59.8737 35.9 59.6572 34.7 57.9249 34.7C56.4091 34.7 56.0843 36.1 56.0843 37Z" fill="black"/>
</svg>
