<svg width="146" height="21" viewBox="0 0 146 21" fill="none" xmlns="http://www.w3.org/2000/svg">
<path fill-rule="evenodd" clip-rule="evenodd" d="M11.1647 13.5106C12.2474 11.1106 13.2219 8.91057 14.3046 6.61057C14.7377 5.71057 15.1707 4.71056 15.6038 3.81056C17.2279 0.510563 21.4504 -0.889434 25.0234 0.610566C25.7813 0.910566 26.5392 1.41057 27.1888 2.01057C27.8384 2.61057 28.055 2.41057 28.5963 2.01057C30.9783 0.110568 34.2264 -0.489431 37.258 0.410569C38.3407 0.710569 39.2068 1.21057 39.9647 2.01057C40.5061 2.61057 40.7226 2.51057 41.264 2.11057C44.079 0.110566 47.2189 -0.589435 50.467 0.710565C53.0655 1.61056 54.7978 4.01057 54.6895 6.61057C54.7978 10.2106 54.6895 13.9106 54.6895 17.5106C54.7978 19.1106 53.4986 20.5106 51.7662 20.6106C51.5497 20.6106 51.3332 20.6106 51.1166 20.6106C49.4926 20.5106 48.1933 19.2106 48.4099 17.6106V17.5106V7.81056C48.4099 6.41056 47.2189 5.21057 45.7031 5.11057C44.079 4.81057 42.5632 5.71057 42.1301 7.11057C42.0219 7.51057 41.9136 8.01057 42.0219 8.51057V17.4106C42.2384 18.8106 41.264 20.2106 39.7482 20.5106C38.1241 21.0106 36.5001 20.2106 35.9587 18.7106C35.8504 18.6106 35.8504 18.4106 35.8504 18.2106C35.7422 17.8106 35.7422 17.4106 35.7422 17.0106V8.01057C35.8504 6.91057 35.2008 5.81056 34.1181 5.31056C32.9271 4.71056 31.5196 4.91057 30.4369 5.61057C29.5707 6.21057 29.1377 7.21056 29.2459 8.21056V17.5106C29.3542 19.0106 28.1632 20.4106 26.5392 20.5106H25.9978C24.2655 20.5106 23.0745 19.2106 23.0745 17.3106V6.11057C23.1828 5.71057 22.858 5.31056 22.4249 5.31056C21.9918 5.21056 21.5587 5.41056 21.3422 5.81056L19.3933 9.71056C18.0941 12.4106 16.7948 15.0106 15.4956 17.6106C15.1707 18.2106 14.8459 18.7106 14.5211 19.2106C13.3301 20.8106 10.9482 21.3106 9.10759 20.2106C8.78278 19.9106 8.34969 19.6106 8.13315 19.3106C7.37526 18.3106 6.8339 17.2106 6.29255 16.1106C4.34367 12.2106 2.39481 8.31056 0.445936 4.31056C-0.420229 3.01056 0.0128467 1.31057 1.42037 0.610566C1.52864 0.510566 1.63691 0.510569 1.74518 0.410569C3.26097 -0.289431 4.9933 0.310565 5.75119 1.71056C5.85946 1.81056 5.85947 1.91057 5.85947 2.11057C7.48353 5.71057 9.21586 9.31057 10.7317 12.9106C10.8399 13.0106 10.9482 13.2106 11.1647 13.5106Z" fill="black"/>
<path fill-rule="evenodd" clip-rule="evenodd" d="M71.3631 5.41057L68.9812 11.7106C68.115 14.2106 67.0323 16.6106 66.1661 19.0106C65.8413 19.9106 65.3 20.3106 64.4338 20.4106C63.5676 20.4106 62.8098 19.9106 62.4849 19.1106C60.3195 13.6106 58.1541 8.01057 55.9887 2.51057C55.6639 1.81057 55.8804 1.01057 56.6383 0.610567C56.6383 0.610567 56.7466 0.610568 56.7466 0.510568C57.6128 0.210568 58.4789 0.610564 58.8037 1.31056C58.8037 1.41056 58.912 1.41057 58.912 1.61057C60.5361 5.91057 62.2684 10.3106 63.7842 14.7106C63.8925 15.0106 64.0007 15.3106 64.2173 15.7106C64.9752 13.6106 65.7331 11.6106 66.4909 9.71057C67.4654 7.01057 68.4398 4.41056 69.4143 1.81056C69.8473 0.810564 70.1722 0.410568 71.1466 0.510568C72.0128 0.510568 72.4458 0.81057 72.8789 1.91057C74.503 6.21057 76.127 10.5106 77.6428 14.8106C77.7511 15.1106 77.8594 15.5106 78.0759 15.8106C78.9421 13.6106 79.7 11.5106 80.4579 9.41057C81.4323 6.81057 82.4067 4.31057 83.3812 1.71057C83.5977 1.11057 83.9225 0.710568 84.5721 0.510568C85.33 0.310568 86.1962 0.710568 86.4127 1.51057C86.521 1.81057 86.521 2.11057 86.3045 2.41057C85.7631 3.81057 85.2218 5.31056 84.5721 6.71057C82.9481 10.8106 81.4323 14.8106 79.8082 18.9106C79.7 19.0106 79.7 19.1106 79.7 19.2106C79.4834 19.9106 78.7255 20.4106 77.8594 20.4106C76.9932 20.4106 76.3436 19.9106 76.127 19.1106C75.3691 17.1106 74.6113 15.1106 73.8534 13.1106L71.1466 5.91057C71.6879 5.81057 71.5797 5.61057 71.3631 5.41057Z" fill="black"/>
<path fill-rule="evenodd" clip-rule="evenodd" d="M102.329 17.4107C101.03 18.9107 99.1891 20.0107 97.132 20.4107C93.9921 21.0107 91.0688 20.7107 88.6869 18.5107C86.3049 16.2107 86.3049 12.6107 88.6869 10.3107C89.0117 10.0107 89.4447 9.71073 89.8778 9.51073C91.3936 8.71073 93.0177 8.31073 94.75 8.21073C97.0237 8.11073 99.2974 8.31072 101.571 8.81072C102.221 9.01072 102.221 8.81072 102.221 8.31072C102.437 5.71072 100.272 3.41073 97.4568 3.21073C97.3485 3.21073 97.2402 3.21073 97.0237 3.21073C94.9666 3.01073 93.0177 3.31073 91.0688 4.01073C90.4192 4.31073 89.6613 4.11073 89.3365 3.51073V3.41073C89.3365 3.41073 89.3365 3.31072 89.2282 3.31072C88.9034 2.71072 89.2282 2.01073 89.8778 1.71073H89.9861C93.559 0.210726 97.565 0.11073 101.246 1.41073C103.628 2.31073 105.144 4.41072 105.252 6.81072C105.469 9.41072 105.469 11.9107 105.361 14.5107V19.0107C105.469 19.8107 104.819 20.5107 104.061 20.6107C103.303 20.7107 102.545 20.2107 102.329 19.5107V19.2107C102.329 18.5107 102.329 18.0107 102.329 17.4107ZM96.3741 10.4107C94.75 10.3107 93.126 10.7107 91.7184 11.5107C89.9861 12.6107 89.553 14.8107 90.744 16.4107C90.9605 16.7107 91.2853 17.0107 91.6102 17.2107C93.126 18.2107 95.0748 18.6107 96.9154 18.2107C99.4056 17.7107 101.463 16.6107 102.221 14.2107C102.329 13.4107 102.437 12.6107 102.329 11.8107C102.437 11.4107 102.112 11.1107 101.788 11.0107H101.679C99.947 10.6107 98.2147 10.4107 96.3741 10.4107Z" fill="black"/>
<path fill-rule="evenodd" clip-rule="evenodd" d="M131.67 11.6106H124.741C124.199 11.6106 124.091 11.7106 124.091 12.2106C124.632 14.7106 126.04 16.7106 128.855 17.6106C131.67 18.5106 134.81 17.9106 136.975 16.0106C137.3 15.7106 137.733 15.4106 138.274 15.4106C138.816 15.4106 139.249 15.7106 139.465 16.2106C139.682 16.7106 139.574 17.2106 139.141 17.6106C135.135 21.4106 128.638 21.6106 124.308 18.1106C122.575 16.6106 121.493 14.6106 121.168 12.5106C120.41 9.21058 121.493 5.81057 123.874 3.31057C126.256 0.810572 129.938 -0.189428 133.402 0.810572C137.084 1.71057 139.141 4.11058 140.115 7.41058C140.332 8.31058 140.44 9.21058 140.44 10.1106C140.44 11.3106 139.899 11.7106 138.599 11.7106C136.217 11.6106 133.944 11.6106 131.67 11.6106ZM130.587 9.41058H135.351C137.517 9.41058 137.517 9.41058 136.867 7.51058C135.784 4.11058 132.428 2.21057 128.963 3.21057C126.256 4.11057 124.416 6.41058 124.091 9.01058C123.983 9.51058 124.416 9.41058 124.741 9.41058C126.581 9.41058 128.638 9.41058 130.587 9.41058Z" fill="black"/>
<path fill-rule="evenodd" clip-rule="evenodd" d="M112.398 5.01055C113.264 3.31055 114.78 1.91055 116.729 1.21055C117.595 0.810548 118.678 0.51055 119.652 0.61055C120.41 0.61055 121.168 1.11055 121.168 1.81055C121.276 2.61055 120.843 3.31055 119.977 3.51055C119.652 3.61055 119.219 3.61055 118.894 3.71055C115.43 4.41055 112.831 7.21055 112.615 10.5106C112.29 13.3106 112.506 16.1106 112.506 18.9106C112.615 19.7106 111.965 20.4106 111.099 20.5106C110.882 20.5106 110.774 20.5106 110.558 20.4106C109.8 20.3106 109.258 19.6106 109.367 18.9106V2.11055C109.367 1.11055 110.016 0.310547 110.882 0.310547C111.857 0.310547 112.506 0.91055 112.506 2.11055V4.71055C112.29 4.81055 112.398 4.81055 112.398 5.01055Z" fill="black"/>
<path fill-rule="evenodd" clip-rule="evenodd" d="M145.853 2.91064C145.853 4.21064 144.662 5.31064 143.255 5.31064C141.847 5.31064 140.656 4.21064 140.656 2.91064C140.656 1.61064 141.739 0.510645 143.146 0.410645H143.255C144.662 0.410645 145.853 1.41064 145.853 2.71064V2.91064ZM143.255 0.910645C142.064 0.910645 141.198 1.71064 141.198 2.81064C141.198 3.91064 142.172 4.81064 143.255 4.81064C144.337 4.71064 145.312 3.91064 145.312 2.91064C145.312 1.81064 144.337 0.910645 143.255 0.910645Z" fill="black"/>
<path fill-rule="evenodd" clip-rule="evenodd" d="M143.039 1.71051C144.338 1.71051 144.554 2.11051 144.121 3.11051C144.013 3.41051 144.121 3.41051 144.23 3.61051C144.338 3.81051 144.446 3.91051 144.23 4.11051C144.013 4.21051 143.905 4.11052 143.688 4.01052C143.58 3.91052 143.472 3.81051 143.363 3.71051C143.039 3.41051 142.822 3.21051 142.822 3.81051C142.822 4.01051 142.714 4.21051 142.497 4.21051C142.281 4.21051 142.281 3.91051 142.172 3.71051V2.71051C142.172 1.91051 142.281 1.51051 143.039 1.71051ZM143.688 2.41052C143.58 2.11052 143.363 2.11051 143.147 2.11051C142.93 2.11051 142.822 2.21052 142.822 2.41052C142.822 2.61052 142.93 2.71051 143.255 2.71051C143.472 2.81051 143.688 2.71052 143.688 2.41052Z" fill="black"/>
<path fill-rule="evenodd" clip-rule="evenodd" d="M143.688 2.4106C143.688 2.6106 143.472 2.81059 143.147 2.71059C142.822 2.71059 142.714 2.6106 142.714 2.4106C142.714 2.2106 142.822 2.1106 143.038 2.1106C143.472 2.1106 143.688 2.2106 143.688 2.4106Z" fill="black"/>
</svg>
