<svg width="140" height="37" viewBox="0 0 140 37" fill="none" xmlns="http://www.w3.org/2000/svg">
<path d="M0 0.0340576C4.11429 1.73406 8.1203 3.53406 12.2346 5.23406C12.2346 6.93406 12.2346 8.63406 12.2346 10.3341C9.85263 9.33406 7.47068 8.33406 5.08872 7.23406C5.08872 10.7341 5.08872 14.2341 5.08872 17.8341C7.47068 18.8341 9.85263 19.8341 12.2346 20.9341C12.2346 22.6341 12.1263 24.3341 12.2346 26.0341C8.1203 24.3341 4.11429 22.5341 0 20.8341C0 13.9341 0 7.03406 0 0.0340576Z" fill="black"/>
<path d="M24.361 0.0340576C24.4692 6.93406 24.4692 13.9341 24.4692 20.8341C20.3549 22.5341 16.3489 24.3341 12.3429 26.0341C12.2347 24.3341 12.2347 22.6341 12.3429 20.9341C14.7249 19.9341 17.1068 18.8341 19.5971 17.8341C19.5971 14.3341 19.5971 10.7341 19.5971 7.23406C17.2151 8.23406 14.8331 9.33406 12.3429 10.3341C12.3429 8.63406 12.3429 6.93406 12.3429 5.23406C16.2407 3.53406 20.3549 1.83406 24.361 0.0340576Z" fill="black"/>
<path d="M33.8992 0C37.1473 2.2 40.3954 4.5 43.6435 6.8C46.8917 4.5 50.1398 2.3 53.3879 0C53.3879 7 53.3879 13.9 53.3879 20.9C51.7638 20.9 50.0315 20.9 48.4074 20.9C48.4074 16.9 48.4074 13 48.4074 9C46.7834 10.1 45.2676 11.2 43.6435 12.3C42.0195 11.2 40.5037 10.1 38.8796 9C38.8796 13 38.8796 16.9 38.8796 20.9C37.2556 20.9 35.5232 20.9 33.8992 20.9C33.8992 13.9 33.8992 7 33.8992 0Z" fill="black"/>
<path d="M78.8288 0.181152C80.3446 0.181152 81.9687 0.181152 83.4845 0.181152C86.6243 7.08115 89.6559 13.9812 92.7958 20.9812C91.0634 20.9812 89.3311 20.9812 87.5988 20.9812C87.0574 19.7812 86.6243 18.5812 86.083 17.4812C83.4845 17.4812 80.886 17.4812 78.2875 17.4812C77.7461 18.6812 77.3131 19.7812 76.7717 20.9812C75.0394 20.9812 73.307 20.9812 71.5747 20.9812C74.3897 14.9812 77.3131 8.98115 80.1281 2.98115C79.695 1.98115 79.2619 1.08115 78.8288 0.181152ZM82.1852 8.38115C81.5356 9.98115 80.7777 11.5812 80.1281 13.1812C81.5356 13.1812 82.9431 13.1812 84.3507 13.1812C83.5928 11.5812 82.8349 9.98115 82.1852 8.38115Z" fill="black"/>
<path d="M98.9697 0.5C100.919 2.98023e-07 102.976 0.0999995 104.816 0.8C104.167 2.1 103.517 3.4 102.976 4.6C102.11 4.3 101.027 3.9 100.161 4.5C99.1862 5.3 99.6193 6.6 99.511 7.7H102.434C102.434 9 102.434 10.3 102.434 11.6C101.46 11.6 100.485 11.6 99.511 11.6C99.511 14.7 99.511 17.8 99.511 20.9C97.9952 20.9 96.4794 20.9 94.9636 20.9C94.9636 17.8 94.9636 14.7 94.9636 11.6C94.314 11.6 93.6644 11.6 92.9065 11.6V7.7C93.5561 7.7 94.2058 7.7 94.9636 7.7C94.8554 6.3 94.9636 5 95.3967 3.6C96.0463 2.1 97.3456 1 98.9697 0.5Z" fill="black"/>
<path d="M60.4265 5.89981C62.8085 4.99981 65.5152 4.99981 67.8972 5.99981C69.413 6.79981 70.8205 7.89981 71.6867 9.29981C70.3874 9.99981 69.1964 10.6998 67.8972 11.3998C67.2476 10.0998 65.7318 9.19981 64.216 9.09981C61.834 9.09981 59.8852 10.8998 59.8852 13.0998C59.8852 15.2998 61.834 17.0998 64.216 17.0998C65.84 16.9998 67.2476 16.1998 67.8972 14.7998C69.1964 15.4998 70.3874 16.1998 71.6867 16.8998C70.8205 18.2998 69.5212 19.3998 68.0055 20.0998C64.7573 21.4998 60.9679 21.0998 58.1528 18.8998C55.9874 17.0998 54.9047 14.4998 55.4461 11.7998C55.8791 9.19981 57.828 6.89981 60.4265 5.89981Z" fill="black"/>
<path d="M105.57 8.33998C108.493 4.93998 113.799 4.33998 117.588 6.83998C120.295 8.53998 121.269 11.74 121.053 14.64C116.939 14.64 112.716 14.64 108.602 14.64C109.36 16.54 111.417 17.54 113.474 17.24C114.448 17.04 115.314 16.64 115.964 15.94C117.155 16.54 118.454 17.14 119.645 17.84C118.346 19.24 116.722 20.14 114.881 20.64C111.417 21.54 107.736 20.44 105.462 17.74C103.296 14.94 103.296 11.14 105.57 8.33998ZM108.71 11.14C111.092 11.14 113.474 11.14 115.964 11.14C115.314 9.83998 114.015 8.93998 112.499 8.93998C110.767 8.83998 109.36 9.73998 108.71 11.14Z" fill="black"/>
<path d="M123.738 8.94136C126.12 5.64136 130.667 4.44136 134.565 6.04136C136.73 6.94136 138.354 8.64136 139.112 10.7414C139.545 12.0414 139.653 13.3414 139.545 14.6414C135.431 14.6414 131.208 14.6414 127.094 14.6414C127.744 16.4414 129.693 17.4414 131.75 17.2414C132.832 17.0414 133.807 16.6414 134.565 15.9414C135.756 16.5414 137.055 17.1414 138.246 17.8414C136.73 19.5414 134.565 20.6414 132.291 20.9414C129.368 21.3414 126.444 20.3414 124.387 18.2414C122.114 15.5414 121.789 11.8414 123.738 8.94136ZM127.311 11.1414C129.693 11.1414 132.075 11.1414 134.565 11.1414C133.915 9.74136 132.399 8.84136 130.775 8.94136C129.151 8.94136 127.852 9.84136 127.311 11.1414Z" fill="black"/>
<path d="M33.8589 25.999C34.4002 25.999 34.9416 25.999 35.4829 25.999C35.4829 26.999 35.4829 27.999 35.4829 28.999C36.4574 27.999 38.1897 27.899 39.2724 28.899C39.3807 28.999 39.489 29.099 39.5972 29.199C40.5717 30.599 40.4634 32.399 39.3807 33.699C38.298 34.699 36.5657 34.699 35.4829 33.699L35.3747 33.599C35.3747 33.799 35.3747 34.099 35.3747 34.299H33.8589C33.8589 31.499 33.8589 28.699 33.8589 25.999ZM36.3491 29.599C34.9416 30.399 35.1581 33.099 37.107 33.099C38.5145 33.099 38.9476 31.399 38.5145 30.399C38.298 29.699 37.4318 29.199 36.5657 29.499C36.5657 29.499 36.4574 29.599 36.3491 29.599Z" fill="black"/>
<path d="M51.2224 25.8999H52.8465V34.1999C52.3051 34.1999 51.7638 34.1999 51.2224 34.1999V25.8999Z" fill="black"/>
<path d="M73.2024 25.8999C73.7437 25.8999 74.2851 25.8999 74.8265 25.8999C74.8265 28.0999 74.8265 30.1999 74.8265 32.3999C74.8265 32.7999 75.3678 32.8999 75.6926 32.9999C75.6926 33.3999 75.6926 33.7999 75.6926 34.2999C75.043 34.1999 74.2851 34.2999 73.7437 33.8999C73.3107 33.3999 73.0941 32.7999 73.2024 32.1999C73.2024 30.1999 73.2024 28.0999 73.2024 25.8999Z" fill="black"/>
<path d="M62.3748 26.7H63.9989C63.9989 27.3 63.9989 27.8 63.9989 28.4C64.432 28.4 64.9733 28.4 65.4064 28.4C65.4064 28.8 65.4064 29.2 65.4064 29.6C64.9733 29.6 64.432 29.6 63.9989 29.6C63.8906 30.6 63.9989 31.5 64.1072 32.5C64.3237 33 65.0816 33 65.5147 33.1C65.5147 33.5 65.5147 34 65.5147 34.4C64.432 34.4 63.0245 34.3 62.4831 33.2C62.2666 32 62.1583 30.9 62.2666 29.7C62.05 29.7 61.6169 29.7 61.4004 29.7C61.4004 29.3 61.4004 28.9 61.4004 28.5C61.7252 28.5 61.9417 28.5 62.2666 28.5C62.3748 27.8 62.3748 27.2 62.3748 26.7Z" fill="black"/>
<path d="M40.2876 28.3C40.9372 28.3 41.4786 28.3 42.1282 28.3C42.6695 29.7 43.2109 31.1 43.7523 32.5C44.1853 31.1 44.7267 29.7 45.268 28.3C45.9177 28.3 46.459 28.3 47.0004 28.3C46.0259 30.6 45.0515 32.9001 44.0771 35.2001C43.7523 35.9001 43.1026 36.5001 42.2365 36.7001H41.3703C41.0455 36.6 40.7207 36.5 40.3959 36.4C40.5041 36 40.7207 35.7 40.829 35.3C41.262 35.3 41.8034 35.6 42.2365 35.3C42.5613 35 42.7778 34.6001 42.9944 34.2001C42.1282 32.2001 41.1538 30.3 40.2876 28.3Z" fill="black"/>
<path d="M54.5793 28.2999C55.1207 28.2999 55.6621 28.2999 56.2034 28.2999C56.2034 28.5999 56.2034 28.9999 56.0951 29.2999C56.853 28.2999 58.2605 27.8999 59.5598 28.3999C60.3177 28.7999 60.7508 29.4999 60.6425 30.2999C60.6425 31.5999 60.6425 33 60.6425 34.3C60.1011 34.3 59.5598 34.3 59.0184 34.3C59.0184 32.9 59.1267 31.4999 58.9102 30.1999C58.4771 29.0999 56.6365 29.6999 56.3117 30.5999C56.0951 31.7999 55.9869 33.0999 56.0951 34.3999H54.5793C54.5793 32.2999 54.5793 30.2999 54.5793 28.2999Z" fill="black"/>
<path d="M67.219 28.7862C68.5182 27.7862 70.4671 27.9862 71.5498 29.2862C71.9829 29.9862 72.1994 30.7862 72.0911 31.6862C70.5753 31.6862 69.0596 31.6862 67.5438 31.6862C67.7603 32.1862 67.9768 32.7862 68.6265 33.0862C69.6009 33.3862 70.6836 33.2862 71.4415 32.6862C71.658 33.0862 71.8746 33.3862 72.0911 33.7862C70.6836 34.6862 68.843 34.7862 67.4355 33.9862C65.9197 32.8862 65.5949 30.8862 66.7859 29.3862C66.7859 29.0862 67.0024 28.8862 67.219 28.7862ZM67.652 30.4862C68.6265 30.4862 69.6009 30.4862 70.5753 30.4862C70.3588 29.9862 70.1423 29.2862 69.3844 29.2862C68.5182 29.2862 67.7603 29.7862 67.652 30.4862Z" fill="black"/>
</svg>
