<svg width="243" height="256" viewBox="0 0 243 256" fill="none" xmlns="http://www.w3.org/2000/svg">
<path d="M187.847 243.331C190.578 249.42 185.663 256.446 175.834 255.978C174.742 255.509 172.011 255.041 170.373 253.636C164.366 247.547 156.175 245.205 148.53 241.926C138.155 237.71 127.78 233.963 117.405 229.748C111.944 227.406 110.852 224.127 115.22 220.38C116.858 218.975 119.043 217.569 120.681 217.101C129.418 213.354 135.971 208.202 142.523 202.581C147.438 198.365 152.899 194.618 158.36 191.339C162.728 188.529 168.735 189.934 170.373 194.618C175.834 207.733 181.84 220.848 184.025 234.9C185.117 237.242 186.209 240.052 187.847 243.331ZM92.2854 144.032C89.009 147.31 90.1011 149.184 94.4697 150.589C101.569 152.931 108.667 154.805 115.766 157.615C127.78 162.299 139.793 166.983 151.807 172.135C156.175 174.009 159.998 173.072 163.274 171.667C167.097 169.793 167.643 166.514 167.097 163.236C164.912 154.805 163.82 146.374 165.458 136.537C164.912 135.601 164.366 133.259 162.728 131.385C160.544 128.106 157.813 125.296 155.083 122.485C150.715 117.333 147.984 116.396 142.523 120.144C132.148 127.169 120.135 131.853 107.575 134.664C100.476 136.069 96.654 139.816 92.2854 144.032ZM16.382 84.5456C19.1124 84.5456 21.2966 83.6088 23.4809 82.672C30.0337 80.3301 36.5866 77.5197 43.1394 74.7094C52.4225 70.9622 61.7056 67.2151 70.4427 63.4679C74.2652 62.0627 76.4495 59.7207 75.9034 55.5052C75.3573 51.758 72.0809 50.8213 68.8045 49.8845C64.436 48.0109 59.5213 46.6057 55.6988 44.2638C48.0539 38.643 40.409 33.0223 32.764 26.9332C26.7573 22.2493 20.7506 22.7177 16.9281 28.3384C15.2899 31.1488 14.7438 34.4275 14.1978 37.7063C13.1056 44.2638 12.0135 50.8213 10.9213 57.3788C10.3753 61.1259 8.73713 65.3415 7.64499 68.6202C8.73713 73.7725 9.28314 78.4565 10.9213 82.672C12.5595 83.6088 15.2899 85.014 16.382 84.5456ZM236.447 121.549C226.072 116.396 214.058 112.649 205.321 105.155C203.137 103.281 186.209 101.876 183.479 103.281C181.84 104.218 180.202 105.155 179.11 106.56C175.834 109.839 175.288 114.054 175.834 118.738C176.38 122.954 176.926 127.169 176.926 131.385C176.926 137.006 175.834 142.626 175.834 148.247C175.288 155.742 182.933 159.957 191.124 156.21C196.038 153.868 200.953 151.994 205.867 149.652C216.243 144.968 227.164 140.284 236.993 135.132C239.724 133.727 241.908 130.448 243 127.638C243 123.891 239.177 122.954 236.447 121.549ZM63.8899 130.448C60.0674 129.511 56.2449 128.575 53.5146 127.169C43.6854 121.549 34.4023 115.928 25.1191 109.839C17.4742 105.155 12.0135 106.56 9.82923 114.523C7.64496 122.017 6.55286 129.98 4.91466 137.943C3.82252 142.626 2.73035 147.779 1.63822 152.463C1.09215 153.868 0 155.273 0 156.678C0 159.02 0.546067 161.362 2.73034 162.767C4.36854 163.704 7.64496 163.704 9.82923 162.767C26.7573 157.615 42.5932 149.184 61.1595 146.374C67.1663 145.437 70.4427 141.69 70.9887 137.006C70.9887 133.259 68.2584 131.385 63.8899 130.448ZM130.51 196.023C133.787 195.087 138.155 194.618 140.885 192.745C143.07 191.339 144.708 188.529 144.708 186.187C144.708 182.908 141.431 181.971 138.155 181.503C131.602 180.098 125.049 178.224 119.589 175.882C110.306 172.135 101.569 167.451 92.2854 162.767C85.7326 159.489 80.2719 160.894 78.6337 166.983C76.4495 174.477 73.1731 182.44 76.4495 190.403C78.6338 195.555 78.0877 200.707 75.9034 205.86C75.3573 207.265 74.8112 208.202 74.8112 209.607C73.7191 214.291 76.4495 216.164 81.3641 215.696C84.0944 215.227 86.8247 214.759 89.5551 214.759C89.5551 215.227 90.1012 215.696 90.1012 216.164C92.2854 215.228 94.4696 214.291 96.6539 213.354C104.845 208.67 112.49 203.986 120.681 199.771C123.411 197.429 127.234 196.96 130.51 196.023ZM234.263 158.083C230.986 154.805 227.164 156.678 223.888 158.083C216.789 160.894 209.144 164.173 202.045 167.451C194.946 170.73 187.847 174.477 181.294 178.693C176.38 181.972 176.926 186.655 181.84 189.934C190.577 195.555 198.768 201.644 208.052 207.265C212.42 210.075 216.243 212.886 216.243 218.038C216.243 221.785 219.519 223.19 223.342 223.658C227.164 224.127 230.44 223.19 231.533 219.911C232.625 217.101 233.717 214.291 234.809 211.949C234.263 209.607 234.263 208.202 233.717 206.796C232.625 203.049 230.44 199.77 229.894 196.023C228.256 186.187 229.348 176.819 234.263 167.451C236.447 164.173 236.993 160.894 234.263 158.083ZM113.036 117.802C117.404 116.396 121.227 114.054 125.596 113.118C133.787 111.244 140.885 108.434 147.984 105.155C153.991 101.876 159.998 97.6606 168.735 100.471C172.557 101.876 176.926 98.5974 178.564 95.3186C179.656 93.4451 179.656 89.6979 178.018 88.2927C175.288 85.9508 170.919 84.0772 167.097 82.672C163.82 81.2668 159.998 81.2669 156.175 79.8617C145.8 76.1146 135.971 71.899 125.596 68.6202C114.128 64.8731 108.121 69.557 109.214 79.8617C110.306 88.2928 110.852 96.7238 108.667 105.155C108.121 109.839 107.029 114.523 113.036 117.802ZM89.009 73.3042C84.0944 72.3674 80.8179 73.3041 76.9954 75.6461C71.5348 78.4565 66.0741 80.7984 60.0674 83.6088C55.6989 85.4824 51.8764 86.8876 47.5078 89.2296C43.1393 91.5715 40.409 95.787 39.8629 100.003C39.8629 104.218 42.0472 105.623 45.8697 107.028C59.5214 111.712 70.9888 119.207 81.9102 127.169C83.5484 128.575 86.2786 129.511 88.4629 129.043C96.1078 128.575 99.3843 124.359 98.2922 117.333C96.654 106.092 94.4697 95.3187 97.2 84.0772C99.3843 77.9881 96.1078 74.7093 89.009 73.3042ZM117.405 55.5052C122.865 56.9104 128.872 57.3788 134.332 58.784C141.431 60.6576 148.53 62.9995 155.629 65.3415C164.912 68.1518 170.919 64.8731 170.373 56.9104C169.281 51.758 169.281 45.669 167.643 40.0482C165.458 31.6172 161.636 23.6544 154.537 17.5653C148.53 11.9446 143.07 12.413 137.609 18.9705C133.24 24.1228 127.78 28.3384 122.319 33.0223C118.497 36.7695 113.036 39.1114 110.852 44.2638C107.575 49.8845 109.214 53.6316 117.405 55.5052ZM182.933 79.8617C181.84 88.7612 184.025 91.1031 194.4 92.0399C196.038 92.0399 197.13 92.5083 198.769 92.5083C203.137 92.9767 206.413 91.5715 209.144 88.7612C211.328 86.4192 213.512 84.0772 216.243 82.2037C221.157 78.9249 226.618 75.6462 232.079 72.8358C236.447 70.0254 238.085 67.215 236.993 62.5311C235.901 58.3155 232.625 56.9104 228.256 56.9104C224.98 56.442 221.703 55.5052 218.427 54.5684C213.512 52.6948 208.598 50.3529 203.683 48.0109C197.13 45.2006 190.577 43.327 184.025 47.5425C175.288 53.6316 174.195 58.7839 178.018 67.215C180.202 71.4306 181.294 76.1146 182.933 79.8617ZM61.7056 184.782C61.1595 180.566 62.2517 175.882 62.2517 171.198C62.2517 164.173 58.4292 161.831 50.7843 164.641C45.8697 166.515 40.409 168.388 34.9484 168.857C25.1191 169.793 15.8359 172.604 6.55279 175.882C2.18425 177.288 0 179.629 0 183.845C1.09213 184.313 2.1843 185.25 3.27644 185.719C11.4674 189.934 19.6584 193.213 27.3034 197.897C34.4022 202.112 43.6854 203.518 49.146 209.607C52.9685 213.822 56.791 214.291 60.6135 211.949C64.982 209.607 66.0742 206.796 64.982 201.644C63.8899 196.96 62.2517 190.871 61.7056 184.782ZM54.0607 31.6171C63.8899 37.7063 73.173 43.7954 82.4561 50.3529C86.2786 53.1632 89.555 53.1632 93.3774 52.2264C97.746 51.2896 98.8381 48.0109 98.8381 44.7322C98.8381 33.4907 98.8381 22.2492 98.8381 11.0078C99.3842 11.0078 99.9304 10.5394 100.476 10.5394C98.8382 7.72905 98.2922 3.51347 95.5619 1.63989C91.7394 -1.63886 86.8247 0.703162 83.0022 2.57674C75.9033 6.32389 68.2584 9.60259 61.1595 13.3497C57.8831 14.7549 54.6067 16.6285 51.8764 18.9705C46.9618 23.1861 48.054 27.87 54.0607 31.6171Z" fill="#0077B5"/>
</svg>
