<svg width="455" height="431" viewBox="0 0 455 431" fill="none" xmlns="http://www.w3.org/2000/svg">
<g filter="url(#filter0_d_266_20183)">
<circle cx="228.849" cy="224.03" r="169.124" fill="white"/>
<circle cx="228.849" cy="224.03" r="165.124" stroke="#DAE1E9" stroke-width="8"/>
</g>
<circle cx="228.849" cy="224.031" r="126.752" fill="#DAE1E9" fill-opacity="0.2"/>
<g filter="url(#filter1_d_266_20183)">
<circle cx="228.849" cy="224.031" r="84.3795" fill="white"/>
</g>
<path d="M233.145 170.292L245.756 243.847H172.779L233.145 170.292Z" fill="#0033A1"/>
<path d="M233.143 170.292L277.838 243.847H245.754L233.143 170.292Z" fill="#CC27B0"/>
<path d="M172.779 243.846H245.756L250.316 270.43L172.779 243.846Z" fill="#0071CE"/>
<path d="M245.753 243.846H277.837L250.313 270.43L245.753 243.846Z" fill="#E17FD2"/>
<g filter="url(#filter2_d_266_20183)">
<rect x="69.9529" y="300.374" width="74.517" height="74.517" rx="8" fill="white"/>
<circle cx="107.211" cy="337.632" r="37.2585" fill="white"/>
<g clip-path="url(#clip0_266_20183)">
<path d="M83.2287 349.625C83.2287 353.41 88.2136 356.477 94.3634 356.477C100.513 356.477 105.498 353.41 105.498 349.625" stroke="#54C0E8" stroke-width="2.5" stroke-linecap="round" stroke-linejoin="round"/>
<path d="M108.925 349.625C108.925 353.41 113.909 356.477 120.059 356.477C126.209 356.477 131.194 353.41 131.194 349.625" stroke="#54C0E8" stroke-width="2.5" stroke-linecap="round" stroke-linejoin="round"/>
<path d="M83.2287 344.482C83.2287 348.268 88.2136 351.334 94.3634 351.334C100.513 351.334 105.498 348.268 105.498 344.482" stroke="#54C0E8" stroke-width="2.5" stroke-linecap="round" stroke-linejoin="round"/>
<path d="M108.925 344.482C108.925 348.268 113.909 351.334 120.059 351.334C126.209 351.334 131.194 348.268 131.194 344.482" stroke="#54C0E8" stroke-width="2.5" stroke-linecap="round" stroke-linejoin="round"/>
<path d="M83.2287 339.344C83.2287 343.13 88.2136 346.197 94.3634 346.197C100.513 346.197 105.498 343.13 105.498 339.344" stroke="#54C0E8" stroke-width="2.5" stroke-linecap="round" stroke-linejoin="round"/>
<path d="M108.925 339.344C108.925 343.13 113.909 346.197 120.059 346.197C126.209 346.197 131.194 343.13 131.194 339.344V354.762C131.194 358.548 126.209 361.614 120.059 361.614C113.909 361.614 108.925 358.548 108.925 354.762V339.344Z" stroke="#54C0E8" stroke-width="2.5" stroke-linecap="round" stroke-linejoin="round"/>
<path d="M83.2287 334.207C83.2287 337.993 88.2136 341.059 94.3634 341.059C100.513 341.059 105.498 337.993 105.498 334.207" stroke="#54C0E8" stroke-width="2.5" stroke-linecap="round" stroke-linejoin="round"/>
<path d="M83.2287 329.064C83.2287 332.85 88.2136 335.917 94.3634 335.917C100.513 335.917 105.498 332.85 105.498 329.064" stroke="#54C0E8" stroke-width="2.5" stroke-linecap="round" stroke-linejoin="round"/>
<path d="M105.498 323.927C105.498 327.713 100.513 330.779 94.3634 330.779C88.2136 330.779 83.2287 327.713 83.2287 323.927V354.761C83.2287 358.547 88.2136 361.614 94.3634 361.614C100.513 361.614 105.498 358.547 105.498 354.761V323.927Z" stroke="#54C0E8" stroke-width="2.5" stroke-linecap="round" stroke-linejoin="round"/>
<path d="M94.3634 330.781C100.513 330.781 105.498 327.713 105.498 323.929C105.498 320.144 100.513 317.077 94.3634 317.077C88.2139 317.077 83.2287 320.144 83.2287 323.929C83.2287 327.713 88.2139 330.781 94.3634 330.781Z" stroke="#54C0E8" stroke-width="2.5" stroke-linecap="round" stroke-linejoin="round"/>
<path d="M120.059 346.199C126.209 346.199 131.194 343.131 131.194 339.347C131.194 335.562 126.209 332.494 120.059 332.494C113.91 332.494 108.925 335.562 108.925 339.347C108.925 343.131 113.91 346.199 120.059 346.199Z" stroke="#54C0E8" stroke-width="2.5" stroke-linecap="round" stroke-linejoin="round"/>
</g>
</g>
<g filter="url(#filter3_d_266_20183)">
<rect x="40" y="123.579" width="74.517" height="74.517" rx="8" fill="white"/>
<circle cx="77.2585" cy="160.837" r="37.2585" fill="white"/>
<g clip-path="url(#clip1_266_20183)">
<path d="M101.301 158.641L77.37 174.542L53.4389 158.641L77.37 141.994L101.301 158.641Z" stroke="#54C0E8" stroke-width="2.5" stroke-linecap="round" stroke-linejoin="round"/>
<path d="M76.9413 158.212L89.2409 167.21V181.792" stroke="#54C0E8" stroke-width="2.5" stroke-linecap="round" stroke-linejoin="round"/>
<path d="M94.4232 163.835V166.833C94.4232 172.927 86.7146 177.869 77.2415 177.869C67.7684 177.869 60.064 172.944 60.064 166.833V163.908" stroke="#54C0E8" stroke-width="2.5" stroke-linecap="round" stroke-linejoin="round"/>
</g>
</g>
<g filter="url(#filter4_d_266_20183)">
<rect x="193.417" y="32.2588" width="73.7864" height="74.517" rx="8" fill="white"/>
<ellipse cx="230.311" cy="69.5173" rx="36.8932" ry="37.2585" fill="white"/>
<g clip-path="url(#clip2_266_20183)">
<path d="M206.563 57.4955L230.34 45.3672L254.117 57.4955H206.563Z" stroke="#54C0E8" stroke-width="2.5" stroke-linecap="round" stroke-linejoin="round"/>
<path d="M218.437 57.5247H213.348V83.2202H218.437V57.5247Z" stroke="#54C0E8" stroke-width="2.5" stroke-linecap="round" stroke-linejoin="round"/>
<path d="M250.695 83.2224H209.986V88.3615H250.695V83.2224Z" stroke="#54C0E8" stroke-width="2.5" stroke-linecap="round" stroke-linejoin="round"/>
<path d="M254.088 88.3599H206.593V93.499H254.088V88.3599Z" stroke="#54C0E8" stroke-width="2.5" stroke-linecap="round" stroke-linejoin="round"/>
<path d="M247.273 57.5247H242.184V83.2202H247.273V57.5247Z" stroke="#54C0E8" stroke-width="2.5" stroke-linecap="round" stroke-linejoin="round"/>
<path d="M232.855 57.5247H227.766V83.2202H232.855V57.5247Z" stroke="#54C0E8" stroke-width="2.5" stroke-linecap="round" stroke-linejoin="round"/>
</g>
</g>
<g filter="url(#filter5_d_266_20183)">
<rect x="301.54" y="308.41" width="74.517" height="74.517" rx="8" fill="white"/>
<circle cx="338.799" cy="345.668" r="37.2585" fill="white"/>
<g clip-path="url(#clip3_266_20183)">
<path d="M330.221 325.113V321.674H326.795V325.113H330.221Z" stroke="#54C0E8" stroke-width="2.5" stroke-linecap="round" stroke-linejoin="round"/>
<path d="M350.79 325.117V321.678H347.364V325.117H350.79Z" stroke="#54C0E8" stroke-width="2.5" stroke-linecap="round" stroke-linejoin="round"/>
<path d="M350.79 322.348V328.344C350.79 329.918 350.479 331.478 349.877 332.932C349.274 334.387 348.391 335.709 347.277 336.823C346.164 337.936 344.842 338.819 343.387 339.422C341.932 340.025 340.373 340.335 338.798 340.335C337.224 340.335 335.664 340.025 334.21 339.422C332.755 338.819 331.433 337.936 330.319 336.823C329.206 335.709 328.323 334.387 327.72 332.932C327.117 331.478 326.807 329.918 326.807 328.344V322.348" stroke="#54C0E8" stroke-width="2.5" stroke-linecap="round" stroke-linejoin="round"/>
<path d="M338.794 340.346V343.1" stroke="#54C0E8" stroke-width="2.5" stroke-linecap="round" stroke-linejoin="round"/>
<path d="M336.739 363.838L334.409 361.512C334.005 361.008 333.752 360.4 333.679 359.759C333.606 359.117 333.716 358.468 333.996 357.886C334.275 357.305 334.714 356.814 335.261 356.47C335.807 356.127 336.44 355.945 337.086 355.945H343.081C344.217 355.945 345.306 355.494 346.109 354.691C346.913 353.887 347.364 352.798 347.364 351.662C347.364 350.527 346.913 349.437 346.109 348.634C345.306 347.831 344.217 347.38 343.081 347.38C341.945 347.38 340.856 346.929 340.053 346.125C339.25 345.322 338.799 344.233 338.799 343.097" stroke="#54C0E8" stroke-width="2.5" stroke-linejoin="round"/>
<path d="M338.798 369.651C340.69 369.651 342.224 368.117 342.224 366.225C342.224 364.332 340.69 362.799 338.798 362.799C336.906 362.799 335.372 364.332 335.372 366.225C335.372 368.117 336.906 369.651 338.798 369.651Z" stroke="#54C0E8" stroke-width="2.5" stroke-linecap="round" stroke-linejoin="round"/>
</g>
</g>
<g filter="url(#filter6_d_266_20183)">
<rect x="340.26" y="125.77" width="74.517" height="74.517" rx="8" fill="white"/>
<circle cx="377.518" cy="163.029" r="37.2585" fill="white"/>
<g clip-path="url(#clip4_266_20183)">
<path d="M383.864 149.825C384.198 149.129 384.371 148.367 384.37 147.595C384.368 146.823 384.193 146.061 383.857 145.366C383.521 144.671 383.033 144.06 382.428 143.58C381.824 143.1 381.119 142.761 380.366 142.591C379.613 142.42 378.831 142.422 378.079 142.595C377.327 142.768 376.623 143.108 376.02 143.59C375.417 144.073 374.931 144.684 374.597 145.381C374.263 146.077 374.09 146.839 374.092 147.611C374.092 147.705 374.092 147.8 374.092 147.89L367.295 154.703C365.877 154.329 364.376 154.419 363.013 154.962C361.65 155.504 360.497 156.47 359.724 157.716C358.95 158.963 358.598 160.424 358.717 161.886C358.836 163.348 359.422 164.733 360.387 165.838V180.159H370.665V165.838C371.415 164.995 371.943 163.978 372.2 162.879C372.457 161.781 372.436 160.635 372.139 159.547L378.952 152.75C379.042 152.75 379.136 152.75 379.231 152.75C379.997 152.749 380.754 152.576 381.445 152.245L387.44 158.241L389.86 155.825L383.864 149.825Z" stroke="#54C0E8" stroke-width="2.5" stroke-linecap="round" stroke-linejoin="round"/>
<path d="M365.527 164.743C367.419 164.743 368.953 163.209 368.953 161.317C368.953 159.425 367.419 157.891 365.527 157.891C363.634 157.891 362.1 159.425 362.1 161.317C362.1 163.209 363.634 164.743 365.527 164.743Z" stroke="#54C0E8" stroke-width="2.5" stroke-linecap="round" stroke-linejoin="round"/>
<path d="M401.5 180.159H353.535V187.011H401.5V180.159Z" stroke="#54C0E8" stroke-width="2.5" stroke-linecap="round" stroke-linejoin="round"/>
<path d="M379.231 149.482C380.264 149.482 381.102 148.644 381.102 147.61C381.102 146.576 380.264 145.739 379.231 145.739C378.197 145.739 377.359 146.576 377.359 147.61C377.359 148.644 378.197 149.482 379.231 149.482Z" stroke="#54C0E8" stroke-width="2.5" stroke-linecap="round" stroke-linejoin="round"/>
<path d="M388.64 157.047L394.276 162.679" stroke="#54C0E8" stroke-width="2.5" stroke-linecap="round" stroke-linejoin="round"/>
</g>
</g>
<defs>
<filter id="filter0_d_266_20183" x="43.725" y="42.906" width="370.249" height="370.249" filterUnits="userSpaceOnUse" color-interpolation-filters="sRGB">
<feFlood flood-opacity="0" result="BackgroundImageFix"/>
<feColorMatrix in="SourceAlpha" type="matrix" values="0 0 0 0 0 0 0 0 0 0 0 0 0 0 0 0 0 0 127 0" result="hardAlpha"/>
<feOffset dy="4"/>
<feGaussianBlur stdDeviation="8"/>
<feComposite in2="hardAlpha" operator="out"/>
<feColorMatrix type="matrix" values="0 0 0 0 0.254902 0 0 0 0 0.32549 0 0 0 0 0.392157 0 0 0 0.08 0"/>
<feBlend mode="normal" in2="BackgroundImageFix" result="effect1_dropShadow_266_20183"/>
<feBlend mode="normal" in="SourceGraphic" in2="effect1_dropShadow_266_20183" result="shape"/>
</filter>
<filter id="filter1_d_266_20183" x="128.47" y="127.651" width="200.759" height="200.759" filterUnits="userSpaceOnUse" color-interpolation-filters="sRGB">
<feFlood flood-opacity="0" result="BackgroundImageFix"/>
<feColorMatrix in="SourceAlpha" type="matrix" values="0 0 0 0 0 0 0 0 0 0 0 0 0 0 0 0 0 0 127 0" result="hardAlpha"/>
<feOffset dy="4"/>
<feGaussianBlur stdDeviation="8"/>
<feComposite in2="hardAlpha" operator="out"/>
<feColorMatrix type="matrix" values="0 0 0 0 0.254902 0 0 0 0 0.32549 0 0 0 0 0.392157 0 0 0 0.08 0"/>
<feBlend mode="normal" in2="BackgroundImageFix" result="effect1_dropShadow_266_20183"/>
<feBlend mode="normal" in="SourceGraphic" in2="effect1_dropShadow_266_20183" result="shape"/>
</filter>
<filter id="filter2_d_266_20183" x="29.9529" y="268.374" width="154.517" height="154.517" filterUnits="userSpaceOnUse" color-interpolation-filters="sRGB">
<feFlood flood-opacity="0" result="BackgroundImageFix"/>
<feColorMatrix in="SourceAlpha" type="matrix" values="0 0 0 0 0 0 0 0 0 0 0 0 0 0 0 0 0 0 127 0" result="hardAlpha"/>
<feOffset dy="8"/>
<feGaussianBlur stdDeviation="20"/>
<feColorMatrix type="matrix" values="0 0 0 0 0.254902 0 0 0 0 0.32549 0 0 0 0 0.392157 0 0 0 0.16 0"/>
<feBlend mode="normal" in2="BackgroundImageFix" result="effect1_dropShadow_266_20183"/>
<feBlend mode="normal" in="SourceGraphic" in2="effect1_dropShadow_266_20183" result="shape"/>
</filter>
<filter id="filter3_d_266_20183" x="0" y="91.5786" width="154.517" height="154.517" filterUnits="userSpaceOnUse" color-interpolation-filters="sRGB">
<feFlood flood-opacity="0" result="BackgroundImageFix"/>
<feColorMatrix in="SourceAlpha" type="matrix" values="0 0 0 0 0 0 0 0 0 0 0 0 0 0 0 0 0 0 127 0" result="hardAlpha"/>
<feOffset dy="8"/>
<feGaussianBlur stdDeviation="20"/>
<feColorMatrix type="matrix" values="0 0 0 0 0.254902 0 0 0 0 0.32549 0 0 0 0 0.392157 0 0 0 0.16 0"/>
<feBlend mode="normal" in2="BackgroundImageFix" result="effect1_dropShadow_266_20183"/>
<feBlend mode="normal" in="SourceGraphic" in2="effect1_dropShadow_266_20183" result="shape"/>
</filter>
<filter id="filter4_d_266_20183" x="153.417" y="0.258789" width="153.786" height="154.517" filterUnits="userSpaceOnUse" color-interpolation-filters="sRGB">
<feFlood flood-opacity="0" result="BackgroundImageFix"/>
<feColorMatrix in="SourceAlpha" type="matrix" values="0 0 0 0 0 0 0 0 0 0 0 0 0 0 0 0 0 0 127 0" result="hardAlpha"/>
<feOffset dy="8"/>
<feGaussianBlur stdDeviation="20"/>
<feColorMatrix type="matrix" values="0 0 0 0 0.254902 0 0 0 0 0.32549 0 0 0 0 0.392157 0 0 0 0.16 0"/>
<feBlend mode="normal" in2="BackgroundImageFix" result="effect1_dropShadow_266_20183"/>
<feBlend mode="normal" in="SourceGraphic" in2="effect1_dropShadow_266_20183" result="shape"/>
</filter>
<filter id="filter5_d_266_20183" x="261.54" y="276.41" width="154.517" height="154.517" filterUnits="userSpaceOnUse" color-interpolation-filters="sRGB">
<feFlood flood-opacity="0" result="BackgroundImageFix"/>
<feColorMatrix in="SourceAlpha" type="matrix" values="0 0 0 0 0 0 0 0 0 0 0 0 0 0 0 0 0 0 127 0" result="hardAlpha"/>
<feOffset dy="8"/>
<feGaussianBlur stdDeviation="20"/>
<feColorMatrix type="matrix" values="0 0 0 0 0.254902 0 0 0 0 0.32549 0 0 0 0 0.392157 0 0 0 0.16 0"/>
<feBlend mode="normal" in2="BackgroundImageFix" result="effect1_dropShadow_266_20183"/>
<feBlend mode="normal" in="SourceGraphic" in2="effect1_dropShadow_266_20183" result="shape"/>
</filter>
<filter id="filter6_d_266_20183" x="300.26" y="93.7703" width="154.517" height="154.517" filterUnits="userSpaceOnUse" color-interpolation-filters="sRGB">
<feFlood flood-opacity="0" result="BackgroundImageFix"/>
<feColorMatrix in="SourceAlpha" type="matrix" values="0 0 0 0 0 0 0 0 0 0 0 0 0 0 0 0 0 0 127 0" result="hardAlpha"/>
<feOffset dy="8"/>
<feGaussianBlur stdDeviation="20"/>
<feColorMatrix type="matrix" values="0 0 0 0 0.254902 0 0 0 0 0.32549 0 0 0 0 0.392157 0 0 0 0.16 0"/>
<feBlend mode="normal" in2="BackgroundImageFix" result="effect1_dropShadow_266_20183"/>
<feBlend mode="normal" in="SourceGraphic" in2="effect1_dropShadow_266_20183" result="shape"/>
</filter>
<clipPath id="clip0_266_20183">
<rect width="49.678" height="49.678" fill="white" transform="translate(82.3724 312.793)"/>
</clipPath>
<clipPath id="clip1_266_20183">
<rect width="49.678" height="49.678" fill="white" transform="translate(52.4195 135.998)"/>
</clipPath>
<clipPath id="clip2_266_20183">
<rect width="49.1909" height="49.678" fill="white" transform="translate(205.715 44.6782)"/>
</clipPath>
<clipPath id="clip3_266_20183">
<rect width="49.678" height="49.678" fill="white" transform="translate(313.96 320.829)"/>
</clipPath>
<clipPath id="clip4_266_20183">
<rect width="49.678" height="49.678" fill="white" transform="translate(352.679 138.19)"/>
</clipPath>
</defs>
</svg>
