<svg width="125" height="85" viewBox="0 0 125 85" fill="none" xmlns="http://www.w3.org/2000/svg">
<g opacity="0.3">
<path d="M19.3001 51.3401C18.0001 51.0401 16.6001 50.8401 15.3001 50.8401C11.5001 50.8401 9.2001 52.9401 9.2001 55.9401C9.2001 58.6401 11.1001 60.0401 13.4001 60.7401C13.7001 60.8401 14.0001 60.9401 14.3001 61.0401C15.3001 61.3401 16.1001 61.8401 16.1001 62.6401C16.1001 63.5401 15.2001 64.1401 13.1001 64.1401C11.8001 64.1401 10.5001 63.9401 9.2001 63.5401V67.3401C10.7001 67.6401 12.2001 67.7401 13.7001 67.7401C16.9001 67.7401 20.5001 66.3401 20.5001 62.2401C20.5001 60.2401 19.3001 58.4401 16.6001 57.5401L15.5001 57.1401C14.8001 56.9401 13.6001 56.5401 13.6001 55.5401C13.6001 54.7401 14.5001 54.2401 16.2001 54.2401C17.3001 54.2401 18.4001 54.4401 19.4001 54.7401L19.3001 51.3401ZM54.2001 59.2401C54.2001 61.6401 52.3001 63.5401 49.9001 63.4401C47.5001 63.4401 45.6001 61.5401 45.7001 59.1401C45.7001 56.8401 47.6001 54.9401 50.0001 54.9401C52.3001 54.9401 54.2001 56.8401 54.3001 59.1401C54.2001 59.1401 54.2001 59.2401 54.2001 59.2401ZM50.0001 50.7401C45.3001 50.8401 41.6001 54.7401 41.7001 59.3401C41.8001 64.0401 45.7001 67.7401 50.3001 67.6401C54.9001 67.5401 58.6001 63.7401 58.6001 59.1401C58.6001 54.5401 54.9001 50.7401 50.3001 50.6401C50.2001 50.7401 50.1001 50.7401 50.0001 50.7401ZM3.7001 67.4401H-0.399902V51.0401H3.7001" fill="white"/>
<path d="M37 51.3401C35.8 50.9401 34.5 50.7401 33.2 50.7401C28.6 50.5401 24.7 54.1401 24.5 58.7401C24.5 58.9401 24.5 59.0401 24.5 59.2401C24.5 64.5401 28.6 67.7401 33.2 67.7401C34.5 67.7401 35.7 67.5401 37 67.1401V62.7401C35.9 63.3401 34.7 63.6401 33.5 63.6401C31.1 63.7401 29.1 61.8401 29 59.4401C28.9 57.0401 30.8 55.0401 33.2 54.9401C33.3 54.9401 33.4 54.9401 33.5 54.9401C34.7 54.9401 35.9 55.2401 37 55.8401" fill="white"/>
<path d="M-4.6001 20.1141C-4.6001 19.0141 -3.7001 18.0141 -2.5001 18.0141C-1.3001 18.0141 -0.400101 18.9141 -0.400101 20.1141V41.9141C-0.400101 43.0141 -1.3001 43.9141 -2.5001 43.9141C-3.7001 43.9141 -4.6001 43.0141 -4.6001 41.9141V20.1141ZM6.6999 27.8141C6.6999 26.7141 7.5999 25.8141 8.7999 25.8141C9.9999 25.8141 10.8999 26.7141 10.8999 27.8141V37.7141C10.8999 38.8141 9.9999 39.7141 8.7999 39.7141C7.5999 39.7141 6.6999 38.8141 6.6999 37.7141V27.8141ZM17.9999 33.5141C17.9999 32.4141 18.8999 31.5141 20.0999 31.5141C21.1999 31.5141 22.0999 32.4141 22.0999 33.5141V37.8141C22.0999 38.9141 21.1999 39.8141 19.9999 39.8141C18.8999 39.8141 17.9999 38.9141 17.9999 37.8141" fill="white"/>
<path d="M40.4581 20.1311C40.4581 19.0311 41.3581 18.0311 42.4581 18.0311C43.5581 18.0311 44.5581 18.9311 44.5581 20.1311V41.8311C44.5581 42.9311 43.6581 43.9311 42.4581 43.9311C41.3581 43.9311 40.4581 43.0311 40.4581 41.8311V20.1311ZM51.7581 27.8311C51.7581 26.7311 52.6581 25.8311 53.7581 25.8311C54.8581 25.8311 55.7581 26.7311 55.7581 27.8311V37.7311C55.7581 38.8311 54.8581 39.8311 53.7581 39.8311C52.6581 39.8311 51.7581 38.9311 51.7581 37.7311V27.8311ZM62.9581 33.5311C62.9581 32.4311 63.8581 31.5311 65.0581 31.5311C66.1581 31.5311 67.0581 32.4311 67.0581 33.5311V37.8311C67.0581 38.9311 66.1581 39.8311 64.9581 39.8311C63.8581 39.8311 62.9581 38.9311 62.9581 37.8311" fill="white"/>
<path d="M44.5581 20.1311C44.5581 19.0311 43.6581 18.1311 42.5581 18.1311C41.4581 18.1311 40.4581 19.0311 40.4581 20.1311V41.8311C40.4581 42.9311 41.3581 43.9311 42.5581 43.9311C43.7581 43.9311 44.5581 43.0311 44.5581 41.8311V20.1311ZM33.2581 27.8311C33.2581 26.7311 32.3581 25.7311 31.2581 25.7311C30.1581 25.8311 29.1581 26.7311 29.1581 27.8311V37.7311C29.1581 38.8311 30.0581 39.7311 31.2581 39.7311C32.3581 39.7311 33.2581 38.8311 33.2581 37.7311V27.8311ZM22.0581 33.5311C22.0581 32.4311 21.1581 31.5311 19.9581 31.5311C18.8581 31.5311 17.9581 32.4311 17.9581 33.5311V37.8311C17.9581 38.9311 18.8581 39.8311 20.0581 39.8311C21.1581 39.8311 22.0581 38.9311 22.0581 37.8311" fill="white"/>
</g>
</svg>
