<svg data-name="Group 24184" xmlns="http://www.w3.org/2000/svg" width="221.427" height="19.656" viewBox="0 0 221.427 19.656">
    <defs>
        <clipPath id="lrftouuv6a">
            <path data-name="Rectangle 3998" style="fill:#fff" d="M0 0h221.427v19.656H0z"/>
        </clipPath>
    </defs>
    <path data-name="Rectangle 3996" transform="translate(34.368 .041)" style="fill:#fff" d="M0 0h4.941v19.507H0z"/>
    <path data-name="Rectangle 3997" transform="translate(81.78 .041)" style="fill:#fff" d="M0 0h4.934v19.507H0z"/>
    <path data-name="Path 25686" d="m268.842 0-9.866 11.577L249.061 0h-3.977v19.511h3.977V6.415l9.151 10.74h.951l9.057-11.062v13.418h4.6V0z" transform="translate(-147.521)" style="fill:#fff"/>
    <path data-name="Path 25687" d="m346.667 3.547 4.739 8.125h-9.288zM344.567 0 332.54 19.511h4.931l2.538-4.288h13.416l2.532 4.288h5.564L349.306 0z" transform="translate(-200.199)" style="fill:#fff"/>
    <g data-name="Group 24094">
        <g data-name="Group 24093" style="clip-path:url(#lrftouuv6a)">
            <path data-name="Path 25688" d="M436.939 3.363c1.437 0 2.17.286 2.17 1.574V7.2c0 1.29-.734 1.572-2.17 1.572H426.1V3.363zM421.38 19.516h4.72v-7.384h4.473l8.171 7.385h6.825l-9.278-7.385h2.679c3.143 0 4.568-1.059 4.568-3.736V3.782c0-2.721-1.424-3.782-4.568-3.782h-17.59z" transform="translate(-252.757)" style="fill:#fff"/>
            <path data-name="Path 25689" d="M4.806 16.125V3.759H13.2c4.522 0 6.779 1.89 6.779 5.943 0 5.082-3 6.424-9.04 6.424zM0 19.768h11.95c8.582 0 12.923-3.232 12.923-9.831 0-6.045-4.011-9.693-11.717-9.693H0z" transform="translate(0 -.147)" style="fill:#fff"/>
            <path data-name="Path 25690" d="M137.141 16.337h-8.4c-4.525 0-6.794-1.893-6.794-5.948 0-5.079 3.006-6.412 9.057-6.412h10.514V.33h-11.539c-8.577 0-12.908 3.231-12.908 9.83 0 6.047 4.014 9.694 11.71 9.694h12.738v-10.9h-9.577v3.869h5.3z" transform="translate(-70.223 -.198)" style="fill:#fff"/>
            <path data-name="Path 25691" d="M519.552 16.024h-10.874c-4.514 0-6.777-1.9-6.777-5.95 0-5.075 3.006-6.416 9.049-6.416h8.6V.016h-9.615c-8.589 0-12.921 3.231-12.921 9.826 0 6.043 4.009 9.693 11.715 9.693h10.821z" transform="translate(-298.125 -.01)" style="fill:#fff"/>
        </g>
    </g>
</svg>
