<svg width="210" height="160" viewBox="0 0 210 160" fill="none" xmlns="http://www.w3.org/2000/svg">
<path d="M98.3553 116.16H89.5299L89.5443 132.673C89.5443 137.499 87.4753 141.403 82.6498 141.403C77.8219 141.403 75.7337 137.499 75.7337 132.673V116.176H66.9311L66.9287 132.673C66.9287 142.209 73.0587 149.938 82.5958 149.938C92.1304 149.938 98.3529 142.209 98.3529 132.673L98.3553 116.16Z" fill="white"/>
<path d="M186.718 106.097H177.936V149.086H186.718V106.097Z" fill="white"/>
<path d="M193.202 107.683V106.139H200.046V107.683H197.543V114.49H195.707V107.683H193.202Z" fill="white"/>
<path d="M203.59 106.139L205.543 111.881H205.566L207.413 106.139H210V114.49H208.28V108.572H208.256L206.21 114.49H204.794L202.748 108.63H202.724V114.49H201.006V106.139H203.59Z" fill="white"/>
<path d="M59.7522 115.801C52.182 114.054 47.4069 121.575 47.2077 121.978C47.1105 122.176 47.1069 122.291 46.772 122.283C46.4948 122.277 46.4636 121.978 46.4636 121.978L45.524 116.225H37.6562V149.058H46.4756V131.286C46.4756 129.834 50.3855 122.871 57.9628 124.662C61.7947 125.57 63.4208 127.196 63.4208 127.196V117.193C62.2688 116.56 61.034 116.092 59.7522 115.801Z" fill="white"/>
<path d="M118.87 124.12C120.611 124.12 122.312 124.635 123.76 125.602C125.207 126.569 126.335 127.943 127.002 129.551C127.668 131.159 127.842 132.929 127.503 134.636C127.163 136.343 126.325 137.911 125.094 139.142C123.864 140.373 122.296 141.211 120.588 141.55C118.881 141.89 117.112 141.715 115.504 141.049C113.896 140.383 112.522 139.255 111.555 137.807C110.588 136.36 110.072 134.658 110.073 132.918C110.073 130.585 111 128.347 112.65 126.698C114.3 125.048 116.537 124.121 118.87 124.12ZM110.322 159.872V148.058L110.325 148.06L110.327 143.636C110.327 143.636 110.34 143.282 110.659 143.278C110.944 143.275 111.007 143.463 111.077 143.636C111.745 145.3 115.423 151.638 123.583 149.651C126.696 148.772 129.503 147.043 131.687 144.657C133.871 142.27 135.346 139.322 135.946 136.143C136.546 132.965 136.247 129.682 135.083 126.664C133.919 123.645 131.935 121.012 129.356 119.06C126.777 117.107 123.704 115.913 120.484 115.611C117.263 115.31 114.022 115.913 111.125 117.353C108.229 118.793 105.791 121.013 104.087 123.763C102.383 126.512 101.48 129.683 101.48 132.918V159.872L110.322 159.872Z" fill="white"/>
<path d="M165.78 132.918C165.78 134.659 165.264 136.36 164.298 137.807C163.331 139.255 161.957 140.383 160.349 141.049C158.741 141.715 156.971 141.89 155.264 141.551C153.557 141.211 151.989 140.373 150.758 139.143C149.528 137.912 148.689 136.344 148.35 134.637C148.01 132.93 148.184 131.16 148.85 129.552C149.516 127.944 150.644 126.57 152.092 125.603C153.539 124.636 155.24 124.12 156.981 124.12C159.314 124.121 161.552 125.048 163.202 126.698C164.852 128.347 165.779 130.585 165.78 132.918ZM165.529 149.072H174.371V132.918C174.371 129.683 173.468 126.513 171.764 123.763C170.06 121.014 167.623 118.794 164.727 117.354C161.83 115.914 158.589 115.311 155.369 115.612C152.148 115.913 149.075 117.107 146.496 119.059C143.917 121.012 141.934 123.645 140.77 126.663C139.605 129.681 139.306 132.964 139.906 136.142C140.506 139.321 141.981 142.269 144.165 144.656C146.348 147.042 149.155 148.771 152.268 149.65C160.429 151.638 164.106 145.299 164.774 143.636C164.844 143.463 164.906 143.275 165.192 143.277C165.511 143.282 165.524 143.636 165.524 143.636" fill="white"/>
<path d="M12.4256 113.521H8.8806V141.556L12.5217 141.649C19.9898 141.649 24.7997 140.97 24.7997 127.541C24.7997 114.664 20.5538 113.521 12.4256 113.521ZM10.0315 149.003H0V106.08H10.7635C23.7964 106.08 33.6815 108.472 33.6815 127.541C33.6815 146.428 23.2108 149.003 10.0315 149.003Z" fill="white"/>
<path d="M113.302 20.2165C106.623 13.5409 100.251 7.17713 98.3542 0C96.4576 7.17713 90.0844 13.5409 83.4067 20.2165C73.3901 30.2268 62.0334 41.5718 62.0334 58.5875C62.0317 63.3585 62.9699 68.0831 64.7944 72.4914C66.619 76.8997 69.2941 80.9054 72.6671 84.2796C76.04 87.6538 80.0447 90.3305 84.4524 92.1567C88.86 93.9828 93.5842 94.9228 98.3552 94.9228C103.126 94.9228 107.85 93.9828 112.258 92.1567C116.666 90.3305 120.67 87.6538 124.043 84.2796C127.416 80.9054 130.091 76.8997 131.916 72.4914C133.741 68.0831 134.679 63.3585 134.677 58.5875C134.677 41.5729 123.321 30.2267 113.302 20.2165ZM77.4713 67.0511C75.2442 66.9755 67.0249 52.8083 82.2731 37.7238L92.3634 48.7458C92.45 48.8314 92.5175 48.9343 92.5615 49.0478C92.6055 49.1613 92.6249 49.2829 92.6186 49.4045C92.6122 49.5261 92.5802 49.6449 92.5246 49.7532C92.469 49.8615 92.3911 49.9569 92.296 50.0329C89.8882 52.5024 79.6256 62.7938 78.35 66.3523C78.0867 67.0868 77.7022 67.059 77.4713 67.0511ZM98.3553 85.723C96.7148 85.723 95.0904 85.3999 93.5748 84.7721C92.0592 84.1443 90.682 83.2242 89.5221 82.0642C88.3621 80.9042 87.4419 79.5271 86.8141 78.0115C86.1864 76.4959 85.8632 74.8715 85.8633 73.231C85.9094 70.2021 87.0105 67.284 88.9769 64.9797C91.2293 62.2254 98.3536 54.4786 98.3536 54.4786C98.3536 54.4786 105.369 62.3391 107.713 64.9534C109.756 67.2239 110.874 70.1771 110.847 73.231C110.847 76.5441 109.531 79.7215 107.188 82.0641C104.846 84.4069 101.668 85.723 98.3553 85.723ZM122.265 65.4654C121.996 66.0542 121.385 67.0372 120.561 67.0673C119.091 67.1208 118.934 66.3679 117.848 64.7605C115.464 61.232 94.6553 39.4848 90.7633 35.279C87.3399 31.5797 90.2812 28.9717 91.6456 27.605C93.3574 25.8902 98.354 20.8967 98.354 20.8967C98.354 20.8967 113.253 35.0324 119.459 44.691C125.665 54.3496 123.526 62.7074 122.265 65.4654Z" fill="white"/>
</svg>
