<svg width="116" height="45" viewBox="0 0 116 45" fill="none" xmlns="http://www.w3.org/2000/svg">
<g clip-path="url(#clip0_197_141)">
<path d="M23.2 14.85C22.09 13.88 21.57 12.74 21.57 11.11C21.57 8.43998 23.29 5.84998 25.94 4.10998C25.94 4.10998 35.26 -1.45002 37.49 4.10998C37.67 4.52998 37.77 4.98998 37.77 5.49998C37.77 9.11998 32.96 12.14 23.21 14.85M39.61 8.41998C41.53 6.47998 40.43 3.02998 40.43 3.02998H40.42C39.96 1.73998 38.47 -0.250019 33.61 0.0199808C33.61 0.0199808 27.2 0.289981 21.84 4.09998C18.54 6.11998 16.9 8.15998 16.9 11.1C16.9 13.09 17.61 14.6 19.05 15.75C14.69 16.83 10.6 17.38 6.83003 17.38C4.50003 17.38 2.48003 17.16 0.76003 16.77C-0.17997 16.53 -0.30997 18.06 0.76003 18.25C2.34003 18.47 4.08003 18.59 5.98003 18.59C10.4 18.59 15.08 17.93 20.02 16.72C22.16 17.99 24.63 18.77 27.63 19.01C12.55 21.18 4.29003 27.7 4.29003 34.46C4.29003 36.43 5.01003 38.18 6.33003 39.63C7.23003 41.17 11.26 43.21 11.26 43.21C21.19 46.93 31.7 40.17 31.7 40.17C32.08 39.94 32.46 39.72 32.83 39.48C36.02 37.37 37.58 35.19 37.58 32.84C37.58 30 34.72 27.65 30.43 27.65C26.14 27.65 21.26 29.7 15.61 33.8C15.61 33.8 15.34 34.01 15.58 34.37C15.58 34.37 15.77 34.69 16.19 34.65C20.94 31.45 24.77 29.76 27.89 29.76C31.27 29.76 33.48 31.45 33.48 34.05C33.48 36.35 31.84 38.79 28.89 40.17C19.19 44.72 12.21 40.17 12.21 40.17C10.44 38.86 9.49003 36.99 9.49003 34.71C9.49003 28.13 17.36 21.37 31.34 19.56L31.66 19.38V18.77L31.4 18.47C28.73 17.98 26.2 17.32 24.12 15.75C31.63 13.57 38.22 10.57 39.61 8.40998" fill="white"/>
<path d="M39.23 23.4101C40.11 23.4101 40.69 23.0401 40.69 22.4601C40.69 21.8801 39.93 21.3801 38.11 20.7301C36.35 20.1001 35.49 19.2601 35.49 18.1601C35.49 17.0601 36.3 15.9401 37.53 15.2901C38.37 14.8601 39.41 14.6401 40.8 14.6401C41.71 14.6401 42.24 14.7101 43.49 14.9201L43.58 17.5301C42.16 16.6901 41.56 16.4901 40.63 16.4901C39.7 16.4901 39.21 16.7701 39.21 17.2701C39.21 17.6801 39.65 18.0901 40.44 18.3901L41.79 18.9101C43.55 19.5801 44.37 20.5101 44.37 21.8301C44.37 23.9501 42.49 25.2001 39.33 25.2001C37.85 25.2001 37.08 25.0901 35.22 24.6001V21.5101C36.36 22.8101 37.61 23.4101 39.21 23.4101" fill="white"/>
<path d="M48.89 22.7799C48.89 23.2599 49.05 23.4299 49.42 23.4299C50.74 23.4299 51.58 21.8999 51.58 19.4999C51.58 17.8799 51 16.8199 50.07 16.8199C49.53 16.8199 49.14 17.0399 48.91 17.4499L48.89 22.7799ZM48.52 14.7699L48.78 15.5299C49.89 14.8399 50.43 14.6699 51.47 14.6699C53.91 14.6699 55.48 16.4199 55.48 19.1599C55.48 22.5699 53.23 25.1899 50.3 25.1899C49.86 25.1899 49.56 25.1499 48.88 24.9799V29.2499C48.88 30.1599 49 30.5899 49.41 31.6499H44.95C44.95 30.8899 44.97 30.3299 44.97 29.9499C45.02 28.6299 45.02 25.0699 45.02 24.7699V17.7099C45.02 16.4399 44.93 16.0299 44.42 14.7899H48.51L48.52 14.7699Z" fill="white"/>
<path d="M61.5101 18.9001C62.1101 18.7101 62.3001 18.4501 62.3001 17.7801C62.3001 16.8501 61.9501 16.3301 61.3201 16.3301C60.2301 16.3301 59.8801 17.0601 59.8601 19.4401L61.5101 18.9001ZM60.1801 21.2301C60.7601 22.7001 61.4101 23.2201 62.6601 23.2201C63.8401 23.2201 64.6801 22.7701 66.0301 21.4301L66.0501 23.6301C64.3301 24.7701 63.1701 25.1601 61.5701 25.1601C58.2501 25.1601 55.9301 23.0701 55.9301 20.0401C55.9301 17.0101 58.3001 14.6201 61.4801 14.6201C63.1501 14.6201 64.5501 15.2701 65.4501 16.4501C66.0801 17.3101 66.2401 17.8801 66.2601 19.2601L60.1801 21.2201V21.2301Z" fill="white"/>
<path d="M70.1101 14.8401C70.2701 15.5101 70.2901 15.7001 70.3401 16.4101C71.3401 15.1201 72.2701 14.6001 73.5201 14.6001C73.7101 14.6001 73.8401 14.6201 74.1001 14.6901L74.1201 17.1501C73.6301 17.0901 73.4201 17.0701 73.1701 17.0701C71.6801 17.0701 70.7301 18.2601 70.7301 20.1101V22.5901C70.7301 23.5601 70.8201 23.9701 71.3301 24.9201H66.7101C66.7301 24.3401 66.7601 23.8801 66.7601 23.5801C66.8101 22.9301 66.8301 22.4801 66.8301 22.2201V19.5901C66.8301 16.7801 66.7601 16.3701 66.0601 14.8401H70.1001H70.1101Z" fill="white"/>
<path d="M79.76 19.7402C78.39 19.8902 77.65 20.6702 77.65 21.9602C77.65 22.7602 78.09 23.2802 78.79 23.2802C79.11 23.2802 79.35 23.1902 79.76 22.8702V19.7402ZM74.84 14.7102C76.09 14.5402 76.65 14.4902 77.47 14.4902C80.3 14.4902 82.3 15.2002 83.06 16.5002C83.43 17.1002 83.59 17.8202 83.59 18.8302V21.6802C83.59 23.0602 83.75 24.0102 84.13 24.9402H80.16L79.95 24.2702C79.02 24.9002 78.37 25.0902 77.4 25.0902C75.26 25.0902 73.83 23.9002 73.83 22.0902C73.83 21.2002 74.23 20.4502 75.04 19.8002C76.22 18.8502 77.15 18.4802 79.61 17.9902C79.61 16.8702 78.94 16.2602 77.73 16.2602C76.96 16.2602 76.41 16.4302 74.87 17.1002L74.85 14.7002L74.84 14.7102Z" fill="white"/>
<path d="M88.23 14.8199L88.44 15.7299C89.51 14.9099 90.3 14.6099 91.34 14.6099C92.52 14.6099 93.61 15.1499 94.1 16.0599C94.38 16.5399 94.47 17.0299 94.47 18.2399V21.8899C94.47 23.2499 94.59 23.6999 95.19 24.9299H90.69V18.3199C90.69 17.3499 90.39 16.8999 89.76 16.8999C89.18 16.8999 88.67 17.2699 88.67 17.6999V23.0099C88.67 23.6999 88.79 24.0899 89.23 24.9299H84.82V17.6099C84.82 16.2699 84.7 15.8399 84.15 14.8199H88.24H88.23Z" fill="white"/>
<path d="M95.66 23.1901L100.28 16.7101L97.4 16.7301C96.98 16.7301 96.68 16.7501 96.01 16.8601V14.8301H105.06V16.5301L100.46 23.0301H103.27C103.99 23.0301 104.34 22.9401 105.2 22.5301V24.8801H95.66V23.1701V23.1901Z" fill="white"/>
<path d="M111.5 19.7402C110.13 19.8902 109.39 20.6702 109.39 21.9602C109.39 22.7602 109.83 23.2802 110.53 23.2802C110.85 23.2802 111.09 23.1902 111.51 22.8702V19.7402H111.5ZM106.58 14.7102C107.83 14.5402 108.39 14.4902 109.2 14.4902C112.03 14.4902 114.03 15.2002 114.8 16.5002C115.17 17.1002 115.33 17.8202 115.33 18.8302V21.6802C115.33 23.0602 115.49 24.0102 115.87 24.9402H111.9L111.69 24.2702C110.76 24.9002 110.11 25.0902 109.14 25.0902C107.01 25.0902 105.56 23.9002 105.56 22.0902C105.56 21.2002 105.95 20.4502 106.77 19.8002C107.95 18.8502 108.88 18.4802 111.34 17.9902C111.34 16.8702 110.67 16.2602 109.46 16.2602C108.69 16.2602 108.14 16.4302 106.6 17.1002L106.58 14.7002V14.7102Z" fill="white"/>
<path d="M59.6699 27.3398H58.2399C58.3499 27.6898 58.3999 28.0598 58.3999 28.5298V28.9698H56.2099V28.5298C56.2099 28.0598 56.2399 27.6398 56.2499 27.3398H54.8199C54.9199 27.6898 54.9799 28.0598 54.9799 28.5298V30.4598C54.9799 30.9398 54.9699 31.2098 54.9399 31.5498H56.2499C56.2399 31.2398 56.2099 30.7898 56.2099 30.4598V29.6198H58.3999V30.4598C58.3999 30.9398 58.3799 31.2098 58.3599 31.5498H59.6699C59.6499 31.2398 59.6299 30.7898 59.6299 30.4598V28.5298C59.6299 28.0598 59.6499 27.6398 59.6699 27.3398Z" fill="white"/>
<path d="M71.53 27.2402C69.88 27.2402 68.83 28.1202 68.83 29.3702C68.83 30.6202 69.94 31.6502 71.53 31.6502C73.12 31.6502 74.2 30.6202 74.2 29.3702C74.2 28.1202 73.16 27.2402 71.53 27.2402ZM71.53 30.9102C70.67 30.9102 70.06 30.2302 70.06 29.3702C70.06 28.5602 70.57 27.9802 71.53 27.9802C72.43 27.9802 72.97 28.5402 72.97 29.3702C72.97 30.2002 72.4 30.9102 71.53 30.9102Z" fill="white"/>
<path d="M89.93 27.3398H88.13C87.72 28.1898 86.87 30.1198 86.6 30.7998H86.58C86.45 30.2798 85.37 27.9298 85.12 27.3398H83.29C83.31 27.6698 83.36 28.0898 83.36 28.2998C83.36 28.4498 83.34 28.6098 83.34 28.7798L83.28 30.3098C83.26 30.8198 83.21 31.2598 83.17 31.5498H84.31C84.27 31.1898 84.24 30.7198 84.25 30.3098L84.32 28.2298H84.34C84.82 29.2698 85.64 30.8798 85.87 31.6498L87.25 31.5498C87.52 30.7898 88.29 29.1198 88.75 28.2298H88.76L88.83 30.3098C88.83 30.5398 88.85 31.1398 88.8 31.5498H90.11C90.05 31.1298 89.99 30.6998 89.98 30.3098L89.92 28.6898V27.3398H89.93Z" fill="white"/>
<path d="M102.77 27.3398H99.4301C99.5401 27.6898 99.59 28.0598 99.59 28.5298V30.4598C99.59 30.9398 99.5701 31.2098 99.5501 31.5498H102.86L102.93 30.8098C102.55 30.8498 101.97 30.8998 101.24 30.8998H100.81V29.6698H101.24C101.92 29.6698 102.26 29.6698 102.72 29.6998L102.76 28.9898C102.24 29.0198 101.75 29.0198 101.24 29.0198H100.81V27.9998H101.24C101.84 27.9998 102.4 28.0098 102.82 28.0298L102.76 27.3498L102.77 27.3398Z" fill="white"/>
<path d="M113.89 27.2402C112.62 27.2402 111.82 27.7002 111.82 28.4102C111.82 29.0302 112.45 29.3902 113.09 29.6702C113.75 29.9602 114.42 30.1702 114.42 30.5202C114.42 30.7902 114.01 30.9202 113.5 30.9202C112.94 30.9202 112.4 30.8002 111.94 30.6802V31.4402C112.14 31.4902 112.83 31.6502 113.59 31.6502C114.84 31.6502 115.65 31.1302 115.65 30.4102C115.65 29.6002 114.69 29.2402 113.93 28.9502C113.44 28.7502 113.06 28.5802 113.06 28.3202C113.06 28.0902 113.49 27.9802 113.98 27.9802C114.47 27.9802 114.88 28.0602 115.12 28.1102V27.3502C114.88 27.3102 114.5 27.2402 113.9 27.2402" fill="white"/>
</g>
<defs>
<clipPath id="clip0_197_141">
<rect width="115.86" height="44.33" fill="white"/>
</clipPath>
</defs>
</svg>
