<svg width="124" height="111" viewBox="0 0 124 111" fill="none" xmlns="http://www.w3.org/2000/svg">
<g id="uuid-496676aa-fc13-41f2-b1fa-2464ff1ec19e" clip-path="url(#clip0_1448_2718)">
<path id="Vector" d="M118.355 78.6856C115.926 76.9005 112.977 76.1836 109.972 75.9306C112.008 72.3463 109.509 66.0071 109.298 62.212C109.2 60.4269 107.768 58.5153 105.774 58.6839C92.3364 59.8646 75.0513 59.0072 61.5715 58.8526C61.4311 55.2683 61.1503 51.6981 60.2376 48.2403C60.0551 47.5235 59.6619 47.0175 59.1845 46.6661C60.5887 46.6661 61.9928 46.6661 63.3829 46.6661C79.9378 46.8488 100.803 47.7062 117.218 45.134C120.84 44.5577 121.149 40.7626 119.408 38.3871C119.493 33.4956 118.58 28.4074 118.566 23.5159C118.538 17.9076 118.776 12.3414 118.58 6.76117C119.507 4.94795 119.156 2.50221 117.485 1.40585C116.488 0.407875 114.929 0.239204 113.693 0.871722C97.7142 1.57452 77.8175 0.703051 61.8243 1.04039C45.8311 1.37774 24.6145 1.93998 8.60722 1.40585C7.52603 -0.505763 4.60541 -0.421427 3.3838 1.47613C1.61458 2.20704 1.34779 4.66683 2.49919 6.1146C1.22142 17.1907 -0.000188756 29.0539 3.27147 39.7365C1.05292 41.367 2.5694 45.3729 5.5181 45.7524C5.60235 45.7524 5.67255 45.7524 5.7568 45.7805C6.76779 47.1159 8.3966 47.0175 9.57608 46.1601C22.9576 47.411 42.068 46.8066 55.632 46.6801C54.9159 47.1721 54.3964 47.9733 54.3823 49.0415C54.3542 52.0636 54.1998 55.3948 54.1857 58.7683C44.2865 57.0675 28.9954 57.2924 18.9136 57.2362C8.27022 57.1799 11.8648 68.5934 13.3251 76.0993C13.3532 76.2398 13.4094 76.3663 13.4375 76.4928C10.5028 77.041 7.61027 77.9547 4.7037 79.2056C4.21224 79.4165 3.86121 79.6976 3.60846 80.0349C2.26048 80.1474 1.05292 81.1032 1.0108 82.9586C0.898464 87.8641 0.744008 92.5588 0.168309 97.4362C-0.252935 100.95 -0.0984788 104.071 2.34473 106.826C4.60541 109.356 8.78976 109.749 11.907 110.143C17.0883 110.803 23.8703 111.211 28.8409 109.51C29.3043 109.356 29.6975 109.103 30.0345 108.793C32.0143 109.398 34.3873 108.709 35.1034 106.151C37.0692 99.1792 38.1083 87.9906 34.8507 81.2578C33.1938 77.8282 27.6474 76.8302 24.4038 76.3242C23.1682 76.1274 21.9466 76.029 20.739 75.9868C20.9216 75.4105 20.9777 74.764 20.8373 74.0471C20.2757 71.0251 19.728 68.0171 19.5034 64.9669C21.2586 64.9669 23.0278 64.9388 24.783 64.9248C33.3904 64.9107 44.778 65.2059 53.3713 65.2762C53.6803 65.4308 54.0313 65.5151 54.4245 65.5714C54.7193 68.9729 55.3372 72.262 56.5447 75.1575C56.98 76.2258 57.7382 76.8583 58.5667 77.1394C55.7444 77.4065 53.0344 77.8563 50.7175 78.2217C48.9764 78.4888 48.1058 79.6133 47.9233 80.9064C46.6876 81.1173 45.5362 81.9184 45.1852 83.2959C43.43 90.0147 39.9618 106.994 49.4678 109.637C57.9348 111.998 80.4011 112.996 79.5165 99.0948C79.4884 98.6732 79.4042 98.2796 79.2638 97.9141C80.1624 92.3058 79.6289 82.7477 76.1606 79.0651C73.3664 76.0993 66.795 76.6896 60.9958 76.9567C62.077 76.3944 62.8353 75.1997 62.5404 73.4989C62.077 70.9407 61.8945 68.3544 61.7962 65.7541C74.0263 65.993 89.9493 66.2179 102.193 65.8665C102.123 69.3383 102.222 73.2459 103.808 75.9306C99.6239 76.1274 94.4707 76.5491 90.7356 78.8402C89.2753 78.798 87.7869 79.5711 87.5061 81.1594C86.3407 87.7517 84.5855 112.715 96.9139 109.974C97.293 109.89 97.6159 109.749 97.9108 109.567C104.173 109.524 110.45 108.133 116.768 109.623C118.931 110.129 121.655 108.976 122.104 106.587C123.733 97.9985 126.78 84.8983 118.369 78.7277L118.355 78.6856ZM27.2683 84.828C28.8269 85.3622 28.1108 85.0389 28.2652 85.7276C29.3183 90.6894 28.8971 97.4222 27.6755 102.581C21.2445 101.625 13.5638 104.408 7.63836 101.231C6.80991 100.782 8.11577 94.5407 8.21406 93.7255C8.56509 90.6613 8.56509 87.5971 7.83494 84.6594C12.4405 83.577 17.2427 83.2116 21.9606 83.577C23.772 83.7176 25.5693 84.2377 27.2823 84.828H27.2683ZM70.516 85.6995C71.7516 86.838 71.2321 91.5468 71.1478 92.9664C71.0214 95.2294 71.0636 97.3238 70.544 99.4603C69.2241 100.669 67.3566 101.527 64.773 101.751C60.7712 102.103 56.643 101.442 52.6552 100.964C52.4306 100.149 52.3744 99.2916 52.3182 98.4483C52.1778 96.5226 52.2621 94.5688 52.3182 92.6432C52.4025 90.3239 52.4306 88.075 52.1778 85.826C52.3884 85.826 52.5991 85.826 52.8097 85.7838C56.4745 85.1654 67.5532 83.0148 70.4879 85.6995H70.516ZM9.26717 38.3871C6.16401 28.4074 8.52297 17.8232 8.95825 7.44992C24.0388 8.25111 44.2725 8.09649 59.367 8.09649C75.0513 8.09649 95.6361 6.42383 111.32 8.49006C110.267 17.514 109.074 28.3371 111.264 37.0799C95.9871 39.2726 76.4274 38.6401 61.0941 38.4996C46.1119 38.359 24.3758 36.3349 9.26717 38.4152V38.3871ZM96.4505 100.796C94.3864 96.2696 94.5268 90.2958 94.1898 85.1091C100.382 84.814 106.35 82.5931 112.71 84.5469C117.274 85.9525 115.87 94.6813 114.62 100.346C108.723 99.5025 102.292 99.7133 96.4505 100.796Z" fill="black"/>
</g>
<defs>
<clipPath id="clip0_1448_2718">
<rect width="124" height="111" fill="white"/>
</clipPath>
</defs>
</svg>
