<svg width="20" height="19" viewBox="0 0 20 19" fill="none" xmlns="http://www.w3.org/2000/svg">
<path d="M18.7029 9.297C18.7029 10.9806 18.2037 12.6264 17.2683 14.0262C16.333 15.426 15.0035 16.5171 13.4481 17.1614C11.8927 17.8056 10.1811 17.9742 8.52988 17.6458C6.87865 17.3173 5.3619 16.5066 4.17143 15.3161C2.98096 14.1257 2.17024 12.6089 1.84179 10.9577C1.51334 9.30644 1.68191 7.5949 2.32619 6.03947C2.97047 4.48405 4.06151 3.1546 5.46136 2.21925C6.86121 1.28391 8.50698 0.784668 10.1906 0.784668C12.4482 0.784668 14.6133 1.6815 16.2097 3.27787C17.8061 4.87424 18.7029 7.03939 18.7029 9.297Z" stroke="white" stroke-width="1.51311" stroke-linecap="round" stroke-linejoin="round"/>
<path d="M10.1903 12.702L13.5952 9.29702L10.1903 5.89209" stroke="#F68428" stroke-width="1.51311" stroke-linecap="round" stroke-linejoin="round"/>
<path d="M6.78564 9.29688H13.5955" stroke="#F68428" stroke-width="1.51311" stroke-linecap="round" stroke-linejoin="round"/>
</svg>
