<svg width="40" height="40" viewBox="0 0 40 40" fill="none" xmlns="http://www.w3.org/2000/svg">
<rect x="1" y="1" width="38" height="38" rx="19" stroke="#00BFC8" stroke-width="2"/>
<path d="M28 28.0002V22.1313C28 19.2606 27.3821 17.0493 24.0296 17.0493C23.4 17.0259 22.7758 17.1739 22.2236 17.4777C21.6715 17.7815 21.2121 18.2295 20.8944 18.7741H20.8481V17.3174H17.6719V27.9993H20.9825V22.7103C20.9825 21.3173 21.2443 19.9706 22.9694 19.9706C24.6675 19.9706 24.6928 21.5601 24.6928 22.7994V28.0002H28Z" fill="white"/>
<path d="M12.2808 17.3174H15.5966V27.9975H12.2808V17.3174Z" fill="white"/>
<path d="M13.9371 12C13.555 11.9983 13.181 12.1102 12.8625 12.3217C12.544 12.5331 12.2955 12.8344 12.1485 13.1875C12.0014 13.5405 11.9625 13.9293 12.0366 14.3045C12.1108 14.6797 12.2946 15.0244 12.5648 15.2949C12.8351 15.5653 13.1795 15.7493 13.5544 15.8235C13.9292 15.8977 14.3177 15.8588 14.6704 15.7116C15.0232 15.5644 15.3243 15.3157 15.5355 14.997C15.7467 14.6782 15.8586 14.3039 15.8569 13.9214C15.8569 13.4118 15.6546 12.9231 15.2946 12.5628C14.9346 12.2024 14.4463 12 13.9371 12Z" fill="white"/>
</svg>
