<svg width="80" height="90" viewBox="0 0 80 90" fill="none" xmlns="http://www.w3.org/2000/svg">
<path d="M67.3171 84.4108H7.10367C6.26525 84.4108 5.57928 83.7236 5.57928 82.8838V55.1234H8.62806V81.3568H67.3171V84.4108Z" fill="white"/>
<path d="M72.8963 89.9995C68.9787 89.9995 65.7927 86.8081 65.7927 82.8838C65.7927 78.9595 68.9787 75.7681 72.8963 75.7681C76.814 75.7681 80 78.9595 80 82.8838C80 86.8081 76.814 89.9995 72.8963 89.9995ZM72.8963 78.822C70.6555 78.822 68.8415 80.6391 68.8415 82.8838C68.8415 85.1285 70.6707 86.9456 72.8963 86.9456C75.1219 86.9456 76.9512 85.1285 76.9512 82.8838C76.9512 80.6391 75.1372 78.822 72.8963 78.822Z" fill="white"/>
<path d="M7.10367 56.1922C3.18598 56.1922 0 53.0009 0 49.0765C0 45.1522 3.18598 41.9608 7.10367 41.9608C11.0214 41.9608 14.2073 45.1522 14.2073 49.0765C14.2073 53.0009 11.0214 56.1922 7.10367 56.1922ZM7.10367 45.0148C4.86281 45.0148 3.04878 46.8319 3.04878 49.0765C3.04878 51.3212 4.87806 53.1383 7.10367 53.1383C9.32928 53.1383 11.1585 51.3212 11.1585 49.0765C11.1585 46.8319 9.34452 45.0148 7.10367 45.0148Z" fill="white"/>
<path d="M16.7683 14.2309C12.8506 14.2309 9.66463 11.0396 9.66463 7.11522C9.66463 3.19089 12.8506 -0.000488281 16.7683 -0.000488281C20.686 -0.000488281 23.872 3.19089 23.872 7.11522C23.872 11.0396 20.686 14.2309 16.7683 14.2309ZM16.7683 3.05346C14.5274 3.05346 12.7134 4.87057 12.7134 7.11522C12.7134 9.35988 14.5427 11.177 16.7683 11.177C18.9939 11.177 20.8232 9.35988 20.8232 7.11522C20.8232 4.87057 19.0092 3.05346 16.7683 3.05346Z" fill="white"/>
<path d="M62.5915 75.2947H25.4116C23.2927 75.2947 21.5701 73.5692 21.5701 71.4467V41.4569C21.5701 39.3344 23.2927 37.6089 25.4116 37.6089H62.5915C64.7104 37.6089 66.4329 39.3344 66.4329 41.4569V71.4467C66.4329 73.5692 64.7104 75.2947 62.5915 75.2947ZM25.4116 40.6629C24.9695 40.6629 24.6189 41.0141 24.6189 41.4569V71.4467C24.6189 71.8896 24.9695 72.2408 25.4116 72.2408H62.5915C63.0336 72.2408 63.3842 71.8896 63.3842 71.4467V41.4569C63.3842 41.0141 63.0336 40.6629 62.5915 40.6629H25.4116Z" fill="white"/>
<path d="M75.0457 57.0932H49.375V54.0392H73.5213V8.6422H22.3476V5.58825H75.0457C75.8841 5.58825 76.5701 6.27538 76.5701 7.11522V55.5662C76.5701 56.406 75.8841 57.0932 75.0457 57.0932Z" fill="white"/>
<path d="M36.4787 39.1359H33.4299V33.6693H29.9085V39.1359H26.8598V32.1576C26.8598 31.3178 27.5457 30.6307 28.3841 30.6307H34.9543V30.6154C35.3506 30.6154 35.7469 30.7681 36.0366 31.0582C36.3262 31.3483 36.4787 31.7301 36.4787 32.1424V39.1359Z" fill="white"/>
<path d="M61.3414 39.1359H58.2927V32.0202C58.2927 24.1868 51.936 17.8193 44.1006 17.8193C39.878 17.8193 35.8993 19.6975 33.2164 22.9042L36.2195 24.9961C38.2317 22.782 41.0823 21.5146 44.1006 21.5146C49.9847 21.5146 54.7713 26.3093 54.7713 32.2034V39.1512H51.7225V32.2034C51.7225 27.989 48.3079 24.5686 44.1006 24.5686C41.5701 24.5686 39.2073 25.8207 37.7896 27.9279C37.5609 28.2638 37.2103 28.4929 36.7987 28.5692C36.4024 28.6456 35.9908 28.5692 35.6555 28.3249L30.1829 24.5075C29.4969 24.0341 29.3292 23.0874 29.7865 22.4003C33.003 17.6208 38.3536 14.7654 44.1006 14.7654C53.5975 14.7654 61.3414 22.5071 61.3414 32.0202V39.1359Z" fill="white"/>
<path d="M43.6433 62.6208C39.7256 62.6208 36.5396 59.4294 36.5396 55.5051C36.5396 51.5808 39.7256 48.3894 43.6433 48.3894C47.561 48.3894 50.7469 51.5808 50.7469 55.5051C50.7469 59.4294 47.561 62.6208 43.6433 62.6208ZM43.6433 51.4281C41.4025 51.4281 39.5884 53.2452 39.5884 55.4898C39.5884 57.7345 41.4177 59.5516 43.6433 59.5516C45.8689 59.5516 47.6982 57.7345 47.6982 55.4898C47.6982 53.2452 45.8842 51.4281 43.6433 51.4281Z" fill="white"/>
<path d="M19.9695 32.86C19.3597 32.86 18.7653 32.4783 18.5366 31.8675C18.247 31.0735 18.6433 30.2031 19.4207 29.8977L24.1921 28.1111C24.9848 27.821 25.8537 28.218 26.1586 28.9968C26.4482 29.7908 26.0518 30.6612 25.2744 30.9666L20.503 32.7532C20.3201 32.8142 20.1524 32.8448 19.9695 32.8448V32.86Z" fill="white"/>
<path d="M27.3323 21.3772C26.9969 21.3772 26.6463 21.2703 26.3719 21.026L22.439 17.7888C21.7835 17.2543 21.6921 16.2924 22.2256 15.6358C22.7591 14.9792 23.7195 14.8875 24.375 15.422L28.3079 18.6592C28.9634 19.1936 29.0549 20.1556 28.5213 20.8122C28.2165 21.1787 27.7896 21.3772 27.3476 21.3772H27.3323Z" fill="white"/>
<path d="M24.8171 26.1566C24.6951 26.1566 24.5579 26.1413 24.4207 26.1108L19.4969 24.7976C18.689 24.5838 18.2012 23.744 18.4146 22.9347C18.628 22.1254 19.4665 21.6368 20.2744 21.8505L25.1982 23.1637C26.0061 23.3775 26.4939 24.2174 26.2805 25.0267C26.0976 25.7138 25.4878 26.1566 24.8018 26.1566H24.8171Z" fill="white"/>
</svg>
