<svg width="245" height="122" viewBox="0 0 245 122" fill="none" xmlns="http://www.w3.org/2000/svg">
<path id="Vector" d="M148.362 86.8415C149.342 86.3215 149.622 86.3315 150.812 86.8415C151.872 87.2915 165.222 92.4815 179.392 100.731C191.772 107.931 205.262 118.321 205.362 118.781C205.792 120.711 209.262 122.391 210.512 121.671C210.772 121.521 212.172 120.621 212.542 119.481C212.982 118.121 212.342 116.421 211.762 115.191C208.632 108.541 200.362 96.2615 199.782 95.4415C198.992 94.3415 198.362 93.3415 198.362 93.2115C198.362 93.0815 194.422 86.5315 194.412 85.9615C194.412 85.7415 195.812 85.6015 197.802 85.6215C202.812 85.6815 213.452 85.4915 214.752 85.3215C215.372 85.2415 218.002 85.1415 220.592 85.1115C223.182 85.0715 228.372 84.9615 229.412 84.7915C230.452 84.6215 233.292 84.8715 234.632 84.7915C237.892 84.5815 240.672 84.0515 241.672 83.4415C242.122 83.1715 242.842 82.0215 243.272 80.8715C243.902 79.2015 243.992 78.4915 243.712 77.2615C243.492 76.2715 243.512 74.8815 243.752 74.1815C244.032 73.3815 244.012 72.9315 243.652 72.5015C243.072 71.7915 242.942 63.1715 243.392 58.1715C243.732 54.2815 243.332 8.89146 243.422 7.33146C243.542 5.32146 243.802 4.23146 244.332 3.51146C244.992 2.63146 245.012 2.45146 244.512 1.94146C243.412 0.811465 237.592 0.461465 219.272 0.421465C213.462 0.421465 208.552 0.391465 208.342 0.381465C200.352 -0.0885354 179.122 -0.138535 178.772 0.311465C178.652 0.461465 177.122 0.581465 175.362 0.591465C173.602 0.591465 171.812 0.651465 171.402 0.721465C170.982 0.791465 170.382 0.711465 170.062 0.531465C169.732 0.351465 168.722 0.361465 167.802 0.551465C165.552 1.00146 161.072 1.05146 160.812 0.621465C160.692 0.421465 160.402 0.441465 160.132 0.661465C159.872 0.871465 158.572 0.991465 157.242 0.931465C150.182 0.611465 137.882 0.551465 137.342 0.831465C136.952 1.04146 136.392 0.961465 135.812 0.641465C135.052 0.221465 134.802 0.221465 134.382 0.641465C133.742 1.25146 131.522 1.25146 130.562 0.621465C130.022 0.271465 129.462 0.291465 128.032 0.721465C126.882 1.07146 126.052 1.14146 125.782 0.911465C125.552 0.711465 125.242 0.671465 125.092 0.821465C124.852 1.05146 119.172 1.13146 114.882 0.961465C114.052 0.931465 112.952 0.891465 112.432 0.871465C111.302 0.831465 103.962 1.09146 101.312 1.27146C100.272 1.34146 97.6419 1.44146 95.4719 1.48146C89.2319 1.63146 85.6919 1.78146 84.8019 1.95146C84.3519 2.04146 78.7219 2.06146 72.2919 2.02146C65.8619 1.97146 59.1619 1.97146 57.4019 2.02146C55.6419 2.07146 51.0619 2.12146 47.2219 2.14146C43.3919 2.16146 37.0319 2.35146 33.0919 2.55146C29.1519 2.76146 24.7619 2.99146 23.3219 3.06146C21.4219 3.15146 20.6319 3.06146 20.4119 2.70146C20.2419 2.43146 20.1019 2.37146 20.1019 2.58146C20.1019 2.80146 19.1019 2.90146 17.7419 2.82146C16.4419 2.75146 13.6419 2.64146 11.5219 2.57146C8.55188 2.48146 7.66188 2.34146 7.66188 1.94146C7.66188 1.66146 7.25188 1.24146 6.76188 1.00146C5.50188 0.391465 3.54188 1.14146 3.21188 3.58146C3.07188 4.61146 2.71188 6.00146 2.41188 6.65146C2.10188 7.30147 2.67188 9.04146 2.58188 9.93147C2.26188 13.0515 1.96188 28.2515 1.94188 41.1215C1.92188 64.1315 1.93188 69.5215 1.98188 72.3415C2.02188 74.7315 1.94188 75.1315 1.33188 75.2715C-0.0181202 75.5915 -0.26812 76.6015 0.25188 79.5915C0.74188 82.4115 1.59188 84.2115 2.75188 84.8615C3.14188 85.0815 5.39188 85.0715 8.63188 84.8315C12.0419 84.5915 18.9319 84.5815 28.3719 84.8115C36.3519 85.0115 43.4819 85.1015 44.2019 85.0115C48.6019 84.4615 78.6819 84.9315 96.5819 85.8515L148.342 86.8515L148.362 86.8415ZM41.0719 7.57147C41.7719 7.41147 41.9919 7.47146 41.8019 7.77146C41.4619 8.30147 39.8819 8.28146 38.8919 7.72146C38.3619 7.42146 38.0019 7.42146 37.6519 7.69146C37.1519 8.09146 32.7419 7.96146 33.2119 7.55147C33.7119 7.12147 40.0719 6.97146 40.0719 7.39146C40.0719 7.64146 40.4619 7.70146 41.0719 7.56146V7.57147ZM42.7119 5.82147C42.7119 5.90146 42.3719 5.96146 41.9619 5.95146C41.5519 5.94146 41.2019 5.78147 41.2019 5.59146C41.2019 5.40146 41.5419 5.35146 41.9619 5.46146C42.3819 5.58146 42.7119 5.74147 42.7119 5.82147ZM46.6419 7.55147C46.0719 7.06147 45.9419 7.07146 45.5919 7.62146C45.3719 7.96146 45.0619 8.15146 44.8819 8.04146C44.7119 7.93146 44.6819 7.68146 44.8019 7.49146C45.1519 6.93146 44.2319 6.03147 43.5519 6.27146C43.1519 6.41146 43.0419 6.34146 43.2219 6.05147C43.6719 5.33146 46.5819 5.60146 47.2719 6.42146C48.1019 7.40146 47.5519 8.35147 46.6219 7.56146L46.6419 7.55147ZM43.2619 7.13146C43.3919 6.91147 43.6819 6.74146 43.9019 6.75146C44.1519 6.75146 44.1219 6.97147 43.8319 7.32147C43.3119 7.93147 42.8519 7.78147 43.2619 7.13146ZM52.8819 3.44146C52.8819 3.52146 52.6219 3.58146 52.3119 3.57146C52.0019 3.57146 51.7519 3.39146 51.7519 3.19146C51.7519 2.99146 52.0019 2.93146 52.3119 3.06146C52.6219 3.19146 52.8819 3.36146 52.8819 3.44146ZM53.2519 5.82147C53.2519 6.33146 52.4019 6.90146 51.9219 6.71146C51.6619 6.60146 51.3219 6.69146 51.1919 6.91146C51.0519 7.13146 51.1719 7.31146 51.4419 7.33146C51.7919 7.35146 51.7819 7.44146 51.3719 7.70146C50.8219 8.04146 49.8619 8.18147 49.8619 7.91146C49.8619 7.38146 51.1219 5.46146 51.5719 5.30147C52.1819 5.08147 53.2619 5.42146 53.2619 5.83146L53.2519 5.82147ZM56.6419 5.96146C56.6419 6.18146 56.4719 6.25146 56.2619 6.12146C56.0519 5.98146 55.6119 6.14146 55.2719 6.47146C54.9319 6.80146 54.4219 6.97146 54.1419 6.85146C53.8619 6.74146 53.6319 6.80147 53.6319 7.00146C53.6319 7.20146 53.4619 7.36146 53.2519 7.36146C53.0419 7.36146 52.8819 7.20146 52.8819 7.02146C52.8819 6.61146 55.2119 5.53147 56.0419 5.55147C56.3719 5.55147 56.6419 5.74147 56.6419 5.96146ZM62.8819 5.98146C62.7619 6.29146 62.6619 6.69146 62.6619 6.88146C62.6619 7.07147 62.4119 7.22147 62.0919 7.21146C61.7819 7.21146 61.5319 7.03147 61.5319 6.82147C61.5319 6.61146 61.3619 6.44146 61.1619 6.44146C60.9519 6.44146 60.7819 6.69146 60.7819 7.01147C60.7819 7.34146 60.6219 7.50146 60.4319 7.37146C60.2319 7.24146 59.9719 7.32147 59.8419 7.52146C59.4319 8.18147 58.8019 7.91146 58.9919 7.16146C59.1119 6.72146 59.0119 6.50146 58.7619 6.58146C58.1819 6.77146 57.1519 6.07147 57.5019 5.73146C57.6519 5.58146 57.9619 5.64147 58.1719 5.86146C58.4519 6.14147 59.2519 6.13146 60.8319 5.85146C62.7919 5.49146 63.0619 5.51147 62.8819 5.98146ZM75.9519 7.54146C75.0719 8.03146 74.7219 8.01147 74.7219 7.46146C74.7219 7.11146 74.6219 7.10146 74.2719 7.44146C73.6519 8.05147 72.6319 7.97147 71.9319 7.25146C71.4119 6.73146 71.2519 6.72147 70.4919 7.19146C69.9019 7.56146 68.6319 7.69146 66.4319 7.62146C64.6619 7.56146 63.4419 7.45147 63.6919 7.36146C64.1919 7.19146 64.3719 6.45147 63.8819 6.59146C63.7319 6.64147 63.6019 6.51147 63.6019 6.30147C63.6019 6.09146 64.7519 5.95146 66.3019 5.99146C67.7819 6.03146 69.1219 5.93146 69.2819 5.79146C69.9619 5.13146 72.6019 5.74146 72.2419 6.47146C72.1219 6.71146 72.2719 6.61146 72.5719 6.25146C73.1619 5.55147 74.5419 5.42146 74.9119 6.03147C75.0419 6.24147 75.4719 6.42146 75.8719 6.43146C76.7819 6.45146 76.8219 7.04146 75.9419 7.53147L75.9519 7.54146ZM80.0019 6.48146C80.0019 7.30147 79.6819 7.67146 79.0019 7.65146C78.6119 7.65146 78.5919 7.44146 78.9319 6.70146C79.4319 5.61146 80.0019 5.49146 80.0019 6.47146V6.48146ZM92.8119 6.94146C92.8119 7.38146 92.1519 7.30147 91.8619 6.82147C91.6919 6.55147 91.4519 6.56146 91.0819 6.85146C90.7919 7.08146 90.5519 7.19146 90.5519 7.07147C90.5519 6.95147 90.0419 7.00146 89.4119 7.16146C88.5519 7.38146 88.2819 7.33146 88.2819 6.94146C88.2819 6.18147 86.1619 6.30147 85.4219 7.09146C84.9719 7.57147 84.4919 7.69146 83.6219 7.50146C82.9719 7.36146 82.3819 7.20146 82.3119 7.14146C82.2419 7.09146 82.7119 6.94146 83.3519 6.82147C83.9919 6.70147 84.5119 6.35146 84.5119 6.06146C84.5119 5.76146 84.6919 5.53146 84.9119 5.54146C85.1319 5.54146 85.2019 5.72147 85.0719 5.92146C84.9419 6.13146 85.0119 6.30147 85.2119 6.30147C85.4219 6.30147 85.6819 6.16146 85.7919 5.98146C86.1919 5.35146 90.2719 5.37146 91.5719 6.02146C92.2419 6.36146 92.7919 6.77146 92.7919 6.94146H92.8119ZM95.3319 6.70146C95.1919 7.05146 94.8319 7.17146 94.3219 7.02146L93.5319 6.80147L94.3319 6.26147C95.2119 5.67146 95.6619 5.87146 95.3319 6.70146ZM97.3419 5.86146C96.5819 6.31146 95.9019 5.61146 96.5119 5.01147C96.8619 4.66147 97.0619 4.68147 97.4319 5.05147C97.8019 5.43147 97.7819 5.59146 97.3419 5.86146ZM101.112 5.58146C100.382 6.03146 99.9819 6.02146 99.9819 5.55147C99.9819 5.34146 100.362 5.19146 100.832 5.20146C101.522 5.22146 101.572 5.30146 101.112 5.58146ZM106.292 4.93146C105.932 4.93146 105.632 5.11146 105.632 5.31146C105.632 5.51146 105.472 5.69146 105.262 5.68146C105.052 5.68146 104.892 5.43147 104.892 5.13146C104.892 4.39147 105.312 4.21146 106.212 4.60146C106.852 4.87146 106.862 4.92146 106.302 4.93146H106.292ZM115.432 5.91146C115.432 6.28146 111.832 6.16146 110.532 5.73146C110.222 5.62146 110.102 5.62146 110.252 5.71146C110.592 5.90146 110.252 6.56147 109.812 6.55147C109.652 6.55147 109.212 6.20147 108.842 5.78147C108.182 5.05147 108.192 5.01147 109.062 4.71146C109.562 4.54146 110.012 4.53147 110.072 4.69146C110.132 4.85146 110.522 4.90146 110.922 4.81146C111.332 4.72146 111.902 4.85146 112.202 5.10146C112.602 5.44146 112.942 5.46146 113.522 5.16146C114.152 4.84146 114.352 4.88146 114.532 5.34146C114.652 5.66147 114.902 5.83146 115.092 5.73146C115.272 5.62146 115.432 5.70147 115.432 5.92146V5.91146ZM121.902 4.97146C121.652 4.97146 121.462 5.28147 121.462 5.69146C121.462 6.46146 121.042 6.60146 118.542 6.66146C117.192 6.69146 116.942 6.58146 116.942 5.98146C116.942 5.20146 118.272 4.12146 119.192 4.16146C119.622 4.18146 119.652 4.25146 119.282 4.47146C118.912 4.69146 118.982 4.93146 119.562 5.47146C120.272 6.13146 120.372 6.12146 120.302 5.42146C120.262 5.08146 121.882 4.52147 122.142 4.78147C122.252 4.89147 122.142 4.98146 121.902 4.97146ZM133.742 5.65146C132.582 5.62146 131.642 5.43146 131.642 5.22146C131.642 4.65146 131.012 4.75146 130.322 5.42146C129.922 5.81146 129.582 5.89146 129.342 5.65146C128.912 5.20147 125.512 5.56147 125.332 6.07147C125.172 6.54146 122.212 6.62146 122.212 6.15146C122.212 5.94146 122.382 5.67146 122.592 5.55147C122.802 5.43147 122.892 5.18147 122.792 5.01147C122.472 4.49147 124.122 4.39147 129.962 4.57147C134.052 4.70147 135.572 4.87146 135.682 5.22146C135.802 5.56146 135.252 5.68146 133.742 5.64146V5.65146ZM140.302 4.85146C140.302 5.17146 140.132 5.43147 139.922 5.42146C139.722 5.42146 139.552 5.25146 139.552 5.06146C139.552 4.86146 139.722 4.60146 139.922 4.48146C140.132 4.36146 140.302 4.52146 140.302 4.85146ZM145.202 4.85146C145.202 5.11146 144.842 5.17146 144.282 5.02146C143.772 4.88146 143.252 4.94146 143.112 5.16146C142.982 5.38146 142.612 5.45146 142.312 5.33146C142.002 5.20146 141.592 5.10147 141.402 5.09146C141.212 5.09146 141.062 4.91146 141.062 4.71146C141.062 4.50146 141.992 4.35146 143.132 4.38146C144.392 4.41147 145.202 4.60146 145.202 4.85146ZM148.592 4.46146C148.072 4.45146 147.862 4.36146 148.122 4.26147C148.382 4.16147 148.802 4.17146 149.062 4.28147C149.322 4.39147 149.112 4.47147 148.602 4.46146H148.592ZM160.632 3.68146C159.402 3.62146 159.392 3.60146 160.242 3.28146C160.852 3.06146 161.282 3.08146 161.542 3.34146C161.812 3.62146 161.522 3.72146 160.632 3.69146V3.68146ZM153.772 77.9015C153.222 77.5115 147.702 75.1115 146.592 74.2715C145.742 73.6315 144.412 74.7315 144.412 75.0915C144.412 76.2715 143.562 76.5515 140.822 76.2915C140.822 76.2915 120.992 76.3115 99.6719 76.1415C78.3519 75.9815 18.0719 74.5315 18.0719 74.5315L7.69188 74.2415L7.83188 47.8515C7.96188 24.8515 8.29188 13.5315 8.95188 12.8915C9.03188 12.8115 9.46188 12.9515 9.90188 13.2015C10.5219 13.5515 10.8519 13.5515 11.2619 13.2015C11.6419 12.9015 36.0819 12.8215 38.3619 12.7715C40.6419 12.7215 43.1919 12.6415 44.0219 12.5815C44.8519 12.5215 49.1719 12.4715 53.6319 12.4715C58.0819 12.4715 65.2919 12.4715 69.6519 12.4715C74.0119 12.4715 78.8319 12.4215 80.3919 12.3815C81.9419 12.3315 84.8219 12.2415 86.7919 12.1815C88.7619 12.1115 92.2419 12.0215 94.5219 11.9615C96.8019 11.9015 99.2619 11.8015 99.9919 11.7515C100.712 11.6915 103.512 11.5915 106.212 11.5215C108.902 11.4515 111.222 11.3215 111.362 11.2415C111.632 11.0815 120.312 10.9915 131.082 11.0415C134.602 11.0615 137.482 11.0415 137.482 11.0215C137.482 10.9915 139.602 10.9615 142.192 10.9415C144.782 10.9315 150.042 10.8715 153.882 10.8215C157.712 10.7615 162.042 10.7115 163.492 10.7015C167.562 10.6815 176.802 10.5015 179.322 10.4115C191.352 9.94146 193.742 9.96146 212.382 10.6115C218.702 10.8315 233.222 11.2315 234.152 11.7215C234.992 12.1615 235.102 12.4415 235.062 14.2815C235.022 17.1615 235.702 74.3415 235.052 74.5215C234.212 74.7515 223.712 75.5315 215.082 75.8515C208.012 76.1115 193.112 75.9915 192.242 75.4215C191.582 75.0015 189.532 74.8715 189.092 75.2415C188.822 75.4515 184.122 77.6515 183.852 81.1315C183.752 82.3615 184.082 83.2015 185.752 86.0715C186.862 87.9815 194.592 100.671 194.592 100.861C194.592 101.411 193.782 101.261 193.052 100.581L153.802 77.9015H153.772Z" fill="black"/>
</svg>
