<svg width="1025" height="1219" viewBox="0 0 1025 1219" fill="none" xmlns="http://www.w3.org/2000/svg">
<g filter="url(#filter0_f_3172_29927)">
<circle cx="609.5" cy="609.5" r="309.5" fill="url(#paint0_linear_3172_29927)" fill-opacity="0.3"/>
</g>
<path opacity="0.1" d="M1130 336.369L1093.43 357.642C1090.6 356.65 1086.92 356.797 1084.36 358.081L1028.02 325.523C1030.36 323.943 1030.49 321.643 1028.42 319.976C1028.37 319.934 1028.31 319.892 1028.26 319.85C1028.31 319.89 1028.37 319.932 1028.42 319.974L1062.76 300H1059.94L1027.06 319.128C1024.15 317.732 1019.91 317.75 1017.05 319.181L983.862 300H981.04L1015.72 320.044C1013.78 321.685 1013.94 323.903 1016.17 325.46L960.96 357.577C958.06 356.183 953.83 356.196 950.974 357.621L896.36 326.058C898.962 324.292 898.812 321.633 895.917 319.958C895.909 319.953 895.899 319.947 895.888 319.942L930.168 300H927.346L894.283 319.236C891.483 318.307 887.906 318.467 885.393 319.722C885.338 319.748 885.288 319.777 885.236 319.806C885.288 319.777 885.338 319.748 885.393 319.719L851.271 300H848.449L884.059 320.58C882.362 322.008 882.257 323.882 883.736 325.371L828.191 357.682C825.398 356.755 821.829 356.915 819.317 358.159H819.314L763.284 325.777C765.734 324.105 765.726 321.635 763.268 319.96L797.582 300H794.758L761.789 319.178C761.847 319.202 761.902 319.228 761.96 319.254C761.902 319.228 761.844 319.204 761.787 319.181C758.923 318.018 755.013 318.105 752.32 319.441H752.317L718.68 300H715.855L750.98 320.299C749.139 321.84 749.155 323.903 751.022 325.441L695.692 357.627C692.831 356.469 688.934 356.553 686.241 357.881L630.578 325.709C632.975 324.061 632.998 321.648 630.651 319.976L664.992 300H662.17L629.201 319.178C627.84 318.598 626.227 318.309 624.615 318.309C622.831 318.309 621.048 318.664 619.611 319.372L586.089 300H583.267L618.268 320.228C616.38 321.798 616.425 323.914 618.397 325.462L563.109 357.627C561.745 357.046 560.13 356.758 558.517 356.758C556.742 356.758 554.969 357.109 553.534 357.813H553.532L498.052 325.749C500.46 324.087 500.455 321.651 498.052 319.984C497.979 319.934 497.903 319.882 497.824 319.832C497.903 319.882 497.982 319.932 498.055 319.982L532.406 300H529.584L496.586 319.194C495.239 318.635 493.652 318.357 492.071 318.357C490.295 318.357 488.523 318.708 487.088 319.412L453.501 300H450.674L485.743 320.265C485.772 320.241 485.798 320.218 485.829 320.197C485.798 320.22 485.772 320.244 485.743 320.268C483.863 321.822 483.886 323.916 485.806 325.465L430.494 357.64C429.149 357.083 427.565 356.805 425.984 356.805C424.214 356.805 422.444 357.154 421.012 357.852L366.08 326.106C368.624 324.336 368.456 321.701 365.582 320.039C365.545 320.018 365.509 320 365.475 319.979L399.817 300H396.993L363.846 319.283C362.679 318.91 361.384 318.724 360.091 318.724C358.318 318.724 356.551 319.073 355.119 319.771L320.907 300H318.083L353.768 320.622C352.048 322.037 351.906 323.901 353.338 325.394L297.754 357.732H297.751C294.998 356.85 291.52 357.01 289.042 358.212L233.002 325.825C235.419 324.137 235.37 321.659 232.857 319.995L267.227 300H264.413L231.36 319.228C228.525 318.112 224.707 318.199 222.045 319.491L188.316 300H185.492L220.689 320.341C218.82 321.869 218.801 323.924 220.624 325.47L165.268 357.674C162.438 356.561 158.63 356.645 155.966 357.931L123 338.879V340.512L154.61 358.779C153.656 359.553 153.179 360.467 153.179 361.38C153.179 362.294 153.63 363.155 154.529 363.919L123 382.26V383.9L155.859 364.785C158.591 366.163 162.582 366.252 165.464 365.053L221.605 397.498C219.863 398.918 219.714 400.787 221.154 402.288L165.567 434.626H165.564C162.821 433.746 159.362 433.901 156.887 435.09H156.884L123 415.508V417.138L155.526 435.936C153.771 437.353 153.616 439.233 155.059 440.737L123 459.385V461.028L156.265 441.679C156.299 441.7 156.333 441.721 156.37 441.74C159.105 443.322 163.361 443.48 166.385 442.212L221.416 474.016C219.488 475.576 219.494 477.694 221.432 479.256L166.12 511.431C163.29 510.257 159.415 510.318 156.703 511.612H156.7L123 492.134V493.764L155.337 512.452C155.387 512.41 155.442 512.37 155.497 512.331C155.442 512.373 155.387 512.412 155.337 512.454C153.394 514.014 153.399 516.137 155.339 517.702L123 536.515V538.156L156.706 518.55C158.143 519.24 159.905 519.584 161.665 519.584C163.259 519.584 164.853 519.3 166.201 518.733H166.204L221.78 550.853C219.819 552.428 219.842 554.578 221.841 556.145L166.55 588.309C163.718 587.104 159.803 587.151 157.07 588.451L123 568.761V570.391L155.699 589.291C153.729 590.868 153.745 593.021 155.746 594.593L123 613.64V615.283L157.128 595.433C157.128 595.433 157.12 595.428 157.115 595.425C157.12 595.425 157.123 595.428 157.128 595.431C159.868 596.717 163.76 596.764 166.571 595.572L222.331 627.799C220.393 629.348 220.377 631.456 222.276 633.021L166.949 665.206C165.614 664.665 164.056 664.397 162.499 664.397C160.768 664.397 159.04 664.731 157.623 665.397L123 645.39V647.02L156.252 666.235L156.249 666.237C154.298 667.786 154.277 669.897 156.181 671.469L123 690.773V692.414L157.534 672.325C160.285 673.674 164.266 673.737 167.122 672.519L223.246 704.956C221.434 706.395 221.287 708.321 222.801 709.844L167.258 742.155C166.065 741.759 164.733 741.562 163.401 741.562C161.678 741.562 159.955 741.892 158.541 742.557L123 722.016V723.646L157.167 743.394C155.345 744.832 155.193 746.764 156.711 748.29H156.708L123 767.898V769.542L157.936 749.219C157.936 749.219 157.954 749.232 157.964 749.237C160.721 750.828 165.013 750.975 168.042 749.678L222.748 781.291H222.745C220.661 782.942 220.766 785.234 223.055 786.825C223.123 786.874 223.194 786.919 223.265 786.966C223.194 786.922 223.123 786.874 223.052 786.827L167.843 818.941C165.006 817.579 160.896 817.566 158.046 818.897L123 798.645V800.275L156.666 819.729C156.714 819.692 156.763 819.655 156.813 819.619C156.763 819.655 156.714 819.692 156.666 819.732C154.566 821.38 154.665 823.677 156.96 825.273C157.036 825.326 157.115 825.381 157.196 825.433C157.115 825.381 157.036 825.331 156.96 825.276L123 845.029V846.669L158.426 826.063C159.774 826.622 161.36 826.9 162.944 826.9C164.528 826.9 166.186 826.609 167.549 826.021L223.973 858.632C222.971 859.419 222.47 860.353 222.47 861.291C222.47 862.104 222.848 862.918 223.603 863.635L168.129 895.906C165.383 894.94 161.832 895.051 159.281 896.237L123 875.271V876.904L157.894 897.069C156.008 898.542 155.882 900.532 157.511 902.08L123 922.243V923.892L158.772 902.989C160.277 903.829 162.221 904.246 164.159 904.246C165.784 904.246 167.413 903.952 168.777 903.359L214.876 930H217.703L170.208 902.553C172.6 900.81 172.43 898.272 169.7 896.636L224.864 864.543C226.367 865.38 228.308 865.8 230.245 865.8C231.869 865.8 233.489 865.506 234.853 864.918L290.235 896.925C288.29 898.453 288.232 900.537 290.06 902.104L242.107 930H244.931L291.384 902.976C294.148 904.383 298.218 904.461 301.113 903.212L347.467 930H350.288L302.548 902.411C302.49 902.453 302.432 902.493 302.372 902.532C302.432 902.493 302.49 902.451 302.548 902.409C304.882 900.718 304.792 898.274 302.291 896.631L357.476 864.527C358.94 865.273 360.77 865.646 362.6 865.646C364.216 865.646 365.831 865.354 367.19 864.771C367.449 864.661 367.696 864.538 367.934 864.406C367.696 864.538 367.449 864.661 367.19 864.774L422.391 896.673C420.335 898.298 420.406 900.545 422.596 902.133C422.632 902.159 422.669 902.188 422.708 902.214C422.669 902.188 422.632 902.162 422.596 902.136L374.692 930H377.517L424.033 902.941C426.768 904.125 430.534 904.131 433.266 902.96L480.055 930H482.877L434.703 902.159C436.924 900.561 436.969 898.282 434.85 896.649L490.125 864.496C490.072 864.472 490.023 864.451 489.973 864.427C490.023 864.448 490.072 864.472 490.125 864.493C492.852 865.677 496.61 865.685 499.343 864.519L555.284 896.849C553.325 898.408 553.309 900.532 555.242 902.101L507.281 930H510.105L556.6 902.952C558.04 903.65 559.812 903.999 561.583 903.999C563.193 903.999 564.8 903.711 566.156 903.133C566.156 903.133 566.156 903.133 566.159 903.133L612.646 930.003H615.47L567.598 902.335C569.917 900.671 569.877 898.269 567.488 896.62L622.692 864.509C622.606 864.467 622.519 864.42 622.435 864.375C622.522 864.42 622.606 864.464 622.695 864.506C625.438 865.837 629.387 865.9 632.233 864.695L688.176 897.027C686.314 898.513 686.225 900.516 687.906 902.06L639.872 930.003H642.693L689.188 902.957C691.937 904.443 696.09 904.561 699.046 903.309L745.237 930.003H748.059L700.491 902.511C702.914 900.784 702.785 898.251 700.113 896.602C700.053 896.565 699.993 896.529 699.93 896.492C699.99 896.529 700.053 896.563 700.113 896.599L755.281 864.509H755.283C758.026 865.992 762.167 866.113 765.122 864.868L820.702 896.988C818.832 898.489 818.766 900.513 820.497 902.06L772.46 930.003H775.284L821.798 902.947C824.543 904.396 828.637 904.503 831.566 903.267L877.828 930.003H880.652L833.016 902.474C835.434 900.757 835.329 898.248 832.712 896.594L887.885 864.498H887.887C890.628 865.945 894.713 866.055 897.643 864.826L953.227 896.951C951.352 898.466 951.305 900.508 953.083 902.06L905.048 930.003H907.87L954.399 902.936H954.402C957.139 904.348 961.183 904.446 964.089 903.228L1010.42 930.003H1013.24L965.542 902.435C966.709 901.611 967.293 900.603 967.293 899.592C967.293 898.516 966.633 897.445 965.316 896.586L1020.5 864.488C1021.97 865.246 1023.81 865.624 1025.66 865.624C1027.24 865.624 1028.82 865.346 1030.17 864.787L1085.75 896.914C1084.8 897.689 1084.32 898.6 1084.32 899.513C1084.32 900.427 1084.77 901.293 1085.68 902.057L1037.63 930.003H1040.46L1087.01 902.923C1088.47 903.658 1090.29 904.026 1092.1 904.026C1093.69 904.026 1095.27 903.745 1096.61 903.188L1130 922.482V920.852L1098.07 902.398C1099.24 901.571 1099.83 900.558 1099.83 899.542C1099.83 898.526 1099.19 897.426 1097.91 896.578L1130 877.917V876.277L1096.42 895.809H1096.41C1093.59 894.694 1089.78 894.78 1087.11 896.067C1087.05 896.095 1086.99 896.127 1086.93 896.156C1086.99 896.124 1087.05 896.095 1087.11 896.064L1031.62 863.997C1034.05 862.296 1033.97 859.8 1031.41 858.138L1086.59 826.039C1088.06 826.798 1089.91 827.179 1091.75 827.179C1093.33 827.179 1094.9 826.9 1096.24 826.347L1130 845.856V844.225L1097.7 825.559C1100.14 823.858 1100.07 821.357 1097.5 819.692L1130 800.787V799.144L1095.98 818.931C1093.16 817.847 1089.39 817.947 1086.75 819.228L1031.26 787.158C1032.44 786.331 1033.04 785.315 1033.04 784.297C1033.04 783.205 1032.36 782.115 1031 781.252L1086.17 749.158C1086.08 749.111 1086 749.064 1085.91 749.014C1086 749.064 1086.08 749.111 1086.17 749.156C1088.89 750.594 1092.95 750.712 1095.87 749.508L1130 769.227V767.596L1097.34 748.72C1099.81 747.006 1099.72 744.47 1097.09 742.803L1130 723.659V722.019L1095.55 742.053C1095.62 742.074 1095.67 742.097 1095.73 742.123C1095.67 742.1 1095.62 742.079 1095.55 742.055C1092.73 741 1089 741.11 1086.38 742.386L1030.89 710.322C1033.39 708.592 1033.28 706.03 1030.58 704.365L1085.75 672.272C1087.24 673.078 1089.15 673.482 1091.05 673.482C1092.62 673.482 1094.18 673.209 1095.51 672.666L1130 692.603V690.97L1096.97 671.884C1098.18 671.052 1098.78 670.028 1098.78 669.004C1098.78 667.896 1098.07 666.786 1096.67 665.92C1096.64 665.896 1096.6 665.875 1096.56 665.851C1096.6 665.875 1096.64 665.896 1096.67 665.917L1130 646.529V644.891L1095.12 665.177C1092.3 664.153 1088.6 664.276 1086.01 665.547L1030.16 633.27C1032.58 631.606 1032.56 629.159 1030.14 627.49L1085.35 595.378C1088.05 596.688 1091.94 596.767 1094.77 595.612L1130 615.974V614.341L1096.24 594.829C1098.67 593.165 1098.66 590.713 1096.24 589.044C1096.2 589.018 1096.16 588.994 1096.12 588.968C1096.16 588.991 1096.2 589.015 1096.24 589.041L1130 569.401V567.76L1094.76 588.257C1091.9 587.083 1087.98 587.162 1085.28 588.495L1029.43 556.218C1031.76 554.617 1031.85 552.286 1029.69 550.624L1084.97 518.471C1087.65 519.631 1091.31 519.66 1094.03 518.56L1130 539.345V537.715L1095.51 517.78C1097.85 516.177 1097.95 513.843 1095.79 512.176L1130 492.273V490.633L1094.39 511.347C1094.61 511.446 1094.82 511.554 1095.02 511.672C1094.82 511.557 1094.61 511.446 1094.39 511.347C1091.5 510.016 1087.36 510.047 1084.54 511.444H1084.54L1029.43 479.595C1031.91 477.899 1031.87 475.392 1029.32 473.712L1084.5 441.611C1085.97 442.356 1087.8 442.726 1089.63 442.726C1091.17 442.726 1092.71 442.461 1094.03 441.931L1130 462.718V461.088L1095.51 441.157C1095.48 441.175 1095.45 441.196 1095.42 441.217C1095.45 441.196 1095.48 441.175 1095.51 441.154C1098.01 439.461 1097.97 436.946 1095.41 435.266L1130 415.146V413.502L1093.91 434.5C1091.05 433.387 1087.2 433.492 1084.54 434.817L1029.25 402.861C1030.48 402.026 1031.1 400.989 1031.1 399.955C1031.1 398.826 1030.37 397.695 1028.91 396.823L1084.07 364.732C1085.58 365.57 1087.52 365.987 1089.46 365.987C1090.99 365.987 1092.53 365.725 1093.84 365.197L1130 386.092V384.459L1095.33 364.423C1096.57 363.585 1097.19 362.546 1097.19 361.504C1097.19 360.378 1096.46 359.246 1095 358.375L1130 338.018V336.372V336.369ZM1097.55 896.345C1097.56 896.355 1097.58 896.363 1097.59 896.374C1097.58 896.366 1097.56 896.358 1097.55 896.347C1097.49 896.316 1097.44 896.284 1097.39 896.256C1097.44 896.284 1097.49 896.316 1097.55 896.345ZM1095.72 512.126C1095.58 512.024 1095.43 511.921 1095.27 511.824C1095.43 511.921 1095.58 512.021 1095.72 512.126ZM1094.85 518.169C1094.65 518.274 1094.45 518.376 1094.24 518.468C1094.45 518.374 1094.65 518.274 1094.85 518.169ZM951.546 364.696C954.205 365.798 957.792 365.811 960.465 364.738L1016.95 397.38C1015.22 398.839 1015.14 400.761 1016.72 402.265H1016.72C1016.75 402.291 1016.78 402.317 1016.81 402.343C1016.78 402.317 1016.75 402.291 1016.72 402.267H1016.72L961.249 434.536H961.246C958.43 433.549 954.769 433.689 952.204 434.959L895.865 402.401C895.731 402.49 895.592 402.58 895.442 402.666C895.387 402.698 895.33 402.727 895.272 402.758C895.33 402.727 895.387 402.695 895.442 402.664C895.589 402.577 895.731 402.49 895.865 402.399C898.175 400.821 898.298 398.529 896.234 396.87C896.198 396.839 896.158 396.81 896.119 396.778C896.161 396.807 896.198 396.836 896.237 396.868L951.546 364.696ZM1017.08 479.185L961.718 511.391C960.412 510.885 958.902 510.63 957.391 510.63C955.608 510.63 953.827 510.984 952.39 511.693L897.089 479.734C899.63 477.991 899.507 475.384 896.725 473.715L951.889 441.624C954.598 443.131 958.716 443.28 961.695 442.075L1017.13 474.111C1015.31 475.631 1015.3 477.655 1017.08 479.185ZM1017.43 556.108L962.201 588.241C960.79 587.59 959.08 587.264 957.37 587.264C955.66 587.264 953.822 587.616 952.388 588.319L897.273 556.468C899.725 554.775 899.675 552.276 897.131 550.606L952.317 518.505C955.028 519.883 958.996 519.985 961.881 518.809L1017.12 550.735H1017.12C1015.18 552.352 1015.28 554.549 1017.43 556.108ZM1017.9 632.968L962.581 665.148C959.73 663.977 955.831 664.053 953.127 665.374H953.125L897.27 633.091C899.578 631.49 899.657 629.172 897.509 627.516L952.784 595.362C955.474 596.528 959.161 596.551 961.881 595.436C961.97 595.399 962.059 595.362 962.148 595.323C962.059 595.362 961.97 595.402 961.881 595.438L1017.86 627.786C1015.98 629.34 1016 631.422 1017.9 632.968H1017.9ZM1018.58 704.835C1016.78 706.318 1016.71 708.295 1018.37 709.82L962.935 742.071C960.129 741.05 956.447 741.168 953.856 742.423L898.002 710.143C900.386 708.479 900.37 706.045 897.957 704.381L953.164 672.27C955.881 673.585 959.78 673.658 962.618 672.49C962.856 672.39 963.087 672.28 963.31 672.165C963.087 672.28 962.856 672.393 962.618 672.49L1018.58 704.835ZM1018.78 786.714L963.37 818.944C960.559 817.897 956.838 818.002 954.223 819.264L898.739 787.195C901.201 785.467 901.086 782.916 898.398 781.257L953.568 749.164C955.063 749.972 956.966 750.374 958.87 750.374C960.446 750.374 962.02 750.098 963.357 749.544L1018.95 781.672C1017.12 783.171 1017.06 785.176 1018.78 786.714H1018.78ZM896.845 780.517C894.042 779.498 890.368 779.614 887.78 780.863L831.923 748.581C834.296 746.914 834.275 744.489 831.865 742.83C831.828 742.806 831.792 742.78 831.752 742.753C831.792 742.777 831.828 742.801 831.865 742.827L887.072 710.715C889.794 712.033 893.701 712.107 896.541 710.931L952.503 743.273C950.688 744.756 950.618 746.738 952.283 748.266C952.296 748.279 952.309 748.29 952.322 748.303C952.309 748.292 952.296 748.279 952.283 748.269L896.845 780.517ZM898.29 787.478C898.29 787.478 898.264 787.497 898.248 787.507C898.172 787.552 898.096 787.594 898.018 787.636C898.096 787.594 898.172 787.549 898.248 787.504C898.261 787.497 898.277 787.489 898.29 787.478ZM887.376 787.56C887.344 787.541 887.313 787.525 887.281 787.507C887.255 787.494 887.234 787.478 887.208 787.462C887.234 787.478 887.255 787.491 887.281 787.504L887.376 787.56ZM886.188 786.714L830.751 818.965C827.955 817.947 824.292 818.062 821.703 819.304H821.701L765.841 787.019C767.011 786.195 767.593 785.184 767.593 784.173C767.593 783.163 766.987 782.113 765.773 781.275L820.977 749.164C823.704 750.484 827.625 750.555 830.465 749.371L886.421 781.711C884.596 783.194 884.52 785.181 886.188 786.714ZM764.299 780.49C761.464 779.328 757.594 779.396 754.893 780.693L699.028 748.408C698.973 748.444 698.915 748.484 698.857 748.521C698.915 748.481 698.973 748.444 699.028 748.405C701.296 746.806 701.362 744.504 699.227 742.858L754.502 710.705C755.876 711.298 757.51 711.597 759.143 711.597C760.777 711.597 762.309 711.316 763.651 710.757L819.613 743.097H819.611C817.701 744.651 817.704 746.754 819.618 748.311L764.299 780.49ZM765.421 787.289C765.395 787.308 765.369 787.323 765.34 787.342C765.303 787.363 765.267 787.384 765.227 787.405C765.264 787.384 765.303 787.36 765.34 787.339C765.369 787.323 765.395 787.308 765.421 787.289ZM753.524 786.759L698.207 818.936C698.38 819.01 698.553 819.089 698.721 819.17C698.553 819.089 698.38 819.01 698.204 818.939C695.377 817.776 691.517 817.842 688.816 819.13L632.948 786.846C632.948 786.846 632.92 786.867 632.904 786.874C632.92 786.864 632.933 786.853 632.946 786.843C635.206 785.242 635.264 782.95 633.132 781.307L688.407 749.153C689.781 749.746 691.415 750.046 693.049 750.046C694.682 750.046 696.229 749.762 697.575 749.198L753.531 781.535C753.566 781.509 753.602 781.48 753.639 781.454C753.602 781.483 753.566 781.509 753.531 781.538C751.607 783.092 751.604 785.2 753.524 786.759ZM699.434 825.675C699.371 825.714 699.308 825.751 699.245 825.79C699.222 825.803 699.198 825.816 699.174 825.829C699.198 825.816 699.222 825.801 699.245 825.787C699.308 825.751 699.371 825.714 699.434 825.675ZM688.525 819.277C688.43 819.327 688.336 819.377 688.247 819.432C688.173 819.474 688.1 819.519 688.029 819.561C688.1 819.516 688.173 819.472 688.247 819.43C688.336 819.377 688.43 819.325 688.525 819.277ZM565.983 819.086C565.87 819.031 565.76 818.976 565.645 818.923C562.797 817.611 558.735 817.624 555.923 818.957L500.79 787.098C500.73 787.14 500.667 787.182 500.601 787.224C500.667 787.182 500.73 787.14 500.79 787.095C503.163 785.404 503.09 782.94 500.575 781.288C500.52 781.252 500.462 781.215 500.405 781.181C500.462 781.215 500.52 781.252 500.575 781.286L555.761 749.187C555.706 749.158 555.653 749.132 555.601 749.103C555.653 749.132 555.706 749.159 555.761 749.185C558.504 750.581 562.529 750.67 565.422 749.452H565.424L620.636 781.362C618.617 782.984 618.701 785.213 620.878 786.79L565.645 818.92C565.76 818.973 565.873 819.031 565.983 819.086ZM488.339 786.762L432.972 818.97C430.172 817.878 426.422 817.96 423.77 819.212L368.451 787.239C370.882 785.494 370.725 782.94 367.979 781.291L423.144 749.203C423.123 749.19 423.099 749.177 423.078 749.164C423.099 749.177 423.123 749.19 423.144 749.2C425.892 750.733 430.098 750.865 433.083 749.597H433.085L488.478 781.611C486.569 783.136 486.522 785.205 488.339 786.762ZM301.145 748.342C303.34 746.767 303.421 744.528 301.396 742.895L356.705 710.723C356.676 710.713 356.65 710.7 356.621 710.686C356.65 710.697 356.676 710.707 356.705 710.721C359.417 711.847 363.088 711.839 365.776 710.7H365.779L422.218 743.318C420.38 744.785 420.27 746.757 421.882 748.292L366.408 780.564C363.642 779.593 360.065 779.711 357.51 780.916C357.508 780.916 357.508 780.918 357.508 780.918L301.145 748.342ZM356.968 787.602C356.968 787.602 356.952 787.594 356.944 787.591C356.876 787.552 356.808 787.51 356.739 787.468C356.805 787.507 356.873 787.549 356.944 787.588C356.952 787.594 356.96 787.599 356.968 787.602ZM355.79 786.741L300.313 819.012C299.078 818.579 297.683 818.361 296.288 818.361C294.565 818.361 292.842 818.692 291.431 819.356L235.063 786.78C237.25 785.205 237.326 782.974 235.301 781.344L290.613 749.172C293.332 750.295 297.014 750.287 299.702 749.14L356.136 781.756C354.285 783.226 354.172 785.202 355.79 786.741ZM234.987 704.431C234.987 704.431 234.968 704.421 234.958 704.415L290.12 672.325H290.123C290.123 672.325 290.141 672.338 290.149 672.343C292.895 673.929 297.169 674.081 300.195 672.797C300.274 672.763 300.355 672.729 300.434 672.692C300.355 672.729 300.274 672.766 300.195 672.8L354.909 704.418C352.845 706.066 352.96 708.345 355.239 709.93C355.247 709.936 355.252 709.941 355.26 709.946C355.252 709.941 355.245 709.936 355.239 709.933L300.03 742.047C297.182 740.682 293.055 740.672 290.201 742.016L235.561 710.44C238.024 708.673 237.829 706.074 234.987 704.431ZM234.523 627.54L289.721 595.428H289.724C292.464 596.772 296.422 596.843 299.275 595.638C299.6 595.499 299.915 595.347 300.208 595.176C299.915 595.347 299.6 595.501 299.275 595.638L355.407 628.08C353.619 629.519 353.482 631.432 354.99 632.95L299.445 665.258C296.697 664.347 293.201 664.487 290.697 665.678C290.645 665.704 290.592 665.731 290.542 665.757C290.592 665.728 290.642 665.702 290.694 665.676L234.643 633.283C236.988 631.611 236.946 629.191 234.523 627.54ZM234.093 550.661L289.315 518.539C289.281 518.523 289.247 518.505 289.213 518.487C289.247 518.505 289.281 518.521 289.315 518.536C292.045 519.817 295.916 519.87 298.721 518.691L298.887 518.62C298.832 518.647 298.779 518.67 298.724 518.694L354.492 550.924C352.578 552.472 352.57 554.567 354.463 556.126L299.133 588.312C297.801 587.771 296.241 587.5 294.683 587.5C292.942 587.5 291.198 587.839 289.776 588.519L234.098 556.339C236.419 554.691 236.411 552.312 234.093 550.661ZM233.681 473.772L288.89 441.656H288.893C291.617 442.965 295.522 443.031 298.354 441.852L353.944 473.98C352.009 475.552 352.037 477.689 354.025 479.251L298.737 511.412C298.798 511.438 298.858 511.465 298.918 511.494C298.858 511.465 298.798 511.438 298.737 511.415C295.892 510.207 291.958 510.26 289.223 511.572L233.731 479.5C234.9 478.676 235.482 477.668 235.482 476.657C235.482 475.647 234.882 474.607 233.681 473.772ZM420.023 435.542C418.101 437.114 418.135 439.243 420.12 440.802L364.832 472.966C363.468 472.389 361.856 472.098 360.243 472.098C358.486 472.098 356.729 472.444 355.3 473.132C355.116 473.221 354.938 473.316 354.767 473.415C354.943 473.316 355.116 473.218 355.3 473.132L299.812 441.062C299.66 441.17 299.498 441.275 299.325 441.375C299.498 441.272 299.658 441.17 299.812 441.062C302.178 439.403 302.165 436.983 299.776 435.324C299.624 435.219 299.464 435.117 299.291 435.017C299.464 435.114 299.624 435.219 299.776 435.321L354.985 403.207C356.422 403.897 358.182 404.244 359.944 404.244C361.52 404.244 363.093 403.966 364.431 403.412L420.023 435.542ZM365.22 403.031C365.283 402.997 365.351 402.963 365.414 402.926C365.456 402.903 365.498 402.879 365.54 402.853C365.501 402.879 365.459 402.905 365.417 402.929C365.351 402.966 365.283 402.997 365.22 403.031ZM432.372 435.319L487.594 403.197C490.309 404.467 494.148 404.527 496.951 403.372L552.737 435.613C550.857 437.156 550.862 439.235 552.742 440.784L497.415 472.969H497.413C494.57 471.817 490.702 471.893 488.009 473.2L432.335 441.025C434.695 439.377 434.703 436.98 432.372 435.319ZM553.907 441.54C553.97 441.574 554.03 441.608 554.096 441.64C556.812 442.973 560.73 443.052 563.578 441.879C563.578 441.879 563.578 441.879 563.578 441.876L619.732 474.331C617.988 475.762 617.864 477.657 619.359 479.159L563.817 511.473V511.47C561.048 510.551 557.515 510.701 555.006 511.919L498.962 479.529C501.359 477.859 501.333 475.416 498.894 473.751L554.096 441.642C554.03 441.611 553.97 441.574 553.907 441.54ZM620.041 403.115C620.088 403.141 620.138 403.168 620.188 403.191C622.902 404.522 626.809 404.604 629.655 403.438C629.655 403.438 629.655 403.438 629.657 403.438L685.816 435.896C684.885 436.665 684.421 437.566 684.421 438.466C684.421 439.243 684.767 440.02 685.457 440.716H685.454L629.912 473.027C628.719 472.63 627.386 472.434 626.054 472.434C624.284 472.434 622.514 472.783 621.082 473.481L565.044 441.094C566.24 440.264 566.838 439.246 566.838 438.222C566.838 437.198 566.222 436.146 564.989 435.306L620.188 403.197C620.138 403.17 620.088 403.144 620.041 403.118V403.115ZM817.89 440.8L762.681 472.919C761.244 472.229 759.482 471.885 757.725 471.885C755.968 471.885 754.177 472.237 752.742 472.94H752.739L698.12 441.375C698.055 441.419 697.992 441.461 697.924 441.503C697.992 441.461 698.057 441.417 698.12 441.372C700.682 439.608 700.517 436.965 697.638 435.3C697.627 435.295 697.619 435.29 697.609 435.285L752.774 403.197C752.774 403.197 752.792 403.207 752.8 403.212C755.511 404.779 759.712 404.945 762.728 403.716L817.476 435.355C815.501 436.996 815.64 439.235 817.89 440.8ZM830.142 435.316L885.451 403.142C888.118 404.249 891.713 404.26 894.388 403.178L950.867 435.818C949.951 436.581 949.495 437.474 949.495 438.369C949.495 439.183 949.873 439.996 950.628 440.713L895.154 472.985C893.921 472.552 892.526 472.337 891.134 472.337C889.348 472.337 887.567 472.691 886.128 473.4L829.785 440.837C832.083 439.256 832.198 436.975 830.142 435.316ZM951.916 511.948C951.591 512.137 951.302 512.339 951.048 512.549C949.217 514.069 949.201 516.098 950.99 517.633L895.626 549.84H895.623C892.783 548.732 888.968 548.832 886.311 550.134L831.01 518.174C830.942 518.221 830.874 518.266 830.8 518.311C830.871 518.266 830.942 518.219 831.01 518.172C833.541 516.429 833.41 513.83 830.63 512.163C830.604 512.145 830.575 512.129 830.549 512.113C830.575 512.129 830.601 512.145 830.63 512.16L885.795 480.072C888.509 481.582 892.639 481.729 895.618 480.516L951.048 512.549C951.302 512.336 951.591 512.137 951.916 511.945C951.942 511.929 951.971 511.916 951.997 511.903C951.968 511.916 951.942 511.932 951.916 511.948ZM952.013 518.34C951.992 518.329 951.971 518.316 951.95 518.305C951.908 518.279 951.866 518.256 951.824 518.229C951.866 518.256 951.908 518.279 951.95 518.303C951.971 518.316 951.992 518.326 952.013 518.34ZM951.344 594.554L896.111 626.686C894.698 626.038 892.988 625.713 891.281 625.713C889.573 625.713 887.743 626.062 886.311 626.76L831.191 594.906C833.633 593.212 833.577 590.719 831.039 589.052L886.225 556.951C887.688 557.694 889.518 558.066 891.346 558.066C892.912 558.066 894.472 557.793 895.804 557.25L951.042 589.173C949.086 590.79 949.188 592.992 951.344 594.554ZM951.8 671.417L896.486 703.596H896.484C893.638 702.428 889.749 702.502 887.046 703.812L831.188 671.529C833.483 669.928 833.556 667.618 831.411 665.964L886.686 633.808C889.382 634.976 893.08 635 895.802 633.876C895.872 633.848 895.941 633.819 896.009 633.79C895.941 633.821 895.872 633.85 895.802 633.879L951.774 666.224C949.886 667.776 949.896 669.865 951.8 671.417ZM885.711 709.862L830.394 742.042C827.554 740.877 823.673 740.947 820.969 742.252L765.107 709.97C765.049 710.009 764.989 710.051 764.926 710.091C764.989 710.051 765.049 710.009 765.107 709.967C767.391 708.369 767.462 706.061 765.322 704.41L820.594 672.256H820.597C823.295 673.427 827.003 673.448 829.728 672.317L885.692 704.659C885.734 704.628 885.779 704.594 885.823 704.56C885.779 704.594 885.734 704.628 885.692 704.662C883.794 706.213 883.802 708.308 885.711 709.862ZM763.927 703.581C761.063 702.26 756.972 702.281 754.158 703.638H754.156L699.035 671.781C701.448 670.088 701.385 667.608 698.857 665.946L754.043 633.845C756.77 635.231 760.767 635.328 763.654 634.131L818.882 666.048C817.935 666.823 817.463 667.728 817.463 668.637C817.463 669.631 818.029 670.626 819.159 671.448L763.929 703.581H763.927ZM764.588 703.922C764.391 703.809 764.184 703.704 763.971 703.604C764.184 703.701 764.391 703.809 764.588 703.922ZM698.081 742.15C698 742.108 697.916 742.068 697.829 742.029C694.971 740.711 690.89 740.73 688.079 742.079H688.076L632.951 710.219C635.351 708.526 635.285 706.053 632.76 704.394L687.945 672.293C687.93 672.285 687.911 672.275 687.896 672.264C687.911 672.272 687.927 672.283 687.945 672.291C690.678 673.682 694.685 673.774 697.575 672.571L752.797 704.486C750.804 706.106 750.896 708.324 753.065 709.896L697.832 742.026C697.916 742.066 698 742.105 698.081 742.15ZM620.524 709.867L565.16 742.076H565.157C562.343 740.979 558.577 741.066 555.926 742.331L500.609 710.364C501.771 709.542 502.351 708.537 502.351 707.529C502.351 706.4 501.621 705.274 500.166 704.397L555.328 672.309C555.312 672.298 555.297 672.288 555.281 672.28C555.297 672.288 555.312 672.298 555.331 672.306C558.069 673.832 562.251 673.968 565.236 672.718L620.642 704.736C618.753 706.261 618.717 708.319 620.524 709.867ZM500.562 710.395C500.441 710.482 500.318 710.563 500.184 710.639C500.316 710.56 500.441 710.479 500.562 710.395ZM487.977 709.844L432.5 742.116C429.731 741.144 426.141 741.262 423.587 742.478L367.226 709.902C369.437 708.327 369.524 706.082 367.494 704.449L422.803 672.275C425.509 673.396 429.17 673.393 431.855 672.259L488.3 704.88C486.472 706.347 486.37 708.314 487.98 709.844H487.977ZM366.219 703.649C366.188 703.63 366.154 703.615 366.122 703.602C363.269 702.231 359.131 702.223 356.278 703.578L301.643 672.002C304.121 670.235 303.932 667.629 301.084 665.983C301.074 665.977 301.066 665.972 301.055 665.967L356.218 633.879C356.218 633.879 356.238 633.889 356.246 633.895C358.989 635.478 363.251 635.632 366.274 634.357C366.356 634.323 366.437 634.288 366.516 634.252C366.434 634.288 366.356 634.325 366.274 634.359L420.991 665.98C418.94 667.629 419.061 669.899 421.337 671.485L366.128 703.599C366.159 703.615 366.19 703.63 366.222 703.649H366.219ZM355.777 703.84C355.748 703.854 355.722 703.869 355.696 703.885C355.677 703.893 355.659 703.903 355.643 703.914C355.659 703.903 355.675 703.893 355.693 703.882C355.722 703.867 355.748 703.854 355.777 703.84ZM300.615 589.094C300.51 589.023 300.395 588.952 300.282 588.884C300.395 588.952 300.51 589.02 300.615 589.094L355.814 556.982C357.259 557.691 359.042 558.045 360.822 558.045C362.414 558.045 364.006 557.762 365.351 557.197L421.489 589.642C419.714 591.078 419.577 592.989 421.08 594.501C421.153 594.575 421.229 594.646 421.308 594.714C421.229 594.646 421.153 594.575 421.08 594.504L365.538 626.812H365.535C362.781 625.899 359.28 626.041 356.773 627.238L300.722 594.845C303.083 593.173 303.041 590.748 300.615 589.094ZM300.187 512.215L355.41 480.091C358.134 481.366 361.992 481.422 364.798 480.253L420.571 512.486C418.67 514.032 418.667 516.121 420.553 517.678L365.225 549.863C363.893 549.322 362.333 549.052 360.775 549.052C359.026 549.052 357.277 549.396 355.853 550.078L300.174 517.901C302.506 516.255 302.508 513.869 300.185 512.215H300.187ZM487.883 480.025C487.922 480.046 487.964 480.064 488.003 480.085C490.728 481.422 494.654 481.5 497.504 480.319L553.652 512.769C551.898 514.203 551.772 516.1 553.27 517.607L497.727 549.918H497.725C494.961 549 491.436 549.147 488.929 550.357L432.883 517.967C435.267 516.297 435.238 513.859 432.805 512.197L488.003 480.088C487.964 480.067 487.922 480.046 487.883 480.025ZM554.497 518.536C554.497 518.536 554.515 518.547 554.523 518.552C557.25 520.127 561.48 520.29 564.499 519.038H564.501L619.233 550.666C617.219 552.312 617.35 554.567 619.614 556.14L564.404 588.259C562.97 587.569 561.208 587.225 559.451 587.225C557.694 587.225 555.937 587.569 554.51 588.259L499.883 556.688C502.403 554.922 502.227 552.297 499.364 550.64C499.353 550.635 499.345 550.63 499.335 550.624L554.497 518.536ZM553.673 517.972C553.867 518.13 554.083 518.279 554.316 518.429C554.083 518.282 553.867 518.13 553.673 517.972ZM620.505 480.041C620.531 480.057 620.56 480.072 620.586 480.088C620.597 480.096 620.605 480.101 620.615 480.106C623.335 481.679 627.557 481.842 630.575 480.597L685.31 512.231C683.312 513.877 683.445 516.124 685.703 517.696L630.491 549.811C630.583 549.858 630.675 549.903 630.764 549.95C630.675 549.903 630.583 549.858 630.491 549.813C627.617 548.433 623.44 548.435 620.584 549.819L565.959 518.25C565.883 518.3 565.807 518.353 565.729 518.403C565.807 518.353 565.883 518.3 565.957 518.248C568.49 516.484 568.317 513.853 565.451 512.194C565.44 512.189 565.43 512.184 565.422 512.179L620.584 480.091C620.555 480.075 620.529 480.057 620.503 480.041H620.505ZM687.169 518.484H687.172C689.854 519.597 693.481 519.602 696.159 518.5L752.621 551.131C750.844 552.593 750.752 554.538 752.349 556.056C752.467 556.168 752.595 556.281 752.734 556.389C752.595 556.281 752.467 556.171 752.349 556.058L696.872 588.327C694.079 587.348 690.455 587.477 687.896 588.718L631.543 556.153C633.803 554.575 633.908 552.307 631.863 550.659L687.169 518.484ZM685.929 511.788C686.005 511.74 686.081 511.693 686.159 511.646C686.212 511.614 686.264 511.585 686.319 511.559C686.264 511.588 686.212 511.617 686.159 511.648C686.081 511.696 686.005 511.74 685.929 511.788ZM697.037 511.596C697.069 511.612 697.098 511.628 697.126 511.646C697.205 511.69 697.278 511.738 697.352 511.782C697.278 511.738 697.202 511.693 697.126 511.648C697.098 511.63 697.069 511.612 697.037 511.596ZM697.958 512.213L753.264 480.036C755.944 481.146 759.558 481.154 762.235 480.059L818.703 512.693C816.936 514.155 816.852 516.095 818.444 517.607C818.467 517.631 818.491 517.654 818.517 517.678C818.491 517.654 818.467 517.633 818.444 517.61L762.967 549.879C761.734 549.446 760.339 549.231 758.947 549.231C757.174 549.231 755.404 549.58 753.972 550.278L697.625 517.712C699.898 516.135 700.006 513.867 697.958 512.213ZM752.233 479.524C752.252 479.534 752.27 479.547 752.291 479.558C752.328 479.581 752.365 479.602 752.404 479.624C752.365 479.602 752.328 479.581 752.288 479.56C752.27 479.547 752.252 479.534 752.233 479.524ZM763.053 479.671C763.122 479.634 763.19 479.597 763.258 479.558C763.297 479.537 763.337 479.513 763.373 479.49C763.337 479.513 763.297 479.537 763.258 479.56L763.053 479.671ZM884.9 556.079L829.534 588.285C828.228 587.776 826.72 587.524 825.209 587.524C823.439 587.524 821.669 587.873 820.235 588.574L764.931 556.612C767.446 554.866 767.312 552.273 764.538 550.609C764.517 550.596 764.493 550.582 764.472 550.569C764.496 550.582 764.517 550.596 764.54 550.606L819.705 518.518C821.208 519.355 823.148 519.773 825.086 519.773C826.649 519.773 828.212 519.502 829.542 518.956L884.966 550.987C883.128 552.507 883.107 554.541 884.9 556.079ZM885.249 633.002L830.016 665.132C830.129 665.185 830.244 665.242 830.355 665.298C830.244 665.242 830.129 665.187 830.016 665.135C827.147 663.812 823.046 663.835 820.232 665.198L765.112 633.343C764.968 633.443 764.816 633.543 764.653 633.635C764.813 633.54 764.968 633.443 765.112 633.343C767.538 631.65 767.477 629.164 764.947 627.5L820.132 595.399C822.854 596.782 826.841 596.88 829.728 595.69L884.958 627.611C882.991 629.233 883.091 631.438 885.249 633.002ZM752.713 632.973L697.347 665.18C696.043 664.673 694.533 664.418 693.025 664.418C691.265 664.418 689.508 664.762 688.079 665.452L632.77 633.488C635.259 631.742 635.117 629.159 632.353 627.503C632.337 627.492 632.319 627.482 632.301 627.471C632.319 627.482 632.337 627.492 632.353 627.5L687.518 595.412C690.248 596.932 694.407 597.074 697.389 595.837L752.802 627.862C750.94 629.385 750.912 631.43 752.713 632.973ZM620.164 632.95C620.243 633.026 620.327 633.102 620.416 633.175C620.327 633.102 620.243 633.029 620.164 632.952L564.688 665.221C561.905 664.245 558.299 664.371 555.74 665.597L499.385 633.026C501.619 631.451 501.713 629.196 499.676 627.553L554.985 595.378C557.68 596.496 561.326 596.496 564.006 595.378H564.008L620.461 628.004C619.506 628.781 619.029 629.692 619.029 630.606C619.029 631.419 619.409 632.233 620.164 632.95ZM367.171 627.537C367.171 627.537 367.153 627.526 367.142 627.521C366.799 627.324 366.432 627.151 366.044 626.996C366.432 627.146 366.799 627.322 367.145 627.519L422.307 595.433C422.215 595.381 422.126 595.323 422.042 595.268C422.126 595.323 422.215 595.378 422.307 595.431C422.318 595.436 422.326 595.444 422.336 595.449C425.071 597.029 429.322 597.184 432.346 595.919L487.07 627.542C486.107 628.319 485.628 629.235 485.628 630.154C485.628 631.178 486.228 632.202 487.424 633.036L432.215 665.153C429.356 663.783 425.21 663.775 422.354 665.137L367.719 633.564C370.213 631.795 370.024 629.185 367.171 627.537ZM487.332 627.351C487.503 627.225 487.681 627.104 487.88 626.988C487.969 626.939 488.058 626.889 488.15 626.839C488.058 626.889 487.969 626.939 487.88 626.991C487.683 627.104 487.503 627.227 487.332 627.351ZM433.801 595.126C434.971 594.302 435.553 593.291 435.553 592.281C435.553 591.126 434.79 589.971 433.266 589.089C433.258 589.083 433.248 589.078 433.237 589.073L488.402 556.985C488.221 556.88 488.048 556.77 487.888 556.654C488.048 556.767 488.218 556.877 488.402 556.982C488.41 556.99 488.42 556.995 488.431 557.001C491.161 558.578 495.401 558.736 498.422 557.478L553.152 589.107C551.127 590.75 551.253 593.013 553.519 594.591L498.307 626.705C495.443 625.332 491.287 625.329 488.431 626.697L433.801 595.126ZM553.894 588.592C553.92 588.574 553.946 588.556 553.975 588.54C554.043 588.501 554.117 588.466 554.185 588.43C554.114 588.469 554.043 588.503 553.975 588.543C553.946 588.558 553.92 588.577 553.894 588.592ZM564.806 588.469C564.853 588.493 564.897 588.514 564.942 588.54C565.018 588.585 565.094 588.632 565.167 588.676C565.094 588.632 565.018 588.587 564.942 588.543C564.897 588.516 564.853 588.493 564.806 588.469ZM565.464 594.591C567.714 593.013 567.813 590.75 565.771 589.107L621.079 556.932C623.77 558.048 627.402 558.051 630.082 556.94C630.085 556.94 630.085 556.94 630.087 556.94L686.542 589.569C684.749 591.034 684.657 592.984 686.257 594.504C686.304 594.549 686.354 594.593 686.403 594.638C686.354 594.596 686.304 594.551 686.257 594.507L630.782 626.776C629.55 626.343 628.155 626.127 626.762 626.127C625.003 626.127 623.246 626.471 621.819 627.162L565.464 594.593V594.591ZM619.855 550.223C619.923 550.178 619.994 550.136 620.065 550.094C620.101 550.073 620.138 550.055 620.175 550.036C620.138 550.057 620.101 550.076 620.065 550.097C619.994 550.136 619.923 550.178 619.855 550.223ZM630.9 550.023C630.945 550.047 630.99 550.071 631.031 550.094C631.047 550.105 631.063 550.113 631.076 550.123C631.063 550.115 631.047 550.105 631.031 550.097C630.99 550.073 630.945 550.047 630.9 550.023ZM698.852 595.05C701.351 593.302 701.215 590.716 698.445 589.055L753.61 556.966C756.335 558.481 760.486 558.625 763.465 557.397L818.882 589.425C817.03 590.944 817.004 592.987 818.803 594.528L763.436 626.734C762.133 626.224 760.622 625.973 759.112 625.973C757.35 625.973 755.585 626.319 754.156 627.012L698.852 595.05ZM819.542 588.963C819.605 588.921 819.663 588.879 819.731 588.842C819.663 588.881 819.605 588.921 819.542 588.963ZM487.571 551.205C485.806 552.64 485.675 554.544 487.175 556.053H487.177L431.632 588.364C431.887 588.448 432.133 588.545 432.375 588.648C432.133 588.545 431.887 588.451 431.632 588.364C428.874 587.451 425.357 587.595 422.853 588.797L366.807 556.405L366.804 556.407C366.796 556.407 366.791 556.415 366.783 556.418C366.791 556.415 366.799 556.41 366.804 556.405H366.807C369.172 554.733 369.141 552.302 366.71 550.645L421.911 518.536C424.641 519.873 428.575 519.946 431.425 518.757L487.571 551.205ZM433.305 671.464C435.527 669.889 435.616 667.642 433.583 666.001L488.89 633.826H488.892C491.593 634.947 495.246 634.945 497.932 633.819L554.379 666.442C552.564 667.909 552.462 669.87 554.069 671.398L498.593 703.67C495.816 702.696 492.22 702.817 489.663 704.037L433.305 671.464ZM566.688 671.926C567.858 671.101 568.443 670.091 568.443 669.08C568.443 667.951 567.714 666.823 566.258 665.951L621.426 633.861C624.158 635.38 628.33 635.52 631.312 634.278L686.723 666.3C684.848 667.823 684.814 669.873 686.618 671.422L631.254 703.628C628.435 702.531 624.656 702.62 622.005 703.89L566.691 671.926H566.688ZM896.824 556.751C896.982 556.657 897.129 556.565 897.27 556.468C897.129 556.565 896.982 556.659 896.824 556.751ZM884.785 474.255C883.028 475.717 882.944 477.652 884.536 479.161C884.615 479.238 884.696 479.311 884.785 479.387C884.698 479.314 884.612 479.24 884.533 479.164L829.059 511.433C827.827 511 826.429 510.785 825.036 510.785C823.258 510.785 821.486 511.137 820.051 511.84H820.049L763.704 479.274C765.99 477.697 766.103 475.421 764.047 473.764L819.356 441.59C820.704 442.149 822.288 442.43 823.872 442.43C825.456 442.43 826.985 442.16 828.312 441.619L884.782 474.255H884.785ZM751.394 473.793C749.409 475.437 749.545 477.678 751.798 479.245L696.591 511.365H696.589C693.709 509.982 689.521 509.987 686.666 511.378H686.663L632.041 479.812C632.007 479.836 631.97 479.86 631.931 479.886C631.968 479.86 632.004 479.833 632.041 479.81C634.587 478.046 634.42 475.408 631.545 473.746C631.538 473.741 631.53 473.736 631.519 473.73L686.681 441.642C686.681 441.642 686.7 441.653 686.71 441.658C689.424 443.228 693.633 443.393 696.652 442.157L751.394 473.793ZM486.655 474.051C485.709 474.822 485.237 475.731 485.237 476.639C485.237 477.547 485.709 478.455 486.65 479.23L431.32 511.415C428.483 510.265 424.623 510.341 421.932 511.638L366.256 479.463C368.603 477.817 368.608 475.423 366.28 473.764L421.502 441.642C424.221 442.918 428.071 442.973 430.875 441.813L486.655 474.051ZM434.53 748.801C436.977 747.056 436.822 744.494 434.074 742.845C434.074 742.845 434.073 742.844 434.071 742.843L489.239 710.755C491.984 712.283 496.175 712.416 499.162 711.156C499.206 711.138 499.251 711.12 499.293 711.099C499.248 711.12 499.206 711.141 499.162 711.159L554.56 743.173C552.661 744.699 552.619 746.762 554.434 748.316L499.067 780.522C496.259 779.43 492.498 779.511 489.847 780.771L434.53 748.801ZM566.872 748.657C569.258 746.964 569.185 744.496 566.665 742.843C566.589 742.793 566.507 742.743 566.426 742.696C566.507 742.743 566.589 742.79 566.665 742.84L621.85 710.742C621.767 710.7 621.688 710.652 621.609 710.608C621.69 710.652 621.769 710.697 621.85 710.739C624.588 712.133 628.606 712.222 631.498 711.012L686.718 742.924C684.709 744.544 684.796 746.77 686.97 748.345L631.737 780.475H631.734C628.881 779.162 624.814 779.175 622 780.519L566.872 748.657ZM831.435 748.893C831.605 748.791 831.768 748.689 831.92 748.581C831.768 748.689 831.605 748.794 831.435 748.893ZM962.261 588.27C962.468 588.367 962.67 588.469 962.864 588.582C962.67 588.472 962.468 588.367 962.261 588.27ZM884.961 326.3C884.961 326.3 884.979 326.31 884.99 326.316C887.688 327.875 891.865 328.048 894.881 326.835L949.639 358.482C947.691 360.12 947.84 362.346 950.077 363.906L894.868 396.022C891.973 394.631 887.751 394.644 884.895 396.059L830.281 364.496C832.867 362.73 832.715 360.076 829.827 358.406C829.817 358.398 829.806 358.393 829.799 358.388L884.961 326.3ZM828.805 365.276L883.558 396.92C881.596 398.561 881.74 400.792 883.985 402.354L828.776 434.471H828.773C825.883 433.082 821.674 433.093 818.819 434.5L764.199 402.937C764.079 403.021 763.948 403.102 763.811 403.181C763.945 403.099 764.076 403.018 764.199 402.934C766.772 401.167 766.615 398.519 763.733 396.852C763.722 396.847 763.712 396.841 763.704 396.836L818.866 364.748C818.866 364.748 818.887 364.759 818.895 364.764C821.601 366.326 825.789 366.496 828.805 365.276ZM818.858 358.404C818.903 358.38 818.945 358.356 818.989 358.335C818.945 358.356 818.903 358.38 818.861 358.406C818.779 358.453 818.698 358.501 818.619 358.551C818.695 358.501 818.777 358.453 818.858 358.404ZM762.862 326.043C762.935 325.998 763.006 325.956 763.077 325.911C763.006 325.956 762.935 326.003 762.862 326.045C762.833 326.061 762.802 326.077 762.773 326.092C762.802 326.077 762.833 326.061 762.862 326.043ZM752.375 326.297C755.076 327.623 758.962 327.709 761.808 326.557L817.977 359.018C816.27 360.446 816.157 362.325 817.641 363.816L762.096 396.13C760.903 395.734 759.571 395.537 758.239 395.537C756.455 395.537 754.675 395.891 753.238 396.6L697.202 364.215C699.639 362.543 699.628 360.081 697.174 358.409L752.375 326.297ZM686.28 364.746C688.989 366.074 692.886 366.158 695.731 364.998L751.895 397.456C750.175 398.886 750.059 400.768 751.546 402.265L696.004 434.578C696.004 434.578 696.003 434.578 696.001 434.576C693.222 433.654 689.671 433.807 687.161 435.038H687.159L631.123 402.653C632.327 401.824 632.93 400.8 632.93 399.774C632.93 398.747 632.314 397.697 631.081 396.857L686.28 364.748C686.196 364.706 686.118 364.664 686.039 364.622C686.118 364.664 686.199 364.706 686.28 364.746ZM685.601 364.373C685.407 364.249 685.226 364.121 685.058 363.99C685.226 364.118 685.407 364.247 685.601 364.373ZM630.489 325.764C630.376 325.84 630.263 325.914 630.14 325.985C630.263 325.914 630.376 325.838 630.489 325.764ZM564.559 358.425L619.779 326.3H619.781C622.482 327.568 626.303 327.631 629.104 326.491L684.898 358.737C683.044 360.278 683.055 362.349 684.927 363.89L629.6 396.075C626.744 394.917 622.857 394.999 620.164 396.319L564.499 364.147C566.882 362.501 566.898 360.094 564.559 358.425ZM553.689 364.748C556.395 366.016 560.224 366.079 563.027 364.932L618.819 397.175C617.888 397.941 617.424 398.844 617.424 399.745C617.424 400.645 617.896 401.561 618.837 402.336L563.507 434.521C563.521 434.526 563.534 434.531 563.547 434.539C563.534 434.531 563.521 434.526 563.507 434.523C560.66 433.368 556.778 433.447 554.088 434.76L498.414 402.588L498.417 402.585C500.79 400.939 500.803 398.535 498.467 396.87L553.689 364.748ZM431.963 358.43C431.963 358.43 431.96 358.43 431.96 358.427L487.169 326.313H487.172C489.881 327.615 493.754 327.688 496.581 326.531L552.187 358.666C551.256 359.435 550.791 360.336 550.791 361.236C550.791 362.136 551.298 363.115 552.305 363.908L497.017 396.072C495.653 395.492 494.04 395.203 492.427 395.203C490.657 395.203 488.887 395.553 487.455 396.251L431.971 364.187C431.837 364.281 431.693 364.37 431.541 364.459C431.693 364.37 431.837 364.278 431.971 364.187C434.365 362.525 434.36 360.094 431.963 358.43ZM421.077 364.761C423.794 366.066 427.678 366.137 430.507 364.971L486.105 397.104C484.196 398.676 484.232 400.803 486.212 402.357L430.924 434.521H430.922C428.069 433.308 424.114 433.366 421.379 434.691H421.376L365.892 402.622C368.27 400.963 368.26 398.537 365.868 396.876C365.792 396.823 365.713 396.771 365.632 396.718C365.713 396.771 365.792 396.823 365.868 396.873L421.077 364.759V364.761ZM299.38 358.425L354.544 326.337C354.579 326.358 354.615 326.379 354.649 326.4C357.371 327.969 361.593 328.135 364.614 326.89L419.661 358.703C418.722 359.475 418.253 360.38 418.253 361.286C418.253 362.191 418.741 363.131 419.711 363.913L364.402 396.088H364.399C361.551 394.909 357.644 394.978 354.933 396.293L299.999 364.543C302.529 362.777 302.356 360.147 299.487 358.488C299.451 358.467 299.414 358.446 299.38 358.427C299.304 358.385 299.225 358.343 299.144 358.301C299.225 358.341 299.304 358.383 299.38 358.425ZM288.56 364.845C291.284 366.42 295.517 366.583 298.538 365.331L353.579 397.141C351.673 398.697 351.691 400.805 353.619 402.359L298.31 434.534C296.964 433.977 295.381 433.699 293.799 433.699C292.04 433.699 290.283 434.043 288.856 434.731L233.919 402.981C235.097 402.154 235.684 401.141 235.684 400.128C235.684 398.973 234.921 397.815 233.395 396.933C233.361 396.912 233.324 396.891 233.287 396.873C233.18 396.813 233.07 396.755 232.96 396.7C233.072 396.755 233.183 396.81 233.287 396.87L288.452 364.782C288.489 364.803 288.523 364.824 288.56 364.845ZM166.923 364.263C169.33 362.575 169.275 360.102 166.765 358.44L221.953 326.337C223.414 327.074 225.237 327.444 227.057 327.444C228.633 327.444 230.206 327.166 231.541 326.612L287.686 359.06C286.742 359.832 286.27 360.74 286.27 361.648C286.27 362.404 286.596 363.16 287.249 363.84L231.659 396.177C230.495 395.805 229.199 395.618 227.904 395.618C226.147 395.618 224.39 395.962 222.963 396.65L166.923 364.263ZM167.838 441.419C170.342 439.653 170.161 437.033 167.3 435.382C167.266 435.361 167.229 435.34 167.193 435.321C167.03 435.229 166.865 435.145 166.694 435.067C166.865 435.145 167.03 435.229 167.193 435.319L222.357 403.231C222.394 403.252 222.428 403.273 222.465 403.294C225.195 404.871 229.44 405.031 232.461 403.771L287.498 435.579C285.581 437.138 285.594 439.246 287.524 440.808L232.218 472.982C229.38 471.809 225.494 471.869 222.782 473.171L167.84 441.419H167.838ZM233.345 479.752C233.306 479.776 233.269 479.799 233.23 479.823C233.193 479.844 233.156 479.865 233.117 479.886C233.156 479.865 233.193 479.844 233.23 479.82C233.269 479.799 233.306 479.776 233.345 479.752ZM167.138 518.271C167.064 518.313 166.988 518.355 166.912 518.395C166.988 518.353 167.061 518.311 167.135 518.269C167.172 518.248 167.211 518.227 167.248 518.203C167.214 518.227 167.177 518.248 167.138 518.271ZM167.652 517.938C169.993 516.279 169.967 513.872 167.589 512.221L222.798 480.106C222.617 480.017 222.439 479.923 222.266 479.826C222.242 479.81 222.221 479.794 222.197 479.781C222.221 479.794 222.242 479.81 222.266 479.823C222.439 479.923 222.614 480.017 222.798 480.106H222.801C225.533 481.419 229.448 481.482 232.28 480.296L287.865 512.418C285.916 513.993 285.943 516.135 287.933 517.702L232.642 549.863C229.805 548.658 225.884 548.708 223.149 550.013L167.654 517.941L167.652 517.938ZM168.016 594.777C169.167 593.955 169.742 592.955 169.742 591.952C169.742 590.95 169.162 589.936 168 589.11L223.225 556.985C225.958 558.266 229.839 558.318 232.648 557.132L288.413 589.362C286.485 590.908 286.472 593.01 288.371 594.572L233.044 626.757H233.041C230.222 625.616 226.388 625.681 223.7 626.957L168.016 594.777ZM168.564 671.721C170.893 670.049 170.846 667.636 168.43 665.988L223.629 633.876C225.074 634.585 226.857 634.939 228.638 634.939C230.243 634.939 231.845 634.651 233.198 634.078L289.328 666.518C287.529 667.957 287.385 669.876 288.895 671.395L233.35 703.707C232.16 703.313 230.828 703.113 229.495 703.113C227.765 703.113 226.034 703.449 224.62 704.116H224.618L168.564 671.721ZM224.518 704.169C224.348 704.25 224.18 704.339 224.02 704.431C224.18 704.337 224.345 704.247 224.518 704.169ZM169.482 748.878C171.931 747.108 171.732 744.52 168.892 742.879C168.881 742.874 168.874 742.869 168.863 742.864L224.028 710.773C224.028 710.773 224.046 710.784 224.057 710.789C226.808 712.38 231.093 712.529 234.119 711.238C234.216 711.196 234.308 711.151 234.402 711.106C234.308 711.151 234.216 711.198 234.119 711.24L288.827 742.856C286.753 744.504 286.86 746.791 289.145 748.379C289.145 748.379 289.147 748.379 289.147 748.381L233.935 780.496C231.093 779.131 226.975 779.118 224.122 780.456L169.482 748.878ZM234.224 857.458H234.221C231.468 856.492 227.906 856.605 225.355 857.797L168.984 825.218C171.155 823.643 171.228 821.417 169.212 819.789L224.521 787.617C224.481 787.602 224.445 787.586 224.405 787.567C224.445 787.583 224.481 787.599 224.521 787.615C227.243 788.743 230.935 788.733 233.626 787.581L290.054 820.194C288.195 821.664 288.077 823.645 289.698 825.186L234.224 857.458ZM290.508 902.453C290.668 902.563 290.836 902.671 291.017 902.776C290.836 902.674 290.668 902.563 290.508 902.453ZM356.155 863.656L300.788 895.864H300.785C297.992 894.778 294.263 894.854 291.617 896.09H291.615L236.29 864.115C238.695 862.372 238.53 859.826 235.794 858.185L290.957 826.095C293.715 827.633 297.94 827.759 300.93 826.478L356.315 858.487C354.382 860.015 354.327 862.094 356.152 863.656H356.155ZM366.88 857.419C364.082 856.329 360.343 856.405 357.694 857.65L302.369 825.677C303.502 824.861 304.069 823.866 304.069 822.871C304.069 821.742 303.34 820.614 301.884 819.739L357.049 787.649C358.554 788.486 360.492 788.906 362.43 788.906C364.043 788.906 365.65 788.617 367.009 788.037L422.396 820.049C420.474 821.58 420.424 823.651 422.244 825.21L366.88 857.419ZM489.847 857.398L434.711 825.535C434.543 825.656 434.365 825.772 434.171 825.882C433.885 826.05 433.586 826.2 433.269 826.333L488.473 858.235C486.43 859.86 486.503 862.102 488.69 863.687C488.714 863.703 488.738 863.721 488.761 863.737C488.738 863.721 488.714 863.706 488.69 863.69L433.458 895.817H433.455C430.62 894.513 426.579 894.518 423.77 895.838L368.632 863.973C368.493 864.073 368.346 864.168 368.189 864.259C368.343 864.168 368.493 864.07 368.632 863.971C370.979 862.28 370.892 859.831 368.385 858.185L423.571 826.081C425.034 826.827 426.867 827.2 428.695 827.2C430.305 827.2 431.913 826.911 433.269 826.333C433.583 826.197 433.885 826.047 434.171 825.882C434.362 825.769 434.543 825.654 434.711 825.533C437.069 823.842 436.99 821.385 434.48 819.737L489.663 787.633H489.666C492.414 789.032 496.453 789.119 499.345 787.893L554.555 819.8C552.525 821.422 552.603 823.653 554.783 825.239L499.55 857.369C496.707 856.062 492.656 856.072 489.847 857.398ZM556.091 902.684C556.052 902.661 556.013 902.637 555.976 902.613C556.015 902.637 556.055 902.658 556.094 902.682C556.138 902.708 556.186 902.731 556.233 902.758C556.183 902.734 556.136 902.71 556.091 902.684ZM555.921 896.41C555.968 896.382 556.013 896.353 556.06 896.324C556.086 896.308 556.115 896.292 556.144 896.279C556.115 896.295 556.089 896.311 556.06 896.326C556.013 896.353 555.968 896.382 555.921 896.41ZM567.061 902.684C567.035 902.7 567.006 902.713 566.979 902.726C567.006 902.713 567.035 902.697 567.061 902.682C567.145 902.632 567.223 902.585 567.302 902.535C567.223 902.585 567.145 902.637 567.061 902.684ZM621.337 863.653L566.02 895.833C563.201 894.675 559.359 894.736 556.66 896.011L500.788 863.721C503.017 862.12 503.069 859.842 500.948 858.201L556.22 826.047C558.944 827.226 562.692 827.236 565.422 826.079L621.368 858.411C619.42 859.968 619.412 862.086 621.337 863.653ZM632.115 857.385C629.29 856.227 625.438 856.29 622.737 857.571L566.869 825.283C569.111 823.68 569.169 821.393 567.04 819.753L622.315 787.599C623.689 788.195 625.325 788.491 626.956 788.491C628.587 788.491 630.148 788.208 631.498 787.638L687.45 819.973C685.512 821.53 685.509 823.643 687.431 825.205L632.115 857.385ZM633.153 864.236C633.009 864.32 632.859 864.401 632.707 864.475C632.859 864.399 633.009 864.317 633.153 864.233C633.205 864.202 633.255 864.173 633.308 864.141C633.255 864.173 633.205 864.204 633.153 864.236ZM754.26 858.587C752.409 860.073 752.325 862.07 754.001 863.609L698.566 895.859C697.307 895.402 695.873 895.172 694.438 895.172C692.702 895.172 690.966 895.51 689.548 896.182L633.68 863.895C636.014 862.23 635.98 859.823 633.588 858.169L688.792 826.058C691.53 827.383 695.469 827.449 698.312 826.252L754.26 858.584V858.587ZM755.058 858.043C755.008 858.07 754.961 858.099 754.916 858.127C754.963 858.096 755.008 858.07 755.055 858.041C755.123 858.002 755.194 857.965 755.265 857.928C755.194 857.965 755.126 858.004 755.058 858.043ZM764.658 857.413H764.656C761.865 856.4 758.215 856.51 755.627 857.747C755.561 857.778 755.496 857.81 755.433 857.841C755.496 857.807 755.561 857.776 755.627 857.744L699.762 825.459C702.109 823.795 702.075 821.38 699.678 819.726L754.882 787.615C754.843 787.596 754.803 787.575 754.764 787.554C754.803 787.575 754.843 787.594 754.882 787.612C757.617 788.938 761.546 789.003 764.388 787.814L820.34 820.152C818.501 821.64 818.423 823.63 820.093 825.165L764.658 857.416V857.413ZM766.025 858.043C765.948 857.999 765.87 857.954 765.789 857.912C765.87 857.954 765.948 857.996 766.025 858.041C766.04 858.049 766.056 858.059 766.072 858.07C766.056 858.059 766.04 858.051 766.025 858.043ZM886.589 863.609L831.183 895.841H831.181C828.383 894.796 824.685 894.896 822.07 896.143L766.575 864.07C769.011 862.343 768.883 859.805 766.206 858.151L821.375 826.06C824.116 827.541 828.246 827.662 831.202 826.425L886.786 858.547C884.929 860.049 884.864 862.068 886.589 863.609ZM897.275 857.395C894.469 856.345 890.761 856.45 888.147 857.702L832.654 825.633C835.104 823.905 834.983 821.362 832.3 819.705C832.24 819.669 832.18 819.632 832.117 819.595C832.028 819.543 831.933 819.493 831.839 819.445C831.933 819.493 832.028 819.54 832.117 819.592C832.18 819.632 832.24 819.669 832.3 819.703L887.47 787.612C890.205 789.09 894.325 789.213 897.278 787.985L952.868 820.11C951.021 821.611 950.964 823.622 952.684 825.163L897.275 857.395ZM1019.18 863.609L963.8 895.823C960.987 894.744 957.231 894.838 954.593 896.103L899.101 864.031C901.529 862.317 901.429 859.802 898.81 858.143L953.985 826.05C953.985 826.05 953.961 826.037 953.951 826.029C953.961 826.037 953.972 826.042 953.985 826.047C956.717 827.491 960.792 827.604 963.722 826.383H963.724L1019.31 858.511C1018.36 859.285 1017.88 860.199 1017.88 861.109C1017.88 862.02 1018.31 862.852 1019.18 863.609ZM1085.39 820.073C1083.54 821.587 1083.5 823.619 1085.28 825.16L1029.9 857.374C1030 857.416 1030.11 857.458 1030.21 857.503C1030.11 857.461 1030 857.419 1029.9 857.377C1027.07 856.293 1023.31 856.39 1020.67 857.663L965.18 825.593C967.624 823.879 967.529 821.357 964.904 819.695L1020.08 787.602C1019.99 787.554 1019.9 787.507 1019.82 787.457C1019.9 787.507 1019.99 787.554 1020.08 787.599C1022.81 789.043 1026.87 789.158 1029.8 787.945C1029.8 787.943 1029.8 787.943 1029.8 787.943L1085.39 820.073H1085.39ZM1085.03 743.234C1085.06 743.205 1085.1 743.179 1085.14 743.15C1085.1 743.179 1085.06 743.208 1085.03 743.236C1083.21 744.733 1083.16 746.736 1084.87 748.269L1029.46 780.498C1026.65 779.448 1022.92 779.556 1020.3 780.824L964.815 748.757C967.291 747.027 967.178 744.473 964.487 742.811L1019.66 710.721C1021.15 711.526 1023.06 711.931 1024.96 711.931C1026.53 711.931 1028.1 711.655 1029.43 711.106L1085.03 743.236L1085.03 743.234ZM1019.32 710.526C1019.37 710.555 1019.42 710.581 1019.47 710.61C1019.53 710.647 1019.59 710.681 1019.65 710.715C1019.59 710.681 1019.53 710.647 1019.47 710.613C1019.42 710.584 1019.37 710.555 1019.32 710.526ZM1030.86 710.34C1030.73 710.434 1030.58 710.524 1030.43 710.613C1030.4 710.631 1030.37 710.65 1030.34 710.668C1030.37 710.65 1030.4 710.629 1030.43 710.61C1030.58 710.524 1030.73 710.432 1030.86 710.34ZM1084.67 666.4C1082.88 667.881 1082.81 669.849 1084.47 671.372L1029.03 703.62C1027.77 703.163 1026.34 702.935 1024.91 702.935C1023.13 702.935 1021.36 703.284 1019.93 703.985H1019.93L964.078 671.705C966.478 670.041 966.465 667.6 964.049 665.935C964.034 665.925 964.021 665.914 964.005 665.904C964.021 665.914 964.036 665.925 964.049 665.933L1019.25 633.819C1021.97 635.134 1025.85 635.21 1028.69 634.05L1084.66 666.4H1084.67ZM1083.94 589.348C1082.07 590.897 1082.09 592.979 1083.99 594.522L1028.67 626.702C1027.33 626.151 1025.76 625.875 1024.19 625.875C1022.41 625.875 1020.64 626.227 1019.2 626.933L963.349 594.654C965.67 593.05 965.751 590.729 963.598 589.07L1018.87 556.914C1018.87 556.914 1018.87 556.914 1018.87 556.914C1021.56 558.077 1025.24 558.103 1027.95 556.995H1027.96L1083.94 589.346V589.348ZM1083.2 512.299C1081.27 513.914 1081.38 516.106 1083.53 517.662L1028.3 549.792C1026.88 549.144 1025.17 548.818 1023.47 548.818C1021.76 548.818 1019.9 549.173 1018.46 549.882L963.352 518.03C965.817 516.337 965.772 513.83 963.226 512.158L1018.41 480.054C1021.12 481.432 1025.07 481.537 1027.95 480.369H1027.96L1083.2 512.299ZM1083.21 435.676C1081.41 437.193 1081.4 439.209 1083.18 440.737L1027.81 472.943C1024.96 471.833 1021.12 471.938 1018.47 473.255L963.171 441.296C965.725 439.55 965.607 436.938 962.82 435.266L1017.98 403.176C1019.49 404.013 1021.43 404.43 1023.37 404.43C1024.91 404.43 1026.45 404.165 1027.77 403.635L1083.21 435.676ZM1083.03 358.944C1081.31 360.401 1081.24 362.32 1082.82 363.819L1027.34 396.091C1026.11 395.658 1024.71 395.44 1023.32 395.44C1021.52 395.44 1019.73 395.802 1018.28 396.521L961.944 363.961C964.27 362.38 964.393 360.086 962.327 358.422L1017.64 326.25H1017.64C1020.29 327.35 1023.87 327.366 1026.54 326.297L1083.03 358.942V358.944ZM1094.9 358.312C1094.83 358.272 1094.77 358.236 1094.7 358.196C1094.77 358.233 1094.83 358.27 1094.9 358.309C1094.91 358.309 1094.91 358.317 1094.92 358.322C1094.91 358.32 1094.91 358.317 1094.9 358.312Z" fill="url(#paint1_radial_3172_29927)"/>
<defs>
<filter id="filter0_f_3172_29927" x="0" y="0" width="1219" height="1219" filterUnits="userSpaceOnUse" color-interpolation-filters="sRGB">
<feFlood flood-opacity="0" result="BackgroundImageFix"/>
<feBlend mode="normal" in="SourceGraphic" in2="BackgroundImageFix" result="shape"/>
<feGaussianBlur stdDeviation="150" result="effect1_foregroundBlur_3172_29927"/>
</filter>
<linearGradient id="paint0_linear_3172_29927" x1="300" y1="574.217" x2="820.398" y2="574.217" gradientUnits="userSpaceOnUse">
<stop stop-color="#1E57F7"/>
<stop offset="1" stop-color="#2BF9EB"/>
</linearGradient>
<radialGradient id="paint1_radial_3172_29927" cx="0" cy="0" r="1" gradientUnits="userSpaceOnUse" gradientTransform="translate(626.5 615.001) rotate(90) scale(315.001 503.5)">
<stop stop-color="white"/>
<stop offset="1" stop-color="white" stop-opacity="0"/>
</radialGradient>
</defs>
</svg>
