<svg width="83" height="90" viewBox="0 0 83 90" fill="none" xmlns="http://www.w3.org/2000/svg">
<path d="M67.9922 83.256H8.26651C7.42766 83.256 6.74133 82.5694 6.74133 81.7303V49.5079H9.79168V80.2046H67.9922V83.256Z" fill="white"/>
<path d="M8.26651 50.1334C3.70624 50.1334 0 46.426 0 41.8642C0 37.3024 3.70624 33.595 8.26651 33.595C12.8268 33.595 16.5329 37.3024 16.5329 41.8642C16.5329 46.426 12.8268 50.1334 8.26651 50.1334ZM8.26651 36.6311C5.38393 36.6311 3.05035 38.9807 3.05035 41.849C3.05035 44.7173 5.39918 47.0668 8.26651 47.0668C11.1338 47.0668 13.4826 44.7173 13.4826 41.849C13.4826 38.9807 11.1338 36.6311 8.26651 36.6311Z" fill="white"/>
<path d="M74.7335 89.9995C70.1732 89.9995 66.4671 86.2921 66.4671 81.7303C66.4671 77.1685 70.1732 73.4611 74.7335 73.4611C79.2938 73.4611 83 77.1685 83 81.7303C83 86.2921 79.2938 89.9995 74.7335 89.9995ZM74.7335 76.4972C71.8509 76.4972 69.5174 78.8468 69.5174 81.7151C69.5174 84.5833 71.8662 86.9329 74.7335 86.9329C77.6008 86.9329 79.9497 84.5833 79.9497 81.7151C79.9497 78.8468 77.6008 76.4972 74.7335 76.4972Z" fill="white"/>
<path d="M60.5341 40.308H57.4838V33.7934C57.4838 26.6837 51.7035 20.9014 44.5961 20.9014C37.4888 20.9014 31.7084 26.6837 31.7084 33.7934V40.308H28.6581V33.7934C28.6581 25.0054 35.8111 17.85 44.5961 17.85C53.3811 17.85 60.5341 25.0054 60.5341 33.7934V40.308Z" fill="white"/>
<path d="M61.5561 73.5679H27.4531C25.4399 73.5679 23.808 71.9354 23.808 69.9215V42.444C23.808 40.4301 25.4399 38.7976 27.4531 38.7976H61.5561C63.5693 38.7976 65.2012 40.4301 65.2012 42.444V69.9215C65.2012 71.9354 63.5693 73.5679 61.5561 73.5679ZM27.4531 41.8337C27.1176 41.8337 26.8584 42.1083 26.8584 42.4287V69.9063C26.8584 70.2419 27.1328 70.5013 27.4531 70.5013H61.5561C61.8916 70.5013 62.1508 70.2267 62.1508 69.9063V42.4287C62.1508 42.0931 61.8764 41.8337 61.5561 41.8337H27.4531Z" fill="white"/>
<path d="M75.6639 57.7618H50.1935V54.7105H74.1387V9.77913H23.3962V6.72777H75.6639C76.5028 6.72777 77.1891 7.41433 77.1891 8.25345V56.2362C77.1891 57.0753 76.5028 57.7618 75.6639 57.7618Z" fill="white"/>
<path d="M44.5045 63.3916C40.5238 63.3916 37.2905 60.1572 37.2905 56.1751C37.2905 52.1931 40.5238 48.9587 44.5045 48.9587C48.4852 48.9587 51.7187 52.1931 51.7187 56.1751C51.7187 60.1572 48.4852 63.3916 44.5045 63.3916ZM44.5045 52.01C42.2168 52.01 40.3409 53.8714 40.3409 56.1751C40.3409 58.4789 42.2015 60.3403 44.5045 60.3403C46.8076 60.3403 48.6683 58.4789 48.6683 56.1751C48.6683 53.8714 46.8076 52.01 44.5045 52.01Z" fill="white"/>
<path d="M16.6397 16.5379C12.0794 16.5379 8.37328 12.8305 8.37328 8.26871C8.37328 3.70692 12.0794 -0.000488281 16.6397 -0.000488281C21.2 -0.000488281 24.9061 3.70692 24.9061 8.26871C24.9061 12.8305 21.2 16.5379 16.6397 16.5379ZM16.6397 3.03562C13.7571 3.03562 11.4236 5.38517 11.4236 8.25345C11.4236 11.1217 13.7724 13.4713 16.6397 13.4713C19.507 13.4713 21.8558 11.1217 21.8558 8.25345C21.8558 5.38517 19.507 3.03562 16.6397 3.03562Z" fill="white"/>
</svg>
