<svg width="78" height="369" viewBox="0 0 78 369" fill="none" xmlns="http://www.w3.org/2000/svg">
<path fill-rule="evenodd" clip-rule="evenodd" d="M51.3998 1.36901C66.3778 5.4109 78 14.12 78 21.4244C78 26.6354 73.3983 26.9435 69.1878 22.0497C63.8859 15.6788 46.7254 9.14469 37.9132 10.2322C32.2931 10.8575 26.5274 13.9659 21.9258 18.8597C14.9052 26.2457 11.7041 35.8791 11.7041 49.9532C11.7041 65.3414 14.5869 77.0049 24.5722 102.027C33.7755 125.19 37.2039 134.824 39.7775 144.775C47.3438 173.92 43.679 187.758 24.4904 202.367C21.2893 204.778 18.7156 207.034 18.7156 207.261C18.7974 207.496 20.7436 209.128 23.1626 210.84C34.8576 219.232 40.0049 229.101 42.1966 247.834C43.3697 257.857 42.2784 268.505 38.6044 283.196C35.6397 295.403 33.539 309.622 33.539 317.941C33.6208 329.759 38.2225 342.347 46.4072 353.077C51.7909 360.146 54.7555 362.248 59.6663 362.792C62.9402 363.1 63.6405 363.49 63.8041 364.894C64.3498 368.547 56.938 370.332 51.0087 367.849C49.5264 367.223 46.1706 364.74 43.597 362.248C34.8576 353.929 27.8461 341.341 25.3452 329.369C23.0808 318.485 24.2539 299.753 28.3826 282.19C32.4386 265.016 33.0661 252.736 30.4925 240.375C28.5464 230.968 26.1273 226.537 19.8069 220.637C13.4866 214.728 10.9947 213.568 6.08389 214.112C1.56413 214.656 0 213.568 0 209.989C0 207.578 0.309158 207.27 4.83801 205.013C11.0766 202.059 25.1179 191.102 28.0826 186.979C32.4477 181.07 33.7754 176.022 33.3116 167.313C32.6842 154.181 29.3375 142.989 15.6873 109.249C6.94788 87.4902 3.21024 75.5912 1.49146 63.7011C0.318314 55.5358 0.945839 38.3623 2.66462 32.0638C6.25678 18.9322 14.2868 8.66434 25.3634 3.22682C30.8199 0.508061 32.0749 0.272472 38.5407 0.0368465C43.7698 -0.117217 47.1165 0.190874 51.4089 1.35994L51.3998 1.36901Z" fill="#0077B5"/>
</svg>
