<svg width="108" height="29" viewBox="0 0 108 29" fill="none" xmlns="http://www.w3.org/2000/svg">
<g clip-path="url(#clip0_197_156)">
<mask id="mask0_197_156" style="mask-type:luminance" maskUnits="userSpaceOnUse" x="0" y="0" width="108" height="29">
<path d="M107.77 0H0V28.45H107.77V0Z" fill="white"/>
</mask>
<g mask="url(#mask0_197_156)">
<path fill-rule="evenodd" clip-rule="evenodd" d="M20.47 8.80994C20.11 8.48994 19.75 8.16994 19.39 7.84994C18.71 7.12994 18.03 6.40994 17.35 5.69994C16.99 5.37994 16.63 5.05994 16.27 4.73994C15.5 3.67994 14.55 2.89994 13.64 1.98994C13.12 1.42994 12.6 0.869941 12.08 0.309941V0.189941C11.48 0.349941 10.71 1.43994 10.28 1.86994C9.92 2.18994 9.56 2.50994 9.2 2.82994V3.06994C8.44 3.78994 7.68 4.50994 6.92 5.22994C6.42 5.72994 5.99 6.41994 5.36 6.78994V7.02994H5.24V4.86994H1.32V11.2199C0.88 11.6099 0.44 11.9999 0 12.3999V27.9699H22.87V11.3299C22.07 10.5699 21.27 9.80994 20.47 9.04994V8.80994ZM20.12 15.2799C19.8 15.4399 19.48 15.5999 19.16 15.7599C19.12 15.8399 19.08 15.9199 19.04 15.9999C18.88 16.0399 18.72 16.0799 18.56 16.1199V16.2399C18.44 16.2799 18.32 16.3199 18.2 16.3599C18.16 16.4399 18.12 16.5199 18.08 16.5999H17.84C17.8 16.6799 17.76 16.7599 17.72 16.8399C17.56 16.8799 17.4 16.9199 17.24 16.9599C17.2 17.0399 17.16 17.1199 17.12 17.1999H16.88C16.84 17.2799 16.8 17.3599 16.76 17.4399H16.52V17.5599H16.28V17.6799C16.16 17.7199 16.04 17.7599 15.92 17.7999C16.02 17.9299 15.9 17.8199 16.04 17.9199C16.21 18.5399 16.97 18.9299 17.36 19.3599C17.4 19.4799 17.44 19.5999 17.48 19.7199C17.96 20.1599 18.44 20.5999 18.92 21.0399C19.28 21.5399 19.58 22.0499 20.12 22.3599V25.2299H12.94C12.74 24.9899 12.54 24.7499 12.34 24.5099C12.06 24.2699 11.78 24.0299 11.5 23.7899V23.5499C10.94 23.0299 10.38 22.5099 9.82 21.9899V21.7499H9.7V25.2199H4.07C4.03 25.1399 3.99 25.0599 3.95 24.9799C3.54 24.6099 3.24 24.0699 2.75 23.7799V8.68994H16.4C16.64 9.00994 16.88 9.32994 17.12 9.64994C18.12 10.6099 19.12 11.5699 20.11 12.5199V15.2699L20.12 15.2799ZM38.8 14.4399V14.0799H38.68C38.6 13.8399 38.52 13.5999 38.44 13.3599H38.32V13.1199H38.2V12.8799H38.08V12.6399H37.96V12.2799H37.84C37.76 12.0399 37.68 11.7999 37.6 11.5599H37.48V11.3199H37.36V11.0799H37.24V10.8399H37.12V10.4799H37C36.92 10.2399 36.84 9.99994 36.76 9.75994C37.53 9.68994 38.28 9.12994 38.44 8.43994C38.86 7.98994 38.68 5.75994 38.68 4.84994C38.68 3.01994 38.83 1.39994 37.72 0.659941C37.05 0.209941 35.73 0.299941 34.61 0.299941H27.79V15.2699H31.02V9.99994H33.41C33.57 10.7299 33.95 11.2299 34.25 11.7999C34.29 11.9599 34.33 12.1199 34.37 12.2799H34.49V12.6399H34.61C34.65 12.7999 34.69 12.9599 34.73 13.1199H34.85V13.3599H34.97C35.25 13.9999 35.53 14.6399 35.81 15.2799H39.16C39.09 14.7399 38.95 14.7799 38.8 14.4399ZM35.44 7.12994H31.01V3.17994H35.44C35.54 3.30994 35.42 3.19994 35.56 3.29994C35.56 4.45994 35.78 6.19994 35.44 7.12994ZM44.78 9.04994H49.93V15.2799H53.16V0.309941H49.93V6.05994H44.78V0.309941H41.67V15.2799H44.78V9.04994ZM65.74 15.0399H66.1V14.9199H66.34V14.7999H66.58V14.6799C66.78 14.5199 66.98 14.3599 67.18 14.1999C67.26 13.8199 67.45 13.5199 67.54 13.2399V4.49994C67.54 2.61994 67.59 0.919941 66.1 0.549941C65.7 0.179941 64.57 0.309941 63.83 0.309941H57.96V0.429941C57.76 0.469941 57.56 0.509941 57.36 0.549941C57.28 0.589941 56.68 0.969941 56.64 1.02994V1.26994C56.56 1.30994 56.48 1.34994 56.4 1.38994V1.62994H56.28C55.95 2.36994 56.04 3.79994 56.04 4.85994V10.9699C56.04 12.2799 55.99 13.5399 56.52 14.3199C57.4 15.6199 61 15.2799 63.23 15.2799C64.07 15.2399 64.91 15.1999 65.74 15.1599V15.0399ZM64.3 12.2799H59.27V6.16994C59.27 5.23994 59.12 3.89994 59.39 3.17994H64.3C64.53 4.46994 64.42 6.24994 64.42 7.72994C64.42 9.20994 64.53 10.9899 64.3 12.2799ZM80.22 14.9199H80.46V14.7999H80.7V14.6799C80.9 14.5199 81.1 14.3599 81.3 14.1999C81.38 13.8199 81.57 13.5199 81.66 13.2399V4.49994C81.66 2.61994 81.71 0.919941 80.22 0.549941C79.78 0.139941 78.4 0.309941 77.59 0.309941H70.52V15.2799H76.75C77.79 15.2399 78.82 15.1999 79.86 15.1599V15.0399H80.22V14.9199ZM78.43 12.2799H73.64V3.17994H78.43C78.66 4.46994 78.55 6.24994 78.55 7.72994C78.55 9.20994 78.66 10.9899 78.43 12.2799ZM84.66 15.2799H94.72V12.2899H87.77V9.05994H93.4V6.18994H87.77V3.19994H94.72V0.309941H84.66V15.2799ZM107.65 8.68994V8.44994H107.53C107.49 8.28994 107.45 8.12994 107.41 7.96994C107.29 7.88994 107.17 7.80994 107.05 7.72994C106.93 7.56994 106.81 7.40994 106.69 7.24994H106.45V7.12994C106.29 7.08994 106.13 7.04994 105.97 7.00994V6.88994C105.69 6.84994 105.41 6.80994 105.13 6.76994V6.64994H104.65V6.52994H104.05V6.40994H103.57V6.28994H102.97V6.16994H102.37V6.04994H101.89V5.92994H101.29V5.80994C100.83 5.66994 100.65 5.85994 100.33 5.56994C100.25 5.52994 100.17 5.48994 100.09 5.44994C100.09 4.70994 100.01 3.71994 100.21 3.17994H104.4C104.5 3.68994 104.53 4.41994 104.52 5.09994H107.51C107.53 3.20994 107.68 1.41994 106.55 0.669941C105.55 -5.85914e-05 102.22 0.309941 100.56 0.309941C99.94 0.309941 99.34 0.289941 98.88 0.429941H98.4V0.549941C98.24 0.589941 98.08 0.629941 97.92 0.669941V0.789941C97.72 0.949941 97.52 1.10994 97.32 1.26994C97.24 1.59994 97.05 1.83994 96.96 2.10994V5.33994C96.96 6.08994 96.92 6.78994 97.32 7.13994C97.7 8.63994 101.4 8.90994 102.95 9.41994H103.55V9.53994C103.83 9.57994 104.11 9.61994 104.39 9.65994V9.77994C104.47 9.81994 104.55 9.85994 104.63 9.89994C104.64 10.8499 104.71 11.7999 104.39 12.4099C102.94 12.4099 101.21 12.5099 99.96 12.2899V10.2599H96.85C96.83 11.9499 96.74 13.9899 97.69 14.6899C98.88 15.5599 101.54 15.2899 103.56 15.2899C104.36 15.2499 105.16 15.2099 105.95 15.1699V15.0499H106.31V14.9299H106.55V14.8099H106.79V14.6899C106.99 14.5299 107.19 14.3699 107.39 14.2099C107.47 13.8799 107.66 13.6399 107.75 13.3699V8.69994H107.63L107.65 8.68994ZM14.73 16.5899C14.33 16.2299 13.93 15.8699 13.53 15.5099V15.2699C13.45 15.2299 13.37 15.1899 13.29 15.1499C13.13 14.9499 12.97 14.7499 12.81 14.5499C12.49 14.2699 12.17 13.9899 11.85 13.7099V13.4699C11.33 12.9899 10.81 12.5099 10.29 12.0299C10.05 11.7599 10.02 11.5099 9.69 11.3099V21.6099C9.83 21.5299 9.87 21.4099 9.93 21.3699H10.17V21.2499H10.41C10.45 21.1699 10.49 21.0899 10.53 21.0099C10.69 20.9699 10.85 20.9299 11.01 20.8899C11.05 20.8099 11.09 20.7299 11.13 20.6499C11.29 20.6099 11.45 20.5699 11.61 20.5299C11.65 20.4499 11.69 20.3699 11.73 20.2899C11.89 20.2499 12.05 20.2099 12.21 20.1699C12.25 20.0899 12.29 20.0099 12.33 19.9299C12.49 19.8899 12.65 19.8499 12.81 19.8099L12.93 19.5699C13.05 19.5299 13.17 19.4899 13.29 19.4499V19.3299C13.45 19.2899 13.61 19.2499 13.77 19.2099C13.81 19.1299 13.85 19.0499 13.89 18.9699H14.13V18.8499H14.37L14.49 18.6099H14.73V18.4899H14.97C15.01 18.4099 15.05 18.3299 15.09 18.2499H15.33V18.1299C15.6 17.9699 15.49 18.1799 15.69 17.8899C15.83 17.7899 15.71 17.9099 15.81 17.7699C15.33 17.4899 15.11 16.9499 14.73 16.5699M94.11 18.9899V18.7499C94.11 18.7499 93.94 18.6299 93.87 18.5099C93.29 18.5099 92.74 18.5499 92.31 18.6299C92.24 18.8699 92.33 18.7299 92.19 18.8699C92.12 20.5699 92.59 20.4899 93.99 20.3099C94.11 20.0599 94.42 19.5099 94.23 18.9899H94.11ZM33.53 22.4599H29.58V18.7499H27.78V27.9699H29.58V24.1399H33.53V27.9699H35.45V18.7499H33.53V22.4599ZM68.37 22.3399C67.91 22.1999 67.73 22.3899 67.41 22.0999C67.23 21.9899 67.21 21.8699 67.05 21.7399C67.09 21.3799 67.13 21.0199 67.17 20.6599C67.29 20.6199 67.41 20.5799 67.53 20.5399V20.4199H68.01V20.2999C69.1 20.2999 70.73 20.4999 71.6 20.1799C71.64 19.6999 71.68 19.2199 71.72 18.7399C69.44 18.7199 65.93 18.4199 65.49 20.1799C65.05 20.6399 65.23 22.6999 65.61 23.0499C66.25 24.1699 68.76 24.0899 70.04 24.6099C70.15 25.1699 70.15 25.5999 70.04 26.1699C69.88 26.2099 69.72 26.2499 69.56 26.2899V26.4099H65.49C65.41 26.9299 65.33 27.4499 65.25 27.9699H70.04V27.8499H70.52V27.7299C70.68 27.6899 70.84 27.6499 71 27.6099V27.4899H71.24V27.3699C71.4 27.2499 71.56 27.1299 71.72 27.0099C71.76 26.8499 71.8 26.6899 71.84 26.5299H71.96V25.9299H72.08C72.26 25.3299 71.94 23.9899 71.72 23.7799C71.43 22.6799 69.46 22.6799 68.37 22.3399ZM42.99 22.5799H42.87C42.79 22.3399 42.71 22.0999 42.63 21.8599H42.51C42.43 21.7399 42.35 21.6199 42.27 21.4999C41.93 21.4199 41.7 21.2299 41.43 21.1399C40.63 21.0999 39.83 21.0599 39.03 21.0199V21.1399C38.72 21.3199 38.32 21.0299 37.95 21.3799C36.4 21.7799 36.37 25.2599 36.99 26.7699V27.1299H37.11C37.31 27.3699 37.51 27.6099 37.71 27.8499C38.57 28.0299 41.4 28.4499 42.02 27.7299C43.13 27.4399 43.43 24.4999 42.98 23.0599V22.5799H42.99ZM41.07 26.2899C40.99 26.4099 40.91 26.5299 40.83 26.6499C40.35 26.6899 39.87 26.7299 39.39 26.7699V26.6499C38.88 26.6399 38.77 26.5899 38.67 26.1699C38.21 25.6699 38.53 23.8199 38.55 23.0599C38.69 22.9399 38.82 22.7499 38.91 22.5799H39.39V22.4599C39.96 22.4499 40.55 22.4199 40.83 22.6999C40.95 22.7799 41.07 22.8599 41.19 22.9399C41.46 23.3899 41.37 26.0099 41.07 26.2899ZM50.53 21.0199C50.17 21.1399 49.81 21.2599 49.45 21.3799V21.4999H49.21V21.6199C49.05 21.6499 48.02 21.0999 47.77 21.0199C46.95 20.7699 45.28 21.2299 44.9 21.4999V21.6199C44.82 21.6599 44.74 21.6999 44.66 21.7399C44.49 21.9699 44.78 21.8599 44.42 22.0999C44.26 23.8499 44.29 26.0299 44.3 27.9699H45.98V23.4199H46.1C46.14 23.1799 46.18 22.9399 46.22 22.6999C46.56 22.6299 47.47 22.4099 47.78 22.6999H48.02C48.22 22.8299 48.26 23.7399 48.26 24.1399V27.9699H49.94C49.94 26.1399 49.91 24.1799 50.18 22.6999C50.52 22.6299 51.43 22.4099 51.74 22.6999H51.98C52.18 22.8299 52.22 23.7399 52.22 24.1399V27.9699H53.9V22.4599C53.79 22.1099 53.47 21.8099 53.3 21.4999C52.65 21.3499 51.61 20.7199 50.55 21.0199M60.83 21.9799C60.75 21.9399 60.67 21.8999 60.59 21.8599C60.51 21.7399 60.43 21.6199 60.35 21.4999C60.11 21.4199 59.87 21.3399 59.63 21.2599V21.1399C58.87 21.0999 58.11 21.0599 57.35 21.0199V21.1399C57.03 21.1799 56.71 21.2199 56.39 21.2599V21.3799H56.15C56.07 21.4999 55.99 21.6199 55.91 21.7399C55.75 21.8599 55.59 21.9799 55.43 22.0999C55.06 22.6699 55.07 23.7899 55.07 24.7299C55.11 25.3299 55.15 25.9299 55.19 26.5299H55.31V26.7699H55.43V27.0099C55.51 27.0499 55.59 27.0899 55.67 27.1299C55.79 27.2899 55.91 27.4499 56.03 27.6099C56.91 28.1999 59.04 27.9999 60.46 27.9699C60.54 27.5299 60.62 27.0899 60.7 26.6499C59.84 26.6599 57.75 26.8199 57.35 26.4099C57.23 26.3699 57.11 26.3299 56.99 26.2899C56.93 25.9599 56.87 25.6699 56.87 25.2099C58.2 25.2099 59.8 25.2899 60.94 25.0899C60.98 24.8899 61.02 24.6899 61.06 24.4899H61.18C61.14 23.8099 61.1 23.1299 61.06 22.4499C60.82 22.2399 60.96 22.1699 60.82 21.9699M56.88 23.8999V23.0599C57.03 22.9399 57.27 22.6299 57.36 22.4599C57.81 22.4499 58.67 22.3499 58.92 22.5799C59.04 22.6199 59.16 22.6599 59.28 22.6999C59.36 23.0999 59.44 23.4999 59.52 23.8999H56.89H56.88ZM78.55 22.0999V21.8599H78.43C78.35 21.7399 78.27 21.6199 78.19 21.4999C77.71 21.3399 77.23 21.1799 76.75 21.0199H75.19V21.1399C74.75 21.2699 74.34 21.1599 73.99 21.3799C72.84 22.0799 72.91 23.3699 72.91 25.2099C72.91 26.0999 73.01 26.7299 73.39 27.2499H73.51C73.8 27.5699 73.53 27.2899 73.87 27.4899V27.6099C74.03 27.6499 74.19 27.6899 74.35 27.7299V27.8499H74.71V27.9699H78.3C78.38 27.5299 78.46 27.0899 78.54 26.6499C77.94 26.6499 75.83 26.7799 75.55 26.5299C75 26.4999 75.04 26.3599 74.71 26.1699C74.71 25.7399 74.65 25.5199 74.59 25.2099H78.54C78.54 25.2099 78.79 24.9199 78.9 24.8499C78.9 24.0699 79.08 22.7899 78.78 22.2199C78.7 22.1799 78.62 22.1399 78.54 22.0999M74.6 23.8999C74.68 23.4499 74.81 22.9299 74.96 22.5799C75.41 22.4999 76.02 22.4499 76.64 22.4599C76.76 22.5999 76.95 22.7299 77.12 22.8199C77.18 23.1499 77.24 23.4399 77.24 23.8999H74.61H74.6ZM107.05 21.9799C106.97 21.9399 106.89 21.8999 106.81 21.8599C106.73 21.7399 106.65 21.6199 106.57 21.4999C106.33 21.4199 106.09 21.3399 105.85 21.2599V21.1399H105.25V21.0199C104.49 21.0599 103.73 21.0999 102.97 21.1399V21.2599H102.73V21.3799H102.37V21.4999C102.13 21.6999 101.89 21.8999 101.65 22.0999C101.53 22.4999 101.41 22.8999 101.29 23.2999C101.07 24.0599 101.37 26.4999 101.65 26.7699C102.04 28.2899 104.74 28.0099 106.68 27.9699C106.76 27.5299 106.84 27.0899 106.92 26.6499C105.82 26.6599 103.86 26.8999 103.33 26.2899C103.1 26.0699 103.08 25.6799 103.09 25.2099C104.42 25.2099 106.02 25.2899 107.16 25.0899C107.2 24.8899 107.24 24.6899 107.28 24.4899H107.4C107.61 23.8299 107.31 22.9999 107.28 22.4499C107.04 22.2399 107.18 22.1699 107.04 21.9699M103.09 23.8999V23.0599C103.24 22.9399 103.48 22.6299 103.57 22.4599C104.41 22.4599 104.94 22.4599 105.49 22.6999C105.58 23.1399 105.73 23.3299 105.73 23.8999H103.1H103.09ZM80.94 21.4999V21.6199C80.7 21.8199 80.46 22.0199 80.22 22.2199C80.19 22.5699 80.06 22.9199 79.98 23.1799V27.9699H81.78V24.6199C81.78 24.1999 81.7 23.5299 81.9 23.2999C81.97 23.0099 82.03 23.0399 82.14 22.8199C82.65 22.7199 83.38 22.6899 84.06 22.6999C84.14 22.2199 84.22 21.7399 84.3 21.2599C83.26 21.2599 81.62 21.1199 80.95 21.4999M88.97 23.4199V23.7799H88.85V24.1399H88.73V24.4999H88.61V24.8599C88.48 25.1899 88.29 25.4699 88.25 25.9399H88.13C87.81 24.8999 87.49 23.8699 87.17 22.8299C86.98 22.3599 86.71 21.9399 86.69 21.2699H84.66L87.17 27.9799H89.21C89.29 27.6199 89.37 27.2599 89.45 26.8999H89.57V26.6599H89.69C89.77 26.2999 89.85 25.9399 89.93 25.5799H90.05V25.3399H90.17C90.21 25.0999 90.25 24.8599 90.29 24.6199H90.41V24.3799H90.53C90.61 24.0199 90.69 23.6599 90.77 23.2999H90.89V23.0599H91.01V22.6999H91.13V22.3399H91.25V22.0999H91.37C91.41 21.8599 91.45 21.6199 91.49 21.3799H91.61V21.2599H89.69C89.59 22.0499 89.23 22.7699 88.97 23.4099M92.32 27.9699H94.12V21.2599H92.32V27.9699ZM97.35 22.9399C97.77 22.5199 99.29 22.6799 100.1 22.6999C100.18 22.2199 100.26 21.7399 100.34 21.2599C99.3 21.2599 97.43 21.0599 96.63 21.3799V21.4999C96.47 21.5399 96.31 21.5799 96.15 21.6199V21.7399C95.95 21.8999 95.75 22.0599 95.55 22.2199C95.43 22.5799 95.31 22.9399 95.19 23.2999V24.7399C95.19 28.1799 96.73 28.0399 100.1 27.9699C100.18 27.4899 100.26 27.0099 100.34 26.5299C99.32 26.5299 98.19 26.4899 97.35 26.4099C97.25 26.2799 97.37 26.3899 97.23 26.2899C97.06 25.4999 96.66 23.5299 97.35 22.9399Z" fill="white"/>
</g>
</g>
<defs>
<clipPath id="clip0_197_156">
<rect width="107.77" height="28.45" fill="white"/>
</clipPath>
</defs>
</svg>
