<svg width="18" height="18" viewBox="0 0 18 18" fill="none" xmlns="http://www.w3.org/2000/svg">
<path d="M9 1.61719C10.207 1.61719 10.9922 1.62305 11.3555 1.63477C11.7305 1.63477 12.1582 1.64648 12.6387 1.66992C13.1543 1.69336 13.6406 1.77539 14.0977 1.91602C14.5664 2.04492 14.9824 2.29102 15.3457 2.6543C15.709 3.01758 15.9551 3.43359 16.084 3.90234C16.2246 4.35938 16.3066 4.8457 16.3301 5.36133C16.3535 5.8418 16.3652 6.26953 16.3652 6.64453C16.377 7.00781 16.3828 7.79297 16.3828 9C16.3828 10.207 16.377 10.998 16.3652 11.373C16.3652 11.7363 16.3535 12.1582 16.3301 12.6387C16.3066 13.1543 16.2246 13.6465 16.084 14.1152C15.9551 14.5723 15.709 14.9824 15.3457 15.3457C14.9824 15.709 14.5664 15.9609 14.0977 16.1016C13.6406 16.2305 13.1543 16.3066 12.6387 16.3301C12.1582 16.3535 11.7305 16.3711 11.3555 16.3828C10.9922 16.3828 10.207 16.3828 9 16.3828C7.79297 16.3828 7.00195 16.3828 6.62695 16.3828C6.26367 16.3711 5.8418 16.3535 5.36133 16.3301C4.8457 16.3066 4.35352 16.2305 3.88477 16.1016C3.42773 15.9609 3.01758 15.709 2.6543 15.3457C2.29102 14.9824 2.03906 14.5723 1.89844 14.1152C1.76953 13.6465 1.69336 13.1543 1.66992 12.6387C1.64648 12.1582 1.62891 11.7363 1.61719 11.373C1.61719 10.998 1.61719 10.207 1.61719 9C1.61719 7.79297 1.61719 7.00781 1.61719 6.64453C1.62891 6.26953 1.64648 5.8418 1.66992 5.36133C1.69336 4.8457 1.76953 4.35938 1.89844 3.90234C2.03906 3.43359 2.29102 3.01758 2.6543 2.6543C3.01758 2.29102 3.42773 2.04492 3.88477 1.91602C4.35352 1.77539 4.8457 1.69336 5.36133 1.66992C5.8418 1.64648 6.26367 1.63477 6.62695 1.63477C7.00195 1.62305 7.79297 1.61719 9 1.61719ZM9 0C7.78125 0 6.97852 0.00585937 6.5918 0.0175781C6.20508 0.0175781 5.77148 0.0292969 5.29102 0.0527344C4.55273 0.0878906 3.86719 0.210938 3.23438 0.421875C2.60156 0.632812 2.02734 0.996094 1.51172 1.51172C0.996094 2.02734 0.632812 2.60156 0.421875 3.23438C0.210938 3.86719 0.0878906 4.55273 0.0527344 5.29102C0.0292969 5.77148 0.0117188 6.20508 0 6.5918C0 6.97852 0 7.78125 0 9C0 10.2188 0 11.0215 0 11.4082C0.0117188 11.7949 0.0292969 12.2285 0.0527344 12.709C0.0878906 13.4473 0.210938 14.1328 0.421875 14.7656C0.632812 15.3984 0.996094 15.9727 1.51172 16.4883C2.02734 17.0039 2.60156 17.3672 3.23438 17.5781C3.86719 17.7891 4.55273 17.9121 5.29102 17.9473C5.77148 17.9707 6.20508 17.9824 6.5918 17.9824C6.97852 17.9941 7.78125 18 9 18C10.2188 18 11.0215 17.9941 11.4082 17.9824C11.7949 17.9824 12.2285 17.9707 12.709 17.9473C13.4473 17.9121 14.1328 17.7891 14.7656 17.5781C15.3984 17.3672 15.9727 17.0039 16.4883 16.4883C17.0039 15.9727 17.3672 15.3984 17.5781 14.7656C17.7891 14.1328 17.9121 13.4473 17.9473 12.709C17.9707 12.2285 17.9824 11.7949 17.9824 11.4082C17.9941 11.0215 18 10.2188 18 9C18 7.78125 17.9941 6.97852 17.9824 6.5918C17.9824 6.20508 17.9707 5.77148 17.9473 5.29102C17.9121 4.55273 17.7891 3.86719 17.5781 3.23438C17.3672 2.60156 17.0039 2.02734 16.4883 1.51172C15.9727 0.996094 15.3984 0.632812 14.7656 0.421875C14.1328 0.210938 13.4473 0.0878906 12.709 0.0527344C12.2285 0.0292969 11.7949 0.0175781 11.4082 0.0175781C11.0215 0.00585937 10.2188 0 9 0ZM9 4.37695C8.36719 4.37695 7.76953 4.5 7.20703 4.74609C6.64453 4.98047 6.15234 5.30859 5.73047 5.73047C5.30859 6.15234 4.97461 6.64453 4.72852 7.20703C4.49414 7.76953 4.37695 8.36719 4.37695 9C4.37695 9.63281 4.49414 10.2305 4.72852 10.793C4.97461 11.3555 5.30859 11.8477 5.73047 12.2695C6.15234 12.6914 6.64453 13.0254 7.20703 13.2715C7.76953 13.5059 8.36719 13.623 9 13.623C9.63281 13.623 10.2305 13.5059 10.793 13.2715C11.3555 13.0254 11.8477 12.6914 12.2695 12.2695C12.6914 11.8477 13.0195 11.3555 13.2539 10.793C13.5 10.2305 13.623 9.63281 13.623 9C13.623 8.36719 13.5 7.76953 13.2539 7.20703C13.0195 6.64453 12.6914 6.15234 12.2695 5.73047C11.8477 5.30859 11.3555 4.98047 10.793 4.74609C10.2305 4.5 9.63281 4.37695 9 4.37695ZM9 12.0059C8.16797 12.0059 7.45898 11.7129 6.87305 11.127C6.28711 10.541 5.99414 9.83203 5.99414 9C5.99414 8.16797 6.28711 7.45898 6.87305 6.87305C7.45898 6.28711 8.16797 5.99414 9 5.99414C9.83203 5.99414 10.541 6.28711 11.127 6.87305C11.7129 7.45898 12.0059 8.16797 12.0059 9C12.0059 9.83203 11.7129 10.541 11.127 11.127C10.541 11.7129 9.83203 12.0059 9 12.0059ZM14.8887 4.20117C14.8887 4.49414 14.7832 4.74609 14.5723 4.95703C14.3613 5.16797 14.1035 5.27344 13.7988 5.27344C13.5059 5.27344 13.2539 5.16797 13.043 4.95703C12.832 4.74609 12.7266 4.49414 12.7266 4.20117C12.7266 3.89648 12.832 3.63867 13.043 3.42773C13.2539 3.2168 13.5059 3.11133 13.7988 3.11133C14.1035 3.11133 14.3613 3.2168 14.5723 3.42773C14.7832 3.63867 14.8887 3.89648 14.8887 4.20117Z" fill="white"/>
</svg>
