<svg width="9" height="18" viewBox="0 0 9 18" fill="none" xmlns="http://www.w3.org/2000/svg">
<g clip-path="url(#clip0_2_3677)">
<path d="M2.51367 18V10.2H0V6.6H2.51367V4.0875C2.51367 3.4 2.60742 2.8 2.79492 2.2875C2.99414 1.775 3.26367 1.35 3.60352 1.0125C3.95508 0.675 4.37109 0.425 4.85156 0.2625C5.33203 0.0875 5.85938 0 6.43359 0C6.97266 0 7.45898 0.01875 7.89258 0.05625C8.32617 0.08125 8.60742 0.10625 8.73633 0.13125V2.98125H7.1543C6.5332 2.98125 6.12305 3.125 5.92383 3.4125C5.72461 3.7 5.625 4.075 5.625 4.5375V6.6H9L7.875 10.2H5.625V18H2.51367Z" fill="white"/>
</g>
<defs>
<clipPath id="clip0_2_3677">
<rect width="9" height="18" fill="white"/>
</clipPath>
</defs>
</svg>
