<svg width="18" height="18" viewBox="0 0 18 18" fill="none" xmlns="http://www.w3.org/2000/svg">
<path fill-rule="evenodd" clip-rule="evenodd" d="M2.70125 0.407703C2.94288 0.149058 3.26744 0 3.63429 0C4.0012 0 4.33389 0.140069 4.5912 0.397375L7.8312 3.63737C8.09387 3.90005 8.21143 4.23501 8.21143 4.57714C8.21143 4.92541 8.08216 5.24881 7.8312 5.49977L5.89096 7.44L10.56 12.109L12.5002 10.1688C12.7512 9.91785 13.0746 9.78857 13.4229 9.78857C13.765 9.78857 14.1 9.90613 14.3626 10.1688L17.6026 13.4088C17.8599 13.6661 18 13.9988 18 14.3657C18 14.7326 17.8509 15.0571 17.5923 15.2988L14.9097 18H14.5886C12.5802 18 10.6821 17.6206 8.90183 16.8576L8.89777 16.8559C7.13277 16.0874 5.58845 15.0451 4.27166 13.7283C2.95487 12.4116 1.91257 10.8672 1.14413 9.10223L1.14236 9.09817C0.379393 7.31791 0 5.41976 0 3.41143V3.09033L2.70125 0.407703ZM3.65091 1.63902L1.54638 3.72903C1.58402 5.41773 1.92292 7.00205 2.55962 8.48839C3.25395 10.0825 4.18849 11.4632 5.36263 12.6374C6.53676 13.8115 7.91748 14.7461 9.51161 15.4404C10.998 16.0771 12.5823 16.416 14.271 16.4536L16.361 14.3491L13.4314 11.4195L10.56 14.291L3.70904 7.44L6.58046 4.56857L3.65091 1.63902Z" fill="white"/>
</svg>
