<svg width="18" height="13" viewBox="0 0 18 13" fill="none" xmlns="http://www.w3.org/2000/svg">
<g clip-path="url(#clip0_2_3681)">
<path d="M17.8242 2.79861C17.8242 2.79861 17.7715 2.56389 17.666 2.09444C17.5605 1.625 17.373 1.25185 17.1035 0.975C16.7637 0.601852 16.418 0.385185 16.0664 0.325C15.7266 0.252778 15.4688 0.20463 15.293 0.180556C14.6719 0.132407 13.9922 0.0962963 13.2539 0.0722222C12.5156 0.0481481 11.8301 0.0300926 11.1973 0.0180556C10.5762 0.00601852 10.0547 0 9.63281 0C9.21094 0 9 0 9 0C9 0 8.78906 0 8.36719 0C7.94531 0 7.41797 0.00601852 6.78516 0.0180556C6.16406 0.0300926 5.48438 0.0481481 4.74609 0.0722222C4.00781 0.0962963 3.32812 0.132407 2.70703 0.180556C2.53125 0.20463 2.26758 0.252778 1.91602 0.325C1.57617 0.385185 1.23633 0.601852 0.896484 0.975C0.626953 1.25185 0.439453 1.625 0.333984 2.09444C0.228516 2.56389 0.175781 2.79861 0.175781 2.79861C0.175781 2.79861 0.146484 3.11157 0.0878906 3.7375C0.0292969 4.36343 0 5.04954 0 5.79583V7.20417C0 7.95046 0.0292969 8.63657 0.0878906 9.2625C0.146484 9.87639 0.175781 10.1833 0.175781 10.1833C0.175781 10.1833 0.228516 10.4241 0.333984 10.9056C0.439453 11.375 0.626953 11.7481 0.896484 12.025C1.23633 12.3981 1.59961 12.6148 1.98633 12.675C2.38477 12.7352 2.68359 12.7833 2.88281 12.8194C3.24609 12.8556 3.76758 12.8856 4.44727 12.9097C5.12695 12.9338 5.80078 12.9519 6.46875 12.9639C7.14844 12.9759 7.74023 12.988 8.24414 13C8.74805 13 9 13 9 13C9 13 9.21094 13 9.63281 13C10.0547 13 10.5762 12.994 11.1973 12.9819C11.8301 12.9699 12.5156 12.9519 13.2539 12.9278C13.9922 12.8917 14.6719 12.8495 15.293 12.8014C15.4688 12.7894 15.7266 12.7532 16.0664 12.6931C16.418 12.6208 16.7637 12.3981 17.1035 12.025C17.373 11.7481 17.5605 11.375 17.666 10.9056C17.7715 10.4241 17.8242 10.1833 17.8242 10.1833C17.8242 10.1833 17.8535 9.87639 17.9121 9.2625C17.9707 8.63657 18 7.95046 18 7.20417V5.79583C18 5.04954 17.9707 4.36343 17.9121 3.7375C17.8535 3.11157 17.8242 2.79861 17.8242 2.79861ZM7.13672 8.90139V3.70139L12.0059 6.30139L7.13672 8.90139Z" fill="white"/>
</g>
<defs>
<clipPath id="clip0_2_3681">
<rect width="18" height="13" fill="white"/>
</clipPath>
</defs>
</svg>
