<svg width="18" height="19" viewBox="0 0 18 19" fill="none" xmlns="http://www.w3.org/2000/svg">
<path fill-rule="evenodd" clip-rule="evenodd" d="M9 2.52239C7.15379 2.52239 5.65714 3.99918 5.65714 5.8209C5.65714 7.64261 7.15379 9.1194 9 9.1194C10.8462 9.1194 12.3429 7.64261 12.3429 5.8209C12.3429 3.99918 10.8462 2.52239 9 2.52239ZM12.0013 9.62519C13.1482 8.74299 13.8857 7.36693 13.8857 5.8209C13.8857 3.15839 11.6983 1 9 1C6.30169 1 4.11429 3.15839 4.11429 5.8209C4.11429 7.36693 4.85183 8.74299 5.99868 9.62519C2.50379 10.8447 0 14.1338 0 18H1.54286C1.54286 13.9362 4.88153 10.6418 9 10.6418C13.1185 10.6418 16.4571 13.9362 16.4571 18H18C18 14.1338 15.4962 10.8447 12.0013 9.62519Z" fill="white"/>
</svg>
