<svg width="162" height="23" viewBox="0 0 162 23" fill="none" xmlns="http://www.w3.org/2000/svg">
<g clip-path="url(#clip0_197_162)">
<path d="M24.05 0H23.3V22.71H24.05V0Z" fill="white"/>
<path d="M1.75999 20.85C1.82999 20.85 1.85999 20.83 1.85999 20.75V20.02C1.85999 19.94 1.82999 19.92 1.75999 19.92H0.84999V20.84H1.75999V20.85ZM2.82999 22.8H1.93999L1.33999 21.57H0.83999V22.8H-0.0100098V19.21H1.98999C2.46999 19.21 2.69999 19.44 2.69999 19.92V20.82C2.69999 21.22 2.53999 21.44 2.20999 21.51L2.82999 22.81V22.8Z" fill="white"/>
<path d="M3.21002 19.21H4.07002V20.59H5.22002V19.21H6.07002V22.8H5.22002V21.33H4.07002V22.8H3.21002V19.21Z" fill="white"/>
<path d="M13.13 19.21H15.6V19.95H13.98V20.6H15.27V21.32H13.98V22.06H15.6V22.8H13.13V19.21Z" fill="white"/>
<path d="M16.04 22.09V21.62H16.88V21.98C16.88 22.05 16.91 22.08 16.98 22.08H17.79C17.86 22.08 17.89 22.05 17.89 21.98V21.61C17.89 21.53 17.85 21.5 17.75 21.48L16.8 21.25C16.32 21.13 16.06 21 16.06 20.51V19.92C16.06 19.44 16.29 19.21 16.77 19.21H17.98C18.46 19.21 18.69 19.44 18.69 19.92V20.35H17.85V20.03C17.85 19.95 17.82 19.93 17.75 19.93H17.01C16.94 19.93 16.91 19.95 16.91 20.03V20.36C16.91 20.44 16.94 20.47 17.05 20.49L18 20.72C18.48 20.84 18.74 20.97 18.74 21.46V22.09C18.74 22.57 18.51 22.8 18.03 22.8H16.75C16.27 22.8 16.04 22.57 16.04 22.09Z" fill="white"/>
<path d="M11.01 22.0302H10.79V19.9602H11.01C11.81 19.9602 11.85 19.9702 11.85 21.0002C11.85 22.0802 11.81 22.0302 11.01 22.0302ZM11.75 19.2002H9.90002V22.7902H11.75C12.55 22.7902 12.72 22.0802 12.72 21.0002C12.72 19.9702 12.55 19.2002 11.75 19.2002Z" fill="white"/>
<path d="M8.19002 22.0102H7.79002C7.48002 22.0102 7.46002 21.8502 7.46002 20.9902C7.46002 20.1302 7.48002 19.9802 7.79002 19.9802H8.19002C8.50002 19.9802 8.52002 20.1202 8.52002 20.9902C8.52002 21.8602 8.50002 22.0102 8.19002 22.0102ZM8.54002 19.2002H7.43002C6.58002 19.2002 6.52002 19.9602 6.52002 20.9902C6.52002 22.0702 6.57002 22.7902 7.43002 22.7902H8.54002C9.39002 22.7902 9.45002 22.0802 9.45002 20.9902C9.45002 19.9602 9.40002 19.2002 8.54002 19.2002Z" fill="white"/>
<path d="M14.1301 9.93018L7.43005 13.9802L11.0201 17.8202H18.8101V15.0002L14.1301 9.93018Z" fill="white"/>
<path d="M14.13 9.93L18.66 7.07V4.31L14.5 0H0.0100098V16.15L1.55001 17.82H7.43001V13.98V2.76L14.13 9.93Z" fill="white"/>
<path d="M29.11 4.39014H31.96V15.6501H37.95V18.2701H29.11V4.39014Z" fill="white"/>
<path d="M43.08 4.39014H47.24L51.46 18.2701H48.33L47.48 15.2601H42.72L41.87 18.2701H38.86L43.08 4.39014ZM46.75 12.6301L45.1 6.80014L43.45 12.6301H46.74H46.75Z" fill="white"/>
<path d="M53.35 4.39014H56.32L61.57 13.3301V4.39014H64.34V18.2701H61.57L56.12 9.01014V18.2701H53.35V4.39014Z" fill="white"/>
<path d="M67.47 4.39014H75.06C76.94 4.39014 77.83 5.28014 77.83 7.17014V15.4901C77.83 17.3701 76.94 18.2701 75.06 18.2701H67.47V4.39014ZM74.59 15.6501C74.89 15.6501 74.99 15.5501 74.99 15.2501V7.40014C74.99 7.10014 74.89 7.00014 74.59 7.00014H70.33V15.6401H74.59V15.6501Z" fill="white"/>
<path d="M80.21 15.4902V13.7502H82.99V15.3002C82.99 15.6002 83.09 15.7002 83.39 15.7002H87.08C87.38 15.7002 87.48 15.6002 87.48 15.3002V13.6402C87.48 13.2002 87.32 13.0802 86.81 12.9702L83.12 12.1802C81.38 11.8002 80.27 11.1102 80.27 9.33016V7.19016C80.27 5.31016 81.16 4.41016 83.04 4.41016H87.32C89.2 4.41016 90.09 5.30016 90.09 7.19016V8.77016H87.32V7.38016C87.32 7.08016 87.22 6.98016 86.92 6.98016H83.51C83.21 6.98016 83.11 7.08016 83.11 7.38016V8.89016C83.11 9.33016 83.27 9.45016 83.78 9.56016L87.47 10.3502C89.21 10.7302 90.32 11.4202 90.32 13.2002V15.5002C90.32 17.3802 89.43 18.2802 87.55 18.2802H82.99C81.11 18.2802 80.21 17.3902 80.21 15.5002V15.4902Z" fill="white"/>
<path d="M92.7 15.4899V7.15988C92.7 5.27988 93.59 4.37988 95.47 4.37988H100.07C101.95 4.37988 102.84 5.26988 102.84 7.15988V9.41988H99.99V7.39988C99.99 7.09988 99.89 6.99988 99.59 6.99988H95.94C95.64 6.99988 95.54 7.09988 95.54 7.39988V15.2499C95.54 15.5499 95.64 15.6499 95.94 15.6499H99.59C99.89 15.6499 99.99 15.5499 99.99 15.2499V13.2299H102.84V15.4899C102.84 17.3699 101.95 18.2699 100.07 18.2699H95.47C93.59 18.2699 92.7 17.3799 92.7 15.4899Z" fill="white"/>
<path d="M108.35 4.39014H112.51L116.73 18.2701H113.6L112.75 15.2601H107.99L107.14 18.2701H104.13L108.35 4.39014ZM112.02 12.6301L110.37 6.80014L108.72 12.6301H112.01H112.02Z" fill="white"/>
<path d="M118.61 4.39014H125.94C127.82 4.39014 128.71 5.28014 128.71 7.17014V10.8601C128.71 12.7401 127.82 13.6401 125.94 13.6401H121.46V18.2801H118.61V4.39014ZM125.47 11.0101C125.77 11.0101 125.87 10.9101 125.87 10.6101V7.40014C125.87 7.10014 125.77 7.00014 125.47 7.00014H121.47V11.0001H125.47V11.0101Z" fill="white"/>
<path d="M131.02 4.39014H133.87V18.2701H131.02V4.39014Z" fill="white"/>
<path d="M137 4.39014H139.97L145.22 13.3301V4.39014H147.99V18.2701H145.22L139.77 9.01014V18.2701H137V4.39014Z" fill="white"/>
<path d="M150.79 15.4899V7.15988C150.79 5.27988 151.68 4.37988 153.56 4.37988H158.34C160.22 4.37988 161.11 5.26988 161.11 7.15988V8.97988H158.26V7.38988C158.26 7.08988 158.16 6.98988 157.86 6.98988H154.03C153.73 6.98988 153.63 7.08988 153.63 7.38988V15.2399C153.63 15.5399 153.73 15.6399 154.03 15.6399H157.86C158.16 15.6399 158.26 15.5399 158.26 15.2399V13.0999H155.64V10.5999H161.11V15.4799C161.11 17.3599 160.22 18.2599 158.34 18.2599H153.56C151.68 18.2599 150.79 17.3699 150.79 15.4799V15.4899Z" fill="white"/>
</g>
<defs>
<clipPath id="clip0_197_162">
<rect width="161.12" height="22.8" fill="white"/>
</clipPath>
</defs>
</svg>
