<svg width="18" height="15" viewBox="0 0 18 15" fill="none" xmlns="http://www.w3.org/2000/svg">
<g clip-path="url(#clip0_2_3698)">
<path fill-rule="evenodd" clip-rule="evenodd" d="M0 2.66129C0 1.1915 1.26639 0 2.82857 0H15.1714C16.7336 0 18 1.1915 18 2.66129V12.3387C18 13.8085 16.7336 15 15.1714 15H2.82857C1.26639 15 0 13.8085 0 12.3387V2.66129ZM1.56661 2.42865C1.55102 2.50393 1.54286 2.58171 1.54286 2.66129V12.3387C1.54286 13.0068 2.11849 13.5484 2.82857 13.5484H15.1714C15.8815 13.5484 16.4571 13.0068 16.4571 12.3387V2.66129C16.4571 2.58171 16.449 2.50393 16.4334 2.42865L9.44838 7.12287C9.18016 7.30313 8.81984 7.30313 8.55162 7.12287L1.56661 2.42865ZM2.76911 1.45288L9 5.64031L15.2309 1.45288C15.2112 1.45204 15.1914 1.45161 15.1714 1.45161H2.82857C2.80864 1.45161 2.78882 1.45204 2.76911 1.45288Z" fill="white"/>
</g>
<defs>
<clipPath id="clip0_2_3698">
<rect width="18" height="15" fill="white"/>
</clipPath>
</defs>
</svg>
