<svg width="163" height="24" viewBox="0 0 163 24" fill="none" xmlns="http://www.w3.org/2000/svg">
<g clip-path="url(#clip0_155_22)">
<path d="M24.32 0H23.56V22.96H24.32V0Z" fill="white"/>
<path d="M1.78 21.0799C1.85 21.0799 1.88 21.0599 1.88 20.9799V20.2399C1.88 20.1599 1.85 20.1399 1.78 20.1399H0.86V21.0699H1.78V21.0799ZM2.87 23.0499H1.97L1.36 21.7999H0.86V23.0499H0V19.4199H2.02C2.5 19.4199 2.74 19.6499 2.74 20.1299V21.0399C2.74 21.4499 2.58 21.6699 2.24 21.7299L2.87 23.0399V23.0499Z" fill="white"/>
<path d="M3.25 19.4199H4.11V20.8199H5.28V19.4199H6.14V23.0499H5.28V21.5699H4.11V23.0499H3.25V19.4199Z" fill="white"/>
<path d="M13.27 19.4199H15.77V20.1699H14.13V20.8299H15.44V21.5599H14.13V22.2999H15.77V23.0499H13.27V19.4199Z" fill="white"/>
<path d="M16.21 22.3299V21.8499H17.06V22.2199C17.06 22.2899 17.09 22.3199 17.16 22.3199H17.98C18.05 22.3199 18.08 22.2899 18.08 22.2199V21.8399C18.08 21.7599 18.04 21.7299 17.93 21.7099L16.97 21.4799C16.49 21.3599 16.22 21.2299 16.22 20.7299V20.1299C16.22 19.6399 16.45 19.4199 16.94 19.4199H18.16C18.64 19.4199 18.87 19.6499 18.87 20.1299V20.5699H18.02V20.2399C18.02 20.1599 17.99 20.1399 17.92 20.1399H17.17C17.1 20.1399 17.07 20.1599 17.07 20.2399V20.5799C17.07 20.6599 17.1 20.6899 17.22 20.7099L18.18 20.9399C18.66 21.0599 18.93 21.1899 18.93 21.6899V22.3299C18.93 22.8099 18.7 23.0499 18.21 23.0499H16.92C16.44 23.0499 16.21 22.8199 16.21 22.3299Z" fill="white"/>
<path d="M11.13 22.2699H10.91V20.1799H11.13C11.94 20.1799 11.98 20.1899 11.98 21.2299C11.98 22.3299 11.94 22.2699 11.13 22.2699ZM11.88 19.4199H10.01V23.0499H11.88C12.69 23.0499 12.86 22.3399 12.86 21.2399C12.86 20.1999 12.69 19.4199 11.88 19.4199Z" fill="white"/>
<path d="M8.28 22.2499H7.88C7.57 22.2499 7.55 22.0899 7.55 21.2299C7.55 20.3699 7.57 20.2099 7.88 20.2099H8.28C8.59 20.2099 8.61 20.3499 8.61 21.2299C8.61 22.1099 8.59 22.2499 8.28 22.2499ZM8.63 19.4199H7.51C6.65 19.4199 6.59 20.1899 6.59 21.2299C6.59 22.3299 6.65 23.0499 7.51 23.0499H8.63C9.49 23.0499 9.55 22.3299 9.55 21.2299C9.55 20.1299 9.49 19.4199 8.63 19.4199Z" fill="white"/>
<path d="M14.29 10.04L7.51 14.13L11.14 18.02H19.02V15.16L14.29 10.04Z" fill="white"/>
<path d="M14.29 10.04L18.87 7.14V4.35L14.66 0H0V16.33L1.57 18.02H7.51V14.13V2.79L14.29 10.04Z" fill="white"/>
<path d="M92.67 15.3302H91.19C90.05 15.3302 89.98 14.7502 89.98 11.5702C89.98 8.39018 90.05 7.83018 91.19 7.83018H92.67C93.81 7.83018 93.88 8.36018 93.88 11.5702C93.88 14.7802 93.81 15.3302 92.67 15.3302ZM93.97 4.93018H89.86C86.7 4.93018 86.5 7.75018 86.5 11.5502C86.5 15.5702 86.7 18.2202 89.86 18.2202H93.97C97.13 18.2202 97.33 15.5702 97.33 11.5502C97.33 7.74018 97.13 4.93018 93.97 4.93018Z" fill="white"/>
<path d="M41.54 4.95996H50.66V7.67996H44.68V10.09H49.47V12.77H44.68V15.48H50.66V18.21H41.54V4.95996Z" fill="white"/>
<path d="M51.86 4.95996H55.26L57.76 14.86L60.26 4.95996H63.57L59.52 18.21H55.91L51.86 4.95996Z" fill="white"/>
<path d="M65.26 4.95996H74.38V7.67996H68.4V10.09H73.19V12.77H68.4V15.48H74.38V18.21H65.26V4.95996Z" fill="white"/>
<path d="M76.69 4.95996H79.83V15.44H85.34V18.21H76.69V4.95996Z" fill="white"/>
<path d="M106.14 11.22C106.4 11.22 106.5 11.14 106.5 10.86V8.01996C106.5 7.73996 106.4 7.65996 106.14 7.65996H102.79V11.22H106.14ZM99.64 4.95996H107.02C108.78 4.95996 109.63 5.78996 109.63 7.56996V11.32C109.63 13.1 108.78 13.93 107.02 13.93H102.78V18.21H99.64V4.95996Z" fill="white"/>
<path d="M111.74 4.95996H115.24L118.5 12.34L121.73 4.95996H125.21V18.21H122.15V10.16L119.48 16.52H117.4L114.73 10.16V18.21H111.74V4.95996Z" fill="white"/>
<path d="M128.03 4.95996H137.16V7.67996H131.18V10.09H135.96V12.77H131.18V15.48H137.16V18.21H128.03V4.95996Z" fill="white"/>
<path d="M139.46 4.95996H142.66L147.34 12.74V4.95996H150.39V18.21H147.47L142.51 9.98996V18.21H139.46V4.95996Z" fill="white"/>
<path d="M155.74 7.69996H152.3V4.95996H162.35V7.69996H158.88V18.21H155.74V7.69996Z" fill="white"/>
<path d="M33.38 15.3798H32.56V7.64982H33.38C36.36 7.64982 36.51 7.68982 36.51 11.5298C36.51 15.5798 36.38 15.3798 33.38 15.3798ZM36.15 4.81982H29.25V18.2198H36.15C39.14 18.2198 39.77 15.5798 39.77 11.5298C39.77 7.68982 39.13 4.81982 36.15 4.81982Z" fill="white"/>
</g>
<defs>
<clipPath id="clip0_155_22">
<rect width="162.35" height="23.05" fill="white"/>
</clipPath>
</defs>
</svg>
