<svg width="18" height="19" viewBox="0 0 18 19" fill="none" xmlns="http://www.w3.org/2000/svg">
<g clip-path="url(#clip0_2_3708)">
<path d="M13.9169 14.3596C13.6964 14.3596 13.5375 14.3638 13.3793 14.3596C12.9486 14.3448 12.6883 14.1059 12.6863 13.6626C12.6767 11.7175 12.6767 9.77265 12.6863 7.82802C12.6863 7.35654 12.9527 7.15639 13.5916 7.09226C13.5656 5.28528 12.8602 3.82363 11.4194 2.80245C9.70264 1.58605 7.86602 1.49373 6.0253 2.50434C4.36399 3.42051 3.31557 5.31699 3.42308 7.04574C3.64358 7.12609 3.90244 7.14864 4.04624 7.29452C4.20302 7.47182 4.29375 7.70051 4.30236 7.94007C4.32153 9.8147 4.31537 11.6893 4.31194 13.5639C4.31194 14.1129 4.0709 14.3561 3.54018 14.3603C3.00947 14.3645 2.48971 14.3702 1.96516 14.3547C1.44101 14.3418 0.942587 14.1182 0.576554 13.7319C0.210522 13.3456 0.00595897 12.8272 0.00664542 12.2876C0.000482284 11.3158 0.00664542 10.3432 0.00664542 9.37071C0.00664542 8.13951 0.656515 7.34667 1.83778 7.13102C1.90626 7.11904 1.97474 7.1127 2.08157 7.09719C2.14663 4.81662 3.0574 2.97088 4.88922 1.65441C6.04505 0.812812 7.44882 0.410045 8.86103 0.514839C10.547 0.62337 11.9892 1.30627 13.1526 2.57059C14.3161 3.83491 14.8797 5.35153 14.9078 7.0979C15.6206 7.16414 16.2493 7.39459 16.6095 8.02746C16.8177 8.38502 16.9427 8.78739 16.9745 9.20298C17.0251 10.2199 16.9943 11.2411 16.9909 12.2601C16.9909 13.1996 16.4287 13.9995 15.561 14.2652C15.3522 14.3293 15.2755 14.4399 15.2139 14.6302C15.0225 15.2429 14.6469 15.7771 14.1412 16.1558C13.6356 16.5344 13.0261 16.7378 12.4007 16.7367C12.3323 16.7406 12.2637 16.7406 12.1953 16.7367C11.6228 16.6782 11.2167 16.7452 10.8942 17.4097C10.4148 18.3915 9.17877 18.7269 8.14679 18.352C7.1148 17.9771 6.4889 16.9615 6.58203 15.7867C6.66147 14.7592 7.51815 13.8402 8.56793 13.6598C9.59102 13.4836 10.6703 14.065 11.0811 15.0693C11.1989 15.3568 11.3434 15.4273 11.6091 15.4054C12.02 15.3723 12.4343 15.4019 12.8328 15.3237C13.3197 15.225 13.6683 14.8917 13.9169 14.3596ZM2.9807 13.01V8.45736C2.63831 8.45736 2.31919 8.43692 2.0035 8.46229C1.59263 8.49541 1.31392 8.78154 1.30844 9.1903C1.29566 10.2319 1.29566 11.2735 1.30844 12.3151C1.31255 12.664 1.57071 12.9769 1.88298 13.0029C2.2425 13.0333 2.60612 13.01 2.9807 13.01ZM14.0059 8.46581V13.022C14.3243 13.022 14.6222 13.0276 14.9139 13.022C15.3933 13.0107 15.6795 12.7225 15.6836 12.2327C15.6905 11.238 15.6905 10.2434 15.6836 9.24879C15.6802 8.8196 15.4433 8.51867 15.0406 8.47357C14.7085 8.43622 14.3668 8.46581 14.0093 8.46581H14.0059ZM7.87561 16.0602C7.88153 16.349 7.99546 16.6243 8.19369 16.8288C8.39191 17.0334 8.65916 17.1513 8.93978 17.1582C9.07628 17.1618 9.21213 17.1376 9.33949 17.0869C9.46684 17.0362 9.58316 16.96 9.68173 16.8627C9.7803 16.7655 9.85917 16.6491 9.91377 16.5203C9.96837 16.3915 9.99762 16.2528 9.99984 16.1123C10.003 15.9661 9.97804 15.8206 9.92636 15.6844C9.87468 15.5481 9.79731 15.4238 9.69871 15.3184C9.60011 15.2131 9.48222 15.1289 9.35185 15.0706C9.22148 15.0124 9.0812 14.9813 8.93909 14.9791C8.79993 14.9768 8.66172 15.0031 8.53256 15.0565C8.4034 15.1099 8.28587 15.1892 8.18685 15.2899C8.08783 15.3905 8.0093 15.5105 7.95586 15.6428C7.90242 15.775 7.87514 15.9169 7.87561 16.0602Z" fill="white"/>
</g>
<defs>
<clipPath id="clip0_2_3708">
<rect width="18" height="19" fill="white"/>
</clipPath>
</defs>
</svg>
