<svg width="197" height="30" viewBox="0 0 197 30" fill="none" xmlns="http://www.w3.org/2000/svg">
<g clip-path="url(#clip0_2_3660)">
<path d="M24.702 0L0 9.93111e-05V27.2222L2.67049 30H12.6335V23.6009L18.6421 30H31.9432V25.2204L23.9318 16.7799L12.6335 23.4311V4.87161L23.9318 16.7799L31.9432 11.8475V6.61025L24.702 0Z" fill="#457537"/>
<path d="M39.2363 0H46.4261V29.8982H39.2363V0Z" fill="white"/>
<path d="M63.1679 29.8982H55.67L50.4317 19.2711L57.673 18.5083L63.1679 29.8982Z" fill="white"/>
<path fill-rule="evenodd" clip-rule="evenodd" d="M56.9026 0H39.2363V19.5254H56.9026C59.7389 19.5254 62.0382 17.2488 62.0382 14.4406V5.08473C62.0382 2.27651 59.7389 0 56.9026 0ZM54.3349 5.99998H46.4261V13.7288H54.3349C54.6752 13.7288 54.9511 13.4556 54.9511 13.1186V6.61015C54.9511 6.27316 54.6752 5.99998 54.3349 5.99998Z" fill="white"/>
<path d="M66.6602 0H73.85V29.8982H66.6602V0Z" fill="white"/>
<path d="M83.6076 0H90.7973V29.8982H83.6076V0Z" fill="white"/>
<path d="M83.6076 11.4917V17.7968H73.85V11.4917H83.6076Z" fill="white"/>
<path fill-rule="evenodd" clip-rule="evenodd" d="M101.582 0C97.5545 0 94.2895 3.22169 94.2895 7.19584V22.7024C94.2895 26.6765 97.5545 29.8982 101.582 29.8982H111.75C115.778 29.8982 119.043 26.6765 119.043 22.7024V7.19584C119.043 3.22169 115.778 0 111.75 0H101.582ZM104.766 6.38504C103.461 6.38504 102.404 7.42869 102.404 8.71609V20.8781C102.404 22.1655 103.461 23.2091 104.766 23.2091H108.566C109.871 23.2091 110.929 22.1655 110.929 20.8781V8.71609C110.929 7.42869 109.871 6.38504 108.566 6.38504H104.766Z" fill="white"/>
<path d="M122.638 0H130.136V29.8982H122.638V0Z" fill="white"/>
<path d="M138.558 0H127.876V6.30506H135.203C137.188 6.30506 138.804 7.89973 138.974 9.85823C139.072 10.9839 139.174 12.2669 139.174 14.7929C139.174 17.4292 139.063 18.8189 138.961 20.0877L138.957 20.1404C138.8 22.1 137.188 23.6948 135.203 23.6948H127.876V29.8982H138.558C142.529 29.8982 145.796 26.7109 146.084 22.7897C146.228 20.8253 146.364 18.5091 146.364 14.5932C146.364 10.9726 146.248 8.83738 146.116 7.10592C145.819 3.18548 142.529 0 138.558 0Z" fill="white"/>
<path d="M149.856 0H157.046V29.8982H149.856V0Z" fill="white"/>
<path d="M170.707 0V6.20337H149.856V0H170.707Z" fill="white"/>
<path d="M170.707 23.6948V29.8982H149.856V23.6948H170.707Z" fill="white"/>
<path d="M167.933 11.5933V17.7967H149.856V11.5933H167.933Z" fill="white"/>
<path d="M174.302 5.08473C174.302 2.27651 176.601 0 179.437 0H191.865C194.701 0 197.001 2.27651 197.001 5.08473V9.50844H189.4V6.76269C189.4 6.4257 189.124 6.15252 188.784 6.15252H182.262C181.921 6.15252 181.645 6.4257 181.645 6.76269V9.99269C181.645 10.2752 181.839 10.5204 182.117 10.5854C182.536 10.6835 182.99 10.7892 183.469 10.9006C187.748 11.8956 193.998 13.3493 194.638 13.983C194.848 14.1904 195.06 14.3716 195.266 14.5475C195.968 15.1478 196.597 15.6852 196.795 16.983C196.932 17.8779 196.985 18.7171 197.001 19.3076V24.8135C197.001 27.6217 194.701 29.8982 191.865 29.8982H179.437C176.601 29.8982 174.302 27.6217 174.302 24.8135V20.3479H181.579V23.3898C181.579 23.7267 181.855 23.9999 182.195 23.9999H189.4C189.74 23.9999 190.016 23.7267 190.016 23.3898V19.7784C190.016 19.4959 189.822 19.2504 189.544 19.1863C188.92 19.0424 188.236 18.8897 187.515 18.7287C183.072 17.7371 177.241 16.4356 175.791 15C174.807 14.0256 174.688 13.2502 174.422 11.5074C174.416 11.4687 174.41 11.4295 174.404 11.3898C174.181 9.92898 174.404 7.98302 174.404 7.98302L174.302 8.03056V5.08473Z" fill="white"/>
</g>
<defs>
<clipPath id="clip0_2_3660">
<rect width="197" height="30" fill="white"/>
</clipPath>
</defs>
</svg>
