<svg width="15" height="18" viewBox="0 0 15 18" fill="none" xmlns="http://www.w3.org/2000/svg">
<path fill-rule="evenodd" clip-rule="evenodd" d="M7.5 1.31707C4.11947 1.31707 1.36364 4.00167 1.36364 7.33171C1.36364 8.87517 1.95584 10.2804 2.92897 11.3445L7.5 16.3463L12.0709 11.3447C13.044 10.2806 13.6364 8.87517 13.6364 7.33171C13.6364 4.00167 10.8805 1.31707 7.5 1.31707ZM0 7.33171C0 3.29077 3.34938 0 7.5 0C11.6506 0 15 3.29077 15 7.33171C15 9.20641 14.2793 10.9192 13.0932 12.2163L8.01117 17.7773C7.88174 17.9189 7.69558 18 7.5 18C7.30442 18 7.11826 17.9189 6.98883 17.7773L1.90691 12.2164C1.90687 12.2164 1.90696 12.2165 1.90691 12.2164C0.720851 10.9194 0 9.20641 0 7.33171ZM7.5 5.70732C6.62137 5.70732 5.90909 6.39527 5.90909 7.2439C5.90909 8.09254 6.62137 8.78049 7.5 8.78049C8.37864 8.78049 9.09091 8.09254 9.09091 7.2439C9.09091 6.39527 8.37864 5.70732 7.5 5.70732ZM4.54545 7.2439C4.54545 5.66787 5.86825 4.39024 7.5 4.39024C9.13175 4.39024 10.4545 5.66787 10.4545 7.2439C10.4545 8.81993 9.13175 10.0976 7.5 10.0976C5.86825 10.0976 4.54545 8.81993 4.54545 7.2439Z" fill="white"/>
</svg>
