<svg width="138" height="26" viewBox="0 0 138 26" fill="none" xmlns="http://www.w3.org/2000/svg">
<g clip-path="url(#clip0_197_183)">
<path d="M1.97 23.2702C2.05 23.2702 2.08 23.2502 2.08 23.1602V22.3402C2.08 22.2502 2.05 22.2302 1.97 22.2302H0.95V23.2602H1.97V23.2702ZM3.17 25.4502H2.18L1.51 24.0702H0.95V25.4502H0V21.4302H2.24C2.77 21.4302 3.03 21.6802 3.03 22.2202V23.2202C3.03 23.6702 2.85 23.9202 2.48 23.9902L3.17 25.4402V25.4502Z" fill="white"/>
<path d="M3.59998 21.4302H4.54998V22.9702H5.83998V21.4302H6.79998V25.4502H5.83998V23.8102H4.54998V25.4502H3.59998V21.4302Z" fill="white"/>
<path d="M14.7 21.4302H17.47V22.2602H15.65V22.9902H17.11V23.8002H15.65V24.6202H17.47V25.4502H14.7V21.4302Z" fill="white"/>
<path d="M17.96 24.6602V24.1302H18.9V24.5402C18.9 24.6202 18.93 24.6502 19.01 24.6502H19.92C20 24.6502 20.03 24.6202 20.03 24.5402V24.1202C20.03 24.0302 19.99 24.0002 19.87 23.9702L18.8 23.7102C18.27 23.5802 17.97 23.4302 17.97 22.8802V22.2202C17.97 21.6802 18.23 21.4302 18.76 21.4302H20.12C20.65 21.4302 20.91 21.6802 20.91 22.2202V22.7002H19.97V22.3402C19.97 22.2502 19.94 22.2302 19.86 22.2302H19.03C18.95 22.2302 18.92 22.2502 18.92 22.3402V22.7102C18.92 22.8002 18.95 22.8302 19.08 22.8602L20.15 23.1202C20.68 23.2502 20.98 23.4002 20.98 23.9502V24.6602C20.98 25.1902 20.72 25.4502 20.19 25.4502H18.76C18.23 25.4502 17.97 25.1902 17.97 24.6602" fill="white"/>
<path d="M12.33 24.5899H12.08V22.2699H12.33C13.22 22.2699 13.27 22.2799 13.27 23.4299C13.27 24.6399 13.23 24.5899 12.33 24.5899ZM13.16 21.4199H11.09V25.4399H13.16C14.06 25.4399 14.25 24.6499 14.25 23.4299C14.25 22.2799 14.06 21.4199 13.16 21.4199Z" fill="white"/>
<path d="M9.17005 24.5699H8.72005C8.37005 24.5699 8.35005 24.3899 8.35005 23.4299C8.35005 22.4699 8.37005 22.2999 8.72005 22.2999H9.17005C9.52005 22.2999 9.54005 22.4599 9.54005 23.4299C9.54005 24.3999 9.52005 24.5699 9.17005 24.5699ZM9.56005 21.4199H8.32005C7.36005 21.4199 7.30005 22.2699 7.30005 23.4199C7.30005 24.6299 7.36005 25.4299 8.32005 25.4299H9.56005C10.51 25.4299 10.58 24.6299 10.58 23.4199C10.58 22.2699 10.52 21.4199 9.56005 21.4199Z" fill="white"/>
<path d="M15.77 11.0801L8.29004 15.6001L12.3 19.8901H20.99V16.7401L15.77 11.0801Z" fill="white"/>
<path d="M15.77 11.08L20.83 7.89V4.81L16.18 0H0.0100098V18.03L1.73001 19.89H8.29001V15.6V3.08L15.77 11.08Z" fill="white"/>
<path d="M39.6 6.94C39.89 6.94 40 6.86 40 6.54V3.4C40 3.09 39.89 3 39.6 3H35.89V6.94H39.6ZM32.41 0H40.59C42.54 0 43.48 0.92 43.48 2.89V7.04C43.48 9.01 42.54 9.93 40.59 9.93H35.89V14.67H32.41V0Z" fill="white"/>
<path d="M53.02 6.73C53.31 6.73 53.42 6.65 53.42 6.33V3.35C53.42 3.04 53.32 2.95 53.02 2.95H49.31V6.72H53.02V6.73ZM57.42 14.68H53.79L51.34 9.63H49.31V14.68H45.83V0H54.01C55.96 0 56.9 0.92 56.9 2.89V6.56C56.9 8.22 56.25 9.12 54.89 9.37L57.43 14.67L57.42 14.68Z" fill="white"/>
<path d="M80.94 6.94C81.23 6.94 81.34 6.86 81.34 6.54V3.4C81.34 3.09 81.23 3 80.94 3H77.23V6.94H80.94ZM73.75 0H81.93C83.88 0 84.82 0.92 84.82 2.89V7.04C84.82 9.01 83.88 9.93 81.93 9.93H77.23V14.67H73.75V0Z" fill="white"/>
<path d="M87 0H97.11V3.02H90.48V5.68H95.78V8.66H90.48V11.66H97.11V14.68H87V0Z" fill="white"/>
<path d="M106.87 6.73C107.16 6.73 107.27 6.65 107.27 6.33V3.35C107.27 3.04 107.17 2.95 106.87 2.95H103.16V6.72H106.87V6.73ZM111.28 14.68H107.65L105.2 9.63H103.17V14.68H99.6899V0H107.87C109.82 0 110.76 0.92 110.76 2.89V6.56C110.76 8.22 110.11 9.12 108.75 9.37L111.29 14.67L111.28 14.68Z" fill="white"/>
<path d="M116.18 3.04H112.37V0H123.5V3.04H119.66V14.68H116.18V3.04Z" fill="white"/>
<path d="M129.05 9.9L124.32 0H128.09L130.82 6.37L133.52 0H137.25L132.53 9.9V14.68H129.05V9.9Z" fill="white"/>
<path d="M32.41 17.52H33.69L36.14 22.94L38.61 17.52H39.89V25.44H38.83V19.28L36.59 24.33H35.69L33.45 19.28V25.44H32.41V17.52Z" fill="white"/>
<path d="M46.45 22.28L45.22 18.57L43.97 22.28H46.45ZM46.77 23.28H43.63L42.91 25.44H41.78L44.53 17.52H45.93L48.68 25.44H47.49L46.77 23.28Z" fill="white"/>
<path d="M50.58 17.52H51.76L55.52 23.69V17.52H56.57V25.44H55.48L51.62 19.15V25.44H50.58V17.52Z" fill="white"/>
<path d="M63.13 22.28L61.9 18.57L60.66 22.28H63.14H63.13ZM63.46 23.28H60.32L59.6 25.44H58.47L61.22 17.52H62.62L65.37 25.44H64.18L63.46 23.28Z" fill="white"/>
<path d="M66.91 23.8598V19.1098C66.91 18.0398 67.42 17.5298 68.49 17.5298H71.01C72.09 17.5298 72.6 18.0398 72.6 19.1098V19.9598H71.51V19.1498C71.51 18.6998 71.34 18.5298 70.9 18.5298H68.6C68.16 18.5298 67.99 18.6998 67.99 19.1498V23.8398C67.99 24.2898 68.16 24.4598 68.6 24.4598H70.9C71.34 24.4598 71.51 24.2898 71.51 23.8398V22.2298H69.63V21.2598H72.6V23.8698C72.6 24.9498 72.09 25.4498 71.01 25.4498H68.49C67.41 25.4498 66.91 24.9398 66.91 23.8698" fill="white"/>
<path d="M75.02 17.52H80.15V18.51H76.11V20.89H79.47V21.89H76.11V24.44H80.15V25.44H75.02V17.52Z" fill="white"/>
<path d="M82.34 17.52H83.62L86.08 22.94L88.55 17.52H89.82V25.44H88.76V19.28L86.52 24.33H85.63L83.38 19.28V25.44H82.34V17.52Z" fill="white"/>
<path d="M92.45 17.52H97.58V18.51H93.54V20.89H96.9V21.89H93.54V24.44H97.58V25.44H92.45V17.52Z" fill="white"/>
<path d="M99.78 17.52H100.95L104.72 23.69V17.52H105.76V25.44H104.68L100.82 19.15V25.44H99.78V17.52Z" fill="white"/>
<path d="M110.06 18.5H107.73V17.52H113.49V18.5H111.14V25.44H110.06V18.5Z" fill="white"/>
<path d="M26.94 0H26.1V25.44H26.94V0Z" fill="white"/>
<path d="M66.1399 11.48H64.5099C63.2499 11.48 63.1699 10.84 63.1699 7.33C63.1699 3.82 63.2499 3.2 64.5099 3.2H66.1399C67.3999 3.2 67.4799 3.78 67.4799 7.33C67.4799 10.88 67.3999 11.48 66.1399 11.48ZM67.5699 0H63.0299C59.5399 0 59.3199 3.11 59.3199 7.31C59.3199 11.74 59.5399 14.67 63.0299 14.67H67.5699C71.0599 14.67 71.2799 11.74 71.2799 7.31C71.2799 3.11 71.0599 0 67.5699 0Z" fill="white"/>
</g>
<defs>
<clipPath id="clip0_197_183">
<rect width="137.25" height="25.45" fill="white"/>
</clipPath>
</defs>
</svg>
