<svg width="81" height="69" viewBox="0 0 81 69" fill="none" xmlns="http://www.w3.org/2000/svg">
<g id="uuid-8c47ee80-18e3-4dea-a22c-a3347d4e599b" clip-path="url(#clip0_1448_2595)">
<path id="Vector" d="M21.1293 57.3314C21.0236 57.5108 20.9205 57.7026 20.7996 57.8721C20.5874 58.1655 20.3267 58.1686 20.0484 57.9663C19.7398 57.7442 19.5179 57.4384 19.5266 57.1098C19.5335 56.2194 19.0042 55.5736 18.5249 54.9172C18.066 54.2957 17.7368 53.6074 17.5854 52.8945C17.2931 51.5186 16.5575 50.3938 15.7191 49.2777C15.4794 48.9495 15.1496 48.6274 15.0323 48.2601C14.2561 45.8367 12.9436 43.6579 11.6338 41.4916C10.3239 39.3252 9.0042 37.1741 7.62461 35.0488C6.65382 33.5556 5.80014 31.9983 4.65236 30.5949C4.35205 30.2273 3.99451 29.898 3.687 29.5581C2.72618 28.4811 2.69131 28.5016 3.40967 27.3294C3.85486 26.5943 4.25544 26.3262 5.02996 26.7107C5.70363 27.0513 5.96397 26.7999 6.52981 26.5097C7.63649 25.9348 8.85807 25.5315 10.0732 25.2211C10.7559 25.05 11.5015 25.1138 12.1445 25.6178C13.2531 26.4673 14.4583 27.2179 15.6089 28.0193C15.8997 28.2189 16.1162 28.4998 16.3551 28.7628C17.7501 30.2835 19.0681 31.8729 20.2092 33.5522C21.2406 35.0848 22.028 36.7607 22.9647 38.3396C23.4918 39.2211 24.069 40.092 24.6783 40.93C25.2164 41.6784 25.981 41.6468 26.3325 40.84C26.7522 39.862 27.3789 38.9968 27.8165 38.0411C28.1222 37.3879 28.509 36.809 28.9361 36.2346C29.9262 34.9262 30.8681 33.5757 31.7092 32.1814C32.3291 31.1608 33.1658 30.2379 33.8687 29.2389C34.9072 27.7895 35.961 26.35 36.8961 24.8441C37.8804 23.2624 39.0975 21.8535 40.3727 20.4715C41.4322 19.3052 42.4435 18.0969 43.3942 16.8492C44.2661 15.7228 45.2844 14.6699 46.3614 13.7091C47.0761 13.0736 47.6596 12.3744 48.3137 11.6995C50.0701 9.87542 51.7685 8.02441 53.5579 6.23251C55.0672 4.72232 57.04 3.79347 59.0134 2.92982C60.902 2.09727 62.8191 1.33711 64.8943 1.01397C65.8555 0.862078 66.8202 0.787895 67.7614 0.84942C69.4956 0.951662 70.4136 2.01162 70.2169 3.609C69.8644 6.44215 68.9005 9.10451 67.2671 11.5692C67.1193 11.7967 66.8938 12.0276 66.6445 12.1459C66.0286 12.4467 65.4494 12.6743 65.4364 13.4744C65.4368 13.7227 64.9657 13.9666 64.7179 14.2153C63.4465 15.4919 61.9193 16.5484 61.0278 18.1365C60.7724 18.596 60.2403 18.9835 59.7575 19.2952C58.9734 19.7886 58.4675 20.4843 58.0876 21.2186C57.5185 22.2938 56.7952 23.2579 55.8747 24.094C54.778 25.0851 54.1612 26.3665 53.3348 27.5225C52.5058 28.6659 51.8284 29.9079 50.5997 30.7702C50.4853 30.8468 50.3636 30.9511 50.2848 31.0724C49.0928 32.9074 47.3068 34.3456 46.1148 36.1805C45.5927 36.9843 45.4159 37.9369 44.7152 38.7001C44.0468 39.4304 43.629 40.3557 43.0542 41.1576C42.7237 41.633 42.4434 42.0978 42.2567 42.6342C42.0915 43.0876 41.8817 43.5767 41.5524 43.9342C39.7672 45.869 38.9502 48.2387 37.8611 50.4963C36.9162 52.4487 36.3695 54.5518 35.0569 56.3731C34.714 56.8512 34.6342 57.5218 34.5912 58.1192C34.5043 59.2488 33.9318 60.2462 33.6334 61.3031C33.3835 62.219 32.4288 62.7094 32.0424 63.5366L31.9298 63.5605L32.1103 63.5483C31.7431 64.0969 31.134 64.1217 30.806 63.7469C30.0021 62.7934 28.9827 62.0557 28.1538 61.1075C26.9791 59.7622 25.5808 58.5951 24.2273 57.3924C23.8091 57.0237 23.2878 56.8468 22.6333 57.2734C22.1854 57.5647 21.5668 57.8529 21.0489 57.3224C21.1532 57.444 21.146 57.4717 21.0148 57.4081C21.0622 57.3849 21.0944 57.3519 21.1418 57.3288L21.1293 57.3314Z" fill="black"/>
</g>
<defs>
<clipPath id="clip0_1448_2595">
<rect width="71.1601" height="54.6648" fill="white" transform="translate(0 14.7853) rotate(-11.992)"/>
</clipPath>
</defs>
</svg>
