<svg width="75" height="86" viewBox="0 0 75 86" fill="none" xmlns="http://www.w3.org/2000/svg">
<g clip-path="url(#clip0_1448_2885)">
<path d="M15.56 26.8599C16.38 25.8799 17.21 24.9299 18.06 24.0099C18.18 24.1699 19.41 25.7499 19.66 26.0899C20.81 27.5499 22.6 28.3099 24.36 27.2699C25.91 26.3599 26.67 24.0899 25.6 22.5199C24.79 21.3199 23.81 20.2199 22.82 19.1299C23.78 18.1999 24.74 17.2599 25.71 16.3199C27.18 14.8999 25.68 11.8099 23.59 12.6799C22.06 13.3199 20.62 14.2199 19.26 15.2599C18.1 14.0899 16.78 13.0199 15.34 12.7699C13.39 12.4399 12.02 13.8499 12.33 15.7799C12.55 17.1599 13.52 18.5099 14.52 19.7199C13.54 20.8199 12.61 21.9499 11.74 23.0499C9.64997 25.7199 13.3 29.5499 15.54 26.8499L15.56 26.8599Z" fill="black"/>
<path d="M15.47 47.5501C16.46 46.5101 16.56 45.3901 17.2 44.2201C17.31 44.0101 17.46 43.8101 17.61 43.6101C18.67 44.5101 19.78 45.3801 20.87 46.2501C22.23 47.3401 24.06 47.5901 25.39 46.2501C26.58 45.0601 26.68 42.9001 25.39 41.7301C24.37 40.7901 23.27 39.9601 22.15 39.1501C23.6 37.8701 25.04 36.5401 26.01 34.8801C27.17 32.8801 24.94 31.1701 23.11 31.9801C21.13 32.8401 19.31 34.2701 17.62 35.7601C17.06 35.2901 16.51 34.8101 16 34.2801C14.45 32.7001 11.3 34.2901 12.13 36.5401C12.52 37.5901 13.04 38.5501 13.65 39.4301C11.92 41.1401 10.18 43.2701 10.26 45.4001C10.35 47.9701 13.58 49.5801 15.48 47.5601L15.47 47.5501Z" fill="black"/>
<path d="M23.2899 52.5299C21.4099 53.4699 20.9999 55.4899 20.4599 57.3099C19.8299 59.4099 18.9899 61.4699 18.1999 63.5099C18.1899 63.5399 18.1699 63.5699 18.1599 63.5999C16.6199 62.0199 15.0799 60.4299 13.4599 58.9399C12.0299 57.6299 9.06991 58.8899 9.90991 61.0099C11.0999 63.9899 13.3899 66.4799 15.5699 68.7999C17.1999 70.5299 19.3099 71.4999 21.2299 69.4599C22.8399 67.7499 23.5999 65.1199 24.4399 62.9899C24.9599 61.6899 25.4399 60.3899 26.1299 59.1699C26.7199 58.1199 27.5899 57.2599 27.7799 55.9899C28.1699 53.3399 25.8599 51.2499 23.2899 52.5299Z" fill="black"/>
<path d="M61.5799 19.84C52.3499 20.14 42.6499 18.64 33.5099 19.69C30.7799 20 30.8099 23.56 33.5099 23.91C42.6699 25.1 53.1399 25.84 62.2799 24.33C65.2299 23.84 64.4999 19.75 61.5799 19.84Z" fill="black"/>
<path d="M61.23 39.22C51.58 39.28 40.86 36.63 31.49 39.66C29.06 40.45 29.42 44.23 32.1 44.19C41.86 44.07 51.46 44.25 61.23 44.55C64.67 44.66 64.67 39.19 61.23 39.22Z" fill="black"/>
<path d="M60.88 61.2701C51.6 61.4901 42.01 60.4301 32.8 61.5101C30.02 61.8401 30.06 65.4401 32.8 65.8001C41.89 67.0001 51.74 67.4501 60.88 66.5401C64.19 66.2101 64.34 61.1901 60.88 61.2701Z" fill="black"/>
<path d="M72.5701 78.7601C72.8001 53.4201 75.4501 28.4201 71.3701 3.30007C71.1801 2.15006 70.2401 1.70007 69.2901 1.77007C69.0801 1.70007 68.8501 1.65007 68.6001 1.64007C58.3101 1.05007 48.0901 2.63006 37.7401 1.93007C27.4601 1.25007 15.8301 -0.499935 5.51007 0.330065C5.04007 0.370065 4.65007 0.520065 4.34007 0.750065C3.24007 -0.579935 0.700069 -0.139935 0.570069 2.06007C-0.479931 18.9501 0.240069 34.7801 0.240069 51.7101C0.240069 58.1601 0.190069 64.6101 0.200069 71.0601C0.200069 73.1201 -0.259931 80.0501 0.420069 80.7601C0.490069 80.8401 0.570069 80.8901 0.640069 80.9501C-0.0799312 82.3001 2.16007 84.9301 4.10007 84.8301C9.43007 84.5501 16.0201 83.4501 21.3701 83.1501C26.9001 82.8401 32.4701 83.2301 38.0001 83.4501C49.1401 83.8801 60.2701 85.2001 71.4101 85.3301C74.5101 85.3701 74.8901 79.8501 72.5801 78.7701L72.5701 78.7601ZM6.10007 79.0401C6.10007 78.6601 6.02007 78.2601 5.79007 77.8701C4.30007 75.2501 5.11007 70.3201 5.14007 67.4001C5.22007 60.6201 5.15007 56.1701 5.15007 49.4001C5.15007 34.8001 5.69007 19.0101 4.94007 4.41007C5.11007 4.46007 5.29007 4.50007 5.50007 4.51007C15.8301 5.12007 27.4201 6.21007 37.7301 7.05007C47.6101 7.85007 57.3501 6.39007 67.1801 6.78007C67.3301 18.8201 68.2201 31.8501 68.1301 43.9201C68.0401 56.0601 66.2501 66.3001 67.5101 78.4201C57.6701 78.2101 47.8401 77.7201 38.0001 77.4101C28.4801 77.1201 15.6101 76.3701 6.11007 79.0401H6.10007Z" fill="black"/>
</g>
<defs>
<clipPath id="clip0_1448_2885">
<rect width="74.06" height="85.32" fill="white"/>
</clipPath>
</defs>
</svg>
