<svg width="169" height="115" viewBox="0 0 169 115" fill="none" xmlns="http://www.w3.org/2000/svg">
<g id="uuid-c331cf34-270a-4032-ad7a-1f007c6f1a45" clip-path="url(#clip0_1448_2599)">
<path id="Vector" fill-rule="evenodd" clip-rule="evenodd" d="M103.413 18.4574C103.169 19.0922 104.05 18.6039 103.805 19.2387C103.095 19.0515 103.609 20.0852 103.217 20.2154C102.818 20.1584 102.695 19.8247 102.434 19.6294C102.026 19.8736 101.896 20.3944 101.455 20.606C101.651 21.2978 102.32 20.4351 102.239 21.192C101.545 20.9397 100.925 21.2002 101.651 21.5827C101.325 22.2012 101.235 20.9804 100.477 21.3874C100.55 22.3233 101.692 21.6071 101.847 22.7547C101.496 22.7303 101.431 22.9907 101.064 22.95C101.08 22.6733 101.097 22.3966 100.868 22.364C100.346 22.2989 101.048 23.4546 100.281 23.1453C100.615 24.3743 100.085 24.3092 100.281 25.294C99.8974 25.1556 99.7587 24.7731 99.6934 24.3173C99.4487 24.6429 99.1877 25.3754 98.7145 24.9033C98.739 25.8393 99.155 25.1638 99.8892 25.294C100.044 26.2869 99.2448 26.0997 98.9103 25.6846C98.6982 25.7335 98.7798 26.0753 98.5188 26.0753C98.5677 26.3195 98.9103 26.2706 98.9103 26.0753C99.3998 26.4497 98.6656 26.9217 99.1061 27.4426C98.9103 26.9217 98.0538 26.8729 98.323 27.8333C98.0619 27.581 97.6051 27.581 97.3441 27.8333C98.739 28.2158 97.0912 29.168 97.7356 30.1773C96.9607 29.925 97.3359 30.8202 96.5609 30.5679C96.9199 31.6422 95.7452 32.2201 96.3652 32.9119C96.2183 33.2619 96.0062 32.9444 95.7778 32.9119C95.0763 33.3839 95.0273 34.5071 93.82 34.4745C93.1429 35.0361 93.4774 36.6069 92.058 36.4278C92.1477 37.2336 92.058 37.8603 91.2748 37.7952C91.8051 38.3812 90.8507 38.666 91.0791 39.5531C90.8017 39.9112 90.1246 39.2439 89.7086 39.7485C89.8391 40.0089 90.3041 39.5776 90.4917 40.1391C90.0431 40.6519 90.4509 40.8065 90.1002 41.3111C90.1654 41.5716 90.5896 41.4739 90.8833 41.5064C90.4101 42.4668 90.1981 43.6958 88.5339 43.4598C88.4768 43.9725 88.9418 43.9644 89.317 44.0458C89.056 44.648 88.4442 43.6795 88.1423 44.2411C88.2729 44.4364 88.591 44.4446 88.5339 44.8271C87.5713 44.9085 87.6447 46.0235 86.9677 46.3897C86.9106 46.7397 87.7263 46.3979 87.555 45.9991C88.2402 46.6909 87.139 47.2606 87.3592 48.1477C86.1601 47.9524 87.0982 48.7581 85.9888 48.7337C86.3069 49.4987 85.2627 49.9789 84.4225 50.2963C84.3409 50.7684 84.7814 50.7196 84.6183 51.273C84.088 51.1346 84.2267 51.6637 83.8352 51.6637C83.9657 51.859 84.2838 51.8671 84.2267 52.2496C83.3131 51.9648 82.8481 53.6495 83.052 54.5936C82.4892 54.7483 82.2852 55.261 81.4858 55.1796C82.0487 55.4075 81.0045 56.5632 80.3111 56.7423C80.36 57.4666 80.6945 57.605 79.7238 57.5236C79.8543 58.4677 80.1479 60.8605 78.5491 61.0395C78.0351 61.3 78.1738 61.9104 78.3533 62.4069H77.7659C78.3451 63.5707 77.1623 63.2777 77.3744 64.5555C76.9828 64.5555 77.1215 64.0265 76.5913 64.1648C77.1541 64.4741 76.5831 66.2321 75.6124 66.3135C76.0773 67.1843 74.5763 67.8273 74.2419 68.8528C73.8993 69.9027 74.0787 71.0014 73.0672 71.1967C73.0427 71.5467 73.3038 71.6118 73.263 71.9781C71.7457 72.1327 72.6593 74.9243 70.9136 75.2987C70.9054 75.6324 71.0604 75.8033 71.3052 75.8847C70.6607 76.2184 70.1468 76.6823 70.3263 77.838C70.1713 77.7322 70.0081 77.6345 69.7389 77.6427C69.6573 78.1147 70.0978 78.0659 69.9347 78.6193C69.1679 78.8228 68.8416 80.304 69.1516 80.5726C69.1189 80.8005 68.7926 80.7354 68.5642 80.768C69.2902 81.9155 66.8593 84.3246 66.998 83.8933C67.2101 85.3908 66.4514 87.4336 65.0402 88.3859C65.5541 89.7939 63.6615 91.324 63.6697 93.8551C63.0171 94.4818 62.2584 95.2387 62.495 96.1991C61.8669 96.0363 61.8913 96.5084 61.5161 96.5898C61.8179 96.8746 61.6874 97.5908 61.7119 98.1524C61.5243 98.1524 61.5569 97.9082 61.5161 97.7617C60.7738 100.187 61.043 103.011 59.7541 104.989C60.4964 105.559 59.6643 106.869 59.9498 107.528C60.4719 106.942 60.3822 107.203 60.5372 107.724C62.0545 106.576 63.0823 105.852 64.0612 103.622C70.1142 96.1421 74.405 85.9849 80.5069 78.6193C81.9508 75.1115 84.5285 72.735 86.1845 69.4388C86.3558 69.2841 86.625 69.2272 86.9677 69.2434C87.5632 66.5739 90.2388 63.4893 92.4495 61.2349C91.3646 60.9663 93.5508 60.3803 93.2327 59.0862C94.5134 58.4595 94.4563 58.606 94.4073 57.5236C96.5528 56.7992 96.4386 53.8204 98.5188 53.031C99.979 49.7348 102.206 47.2036 104.784 45.0224C104.694 44.8515 104.612 44.6724 104.392 44.6317C112.501 35.6465 120.83 24.065 131.997 16.8948C134.608 17.3505 134.852 20.1665 136.892 21.192C137.088 23.5767 138.148 23.9755 138.458 26.0753C140.22 27.6054 137.659 30.2993 137.479 30.9586C137.447 31.0888 137.838 31.2109 137.871 31.1539C137.61 31.6504 136.704 32.5212 136.696 32.1306C136.198 32.4968 136.876 32.8142 136.5 33.3026C135.595 32.7735 135.995 34.4094 134.934 34.2792C135.154 36.3709 133.613 36.8266 133.759 38.3812C132.732 38.0719 133.156 40.9123 131.997 40.7251C132.658 41.7588 131.182 42.9063 131.606 43.6551C130.521 43.9074 130.863 45.5351 130.04 46.5851C129.721 46.992 127.462 48.986 128.277 49.1244C128.114 49.4174 127.649 49.4092 127.299 49.515C127.266 51.2242 125.602 52.2171 125.928 54.0076C125.545 54.5041 124.443 55.2936 124.753 56.1563C123.823 56.1888 123.057 58.4026 123.187 59.4769C121.743 59.5094 122.241 61.7395 122.013 62.2115C121.996 62.7161 121.286 62.5289 121.034 62.7975C121.034 63.2614 121.368 63.3754 121.229 63.9695C120.503 63.8311 120.74 64.6532 120.446 64.9462C120.259 64.9462 120.291 64.7101 120.25 64.5555C119.908 65.638 118.603 66.1588 118.88 67.2901C118.692 67.2901 118.725 67.0541 118.684 66.8995C118.219 68.2017 117.094 68.8039 117.118 71.0014C116.832 71.2293 116.629 71.2293 116.335 71.0014C116.849 72.0839 115.747 73.028 115.16 73.1501C115.886 74.4441 113.594 74.9894 113.985 76.666C112.819 76.666 113.317 78.3426 112.223 78.424C112.631 79.6529 110.869 79.7994 111.44 81.354C111.187 81.59 111.13 81.4272 110.853 81.354C110.38 82.9654 109.89 85.0408 108.895 86.0419C108.92 86.5384 109.181 86.7988 109.678 86.8232C109.988 86.5465 110.176 86.1477 110.266 85.6512C110.633 86.4081 111.245 85.0815 111.245 84.2839C111.506 84.5851 112.599 83.3235 113.594 82.1353C114.198 81.4191 115.136 80.5564 115.552 79.7913C115.658 79.6041 115.429 79.1809 115.552 79.01C116.58 77.5613 118.227 76.6416 118.293 75.1034C120.577 73.9639 121.058 71.2944 123.579 70.0248C123.44 69.4306 123.783 69.3167 123.775 68.8528C124.884 68.6249 126.01 66.7448 126.711 65.9228C127.6 64.8892 128.424 64.702 128.669 63.3835C130.7 62.6673 130.937 60.1768 133.172 59.6722C133.629 58.3049 135.114 57.9631 135.326 56.3516C135.848 56.5225 136.517 55.8714 136.109 55.7656C138.368 54.2599 139.47 52.5101 141.786 50.8823C142.08 50.7114 141.729 50.5893 141.982 50.101C143.108 49.8813 144.038 48.8965 145.115 47.757C146.901 45.8688 149.234 44.6073 150.988 42.6784C153.909 41.5146 155.932 39.5124 158.819 38.3812C160.182 38.3893 160.867 38.4137 162.148 38.7718C161.805 39.5857 163.102 40.0903 163.322 40.3345C163.869 40.953 164.146 42.0111 164.693 42.6784C164.766 42.7761 165.207 42.5808 165.28 42.6784C165.541 43.0203 165.566 43.9318 165.868 44.2411C165.949 44.3306 166.39 44.1434 166.455 44.2411C166.569 44.4039 166.063 44.4283 166.063 44.4364C166.186 44.9247 167.295 45.5026 167.63 45.8037C168.103 47.4722 169.114 48.3756 168.804 50.2963C168.755 50.6138 168.992 50.63 169 50.8823C169.057 53.739 167.01 56.5388 166.063 59.4769C165.745 60.478 165.704 61.6825 165.28 62.6022C165.248 62.6754 164.75 62.6999 164.693 62.7975C163.763 64.4985 163.461 66.6879 162.148 68.0714C161.96 70.6107 160.704 71.9292 160.19 74.7127C159.798 74.7127 159.937 75.2499 159.407 75.1034C159.472 75.4859 160.01 76.4951 159.015 76.2753C159.276 77.1381 158.493 77.9519 158.819 78.2287C158.73 78.5135 158.648 78.2124 158.428 78.2287C158.436 80.0029 156.136 83.0387 156.666 84.6746C155.622 85.1222 156.184 86.1233 155.883 86.6279C156.348 87.0755 157.637 86.7011 158.428 86.8232C159.138 88.8091 160.492 90.3961 161.365 91.5112C161.454 91.6251 161.046 91.7228 160.973 91.7065C162.808 92.8785 162.653 95.1899 162.735 97.3711C162.254 98.2094 161.397 98.9256 160.581 99.7151C160.263 100.024 159.839 100.252 159.798 100.887C158.615 101.034 158.469 101.343 157.645 102.059C157.114 102.197 157.253 101.668 156.862 101.668C153.15 103.158 152.62 98.771 149.813 97.7617C149.569 96.7118 148.598 95.491 148.247 95.2224C147.056 94.319 146.771 93.0738 145.506 91.9018C142.504 78.7902 149.658 67.5424 153.925 57.3283C153.851 56.6853 153.101 56.7178 152.75 56.3516C152.53 56.5307 152.766 56.7911 152.359 57.1329C151.902 56.4249 152.212 57.255 151.38 57.1329C151.363 57.7026 149.675 60.0141 149.226 59.4769C148.802 60.2908 147.937 60.8279 147.464 60.6489C146.885 61.5767 147.293 62.887 146.485 64.1648C145.457 64.116 145.262 64.8973 145.115 65.7275C142.023 66.2158 141.46 70.5375 138.262 70.4154C137.977 71.3026 137.438 71.9374 136.305 71.9781C136.582 73.2884 135.579 73.4105 135.717 75.1034C133.033 76.6579 130.814 77.3659 129.844 81.1586C128.571 81.2888 128.498 81.5737 128.277 82.5259C127.6 82.3713 127.339 82.6317 127.494 83.3073C126.165 83.0875 126.711 84.7397 125.341 84.4792C125.3 85.0652 124.191 86.2942 122.991 86.8232C123.326 87.4418 121.841 88.9719 122.013 89.3625C119.084 90.6566 118.831 94.8806 116.139 96.0038C116.31 97.306 114.964 97.3385 115.16 99.1291C114.442 99.2593 114.475 99.2349 114.377 100.106C109.662 101.774 109.874 108.391 102.239 105.575C102.41 105.103 101.48 104.313 100.477 104.403C100.477 104.216 100.713 104.248 100.868 104.208C97.1972 101.4 93.8119 98.185 95.7778 92.2925C95.9981 91.6332 96.6833 90.6322 96.9525 90.1438C97.8417 88.5405 98.1353 86.1965 98.9103 84.4792C99.4895 83.2096 100.24 81.8667 100.868 80.5726C102.23 77.7566 104.066 75.022 105.567 71.9781C106.122 70.8549 106.554 70.0248 106.937 68.8528C108.153 68.0308 109.809 63.644 110.657 62.0162C111.848 59.7292 113.031 57.8573 113.985 55.7656C114.238 55.2122 114.361 54.789 114.573 54.3983C114.622 54.3169 114.85 54.7157 114.769 54.7889C115.291 54.3006 116.098 52.5345 116.531 51.6637C117.689 49.3441 119.157 46.5118 119.663 45.4131C119.737 45.2584 119.361 45.234 119.272 45.2177C119.304 44.9898 119.63 45.055 119.859 45.0224C120.495 41.9134 122.787 39.8706 122.796 37.2092C122.298 37.608 121.311 37.1278 121.034 38.3812C120.112 38.1777 119.932 38.7148 119.663 39.1625C119.402 39.0974 119.353 38.8207 119.076 38.7718C117.828 39.5694 118.505 41.0751 117.705 42.2878C117.469 42.654 116.669 42.3041 117.118 43.0691C116.522 42.3285 115.772 44.6643 115.356 43.4598C115.005 44.0295 115.201 44.2329 114.573 44.2411C114.573 44.4283 114.809 44.3957 114.964 44.4364C113.414 45.177 111.579 46.9594 111.245 48.7337C110.837 48.9779 110.445 49.2383 110.266 49.7103C110.078 49.7103 110.111 49.4743 110.07 49.3197C109.075 51.3055 108.381 51.3055 107.525 52.6403C107.451 52.974 107.68 53.0066 107.916 53.031C107.533 53.5193 107.272 54.8785 106.546 54.3983C106.717 54.5529 106.66 54.9355 106.937 54.9843C106.423 55.5133 105.485 55.6191 104.784 55.9609C104.816 56.1888 105.143 56.1237 105.371 56.1563C104.947 56.7097 104.588 57.3283 103.805 57.5236C104.376 58.7281 102.63 58.1421 102.826 59.4769C101.978 59.5583 102.255 59.835 101.651 59.8676C101.855 61.5035 98.8287 62.5371 98.9103 64.5555H98.323C99.0082 65.7926 97.5725 64.4497 97.7356 66.1181C96.9688 65.9391 97.2462 66.8018 96.3652 66.5088C96.5201 67.1843 96.0715 67.2576 96.1694 67.8761C95.6799 67.0704 95.272 69.1214 95.1905 68.0714C94.546 68.1284 95.5249 69.1051 95.582 68.4621C95.3536 69.6667 93.6813 71.1235 93.2327 72.7594H92.4495C93.0532 73.1419 91.8948 74.5092 90.8833 74.5174C90.7936 74.9324 91.1606 74.8918 91.4706 74.908C90.6304 75.3882 90.6712 76.2102 90.6875 77.0567C88.9173 76.7881 89.3904 78.7577 87.9466 78.8147C87.971 79.1809 88.0771 79.4658 88.3381 79.596C87.0084 80.1982 87.4 81.3051 85.9888 81.7446C86.1437 81.9155 86.2009 82.1841 86.1845 82.5259C84.6917 83.0875 85.2546 86.2698 83.052 86.4326C83.1907 87.0267 82.8563 87.1488 82.8563 87.6045C81.7305 87.3278 82.016 88.4591 81.29 88.5812C81.2982 91.1937 79.7972 91.5356 79.1364 93.8551C77.9291 93.6598 78.9243 95.1492 77.9617 94.4411C77.8883 94.7748 78.1167 94.8074 78.3533 94.8318C78.2962 95.1004 77.8638 94.9946 77.5702 95.0271C77.407 95.2143 77.6354 96.5653 76.5913 96.0038C76.216 98.6896 74.5111 100.57 73.6545 103.231C72.5125 103.353 72.798 104.379 72.0883 105.575C71.7865 106.08 70.9952 106.511 70.7178 107.138C70.2121 108.269 69.2168 109.498 68.9558 110.654H68.1727C67.9524 112.591 66.7696 112.371 66.0191 113.779C65.7417 113.795 65.4643 113.811 65.4317 113.584C64.1999 115.74 59.2891 114.853 57.4047 113.388C57.4292 113.038 57.1681 112.973 57.2089 112.607C54.3048 110.776 52.8283 108.35 52.5102 105.38C52.3225 103.605 52.2083 101.017 52.5102 99.3244C52.6733 98.3966 53.4238 97.5094 53.4891 96.5898C53.4972 96.4351 53.0975 96.3863 53.0975 96.3944C53.1383 96.1747 53.6359 96.0607 53.6848 95.8084C53.7175 95.6619 53.3993 95.3608 53.4891 95.0271C54.0683 92.9273 55.4061 90.4206 56.23 87.9952C56.8663 86.1314 57.3476 84.0479 58.1878 82.5259C59.3625 80.4099 61.1164 76.5032 62.1034 73.9314C62.6092 72.6129 64.4691 69.4144 65.4317 67.8761C66.7125 65.8251 67.2427 63.5626 68.5642 61.8209C68.4092 61.6499 68.3521 61.3814 68.3684 61.0395C68.5561 61.0395 68.5234 61.2756 68.5642 61.4302C71.7457 55.2122 75.0658 49.2871 78.1575 43.4598C77.8312 44.3306 77.3173 43.0935 77.7659 42.6784C77.5294 41.889 77.097 42.4343 76.5913 42.0924V41.3111C77.1704 42.068 77.5049 41.6855 78.5491 41.5064C78.3778 41.8564 78.0025 42.0029 78.1575 42.6784C78.8835 42.4668 78.3696 40.7251 79.3322 41.3111C79.1935 40.7007 78.8101 41.0588 78.3533 41.1158C78.7204 40.4403 78.7204 40.6193 78.3533 39.9438C78.8019 39.8217 79.5361 39.5531 79.9195 39.9438C79.1201 38.3567 78.288 40.131 77.5702 38.9671C77.5946 39.3334 77.7007 39.6183 77.9617 39.7485C77.0154 39.7485 78.2065 40.3507 77.1786 40.5298C77.2112 40.7577 77.5375 40.6926 77.7659 40.7251V41.1158C77.5783 41.1158 77.6109 41.3518 77.5702 41.5064C77.0236 40.6112 76.3384 41.3274 75.6124 40.9205C75.4655 41.9541 76.1263 41.1076 76.3955 41.5064C76.3955 41.8971 75.8652 41.7588 76.0039 42.2878C75.7918 42.2389 75.8734 41.8971 75.6124 41.8971C75.0576 42.0924 75.6694 42.7273 75.6124 43.0691C74.8455 43.183 74.4784 42.8982 74.0461 42.6784C73.7769 42.9877 74.2663 44.2085 73.4588 44.4364C73.4914 44.6643 73.8177 44.5992 74.0461 44.6317C73.989 44.9003 73.5566 44.7945 73.263 44.8271C72.9775 45.5677 74.1358 44.8678 73.8503 45.6084C73.1243 45.6247 73.2222 45.9014 72.8714 45.4131C72.8306 45.8363 72.5533 46.4874 72.4798 46.9757C71.8599 47.1955 72.0393 46.992 71.3052 46.9757C70.9299 47.9361 71.9578 47.4966 71.8925 48.1477C71.2644 48.3186 71.1502 47.9768 70.9136 47.757C70.6933 47.9117 70.6526 48.7662 71.1094 49.1244C70.9381 49.7022 70.9544 48.5384 70.3263 48.929C70.0081 48.8965 69.9265 50.2068 70.522 49.9057C69.1026 49.7266 69.796 50.2638 68.76 51.0777C68.9313 51.5416 69.8531 50.63 69.7389 51.6637C69.1679 51.2079 68.76 51.6148 69.1516 52.2496C68.9068 52.1601 68.7518 51.9973 68.76 51.6637C68.5887 51.8183 68.3195 51.8753 67.9769 51.859C67.8382 52.4531 68.3113 52.4287 68.1727 53.031C68.0177 52.9252 67.8545 52.8275 67.5853 52.8356C68.0095 53.8367 66.8022 52.8194 67.1938 54.3983C66.8022 55.1389 67.3161 53.3891 66.6064 53.8123C66.0354 53.9751 66.7206 54.439 66.6064 54.7889C66.4269 54.5773 65.8804 54.732 66.0191 54.203C65.2767 54.4634 66.2148 55.6761 65.4317 56.1563C65.4888 56.4248 65.9212 56.319 66.2148 56.3516C65.9946 56.905 65.2033 57.0108 66.2148 57.3283C65.9456 57.9712 65.0891 58.0282 64.6486 58.5002C64.4202 58.4677 64.4855 58.1421 64.4528 57.9142C64.1102 58.0933 64.0939 58.5979 63.8655 58.8909C63.8655 59.4362 64.3957 58.427 64.257 59.2816C63.7757 59.3874 62.9926 59.4932 62.2992 59.8676C62.3563 60.1361 62.7887 60.0303 63.0823 60.0629C62.9029 60.4047 62.4705 60.4942 61.9077 60.4535V62.4069C61.2958 62.2685 61.6548 61.886 61.7119 61.4302C61.4264 60.8361 60.5209 61.0802 60.3414 61.6255C60.5861 62.2197 61.0185 61.4139 61.5161 61.6255C61.4345 61.9999 60.9532 61.9836 61.1245 62.6022C60.8717 62.3336 60.2027 62.4801 59.9498 62.2115C60.0396 62.5778 59.6806 63.3916 60.3414 63.1882C60.0885 63.7335 59.5583 62.944 59.3625 62.7975C58.7752 63.3917 59.2238 63.9207 59.1667 64.9462C58.8159 64.4497 57.682 64.7345 57.6005 63.9695C57.3313 64.0265 57.4373 64.4578 57.4047 64.7508C57.3231 65.2147 58.2939 64.645 57.992 65.3368C57.4536 65.3531 57.6005 65.0113 57.2089 65.3368C57.8452 65.638 57.2089 67.2006 56.4258 67.2901C56.646 67.5913 56.9887 67.7703 57.2089 68.0714C57.2905 68.8853 56.6216 67.9819 56.4258 67.8761C56.0261 67.9331 56.0424 68.4051 55.6427 68.4621C55.8955 68.8609 56.5889 68.8202 56.4258 69.6341H55.6427C56.4339 69.9841 55.0553 70.4398 55.6427 71.1967C55.2348 71.2781 55.1206 71.0665 54.8595 71.0014C54.9411 71.3758 55.4224 71.3514 55.2511 71.9781C54.8595 71.9943 54.1254 72.6454 54.6638 72.9547C54.5169 73.3047 54.3048 72.9791 54.0764 72.9547C53.7093 73.3291 54.1906 73.3047 54.0764 73.9314C53.0241 73.6058 53.073 74.436 52.3144 75.1034C52.8038 75.5673 52.502 75.6161 52.5102 76.4707C51.6291 75.9172 51.6944 76.9509 51.727 77.838C50.9113 77.6264 50.7971 79.9704 50.7481 78.2287C50.5931 78.9205 49.9976 79.1728 49.7692 79.7913C49.4184 79.8157 49.3532 79.5471 48.9861 79.596C49.1166 79.7913 49.4348 79.7994 49.3777 80.182C48.4722 79.9297 49.0514 81.1586 48.0072 80.768C48.0725 81.354 48.9453 81.1342 48.5945 82.1353C48.2519 82.2492 47.4443 81.8993 47.4199 82.3306C47.5259 82.5504 48.1785 82.3632 48.5945 82.7213C47.7298 82.8678 47.6727 83.4945 48.203 84.0886C47.8685 83.7386 47.322 83.5433 47.0283 84.0886C47.1343 84.5281 47.3301 83.8526 47.6156 84.2839C47.2241 85.0164 46.8325 85.2036 47.4199 86.0419C46.9875 85.9361 47.1425 86.4163 46.8325 86.4326C46.8651 86.6604 47.1914 86.5953 47.4199 86.6279C46.9793 87.2953 46.6041 88.0278 46.2452 88.7765C45.8781 87.9952 45.2336 88.6382 45.462 89.5578C44.7279 89.7695 44.9073 89.0777 44.2873 89.1672C44.2302 89.5172 44.475 89.566 44.4831 89.3625C44.8013 89.8753 44.5239 90.2089 44.6789 91.1205C43.6592 91.4623 43.5695 91.7879 42.5253 91.3158C42.9414 91.5519 43.0963 92.0483 43.7 92.0972C43.39 92.2437 43.4063 92.7157 42.9169 92.6831C42.9577 92.5285 43.1127 92.4878 43.1127 92.2925C42.6232 92.2599 42.6395 92.732 42.3295 92.8785C42.3377 93.1959 43.3003 93.9772 42.3295 94.0505C43.3084 94.3679 41.7014 94.9213 42.9169 94.8318C42.6477 95.1411 41.9543 95.0434 41.7422 95.4178C41.7177 95.7677 41.9788 95.8329 41.938 96.1991C41.5056 95.6864 41.2854 96.8095 40.7633 96.1991C40.7062 96.7118 41.0325 96.8421 41.5464 96.7851C40.6736 97.3792 39.7436 98.6326 39.9802 99.7151C39.6375 99.2349 39.5478 99.3244 39.5886 100.106H38.8055C38.9442 100.7 38.6015 100.814 38.6097 101.278C37.7532 101.416 38.7647 100.887 38.2181 100.887C37.8266 101.091 38.5526 102.197 37.6308 102.254C38.3813 105.192 36.0564 105.559 35.0856 107.528H33.7152C34.2943 107.683 33.7315 108.594 33.1278 108.7C33.8457 109.514 32.0755 110.304 32.5405 110.849C31.431 111.63 30.3135 112.403 29.408 113.388C23.9587 113.03 21.8622 109.327 18.2484 107.138C18.4687 106.421 17.3103 105.754 17.0738 105.184C16.1601 102.962 16.2498 98.95 17.2695 96.7851C16.8861 95.5561 17.8732 94.5062 17.4653 93.0738C18.2077 93.2935 18.2648 91.3158 18.2484 90.1438C21.0628 83.1038 23.0859 74.8429 25.8839 67.2901C25.321 67.8843 25.4679 68.0226 24.5134 68.0714C24.595 68.4458 25.2721 68.2261 25.1008 68.8528C23.1838 68.9342 21.9438 70.5701 21.9683 73.1501C21.3728 72.7268 21.8133 73.2233 21.7725 73.3454C21.4544 74.4116 19.9615 74.9406 19.8147 76.2753C18.7134 76.8613 18.4034 77.7892 18.0527 79.4006H17.2695C17.3511 80.5889 16.6577 81.004 16.6822 82.1353C14.3981 82.9085 16.0867 87.0185 13.7455 88.7765C13.7863 90.8031 12.53 91.8367 12.1792 93.8551C11.9916 93.8551 12.0242 93.6191 11.9834 93.4645C11.9508 95.3527 11.0045 97.7617 10.0256 99.3244C11.0861 100.667 8.77753 102.23 9.43829 103.817C8.82647 103.605 8.81016 103.614 8.85094 104.403H6.11001C6.18342 103.369 4.25824 104.305 4.54376 103.231C2.01492 101.864 -0.823912 100.334 0.236569 96.1991C0.497611 95.198 0.774968 93.9365 1.01969 93.0738C1.47652 91.4542 2.40648 89.7939 2.97751 88.3859C3.3446 85.2606 5.25346 82.9247 5.71844 79.7913C6.95023 77.7566 8.27176 74.2407 9.24251 71.9781H9.82985C10.7435 68.5923 12.9297 66.1588 14.137 62.6022H14.7244C16.258 57.9875 20.0921 53.9832 22.1641 48.929C23.2572 48.1233 24.0158 45.9584 24.5134 45.2177C25.8676 44.3225 26.1286 42.9145 26.8628 41.7018C26.8873 41.6529 27.1646 41.9704 27.2544 41.8971C27.5154 41.6774 27.1973 40.1066 28.2333 40.3345C28.3638 38.5277 30.4685 37.1278 30.5827 35.6465C31.4066 35.7523 31.3576 34.9873 31.5616 34.4745C32.8586 34.7594 32.7852 32.2689 33.9109 32.5212C33.9925 30.9504 35.4527 29.1274 36.8477 28.2239C37.6226 25.1556 40.388 24.0732 41.3506 21.192C44.5647 18.2946 47.6319 13.9892 50.9439 10.6442C51.4497 10.1396 51.8739 9.30127 52.5102 8.69086C53.4728 7.76304 55.0064 7.11194 55.4469 6.34689C55.5692 6.13528 55.1858 5.73648 55.4469 5.56557C56.9723 4.93888 57.5352 3.35182 58.9709 2.6356C59.648 2.74141 59.8356 3.33554 60.733 3.2216C60.9532 3.832 60.6759 3.73434 60.9288 4.19825C63.7513 6.37131 65.1299 9.37452 67.5853 11.0348C68.1156 13.5416 66.117 14.5101 65.8233 16.3088C65.7907 16.5367 65.4644 16.4715 65.2359 16.5041C64.5181 18.0261 63.066 21.599 61.1245 23.536C60.9859 25.5951 59.1423 26.6694 58.1878 28.2239C57.8615 28.753 57.9349 29.6157 57.6005 30.1773C57.3394 30.6086 56.6787 30.8121 56.4258 31.3492C56.2953 31.6341 56.4258 32.212 56.23 32.5212C55.8466 33.1072 54.8514 33.4735 54.468 34.0839C53.2035 36.086 53.6767 39.252 51.1397 40.7251C51.001 41.3274 51.001 41.0995 51.1397 41.7018C50.2995 42.2389 50.5116 43.8097 49.1819 43.8504C49.084 44.4608 49.7203 44.7213 48.7903 44.6317C48.7414 45.7223 48.2764 47.4722 47.6156 47.757C47.5912 48.107 47.8522 48.1721 47.8114 48.5384C47.5993 48.4895 47.6809 48.1477 47.4199 48.1477C46.9712 48.4163 47.3464 49.5069 47.2241 50.101C46.6204 49.9545 46.9875 50.7765 46.2452 50.4917C46.0249 51.8427 45.6333 52.8763 44.4831 53.031C44.5647 53.2751 44.736 53.4298 45.0705 53.4216C44.2955 54.496 43.8305 54.7483 43.7 56.5469C43.439 56.783 43.39 56.6202 43.1127 56.5469C43.2269 57.8247 42.1909 58.6956 41.938 58.5002C41.8564 58.9723 42.2969 58.9235 42.1338 59.4769C41.5464 59.5501 41.7096 60.9988 40.5675 61.0395C41.057 61.3814 40.8857 61.3976 40.3717 61.6255C40.5675 63.0824 39.5723 64.8078 38.6097 65.7275C38.2834 67.8517 37.7124 69.7806 36.2603 71.1967C37.1903 72.2873 35.3956 72.6454 35.8688 74.1267C35.4364 74.4116 35.2977 74.9894 34.6941 75.1034C34.8409 77.3497 33.0626 80.4505 31.9531 81.5493C32.6057 82.6969 31.0069 84.2107 30.5827 85.0652C31.2108 87.2953 29.0164 89.1102 29.408 91.7065C28.7227 91.9344 28.8125 92.9273 28.8206 93.8551H28.2333C28.4862 94.319 28.3149 95.2062 28.6249 95.6131C31.3005 94.962 31.3903 91.7309 33.5194 90.5345C33.3481 89.5823 34.0823 89.5334 33.9109 88.5812C35.7709 87.3115 36.0156 84.4304 38.0224 83.3073C37.8674 83.1363 37.8103 82.8678 37.8266 82.5259C40.3636 79.3762 42.0359 76.023 44.0916 72.7594H44.8747C44.8176 72.3036 44.3852 71.8478 45.2663 71.9781C44.7605 71.0014 46.131 70.7572 46.0494 70.0248C46.3267 70.0085 46.6041 69.9922 46.6367 70.2201C46.9793 70.041 47.1425 69.5364 46.8325 69.2434C46.6041 69.276 46.6694 69.6015 46.6367 69.8294C46.3675 69.7725 46.4736 69.3411 46.4409 69.0481C48.3498 68.4784 48.6924 65.3043 49.5734 64.3602C49.9161 63.8149 50.0874 64.173 50.7481 64.1648C50.7808 63.7416 50.585 63.5463 50.1608 63.5788C50.6339 62.9359 50.6747 63.6439 50.7481 62.6022C51.6699 62.8057 51.7352 62.1546 52.1186 61.8209C51.6291 61.479 51.9065 61.5686 51.9228 60.8442C52.241 60.7872 52.2573 61.0314 52.5102 61.0395C52.1431 60.6896 52.6652 60.5431 52.5102 59.8676C52.7957 59.6397 52.9996 59.6397 53.2933 59.8676C53.8725 58.663 53.7991 57.8003 55.0553 57.5236C54.3701 57.1655 54.8595 56.8481 55.0553 56.3516C55.4877 56.2458 55.3327 56.726 55.6427 56.7423C55.7977 56.7016 55.8384 56.5469 56.0342 56.5469C55.4469 56.0912 55.8792 55.79 55.8384 54.7889C56.2382 55.2529 56.6134 54.5204 57.0131 54.9843C56.5318 54.1785 56.9805 54.5611 57.0131 53.617C57.2742 53.6902 57.3231 53.9588 57.6005 54.0076C57.0213 53.1286 58.3591 52.7543 58.1878 51.6637C58.9546 51.8427 58.6854 50.98 59.5583 51.273C59.1015 50.4428 60.0722 50.1743 60.733 49.9057C60.6759 49.1325 60.0559 50.1254 60.1456 49.3197H60.9288C60.3251 49.0348 60.8961 48.0256 61.3203 48.343V46.9757C61.4998 47.1222 61.614 47.3338 61.7119 47.5617C62.1769 47.2443 61.9158 46.2025 62.495 45.9991C62.7234 46.0316 62.6582 46.3572 62.6908 46.5851C63.0823 45.8688 63.1395 44.8189 64.0612 44.6317C64.0449 43.8993 63.841 44.0783 64.0612 43.4598C64.7302 44.2818 64.151 43.1505 64.4528 42.8738C64.9504 43.3295 64.8607 42.3122 65.2359 41.7018C65.6846 42.5645 65.7988 41.3925 66.6064 41.5064C66.7043 40.896 66.0027 41.067 66.2148 40.3345C66.5901 39.9682 66.5656 40.4484 67.1938 40.3345C67.3324 39.4799 66.8022 40.4891 66.8022 39.9438C67.0061 39.2357 68.0666 40.0822 68.5642 39.3578C68.4745 39.0648 68.3113 39.4392 67.9769 39.3578C68.6866 37.8765 69.0537 37.0871 70.3263 36.0372C69.4534 35.3535 70.9544 35.736 70.7178 34.8652C71.3296 34.6455 71.191 35.1745 71.5009 35.2559C71.4846 34.9384 70.832 34.092 71.5009 33.3026C71.9333 33.7339 72.1535 32.9607 72.6756 32.9119C71.7538 32.5945 73.5159 31.6748 74.2419 30.5679C75.2289 29.0622 76.3139 26.9299 77.7659 25.0987C78.0759 24.7161 79.2017 24.7894 78.7448 23.9267C80.0745 23.9836 79.1364 22.6163 80.3111 23.1453C80.3356 22.7954 80.0745 22.7303 80.1153 22.364C81.6816 21.3548 81.5429 19.3852 83.8352 18.8481C83.5252 18.3597 83.9738 17.5214 84.4225 17.8714C84.1778 17.0168 85.4177 15.8611 85.4014 16.5041C85.6706 16.4471 85.5646 16.0158 85.5972 15.7228C86.9432 15.3728 86.7719 13.509 88.3381 13.3788C88.436 11.3034 91.438 10.164 91.8622 8.49553C94.5787 6.12714 96.9443 3.40879 99.4977 0.877625H101.455C102.483 1.61012 103.103 3.09137 104.196 4.58891C104.735 5.32954 105.624 5.69579 106.154 6.34689C106.709 7.03055 106.905 7.96651 107.329 8.69086C108.014 9.87099 108.805 12.101 107.133 13.7695C106.88 14.0218 105.983 13.6799 106.546 14.5508C105.803 14.2659 106.171 15.0879 105.567 14.9414C106.268 15.2344 105.624 15.8693 104.784 15.7228C105.616 16.9029 104.041 16.2355 104.196 17.6761C103.789 17.7575 103.674 17.5459 103.413 17.4807V18.0667C103.585 18.2458 104.009 18.083 104.001 18.8481C103.74 18.7748 103.691 18.5062 103.413 18.4574ZM79.1364 37.9905C78.6796 37.9335 78.288 37.5754 78.1575 38.1858C78.6633 38.3323 79.063 39.1788 79.528 38.7718C79.3485 38.43 79.4627 37.7952 79.1364 37.5998V37.9905ZM79.9195 39.1625C80.2132 39.1299 80.6456 39.2357 80.7027 38.9671C79.9032 38.5277 81.6734 38.0068 80.8984 37.5998C80.8658 38.0882 80.2377 37.6568 80.1153 37.5998C80.8821 38.43 79.2017 38.3323 79.9195 38.9671C79.9195 38.8613 80.0745 38.7474 80.1153 38.9671C79.993 38.9753 79.8869 38.9997 79.9195 39.1625ZM61.1245 60.0629C60.6432 59.6722 60.0804 59.5664 59.5583 59.8676C60.0477 60.1524 60.3251 60.3396 60.9288 60.0629C60.9288 60.1687 61.0837 60.2826 61.1245 60.0629Z" fill="black"/>
</g>
<defs>
<clipPath id="clip0_1448_2599">
<rect width="169" height="114" fill="white" transform="translate(0 0.877625)"/>
</clipPath>
</defs>
</svg>
