<svg width="99" height="70" viewBox="0 0 99 70" fill="none" xmlns="http://www.w3.org/2000/svg">
<path d="M20.0189 16.095L17.0035 15.6563C17.3386 13.4626 17.1711 11.1025 17.0188 9.01466C16.7599 5.32319 16.5162 1.84353 19.3031 0.421405C22.6079 -1.27304 27.6487 2.44869 32.5373 6.03425C33.3596 6.63941 34.1516 7.22944 34.8521 7.71357L33.1007 10.1796C32.3697 9.68033 31.5626 9.07517 30.725 8.45489C27.999 6.44273 22.3337 2.26714 20.7042 3.09923C19.6991 3.61362 19.8818 6.12502 20.0646 8.80285C20.2169 11.0419 20.3996 13.5685 20.0189 16.095Z" fill="white"/>
<path d="M15.2065 47.3968L14.2318 47.1396C8.27724 45.536 0.87588 43.5541 0.0839645 39.1667C-0.616576 35.3391 3.1907 33.1605 6.87615 31.0424C8.20109 30.286 9.57171 29.4993 10.8053 28.6218L12.5719 31.0878C11.2165 32.0561 9.78492 32.873 8.39907 33.6749C4.89636 35.687 2.79475 37.0184 3.08411 38.6372C3.54098 41.1334 11.0185 43.1456 15.039 44.2349L16.0136 44.4921L15.2065 47.412V47.3968Z" fill="white"/>
<path d="M36.9842 66.4593C33.6338 66.4593 29.9331 60.6498 28.4254 58.0325L31.0753 56.5347C33.1007 60.0749 35.9638 63.4335 36.9385 63.4335C37.7609 63.252 39.1163 59.969 39.6493 56.8373L42.6494 57.3366C42.3144 59.2731 40.9894 65.6121 37.5781 66.3837C37.3801 66.4291 37.1822 66.4442 36.969 66.4442L36.9842 66.4593Z" fill="white"/>
<path d="M30.527 26.5643C27.405 26.5643 24.8618 24.0377 24.8618 20.9363C24.8618 17.8348 27.405 15.3083 30.527 15.3083C33.649 15.3083 36.1923 17.8348 36.1923 20.9363C36.1923 24.0377 33.649 26.5643 30.527 26.5643ZM30.527 18.3341C29.0802 18.3341 27.9076 19.499 27.9076 20.9363C27.9076 22.3735 29.0802 23.5385 30.527 23.5385C31.9738 23.5385 33.1464 22.3735 33.1464 20.9363C33.1464 19.499 31.9738 18.3341 30.527 18.3341Z" fill="white"/>
<path d="M29.1869 46.9732C24.8618 46.9732 21.3438 43.4784 21.3438 39.1818C21.3438 34.8852 24.8618 31.3904 29.1869 31.3904C33.5119 31.3904 37.0299 34.8852 37.0299 39.1818C37.0299 43.4784 33.5119 46.9732 29.1869 46.9732ZM29.1869 34.4162C26.5522 34.4162 24.3897 36.5494 24.3897 39.1818C24.3897 41.8143 26.537 43.9474 29.1869 43.9474C31.8367 43.9474 33.984 41.8143 33.984 39.1818C33.984 36.5494 31.8367 34.4162 29.1869 34.4162Z" fill="white"/>
<path d="M64.6708 51.7086C63.6961 51.7086 62.7062 51.4211 61.8229 51.1639C60.3 50.7252 58.7314 50.2713 57.0105 50.7403L56.2034 47.8204C58.7618 47.1245 61.031 47.7751 62.6757 48.2592C64.3053 48.7282 64.8535 48.8341 65.1581 48.4861C66.0566 47.4876 63.62 44.0231 62.158 41.9504C61.4726 40.967 60.8178 40.0442 60.2848 39.1667L62.9042 37.6084C63.3763 38.3951 64.0007 39.2726 64.6555 40.2106C67.1227 43.7205 69.9248 47.6994 67.4425 50.4832C66.6201 51.406 65.6454 51.7086 64.6708 51.7086Z" fill="white"/>
<path d="M64.8535 57.6845C61.427 57.6845 58.0309 56.8978 54.8632 55.3547C49.4568 52.692 45.4059 48.1079 43.4718 42.4194C41.5377 36.746 41.9336 30.6491 44.614 25.2783C47.2943 19.9075 51.9087 15.8832 57.6349 13.9467C69.4375 9.98291 82.2909 16.2766 86.2962 28.0015C90.3014 39.7265 83.9509 52.4953 72.133 56.4742C69.7573 57.2761 67.3054 57.6694 64.8535 57.6694V57.6845ZM64.8535 15.7924C62.7823 15.7924 60.6655 16.1253 58.5943 16.8212C53.6449 18.4854 49.6396 21.965 47.34 26.6248C45.0252 31.2845 44.6749 36.5494 46.3501 41.4663C48.0253 46.3832 51.528 50.3621 56.2186 52.6617C60.9092 54.9613 66.2089 55.3093 71.1584 53.6451C81.3771 50.2108 86.8596 39.1516 83.4026 29.0151C80.6461 20.9363 73.0163 15.8227 64.8687 15.8227L64.8535 15.7924Z" fill="white"/>
<path d="M90.4232 69.9995C90.4232 69.9995 90.3471 69.9995 90.3014 69.9995C87.8952 69.9541 85.6261 68.88 83.9204 66.9435L73.6407 54.7798L75.9708 52.8281L86.2352 64.9616C87.347 66.2173 88.809 66.9283 90.3471 66.9586C91.733 66.9737 93.1341 66.3988 94.2458 65.3247C95.3575 64.2505 95.9819 62.7679 95.9514 61.255C95.921 59.7723 95.2509 58.3956 94.0782 57.3668L82.1386 46.8976L84.1488 44.6282L96.0885 55.0975C97.9008 56.686 98.9363 58.8495 98.9973 61.1793C99.0582 63.5243 98.0987 65.8391 96.3779 67.5032C94.7026 69.1069 92.601 69.9844 90.4232 69.9844V69.9995Z" fill="white"/>
<path d="M54.117 67.0645C52.3047 67.0645 50.797 65.5062 49.3198 63.9933C48.0558 62.6922 46.6242 61.2247 44.6292 59.9236C40.6392 57.3366 30.9839 57.9417 26.7806 59.7118C24.9531 60.4834 23.5064 61.3609 22.2271 62.1476C19.7448 63.6605 17.6127 64.9616 15.0846 63.5092C11.8104 61.6332 12.7241 57.3971 13.6074 53.2971L13.8968 51.8901C14.0034 51.3304 14.1557 50.8009 14.308 50.2865C14.7039 48.8795 14.9171 48.0171 14.5364 47.0489C9.80013 41.2847 10.0286 34.0985 10.1656 30.1801C8.9473 27.4871 7.21118 26.0347 5.8101 24.8698C4.2415 23.5536 2.45968 22.071 3.44958 19.5595C4.65268 16.5035 8.76456 16.1858 12.7394 15.8832C14.1861 15.7773 15.6634 15.6563 16.8817 15.4142C21.6789 10.3309 28.3949 7.42612 35.4156 7.42612C38.6594 7.42612 41.3854 6.71505 44.2789 5.12651C45.7257 4.32468 46.807 3.37155 47.7664 2.52433C49.4416 1.04169 51.33 -0.622494 53.9037 0.845016C57.2085 2.75127 56.8582 7.66818 56.5689 11.632L53.523 11.4202C53.721 8.63643 54.0256 4.43058 52.3656 3.47746C51.8326 3.17488 51.6194 3.15975 49.7766 4.79368C48.7563 5.70141 47.4771 6.82096 45.7409 7.77408C42.3753 9.63494 39.1772 10.467 35.4003 10.467C29.0803 10.467 23.0343 13.1449 18.8006 17.8197C18.6026 18.0466 18.3285 18.1979 18.0391 18.2736C16.5162 18.6518 14.7192 18.788 12.983 18.9241C10.2266 19.1359 6.8 19.4083 6.29744 20.6942C6.14515 21.0724 6.1756 21.2389 7.78989 22.5853C9.40418 23.9318 11.6124 25.7927 13.1201 29.3329C13.2115 29.5295 13.2419 29.7565 13.2419 29.9683V30.2406C13.1049 34.0228 12.8764 40.377 17.0492 45.309C17.1406 45.4149 17.2167 45.5208 17.2624 45.657C18.2219 47.7599 17.7193 49.5603 17.2624 51.1488C17.1406 51.6027 17.0035 52.0566 16.9122 52.5256L16.6076 53.9628C15.9527 57.0037 15.2826 60.1506 16.638 60.9221C17.5213 61.4365 18.3437 61.0129 20.6738 59.6059C21.9682 58.8192 23.5825 57.8358 25.6385 56.9735C30.527 54.9159 41.3702 54.22 46.3349 57.4425C48.6192 58.9251 50.2335 60.5893 51.5432 61.9358C53.4621 63.9177 53.9494 64.2505 54.4672 63.9631C55.0459 63.6302 55.716 62.1476 55.8226 58.9705L58.8684 59.0764C58.7314 63.1007 57.7872 65.5516 55.9901 66.5804C55.3353 66.9586 54.7261 67.1099 54.1474 67.1099L54.117 67.0645Z" fill="white"/>
<path d="M55.6856 54.9159C55.5942 53.5695 55.4267 52.1322 55.2135 50.6496C54.254 44.1138 58.1679 38.3043 62.3255 36.1409C64.0007 35.2785 65.5084 34.8095 66.7419 34.4313C69.2395 33.6597 69.3309 33.4782 69.3309 32.631C69.3309 30.8911 66.346 29.348 63.4677 27.8653C62.9346 27.593 62.4016 27.3207 61.8838 27.0333C57.1476 24.4916 54.452 21.1935 53.6449 16.9271L56.645 16.3673C57.2846 19.726 59.4015 22.2676 63.3306 24.3706C63.8484 24.6429 64.3662 24.9152 64.884 25.1724C68.5694 27.0786 72.3919 29.0605 72.3919 32.631C72.3919 35.8534 69.8791 36.6401 67.6709 37.3209C66.5135 37.684 65.1886 38.0925 63.7722 38.8338C60.4827 40.5434 57.5283 45.2788 58.2593 50.2411C58.4877 51.7994 58.6553 53.2971 58.7619 54.7193L55.716 54.9462L55.6856 54.9159Z" fill="white"/>
</svg>
