<svg width="87" height="82" viewBox="0 0 87 82" fill="none" xmlns="http://www.w3.org/2000/svg">
<path d="M65.2267 81.9995C63.1946 81.9995 61.468 80.2125 59.665 78.3492C58.1982 76.8372 56.3799 74.9433 53.9199 73.3396C48.9999 70.117 37.0972 70.8501 31.948 73.0341C29.7019 73.9811 27.9295 75.0655 26.371 76.0277C23.4679 77.8147 20.9468 79.342 18.059 77.6772C14.3002 75.5084 15.385 70.453 16.424 65.5808C16.5463 65.0157 16.6685 64.4506 16.7755 63.8702C16.913 63.2135 17.0964 62.572 17.2644 61.9458C17.7381 60.2963 18.0743 59.0897 17.5089 57.7151C11.7791 50.7352 12.0847 41.9684 12.2528 37.2337C10.7401 33.8278 8.58568 32.0103 6.84382 30.5441C4.93388 28.9404 2.96283 27.2909 4.07823 24.45C5.46867 20.9219 10.3275 20.5554 15.0336 20.1888C16.8366 20.0514 18.7007 19.8986 20.1981 19.5932C25.9432 13.4228 34.0413 9.8794 42.4908 9.8794C46.4788 9.8794 49.8556 8.99356 53.4157 7.02331C55.2034 6.03055 56.5327 4.85452 57.7092 3.80066C59.7414 1.98315 61.85 0.119819 64.7531 1.79987C68.6035 4.02976 68.1604 9.90995 67.7326 15.6069L67.702 16.0345C67.2131 22.7242 69.7495 27.0618 76.1974 30.5441C76.8239 30.8801 77.4656 31.2161 78.0921 31.5368C82.462 33.8125 87 36.1646 87 40.3189C87 44.015 84.2191 44.8703 81.5147 45.7104C80.0937 46.1533 78.474 46.6573 76.7322 47.5737C72.6373 49.7119 68.9549 55.6379 69.8564 61.8541C70.9565 69.4449 71.3996 79.006 67.2742 81.3886C66.5408 81.8162 65.8532 81.9995 65.1962 81.9995H65.2267ZM43.484 68.1773C48.0985 68.1773 52.667 68.9409 55.5701 70.8501C58.3052 72.637 60.2456 74.6531 61.8194 76.2873C64.3405 78.899 64.967 79.2809 65.7921 78.8074C67.3964 77.8757 68.3743 72.4079 66.9075 62.2971C65.7768 54.4925 70.4218 47.5279 75.357 44.9314C77.3434 43.8929 79.1769 43.3277 80.6437 42.8695C83.6385 41.9379 84.0205 41.6477 84.0205 40.3342C84.0205 38.0127 80.4757 36.1646 76.7322 34.2096C76.0904 33.8736 75.4334 33.5376 74.7917 33.1863C67.3506 29.1695 64.1572 23.6558 64.7378 15.8207L64.7684 15.393C65.1045 10.8416 65.4865 5.67927 63.271 4.39632C62.3695 3.87703 61.9111 4.09085 59.7261 6.04583C58.5037 7.13022 56.9758 8.48954 54.8978 9.6503C50.864 11.8802 47.0594 12.8882 42.5214 12.8882C34.7595 12.8882 27.3183 16.2025 22.1233 21.9605C21.9247 22.1896 21.6649 22.3423 21.3746 22.4034C19.5564 22.8464 17.3867 23.0144 15.2934 23.1824C11.6874 23.4573 7.59251 23.778 6.88965 25.565C6.61462 26.2523 6.75212 26.5578 8.7843 28.2684C10.7095 29.8873 13.3682 32.1172 15.1559 36.3784C15.2475 36.577 15.2781 36.7908 15.2781 37.0046V37.3406C15.11 41.7088 14.835 49.8341 19.9689 55.9587C20.0606 56.0656 20.1217 56.1725 20.1828 56.2947C21.2982 58.7384 20.7023 60.8767 20.1828 62.7553C20.03 63.3051 19.8619 63.8702 19.7397 64.4659C19.6175 65.0462 19.4953 65.6266 19.373 66.207C18.5174 70.2239 17.7075 74.0116 19.5716 75.096C20.8092 75.8139 21.8636 75.2946 24.8125 73.4923C26.3863 72.5301 28.3268 71.3388 30.7868 70.3002C33.7816 69.0326 38.6557 68.1925 43.484 68.1925V68.1773Z" fill="white"/>
<path d="M56.9605 49.4676C52.8351 49.4676 49.4736 46.1075 49.4736 41.9837C49.4736 37.8599 52.8351 34.4998 56.9605 34.4998C61.086 34.4998 64.4475 37.8599 64.4475 41.9837C64.4475 46.1075 61.086 49.4676 56.9605 49.4676ZM56.9605 37.4934C54.4853 37.4934 52.4684 39.5094 52.4684 41.9837C52.4684 44.458 54.4853 46.474 56.9605 46.474C59.4358 46.474 61.4527 44.458 61.4527 41.9837C61.4527 39.5094 59.4358 37.4934 56.9605 37.4934Z" fill="white"/>
<path d="M36.6388 33.9042C33.0482 33.9042 30.1145 30.9717 30.1145 27.3825C30.1145 23.7933 33.0482 20.8608 36.6388 20.8608C40.2295 20.8608 43.1632 23.778 43.1632 27.3825C43.1632 30.987 40.2448 33.9042 36.6388 33.9042ZM36.6388 23.8544C34.6983 23.8544 33.1093 25.4428 33.1093 27.3825C33.1093 29.3222 34.6983 30.9106 36.6388 30.9106C38.5793 30.9106 40.1684 29.3222 40.1684 27.3825C40.1684 25.4428 38.5793 23.8544 36.6388 23.8544Z" fill="white"/>
<path d="M35.0039 58.7842C29.9617 58.7842 25.8515 54.6757 25.8515 49.6356C25.8515 44.5954 29.9617 40.4869 35.0039 40.4869C40.0461 40.4869 44.1564 44.5954 44.1564 49.6356C44.1564 54.6757 40.0461 58.7842 35.0039 58.7842ZM35.0039 43.4805C31.6119 43.4805 28.8463 46.2449 28.8463 49.6356C28.8463 53.0262 31.6119 55.7907 35.0039 55.7907C38.396 55.7907 41.1615 53.0262 41.1615 49.6356C41.1615 46.2449 38.396 43.4805 35.0039 43.4805Z" fill="white"/>
<path d="M27.028 17.2258L24.1096 16.5232C24.95 13.0104 24.5528 10.139 24.2319 7.83279C23.8194 4.85452 23.4068 1.76933 26.9975 0.287824C31.9022 -1.72824 42.17 7.38987 45.2106 10.2307L43.1632 12.4148C37.6167 7.22186 30.3131 2.16643 28.1435 3.05228C26.86 3.57157 26.753 4.10613 27.1961 7.42042C27.5323 9.84886 27.9907 13.1631 27.0128 17.2105L27.028 17.2258Z" fill="white"/>
<path d="M18.0742 57.7915C15.3851 57.318 1.90853 54.6757 0.197229 48.8719C-1.66687 42.5488 10.2359 35.9202 12.6348 34.6526L14.0252 37.3101C8.9524 39.9829 2.19885 45.0689 3.06978 48.0319C3.94071 51.0102 12.6653 53.8204 18.5937 54.859L18.0742 57.8067V57.7915Z" fill="white"/>
<path d="M73.9819 31.5368L72.1025 29.2C75.8307 26.2065 79.3144 21.9605 78.5658 20.4026C77.542 18.2949 70.8038 18.7531 66.5713 19.7306L65.899 16.8134C68.0382 16.3094 78.8408 14.0948 81.2702 19.1044C83.4552 23.6406 75.571 30.2539 73.9819 31.5368Z" fill="white"/>
<path d="M45.1342 81.9384C40.3059 81.9384 35.7526 72.8814 34.8511 70.957L37.5556 69.674C39.8323 74.4698 43.4993 79.3114 45.3023 78.9143C47.3192 78.4561 48.5874 73.4618 48.8013 70.2391L51.7961 70.4377C51.7197 71.4915 50.971 80.7013 45.9593 81.8315C45.6843 81.8926 45.4092 81.9231 45.1189 81.9231L45.1342 81.9384Z" fill="white"/>
<path d="M78.688 62.9385C77.5114 62.9385 76.3044 62.4956 75.189 62.0833C73.2332 61.3654 71.2163 60.617 68.6341 61.3196L67.8396 58.4329C71.3691 57.4707 74.1805 58.5093 76.228 59.273C78.4741 60.113 78.9783 60.1436 79.5589 59.4868C81.0257 57.822 77.4809 51.4531 74.3486 47.4821L76.7017 45.634C78.2143 47.5431 85.5332 57.2722 81.805 61.4723C80.8271 62.572 79.7575 62.9538 78.688 62.9538V62.9385Z" fill="white"/>
</svg>
