<?xml version="1.0" encoding="utf-8"?>
<svg width="331" height="58" viewBox="0 0 331 58" fill="none" xmlns="http://www.w3.org/2000/svg">
<g clip-path="url(#clip0_1373_14)">
<path d="M20.3694 34.8068C20.3694 36.0764 20.1021 37.2565 19.5677 38.3469C19.0332 39.4223 18.276 40.3484 17.3259 41.0953C16.3608 41.8571 15.2176 42.4396 13.8963 42.8579C12.575 43.2761 11.12 43.4852 9.5463 43.4852C7.66079 43.4852 5.9683 43.2313 4.48365 42.7085C2.999 42.2006 1.49949 41.3343 0 40.1393L2.47937 36.0913C3.66709 37.0921 4.73603 37.8241 5.70105 38.2871C6.65123 38.7502 7.6311 38.9742 8.64066 38.9742C9.87292 38.9742 10.8528 38.6605 11.61 38.0182C12.3671 37.3759 12.7234 36.5245 12.7234 35.4341C12.7234 34.9711 12.6492 34.5379 12.5156 34.1346C12.382 33.7313 12.1296 33.313 11.7733 32.8799C11.417 32.4616 10.9122 31.9837 10.2738 31.4907C9.65022 30.9978 8.83367 30.3704 7.82411 29.6385C7.06694 29.1008 6.30975 28.5332 5.58227 27.9656C4.8548 27.383 4.20157 26.7706 3.59286 26.1134C2.999 25.4561 2.5239 24.7242 2.15274 23.9027C1.79642 23.0961 1.60343 22.155 1.60343 21.1244C1.60343 19.9294 1.85582 18.8241 2.34575 17.8382C2.83569 16.8524 3.51862 16.0159 4.37971 15.3138C5.24081 14.6118 6.26522 14.0741 7.48263 13.6857C8.68519 13.2973 9.99169 13.1032 11.4169 13.1032C12.9164 13.1032 14.3565 13.2973 15.7521 13.7006C17.1477 14.1039 18.4393 14.6865 19.6419 15.4632L17.4001 19.1079C15.8709 18.0324 14.2526 17.4797 12.5601 17.4797C11.5357 17.4797 10.6746 17.7486 10.0065 18.2863C9.33844 18.8241 8.99696 19.4962 8.99696 20.3178C8.99696 21.0945 9.29389 21.7965 9.88775 22.409C10.4816 23.0363 11.506 23.8877 12.961 25.023C14.4308 26.0984 15.6482 27.0544 16.5984 27.861C17.5634 28.6676 18.3206 29.4443 18.8847 30.1613C19.4489 30.8783 19.8201 31.5953 20.0427 32.3421C20.2654 33.1039 20.3694 33.9105 20.3694 34.8068ZM45.8311 27.9805C45.8311 29.1008 45.7123 30.3107 45.4748 31.6102C45.2521 32.9097 44.8512 34.1047 44.2871 35.2101C43.7229 36.3154 42.9954 37.2266 42.0898 37.9286C41.1841 38.6456 40.0261 39.0041 38.6454 39.0041C36.3293 39.0041 34.5032 38.078 33.167 36.2109C31.8309 34.3587 31.1628 31.8044 31.1628 28.5631C31.1628 25.2321 31.8309 22.6032 33.1967 20.6464C34.5478 18.6896 36.3887 17.7187 38.7048 17.7187C40.9021 17.7187 42.6391 18.6448 43.9159 20.4671C45.1927 22.3044 45.8311 24.8138 45.8311 27.9805ZM53.8779 27.6967C53.8779 25.5308 53.5661 23.5591 52.9574 21.7965C52.3339 20.019 51.4728 18.4955 50.3296 17.2109C49.1864 15.9263 47.8502 14.9404 46.2913 14.2234C44.7325 13.5065 43.0103 13.148 41.1248 13.148C39.0462 13.148 37.2201 13.5513 35.6464 14.328C34.0727 15.1197 32.6029 16.3594 31.2667 18.0623L31.2222 13.8351H23.8138V57.2871H31.2073V38.9294C31.9348 39.7808 32.6326 40.4978 33.3155 41.0803C33.9836 41.6629 34.6665 42.1409 35.3643 42.4994C36.0621 42.8579 36.7896 43.1267 37.5616 43.2761C38.3336 43.4255 39.165 43.5002 40.041 43.5002C42.0007 43.5002 43.8417 43.0969 45.5342 42.3201C47.2267 41.5285 48.6965 40.4231 49.9287 38.9892C51.161 37.5552 52.126 35.8822 52.8238 33.9852C53.5364 32.0733 53.8779 29.9671 53.8779 27.6967ZM57.1738 42.7981H64.7752V0.287109H57.1738V42.7981ZM97.1999 42.813V13.8052H89.5985V29.4145C89.5985 30.8036 89.5391 31.8791 89.4204 32.6409C89.3016 33.4027 89.1086 34.0748 88.8413 34.7022C87.7724 37.0921 85.7978 38.302 82.9324 38.302C80.6906 38.302 79.1317 37.4954 78.241 35.8673C77.8846 35.2549 77.6471 34.5528 77.5135 33.7761C77.3799 32.9994 77.3056 31.8791 77.3056 30.4003V13.8052H69.7042V30.2808C69.7042 31.4011 69.7191 32.3571 69.7339 33.1189C69.7488 33.8807 69.8082 34.5827 69.8824 35.1802C69.9566 35.7777 70.0457 36.3154 70.1496 36.7785C70.2387 37.2415 70.3872 37.6896 70.5802 38.1079C71.278 39.8854 72.3914 41.2297 73.9503 42.1409C75.5092 43.052 77.4244 43.5002 79.6811 43.5002C81.715 43.5002 83.5115 43.1417 85.0555 42.4247C86.5995 41.7077 88.099 40.5426 89.554 38.9145L89.5688 42.7981L97.1999 42.813ZM129.951 42.7981V26.3524C129.951 25.2321 129.936 24.2761 129.922 23.4844C129.907 22.6928 129.862 22.0057 129.773 21.4231C129.699 20.8406 129.595 20.3327 129.491 19.8995C129.372 19.4514 129.239 19.0182 129.09 18.6C128.392 16.8673 127.279 15.523 125.72 14.5819C124.161 13.6409 122.246 13.1629 119.974 13.1629C117.94 13.1629 116.144 13.5214 114.6 14.2384C113.056 14.9554 111.556 16.1354 110.102 17.7486L110.087 13.8649H102.441V42.813H110.102V27.1888C110.102 25.8445 110.146 24.784 110.25 24.0371C110.339 23.2903 110.532 22.5882 110.799 21.916C111.289 20.751 112.061 19.8846 113.086 19.2871C114.11 18.6896 115.327 18.3909 116.753 18.3909C118.995 18.3909 120.553 19.1975 121.444 20.8256C121.786 21.4381 122.023 22.1401 122.157 22.9019C122.29 23.6637 122.365 24.7989 122.365 26.2627V42.7832L129.951 42.7981ZM161.396 40.8862L149.816 26.4121L159.6 15.8665L153.839 13.372L143.655 25.247H142.853V0.287109H135.192V42.7981H142.853V27.398L154.314 43.3807L161.396 40.8862ZM191 30.4899V25.7549L167.973 14.1338V19.3469L185.819 28.0851L167.973 36.9428V42.0363L191 30.4899ZM170.2 6.62045C168.79 6.62045 167.646 7.78554 167.646 9.21951C167.646 10.6833 168.79 11.8335 170.2 11.8335C171.625 11.8335 172.754 10.6833 172.754 9.21951C172.754 7.77061 171.625 6.62045 170.2 6.62045ZM170.215 7.02374C171.358 7.02374 172.279 8.0096 172.279 9.23444C172.279 10.4593 171.358 11.4451 170.215 11.4302C169.057 11.4302 168.136 10.4593 168.136 9.21951C168.136 8.0096 169.057 7.02374 170.215 7.02374ZM169.725 9.48836H170.037C170.408 9.48836 170.586 9.6228 170.66 9.99623C170.72 10.3846 170.794 10.6385 170.853 10.7282H171.343C171.299 10.6385 171.224 10.4593 171.165 10.0112C171.106 9.57799 170.942 9.35394 170.675 9.30913V9.27924C170.987 9.18962 171.239 8.95063 171.239 8.5772C171.239 8.30834 171.15 8.09922 170.972 7.97972C170.794 7.84529 170.512 7.75566 170.081 7.75566C169.74 7.75566 169.502 7.78554 169.265 7.83035V10.7282H169.725V9.48836ZM169.725 8.14402C169.799 8.12909 169.903 8.11416 170.052 8.11416C170.571 8.11416 170.749 8.36809 170.749 8.62202C170.749 8.98051 170.423 9.11494 170.052 9.11494H169.725V8.14402Z" fill="black"/>
</g>
<defs>
<clipPath id="clip0_1373_14">
<rect width="331" height="57" fill="white" transform="translate(0 0.287109)"/>
</clipPath>
</defs>
</svg>
