<svg width="210" height="85" viewBox="0 0 210 85" fill="none" xmlns="http://www.w3.org/2000/svg">
<path d="M79.4999 41.5141C75.5999 41.5141 75.2999 38.6141 75.2999 37.7141C75.1999 35.9141 76.3999 34.4141 78.0999 33.8141C80.6999 32.9141 81.1999 32.8141 82.8999 32.2141V31.7141C82.8999 31.2141 82.8999 30.6141 82.6999 30.1141C82.2999 29.0141 81.1999 28.4141 80.0999 28.5141C78.8999 28.5141 77.7999 29.2141 77.1999 30.3141L76.4999 29.9141C76.8999 28.3141 78.5999 26.7141 81.3999 26.7141C83.3999 26.7141 84.6999 27.2141 85.4999 28.5141C85.9999 29.6141 86.2999 30.9141 86.1999 32.2141C86.1999 33.4141 86.0999 34.8141 86.0999 35.9141C86.0999 36.6141 85.9999 37.3141 85.9999 37.7141C85.9999 38.7141 86.1999 39.5141 86.9999 39.5141C87.3999 39.5141 87.3999 39.4141 87.6999 39.2141L88.1999 39.7141C87.5999 40.8141 86.3999 41.4141 85.1999 41.5141C84.1999 41.6141 83.2999 41.0141 83.0999 40.0141C82.1999 40.9141 80.8999 41.5141 79.4999 41.5141ZM82.8999 34.0141C81.7999 34.3141 80.7999 34.7141 79.7999 35.2141C78.9999 35.6141 78.4999 36.5141 78.5999 37.4141C78.4999 38.5141 79.2999 39.4141 80.2999 39.5141C80.3999 39.5141 80.5999 39.5141 80.6999 39.5141C81.4999 39.5141 82.2999 39.3141 82.9999 38.8141L82.8999 34.0141ZM50.9999 40.7141C50.9999 39.3141 50.9999 38.1141 50.8999 36.6141H51.6999C51.5999 37.3141 51.8999 38.1141 52.3999 38.6141C53.2999 39.4141 54.4999 39.8141 55.6999 39.7141C58.3999 39.7141 59.6999 38.7141 59.6999 36.5141C59.6999 34.6141 58.4999 33.8141 56.8999 32.8141L56.6999 32.6141L54.9999 31.4141C52.5999 29.8141 51.4999 28.6141 51.4999 26.1141C51.4999 24.9141 51.9999 20.8141 57.8999 20.8141C59.4999 20.8141 60.9999 20.9141 62.4999 21.2141V23.1141C62.4999 24.0141 62.4999 24.3141 62.5999 25.4141H61.8999C61.8999 24.7141 61.6999 23.9141 61.1999 23.4141C60.2999 22.8141 59.0999 22.5141 57.9999 22.5141C54.7999 22.5141 54.4999 24.2141 54.4999 25.3141C54.4999 27.0141 55.3999 27.6141 57.2999 28.8141L59.3999 30.2141C61.1999 31.4141 62.8999 32.6141 62.8999 35.6141C62.8999 40.7141 58.0999 41.3141 56.0999 41.3141C54.2999 41.4141 52.5999 41.2141 50.9999 40.7141ZM89.4999 27.6141C90.4999 27.7141 91.3999 27.6141 92.3999 27.4141C93.0999 27.3141 93.6999 27.1141 94.2999 26.8141L94.5999 27.0141V28.2141C95.7999 27.3141 97.2999 26.8141 98.7999 26.9141C101.4 26.9141 103 28.1141 103.5 30.3141C103.6 31.1141 103.7 32.0141 103.7 32.9141V37.1141C103.7 39.4141 103.8 40.1141 104.3 40.5141C104.7 40.8141 105.2 40.9141 105.7 40.9141V41.6141C104.8 41.5141 103.1 41.5141 102.2 41.5141C100.9 41.5141 99.3999 41.6141 98.6999 41.6141V40.9141C99.1999 40.9141 99.6999 40.7141 100.1 40.4141C100.5 40.0141 100.6 39.2141 100.6 37.4141C100.6 36.9141 100.7 35.7141 100.7 35.0141C100.7 33.9141 100.7 32.8141 100.6 31.8141C100.6 30.3141 99.4999 29.1141 97.9999 29.1141C97.8999 29.1141 97.6999 29.1141 97.5999 29.1141C96.6999 29.1141 95.6999 29.3141 94.8999 29.7141V37.2141C94.8999 39.5141 94.9999 40.2141 95.4999 40.6141C95.8999 40.9141 96.3999 41.0141 96.7999 41.0141V41.7141C95.5999 41.6141 94.1999 41.6141 93.2999 41.6141C91.3999 41.6141 90.7999 41.7141 89.6999 41.7141V41.0141C90.2999 41.0141 90.7999 40.8141 91.1999 40.4141C91.5999 39.9141 91.6999 38.7141 91.6999 36.3141V32.0141C91.6999 30.2141 91.5999 29.5141 91.3999 29.1141C91.1999 28.8141 90.6999 28.5141 89.6999 28.5141L89.4999 27.6141ZM107.1 40.7141C107.7 40.7141 108.2 40.5141 108.6 40.1141C109 39.6141 109.1 38.4141 109.1 36.0141V28.9141H107.3V28.1141C108 27.9141 108.6 27.5141 109.1 27.1141C109.1 25.8141 109.2 24.6141 109.3 23.3141C109.9 20.4141 111.8 18.9141 115 18.9141C116.3 18.9141 117.6 19.3141 118.6 20.1141L118.7 20.4141L117.3 22.4141H116.9C116.6 21.3141 115.5 20.5141 114.4 20.6141C113.9 20.6141 113.4 20.8141 113 21.1141C112.4 21.7141 112.3 22.6141 112.3 24.5141V27.1141H115.5V28.9141H112.3V36.8141C112.3 38.7141 112.4 39.6141 112.6 40.0141C113 40.6141 114.3 40.7141 114.9 40.6141V41.3141C113.9 41.2141 112.2 41.2141 111 41.2141C109.2 41.2141 108.1 41.3141 107.1 41.3141V40.7141ZM123.5 41.6141C119.2 41.6141 116.6 38.9141 116.6 34.4141C116.6 30.9141 118.5 26.8141 123.8 26.8141C128.1 26.8141 130.7 29.5141 130.7 34.0141C130.7 37.5141 128.8 41.6141 123.5 41.6141ZM123.7 28.4141C123 28.4141 122.2 28.6141 121.7 29.1141C120.5 30.1141 120 31.8141 120 34.3141C120 35.3141 120.2 40.0141 123.7 40.0141C124.4 40.1141 125.1 39.8141 125.7 39.4141C126.9 38.4141 127.4 36.7141 127.4 34.2141C127.4 33.1141 127.2 28.4141 123.7 28.4141ZM132.1 27.6141C133.1 27.6141 134.2 27.6141 135.2 27.4141C135.8 27.3141 136.4 27.2141 136.9 26.9141L137.1 27.0141V28.2141C138 27.4141 139.2 26.9141 140.4 26.9141C141.3 26.9141 142.2 27.2141 142.9 27.8141V28.1141L141.7 30.3141H141C140.5 29.4141 139.6 28.9141 138.6 29.0141C138 29.0141 137.5 29.1141 137 29.4141V36.7141C137 38.6141 137.1 39.5141 137.3 39.8141C137.7 40.4141 138.9 40.5141 139.6 40.4141V41.2141C138.6 41.1141 136.9 41.1141 135.7 41.1141C134.4 41.1141 133.1 41.1141 131.8 41.2141V40.5141C132.4 40.5141 132.9 40.3141 133.3 39.9141C133.7 39.4141 133.8 38.2141 133.8 35.8141V31.8141C133.8 30.0141 133.8 29.3141 133.5 28.9141C133.3 28.6141 132.8 28.4141 131.8 28.3141L132.1 27.6141ZM152.2 19.8141C153.3 19.7141 154.5 19.6141 155.6 19.4141C156.1 19.3141 156.6 19.2141 157.1 19.0141L157.3 19.1141C157.2 20.3141 157.2 22.9141 157.2 24.8141V36.4141C157.1 37.4141 157.2 38.5141 157.4 39.5141C157.8 39.9141 158.4 40.1141 159.1 40.0141V40.7141C158.1 40.7141 157.1 40.8141 156 41.0141C155.5 41.1141 154.9 41.2141 154.4 41.4141L154 41.3141V40.1141C152.9 41.0141 151.5 41.5141 150 41.4141C146.1 41.4141 143.6 38.7141 143.6 34.5141C143.6 33.2141 143.8 31.9141 144.3 30.6141C145.5 28.0141 148.2 26.4141 151.1 26.6141C152 26.6141 153 26.7141 153.9 26.9141V23.9141C153.9 22.1141 153.9 21.2141 153.6 20.8141C153.4 20.5141 153.1 20.4141 152 20.3141L152.2 19.8141ZM151.7 39.5141C152.5 39.6141 153.3 39.4141 154 39.0141V29.5141C153.2 28.8141 152.2 28.5141 151.2 28.5141C148.4 28.5141 147.1 30.4141 147.1 34.3141C147.1 35.9141 147.6 39.5141 151.7 39.5141ZM73.8999 39.9141C72.8999 41.0141 71.4999 41.6141 69.9999 41.6141C67.7999 41.6141 66.5999 40.8141 65.9999 39.0141C65.7999 38.1141 65.7999 37.1141 65.7999 36.1141C65.7999 33.8141 65.7999 32.0141 65.8999 29.9141V28.9141H63.9999V28.3141C64.5999 28.1141 65.1999 27.7141 65.7999 27.3141C66.8999 26.4141 67.7999 25.2141 68.3999 23.9141H68.9999V27.1141H73.9999V28.9141H69.1999V36.4141C69.1999 38.7141 69.5999 39.9141 71.6999 39.9141C72.3999 39.9141 73.0999 39.7141 73.6999 39.4141L73.8999 39.9141Z" fill="white"/>
<path d="M141.7 53.3141C141.4 53.3141 141.2 53.4141 141 53.5141C140.9 53.6141 140.8 53.8141 140.8 53.9141C140.8 54.2141 140.9 54.5141 141 54.8141L142.3 58.3141C142.5 58.8141 142.7 59.3141 142.7 59.6141L144.4 54.8141C144.5 54.5141 144.6 54.2141 144.6 53.9141C144.6 53.8141 144.5 53.6141 144.4 53.5141C144.2 53.3141 143.9 53.3141 143.7 53.3141V52.8141C144 52.8141 144.2 52.8141 144.5 52.9141C144.7 52.9141 145.1 53.0141 145.4 53.0141C146 53.0141 146.6 53.0141 147.2 52.9141V53.3141C147 53.3141 146.4 53.2141 145.9 54.6141L142.4 63.9141C141.9 65.2141 141.2 66.9141 138.8 66.9141C138 67.0141 137.2 66.7141 136.6 66.2141V65.9141L137.5 64.9141H137.7C138 65.4141 138.5 65.8141 139.1 65.7141C140.2 65.7141 140.7 64.7141 141.4 62.8141L141.6 62.2141L138.7 54.6141C138.7 54.5141 138.6 54.4141 138.6 54.3141C138.5 54.1141 138.4 53.8141 138.4 53.8141C138.2 53.5141 137.9 53.3141 137.5 53.3141V52.8141C138.1 52.9141 139 52.9141 139.5 52.9141C139.9 52.9141 140.4 52.9141 140.8 52.8141C141.1 52.8141 141.4 52.8141 141.7 52.7141V53.3141ZM109.3 53.1141C110 53.1141 110.6 53.1141 111.3 52.9141C111.7 52.8141 112 52.7141 112.4 52.6141L112.6 52.7141V53.5141C113.1 52.9141 113.9 52.6141 114.7 52.6141C115.3 52.6141 115.9 52.8141 116.3 53.1141V53.4141L115.6 54.8141H115.2C114.9 54.3141 114.3 53.9141 113.7 54.0141C113.4 54.0141 113 54.1141 112.7 54.3141V58.9141C112.6 59.6141 112.7 60.3141 112.9 60.9141C113.1 61.3141 113.9 61.3141 114.3 61.3141V61.7141C113.7 61.6141 112.6 61.6141 111.9 61.6141C111.1 61.6141 110.3 61.6141 109.5 61.7141V61.2141C109.9 61.2141 110.2 61.1141 110.5 60.8141C110.8 60.5141 110.8 59.8141 110.8 58.2141V55.6141C110.8 54.5141 110.8 54.0141 110.6 53.8141C110.5 53.6141 110.1 53.5141 109.6 53.5141L109.3 53.1141ZM68.5999 62.0141C65.9999 62.0141 64.5999 61.2141 63.9999 59.5141C63.6999 58.6141 63.5999 57.6141 63.6999 56.7141V51.8141C63.6999 50.3141 63.5999 50.1141 63.2999 49.8141C62.9999 49.6141 62.7999 49.5141 62.3999 49.5141V49.0141C62.9999 49.1141 63.9999 49.1141 64.6999 49.1141C65.4999 49.1141 66.2999 49.1141 66.9999 49.0141V49.5141C66.5999 49.5141 66.2999 49.6141 65.9999 49.9141C65.6999 50.2141 65.6999 50.8141 65.6999 52.3141V56.6141C65.6999 59.2141 65.8999 60.8141 68.7999 60.8141C71.6999 60.8141 71.8999 59.1141 71.8999 56.5141V51.7141C71.8999 50.2141 71.7999 50.0141 71.4999 49.7141C71.1999 49.5141 70.8999 49.4141 70.5999 49.4141V48.9141C71.1999 48.9141 71.8999 49.0141 72.5999 49.0141C73.2999 49.0141 73.9999 49.0141 74.6999 48.9141V49.4141C74.2999 49.4141 73.9999 49.5141 73.6999 49.8141C73.3999 50.1141 73.3999 50.7141 73.3999 52.2141V55.9141C73.4999 57.1141 73.2999 58.3141 72.9999 59.4141C72.6999 61.2141 71.0999 62.0141 68.5999 62.0141ZM85.9999 61.5141C86.3999 61.5141 86.6999 61.4141 86.9999 61.1141C87.2999 60.7141 87.2999 60.0141 87.2999 58.4141V55.8141C87.2999 54.7141 87.2999 54.1141 87.0999 53.9141C86.9999 53.7141 86.6999 53.6141 86.0999 53.5141V53.1141C86.7999 53.1141 87.4999 53.1141 88.1999 52.9141C88.4999 52.9141 88.8999 52.7141 89.1999 52.6141L89.3999 52.8141C89.2999 53.4141 89.2999 54.7141 89.2999 56.4141V59.0141C89.1999 59.7141 89.2999 60.3141 89.4999 61.0141C89.7999 61.3141 90.1999 61.5141 90.5999 61.4141V61.8141C89.9999 61.7141 89.0999 61.7141 88.2999 61.7141C87.4999 61.7141 86.6999 61.7141 85.8999 61.8141C85.9999 61.9141 85.9999 61.5141 85.9999 61.5141ZM88.2999 51.0141C87.6999 51.1141 87.1999 50.7141 87.1999 50.1141C87.1999 50.0141 87.1999 50.0141 87.1999 49.9141C87.1999 49.3141 87.6999 48.7141 88.2999 48.7141H88.3999C88.9999 48.6141 89.4999 49.1141 89.5999 49.7141V49.8141C89.5999 50.5141 88.9999 51.0141 88.2999 51.0141ZM124.7 61.5141C125.1 61.5141 125.4 61.4141 125.7 61.1141C126 60.8141 126 60.1141 126 58.5141V55.9141C126 54.8141 126 54.2141 125.8 54.0141C125.7 53.8141 125.4 53.7141 124.8 53.6141V53.1141C125.5 53.1141 126.2 53.1141 126.9 52.9141C127.2 52.8141 127.6 52.7141 127.9 52.6141L128.1 52.8141C128 53.4141 128 54.7141 128 56.4141V59.1141C127.9 59.8141 128 60.4141 128.2 61.1141C128.5 61.4141 128.9 61.6141 129.3 61.5141V61.9141C128.7 61.8141 127.8 61.8141 127 61.8141C126.2 61.8141 125.4 61.8141 124.6 61.9141L124.7 61.5141ZM126.9 51.0141C126.3 51.1141 125.8 50.7141 125.7 50.1141C125.7 50.0141 125.7 50.0141 125.7 49.9141C125.7 49.3141 126.2 48.7141 126.8 48.7141H126.9C127.5 48.6141 128 49.0141 128.1 49.6141C128.1 49.7141 128.1 49.7141 128.1 49.8141C128.1 50.4141 127.6 51.0141 127 51.0141C127 51.0141 127 51.0141 126.9 51.0141ZM117.3 61.5141C117.3 60.7141 117.3 59.9141 117.2 59.1141H117.8C117.8 59.5141 117.9 59.9141 118.2 60.3141C118.6 60.8141 119.2 61.0141 119.8 60.9141H119.9C120.9 60.9141 121.4 60.5141 121.4 59.6141C121.4 58.9141 121 58.6141 120.2 58.2141L118.9 57.4141C118 57.0141 117.4 56.1141 117.4 55.1141C117.3 54.2141 117.8 53.3141 118.7 52.8141C119.3 52.6141 119.9 52.5141 120.5 52.5141C121.3 52.5141 122.1 52.6141 122.9 52.7141C122.9 53.1141 122.8 53.4141 122.8 53.8141C122.8 54.2141 122.8 54.6141 122.9 55.0141H122.3C122.3 54.6141 122.2 54.3141 121.9 54.0141C121.5 53.6141 121 53.5141 120.5 53.5141C119.6 53.5141 119.1 53.9141 119.1 54.7141C119.1 55.3141 119.6 55.6141 120 55.9141H120.1L121.3 56.6141C122.3 57.0141 123.1 58.0141 123.1 59.1141C123.1 61.5141 120.9 61.9141 119.6 61.9141C118.9 61.9141 118.1 61.8141 117.3 61.5141ZM136.5 61.0141C135.9 61.7141 135 62.1141 134.1 62.0141C132.7 62.0141 131.9 61.5141 131.6 60.3141C131.5 59.7141 131.5 59.1141 131.5 58.5141C131.5 57.0141 131.5 55.9141 131.6 54.5141V53.9141H130.4V53.5141C130.8 53.3141 131.2 53.1141 131.6 52.9141C132.3 52.3141 132.9 51.5141 133.3 50.7141H133.7V52.7141H136.8V53.8141H133.7V58.6141C133.7 60.0141 133.9 60.9141 135.3 60.9141C135.8 60.9141 136.2 60.8141 136.6 60.5141L136.5 61.0141ZM95.0999 52.8141C94.7999 52.8141 94.4999 52.8141 94.1999 52.9141C93.6999 52.9141 93.1999 53.0141 92.8999 53.0141C92.1999 53.0141 91.5999 53.0141 90.8999 52.9141V53.4141C91.2999 53.4141 91.6999 53.6141 91.7999 53.9141C91.8999 54.1141 91.9999 54.3141 91.9999 54.4141C92.0999 54.5141 92.0999 54.6141 92.0999 54.7141L94.9999 62.0141L95.8999 61.9141L99.0999 54.7141C99.0999 54.6141 99.1999 54.6141 99.1999 54.5141C99.2999 54.3141 99.3999 54.1141 99.4999 54.0141C99.6999 53.7141 99.9999 53.5141 100.4 53.5141V53.0141C99.9999 53.0141 99.1999 53.1141 98.5999 53.1141C98.2999 53.1141 97.9999 53.1141 97.6999 53.0141C97.4999 53.0141 97.0999 52.9141 96.7999 52.9141V53.3141C97.0999 53.3141 97.2999 53.4141 97.4999 53.5141C97.5999 53.6141 97.6999 53.7141 97.6999 53.9141C97.6999 54.2141 97.5999 54.5141 97.4999 54.8141L95.9999 59.1141C95.8999 58.7141 95.7999 58.4141 95.5999 58.0141L94.3999 54.8141C94.2999 54.5141 94.1999 54.2141 94.1999 53.9141C94.1999 53.8141 94.1999 53.7141 94.2999 53.6141C94.4999 53.4141 94.7999 53.3141 95.0999 53.3141V52.8141ZM75.1999 53.1141C75.7999 53.1141 76.3999 53.1141 76.9999 53.0141C77.3999 52.9141 77.7999 52.8141 78.1999 52.6141L78.3999 52.7141V53.4141C79.1999 52.9141 80.0999 52.6141 80.9999 52.5141C82.3999 52.3141 83.6999 53.2141 83.9999 54.6141C84.0999 55.1141 84.0999 55.7141 84.0999 56.3141V58.9141C84.0999 60.4141 84.1999 60.8141 84.3999 61.1141C84.6999 61.3141 84.9999 61.4141 85.2999 61.3141V61.7141C84.6999 61.6141 83.5999 61.6141 82.9999 61.6141C82.1999 61.6141 81.4999 61.6141 80.6999 61.7141V61.3141C80.9999 61.3141 81.3999 61.1141 81.5999 60.9141C81.7999 60.7141 81.8999 60.1141 81.9999 59.0141V57.4141C81.9999 56.7141 81.9999 56.0141 81.8999 55.3141C81.8999 54.4141 81.1999 53.5141 80.1999 53.5141C80.0999 53.5141 79.9999 53.5141 79.8999 53.5141C79.2999 53.5141 78.6999 53.6141 78.1999 53.9141V58.7141C78.1999 60.2141 78.2999 60.6141 78.5999 60.9141C78.8999 61.1141 79.1999 61.2141 79.4999 61.1141V61.5141C78.7999 61.4141 77.7999 61.4141 77.1999 61.4141C76.3999 61.4141 75.6999 61.4141 74.8999 61.5141V61.1141C75.2999 61.1141 75.5999 61.0141 75.8999 60.7141C76.1999 60.4141 76.1999 59.6141 76.1999 58.1141V55.5141C76.1999 54.4141 76.1999 53.9141 75.9999 53.7141C75.8999 53.5141 75.5999 53.4141 74.9999 53.4141L75.1999 53.1141ZM104.9 61.9141C102.1 61.9141 100.7 60.3141 100.7 57.4141C100.7 56.9141 100.8 52.4141 105 52.4141C106.1 52.3141 107.2 52.8141 107.8 53.7141C108.2 54.4141 108.5 55.3141 108.4 56.1141V56.6141H102.7C102.7 57.0141 102.7 57.4141 102.8 57.8141C102.9 59.3141 104.2 60.5141 105.7 60.4141H105.8C106.6 60.4141 107.3 60.3141 107.9 59.9141L108.1 60.3141C107.4 61.5141 106.2 62.0141 104.9 61.9141ZM102.7 55.9141H106.2C106.2 54.8141 106 53.6141 104.4 53.6141C103 53.6141 102.7 55.0141 102.7 55.9141Z" fill="white"/>
</svg>
