<svg width="82" height="68" viewBox="0 0 82 68" fill="none" xmlns="http://www.w3.org/2000/svg">
<g id="uuid-b2c7ff33-024d-48a9-9d13-204b7ba23349" clip-path="url(#clip0_1448_2845)">
<g id="Group">
<path id="Vector" d="M30.0584 25.0526C30.1215 25.1546 30.1845 25.2567 30.2424 25.3503C30.3107 25.4609 30.4005 25.5112 30.5104 25.3846C30.5679 25.3255 30.63 25.2166 30.6883 25.2159C30.9628 25.2226 30.967 25.0202 30.9392 24.861C30.9127 24.6658 30.9997 24.6356 31.1464 24.5685C31.2367 24.5244 31.325 24.4581 31.4396 24.4343C31.7154 24.405 31.8467 24.2181 31.8312 23.9456C31.8277 23.8067 31.7586 23.6378 32.0168 23.7133C32.1597 23.7543 32.3091 23.7678 32.4532 23.7728C32.7415 23.7828 32.8473 23.6116 32.7184 23.3269C32.6796 23.245 32.6461 23.1717 32.6073 23.0899C32.577 23.0028 32.6195 22.9766 32.6989 23.0098C32.8025 23.0634 32.9061 23.1169 33.0214 23.1514C33.0627 23.1612 33.1138 23.1296 33.1616 23.1119C33.1523 23.0588 33.1463 22.992 33.1115 22.9547C32.9639 22.8109 32.7959 22.6913 32.6653 22.5369C32.5747 22.4283 32.5214 22.2849 32.4648 22.1553C32.4543 22.1383 32.464 22.097 32.4705 22.0695C32.4981 22.076 32.5256 22.0825 32.5446 22.0942C32.7356 22.2701 32.8775 22.4998 33.1462 22.5924C33.2341 22.6204 33.3102 22.6674 33.3847 22.5979C33.4593 22.5283 33.412 22.4517 33.3869 22.3731C33.3204 22.1322 33.3439 22.0941 33.5471 22.1567C33.709 22.2095 33.9222 22.3833 34.0333 22.2207C34.2449 21.8783 34.7797 21.9829 34.889 21.5509C35.1272 21.4038 35.3068 21.1047 35.6577 21.3111C35.7338 21.3582 35.7763 21.3319 35.765 21.2566C35.7578 21.2258 35.7643 21.1983 35.7485 21.1727C35.7012 21.0962 35.6539 21.0196 35.6289 20.941C35.5545 20.7636 35.7066 20.4581 35.8913 20.4145C36.0367 20.3835 36.1788 20.3662 36.3242 20.3351C36.4028 20.3101 36.5121 20.2778 36.5389 20.226C36.7093 19.8739 36.9315 19.9482 37.184 20.1096C37.2273 20.1416 37.3539 20.2514 37.3294 20.0785C37.2923 19.8663 37.4434 19.7494 37.5205 19.6078C37.6158 19.4196 37.6211 19.4281 37.4116 19.1461C37.3853 19.1036 37.374 19.0283 37.3975 18.9902C37.4211 18.9522 37.4924 18.8964 37.5337 18.9061C37.6713 18.9387 37.8077 19.0072 37.9421 19.0535C38.085 19.0945 38.1307 19.0545 38.1507 18.8775C38.1565 18.7917 38.1485 18.7026 38.1404 18.6135C38.1377 18.533 38.1887 18.5014 38.251 18.5452C38.3619 18.6295 38.4535 18.5494 38.5511 18.5362C38.6709 18.5209 38.8146 18.6202 38.9254 18.7045C39.1091 18.8496 39.2981 19.0033 39.419 19.1989C39.5924 19.4797 39.8011 19.7034 40.1164 19.8142C40.2836 19.8755 40.4037 20.0128 40.5271 20.1364C41.4676 21.107 42.5095 21.9561 43.5193 22.8486C43.8263 23.1173 46.5377 25.6033 46.9406 25.9891C47.0482 26.0872 47.1185 26.2201 47.2262 26.3182C47.5162 26.5974 47.803 26.8904 48.0983 27.1781C48.9317 27.9562 49.7801 28.7016 50.6135 29.4797C50.6968 29.5575 50.7684 29.6544 50.8229 29.7617C50.9288 29.9902 51.07 30.1616 51.3295 30.2011C51.5805 30.2458 51.7119 30.4585 51.887 30.6089C51.9651 30.6782 51.8848 30.8336 51.8123 30.9254C51.76 30.993 51.6559 31.0338 51.5916 30.9677C51.4787 30.8612 51.2285 30.8747 51.2817 30.6185C51.3045 30.5221 51.2179 30.4581 51.1386 30.4248C50.9164 30.3505 50.6889 30.2677 50.549 30.0603C50.5385 30.0433 50.4972 30.0335 50.4696 30.027C50.4737 30.0715 50.4521 30.1319 50.4732 30.1659C50.552 30.2935 50.6021 30.4506 50.7129 30.5349C51.0625 30.7774 51.2525 31.142 51.4935 31.475C51.5704 31.5803 51.5704 31.5803 51.6807 31.3594C51.7375 31.242 51.8258 31.1757 51.9602 31.2219C52.3548 31.366 52.6757 31.638 52.9317 31.9382C53.1266 32.1587 53.3654 32.3168 53.5689 32.532C53.7586 32.7439 54.0313 32.881 54.2668 33.0529C54.7463 33.3914 55.1938 33.7732 55.4836 34.2994C55.5677 34.4355 55.5227 34.5339 55.304 34.5985C55.1639 34.638 55.1128 34.6695 55.1576 34.8182C55.2137 35.0421 55.2528 35.2766 55.3088 35.5005C55.3649 35.7245 55.2401 35.8839 55.1395 36.0636C55.0422 36.2295 54.8888 36.1715 54.7519 36.1973C54.6065 36.2283 54.4742 36.2043 54.4995 36.4355C54.5218 36.8331 54.1657 37.0179 53.9565 37.2881C53.9395 37.2987 53.8497 37.2484 53.7999 37.2439C53.7501 37.2394 53.6227 37.0712 53.6493 37.2664C53.6746 37.4976 53.7752 37.7176 53.8228 37.9468C53.8465 38.0614 54.0557 38.1907 53.8633 38.2978C53.7698 38.3557 53.6484 38.2543 53.5598 38.168C53.5197 38.1222 53.4797 38.0764 53.4279 38.0497C53.3223 37.9739 53.1822 38.0134 53.1391 38.134C53.0648 38.3562 53.0043 38.5817 52.949 38.8157C52.9133 38.9671 52.8237 39.0694 52.6823 39.145C52.5973 39.1976 52.4281 39.114 52.4008 39.2602C52.3898 39.3375 52.4647 39.4206 52.4812 39.5044C52.4925 39.5797 52.5385 39.6923 52.3944 39.6873C52.2004 39.6778 52.0538 39.7449 51.9427 39.9076C51.8872 39.9889 51.8244 40.0395 51.7463 39.9702C51.6059 39.8571 51.5674 39.9279 51.5126 40.0675C51.3495 40.4504 51.2134 40.5345 50.8648 40.503C50.8012 40.4953 50.7494 40.4685 50.6944 40.4555C50.4434 40.4107 50.4296 40.4075 50.3456 40.671C50.3025 40.7916 50.2523 40.8815 50.1291 40.9105C49.989 40.9501 49.8384 40.9726 49.714 41.0377C49.5982 41.0975 49.3537 41.0252 49.3665 41.2171C49.3683 41.4864 48.9974 41.4569 49.0372 41.7497C49.077 42.0424 48.8809 42.2577 48.6006 42.3368C48.2418 42.4409 47.862 42.511 47.6818 42.9044C46.7468 43.5409 47.0961 43.6307 46.007 43.1046C45.7913 43.0027 45.5874 42.8819 45.4089 42.7453C45.3224 42.6812 45.2265 42.5641 45.2355 42.4646C45.2272 42.2228 45.0836 42.1235 44.9306 41.9711C44.3243 41.3701 43.6133 40.9043 42.9834 40.3413C42.0897 39.5417 41.164 38.7853 40.267 37.9995C39.8281 37.6124 39.3283 37.2982 38.9672 36.8278C38.4682 36.5718 38.0535 36.2051 37.6015 35.873C36.8898 35.3489 36.2441 34.7604 35.6475 34.1181C35.4683 33.9232 35.2806 33.7336 35.0779 33.5767C34.3419 33.0323 33.7753 32.3244 33.1341 31.6862C32.552 31.1054 31.9836 30.528 31.4015 29.9472C31.0904 29.634 30.7676 29.3397 30.4905 29.0055C29.8754 28.2571 29.2112 27.5625 28.4521 26.9618C28.2632 26.8082 28.1135 26.642 28.117 26.3813C28.118 26.1926 27.9586 26.0678 27.8947 25.9074C27.8256 25.7385 27.8757 25.496 28.0433 25.4629C28.2673 25.4069 28.3488 25.2154 28.5105 25.1156C28.6891 25.0052 28.8192 24.8543 28.9388 24.6864C29.0179 24.567 29.1385 24.61 29.2238 24.7101C29.2554 24.7611 29.3092 24.8102 29.3047 24.86C29.2854 25.0952 29.4428 25.1978 29.6173 25.2898C29.7864 25.3734 29.878 25.2933 29.936 25.1399C29.9661 25.0743 30.0053 25.0618 30.0709 25.0918L30.0584 25.0526ZM52.2013 31.9546C52.2328 32.0056 52.2643 32.0567 52.3076 32.0887C52.6928 32.4267 53.1237 32.7247 53.4363 33.1546C53.4731 33.2141 53.595 33.2211 53.6723 33.2321C53.7221 33.2366 53.7922 33.2168 53.8242 33.1735C53.8529 33.144 53.8397 33.0464 53.8154 33.0262C53.3942 32.6869 52.9678 32.3391 52.5381 32.0051C52.4462 31.9325 52.3479 31.8875 52.2443 31.834C52.2443 31.834 52.2102 31.855 52.2017 31.8603C52.1952 31.8878 52.2025 31.9186 52.196 31.9461L52.2013 31.9546ZM37.346 21.3612C37.4039 21.4548 37.4471 21.4868 37.4787 21.5379C37.5365 21.6314 37.6361 21.6404 37.6641 21.5526C37.6889 21.4785 37.7181 21.3547 37.6833 21.3174C37.5652 21.2023 37.4268 21.1115 37.2832 21.0121C37.2727 20.9951 37.2334 21.0076 37.2111 21.0097C37.2184 21.0404 37.2119 21.068 37.2191 21.0987C37.2599 21.2028 37.3092 21.3017 37.3375 21.3665L37.346 21.3612Z" fill="black"/>
<path id="Vector_2" d="M30.0584 25.0526C30.0013 25.0173 29.9535 25.0351 29.9235 25.1007C29.8655 25.2541 29.7739 25.3342 29.6047 25.2506C29.4303 25.1586 29.2814 25.0507 29.2921 24.8208C29.2966 24.771 29.2343 24.7272 29.2113 24.6709C29.2308 24.5883 29.2673 24.4952 29.2561 24.4199C29.2178 24.2437 29.2878 24.2239 29.434 24.2512C29.8586 24.3297 30.1454 24.6227 30.4067 24.9315C30.4225 24.957 30.4062 25.0258 30.3932 25.0809C30.3932 25.0809 30.3402 25.0901 30.3094 25.0974C30.2236 25.0916 30.1377 25.0859 30.0466 25.0716L30.0584 25.0526Z" fill="black"/>
</g>
<g id="Group_2">
<path id="Vector_3" d="M28.2455 55.1476C28.0974 55.098 27.9432 54.9817 27.8063 55.0075C27.3204 55.0961 26.9335 54.8885 26.5734 54.629C26.3812 54.4892 26.184 54.4934 25.9691 54.4499C25.393 54.3356 24.7824 54.3367 24.2401 54.0488C23.9103 53.8764 23.5379 53.7303 23.1768 53.6595C22.1486 53.4602 21.1516 53.1593 20.1729 52.8118C18.8048 52.3288 17.4035 51.9251 16.0269 51.4473C15.1603 51.1481 14.2754 50.8955 13.4688 50.4652C13.36 50.4032 13.2394 50.3601 13.1188 50.3171C11.7417 49.9337 10.4591 49.3037 9.11656 48.8049C7.9877 48.3857 6.9424 47.7972 5.81679 47.3642C5.31004 47.1719 4.8118 46.9742 4.31356 46.7766C4.15491 46.7101 4.19143 46.617 4.2875 46.4871C4.39208 46.352 4.14608 46.1631 4.3515 46.0009C4.46009 45.9103 4.46758 45.6941 4.57091 45.595C4.83713 45.36 4.96772 45.1147 4.78501 44.7809C4.92585 44.4001 5.0339 44.0042 4.929 43.587C4.90722 43.4947 4.96276 43.4134 5.03732 43.3438C5.29704 43.1363 5.3443 42.8133 5.49516 42.5437C5.56045 42.4211 5.57471 42.33 5.55417 42.2017C5.49007 41.8886 5.79558 41.6411 5.71246 41.3163C5.69669 41.2908 5.79152 41.1969 5.83606 41.1929C6.13609 41.1839 6.23016 41.0317 6.17007 40.7632C6.12126 40.5701 6.12874 40.3539 6.24708 40.222C6.38894 40.052 6.45099 39.9432 6.25679 39.7811C6.22725 39.7523 6.231 39.6442 6.25451 39.6061C6.41789 39.3759 6.52946 39.1189 6.84374 39.0188C7.04017 38.9562 7.0224 38.9084 6.87149 38.7783C6.79341 38.709 6.60798 38.6942 6.68629 38.5166C6.74958 38.3717 6.80637 38.2543 7.01731 38.2533C7.33636 38.256 7.43043 38.1038 7.27151 37.8847C7.03049 37.5516 7.00795 37.401 7.22112 37.1753C7.40552 36.979 7.70604 36.8757 7.67397 36.5193C7.66996 36.4748 7.82185 36.4162 7.8879 36.3519C8.16588 36.0979 8.27193 35.6797 8.10574 35.4298C8.0269 35.3021 7.78442 35.2521 7.87974 35.0639C7.93653 34.9466 8.12119 34.903 8.24355 34.8157C8.36265 34.7421 8.47075 34.7458 8.59988 34.7836C9.43494 35.0317 10.2852 35.0001 11.1395 35.013C11.5529 35.0162 11.9526 35.0162 12.3634 35.0914C12.697 35.1557 13.0468 35.1511 13.3954 35.1826C14.6679 35.3016 15.8668 35.7011 17.0905 36.0265C19.8236 36.7593 22.3944 37.9334 24.9933 39.0196C25.4643 39.3633 26.0416 39.4416 26.5556 39.6647C26.7057 39.7365 26.8388 39.8189 26.6197 39.9778C26.5516 40.0198 26.5851 40.0931 26.6645 40.1264C27.1319 40.3313 27.5909 40.5414 28.0616 40.7326C29.498 41.3262 30.9344 41.9198 32.3709 42.5135C32.5295 42.58 32.7052 42.636 32.8756 42.6836C32.8614 43.1743 33.2785 43.0694 33.5473 43.1619C33.8764 43.276 34.1989 43.4176 34.5248 43.5454C34.6696 43.6087 34.7455 43.5031 34.837 43.423C34.9541 43.3272 35.0865 43.3512 35.1398 43.4945C35.259 43.8206 35.5115 43.982 35.8215 44.0843C36.0575 44.1618 36.3008 44.2701 36.5067 44.4132C36.8321 44.6354 37.1666 44.511 37.5027 44.5032C37.5197 44.4927 37.5424 44.3963 37.5554 44.3413C37.5697 44.2502 37.5682 44.1336 37.6981 44.2297C37.8332 44.3343 38.0567 44.3725 37.9779 44.6445C37.9466 44.7461 38.0084 44.8842 38.0375 45.0074C38.0911 45.3034 38.0963 45.3119 37.776 45.3452C37.7092 45.3512 37.6457 45.3435 37.5841 45.358C37.4747 45.3903 37.467 45.4538 37.5301 45.5559C37.672 45.7856 37.5184 45.9746 37.404 46.151C37.2812 46.3327 37.115 46.4824 36.9869 46.6555C36.9582 46.6851 36.9767 46.7912 37.0147 46.8147C37.1604 46.9363 37.3178 47.0389 37.4635 47.1604C37.6091 47.282 37.6106 47.3987 37.48 47.6439C37.3612 47.8701 37.372 48.0398 37.5411 48.1233C37.7864 48.2539 38.0572 48.3688 38.3109 48.4941C38.3489 48.5176 38.372 48.5739 38.3983 48.6165C38.3472 48.648 38.2844 48.6985 38.2431 48.6888C37.9593 48.629 37.8305 48.7439 37.8205 49.0322C37.8163 49.2346 37.7137 49.392 37.5193 49.4769C37.2993 49.5775 37.204 49.7657 37.1297 49.9879C37.0965 50.0672 37.0429 50.1708 36.9781 50.1991C36.8995 50.2241 36.7959 50.1706 36.7081 50.1426C36.6806 50.1361 36.6478 50.1211 36.6118 50.1198C36.4158 50.0881 36.3635 50.1556 36.3718 50.3974C36.3713 50.4917 36.5295 50.6526 36.2983 50.6779C36.1784 50.6932 36.0153 50.6764 36.0175 50.8513C36.015 50.9234 36.1174 51.013 36.185 51.0653C36.3752 51.1829 36.5804 51.2677 36.7823 51.3662C37.0826 51.5098 36.8396 51.5541 36.7363 51.6532C36.6788 51.7123 36.622 51.8297 36.6418 51.8997C36.7684 52.4092 36.4427 52.681 36.0991 52.905C35.8354 53.0679 35.5704 53.2669 35.2303 53.2302C35.2081 53.2322 35.1708 53.267 35.1623 53.2722C35.1715 53.3253 35.1828 53.4006 35.2209 53.4241C35.596 53.6508 36.0514 53.722 36.388 54.0195C36.3985 54.0365 36.4111 54.0758 36.4045 54.1033C36.398 54.1309 36.366 54.1742 36.3608 54.1657C36.1195 54.0796 35.8868 53.9883 35.6508 53.9107C35.4751 53.8547 35.2825 53.8092 35.1055 53.7892C35.0197 53.7835 34.8933 53.8263 34.8496 53.8886C34.6914 54.1273 34.5301 54.3798 34.5561 54.6693C34.5589 54.7499 34.7313 54.8197 34.8232 54.8923C34.8579 54.9295 34.881 54.9859 34.9073 55.0284C34.8562 55.0599 34.8072 55.1137 34.7574 55.1092C34.5359 55.0932 34.321 55.0497 34.108 55.0285C33.9947 55.0162 33.9078 55.1992 33.9912 55.277C34.1146 55.4006 34.1606 55.5132 34.1321 55.6954C34.0796 56.0099 34.0921 56.0492 33.8334 56.068C33.4358 56.0903 33.1971 56.3318 33.0259 56.6256C32.9639 56.7345 32.9962 56.8438 32.8173 56.8016C32.3493 56.691 31.9316 56.4906 31.5858 56.1401C31.5215 56.074 31.4604 55.9942 31.3843 55.9472C31.3135 55.9086 31.1791 55.8624 31.1333 55.9024C30.8991 56.0941 30.6579 56.0081 30.4134 55.9358C30.0293 55.8087 29.6281 55.6922 29.3799 55.3283C29.3038 55.2813 29.2257 55.212 29.1536 55.2095C28.9564 55.2138 28.786 55.1663 28.6606 55.0204C28.4604 54.7914 28.4262 55.0595 28.3241 55.1225L28.2455 55.1476ZM36.7603 45.1852C36.7603 45.1852 36.7818 45.1249 36.7746 45.0941C36.7673 45.0633 36.7548 45.024 36.7273 45.0175C36.2943 44.6973 35.8033 44.5304 35.2758 44.4567C35.2621 44.4534 35.2248 44.4882 35.2183 44.5157C35.2065 44.5348 35.2105 44.5793 35.2158 44.5878C35.697 44.7959 36.1815 44.9903 36.6712 45.1932C36.6902 45.205 36.7295 45.1924 36.7518 45.1904L36.7603 45.1852Z" fill="black"/>
<path id="Vector_4" d="M36.8981 44.1714C36.6361 44.2039 36.4139 44.1296 36.2314 43.9485C36.2314 43.9485 36.2562 43.8744 36.2785 43.8724C36.5352 43.8313 36.7607 43.8919 36.9399 44.0868C36.9451 44.0953 36.9131 44.1386 36.8981 44.1714Z" fill="black"/>
</g>
<g id="Group_3">
<path id="Vector_5" d="M74.7006 29.9968C74.7067 30.0636 74.7127 30.1304 74.7187 30.1972C74.7297 30.5195 74.6762 30.6231 74.4255 30.731C74.3744 30.7625 74.3096 30.7908 74.2513 30.7916C73.912 30.8131 73.624 30.9558 73.3748 31.1803C73.2459 31.2952 73.1341 31.3995 72.9579 31.4378C72.715 31.4822 72.512 31.5723 72.4418 31.839C72.432 31.8803 72.3194 31.9264 72.2866 31.9114C71.7824 31.6469 71.6195 32.1824 71.287 32.3291C71.2137 32.3627 71.2334 32.4327 71.2925 32.4903C71.3621 32.5648 71.4231 32.6446 71.4672 32.735C71.5678 32.9549 71.9427 33.0289 71.8339 33.3665C71.5533 33.293 71.4029 33.0685 71.229 32.8821C71.1594 32.8076 71.0898 32.733 71.017 32.6722C70.8956 32.5709 70.8506 32.6692 70.8278 32.7656C70.7568 32.974 70.6407 32.8812 70.5318 32.8192C70.461 32.7806 70.3874 32.6615 70.3011 32.7501C70.2233 32.8335 70.2949 32.9303 70.3559 33.0101C70.3927 33.0697 70.4243 33.1207 70.4611 33.1803C70.4933 33.2896 70.4483 33.388 70.3317 33.3895C70.143 33.3885 69.9831 33.358 69.7855 33.4566C69.3083 33.6926 68.7918 33.5416 68.3649 33.2881C67.6631 32.8753 67.2066 32.1935 66.7063 31.574C66.5442 31.3685 66.5541 31.0803 66.4155 30.8368C65.6131 29.4048 64.5882 28.1455 63.526 26.921L60.8326 23.8362C60.702 23.6818 60.5714 23.5274 60.4577 23.3625C59.2689 21.6285 57.8714 20.0705 56.4399 18.5335C55.351 17.3608 54.2535 16.1933 53.2987 14.9142C52.7018 14.1193 52.1592 13.2791 51.5911 12.4546C51.3165 12.0483 51.3923 11.543 51.7671 11.2174C52.185 11.1708 52.2024 10.6664 52.5678 10.5347C52.9246 10.4083 52.9611 9.91557 53.3612 9.82118C53.5823 9.2849 54.108 9.0894 54.5189 8.76505C55.249 8.19643 55.9739 7.6193 56.5681 6.88779C56.8145 6.58272 57.1075 6.29592 57.4413 6.11321C57.6592 5.99032 57.7473 5.77135 57.9502 5.68124C58.0543 5.64044 58.232 5.71874 58.3033 5.66293C58.3916 5.59661 58.4031 5.42495 58.4599 5.30758C58.4867 5.25578 58.5357 5.20197 58.59 5.15667C59.0296 4.80278 59.466 4.46266 59.9109 4.11729C59.9907 4.05622 60.0895 4.00691 60.1313 3.92233C60.3382 3.47713 60.8282 3.43303 61.1802 3.20378C61.2993 3.13019 61.439 3.18498 61.5531 3.25553C62.5278 3.95807 63.445 4.71967 64.2779 5.59214C65.1751 6.53066 65.935 7.58931 66.7609 8.58364C66.8915 8.73802 67.0136 8.89766 67.139 9.04353C67.8395 9.89199 68.5773 10.7057 69.2353 11.5804C70.0765 12.6946 70.9889 13.753 71.8897 14.8304C72.3131 15.3446 72.6993 15.8935 73.1058 16.4182C74.1799 17.7764 77.7325 22.1758 78.4416 23.019C78.7429 23.3736 79.0645 23.7038 79.3913 24.0426C79.7024 24.3559 79.9474 24.7334 80.0693 25.1401C80.1953 25.5912 80.4933 25.9595 80.5545 26.439C80.591 26.7455 80.8621 27.013 81.01 27.3095C81.0876 27.4731 81.0623 27.6415 80.9112 27.7584C80.6312 27.9902 80.3723 28.2559 79.9641 28.2612C79.7892 28.2635 79.6478 28.3391 79.5032 28.4285C79.231 28.5967 79.0551 28.7876 79.0374 29.1394C79.0286 29.3917 78.9085 29.2543 78.8146 29.1595C78.7103 29.0476 78.5767 29.0597 78.443 29.0717C78.1896 29.099 77.9626 29.3215 77.6781 29.2034C77.6315 29.1851 77.5275 29.226 77.5039 29.264C77.3133 29.6404 76.8999 29.6372 76.5864 29.7956C76.2899 29.9435 76.0597 30.1798 75.7337 30.2989C75.4724 30.3898 75.3113 30.3953 75.1151 30.2109C75.0022 30.1043 74.8991 29.9565 74.6986 29.9745C74.6993 29.6332 74.4671 29.4475 74.2146 29.2862C74.2041 29.2691 74.1563 29.2869 74.1308 29.3027C74.1138 29.3132 74.087 29.365 74.0922 29.3735C74.2447 29.6202 74.3736 29.905 74.7104 29.9555L74.7006 29.9968ZM72.2955 22.8313C72.2978 23.0062 72.3341 23.1601 72.4745 23.2732C72.5768 23.3628 72.6902 23.3751 72.7045 23.284C72.7122 23.2204 72.7232 23.1431 72.6917 23.092C72.6023 22.9474 72.4554 22.8618 72.2838 22.8504C72.2037 22.7588 72.1268 22.6534 72.0435 22.5756C71.9844 22.5181 71.8974 22.5484 71.9034 22.6152C71.9187 22.735 71.9562 22.8529 71.98 22.9675C72.0533 22.934 72.2732 22.8333 72.2988 22.8176L72.2955 22.8313ZM70.5093 28.9776C70.6593 29.2963 70.7681 29.3584 70.9711 29.2683C71.157 29.1887 71.1482 29.0413 71.0759 28.8862C71.252 28.8479 71.4965 28.9201 71.5781 28.7287C71.6231 28.6304 71.4819 28.459 71.4286 28.3156C71.4129 28.2901 71.4226 28.2488 71.4206 28.2265L71.3951 28.2423C71.6991 28.2778 71.8005 28.556 71.998 28.7044C72.036 28.7279 72.1146 28.7029 72.1709 28.6798C72.1794 28.6746 72.2061 28.6228 72.1956 28.6058C72.0958 28.4441 71.9566 28.295 71.8908 28.1123C71.8019 27.8734 72.1555 27.7607 72.1059 27.5092C72.1787 27.57 72.2633 27.6118 72.3276 27.6779C72.4911 27.8473 72.4963 27.8558 72.5438 27.6854C72.6149 27.4769 72.722 27.2697 72.6469 27.034C72.9777 27.0177 73.03 27.3497 73.2307 27.4843C73.274 27.5164 73.3578 27.4998 73.4056 27.4821C73.4704 27.4538 73.4304 27.408 73.3969 27.3347C73.2785 27.0669 73.2935 27.0342 73.4979 27.0607C73.6886 27.0839 73.8117 27.0549 73.8953 26.8857C73.9606 26.7631 73.9728 26.6497 73.894 26.5221C73.7415 26.2754 73.6231 26.0077 73.474 25.7472C73.4056 25.6366 73.3 25.5608 73.2062 25.4659C73.1471 25.4084 73.0856 25.4229 73.0713 25.514C73.0351 25.7597 72.9217 25.7475 72.7538 25.6279C72.6482 25.5521 72.5276 25.5091 72.4187 25.447L72.3245 24.7999C72.3816 24.8352 72.4419 24.8567 72.499 24.892C72.5593 24.9135 72.6196 24.935 72.6799 24.9565C72.6929 24.9015 72.7262 24.8222 72.7051 24.7881C72.5843 24.5925 72.4686 24.4053 72.3307 24.2201C72.2992 24.1691 72.2113 24.1411 72.1583 24.1503C72.1275 24.1576 72.0772 24.2474 72.0727 24.2972C72.0795 24.4224 72.1138 24.554 72.1343 24.6823C72.0583 24.6353 71.9737 24.5935 71.9009 24.5327C71.6508 24.2993 71.4786 23.9825 71.1626 23.8134C71.1663 23.7053 71.2219 23.624 71.3174 23.5884C71.4215 23.5476 71.5236 23.4845 71.4298 23.3897C71.2421 23.2001 71.2385 22.6616 70.7438 23.0024C70.4941 22.9216 70.3752 22.7482 70.3649 22.4842C70.6857 22.3566 70.706 22.3323 70.5628 22.1386C70.3829 21.8854 70.1859 21.6427 69.8406 21.5975C69.6354 21.5127 69.4647 21.3125 69.2127 21.4564C69.1909 21.3641 69.2044 21.2147 69.1474 21.1794C69.0142 21.0971 68.8438 21.0496 68.6924 21.0138C68.6649 21.0073 68.5871 21.0907 68.5911 21.1352C68.6249 21.3612 68.6555 21.6009 68.7286 21.8143C68.7786 21.9715 68.936 22.074 69.1194 22.0665C69.2251 22.5419 69.569 22.8702 69.8107 23.2615C69.9527 23.4912 70.0758 23.4622 70.2872 23.3668C70.5464 23.2537 70.6022 23.325 70.7647 23.6831C70.7011 23.6753 70.6408 23.6538 70.5773 23.6461C70.5222 23.6331 70.4586 23.6253 70.4036 23.6123C70.3958 23.6759 70.3626 23.7552 70.3836 23.7892C70.5943 24.0352 70.805 24.2811 71.036 24.5028C71.3589 24.797 71.3621 24.7833 71.3567 25.0218C71.3549 25.1521 71.3755 25.2805 71.396 25.4089C71.166 25.3981 71.0609 25.228 70.944 25.0769C70.6807 24.7458 70.475 24.3557 70.0914 24.1343C69.6612 23.8947 69.6726 23.3234 69.2797 23.0489C69.2312 23.0084 69.1676 23.0006 69.1073 22.9791C69.0995 23.0427 69.0695 23.1082 69.0703 23.1665C69.0758 23.3277 69.1089 23.4953 69.1144 23.6565C69.1184 23.701 69.0641 23.7463 69.0458 23.7929C69.0216 23.7726 68.9888 23.7576 68.9645 23.7373C68.7085 23.4371 68.4525 23.1368 68.1964 22.8366C68.1111 22.7365 68.0087 22.6469 67.9201 22.5606C67.8663 22.5116 67.8133 22.5208 67.7557 22.5799L67.4295 22.946C67.3899 22.8059 67.4067 22.6428 67.263 22.5434L66.8663 21.9774C67.0973 21.7995 67.3638 21.7171 67.646 21.6603C67.7702 21.8422 67.8996 22.0326 68.0407 22.204C68.1123 22.3008 68.2029 22.4094 68.3535 22.3869C68.3598 22.6064 68.4714 22.749 68.6479 22.8633C68.6721 22.8836 68.7082 22.8848 68.7409 22.8998C68.7539 22.8448 68.801 22.7687 68.78 22.7347C68.6919 22.554 68.575 22.4029 68.3503 22.4007C68.371 22.282 68.5064 22.1396 68.3988 22.0416C68.2006 21.8349 67.9781 21.608 67.6363 21.7016C67.674 21.5725 67.7308 21.4551 67.7548 21.3227C67.7866 21.1268 67.6965 20.9239 67.5406 20.9379C67.1482 20.9687 66.9878 20.6329 66.7065 20.5011C66.4442 20.381 66.3363 20.1303 66.4577 19.832C66.6541 19.3698 66.5937 18.9486 66.2714 18.5601C66.2398 18.509 66.2285 18.4337 66.2055 18.3774C66.1627 18.251 66.1905 18.4102 66.2611 18.2961C66.2846 18.258 66.4182 18.246 66.4287 18.263C66.5811 18.5097 66.6845 18.8102 66.8912 19.0117C67.2541 19.3517 67.6 19.7022 67.8883 20.1118C67.9461 20.2054 68.0627 20.2039 68.1531 20.1598C68.2041 20.1283 68.2479 20.066 68.2747 20.0142C68.3367 19.9053 68.2861 19.8425 68.1793 19.8027C67.7211 19.6509 67.5814 19.1965 67.3064 18.8845C67.1672 18.7354 67.3241 18.5327 67.2748 18.4338C67.1479 18.1713 67.2009 17.7624 66.7539 17.6859C66.5803 17.6522 66.4286 17.4638 66.283 17.3422C66.2101 17.2814 66.1491 17.2016 66.0933 17.1302C65.9919 17.2516 66.0197 17.4108 66.0998 17.5023C66.3769 17.8366 65.8857 17.9168 65.8939 18.1585C65.9 18.2253 65.8024 18.2386 65.7498 18.1535C65.6605 18.0089 65.5829 17.8452 65.4092 17.8115C64.9825 17.7107 64.8581 17.3761 64.754 17.0173C65.041 17.0633 65.1339 17.3468 65.3399 17.4899C65.3779 17.5134 65.4755 17.5002 65.5128 17.4654C65.5553 17.4391 65.5813 17.329 65.5655 17.3035C65.3843 17.0863 65.1894 16.8659 64.9912 16.6592C64.9701 16.6252 64.864 16.6437 64.813 16.6752C64.7705 16.7015 64.751 16.7841 64.7465 16.8339C64.7387 16.8974 64.767 16.9622 64.773 17.0291C64.2012 16.7123 63.6614 16.3523 63.2667 15.8086C63.113 15.5979 62.9136 15.4273 62.7259 15.2376C62.7101 15.2121 62.6773 15.1971 62.6445 15.1821C62.6255 15.1703 62.5895 15.1691 62.562 15.1626C62.549 15.2176 62.5104 15.2884 62.5282 15.3362C62.5795 15.4573 62.6478 15.5679 62.7077 15.6838C62.7234 15.7093 62.7084 15.7421 62.7019 15.7696C62.6719 15.8352 62.6136 15.8359 62.5545 15.7784C62.0715 15.301 61.7036 14.7055 61.1375 14.3029C61.0887 14.1098 61.0366 13.9304 60.8432 13.8265C60.7724 13.788 60.7278 13.792 60.6998 13.8798C60.6933 13.9074 60.6921 13.9434 60.7078 13.9689C60.8044 14.1443 60.9618 14.2469 61.1578 14.2787C61.1718 14.4346 61.1911 14.599 61.1914 14.7516C61.1941 14.8322 61.1346 14.869 61.0638 14.8304C60.8946 14.7469 60.7254 14.6633 60.5648 14.5745C60.5637 14.3636 60.4606 14.2157 60.2927 14.0961C60.2114 14.0406 60.1753 14.0393 60.1558 14.1219C60.1493 14.1494 60.1481 14.1854 60.1638 14.211C60.252 14.3916 60.3636 14.5342 60.585 14.5502C60.6664 15.0054 61.0841 15.2058 61.3251 15.5388C61.4335 15.6952 61.6099 15.8095 61.5939 16.031L61.5854 16.0363C61.3955 16.0713 61.3041 15.9044 61.171 15.8221C61.1277 15.7901 61.0609 15.7961 61.0058 15.7831C60.9981 15.8467 60.9681 15.9122 60.9826 15.9738C61.0249 16.1945 61.0004 16.4212 61.317 16.496C61.5922 16.561 61.7086 16.8065 61.7484 17.0992C61.797 17.5394 61.9975 17.921 62.2948 18.231C62.6702 18.6103 62.7701 19.1716 63.1913 19.5108C63.2018 19.5278 63.1758 19.6379 63.1418 19.659C63.0057 19.7431 62.9319 19.8709 63.0395 19.969C63.3834 20.2973 63.6226 20.7607 64.1927 20.8082C64.3008 20.8119 64.4602 20.9368 64.501 21.0409C64.7563 21.6824 65.2896 22.07 65.7451 22.5409C65.7669 22.6332 65.8174 22.696 65.917 22.705C66.0217 22.9695 66.1753 23.1802 66.4696 23.2569L66.4538 23.2314C66.4767 23.5347 66.6336 23.7316 66.9311 23.7946L67.0298 24.3919C66.9289 24.419 66.8406 24.4853 66.8761 24.5809C66.9222 24.6935 67.0246 24.7831 67.1132 24.8694C67.2208 24.9675 67.3471 24.9247 67.4662 24.8511L67.9304 25.0697L67.9147 25.0442C68.216 25.7984 68.7484 26.3746 69.3062 26.935C69.6766 27.0589 69.5793 27.6244 70.021 27.6924C69.9029 27.977 70.255 28.1473 70.1985 28.4173C70.2015 28.6505 70.397 28.7766 70.4903 28.9658L70.5093 28.9776ZM76.6673 28.1C76.6217 28.2927 76.5625 28.4821 76.5254 28.6695C76.5209 28.7193 76.5893 28.8299 76.6201 28.8227C76.7707 28.8001 76.9424 28.8116 77.0687 28.7688C77.1866 28.7313 77.1102 28.5316 77.0164 28.4368C76.9068 28.3164 76.8377 28.1475 76.6555 28.119C76.6407 27.9048 76.5238 27.7537 76.3304 27.6499C76.3199 27.6329 76.2721 27.6506 76.2603 27.6696C76.2486 27.6887 76.2303 27.7352 76.2408 27.7522C76.3289 27.9329 76.4255 28.1083 76.662 28.0915L76.6673 28.1ZM73.5812 24.8934C73.5793 25.2707 74.0502 25.2149 74.1398 25.5121C74.1608 25.5462 74.2572 25.5689 74.3155 25.5682C74.4131 25.5549 74.5139 25.5278 74.5852 25.472C74.6651 25.411 74.672 25.2891 74.5855 25.2251C74.2096 24.9401 73.9678 24.5487 73.7005 24.1732C73.5659 23.9743 73.4162 23.8081 73.2207 23.682C73.1827 23.6585 73.0831 23.6495 73.0543 23.679C73.0171 23.7138 72.9975 23.7964 73.0121 23.858C73.0386 24.0531 73.0396 24.2641 73.2959 24.3174C73.2182 24.5848 73.3115 24.774 73.576 24.8849L73.5812 24.8934ZM66.571 25.7803C66.6581 25.75 66.7632 25.5205 66.7106 25.4355C66.5214 25.1292 66.3322 24.8229 66.1259 24.5272C66.0786 24.4506 65.9665 24.4023 65.8787 24.3743C65.7823 24.3516 65.671 24.3616 65.5892 24.4004C65.4648 24.4654 65.5364 24.5623 65.5922 24.6336C65.7459 24.8443 65.9028 25.0412 66.065 25.2466C65.9456 25.5672 66.2124 25.6375 66.3856 25.7656C66.4289 25.7976 66.4989 25.7778 66.5625 25.7855L66.571 25.7803ZM67.9571 27.9096C68.0044 27.9862 68.0347 28.0733 68.1042 28.1478C68.5382 28.679 68.9859 29.2135 69.4199 29.7447C69.4357 29.7702 69.4737 29.7937 69.5012 29.8002C69.515 29.8035 69.5438 29.7739 69.5588 29.7412C69.5738 29.7084 69.5803 29.6808 69.5815 29.6448C69.5963 29.4594 69.4697 29.3495 69.36 29.2292C69.1376 29.0023 68.8673 28.7931 68.9891 28.4005C68.9956 28.3729 68.9746 28.3389 68.9673 28.3081C68.9515 28.2826 68.9253 28.2401 68.903 28.2421C68.5362 28.2571 68.3554 27.9456 68.0859 27.7948C68.0754 27.7777 68.0224 27.787 68.0106 27.806C67.9851 27.8218 67.9838 27.8578 67.9656 27.9044L67.9571 27.9096ZM62.2753 20.5587C62.4856 20.899 62.7063 21.2563 62.9323 21.6221C62.9796 21.6987 63.2246 21.6766 63.2992 21.607C63.3855 21.5184 63.35 21.4228 63.2804 21.3483C63.0441 21.1181 62.8707 20.8374 62.7398 20.5303C62.7062 20.457 62.5941 20.4087 62.501 20.3722C62.4545 20.354 62.3832 20.4098 62.3321 20.4413C62.3066 20.4571 62.3054 20.4931 62.2753 20.5587ZM75.5598 29.0663C75.6344 28.9967 75.7215 28.9664 75.726 28.9166C75.7322 28.7365 75.6056 28.6266 75.4587 28.5411C75.2928 28.4437 75.1494 28.4971 75.0258 28.6204C74.9597 28.6848 74.9685 28.8321 75.0478 28.8654C75.2203 28.9352 75.4064 29.0083 75.5683 29.061L75.5598 29.0663ZM71.6948 21.7449C71.6948 21.7449 71.675 21.6748 71.6593 21.6493C71.5076 21.4609 71.3174 21.3433 71.0627 21.4066C71.0096 21.4159 70.9436 21.4802 70.9306 21.5353C70.9176 21.5903 70.9584 21.6944 70.9997 21.7042C71.2114 21.7615 71.4296 21.7912 71.6478 21.821C71.6478 21.821 71.6798 21.7777 71.6948 21.7449ZM69.235 27.3905C69.235 27.3905 69.2512 27.3217 69.2492 27.2994C69.1401 27.0847 68.9446 26.9586 68.7374 26.8515C68.7322 26.843 68.6896 26.8693 68.6779 26.8883C68.6576 26.9126 68.6564 26.9486 68.6636 26.9794C68.7525 27.2184 68.997 27.2907 69.1754 27.4273C69.1754 27.4273 69.2179 27.401 69.2435 27.3852L69.235 27.3905ZM64.1541 15.9892C64.2561 15.9261 64.3772 15.8748 64.4793 15.8117C64.5049 15.7959 64.5199 15.7632 64.5264 15.7356C64.5211 15.7271 64.5001 15.6931 64.4726 15.6866C64.3054 15.6253 64.1345 15.6721 64.085 15.8203C64.0752 15.8615 64.1258 15.9243 64.1541 15.9892Z" fill="black"/>
<path id="Vector_6" d="M67.4516 22.944C67.4892 23.0619 67.5267 23.1797 67.5728 23.2923C67.7332 23.6281 67.7332 23.6281 67.2801 23.7318L67.2218 23.7325C67.2218 23.7325 67.1347 23.7628 67.1006 23.7838L67.1081 23.5676C67.0888 23.4032 67.1003 23.2316 67.0555 23.0829C67.018 22.9651 66.9189 22.8617 66.8388 22.7702C66.8125 22.7276 66.7372 22.7389 66.6769 22.7174C66.6691 22.7809 66.6391 22.8465 66.6484 22.8996C66.6604 23.0332 66.6894 23.1563 66.71 23.2847L66.459 23.2399L66.4747 23.2654C66.3989 22.9714 66.3113 22.6964 65.9307 22.7082C65.8311 22.6992 65.789 22.6312 65.7587 22.5441C65.7027 22.3201 65.6944 22.0784 65.5002 21.9163C65.2975 21.7594 65.2717 21.6225 65.5236 21.4786C65.5577 21.4576 65.5554 21.2827 65.5133 21.2146C65.3314 20.9391 65.1239 20.6794 64.925 20.4144C64.8724 20.3294 64.7858 20.2653 64.73 20.194C64.6394 20.0854 64.6286 19.9158 64.6889 19.9373C64.7715 19.9568 64.8646 19.9933 64.9374 20.0541C65.0345 20.1352 65.1336 20.2385 65.219 20.3386C65.519 20.7292 65.8159 21.1335 66.1245 21.5188C66.2413 21.67 66.2088 21.8076 66.1698 21.9727C66.1178 22.193 66.1453 22.1995 66.4321 22.0928C66.5276 22.0573 66.6252 22.044 66.7208 22.0085C66.8625 22.4851 66.8868 22.5054 67.2989 22.5446C67.4426 22.644 67.4258 22.8071 67.4654 22.9473L67.4516 22.944Z" fill="black"/>
<path id="Vector_7" d="M73.2927 24.3312C73.5154 24.3111 73.6068 24.478 73.7014 24.6312C73.7802 24.7588 73.7077 24.8506 73.5728 24.8987C73.3084 24.7878 73.215 24.5986 73.2927 24.3312Z" fill="black"/>
<path id="Vector_8" d="M70.7211 29.0348L70.5094 28.9775C70.4246 28.7831 70.2206 28.6622 70.2176 28.429C70.5342 28.5038 70.7219 28.6935 70.7264 29.0433L70.7211 29.0348Z" fill="black"/>
<path id="Vector_9" d="M66.9077 21.9872L66.6988 22.0105C66.6076 21.5966 66.4314 21.2353 66.1086 20.941C66.0495 20.8835 65.9334 20.7907 66.08 20.7236C66.1396 20.6868 66.2707 20.7468 66.3383 20.7991C66.7109 21.0979 66.8486 21.53 66.9077 21.9872Z" fill="black"/>
<path id="Vector_10" d="M61.6299 16.0321C61.9792 16.1219 62.0898 16.4532 62.2835 16.7097C62.3046 16.7437 62.2575 16.8198 62.2445 16.8749C62.2117 16.8599 62.1842 16.8534 62.1599 16.8331C61.9034 16.6272 61.6842 16.3865 61.6266 16.0459L61.6351 16.0407L61.6299 16.0321Z" fill="black"/>
<path id="Vector_11" d="M65.0919 21.3694C64.9097 21.3409 64.7403 21.1047 64.7425 20.88C64.749 20.8525 64.764 20.8197 64.7758 20.8007C64.7843 20.7954 64.8235 20.7829 64.8288 20.7914C64.9404 20.9341 65.0488 21.0904 65.1604 21.2331C65.1709 21.2501 65.1612 21.2914 65.1409 21.3156C65.1292 21.3347 65.1089 21.3589 65.0834 21.3747L65.0919 21.3694Z" fill="black"/>
<path id="Vector_12" d="M72.6764 27.0627C72.3636 26.8798 72.1829 26.5683 71.9276 26.3263C71.8633 26.2603 71.7755 26.2323 71.6856 26.182C71.7044 26.0411 71.6891 25.9212 71.573 25.8284C71.4326 25.7153 71.4048 25.5562 71.4078 25.3898C71.7461 25.5569 72.0959 25.5523 72.4548 25.4482C72.419 25.5996 72.3117 25.6542 72.18 25.6885C72.0484 25.7228 71.9411 25.7773 72.077 25.9402C72.2477 26.1404 72.4066 26.3596 72.5347 26.586C72.6188 26.7221 72.6349 26.9003 72.6712 27.0542L72.6764 27.0627Z" fill="black"/>
<path id="Vector_13" d="M69.6086 26.4543C69.7002 26.3742 69.6391 26.2944 69.5865 26.2094C69.534 26.1243 69.4709 26.0222 69.573 25.9591C69.607 25.9381 69.7402 26.0204 69.8045 26.0865C69.9299 26.2323 70.035 26.4025 70.1434 26.5589C70.1591 26.5844 70.1579 26.6204 70.1514 26.6479C70.1234 26.7358 70.0788 26.7398 69.9995 26.7065C69.8789 26.6635 69.7485 26.6618 69.6161 26.6378C69.3514 26.5897 69.4842 26.5194 69.6118 26.4406L69.6086 26.4543Z" fill="black"/>
<path id="Vector_14" d="M71.6189 26.9874C71.9164 27.0504 72.0903 27.2368 72.1269 27.5434C71.7921 27.5151 71.73 27.2244 71.6189 26.9874Z" fill="black"/>
<path id="Vector_15" d="M71.4154 28.2181C71.3486 28.2241 71.2923 28.2471 71.2202 28.2446C71.0538 28.2416 71.0078 28.129 70.999 27.9816C70.997 27.9594 71.029 27.9161 71.0545 27.9003C71.1396 27.8477 71.3035 27.9228 71.3633 28.0387C71.3949 28.0897 71.3924 28.1618 71.3984 28.2286L71.4239 28.2128L71.4154 28.2181Z" fill="black"/>
<path id="Vector_16" d="M68.7748 25.3709L68.7124 24.9275C68.8934 24.992 69.0305 25.1189 69.1251 25.272C69.1514 25.3145 69.1214 25.3801 69.1136 25.4437C69.0861 25.4372 69.0553 25.4444 69.0278 25.4379C68.9452 25.4184 68.8489 25.3957 68.7663 25.3761L68.7748 25.3709Z" fill="black"/>
<path id="Vector_17" d="M68.3421 25.2033L68.7866 25.3519C68.7873 25.4102 68.7933 25.477 68.7856 25.5405C68.7726 25.5956 68.7511 25.6559 68.7296 25.7162C68.6725 25.6809 68.6207 25.6542 68.5636 25.6189C68.42 25.5196 68.3667 25.3762 68.3474 25.2118L68.3421 25.2033Z" fill="black"/>
<path id="Vector_18" d="M68.3113 24.811L68.3664 25.2236L67.9062 25.0495L67.922 25.075C67.916 25.0082 67.8962 24.9381 67.8954 24.8798C67.8911 24.6826 67.8911 24.6827 68.1219 24.7517C68.1822 24.7732 68.2372 24.7862 68.306 24.8025L68.3113 24.811Z" fill="black"/>
<path id="Vector_19" d="M67.2219 23.7324L67.2802 23.7317C67.3761 23.8488 67.4804 23.9606 67.5731 24.0915C67.5941 24.1255 67.5555 24.1963 67.5425 24.2514C67.4875 24.2384 67.4292 24.2391 67.3859 24.2071C67.2317 24.0908 67.1063 23.9449 67.2134 23.7377L67.2219 23.7324Z" fill="black"/>
<path id="Vector_20" d="M69.13 22.0834C69.0767 21.9401 69.0234 21.7967 68.9668 21.6671C68.9102 21.5374 68.9973 21.5072 69.0896 21.4854C69.1512 21.4709 69.2127 21.4563 69.2658 21.4471C69.2713 21.6082 69.3417 21.7411 69.4545 21.8477C69.5621 21.9457 69.5742 22.0794 69.4741 22.1647C69.4315 22.191 69.3004 22.131 69.2178 22.1114C69.1903 22.1049 69.1628 22.0984 69.1267 22.0972L69.13 22.0834Z" fill="black"/>
<path id="Vector_21" d="M71.2105 23.7955C71.2112 23.8538 71.2257 23.9154 71.218 23.9789C71.196 24.1336 71.1024 24.1914 70.9883 24.1208C70.8119 24.0065 70.7533 23.8546 70.7575 23.6522L71.2105 23.7955Z" fill="black"/>
<path id="Vector_22" d="M69.8504 21.9558C69.8504 21.9558 69.9978 21.9471 70.0326 21.9843C70.1737 22.1557 70.2979 22.3376 70.4253 22.5058C70.2236 22.5599 70.0637 22.5293 70.0023 22.2969C69.9648 22.179 69.9102 22.0717 69.8589 21.9506L69.8504 21.9558Z" fill="black"/>
</g>
</g>
<defs>
<clipPath id="clip0_1448_2845">
<rect width="75.93" height="32.49" fill="white" transform="translate(0 39.9087) rotate(-31.7084)"/>
</clipPath>
</defs>
</svg>
