<svg width="210" height="84" viewBox="0 0 210 84" fill="none" xmlns="http://www.w3.org/2000/svg">
<g clip-path="url(#clip0_107_741)">
<path d="M20.0277 2.14258V2.96577H14.338L26.6045 34.8455L39.109 2.96577H33.775V2.14258H45.0944V2.96577H39.9984L23.2872 45.6111H21.5685L5.21315 2.96577H0.234924V2.14258H20.0277Z" fill="black"/>
<path d="M68.7958 2.14258V2.96577H63.344V43.1989H68.7958V44.0221H49.3011V43.1989H54.7529V2.96577H49.3011V2.14258H68.7958Z" fill="black"/>
<path d="M76.1419 2.96572V2.14253H85.0888C86.7475 2.14253 88.3876 2.11272 90.007 2.0554C91.6264 1.99578 93.2665 1.96826 94.9251 1.96826C96.466 1.96826 98.0946 2.12648 99.8133 2.43833C101.532 2.75247 103.103 3.29133 104.524 4.0549C105.947 4.81847 107.12 5.84803 108.049 7.14358C108.977 8.43684 109.442 10.0649 109.442 12.0254C109.442 13.5938 109.086 14.9375 108.374 16.0542C107.663 17.1709 106.746 18.0835 105.619 18.7898C104.491 19.496 103.239 20.0349 101.855 20.4063C100.472 20.7801 99.1087 21.0232 97.7666 21.1424V21.4359C99.7024 21.789 101.43 22.1421 102.953 22.4953C104.473 22.8484 105.787 23.3781 106.894 24.0843C108 24.7906 108.878 25.7697 109.532 27.0263C110.183 28.2828 110.588 29.9682 110.747 32.0846C110.943 34.5542 111.103 36.5354 111.22 38.0258C111.338 39.5163 111.507 40.6719 111.724 41.4951C111.941 42.3183 112.237 42.8686 112.613 43.1415C112.988 43.4167 113.533 43.5543 114.242 43.5543C115.032 43.5543 115.684 43.3295 116.196 42.8778C116.709 42.4284 117.164 42.0065 117.559 41.6121L118.153 42.1418C117.758 42.5339 117.372 42.8962 116.998 43.2309C116.621 43.5657 116.187 43.8478 115.695 44.0839C115.201 44.3201 114.598 44.5036 113.889 44.6434C113.177 44.781 112.288 44.8498 111.223 44.8498C109.049 44.8498 107.351 44.5059 106.127 43.8202C104.902 43.1346 103.995 42.2816 103.401 41.2612C102.807 40.2431 102.442 39.1356 102.304 37.9387C102.165 36.744 102.075 35.6159 102.038 34.5565C101.959 32.9491 101.851 31.3898 101.712 29.881C101.574 28.3722 101.248 27.0285 100.735 25.8522C100.222 24.6759 99.4506 23.7335 98.4249 23.0295C97.3969 22.3233 95.9554 21.9702 94.0981 21.9702H90.1872V43.2034H95.639V44.0266H76.1442V43.2034H81.596V2.96572H76.1442H76.1419ZM92.6151 21.1401C94.3938 21.1401 95.7937 20.9039 96.8217 20.4339C97.8497 19.9638 98.619 19.3263 99.1318 18.5215C99.6446 17.7189 99.9704 16.8063 100.109 15.7859C100.248 14.7678 100.317 13.7268 100.317 12.6697C100.317 10.9454 100.199 9.4641 99.9611 8.22817C99.7232 6.99224 99.3282 5.97415 98.7761 5.1693C98.2216 4.36675 97.4616 3.76827 96.4937 3.37617C95.5258 2.98406 94.2899 2.78687 92.7906 2.78687C92.3563 2.78687 91.922 2.8075 91.4877 2.84648C91.0535 2.88546 90.6192 2.92445 90.1849 2.96343V21.1424H92.6151V21.1401Z" fill="black"/>
<path d="M124.497 43.1988L142.155 0.496094H143.756L162.421 43.1988H167.517V44.022H147.607V43.1988H153.118L146.244 27.4344H132.023L125.446 43.1988H130.72V44.022H119.521V43.1988H124.499H124.497ZM132.318 26.6112H145.948L138.955 10.5532L132.318 26.6112Z" fill="black"/>
<path d="M191.161 2.14258V2.96577H185.709V43.1989H195.488C196.791 43.1989 198.105 42.9833 199.429 42.5523C200.752 42.1212 201.995 41.4058 203.162 40.406C204.326 39.4062 205.375 38.113 206.303 36.5239C207.232 34.9349 207.953 33.0042 208.466 30.7295H209.235V44.0221H171.666V43.1989H177.118V2.96577H171.666V2.14258H191.161Z" fill="black"/>
<path d="M36.6095 83.4963L14.338 59.9907V82.6227H12.6493V55.939L34.9231 79.2703V56.2898H36.6118V83.4963H36.6095Z" fill="black"/>
<path d="M58.2457 73.9619L54.6928 82.6226H52.9695L64.0879 55.416L75.1717 82.6226H73.4484L69.8954 73.9619H58.248H58.2457ZM64.0856 59.6764L58.8787 72.3889H69.2579L64.0856 59.6764Z" fill="black"/>
<path d="M94.6272 82.6225H92.9385V57.8603H86.0776V56.2896H101.488V57.8603H94.6272V82.6225Z" fill="black"/>
<path d="M119.571 82.6225H117.883V56.2896H119.571V82.6225Z" fill="black"/>
<path d="M164.537 69.4562C164.537 76.8604 158.24 82.9735 150.781 82.9735C143.321 82.9735 137.024 76.8604 137.024 69.4562C137.024 62.0521 143.287 55.939 150.781 55.939C158.275 55.939 164.537 62.0498 164.537 69.4562ZM138.71 69.4562C138.71 75.9523 144.165 81.4005 150.778 81.4005C157.392 81.4005 162.846 75.9179 162.846 69.4562C162.846 62.9945 157.357 57.512 150.778 57.512C144.199 57.512 138.71 62.9602 138.71 69.4562Z" fill="black"/>
<path d="M205.95 83.4963L183.679 59.9907V82.6227H181.99V55.939L204.264 79.2703V56.2898H205.952V83.4963H205.95Z" fill="black"/>
</g>
<defs>
<clipPath id="clip0_107_741">
<rect width="209" height="83" fill="white" transform="translate(0.234924 0.496094)"/>
</clipPath>
</defs>
</svg>
