<svg width="349" height="54" viewBox="0 0 349 54" fill="none" xmlns="http://www.w3.org/2000/svg">
<path d="M103.336 15.646H96.0357C95.7357 15.646 95.4357 15.846 95.3357 16.146L88.9357 39.246L82.1357 16.146C82.0357 15.846 81.7357 15.646 81.4357 15.646H74.1357C73.6357 15.646 73.3357 16.146 73.4357 16.546L84.2357 47.446C84.3357 47.746 84.6357 47.946 84.9357 47.946H92.7357C93.0357 47.946 93.3357 47.746 93.4357 47.446L104.036 16.546C104.136 16.046 103.836 15.646 103.336 15.646Z" fill="black"/>
<path d="M127.536 21.946V16.346C127.536 15.946 127.236 15.646 126.836 15.646H119.836C119.436 15.646 119.136 15.946 119.136 16.346V47.246C119.136 47.646 119.436 47.946 119.836 47.946H126.836C127.236 47.946 127.536 47.646 127.536 47.246V31.546C127.536 26.646 131.836 22.846 136.636 23.446H136.736C137.136 23.546 137.536 23.146 137.536 22.746V15.046C137.036 14.946 136.836 14.946 136.536 14.946C132.736 15.046 129.436 17.546 127.536 21.946Z" fill="black"/>
<path d="M177.436 6.046L170.436 7.646C170.136 7.746 169.936 8.046 169.936 8.346V47.146C169.936 47.546 170.236 47.846 170.636 47.846H177.636C178.036 47.846 178.336 47.546 178.336 47.146V6.746C178.336 6.246 178.036 5.946 177.436 6.046Z" fill="black"/>
<path d="M210.036 15.046C205.636 15.046 202.736 16.646 200.336 20.246V16.246C200.336 15.846 200.036 15.546 199.636 15.546H192.636C192.236 15.546 191.936 15.846 191.936 16.246V47.146C191.936 47.546 192.236 47.846 192.636 47.846H199.636C200.036 47.846 200.336 47.546 200.336 47.146V28.546C200.336 24.746 202.936 22.246 207.136 22.246C210.736 22.246 212.536 24.246 212.536 28.046V47.246C212.536 47.646 212.836 47.946 213.236 47.946H220.236C220.636 47.946 220.936 47.646 220.936 47.246V26.246C220.936 19.046 217.036 15.046 210.036 15.046Z" fill="black"/>
<path d="M251.636 24.946C251.636 18.346 247.136 15.046 238.436 15.046C230.036 15.046 225.436 18.446 224.636 25.446C224.636 25.846 224.936 26.246 225.336 26.246H232.036C232.436 26.246 232.636 25.946 232.736 25.646C233.236 22.746 234.736 21.846 238.536 21.846C241.736 21.846 243.336 22.946 243.336 25.046C243.336 26.146 242.836 27.046 241.936 27.546C240.836 28.146 240.836 28.146 236.636 28.846L233.236 29.446C226.836 30.546 223.736 33.846 223.736 39.646C223.736 45.446 227.636 49.346 233.536 49.346C236.736 49.346 239.636 48.146 242.236 45.746C242.636 45.346 243.336 45.646 243.436 46.146C243.536 46.746 243.736 47.146 244.136 47.646C244.236 47.846 244.436 47.946 244.736 47.946H253.436V46.946C252.036 45.546 251.536 44.646 251.536 43.046V24.946H251.636ZM243.436 34.946C243.436 39.746 241.036 42.546 236.836 42.546C234.036 42.546 232.336 41.046 232.336 38.646C232.336 36.146 233.636 34.946 237.136 34.246L240.036 33.746C241.436 33.446 242.036 33.346 242.636 33.146C243.136 32.946 243.636 33.346 243.636 33.846V34.946H243.436Z" fill="black"/>
<path d="M279.936 15.646H272.936C272.536 15.646 272.236 15.946 272.236 16.346V47.246C272.236 47.646 272.536 47.946 272.936 47.946H279.936C280.336 47.946 280.636 47.646 280.636 47.246V16.346C280.736 15.946 280.336 15.646 279.936 15.646Z" fill="black"/>
<path d="M300.136 15.046C290.236 15.046 284.236 21.546 284.236 32.146C284.236 42.846 290.236 49.246 300.236 49.246C310.136 49.246 316.236 42.746 316.236 32.346C316.136 21.446 310.236 15.046 300.136 15.046ZM300.236 42.546C295.736 42.546 292.636 38.446 292.636 32.146C292.636 25.946 295.736 21.746 300.236 21.746C304.836 21.746 307.836 25.846 307.836 32.246C307.836 38.346 304.736 42.546 300.236 42.546Z" fill="black"/>
<path d="M337.736 15.046C333.336 15.046 330.436 16.646 328.036 20.246V16.246C328.036 15.846 327.736 15.546 327.336 15.546H320.336C319.936 15.546 319.636 15.846 319.636 16.246V47.146C319.636 47.546 319.936 47.846 320.336 47.846H327.336C327.736 47.846 328.036 47.546 328.036 47.146V28.546C328.036 24.746 330.636 22.246 334.836 22.246C338.436 22.246 340.236 24.246 340.236 28.046V47.246C340.236 47.646 340.536 47.946 340.936 47.946H347.936C348.336 47.946 348.636 47.646 348.636 47.246V26.246C348.636 19.046 344.736 15.046 337.736 15.046Z" fill="black"/>
<path d="M152.936 15.046C144.536 15.046 139.936 18.446 139.136 25.446C139.136 25.846 139.436 26.246 139.836 26.246H146.536C146.936 26.246 147.136 25.946 147.236 25.646C147.736 22.746 149.236 21.846 153.036 21.846C156.236 21.846 157.836 22.946 157.836 25.046C157.836 26.146 157.336 27.046 156.436 27.546C155.336 28.146 155.336 28.146 151.136 28.846L147.736 29.446C141.336 30.546 138.236 33.846 138.236 39.646C138.236 45.446 142.136 49.346 148.036 49.346C151.236 49.346 154.136 48.146 156.736 45.746C157.136 45.346 157.836 45.646 157.936 46.146C158.036 46.746 158.236 47.146 158.636 47.646C158.736 47.846 158.936 47.946 159.236 47.946H165.336C165.736 47.946 166.036 47.646 166.036 47.246V25.046C166.236 18.446 161.736 15.046 152.936 15.046ZM158.036 34.946C158.036 39.746 155.636 42.546 151.436 42.546C148.636 42.546 146.936 41.046 146.936 38.646C146.936 36.146 148.236 34.946 151.736 34.246L154.636 33.746C156.036 33.446 156.636 33.346 157.236 33.146C157.736 32.946 158.236 33.346 158.236 33.846V34.946H158.036Z" fill="black"/>
<path d="M267.336 21.246C267.736 21.246 267.836 20.946 268.036 20.546L269.736 16.446C269.836 15.946 269.636 15.746 269.036 15.746H264.236V6.746C264.236 6.246 263.836 5.946 263.236 6.046L256.236 7.646C255.936 7.746 255.836 8.046 255.836 8.346V20.546C255.836 20.946 256.136 21.246 256.536 21.246H262.236L256.236 24.846C255.936 25.046 255.736 25.346 255.736 25.746V40.746C255.736 45.846 258.436 48.346 263.936 48.346C265.636 48.346 266.936 48.246 268.236 47.846C268.536 47.746 268.736 47.446 268.736 47.146V42.646C268.736 42.246 268.336 41.846 267.936 41.946C267.536 41.946 267.236 42.046 266.836 42.046C264.636 42.046 264.036 41.346 264.036 38.546V21.246H267.336Z" fill="black"/>
<path d="M114.336 15.646H107.336C106.936 15.646 106.636 15.946 106.636 16.346V47.246C106.636 47.646 106.936 47.946 107.336 47.946H114.336C114.736 47.946 115.036 47.646 115.036 47.246V16.346C115.136 15.946 114.736 15.646 114.336 15.646Z" fill="black"/>
<path d="M114.536 4.646H107.536C107.136 4.646 106.836 4.946 106.836 5.346V11.446C106.836 11.846 107.136 12.146 107.536 12.146H114.536C114.936 12.146 115.236 11.846 115.236 11.446V5.346C115.236 4.946 114.936 4.646 114.536 4.646Z" fill="black"/>
<path d="M280.136 4.646H273.136C272.736 4.646 272.436 4.946 272.436 5.346V11.446C272.436 11.846 272.736 12.146 273.136 12.146H280.136C280.536 12.146 280.836 11.846 280.836 11.446V5.346C280.836 4.946 280.536 4.646 280.136 4.646Z" fill="black"/>
<path d="M67.3357 0.645996H58.9357L34.1357 43.346L22.5357 23.146L17.6357 31.746L29.8357 52.946C30.0357 53.246 30.2357 53.346 30.5357 53.346H37.9357C38.2357 53.346 38.5357 53.146 38.6357 52.946L68.0357 1.946C68.3357 1.346 67.9357 0.645996 67.3357 0.645996Z" fill="black"/>
<path d="M34.1357 35.446L54.3357 0.645996H44.9357C44.6357 0.645996 44.3357 0.845996 44.2357 1.146L34.1357 18.246L24.2357 1.146C24.1357 0.845996 23.8357 0.645996 23.5357 0.645996H1.1357C0.435702 0.645996 0.035702 1.346 0.335702 1.946L15.1357 27.646L22.3357 15.146L34.1357 35.446Z" fill="black"/>
</svg>
