<svg width="902" height="630" viewBox="0 0 902 630" fill="none" xmlns="http://www.w3.org/2000/svg">
<path opacity="0.1" d="M1007 36.3694L970.433 57.6424C967.604 56.6501 963.924 56.7971 961.36 58.0807L905.023 25.5229C907.362 23.9426 907.491 21.6431 905.421 19.9762C905.369 19.9342 905.314 19.8923 905.256 19.8503C905.314 19.8896 905.369 19.9316 905.421 19.9736L939.759 0H936.937L904.055 19.1284C901.147 17.7319 896.907 17.7502 894.051 19.1809L860.862 0H858.04L892.719 20.0445C890.783 21.6851 890.935 23.9032 893.17 25.4599L837.96 57.5767C835.06 56.1829 830.83 56.196 827.974 57.6214L773.36 26.0584C775.962 24.2917 775.812 21.6326 772.917 19.9579C772.909 19.9526 772.899 19.9474 772.888 19.9421L807.168 0H804.346L771.283 19.236C768.483 18.3067 764.906 18.4669 762.393 19.7216C762.338 19.7479 762.288 19.7767 762.236 19.8056C762.288 19.7767 762.338 19.7479 762.393 19.719L728.271 0H725.449L761.059 20.58C759.362 22.008 759.257 23.8822 760.736 25.3706L705.191 57.6817C702.398 56.7551 698.829 56.9152 696.317 58.1595H696.314L640.284 25.7775C642.734 24.1054 642.726 21.6353 640.268 19.9605L674.582 0H671.758L638.789 19.1782C638.847 19.2019 638.902 19.2281 638.96 19.2544C638.902 19.2281 638.844 19.2045 638.787 19.1809C635.923 18.018 632.013 18.1046 629.32 19.4407H629.317L595.68 0H592.855L627.98 20.2991C626.139 21.84 626.155 23.9032 628.022 25.4415L572.692 57.6266C569.831 56.469 565.934 56.553 563.241 57.8812L507.578 25.7092C509.975 24.0607 509.998 21.6484 507.651 19.9762L541.992 0H539.17L506.201 19.1782C504.84 18.5981 503.227 18.3094 501.615 18.3094C499.831 18.3094 498.048 18.6637 496.611 19.3725L463.089 0H460.267L495.268 20.2282C493.38 21.798 493.425 23.9137 495.397 25.4625L440.109 57.6266C438.745 57.0465 437.13 56.7577 435.517 56.7577C433.742 56.7577 431.969 57.1095 430.534 57.813H430.532L375.052 25.7486C377.46 24.087 377.455 21.651 375.052 19.9841C374.979 19.9342 374.903 19.8818 374.824 19.8319C374.903 19.8818 374.982 19.9316 375.055 19.9815L409.406 0H406.584L373.586 19.194C372.239 18.6349 370.652 18.3566 369.071 18.3566C367.295 18.3566 365.523 18.7084 364.088 19.4119L330.501 0H327.674L362.743 20.265C362.772 20.2414 362.798 20.2178 362.829 20.1968C362.798 20.2204 362.772 20.244 362.743 20.2676C360.863 21.8216 360.886 23.9164 362.806 25.4651L307.494 57.6397C306.149 57.0832 304.565 56.805 302.984 56.805C301.214 56.805 299.444 57.1541 298.012 57.8524L243.08 26.1056C245.624 24.3364 245.456 21.7009 242.582 20.0392C242.545 20.0182 242.509 19.9999 242.475 19.9789L276.817 0H273.993L240.846 19.2832C239.679 18.9105 238.384 18.7241 237.091 18.7241C235.318 18.7241 233.551 19.0732 232.119 19.7715L197.907 0H195.083L230.768 20.622C229.048 22.0369 228.906 23.9006 230.338 25.3942L174.754 57.7316H174.751C171.998 56.8496 168.52 57.0097 166.042 58.212L110.002 25.8247C112.419 24.1369 112.37 21.6589 109.857 19.9946L144.227 0H141.413L108.36 19.2281C105.525 18.1125 101.707 18.1991 99.0453 19.4906L65.316 0H62.4917L97.6895 20.3411C95.8197 21.8689 95.8014 23.9242 97.6239 25.4704L42.2678 57.6739C39.4382 56.5609 35.6305 56.6449 32.9661 57.9311L0 38.8789V40.5116L31.6104 58.779C30.6558 59.5534 30.1785 60.4669 30.1785 61.3804C30.1785 62.2939 30.6296 63.1549 31.5291 63.9187L0 82.2596V83.9002L32.8586 64.785C35.5912 66.1631 39.5824 66.2524 42.4645 65.0527L98.6047 97.4977C96.8634 98.9179 96.714 100.787 98.1537 102.288L42.5667 134.626H42.5641C39.8211 133.746 36.3621 133.901 33.8866 135.09H33.884L0 115.508V117.138L32.5256 135.936C30.7712 137.353 30.6165 139.233 32.0588 140.737L0 159.385V161.028L33.2651 141.679C33.2992 141.7 33.3333 141.721 33.37 141.74C36.1051 143.322 40.3613 143.48 43.3849 142.212L98.4159 174.016C96.4884 175.576 96.4937 177.694 98.4316 179.256L43.1201 211.431C40.2905 210.257 36.4146 210.318 33.703 211.612H33.7004L0 192.134V193.764L32.3368 212.452C32.3866 212.41 32.4417 212.37 32.4967 212.331C32.4417 212.373 32.3866 212.412 32.3368 212.454C30.3936 214.014 30.3988 216.137 32.3394 217.702L0 236.515V238.156L33.7057 218.55C35.1427 219.24 36.905 219.584 38.6646 219.584C40.259 219.584 41.8534 219.3 43.2013 218.733H43.204L98.7804 250.853C96.8188 252.428 96.8425 254.578 98.8407 256.145L43.5501 288.309C40.7179 287.104 36.8027 287.151 34.0702 288.451L0 268.761V270.391L32.6987 289.291C30.7292 290.868 30.745 293.021 32.7459 294.593L0 313.64V315.283L34.1279 295.433C34.1279 295.433 34.12 295.428 34.1147 295.425C34.12 295.425 34.1226 295.428 34.1279 295.431C36.8683 296.717 40.7599 296.764 43.5711 295.572L99.3311 327.799C97.3932 329.348 97.3774 331.456 99.276 333.021L43.9487 365.206C42.6139 364.665 41.0562 364.397 39.4985 364.397C37.7677 364.397 36.0396 364.731 34.6235 365.397L0 345.39V347.02L33.252 366.235L33.2494 366.237C31.2983 367.786 31.2773 369.897 33.1812 371.469L0 390.773V392.414L34.5343 372.325C37.2852 373.674 41.266 373.737 44.1218 372.519L100.246 404.956C98.4342 406.395 98.2874 408.321 99.8005 409.844L44.2582 442.155C43.065 441.759 41.7328 441.562 40.4006 441.562C38.6777 441.562 36.9548 441.892 35.5413 442.557L0 422.016V423.646L34.1672 443.394C32.3446 444.832 32.1925 446.764 33.7109 448.29H33.7083L0 467.898V469.542L34.9356 449.219C34.9356 449.219 34.9539 449.232 34.9644 449.237C37.7205 450.828 42.0134 450.975 45.0423 449.678L99.7481 481.291H99.7454C97.6606 482.942 97.7655 485.234 100.055 486.825C100.123 486.874 100.194 486.919 100.265 486.966C100.194 486.922 100.123 486.874 100.052 486.827L44.843 518.941C42.0055 517.579 37.8962 517.566 35.0457 518.897L0 498.645V500.275L33.6663 519.729C33.7135 519.692 33.7633 519.655 33.8132 519.619C33.7633 519.655 33.7135 519.692 33.6663 519.732C31.5658 521.38 31.6654 523.677 33.96 525.273C34.0361 525.326 34.1147 525.381 34.196 525.433C34.1147 525.381 34.0361 525.331 33.96 525.276L0 545.029V546.669L35.4259 526.063C36.7739 526.622 38.3604 526.9 39.9443 526.9C41.5283 526.9 43.1856 526.609 44.5493 526.021L100.973 558.632C99.971 559.419 99.4701 560.353 99.4701 561.291C99.4701 562.104 99.8477 562.918 100.603 563.635L45.1288 595.906C42.3832 594.94 38.8324 595.051 36.2808 596.237L0 575.271V576.904L34.8936 597.069C33.0081 598.542 32.8822 600.532 34.5107 602.08L0 622.243V623.892L35.7721 602.989C37.2774 603.829 39.2206 604.246 41.1585 604.246C42.7844 604.246 44.4129 603.952 45.7765 603.359L91.8756 630H94.7026L47.2084 602.553C49.6 600.81 49.4295 598.272 46.6996 596.636L101.864 564.543C103.367 565.38 105.308 565.8 107.245 565.8C108.869 565.8 110.489 565.506 111.853 564.918L167.235 596.925C165.29 598.453 165.232 600.537 167.06 602.104L119.107 630H121.931L168.384 602.976C171.148 604.383 175.218 604.461 178.113 603.212L224.467 630H227.288L179.548 602.411C179.49 602.453 179.432 602.493 179.372 602.532C179.432 602.493 179.49 602.451 179.548 602.409C181.882 600.718 181.792 598.274 179.291 596.631L234.476 564.527C235.94 565.273 237.77 565.646 239.6 565.646C241.216 565.646 242.831 565.354 244.19 564.771C244.449 564.661 244.696 564.538 244.934 564.406C244.696 564.538 244.449 564.661 244.19 564.774L299.391 596.673C297.335 598.298 297.406 600.545 299.596 602.133C299.632 602.159 299.669 602.188 299.708 602.214C299.669 602.188 299.632 602.162 299.596 602.136L251.692 630H254.517L301.033 602.941C303.768 604.125 307.534 604.131 310.266 602.96L357.055 630H359.877L311.703 602.159C313.924 600.561 313.969 598.282 311.85 596.649L367.125 564.496C367.072 564.472 367.023 564.451 366.973 564.427C367.023 564.448 367.072 564.472 367.125 564.493C369.852 565.677 373.61 565.685 376.343 564.519L432.284 596.849C430.325 598.408 430.309 600.532 432.242 602.101L384.281 630H387.105L433.6 602.952C435.04 603.65 436.812 603.999 438.583 603.999C440.193 603.999 441.8 603.711 443.156 603.133C443.156 603.133 443.156 603.133 443.159 603.133L489.646 630.003H492.47L444.598 602.335C446.917 600.671 446.877 598.269 444.488 596.62L499.692 564.509C499.606 564.467 499.519 564.42 499.435 564.375C499.522 564.42 499.606 564.464 499.695 564.506C502.438 565.837 506.387 565.9 509.233 564.695L565.176 597.027C563.314 598.513 563.225 600.516 564.906 602.06L516.872 630.003H519.693L566.188 602.957C568.937 604.443 573.09 604.561 576.046 603.309L622.237 630.003H625.059L577.491 602.511C579.914 600.784 579.785 598.251 577.113 596.602C577.053 596.565 576.993 596.529 576.93 596.492C576.99 596.529 577.053 596.563 577.113 596.599L632.281 564.509H632.283C635.026 565.992 639.167 566.113 642.122 564.868L697.702 596.988C695.832 598.489 695.766 600.513 697.497 602.06L649.46 630.003H652.284L698.798 602.947C701.543 604.396 705.637 604.503 708.566 603.267L754.828 630.003H757.652L710.016 602.474C712.434 600.757 712.329 598.248 709.712 596.594L764.885 564.498H764.887C767.628 565.945 771.713 566.055 774.643 564.826L830.227 596.951C828.352 598.466 828.305 600.508 830.083 602.06L782.048 630.003H784.87L831.399 602.936H831.402C834.139 604.348 838.183 604.446 841.089 603.228L887.419 630.003H890.243L842.542 602.435C843.709 601.611 844.293 600.603 844.293 599.592C844.293 598.516 843.633 597.445 842.316 596.586L897.497 564.488C898.968 565.246 900.814 565.624 902.657 565.624C904.241 565.624 905.823 565.346 907.165 564.787L962.755 596.914C961.8 597.689 961.323 598.6 961.323 599.513C961.323 600.427 961.774 601.293 962.676 602.057L914.634 630.003H917.458L964.011 602.923C965.472 603.658 967.289 604.026 969.104 604.026C970.688 604.026 972.269 603.745 973.609 603.188L1007 622.482V620.852L975.067 602.398C976.245 601.571 976.832 600.558 976.832 599.542C976.832 598.526 976.192 597.426 974.915 596.578L1007 577.917V576.277L973.418 595.809H973.415C970.588 594.694 966.775 594.78 964.111 596.067C964.05 596.095 963.99 596.127 963.93 596.156C963.99 596.124 964.05 596.095 964.111 596.064L908.623 563.997C911.047 562.296 910.973 559.8 908.408 558.138L963.589 526.039C965.06 526.798 966.909 527.179 968.752 527.179C970.328 527.179 971.904 526.9 973.242 526.347L1007 545.856V544.225L974.703 525.559C977.139 523.858 977.068 521.357 974.501 519.692L1007 500.787V499.144L972.985 518.931C970.161 517.847 966.387 517.947 963.746 519.228L908.259 487.158C909.444 486.331 910.037 485.315 910.037 484.297C910.037 483.205 909.355 482.115 907.997 481.252L963.169 449.158C963.083 449.111 962.996 449.064 962.912 449.014C962.996 449.064 963.083 449.111 963.169 449.156C965.894 450.594 969.948 450.712 972.875 449.508L1007 469.227V467.596L974.341 448.72C976.811 447.006 976.724 444.47 974.089 442.803L1007 423.659V422.019L972.555 442.053C972.615 442.074 972.673 442.097 972.731 442.123C972.673 442.1 972.615 442.079 972.555 442.055C969.733 441 965.996 441.11 963.379 442.386L907.894 410.322C910.386 408.592 910.278 406.03 907.582 404.365L962.75 372.272C964.242 373.078 966.148 373.482 968.052 373.482C969.615 373.482 971.178 373.209 972.508 372.666L1007 392.603V390.97L973.974 371.884C975.177 371.052 975.778 370.028 975.778 369.004C975.778 367.896 975.075 366.786 973.672 365.92C973.635 365.896 973.599 365.875 973.562 365.851C973.599 365.875 973.635 365.896 973.672 365.917L1007 346.529V344.891L972.122 365.177C969.303 364.153 965.603 364.276 963.012 365.547L907.16 333.27C909.575 331.606 909.565 329.159 907.142 327.49L962.348 295.378C965.055 296.688 968.936 296.767 971.768 295.612L1007 315.974V314.341L973.242 294.829C975.668 293.165 975.662 290.713 973.237 289.044C973.2 289.018 973.163 288.994 973.124 288.968C973.163 288.991 973.2 289.015 973.237 289.041L1007 269.401V267.76L971.763 288.257C968.902 287.083 964.984 287.162 962.28 288.495L906.428 256.218C908.762 254.617 908.849 252.286 906.693 250.624L961.966 218.471C964.646 219.631 968.314 219.66 971.031 218.56L1007 239.345V237.715L972.508 217.78C974.855 216.177 974.946 213.843 972.786 212.176L1007 192.273V190.633L971.39 211.347C971.608 211.446 971.818 211.554 972.02 211.672C971.818 211.557 971.608 211.446 971.39 211.347C968.498 210.016 964.357 210.047 961.543 211.444H961.541L906.431 179.595C908.912 177.899 908.873 175.392 906.321 173.712L961.504 141.611C962.967 142.356 964.798 142.726 966.626 142.726C968.17 142.726 969.712 142.461 971.031 141.931L1007 162.718V161.088L972.51 141.157C972.479 141.175 972.447 141.196 972.416 141.217C972.447 141.196 972.479 141.175 972.51 141.154C975.007 139.461 974.967 136.946 972.411 135.266L1007 115.146V113.502L970.905 134.5C968.047 133.387 964.2 133.492 961.543 134.817L906.25 102.861C907.48 102.026 908.096 100.989 908.096 99.9547C908.096 98.826 907.367 97.6946 905.912 96.8231L961.074 64.7325C962.579 65.5699 964.517 65.9873 966.455 65.9873C967.992 65.9873 969.529 65.7247 970.845 65.1971L1007 86.0921V84.4594L972.329 64.4227C973.57 63.5854 974.189 62.5459 974.189 61.5037C974.189 60.3776 973.46 59.2463 972.004 58.3747L1007 38.0179V36.372V36.3694ZM974.545 596.345C974.561 596.355 974.577 596.363 974.592 596.374C974.577 596.366 974.561 596.358 974.545 596.347C974.493 596.316 974.44 596.284 974.385 596.256C974.44 596.284 974.493 596.316 974.545 596.345ZM972.72 212.126C972.581 212.024 972.432 211.921 972.274 211.824C972.432 211.921 972.581 212.021 972.72 212.126ZM971.849 218.169C971.653 218.274 971.451 218.376 971.244 218.468C971.451 218.374 971.653 218.274 971.849 218.169ZM828.546 64.6957C831.205 65.7982 834.792 65.8114 837.465 64.7377L893.948 97.3796C892.215 98.8391 892.142 100.761 893.72 102.265H893.723C893.749 102.291 893.778 102.317 893.807 102.343C893.778 102.317 893.749 102.291 893.723 102.267H893.72L838.249 134.536H838.246C835.43 133.549 831.769 133.689 829.204 134.959L772.865 102.401C772.731 102.49 772.592 102.58 772.442 102.666C772.387 102.698 772.33 102.727 772.272 102.758C772.33 102.727 772.387 102.695 772.442 102.664C772.589 102.577 772.731 102.49 772.865 102.399C775.175 100.821 775.298 98.5294 773.234 96.8704C773.198 96.8389 773.158 96.81 773.119 96.7785C773.161 96.8074 773.198 96.8362 773.237 96.8677L828.546 64.6957ZM894.085 179.185L838.718 211.391C837.412 210.885 835.902 210.63 834.391 210.63C832.608 210.63 830.827 210.984 829.39 211.693L774.089 179.734C776.63 177.991 776.507 175.384 773.725 173.715L828.889 141.624C831.598 143.131 835.716 143.28 838.695 142.075L894.129 174.111C892.312 175.631 892.299 177.655 894.085 179.185ZM894.434 256.108L839.201 288.241C837.79 287.59 836.08 287.264 834.37 287.264C832.66 287.264 830.822 287.616 829.388 288.319L774.273 256.468C776.725 254.775 776.675 252.276 774.131 250.606L829.317 218.505C832.028 219.883 835.996 219.985 838.881 218.809L894.124 250.735H894.122C892.178 252.352 892.283 254.549 894.434 256.108ZM894.895 332.968L839.581 365.148C836.73 363.977 832.831 364.053 830.127 365.374H830.125L774.27 333.091C776.578 331.49 776.657 329.172 774.509 327.516L829.784 295.362C832.474 296.528 836.161 296.551 838.881 295.436C838.97 295.399 839.059 295.362 839.148 295.323C839.059 295.362 838.97 295.402 838.881 295.438L894.856 327.786C892.983 329.34 892.999 331.422 894.898 332.968H894.895ZM895.585 404.835C893.781 406.318 893.712 408.295 895.372 409.82L839.935 442.071C837.129 441.05 833.447 441.168 830.856 442.423L775.002 410.143C777.386 408.479 777.37 406.045 774.957 404.381L830.164 372.27C832.881 373.585 836.78 373.658 839.618 372.49C839.856 372.39 840.087 372.28 840.31 372.165C840.087 372.28 839.856 372.393 839.618 372.49L895.585 404.835ZM895.776 486.714L840.37 518.944C837.559 517.897 833.838 518.002 831.223 519.264L775.739 487.195C778.201 485.467 778.086 482.916 775.398 481.257L830.568 449.164C832.063 449.972 833.966 450.374 835.87 450.374C837.446 450.374 839.02 450.098 840.357 449.544L895.952 481.672C894.116 483.171 894.064 485.176 895.779 486.714H895.776ZM773.845 480.517C771.042 479.498 767.368 479.614 764.78 480.863L708.923 448.581C711.296 446.914 711.275 444.489 708.865 442.83C708.828 442.806 708.792 442.78 708.752 442.753C708.792 442.777 708.828 442.801 708.865 442.827L764.072 410.715C766.794 412.033 770.701 412.107 773.541 410.931L829.503 443.273C827.688 444.756 827.618 446.738 829.283 448.266C829.296 448.279 829.309 448.29 829.322 448.303C829.309 448.292 829.296 448.279 829.283 448.269L773.845 480.517ZM775.29 487.478C775.29 487.478 775.264 487.497 775.248 487.507C775.172 487.552 775.096 487.594 775.018 487.636C775.096 487.594 775.172 487.549 775.248 487.504C775.261 487.497 775.277 487.489 775.29 487.478ZM764.376 487.56C764.344 487.541 764.313 487.525 764.281 487.507C764.255 487.494 764.234 487.478 764.208 487.462C764.234 487.478 764.255 487.491 764.281 487.504L764.376 487.56ZM763.188 486.714L707.751 518.965C704.955 517.947 701.292 518.062 698.703 519.304H698.701L642.841 487.019C644.011 486.195 644.593 485.184 644.593 484.173C644.593 483.163 643.987 482.113 642.773 481.275L697.977 449.164C700.704 450.484 704.625 450.555 707.465 449.371L763.421 481.711C761.596 483.194 761.52 485.181 763.188 486.714ZM641.299 480.49C638.464 479.328 634.594 479.396 631.893 480.693L576.028 448.408C575.973 448.444 575.915 448.484 575.857 448.521C575.915 448.481 575.973 448.444 576.028 448.405C578.296 446.806 578.362 444.504 576.227 442.858L631.502 410.705C632.876 411.298 634.51 411.597 636.143 411.597C637.777 411.597 639.309 411.316 640.651 410.757L696.613 443.097H696.611C694.701 444.651 694.704 446.754 696.618 448.311L641.299 480.49ZM642.421 487.289C642.395 487.308 642.369 487.323 642.34 487.342C642.303 487.363 642.267 487.384 642.227 487.405C642.264 487.384 642.303 487.36 642.34 487.339C642.369 487.323 642.395 487.308 642.421 487.289ZM630.524 486.759L575.207 518.936C575.38 519.01 575.553 519.089 575.721 519.17C575.553 519.089 575.38 519.01 575.204 518.939C572.377 517.776 568.517 517.842 565.816 519.13L509.948 486.846C509.948 486.846 509.92 486.867 509.904 486.874C509.92 486.864 509.933 486.853 509.946 486.843C512.206 485.242 512.264 482.95 510.132 481.307L565.407 449.153C566.781 449.746 568.415 450.046 570.049 450.046C571.682 450.046 573.229 449.762 574.575 449.198L630.531 481.535C630.566 481.509 630.602 481.48 630.639 481.454C630.602 481.483 630.566 481.509 630.531 481.538C628.607 483.092 628.604 485.2 630.524 486.759ZM576.434 525.675C576.371 525.714 576.308 525.751 576.245 525.79C576.222 525.803 576.198 525.816 576.174 525.829C576.198 525.816 576.222 525.801 576.245 525.787C576.308 525.751 576.371 525.714 576.434 525.675ZM565.525 519.277C565.43 519.327 565.336 519.377 565.247 519.432C565.173 519.474 565.1 519.519 565.029 519.561C565.1 519.516 565.173 519.472 565.247 519.43C565.336 519.377 565.43 519.325 565.525 519.277ZM442.983 519.086C442.87 519.031 442.76 518.976 442.645 518.923C439.797 517.611 435.735 517.624 432.923 518.957L377.79 487.098C377.73 487.14 377.667 487.182 377.601 487.224C377.667 487.182 377.73 487.14 377.79 487.095C380.163 485.404 380.09 482.94 377.575 481.288C377.52 481.252 377.462 481.215 377.405 481.181C377.462 481.215 377.52 481.252 377.575 481.286L432.761 449.187C432.706 449.158 432.653 449.132 432.601 449.103C432.653 449.132 432.706 449.159 432.761 449.185C435.504 450.581 439.529 450.67 442.422 449.452H442.424L497.636 481.362C495.617 482.984 495.701 485.213 497.878 486.79L442.645 518.92C442.76 518.973 442.873 519.031 442.983 519.086ZM365.339 486.762L309.972 518.97C307.172 517.878 303.422 517.96 300.77 519.212L245.451 487.239C247.882 485.494 247.725 482.94 244.979 481.291L300.144 449.203C300.123 449.19 300.099 449.177 300.078 449.164C300.099 449.177 300.123 449.19 300.144 449.2C302.892 450.733 307.098 450.865 310.083 449.597H310.085L365.478 481.611C363.569 483.136 363.522 485.205 365.339 486.762ZM178.145 448.342C180.34 446.767 180.421 444.528 178.396 442.895L233.705 410.723C233.676 410.713 233.65 410.7 233.621 410.686C233.65 410.697 233.676 410.707 233.705 410.721C236.417 411.847 240.088 411.839 242.776 410.7H242.779L299.218 443.318C297.38 444.785 297.27 446.757 298.882 448.292L243.408 480.564C240.642 479.593 237.065 479.711 234.51 480.916C234.508 480.916 234.508 480.918 234.508 480.918L178.145 448.342ZM233.968 487.602C233.968 487.602 233.952 487.594 233.944 487.591C233.876 487.552 233.808 487.51 233.739 487.468C233.805 487.507 233.873 487.549 233.944 487.588C233.952 487.594 233.96 487.599 233.968 487.602ZM232.79 486.741L177.313 519.012C176.078 518.579 174.683 518.361 173.288 518.361C171.565 518.361 169.842 518.692 168.431 519.356L112.063 486.78C114.25 485.205 114.326 482.974 112.301 481.344L167.613 449.172C170.332 450.295 174.014 450.287 176.702 449.14L233.136 481.756C231.285 483.226 231.172 485.202 232.79 486.741ZM111.987 404.431C111.987 404.431 111.968 404.421 111.958 404.415L167.12 372.325H167.123C167.123 372.325 167.141 372.338 167.149 372.343C169.895 373.929 174.169 374.081 177.195 372.797C177.274 372.763 177.355 372.729 177.434 372.692C177.355 372.729 177.274 372.766 177.195 372.8L231.909 404.418C229.845 406.066 229.96 408.345 232.239 409.93C232.247 409.936 232.252 409.941 232.26 409.946C232.252 409.941 232.245 409.936 232.239 409.933L177.03 442.047C174.182 440.682 170.055 440.672 167.201 442.016L112.561 410.44C115.024 408.673 114.829 406.074 111.987 404.431ZM111.523 327.54L166.721 295.428H166.724C169.464 296.772 173.422 296.843 176.275 295.638C176.6 295.499 176.915 295.347 177.208 295.176C176.915 295.347 176.6 295.501 176.275 295.638L232.407 328.08C230.619 329.519 230.482 331.432 231.99 332.95L176.445 365.258C173.697 364.347 170.201 364.487 167.697 365.678C167.645 365.704 167.592 365.731 167.542 365.757C167.592 365.728 167.642 365.702 167.694 365.676L111.643 333.283C113.988 331.611 113.946 329.191 111.523 327.54ZM111.093 250.661L166.315 218.539C166.281 218.523 166.247 218.505 166.213 218.487C166.247 218.505 166.281 218.521 166.315 218.536C169.045 219.817 172.916 219.87 175.721 218.691L175.887 218.62C175.832 218.647 175.779 218.67 175.724 218.694L231.492 250.924C229.578 252.472 229.57 254.567 231.463 256.126L176.133 288.312C174.801 287.771 173.241 287.5 171.683 287.5C169.942 287.5 168.198 287.839 166.776 288.519L111.098 256.339C113.419 254.691 113.411 252.312 111.093 250.661ZM110.681 173.772L165.89 141.656H165.893C168.617 142.965 172.522 143.031 175.354 141.852L230.944 173.98C229.009 175.552 229.037 177.689 231.025 179.251L175.737 211.412C175.798 211.438 175.858 211.465 175.918 211.494C175.858 211.465 175.798 211.438 175.737 211.415C172.892 210.207 168.958 210.26 166.223 211.572L110.731 179.5C111.9 178.676 112.482 177.668 112.482 176.657C112.482 175.647 111.882 174.607 110.681 173.772ZM297.023 135.542C295.101 137.114 295.135 139.243 297.12 140.802L241.832 172.966C240.468 172.389 238.856 172.098 237.243 172.098C235.486 172.098 233.729 172.444 232.3 173.132C232.116 173.221 231.938 173.316 231.767 173.415C231.943 173.316 232.116 173.218 232.3 173.132L176.812 141.062C176.66 141.17 176.498 141.275 176.325 141.375C176.498 141.272 176.658 141.17 176.812 141.062C179.178 139.403 179.165 136.983 176.776 135.324C176.624 135.219 176.464 135.117 176.291 135.017C176.464 135.114 176.624 135.219 176.776 135.321L231.985 103.207C233.422 103.897 235.182 104.244 236.944 104.244C238.52 104.244 240.093 103.966 241.431 103.412L297.023 135.542ZM242.22 103.031C242.283 102.997 242.351 102.963 242.414 102.926C242.456 102.903 242.498 102.879 242.54 102.853C242.501 102.879 242.459 102.905 242.417 102.929C242.351 102.966 242.283 102.997 242.22 103.031ZM309.372 135.319L364.594 103.197C367.309 104.467 371.148 104.527 373.951 103.372L429.737 135.613C427.857 137.156 427.862 139.235 429.742 140.784L374.415 172.969H374.413C371.57 171.817 367.702 171.893 365.009 173.2L309.335 141.025C311.695 139.377 311.703 136.98 309.372 135.319ZM430.907 141.54C430.97 141.574 431.03 141.608 431.096 141.64C433.812 142.973 437.73 143.052 440.578 141.879C440.578 141.879 440.578 141.879 440.578 141.876L496.732 174.331C494.988 175.762 494.864 177.657 496.359 179.159L440.817 211.473V211.47C438.048 210.551 434.515 210.701 432.006 211.919L375.962 179.529C378.359 177.859 378.333 175.416 375.894 173.751L431.096 141.642C431.03 141.611 430.97 141.574 430.907 141.54ZM497.041 103.115C497.088 103.141 497.138 103.168 497.188 103.191C499.902 104.522 503.809 104.604 506.655 103.438C506.655 103.438 506.655 103.438 506.657 103.438L562.816 135.896C561.885 136.665 561.421 137.566 561.421 138.466C561.421 139.243 561.767 140.02 562.457 140.716H562.454L506.912 173.027C505.719 172.63 504.386 172.434 503.054 172.434C501.284 172.434 499.514 172.783 498.082 173.481L442.044 141.094C443.24 140.264 443.838 139.246 443.838 138.222C443.838 137.198 443.222 136.146 441.989 135.306L497.188 103.197C497.138 103.17 497.088 103.144 497.041 103.118V103.115ZM694.89 140.8L639.681 172.919C638.244 172.229 636.482 171.885 634.725 171.885C632.968 171.885 631.177 172.237 629.742 172.94H629.739L575.12 141.375C575.055 141.419 574.992 141.461 574.924 141.503C574.992 141.461 575.057 141.417 575.12 141.372C577.682 139.608 577.517 136.965 574.638 135.3C574.627 135.295 574.619 135.29 574.609 135.285L629.774 103.197C629.774 103.197 629.792 103.207 629.8 103.212C632.511 104.779 636.712 104.945 639.728 103.716L694.476 135.355C692.501 136.996 692.64 139.235 694.89 140.8ZM707.142 135.316L762.451 103.142C765.118 104.249 768.713 104.26 771.388 103.178L827.867 135.818C826.951 136.581 826.495 137.474 826.495 138.369C826.495 139.183 826.873 139.996 827.628 140.713L772.154 172.985C770.921 172.552 769.526 172.337 768.134 172.337C766.348 172.337 764.567 172.691 763.128 173.4L706.785 140.837C709.083 139.256 709.198 136.975 707.142 135.316ZM828.916 211.948C828.591 212.137 828.302 212.339 828.048 212.549C826.217 214.069 826.201 216.098 827.99 217.633L772.626 249.84H772.623C769.783 248.732 765.968 248.832 763.311 250.134L708.01 218.174C707.942 218.221 707.874 218.266 707.8 218.311C707.871 218.266 707.942 218.219 708.01 218.172C710.541 216.429 710.41 213.83 707.63 212.163C707.604 212.145 707.575 212.129 707.549 212.113C707.575 212.129 707.601 212.145 707.63 212.16L762.795 180.072C765.509 181.582 769.639 181.729 772.618 180.516L828.048 212.549C828.302 212.336 828.591 212.137 828.916 211.945C828.942 211.929 828.971 211.916 828.997 211.903C828.968 211.916 828.942 211.932 828.916 211.948ZM829.013 218.34C828.992 218.329 828.971 218.316 828.95 218.305C828.908 218.279 828.866 218.256 828.824 218.229C828.866 218.256 828.908 218.279 828.95 218.303C828.971 218.316 828.992 218.326 829.013 218.34ZM828.344 294.554L773.111 326.686C771.698 326.038 769.988 325.713 768.281 325.713C766.573 325.713 764.743 326.062 763.311 326.76L708.191 294.906C710.633 293.212 710.577 290.719 708.039 289.052L763.225 256.951C764.688 257.694 766.518 258.066 768.346 258.066C769.912 258.066 771.472 257.793 772.804 257.25L828.042 289.173C826.086 290.79 826.188 292.992 828.344 294.554ZM828.8 371.417L773.486 403.596H773.484C770.638 402.428 766.749 402.502 764.046 403.812L708.188 371.529C710.483 369.928 710.556 367.618 708.411 365.964L763.686 333.808C766.382 334.976 770.08 335 772.802 333.876C772.872 333.848 772.941 333.819 773.009 333.79C772.941 333.821 772.872 333.85 772.802 333.879L828.774 366.224C826.886 367.776 826.896 369.865 828.8 371.417ZM762.711 409.862L707.394 442.042C704.554 440.877 700.673 440.947 697.969 442.252L642.107 409.97C642.049 410.009 641.989 410.051 641.926 410.091C641.989 410.051 642.049 410.009 642.107 409.967C644.391 408.369 644.462 406.061 642.322 404.41L697.594 372.256H697.597C700.295 373.427 704.003 373.448 706.728 372.317L762.692 404.659C762.734 404.628 762.779 404.594 762.823 404.56C762.779 404.594 762.734 404.628 762.692 404.662C760.794 406.213 760.802 408.308 762.711 409.862ZM640.927 403.581C638.063 402.26 633.972 402.281 631.158 403.638H631.156L576.035 371.781C578.448 370.088 578.385 367.608 575.857 365.946L631.043 333.845C633.77 335.231 637.767 335.328 640.654 334.131L695.882 366.048C694.935 366.823 694.463 367.728 694.463 368.637C694.463 369.631 695.029 370.626 696.159 371.448L640.929 403.581H640.927ZM641.588 403.922C641.391 403.809 641.184 403.704 640.971 403.604C641.184 403.701 641.391 403.809 641.588 403.922ZM575.081 442.15C575 442.108 574.916 442.068 574.829 442.029C571.971 440.711 567.89 440.73 565.079 442.079H565.076L509.951 410.219C512.351 408.526 512.285 406.053 509.76 404.394L564.945 372.293C564.93 372.285 564.911 372.275 564.896 372.264C564.911 372.272 564.927 372.283 564.945 372.291C567.678 373.682 571.685 373.774 574.575 372.571L629.797 404.486C627.804 406.106 627.896 408.324 630.065 409.896L574.832 442.026C574.916 442.066 575 442.105 575.081 442.15ZM497.524 409.867L442.16 442.076H442.157C439.343 440.979 435.577 441.066 432.926 442.331L377.609 410.364C378.771 409.542 379.351 408.537 379.351 407.529C379.351 406.4 378.621 405.274 377.166 404.397L432.328 372.309C432.312 372.298 432.297 372.288 432.281 372.28C432.297 372.288 432.312 372.298 432.331 372.306C435.069 373.832 439.251 373.968 442.236 372.718L497.642 404.736C495.753 406.261 495.717 408.319 497.524 409.867ZM377.562 410.395C377.441 410.482 377.318 410.563 377.184 410.639C377.316 410.56 377.441 410.479 377.562 410.395ZM364.977 409.844L309.5 442.116C306.731 441.144 303.141 441.262 300.587 442.478L244.226 409.902C246.437 408.327 246.524 406.082 244.494 404.449L299.803 372.275C302.509 373.396 306.17 373.393 308.855 372.259L365.3 404.88C363.472 406.347 363.37 408.314 364.98 409.844H364.977ZM243.219 403.649C243.188 403.63 243.154 403.615 243.122 403.602C240.269 402.231 236.131 402.223 233.278 403.578L178.643 372.002C181.121 370.235 180.932 367.629 178.084 365.983C178.074 365.977 178.066 365.972 178.055 365.967L233.218 333.879C233.218 333.879 233.238 333.889 233.246 333.895C235.989 335.478 240.251 335.632 243.274 334.357C243.356 334.323 243.437 334.288 243.516 334.252C243.434 334.288 243.356 334.325 243.274 334.359L297.991 365.98C295.94 367.629 296.061 369.899 298.337 371.485L243.128 403.599C243.159 403.615 243.19 403.63 243.222 403.649H243.219ZM232.777 403.84C232.748 403.854 232.722 403.869 232.696 403.885C232.677 403.893 232.659 403.903 232.643 403.914C232.659 403.903 232.675 403.893 232.693 403.882C232.722 403.867 232.748 403.854 232.777 403.84ZM177.615 289.094C177.51 289.023 177.395 288.952 177.282 288.884C177.395 288.952 177.51 289.02 177.615 289.094L232.814 256.982C234.259 257.691 236.042 258.045 237.822 258.045C239.414 258.045 241.006 257.762 242.351 257.197L298.489 289.642C296.714 291.078 296.577 292.989 298.08 294.501C298.153 294.575 298.229 294.646 298.308 294.714C298.229 294.646 298.153 294.575 298.08 294.504L242.538 326.812H242.535C239.781 325.899 236.28 326.041 233.773 327.238L177.722 294.845C180.083 293.173 180.041 290.748 177.615 289.094ZM177.187 212.215L232.41 180.091C235.134 181.366 238.992 181.422 241.798 180.253L297.571 212.486C295.67 214.032 295.667 216.121 297.553 217.678L242.225 249.863C240.893 249.322 239.333 249.052 237.775 249.052C236.026 249.052 234.277 249.396 232.853 250.078L177.174 217.901C179.506 216.255 179.508 213.869 177.185 212.215H177.187ZM364.883 180.025C364.922 180.046 364.964 180.064 365.003 180.085C367.728 181.422 371.654 181.5 374.504 180.319L430.652 212.769C428.898 214.203 428.772 216.1 430.27 217.607L374.727 249.918H374.725C371.961 249 368.436 249.147 365.929 250.357L309.883 217.967C312.267 216.297 312.238 213.859 309.805 212.197L365.003 180.088C364.964 180.067 364.922 180.046 364.883 180.025ZM431.497 218.536C431.497 218.536 431.515 218.547 431.523 218.552C434.25 220.127 438.48 220.29 441.499 219.038H441.501L496.233 250.666C494.219 252.312 494.35 254.567 496.614 256.14L441.404 288.259C439.97 287.569 438.208 287.225 436.451 287.225C434.694 287.225 432.937 287.569 431.51 288.259L376.883 256.688C379.403 254.922 379.227 252.297 376.364 250.64C376.353 250.635 376.345 250.63 376.335 250.624L431.497 218.536ZM430.673 217.972C430.867 218.13 431.083 218.279 431.316 218.429C431.083 218.282 430.867 218.13 430.673 217.972ZM497.505 180.041C497.531 180.057 497.56 180.072 497.586 180.088C497.597 180.096 497.605 180.101 497.615 180.106C500.335 181.679 504.557 181.842 507.575 180.597L562.31 212.231C560.312 213.877 560.445 216.124 562.703 217.696L507.491 249.811C507.583 249.858 507.675 249.903 507.764 249.95C507.675 249.903 507.583 249.858 507.491 249.813C504.617 248.433 500.44 248.435 497.584 249.819L442.959 218.25C442.883 218.3 442.807 218.353 442.729 218.403C442.807 218.353 442.883 218.3 442.957 218.248C445.49 216.484 445.317 213.853 442.451 212.194C442.44 212.189 442.43 212.184 442.422 212.179L497.584 180.091C497.555 180.075 497.529 180.057 497.503 180.041H497.505ZM564.169 218.484H564.172C566.854 219.597 570.481 219.602 573.159 218.5L629.621 251.131C627.844 252.593 627.752 254.538 629.349 256.056C629.467 256.168 629.595 256.281 629.734 256.389C629.595 256.281 629.467 256.171 629.349 256.058L573.872 288.327C571.079 287.348 567.455 287.477 564.896 288.718L508.543 256.153C510.803 254.575 510.908 252.307 508.863 250.659L564.169 218.484ZM562.929 211.788C563.005 211.74 563.081 211.693 563.159 211.646C563.212 211.614 563.264 211.585 563.319 211.559C563.264 211.588 563.212 211.617 563.159 211.648C563.081 211.696 563.005 211.74 562.929 211.788ZM574.037 211.596C574.069 211.612 574.098 211.628 574.126 211.646C574.205 211.69 574.278 211.738 574.352 211.782C574.278 211.738 574.202 211.693 574.126 211.648C574.098 211.63 574.069 211.612 574.037 211.596ZM574.958 212.213L630.264 180.036C632.944 181.146 636.558 181.154 639.235 180.059L695.703 212.693C693.936 214.155 693.852 216.095 695.444 217.607C695.467 217.631 695.491 217.654 695.517 217.678C695.491 217.654 695.467 217.633 695.444 217.61L639.967 249.879C638.734 249.446 637.339 249.231 635.947 249.231C634.174 249.231 632.404 249.58 630.972 250.278L574.625 217.712C576.898 216.135 577.006 213.867 574.958 212.213ZM629.233 179.524C629.252 179.534 629.27 179.547 629.291 179.558C629.328 179.581 629.365 179.602 629.404 179.624C629.365 179.602 629.328 179.581 629.288 179.56C629.27 179.547 629.252 179.534 629.233 179.524ZM640.053 179.671C640.122 179.634 640.19 179.597 640.258 179.558C640.297 179.537 640.337 179.513 640.373 179.49C640.337 179.513 640.297 179.537 640.258 179.56L640.053 179.671ZM761.9 256.079L706.534 288.285C705.228 287.776 703.72 287.524 702.209 287.524C700.439 287.524 698.669 287.873 697.235 288.574L641.931 256.612C644.446 254.866 644.312 252.273 641.538 250.609C641.517 250.596 641.493 250.582 641.472 250.569C641.496 250.582 641.517 250.596 641.54 250.606L696.705 218.518C698.208 219.355 700.148 219.773 702.086 219.773C703.649 219.773 705.212 219.502 706.542 218.956L761.966 250.987C760.128 252.507 760.107 254.541 761.9 256.079ZM762.249 333.002L707.016 365.132C707.129 365.185 707.244 365.242 707.355 365.298C707.244 365.242 707.129 365.187 707.016 365.135C704.147 363.812 700.046 363.835 697.232 365.198L642.112 333.343C641.968 333.443 641.816 333.543 641.653 333.635C641.813 333.54 641.968 333.443 642.112 333.343C644.538 331.65 644.477 329.164 641.947 327.5L697.132 295.399C699.854 296.782 703.841 296.88 706.728 295.69L761.958 327.611C759.991 329.233 760.091 331.438 762.249 333.002ZM629.713 332.973L574.347 365.18C573.043 364.673 571.533 364.418 570.025 364.418C568.265 364.418 566.508 364.762 565.079 365.452L509.77 333.488C512.259 331.742 512.117 329.159 509.353 327.503C509.337 327.492 509.319 327.482 509.301 327.471C509.319 327.482 509.337 327.492 509.353 327.5L564.518 295.412C567.248 296.932 571.407 297.074 574.389 295.837L629.802 327.862C627.94 329.385 627.912 331.43 629.713 332.973ZM497.164 332.95C497.243 333.026 497.327 333.102 497.416 333.175C497.327 333.102 497.243 333.029 497.164 332.952L441.688 365.221C438.905 364.245 435.299 364.371 432.74 365.597L376.385 333.026C378.619 331.451 378.713 329.196 376.676 327.553L431.985 295.378C434.68 296.496 438.326 296.496 441.006 295.378H441.008L497.461 328.004C496.506 328.781 496.029 329.692 496.029 330.606C496.029 331.419 496.409 332.233 497.164 332.95ZM244.171 327.537C244.171 327.537 244.153 327.526 244.142 327.521C243.799 327.324 243.432 327.151 243.044 326.996C243.432 327.146 243.799 327.322 244.145 327.519L299.307 295.433C299.215 295.381 299.126 295.323 299.042 295.268C299.126 295.323 299.215 295.378 299.307 295.431C299.318 295.436 299.326 295.444 299.336 295.449C302.071 297.029 306.322 297.184 309.346 295.919L364.07 327.542C363.107 328.319 362.628 329.235 362.628 330.154C362.628 331.178 363.228 332.202 364.424 333.036L309.215 365.153C306.356 363.783 302.21 363.775 299.354 365.137L244.719 333.564C247.213 331.795 247.024 329.185 244.171 327.537ZM364.332 327.351C364.503 327.225 364.681 327.104 364.88 326.988C364.969 326.939 365.058 326.889 365.15 326.839C365.058 326.889 364.969 326.939 364.88 326.991C364.683 327.104 364.503 327.227 364.332 327.351ZM310.801 295.126C311.971 294.302 312.553 293.291 312.553 292.281C312.553 291.126 311.79 289.971 310.266 289.089C310.258 289.083 310.248 289.078 310.237 289.073L365.402 256.985C365.221 256.88 365.048 256.77 364.888 256.654C365.048 256.767 365.218 256.877 365.402 256.982C365.41 256.99 365.42 256.995 365.431 257.001C368.161 258.578 372.401 258.736 375.422 257.478L430.152 289.107C428.127 290.75 428.253 293.013 430.519 294.591L375.307 326.705C372.443 325.332 368.287 325.329 365.431 326.697L310.801 295.126ZM430.894 288.592C430.92 288.574 430.946 288.556 430.975 288.54C431.043 288.501 431.117 288.466 431.185 288.43C431.114 288.469 431.043 288.503 430.975 288.543C430.946 288.558 430.92 288.577 430.894 288.592ZM441.806 288.469C441.853 288.493 441.897 288.514 441.942 288.54C442.018 288.585 442.094 288.632 442.167 288.676C442.094 288.632 442.018 288.587 441.942 288.543C441.897 288.516 441.853 288.493 441.806 288.469ZM442.464 294.591C444.714 293.013 444.813 290.75 442.771 289.107L498.079 256.932C500.77 258.048 504.402 258.051 507.082 256.94C507.085 256.94 507.085 256.94 507.087 256.94L563.542 289.569C561.749 291.034 561.657 292.984 563.257 294.504C563.304 294.549 563.354 294.593 563.403 294.638C563.354 294.596 563.304 294.551 563.257 294.507L507.782 326.776C506.55 326.343 505.155 326.127 503.762 326.127C502.003 326.127 500.246 326.471 498.819 327.162L442.464 294.593V294.591ZM496.855 250.223C496.923 250.178 496.994 250.136 497.065 250.094C497.101 250.073 497.138 250.055 497.175 250.036C497.138 250.057 497.101 250.076 497.065 250.097C496.994 250.136 496.923 250.178 496.855 250.223ZM507.9 250.023C507.945 250.047 507.99 250.071 508.031 250.094C508.047 250.105 508.063 250.113 508.076 250.123C508.063 250.115 508.047 250.105 508.031 250.097C507.99 250.073 507.945 250.047 507.9 250.023ZM575.852 295.05C578.351 293.302 578.215 290.716 575.445 289.055L630.61 256.966C633.335 258.481 637.486 258.625 640.465 257.397L695.882 289.425C694.03 290.944 694.004 292.987 695.803 294.528L640.436 326.734C639.133 326.224 637.622 325.973 636.112 325.973C634.35 325.973 632.585 326.319 631.156 327.012L575.852 295.05ZM696.542 288.963C696.605 288.921 696.663 288.879 696.731 288.842C696.663 288.881 696.605 288.921 696.542 288.963ZM364.571 251.205C362.806 252.64 362.675 254.544 364.175 256.053H364.177L308.632 288.364C308.887 288.448 309.133 288.545 309.375 288.648C309.133 288.545 308.887 288.451 308.632 288.364C305.874 287.451 302.357 287.595 299.853 288.797L243.807 256.405L243.804 256.407C243.796 256.407 243.791 256.415 243.783 256.418C243.791 256.415 243.799 256.41 243.804 256.405H243.807C246.172 254.733 246.141 252.302 243.71 250.645L298.911 218.536C301.641 219.873 305.575 219.946 308.425 218.757L364.571 251.205ZM310.305 371.464C312.527 369.889 312.616 367.642 310.583 366.001L365.89 333.826H365.892C368.593 334.947 372.246 334.945 374.932 333.819L431.379 366.442C429.564 367.909 429.462 369.87 431.069 371.398L375.593 403.67C372.816 402.696 369.22 402.817 366.663 404.037L310.305 371.464ZM443.688 371.926C444.858 371.101 445.443 370.091 445.443 369.08C445.443 367.951 444.714 366.823 443.258 365.951L498.426 333.861C501.158 335.38 505.33 335.52 508.312 334.278L563.723 366.3C561.848 367.823 561.814 369.873 563.618 371.422L508.254 403.628C505.435 402.531 501.656 402.62 499.005 403.89L443.691 371.926H443.688ZM773.824 256.751C773.982 256.657 774.129 256.565 774.27 256.468C774.129 256.565 773.982 256.659 773.824 256.751ZM761.785 174.255C760.028 175.717 759.944 177.652 761.536 179.161C761.615 179.238 761.696 179.311 761.785 179.387C761.698 179.314 761.612 179.24 761.533 179.164L706.059 211.433C704.827 211 703.429 210.785 702.036 210.785C700.258 210.785 698.486 211.137 697.051 211.84H697.049L640.704 179.274C642.99 177.697 643.103 175.421 641.047 173.764L696.356 141.59C697.704 142.149 699.288 142.43 700.872 142.43C702.456 142.43 703.985 142.16 705.312 141.619L761.782 174.255H761.785ZM628.394 173.793C626.409 175.437 626.545 177.678 628.798 179.245L573.591 211.365H573.589C570.709 209.982 566.521 209.987 563.666 211.378H563.663L509.041 179.812C509.007 179.836 508.97 179.86 508.931 179.886C508.968 179.86 509.004 179.833 509.041 179.81C511.587 178.046 511.42 175.408 508.545 173.746C508.538 173.741 508.53 173.736 508.519 173.73L563.681 141.642C563.681 141.642 563.7 141.653 563.71 141.658C566.424 143.228 570.633 143.393 573.652 142.157L628.394 173.793ZM363.655 174.051C362.709 174.822 362.237 175.731 362.237 176.639C362.237 177.547 362.709 178.455 363.65 179.23L308.32 211.415C305.483 210.265 301.623 210.341 298.932 211.638L243.256 179.463C245.603 177.817 245.608 175.423 243.28 173.764L298.502 141.642C301.221 142.918 305.071 142.973 307.875 141.813L363.655 174.051ZM311.53 448.801C313.977 447.056 313.822 444.494 311.074 442.845C311.074 442.845 311.073 442.844 311.071 442.843L366.239 410.755C368.984 412.283 373.175 412.416 376.162 411.156C376.206 411.138 376.251 411.12 376.293 411.099C376.248 411.12 376.206 411.141 376.162 411.159L431.56 443.173C429.661 444.699 429.619 446.762 431.434 448.316L376.067 480.522C373.259 479.43 369.498 479.511 366.847 480.771L311.53 448.801ZM443.872 448.657C446.258 446.964 446.185 444.496 443.665 442.843C443.589 442.793 443.507 442.743 443.426 442.696C443.507 442.743 443.589 442.79 443.665 442.84L498.85 410.742C498.767 410.7 498.688 410.652 498.609 410.608C498.69 410.652 498.769 410.697 498.85 410.739C501.588 412.133 505.606 412.222 508.498 411.012L563.718 442.924C561.709 444.544 561.796 446.77 563.97 448.345L508.737 480.475H508.734C505.881 479.162 501.814 479.175 499 480.519L443.872 448.657ZM708.435 448.893C708.605 448.791 708.768 448.689 708.92 448.581C708.768 448.689 708.605 448.794 708.435 448.893ZM839.261 288.27C839.468 288.367 839.67 288.469 839.864 288.582C839.67 288.472 839.468 288.367 839.261 288.27ZM761.961 26.2999C761.961 26.2999 761.979 26.3104 761.99 26.3156C764.688 27.8749 768.865 28.0481 771.881 26.8354L826.639 58.4824C824.691 60.1204 824.84 62.3464 827.077 63.9056L771.868 96.0225C768.973 94.6312 764.751 94.6444 761.895 96.0592L707.281 64.4962C709.867 62.7296 709.715 60.0757 706.827 58.4062C706.817 58.3984 706.806 58.3931 706.799 58.3879L761.961 26.2999ZM705.805 65.2759L760.558 96.9202C758.596 98.5609 758.74 100.792 760.985 102.354L705.776 134.471H705.773C702.883 133.082 698.674 133.093 695.819 134.5L641.199 102.937C641.079 103.021 640.948 103.102 640.811 103.181C640.945 103.099 641.076 103.018 641.199 102.934C643.772 101.167 643.615 98.5189 640.733 96.852C640.722 96.8467 640.712 96.8415 640.704 96.8362L695.866 64.7482C695.866 64.7482 695.887 64.7588 695.895 64.764C698.601 66.3259 702.789 66.4965 705.805 65.2759ZM695.858 58.4036C695.903 58.38 695.945 58.3564 695.989 58.3354C695.945 58.3564 695.903 58.38 695.861 58.4062C695.779 58.4535 695.698 58.5007 695.619 58.5506C695.695 58.5007 695.777 58.4535 695.858 58.4036ZM639.862 26.0426C639.935 25.998 640.006 25.956 640.077 25.9114C640.006 25.956 639.935 26.0032 639.862 26.0452C639.833 26.061 639.802 26.0767 639.773 26.0925C639.802 26.0767 639.833 26.061 639.862 26.0426ZM629.375 26.2972C632.076 27.6229 635.962 27.7095 638.808 26.5571L694.977 59.0179C693.27 60.4459 693.157 62.3254 694.641 63.8164L639.096 96.1301C637.903 95.7337 636.571 95.5369 635.239 95.5369C633.455 95.5369 631.675 95.8912 630.238 96.6L574.202 64.2154C576.639 62.5432 576.628 60.081 574.174 58.4089L629.375 26.2972ZM563.28 64.7456C565.989 66.0739 569.886 66.1579 572.731 64.9976L628.895 97.4557C627.175 98.8864 627.059 100.768 628.546 102.265L573.004 134.578C573.004 134.578 573.003 134.578 573.001 134.576C570.222 133.654 566.671 133.807 564.161 135.038H564.159L508.123 102.653C509.327 101.824 509.93 100.8 509.93 99.7736C509.93 98.7472 509.314 97.6973 508.081 96.8572L563.28 64.7482C563.196 64.7062 563.118 64.6642 563.039 64.6222C563.118 64.6642 563.199 64.7062 563.28 64.7456ZM562.601 64.3729C562.407 64.2495 562.226 64.1209 562.058 63.9896C562.226 64.1182 562.407 64.2469 562.601 64.3729ZM507.489 25.7644C507.376 25.8405 507.263 25.914 507.14 25.9849C507.263 25.914 507.376 25.8379 507.489 25.7644ZM441.559 58.4246L496.779 26.2999H496.781C499.482 27.5677 503.303 27.6307 506.104 26.4915L561.898 58.737C560.044 60.2779 560.055 62.349 561.927 63.8899L506.6 96.075C503.744 94.9174 499.857 94.9987 497.164 96.3191L441.499 64.1471C443.882 62.5012 443.898 60.0941 441.559 58.4246ZM430.689 64.7482C433.395 66.0161 437.224 66.0791 440.027 64.932L495.819 97.1749C494.888 97.9414 494.424 98.8444 494.424 99.7448C494.424 100.645 494.896 101.561 495.837 102.336L440.507 134.521C440.521 134.526 440.534 134.531 440.547 134.539C440.534 134.531 440.521 134.526 440.507 134.523C437.66 133.368 433.778 133.447 431.088 134.76L375.414 102.588L375.417 102.585C377.79 100.939 377.803 98.5346 375.467 96.8704L430.689 64.7482ZM308.963 58.4299C308.963 58.4299 308.96 58.4299 308.96 58.4272L364.169 26.313H364.172C366.881 27.615 370.754 27.6885 373.581 26.5309L429.187 58.6661C428.256 59.4352 427.791 60.3356 427.791 61.236C427.791 62.1364 428.298 63.1155 429.305 63.9082L374.017 96.0724C372.653 95.4922 371.04 95.2035 369.427 95.2035C367.657 95.2035 365.887 95.5526 364.455 96.2509L308.971 64.1865C308.837 64.281 308.693 64.3702 308.541 64.4595C308.693 64.3702 308.837 64.2784 308.971 64.1865C311.365 62.5249 311.36 60.0941 308.963 58.4299ZM298.077 64.7614C300.794 66.066 304.678 66.1369 307.507 64.9714L363.105 97.104C361.196 98.6764 361.232 100.803 363.212 102.357L307.924 134.521H307.922C305.069 133.308 301.114 133.366 298.379 134.691H298.376L242.892 102.622C245.27 100.963 245.26 98.5372 242.868 96.8756C242.792 96.8231 242.713 96.7706 242.632 96.7181C242.713 96.7706 242.792 96.8231 242.868 96.873L298.077 64.7587V64.7614ZM176.38 58.4246L231.544 26.3366C231.579 26.3576 231.615 26.3786 231.649 26.3996C234.371 27.9694 238.593 28.1347 241.614 26.8905L296.661 58.7029C295.722 59.4746 295.253 60.3802 295.253 61.2859C295.253 62.1915 295.741 63.1312 296.711 63.9135L241.402 96.0881H241.399C238.551 94.9095 234.644 94.9777 231.933 96.2929L176.999 64.5435C179.529 62.7769 179.356 60.1466 176.487 58.4876C176.451 58.4666 176.414 58.4456 176.38 58.4272C176.304 58.3852 176.225 58.3433 176.144 58.3013C176.225 58.3406 176.304 58.3826 176.38 58.4246ZM165.56 64.8454C168.284 66.4204 172.517 66.5831 175.538 65.331L230.579 97.1407C228.673 98.6974 228.691 100.805 230.619 102.359L175.31 134.534C173.964 133.977 172.381 133.699 170.799 133.699C169.04 133.699 167.283 134.043 165.856 134.731L110.919 102.981C112.097 102.154 112.684 101.141 112.684 100.128C112.684 98.973 111.921 97.8154 110.395 96.9334C110.361 96.9124 110.324 96.8914 110.287 96.873C110.18 96.8126 110.07 96.7549 109.96 96.6997C110.072 96.7549 110.183 96.81 110.287 96.8704L165.452 64.7824C165.489 64.8034 165.523 64.8244 165.56 64.8454ZM43.9225 64.2626C46.3299 62.5747 46.2748 60.102 43.7652 58.4404L98.9535 26.3366C100.414 27.0742 102.237 27.4444 104.057 27.4444C105.633 27.4444 107.206 27.1661 108.541 26.6122L164.686 59.0599C163.742 59.8316 163.27 60.7399 163.27 61.6481C163.27 62.4041 163.596 63.1601 164.249 63.84L108.659 96.1774C107.495 95.8046 106.199 95.6182 104.904 95.6182C103.147 95.6182 101.39 95.9621 99.9631 96.6499L43.9225 64.2626ZM44.8377 141.419C47.3421 139.653 47.1612 137.033 44.3001 135.382C44.266 135.361 44.2293 135.34 44.1926 135.321C44.03 135.229 43.8648 135.145 43.6944 135.067C43.8648 135.145 44.03 135.229 44.1926 135.319L99.3573 103.231C99.394 103.252 99.4281 103.273 99.4649 103.294C102.195 104.871 106.44 105.031 109.461 103.771L164.498 135.579C162.581 137.138 162.594 139.246 164.524 140.808L109.218 172.982C106.38 171.809 102.494 171.869 99.7822 173.171L44.8403 141.419H44.8377ZM110.345 179.752C110.306 179.776 110.269 179.799 110.23 179.823C110.193 179.844 110.156 179.865 110.117 179.886C110.156 179.865 110.193 179.844 110.23 179.82C110.269 179.799 110.306 179.776 110.345 179.752ZM44.1375 218.271C44.0641 218.313 43.9881 218.355 43.912 218.395C43.9881 218.353 44.0615 218.311 44.1349 218.269C44.1716 218.248 44.211 218.227 44.2477 218.203C44.2136 218.227 44.1769 218.248 44.1375 218.271ZM44.6515 217.938C46.9933 216.279 46.9671 213.872 44.5886 212.221L99.7979 180.106C99.6169 180.017 99.4386 179.923 99.2655 179.826C99.2419 179.81 99.221 179.794 99.1974 179.781C99.221 179.794 99.2419 179.81 99.2655 179.823C99.4386 179.923 99.6143 180.017 99.7979 180.106H99.8005C102.533 181.419 106.448 181.482 109.28 180.296L164.865 212.418C162.916 213.993 162.943 216.135 164.933 217.702L109.642 249.863C106.805 248.658 102.884 248.708 100.149 250.013L44.6542 217.941L44.6515 217.938ZM45.016 294.777C46.1673 293.955 46.7416 292.955 46.7416 291.952C46.7416 290.95 46.162 289.936 45.0003 289.11L100.225 256.985C102.958 258.266 106.839 258.318 109.648 257.132L165.413 289.362C163.485 290.908 163.472 293.01 165.371 294.572L110.044 326.757H110.041C107.222 325.616 103.388 325.681 100.7 326.957L45.016 294.777ZM45.5641 371.721C47.8928 370.049 47.8456 367.636 45.4304 365.988L100.629 333.876C102.074 334.585 103.857 334.939 105.638 334.939C107.243 334.939 108.845 334.651 110.198 334.078L166.328 366.518C164.529 367.957 164.385 369.876 165.895 371.395L110.35 403.707C109.16 403.313 107.828 403.113 106.495 403.113C104.765 403.113 103.034 403.449 101.62 404.116H101.618L45.5641 371.721ZM101.518 404.169C101.348 404.25 101.18 404.339 101.02 404.431C101.18 404.337 101.345 404.247 101.518 404.169ZM46.482 448.878C48.9313 447.108 48.732 444.52 45.8919 442.879C45.8814 442.874 45.8736 442.869 45.8631 442.864L101.028 410.773C101.028 410.773 101.046 410.784 101.057 410.789C103.808 412.38 108.093 412.529 111.119 411.238C111.216 411.196 111.308 411.151 111.402 411.106C111.308 411.151 111.216 411.198 111.119 411.24L165.827 442.856C163.753 444.504 163.86 446.791 166.145 448.379C166.145 448.379 166.147 448.379 166.147 448.381L110.935 480.496C108.093 479.131 103.975 479.118 101.122 480.456L46.482 448.878ZM111.224 557.458H111.221C108.468 556.492 104.906 556.605 102.355 557.797L45.9837 525.218C48.1551 523.643 48.2285 521.417 46.2119 519.789L101.521 487.617C101.481 487.602 101.445 487.586 101.405 487.567C101.445 487.583 101.481 487.599 101.521 487.615C104.243 488.743 107.935 488.733 110.626 487.581L167.054 520.194C165.195 521.664 165.077 523.645 166.698 525.186L111.224 557.458ZM167.508 602.453C167.668 602.563 167.836 602.671 168.017 602.776C167.836 602.674 167.668 602.563 167.508 602.453ZM233.155 563.656L177.788 595.864H177.785C174.992 594.778 171.263 594.854 168.617 596.09H168.615L113.29 564.115C115.695 562.372 115.53 559.826 112.794 558.185L167.957 526.095C170.715 527.633 174.94 527.759 177.93 526.478L233.315 558.487C231.382 560.015 231.327 562.094 233.152 563.656H233.155ZM243.88 557.419C241.082 556.329 237.343 556.405 234.694 557.65L179.369 525.677C180.502 524.861 181.069 523.866 181.069 522.871C181.069 521.742 180.34 520.614 178.884 519.739L234.049 487.649C235.554 488.486 237.492 488.906 239.43 488.906C241.043 488.906 242.65 488.617 244.009 488.037L299.396 520.049C297.474 521.58 297.424 523.651 299.244 525.21L243.88 557.419ZM366.847 557.398L311.711 525.535C311.543 525.656 311.365 525.772 311.171 525.882C310.885 526.05 310.586 526.2 310.269 526.333L365.473 558.235C363.43 559.86 363.503 562.102 365.69 563.687C365.714 563.703 365.738 563.721 365.761 563.737C365.738 563.721 365.714 563.706 365.69 563.69L310.458 595.817H310.455C307.62 594.513 303.579 594.518 300.77 595.838L245.632 563.973C245.493 564.073 245.346 564.168 245.189 564.259C245.343 564.168 245.493 564.07 245.632 563.971C247.979 562.28 247.892 559.831 245.385 558.185L300.571 526.081C302.034 526.827 303.867 527.2 305.695 527.2C307.305 527.2 308.913 526.911 310.269 526.333C310.583 526.197 310.885 526.047 311.171 525.882C311.362 525.769 311.543 525.654 311.711 525.533C314.069 523.842 313.99 521.385 311.48 519.737L366.663 487.633H366.666C369.414 489.032 373.453 489.119 376.345 487.893L431.555 519.8C429.525 521.422 429.603 523.653 431.783 525.239L376.55 557.369C373.707 556.062 369.656 556.072 366.847 557.398ZM433.091 602.684C433.052 602.661 433.013 602.637 432.976 602.613C433.015 602.637 433.055 602.658 433.094 602.682C433.138 602.708 433.186 602.731 433.233 602.758C433.183 602.734 433.136 602.71 433.091 602.684ZM432.921 596.41C432.968 596.382 433.013 596.353 433.06 596.324C433.086 596.308 433.115 596.292 433.144 596.279C433.115 596.295 433.089 596.311 433.06 596.326C433.013 596.353 432.968 596.382 432.921 596.41ZM444.061 602.684C444.035 602.7 444.006 602.713 443.979 602.726C444.006 602.713 444.035 602.697 444.061 602.682C444.145 602.632 444.223 602.585 444.302 602.535C444.223 602.585 444.145 602.637 444.061 602.684ZM498.337 563.653L443.02 595.833C440.201 594.675 436.359 594.736 433.66 596.011L377.788 563.721C380.017 562.12 380.069 559.842 377.948 558.201L433.22 526.047C435.944 527.226 439.692 527.236 442.422 526.079L498.368 558.411C496.42 559.968 496.412 562.086 498.337 563.653ZM509.115 557.385C506.29 556.227 502.438 556.29 499.737 557.571L443.869 525.283C446.111 523.68 446.169 521.393 444.04 519.753L499.315 487.599C500.689 488.195 502.325 488.491 503.956 488.491C505.587 488.491 507.148 488.208 508.498 487.638L564.45 519.973C562.512 521.53 562.509 523.643 564.431 525.205L509.115 557.385ZM510.153 564.236C510.009 564.32 509.859 564.401 509.707 564.475C509.859 564.399 510.009 564.317 510.153 564.233C510.205 564.202 510.255 564.173 510.308 564.141C510.255 564.173 510.205 564.204 510.153 564.236ZM631.26 558.587C629.409 560.073 629.325 562.07 631.001 563.609L575.566 595.859C574.307 595.402 572.873 595.172 571.438 595.172C569.702 595.172 567.966 595.51 566.548 596.182L510.68 563.895C513.014 562.23 512.98 559.823 510.588 558.169L565.792 526.058C568.53 527.383 572.469 527.449 575.312 526.252L631.26 558.584V558.587ZM632.058 558.043C632.008 558.07 631.961 558.099 631.916 558.127C631.963 558.096 632.008 558.07 632.055 558.041C632.123 558.002 632.194 557.965 632.265 557.928C632.194 557.965 632.126 558.004 632.058 558.043ZM641.658 557.413H641.656C638.865 556.4 635.215 556.51 632.627 557.747C632.561 557.778 632.496 557.81 632.433 557.841C632.496 557.807 632.561 557.776 632.627 557.744L576.762 525.459C579.109 523.795 579.075 521.38 576.678 519.726L631.882 487.615C631.843 487.596 631.803 487.575 631.764 487.554C631.803 487.575 631.843 487.594 631.882 487.612C634.617 488.938 638.546 489.003 641.388 487.814L697.34 520.152C695.501 521.64 695.423 523.63 697.093 525.165L641.658 557.416V557.413ZM643.025 558.043C642.948 557.999 642.87 557.954 642.789 557.912C642.87 557.954 642.948 557.996 643.025 558.041C643.04 558.049 643.056 558.059 643.072 558.07C643.056 558.059 643.04 558.051 643.025 558.043ZM763.589 563.609L708.183 595.841H708.181C705.383 594.796 701.685 594.896 699.07 596.143L643.575 564.07C646.011 562.343 645.883 559.805 643.206 558.151L698.375 526.06C701.116 527.541 705.246 527.662 708.202 526.425L763.786 558.547C761.929 560.049 761.864 562.068 763.589 563.609ZM774.275 557.395C771.469 556.345 767.761 556.45 765.147 557.702L709.654 525.633C712.104 523.905 711.983 521.362 709.3 519.705C709.24 519.669 709.18 519.632 709.117 519.595C709.028 519.543 708.933 519.493 708.839 519.445C708.933 519.493 709.028 519.54 709.117 519.592C709.18 519.632 709.24 519.669 709.3 519.703L764.47 487.612C767.205 489.09 771.325 489.213 774.278 487.985L829.868 520.11C828.021 521.611 827.964 523.622 829.684 525.163L774.275 557.395ZM896.183 563.609L840.8 595.823C837.987 594.744 834.231 594.838 831.593 596.103L776.101 564.031C778.529 562.317 778.429 559.802 775.81 558.143L830.985 526.05C830.985 526.05 830.961 526.037 830.951 526.029C830.961 526.037 830.972 526.042 830.985 526.047C833.717 527.491 837.792 527.604 840.722 526.383H840.724L896.311 558.511C895.359 559.285 894.882 560.199 894.882 561.109C894.882 562.02 895.315 562.852 896.183 563.609ZM962.393 520.073C960.539 521.587 960.505 523.619 962.275 525.16L906.895 557.374C907 557.416 907.105 557.458 907.21 557.503C907.108 557.461 907.003 557.419 906.895 557.377C904.074 556.293 900.308 556.39 897.67 557.663L842.18 525.593C844.624 523.879 844.529 521.357 841.904 519.695L897.077 487.602C896.99 487.554 896.904 487.507 896.82 487.457C896.904 487.507 896.99 487.554 897.077 487.599C899.807 489.043 903.872 489.158 906.798 487.945C906.798 487.943 906.798 487.943 906.798 487.943L962.39 520.073H962.393ZM962.029 443.234C962.063 443.205 962.099 443.179 962.136 443.15C962.099 443.179 962.063 443.208 962.029 443.236C960.209 444.733 960.156 446.736 961.871 448.269L906.463 480.498C903.646 479.448 899.917 479.556 897.302 480.824L841.815 448.757C844.291 447.027 844.178 444.473 841.487 442.811L896.657 410.721C898.15 411.526 900.056 411.931 901.957 411.931C903.528 411.931 905.099 411.655 906.434 411.106L962.031 443.236L962.029 443.234ZM896.322 410.526C896.369 410.555 896.419 410.581 896.466 410.61C896.526 410.647 896.589 410.681 896.65 410.715C896.589 410.681 896.529 410.647 896.466 410.613C896.419 410.584 896.369 410.555 896.322 410.526ZM907.86 410.34C907.727 410.434 907.585 410.524 907.433 410.613C907.401 410.631 907.37 410.65 907.336 410.668C907.37 410.65 907.401 410.629 907.433 410.61C907.585 410.524 907.727 410.432 907.86 410.34ZM961.667 366.4C959.875 367.881 959.81 369.849 961.467 371.372L906.027 403.62C904.768 403.163 903.337 402.935 901.907 402.935C900.135 402.935 898.365 403.284 896.933 403.985H896.93L841.078 371.705C843.478 370.041 843.465 367.6 841.049 365.935C841.034 365.925 841.021 365.914 841.005 365.904C841.021 365.914 841.036 365.925 841.049 365.933L896.254 333.819C898.965 335.134 902.854 335.21 905.689 334.05L961.664 366.4H961.667ZM960.938 289.348C959.073 290.897 959.091 292.979 960.987 294.522L905.671 326.702C904.328 326.151 902.757 325.875 901.186 325.875C899.411 325.875 897.636 326.227 896.201 326.933L840.349 294.654C842.67 293.05 842.751 290.729 840.598 289.07L895.871 256.914C895.871 256.914 895.871 256.914 895.873 256.914C898.556 258.077 902.235 258.103 904.955 256.995H904.957L960.938 289.346V289.348ZM960.203 212.299C958.273 213.914 958.383 216.106 960.529 217.662L905.296 249.792C903.885 249.144 902.175 248.818 900.468 248.818C898.761 248.818 896.904 249.173 895.464 249.882L840.352 218.03C842.817 216.337 842.772 213.83 840.226 212.158L895.412 180.054C898.118 181.432 902.073 181.537 904.955 180.369H904.957L960.203 212.299ZM960.209 135.676C958.407 137.193 958.399 139.209 960.18 140.737L904.813 172.943C901.96 171.833 898.123 171.938 895.467 173.255L840.171 141.296C842.725 139.55 842.607 136.938 839.82 135.266L894.984 103.176C896.487 104.013 898.428 104.43 900.366 104.43C901.907 104.43 903.449 104.165 904.768 103.635L960.209 135.676ZM960.03 58.9444C958.307 60.4012 958.237 62.3201 959.815 63.819L904.338 96.0907C903.106 95.6576 901.711 95.4397 900.318 95.4397C898.522 95.4397 896.726 95.802 895.283 96.5212L838.944 63.9607C841.27 62.3805 841.393 60.0862 839.327 58.422L894.636 26.25H894.638C897.295 27.3499 900.869 27.3656 903.541 26.2972L960.03 58.9417V58.9444ZM971.902 58.3117C971.834 58.2724 971.765 58.2356 971.697 58.1962C971.765 58.233 971.834 58.2697 971.902 58.3091C971.907 58.3091 971.915 58.317 971.923 58.3222C971.915 58.3196 971.91 58.317 971.902 58.3117Z" fill="url(#paint0_radial_3172_29929)"/>
<defs>
<radialGradient id="paint0_radial_3172_29929" cx="0" cy="0" r="1" gradientUnits="userSpaceOnUse" gradientTransform="translate(503.5 315.001) rotate(90) scale(315.001 503.5)">
<stop stop-color="white"/>
<stop offset="1" stop-color="white" stop-opacity="0"/>
</radialGradient>
</defs>
</svg>
