<svg width="95" height="76" viewBox="0 0 95 76" fill="none" xmlns="http://www.w3.org/2000/svg">
<path d="M80.1997 33.4461L77.8871 35.4489L91.698 51.2773L94.0106 49.2745L80.1997 33.4461Z" fill="white"/>
<path d="M60.0371 32.4052C59.6694 32.4052 59.317 32.2831 59.0259 32.0236L26.1467 3.34235L28.1691 1.05274L60.0371 28.8639L91.8592 0.991679L93.8816 3.2813L61.0483 32.0236C60.7572 32.2831 60.4048 32.4052 60.0371 32.4052Z" fill="white"/>
<path d="M23.6034 62.3076C20.2327 62.3076 16.8927 61.5139 14.5639 60.1554C10.0901 57.2247 7.39356 51.7143 5.01878 46.3261L4.55915 45.2881C3.28749 42.4337 2.70529 41.1363 3.33345 39.1367C3.99226 37.0302 5.37117 36.2212 8.11366 34.6032L9.35467 33.8706C14.4566 30.833 19.8956 28.0549 25.2121 28.3602C32.6122 28.7724 39.0624 34.7254 40.38 42.1437C42.096 42.5559 43.812 43.6549 44.9917 45.1507C46.5085 47.074 47.0448 49.4247 46.5238 51.8059C45.7578 55.2556 43.7047 56.8278 42.1113 57.5452C40.0889 58.4458 37.5916 58.4763 35.4619 57.6673C34.6959 58.3847 33.8685 59.0564 32.9799 59.6364C30.4826 61.4986 27.02 62.3229 23.6034 62.3229V62.3076ZM24.446 31.3673C20.1255 31.3673 15.4065 33.8095 10.9328 36.4655L9.67642 37.2134C6.99521 38.7856 6.5509 39.1062 6.2598 40.022C5.99934 40.8768 6.15255 41.3195 7.36292 44.0212L7.83788 45.0744C9.56917 48.9973 12.1891 54.9198 16.1879 57.5452C19.911 59.7127 27.3417 60.018 31.2333 57.1025C32.3058 56.3851 33.2251 55.6219 34.0064 54.7671C34.4814 54.2482 35.2628 54.126 35.8909 54.4619C37.086 55.1335 39.1544 55.4845 40.8856 54.7213C42.2645 54.1108 43.1685 52.8897 43.5515 51.119C43.9652 49.2415 43.2604 47.8525 42.6016 47.013C41.5138 45.6392 40.0123 45.0134 39.0011 44.9828C38.2198 44.9676 37.5916 44.3723 37.515 43.6091C36.8715 37.2134 31.2946 31.7183 25.0742 31.3825C24.875 31.3825 24.6758 31.3673 24.4613 31.3673H24.446Z" fill="white"/>
<path d="M47.0754 61.9871C46.9222 61.9871 46.769 61.9718 46.6311 61.926C43.8733 61.0865 41.6977 58.9495 40.7784 56.2325C40.5179 55.4388 40.9469 54.5687 41.7436 54.3092C42.5403 54.0497 43.4136 54.4771 43.6741 55.2709C44.2716 57.0568 45.7118 58.461 47.5197 59.0106C48.3317 59.2548 48.776 60.1096 48.5309 60.9186C48.3317 61.5749 47.7189 62.0023 47.0601 62.0023L47.0754 61.9871Z" fill="white"/>
<path d="M44.7159 49.1347C44.2563 49.1347 43.812 48.9363 43.5056 48.5394C42.9846 47.8678 43.1072 46.9214 43.7813 46.4024C46.0642 44.6318 49.0978 44.0823 51.8556 44.9218C52.6676 45.166 53.1119 46.0208 52.8668 46.8298C52.6217 47.6388 51.7637 48.0967 50.9516 47.8372C49.1284 47.2725 47.152 47.6541 45.6505 48.7989C45.3747 49.0126 45.0377 49.1194 44.7159 49.1194V49.1347Z" fill="white"/>
<path d="M41.0695 38.4193C40.4413 38.4193 39.8591 38.0377 39.6293 37.4271C39.3382 36.6334 39.7365 35.7633 40.5333 35.458L46.4319 33.26L50.6146 29.1234C51.2121 28.5281 52.1773 28.5281 52.7749 29.1234C53.3724 29.7187 53.3724 30.6956 52.7749 31.2757L48.347 35.6565C48.1938 35.8091 48.01 35.9312 47.8108 36.0075L41.6057 38.3124C41.4219 38.3735 41.2533 38.404 41.0695 38.404V38.4193Z" fill="white"/>
<path d="M34.4661 31.0925C34.3588 31.0925 34.2363 31.0925 34.129 31.0467C33.3017 30.8635 32.7807 30.0393 32.9799 29.215L33.9145 25.1395L28.1537 18.8812C27.5869 18.2554 27.6175 17.2937 28.2457 16.729C28.8738 16.1642 29.8391 16.21 30.406 16.8206L36.7183 23.6741C37.0553 24.0405 37.1932 24.5595 37.086 25.0479L35.9675 29.9019C35.799 30.6041 35.1708 31.0925 34.4814 31.0925H34.4661Z" fill="white"/>
<path d="M24.7524 27.7344C24.1549 27.7344 23.588 27.3833 23.3429 26.8033L21.8567 23.3078L15.0082 21.354C14.1962 21.125 13.7212 20.2702 13.951 19.4613C14.1808 18.6523 15.0388 18.1791 15.8508 18.408L23.4042 20.5755C23.8485 20.6976 24.2162 21.0182 24.3847 21.4456L26.162 25.6127C26.4991 26.3912 26.1313 27.2917 25.35 27.6123C25.1508 27.6886 24.9516 27.7344 24.7524 27.7344Z" fill="white"/>
<path d="M36.228 75.9995C35.4313 75.9995 34.7572 75.389 34.6959 74.5952L34.1443 67.2379L28.69 60.8728C28.1384 60.2317 28.215 59.2701 28.8585 58.7205C29.502 58.171 30.4672 58.2474 31.0188 58.8884L36.8102 65.6199C37.0247 65.8641 37.1473 66.1694 37.1779 66.5052L37.7754 74.351C37.8367 75.1905 37.2086 75.9232 36.3659 75.9843C36.3199 75.9843 36.2893 75.9843 36.2433 75.9843L36.228 75.9995Z" fill="white"/>
<path d="M13.2616 73.9999C12.6487 73.9999 12.0665 73.6336 11.8367 73.023C11.5303 72.2293 11.9286 71.3592 12.71 71.0539L20.294 68.1538L23.2357 60.2164C23.5268 59.4227 24.4154 59.0106 25.2121 59.3158C26.0088 59.6059 26.4071 60.4912 26.116 61.2697L22.9292 69.8633C22.776 70.2755 22.4543 70.596 22.0406 70.7639L13.8131 73.9236C13.6293 73.9846 13.4454 74.0304 13.2616 74.0304V73.9999Z" fill="white"/>
<path d="M9.35467 67.5737C9.18614 67.5737 9.00229 67.5432 8.84907 67.4821L1.01996 64.7193C0.223256 64.4446 -0.190416 63.5593 0.0853653 62.7655C0.361146 61.9718 1.24977 61.5597 2.04648 61.8344L9.06357 64.3072L16.3105 58.5221C16.9693 58.0031 17.9345 58.0947 18.4708 58.7511C19.007 59.4074 18.8998 60.3691 18.2409 60.9033L10.3352 67.2226C10.0594 67.4363 9.72238 67.5585 9.36999 67.5585L9.35467 67.5737Z" fill="white"/>
<path d="M91.4455 52.1722H49.9711V49.1194H91.4455C91.7059 49.1194 91.9205 48.9057 91.9205 48.6462V3.54079C91.9205 3.12865 91.4915 3.0676 91.231 3.0676H28.6134C28.3376 3.0676 28.215 3.09813 28.1844 3.11339C28.1844 3.12865 28.1537 3.25077 28.1537 3.52552V13.7372H25.0895V3.52552C25.0895 1.31222 26.4071 -0.000488281 28.6287 -0.000488281H91.2463C93.3913 -0.000488281 95 1.51066 95 3.52552V48.631C95 50.5695 93.4219 52.157 91.4608 52.157L91.4455 52.1722Z" fill="white"/>
</svg>
