<svg width="73" height="57" viewBox="0 0 73 57" fill="none" xmlns="http://www.w3.org/2000/svg">
<g id="uuid-08421a36-9710-4c62-be58-af7bd4d9374a" clip-path="url(#clip0_1448_2597)">
<path id="Vector" fill-rule="evenodd" clip-rule="evenodd" d="M72.12 3.3102C72.05 2.6502 72.46 0.890204 71.95 1.2902C71.44 1.7002 71.93 1.6402 71.3 1.6302C70.82 1.6302 71.63 1.2102 71.21 0.630204C70.9 0.210204 70.76 0.520204 70.28 0.700204C69.56 0.980204 70.65 0.110204 69.98 0.460204C69.77 0.570204 69.78 0.240204 69.64 0.0702044C69.51 -0.0897956 68.39 0.0702044 68.49 0.00020437L65.98 1.3302C62.48 2.6402 62.97 2.9502 59.66 4.6902C57.22 5.9702 57.71 5.9102 55.36 7.3402C53.86 8.2602 54.08 8.0902 52.57 8.9902C52.14 9.2502 51.7 9.5002 51.28 9.7802C48.57 11.5502 46 13.5302 43.39 15.4402C41.5 16.8202 39.48 18.0302 37.7 19.5702C37.49 19.7502 37.26 19.9102 37.03 20.0702C36.2 19.2202 35.42 18.3302 34.57 17.5102C33.22 16.1802 31.81 14.9202 30.43 13.6202C28.8 12.0702 27.19 10.4902 25.55 8.9602C25.12 8.5602 24.89 7.8602 24.35 7.5502C23.92 7.3102 23.94 6.8002 23.05 5.9602C22.97 5.8902 22.08 4.4702 21.99 4.4602C21.65 4.4302 20.16 2.4402 20.02 2.2802C19.83 2.0602 19.85 1.5302 19.32 1.7202C19.45 1.8802 19.69 2.0202 19.49 2.2402C19.29 2.4702 19.15 2.2202 19.02 2.1202C18.35 1.5702 20.36 4.0002 19.65 3.5002C19.33 3.2702 19.33 3.1602 19.05 3.2002C18.66 3.2502 18.5 3.0602 18.32 2.8802C17.16 1.7202 19.05 3.9702 17.91 2.7802C17.59 2.4402 17.57 2.4502 17.61 2.5102C17.65 2.5702 17.74 2.6902 17.61 2.5102C17.55 2.4302 17.45 2.3002 17.27 2.0702C16.94 1.6502 16.36 1.4902 15.89 1.7202C15.69 1.8202 15.61 1.9302 15.79 2.1402C15.99 2.3702 15.99 2.5302 16.23 2.7102C16.43 2.8602 16.95 2.9302 16.43 3.3402C16.34 3.4102 16.37 3.5502 16.52 3.6002C16.64 3.6402 16.77 3.6702 16.77 3.5002C16.77 2.9302 17.11 3.1802 17.34 3.2502C17.67 3.3402 16.91 2.4902 17.14 2.7502C17.66 3.3302 17.48 3.0402 18 3.6202C18 3.6002 18.01 3.5902 18.01 3.5702C17.7 3.1902 17.42 2.8602 17.82 3.2902C17.92 3.4002 18.01 3.4802 18.01 3.5702C18.36 3.9902 18.76 4.4702 18.32 3.9802C18.21 3.8602 18.1 3.7402 18 3.6202C17.97 3.6702 17.9 3.7302 17.75 3.7902C17.09 4.0602 16.99 4.3602 17.11 5.0702C17.11 5.0902 17.07 5.1302 17.04 5.1502C15.88 4.1702 17.92 6.4502 16.76 5.3702C16.73 5.4902 16.72 5.5802 16.73 5.6502C16.98 5.9602 17.13 6.1602 16.82 5.8402C16.77 5.7902 16.74 5.7302 16.73 5.6502C16.63 5.5202 16.51 5.3802 16.4 5.2402C16.4 5.2802 16.38 5.3102 16.34 5.3502C16.17 5.5202 17.34 6.8102 17.2 6.6702C16.4 5.8202 17.34 6.9002 16.52 6.0702C15.64 5.1702 16.44 6.2502 15.48 5.4402C15.48 5.4402 15.48 5.4402 15.46 5.4302C15.5 5.4502 15.58 5.4702 15.63 5.3802C15.78 5.1202 15.6 4.9102 15.76 5.0302C15.78 5.04021 15.8 5.0602 15.82 5.0702C15.89 5.1602 15.98 5.2702 16.07 5.3802C16.09 5.2702 16 5.1802 15.91 5.1002C16.02 5.1302 16.14 5.1802 16.22 5.0702C16.32 4.9302 16.19 4.8202 16.11 4.7302C15.64 4.2202 15.04 3.9202 14.4 3.7102C14.23 3.6502 13.99 3.6702 14 3.8702C14.03 4.2402 13.81 4.2602 13.57 4.3402C13.18 4.4702 12.72 4.5302 12.73 5.1302C12.73 5.2102 12.6 5.3302 12.51 5.3702C11.84 5.6302 12.07 5.4302 11.84 6.0402C11.76 6.2502 11.01 6.0602 11.04 6.2002L10.83 6.4102C10.72 6.6402 10.73 6.7802 10.85 6.9602L10.74 7.2702C10.83 7.6402 10.88 7.5902 11.38 7.8802C12.36 8.4502 10.97 7.7802 11.72 8.6402C11.87 8.8102 12.16 9.0802 11.91 9.2502C11.61 9.4402 11.68 8.9702 11.53 8.8502C11.35 8.7102 11.14 8.4002 10.92 8.6202C10.69 8.8502 11.01 9.0002 11.16 9.1502C11.8 9.8202 12.42 10.5202 13.04 11.2002C15.3 13.6502 17.53 16.1202 20.06 18.2902C20.62 18.7702 21.13 19.3302 21.64 19.8802C22.29 20.5702 22.98 21.2202 23.75 21.8002C24.32 22.2302 24.89 22.6902 25.35 23.2302C25.75 23.7102 26.28 24.0702 26.63 24.5902C26.7 24.7002 26.82 24.7402 26.91 24.6202C26.97 24.5502 27.08 24.3902 26.93 24.3402C26.69 24.2602 26.76 24.1102 26.84 24.0002C26.98 23.8202 27.05 24.0402 27.15 24.1002C27.59 24.3902 27.86 24.8602 28.26 25.2102C28.55 25.4702 28.83 25.7302 29.1 26.0102C27.65 27.1302 26.18 28.2502 24.74 29.3902C23.62 30.2702 22.61 31.2802 21.48 32.1502C20.67 32.7602 19.85 33.3802 19.13 34.1202C18.8 34.4602 18.46 34.8302 18.1 35.0902C16.32 36.3802 15.43 37.5302 13.82 39.0002C13.29 39.4902 12.85 40.0702 12.38 40.6302C12.13 40.9302 11.73 40.8602 11.5 41.1702C10.64 42.3002 9.56998 43.2302 8.54998 44.2102C8.38998 44.3602 8.67998 44.5902 8.41998 44.6002C7.74998 44.6202 7.76998 45.4602 7.22998 45.6302C7.20998 45.6302 7.16998 45.7102 7.17998 45.7202C7.48998 46.1902 7.05998 46.0902 6.84998 46.1902C6.61998 46.3002 6.35998 46.4202 6.40998 46.7702C6.45998 47.1702 6.76998 46.9502 7.03998 47.0102C6.39998 47.8102 5.84998 48.6202 5.17998 49.3102C4.38998 50.1202 5.43998 47.7702 4.71998 48.6502C4.13998 49.3602 3.68998 50.2102 3.00998 50.8102C1.70998 51.9602 3.64998 49.6202 0.93998 52.5002C0.50998 52.9602 0.15998 53.5002 -0.0200195 54.1302C0.97998 53.5302 0.30998 53.9902 1.16998 53.2502C0.70998 53.6702 1.52998 53.4702 1.08998 53.8902C0.94998 54.0202 0.82998 54.2502 0.92998 54.3902C1.07998 54.5902 1.24998 54.3602 1.39998 54.2802C2.16998 53.8902 0.58998 55.3102 1.32998 54.8802C1.49998 54.7802 1.60998 54.5202 1.82998 54.5602C2.14998 54.6302 1.65998 54.9402 1.97998 55.0702C2.14998 54.7702 2.60998 55.0002 2.76998 54.6602C3.21998 53.6902 3.13998 54.4202 3.72998 53.5502C4.24998 52.7802 3.70998 53.9402 4.20998 53.1402C4.65998 52.4102 4.35998 53.0402 4.78998 52.7102C5.20998 52.4002 5.69998 52.1102 6.09998 51.6802C6.19998 52.0202 5.99998 52.1702 5.85998 52.3402C4.59998 53.9502 5.57998 52.2902 4.27998 53.8602C4.07998 54.1102 3.86998 54.3702 3.61998 54.5502C2.74998 55.1702 3.27998 54.8002 2.75998 55.6902C3.68998 54.7902 3.96998 54.9702 4.45998 54.2202C5.42998 52.7002 4.20998 54.4302 5.66998 53.3202C6.85998 52.4102 6.10998 54.5202 7.19998 53.4902C8.30998 52.4402 9.36998 51.3402 10.47 50.2902C10.82 49.9502 11.14 49.5702 11.61 49.3802C9.54998 51.8602 7.20998 54.0602 4.81998 56.4202C5.53998 56.1002 6.00998 55.7002 6.45998 55.2702C8.90998 52.8902 11.28 50.4102 14 48.3102C15.39 47.2402 16.62 45.9402 17.99 44.8202C18.73 44.2102 19.43 43.5402 20.22 43.0102C20.57 42.7702 21.07 42.7402 21.22 42.2302C21.22 42.2302 21.25 42.2202 21.27 42.2202C21.83 42.1802 22.12 41.7102 22.5 41.3902C23.64 40.4102 24.74 39.3902 25.94 38.4902C27.37 37.4202 28.17 36.8202 29.59 35.7402C30.98 34.6802 32.42 33.7002 33.87 32.7102C34.29 32.4202 34.07 32.0202 34.48 32.4102L34.96 32.3102C34.73 32.0702 35.29 32.1202 35.58 31.8602C35.84 31.6302 36.1 31.5602 36.36 31.8602C36.59 32.1302 36.79 32.4402 37.04 32.6902C38.38 33.9702 38.71 34.5802 39.96 35.9502C41.13 37.2402 42.3 38.5402 43.48 39.8102C44.39 40.7802 45.23 41.8202 46.13 42.8002C47.01 43.7602 47.91 44.6902 48.79 45.6502C49.68 46.6202 50.76 47.3802 51.59 48.4102C52.28 49.2602 53.02 50.0702 53.81 50.8302C54.41 51.4002 54.77 52.2102 55.52 52.6302C55.64 51.6302 54.76 51.2102 54.27 50.6502C53.63 49.9302 53.25 49.0902 53.63 48.2802C53.84 48.6102 54.3 48.6602 54.56 48.9702C54.04 47.5102 52.8 46.5202 52.17 45.1302C52.71 45.4602 53.14 45.9002 53.47 46.4202C53.62 46.6502 53.8 46.8402 54.01 46.9902C54.28 47.1702 54.63 47.4302 54.61 46.6602C54.77 47.0102 55 47.1702 55.2 47.3602C55.44 47.6002 55.63 47.8802 55.44 48.2502C55.41 48.3102 55.39 48.4302 55.42 48.4602C55.84 48.8602 56.11 49.4702 56.64 49.6702C57.03 49.8102 57.27 50.1102 57.38 50.3602C57.68 51.0402 58.27 51.3602 58.79 51.9702C58.88 51.1102 58.55 50.5202 58.18 50.0202C57.93 49.6802 57.72 49.3002 57.43 48.9702C56.77 48.2402 56.05 47.5502 55.51 46.5702C56.37 46.9302 56.86 47.5502 57.23 48.2602C57.38 48.5402 57.58 48.7902 57.84 48.9702C58.25 49.2602 59.02 50.1102 59.34 50.4702C59.57 50.7202 59.65 50.9902 59.91 51.1202C60.09 51.2102 60.02 50.8202 60.35 50.8802C60.64 50.9302 60.93 50.8802 61.18 50.7202L61.8 50.3302C61.94 50.2402 61.98 50.0602 61.91 49.9102C61.87 49.8202 61.86 49.7302 61.92 49.6202C62.13 49.6702 62.16 49.6402 62.17 49.6202C62.17 49.6202 62.17 49.6702 62.25 49.8002C62.37 49.9902 62.4 50.0102 62.46 49.7902C62.52 49.6002 62.57 49.4402 62.65 49.5302C62.72 49.6102 62.78 49.5902 62.65 49.7802C62.58 49.8802 62.62 50.1102 62.82 49.9402C62.91 49.8702 63.06 49.8402 63.14 49.6902C63.21 49.5402 63.23 49.5902 63.14 49.4902C62.74 49.0402 62.94 49.5202 62.61 49.0102C62.48 48.8102 62.65 48.9102 62.77 48.7402C62.92 48.5202 63.15 48.6102 63.03 48.2302C63.53 48.6402 63.22 47.8302 64.06 48.6402C63.78 48.1302 63.49 47.8402 62.82 47.0902C62.3 46.5002 61.78 45.9102 61.27 45.3102C61 44.9902 61.01 44.5302 60.75 44.1702C60.44 43.7402 59.95 43.4802 59.93 42.7302C59.93 42.1702 59.19 41.6302 58.63 41.2802C58.17 40.9902 57.75 40.3802 57.4 39.9402C57.18 39.6602 57.5 39.3502 56.85 39.5902C56.85 39.5902 56.81 39.5402 56.78 39.4902C56.92 39.3702 56.69 39.5502 56.83 39.4202C57.04 39.2402 56.77 39.1802 56.74 39.0502C56.72 38.9302 56.58 38.4802 56.53 38.5902C56.38 38.9402 56.37 38.6302 56.26 38.5802C55.83 38.3802 55.62 37.9702 55.32 37.6402C55.18 37.4802 54.78 37.5602 54.86 37.3002C54.99 36.8902 54.75 36.9602 54.53 36.8802C54.31 36.7902 53.97 36.7502 53.88 36.6102C53.65 36.2102 52.95 36.2602 53 35.5702C53.01 35.4302 52.71 35.0202 52.41 35.0002C51.99 34.9702 51.78 34.6902 51.52 34.4402C51.38 34.3102 51.36 33.9602 51.04 34.0802C50.88 34.4802 51.26 34.6802 51.85 35.1002C52.07 35.2602 52.12 35.5402 52.13 35.8102C52.13 35.9202 52.45 36.0602 52.22 36.2302C52.09 36.3302 51.93 36.2702 51.79 36.2002C51.33 35.9602 51.02 35.5402 50.71 35.1602C49.94 34.2202 49.18 33.2802 48.35 32.3902C47.18 31.1602 46.98 30.6502 45.73 29.5002C44.87 28.7102 44.29 27.6702 43.41 26.9002C43.1 26.6202 42.93 26.3102 43.43 25.9502C44.13 25.4402 44.85 24.9802 45.57 24.5002C47.52 23.2102 49.45 21.8802 51.36 20.5402C53.71 18.8902 54.47 18.5502 56.86 16.9702C58.28 16.0302 59.71 15.0902 61.16 14.2002C62.89 13.1302 61.93 13.7802 63.71 12.7802C64.97 12.0802 64.01 12.4702 65.28 11.8102C66.39 11.2302 66.08 11.3302 67.19 10.7402C67.81 10.4102 68.28 9.8602 68.89 9.4702C69.52 9.0702 70.5 8.6102 71.28 7.9802C72.32 7.1502 72.31 7.6102 72.26 7.0702C72.19 6.3302 72.02 5.1702 72.31 4.9102C72.58 4.6502 72.1 3.8602 72.05 3.3802L72.12 3.3102ZM11.8 49.0302C12.18 48.6602 12.56 48.2802 12.95 47.9102C12.67 48.3902 12.33 48.8102 11.8 49.0302ZM15.14 39.4002C14.04 40.3302 13.07 41.4102 11.98 42.3602C11.08 43.1402 10.28 44.0502 9.43998 44.9002C8.90998 45.4302 8.38998 45.9802 7.85998 46.5102C7.70998 46.6502 7.49998 46.8202 7.32998 46.6202C7.16998 46.4302 7.39998 46.2702 7.51998 46.1502C9.23998 44.5102 10.99 42.9002 12.69 41.2302C13.4 40.5302 14.12 39.8502 14.88 39.2102C15.01 39.1002 15.16 38.9402 15.38 39.1402C15.29 39.2402 15.23 39.3302 15.15 39.4002H15.14ZM53.39 45.6302C53.34 45.5602 53.23 45.5102 53.34 45.4102C53.4 45.3502 53.49 45.3602 53.54 45.4102C53.82 45.6802 54.12 45.9502 54.19 46.3702C53.87 46.1702 53.59 45.9502 53.39 45.6302ZM52.88 36.9502C53.64 37.6102 54.12 38.4002 54.76 39.0602C55.42 39.7502 56.04 40.4702 56.68 41.1802C56.81 41.3302 57.19 41.3002 57.03 41.5502C56.83 41.8502 56.76 42.0202 56.46 41.4602C56.08 40.7502 54.88 39.6402 54.38 39.0202C53.91 38.4302 54.08 38.3402 53.48 37.8502C53.2 37.6202 52.77 37.4702 52.89 36.9602L52.88 36.9502ZM52.34 42.7602C52.94 43.0402 53.2 43.6402 53.64 44.0502C54.17 44.5302 54.61 45.1102 55.09 45.6502C55.29 45.8602 55.64 46.2502 55.51 46.3302C55.21 46.5402 55.01 46.0902 54.87 45.9102C54.05 44.8802 53.16 43.9202 52.32 42.9102C52.3 42.8902 52.32 42.8402 52.32 42.7602H52.34Z" fill="black"/>
</g>
<defs>
<clipPath id="clip0_1448_2597">
<rect width="72.47" height="56.37" fill="white"/>
</clipPath>
</defs>
</svg>
