<svg width="186" height="126" fill="none" xmlns="http://www.w3.org/2000/svg"><g id="uuid-df70b0ae-f035-4859-9c28-e5fac839761a" clip-path="url(#clip0_1448_2720)"><path id="Vector" d="M146.216 84.182a.154.154 0 01.204-.074c.076.036.11.129.074.204a.155.155 0 01-.204.074.155.155 0 01-.074-.204zm-19.061-8.193c.276-.225.262-.262-.162-.477-.487-.244-.622-.153-.442.317.142.422.268.45.604.16zm27.892 12.725c.19-.174.208-.18.126.028-.065.14-.006.244.125.26.119.01.278-.132.343-.303.13-.31.117-.315-.332-.279-.287.02-.46.124-.474.287-.014.194.03.199.2.032l.012-.025zm-17.623-7.965c.205.22.236.219.579.148.173-.042.296-.139.269-.213-.021-.087.036-.076.151.04.103.11.229.138.264.062.036-.076-.092-.198-.282-.287-.19-.089-.34-.097-.331-.016.008.08-.077.195-.188.267-.159.11-.223.08-.328-.155-.079-.16-.162-.214-.198-.138-.035.075-.001.2.07.279l-.006.013zm-4.478-1.346c.076.036.151.04.169.002.018-.038-.016-.13-.074-.204-.052-.087-.133-.078-.168-.002a.154.154 0 00.073.204zm-.362-.741c.003-.138-.056-.243-.155-.228-.113.01-.148.117-.087.284.095.322.214.3.249-.038l-.007-.018zM77.281 52.945a.155.155 0 00.204-.074.155.155 0 00-.073-.205.155.155 0 00-.205.074.155.155 0 00.074.205zm3.57 2.818a.155.155 0 00.204-.074.155.155 0 00-.074-.204.155.155 0 00-.204.074.155.155 0 00.074.204zm11.314 4.077c.054-.114.02-.207-.08-.192-.1.015-.166.092-.158.173.025.243.119.24.231 0l.007.019zm-16.323-7.447s.128-.141.119-.253c.01-.12-.04-.112-.112.04-.065.139-.075.227-.007.213zm9.838 4.788s.128-.14.119-.253c.01-.119-.04-.111-.112.04-.065.14-.075.227-.007.213zm5.905 2.448c.352-.19.447-.36.27-.444-.076-.035-.18.023-.234.137-.053.114-.158.173-.234.137-.076-.035-.137.029-.122.128.016.131.116.147.32.042zm-1.074-.442c-.03.063.09.104.271.08.18-.022.329-.107.32-.188-.016-.162-.507-.069-.59.108zm14.414 6.32c.11-.103.115-.178.002-.2-.101-.017-.237.043-.316.114-.189.204.113.284.314.085zm1.72.807c.218.226.294.262.448.164.086-.052.238.02.418.196.237.25.281.255.301.049.015-.132.07-.215.145-.179.076.036.157-.004.192-.08.083-.177-.631-.496-1.15-.509-.444-.007-.578.115-.379.347l.025.012zm-1.403-.396c.114.053.232.031.267-.045.036-.076.104-.09.157-.004.103.142.431.002.37-.165-.067-.186-.812-.242-.901-.053a.219.219 0 00.113.285l-.006-.019zm3.478 1.632c.177.084.384.103.47.051.086-.052.091-.127.015-.163a1.465 1.465 0 01-.294-.23c-.083-.085-.239-.081-.343.009-.135.122-.095.202.145.315l.007.018zm-.354-.66c.24.113.301.05.178-.148a.167.167 0 00-.232-.032c-.087.053-.066.14.061.199l-.007-.019zm-14.507-6.023c.22-.005.346.054.405.19.04.111.157.259.27.312.152.071.17.033.127-.172-.048-.192-.012-.268.137-.29.112-.01.208.082.224.213.016.13.087.21.16.183.205-.074.11-.396-.143-.515a.71.71 0 00-.47-.02c-.198.061-.249.038-.273-.174-.016-.163-.06-.199-.108-.098-.042.089-.141.104-.225.018-.083-.085-.195-.045-.266.107-.1.215-.062.264.194.245l-.032.001zM67.874 49.67c-.036.076.08.192.25.257.24.113.265.093.099-.046-.121-.104-.15-.24-.058-.337.11-.102.083-.176-.119-.24-.365-.11-.613-.01-.334.12.126.06.198.17.162.246zm56.154 24.728a.155.155 0 00.074.204.154.154 0 00.204-.074.155.155 0 00-.074-.204.155.155 0 00-.204.074zm-9.9-4.525c-.024-.212.344.023.438.283.067.186.117.179.206-.011.065-.14.256-.281.442-.317.292-.064.273-.088-.117-.179-.238-.05-.552-.074-.67-.052-.155.035-.206.011-.158-.09.035-.076-.03-.199-.169-.264-.266-.125-1.001-.038-1.084.139-.03.063.218.226.552.368.329.154.587.198.585.135l-.025-.012zm9.826 4.32c.063.03.194.014.268-.044.086-.052.065-.139-.061-.198-.127-.06-.232-.032-.268.044-.036.076-.015.163.061.198zm.628.604c-.068.045.009.112.166.14.182.039.265.124.218.225-.101.215.19.12.291-.095.042-.088.179-.085.281-.006.115.084.24.081.281-.007.042-.089.142-.073.226.013.103.11.164.077.186-.067.014-.194-.121-.335-.448-.427-.051-.023-.11-.128-.113-.253-.023-.181-.067-.186-.213-.039a.431.431 0 01-.436.073c-.127-.059-.32-.042-.411.054-.092.096-.108.197-.032.233.076.035.077.098.004.156zm-13.4-6.77c.036-.076.04-.15.002-.169-.038-.017-.131.016-.204.074-.087.052-.078.133-.003.169a.156.156 0 00.205-.074zm.504.406c.103-.12.174-.273.154-.328-.06-.168-.525 0-.62.203-.131.278.266.387.478.131l-.012-.005zm.663 1.284c.076.036.151.04.169.002.017-.038-.016-.13-.074-.204-.052-.086-.133-.078-.169-.002a.155.155 0 00.074.204zm61.185 32.817c.042.405-1.267 1.843-1.978 2.142-.235.106-.462.262-.504.35-.107.228-1.294.52-1.777.432-.283-.056-.423-.152-.459-.37-.044-.237-.374-.453-1.697-1.121-.899-.453-1.966-.908-2.356-.998-.597-.141-.889-.309-1.705-.97-.727-.589-1.229-.901-1.929-1.153-.946-.352-2.28-.7-1.938-.508.139.065.078.129-.189.173-.336.058-.425.017-.797-.374-.59-.617-1.578-1.142-2.458-1.308-.753-.138-1.427-.609-1.291-.9.03-.063-.174-.22-.458-.338-.278-.13-.659-.34-.844-.504-.217-.195-.589-.323-1.134-.379-.715-.088-.848-.135-1.27-.55-.276-.268-.562-.448-.698-.42-.281.038-1.369-.504-1.304-.643.101-.215-.412-.502-1.058-.574a9.85 9.85 0 01-1.528-.362c-.466-.157-.844-.535-1.024-.48-.373.102-1.558-.069-1.807-.263-.102-.078-.352-.072-.397-.371-.03-.23-1.665-.628-2.324-.999-.527-.293-.084-.61-.197-.633-.252-.056-.733-.05-1.056.014-.324.064-.737.056-.901-.022-.443-.207-.893-.728-.733-.838.227-.155-.169-.264-.636-.19-.237.043-.356.034-.282-.025.086-.052.037-.244-.098-.416-.207-.282-.314-.317-.681-.258-.567.089-1.357-.267-1.113-.492.086-.083.12-.221.08-.302-.058-.073-.17-.064-.274.026-.091.096-.291.126-.417.067-.127-.06-.459-.108-.728-.095-.481.006-1.386-.466-1.146-.615.105-.06-.603-.098-1.899-.722-.355-.166-.732-.282-.875-.241-.491.124-1.622-.36-2.092-.905-.309-.361-.684-.614-1.303-.874-.53-.218-.994-.513-1.18-.74-.438-.514-3.95-2.24-5.303-2.613-.56-.154-1.1-.516-1.368-.472-.678.13-1.765-.582-1.639-1.078.09-.39.927.095.318-.283l-.102-.048c-1.028-.637-1.879-.666-2.495-.832-.466-.126-.619-.228-.706-.47-.094-.26-.164-.309-.475-.27-.194.018-.373.072-.397.123-.024.05-.254.081-.524.063-.575-.024-2.033-.832-2.072-1.143-.01-.144-.168-.233-.457-.276-.596-.11-1.047-.4-1.111-.723-.037-.218-.12-.272-.407-.252-.206.011-.584-.136-.902-.347-.521-.337-.596-.341-1.209-.089-.538.226-.678-.627-1.281-1.018-.293-.2-.915.172-1.339-.042-1.089-.573-1.281-.756-1.103-1.135.083-.177-.236.337-.398.322-.163-.015-.197-.108-.09-.335.119-.253.105-.29-.086-.18-.154.098-.191.08-.144-.021.059-.126-.142-.19-.725-.232-.789-.062-.801-.068-.898-.422-.055-.21-.183-.333-.288-.305-.827.183-3.148-.891-3.516-1.65-.158-.322-.369-.498-.665-.59-.233-.064-.506-.238-.615-.367-.143-.19-.242-.175-.51.1-.366.384-.63.322-1.32-.28-.6-.529-1.38-1.234-1.893-1.228-.494 0-.743.3-.401.46.114.053.154.165.074.236-.152.16-1.572-.137-2.342-.699-.586-.43-.67-.546-.492-.663.074-.058.078-.133.002-.168-.203-.127-2.177-.59-2.082-.793.071-.152-.904-.409-1.29-.574-.366-.172-.876-.304-1.132-.316a1.526 1.526 0 01-.744-.257c-.179-.145-.317-.18-.358-.09-.036.075.21-.813.021-.901-.329-.155-1.204-.165-1.688-.021-.292.094-.942-.165-.859-.342.03-.063-.055-.21-.189-.32-.243-.207-.562-.249-1.336-.18-.449.037-1.224-.482-1.048-.692.073-.09-.113-.254-.53-.45-.81-.38-1.028-.637-1.053-1.143l-.023-.412-.311.302c-.342.333-.568.32-.546-.055.019-.27-.431-.527-.666-.39-.086.052-.325-.03-.567-.205-.255-.181-.301-.543-.343-.454-.03.063-.115.409-.087.515-.045-.068-.2-.233-.495-.294-.427-.077-.764-.082-.75-.013.03.2-.664.46-.997.38-.17-.033-.452-.32-.66-.633-.279-.424-.477-.595-.86-.698-.277-.068-.533-.049-.58.052-.125.266-.565.183-.68-.133-.126-.353-.014-.593.227-.48a.384.384 0 00.35-.022c.11-.071.058-.126-.148-.146-.245-.038-.291-.137-.236-.42.039-.213-.134-.109-.21-.144-.075-.036-.13.016-.128.11.015.099-.09.127-.217.067s-.408-.052-.625.016c-.217.067-.734.118-1.16.103-.625-.016-.745-.056-.674-.208.107-.228-.165-.371-.919-.509-.615-.103-1.746-.85-1.709-1.126.01-.12-.066-.155-.19-.12-.193.048-.507-.007-1.488-.251a1.426 1.426 0 01-.603-.36.757.757 0 00-.557-.293 1.367 1.367 0 01-.651-.29c-.166-.14-.187-.227-.08-.192.12.04.061-.064-.143-.221-.216-.164-.532-.281-.782-.275-.262 0-.476-.07-.555-.199-.22-.35-.453-.382-.527-.093-.052.176-.206.274-.45.267-.319-.01-.408-.083-.58-.504-.2-.495-.488-.738-.659-.571-.055.051-.416.097-.816.095-.669.01-.732-.02-.934-.346-.124-.197-.203-.389-.18-.44.024-.05-.268-.249-.649-.458-.506-.269-.764-.344-.962-.252-.142.073-.318.052-.37-.034-.065-.092-.114-.054-.116.115-.008.15-.057.22-.109.134-.045-.067-.066-.386-.208-.345-.67.21-1.16.135-2.354-.38-.733-.312-1.233-.594-1.198-.67.03-.063-.007-.312-.1-.54-.147-.347-.34-.099-.506.024-.117.084-.28.07-.363-.016-.084-.085-.392-.153-.685-.152-.562.014-1.051-.293-.8-.499.08-.07-.014-.037-.224.05-.488.218-1.161.04-1.29-.344-.06-.167-.213-.3-.351-.303-.138-.003-.176-.052-.103-.11.197-.124-.011-.206-.618-.229-.275-.006-.48.037-.454.111.027.075-.029.095-.117.053-.101-.047-.092-.166.049-.301.158-.173.157-.235-.038-.25-.137-.002-.28.039-.31.102-.03.063-.226.187-.45.268-.39.14-.652.14-.412-.009.068-.045-.034-.124-.217-.163-.194-.045-.45-.258-.593-.48-.221-.35-.259-.368-.354-.166-.06.127.013.269.14.328.126.06.26.169.28.224.067.186-.553.62-.817.59-.163-.015-.273.087-.342.333-.045.195-.028.357.059.336.08-.008.076.067-.028.157-.091.096-.216.1-.274.026-.052-.087-.308-.068-.562.013-.44.149-.465.168-.327.434.098.185.1.247-.027.188-.139-.066-.157-.028-.095.202.035.155.138.265.22.257.08-.008.096.123.013.3-.13.278-.105.29.103.141.136-.09.285-.113.33-.046.046.068.146.084.233.032.073-.058.212-.024.295.062.103.11.244.006.48-.331.186-.267.336-.552.365-.647.01-.087.096-.14.16-.11.075.036.12.103.085.18a.334.334 0 00.02.286c.046.1.058.074.035-.075-.023-.181.04-.183.23-.031.192.151.286.149.375-.04.065-.14.182-.224.258-.188.076.035.102.11.066.154-.187.268-.158.436.093.492.151.04.229.138.175.252-.047.1-.14.166-.203.136s-.118.022-.103.121c.015.1-.091.096-.262 0-.203-.126-.346-.085-.547.145-.145.179-.222.343-.147.379.076.036.174-.042.228-.156.065-.139.165-.154.28-.038.096.092.211.207.262.231.05.024-.055.052-.242.056-.263 0-.243.025.129.153.302.112.424.215.37.329-.041.088.023.18.142.19.12.01.355.166.516.381.181.24.46.401.768.469.264.062.478.132.48.163-.013.025-.03.125-.052.207-.036.076-.003.138.054.149.043.005.159.121.225.276.067.154.26.368.406.483.16.122.395.31.535.406.191.151.347.116.616-.128.385-.36.68-.298.854.154.06.168.056.274-.007.244-.063-.03.022.118.183.333.317.411.546.58.522.369-.014-.069.136-.06.313.023.177.083.28.224.24.313-.108.228.037.28.352.104.246-.131.273-.088.316.41.043.468.12.567.454.646.22.057.372.16.343.223-.03.063.142.19.369.266.39.121.41.177.228.4-.115.147-.138.197-.059.127.08-.071.242-.088.343-.04.101.047.306.005.453-.111.185-.13.226-.218.125-.266-.076-.036-.11-.129-.068-.217.042-.089.142-.072.238.02.096.09.222.119.302.08.197-.124.672.114.583.303-.036.076.035.156.172.159.15.009.19.058.103.11-.086.052-.04.15.093.229.222.12.222.12-.035.076-.453-.09-.428.385.023.674.228.138.43.202.465.126.078-.164.909-.16 1.144-.003.09.073.2.264.248.425.056.242.076.267.165.108.06-.126.124-.065.168.203.051.317.128.384.397.371.174-.01.376.053.428.14.052.086.202.095.307.036.154-.098.156-.035.056.21-.125.266-.112.304.073.205.302-.182.218-.036-.166.354-.531.507-.437.768.215.595.348-.084.636-.072.738.038.116.116.178.114.156-.004-.009-.112.072-.152.205-.074.126.06.498.157.806.224.496.094.566.143.58.442.01.206.114.348.264.356.132.016.31.161.378.347.186.458.891.666 1.077.336a1.75 1.75 0 01.24-.38.888.888 0 00.133-.217c.023-.05.123-.065.237-.012.253.119.602-.69.396-.91-.173-.19.467-.599.818-.526.296.061.745.55.674.702-.047.101.085.642.41 1.659.061.198.203.357.315.348.112-.009.131.016.045.068-.197.124-.37 1.184-.206 1.261.076.036.043.237-.058.452-.166.354-.237 1.03-.228 1.9.004.156-.138.753-.298 1.326-.174.567-.271 1.169-.217 1.349.212.732-.965 3.437-1.787 4.07-.51.393-1.722.642-2.165.434-.215-.1-.509-.362-.689-.57-.161-.215-.311-.455-.325-.523-.05-.256-1.055-1.468-1.45-1.777-.23-.17-.48-.457-.554-.63-.132-.31-2.148-.947-2.262-1.263-.093-.23-.217-.426-.286-.443-.157-.028-1.059-.837-1.476-1.295-.168-.202-.532-.512-.786-.694-.255-.18-.468-.45-.477-.594-.018-.193-.164-.308-.624-.447-.548-.18-1.09-.605-1.556-1.256-.142-.19-.505-.437-2.022-1.38-.203-.127-.383-.304-.385-.398-.015-.1-.137-.234-.276-.3-1.108-.566-1.743-.988-2.11-1.39-.63-.698-2.633-2.117-3.416-2.423-.486-.182-.862-.466-1.33-.98-.373-.39-.967-.9-1.341-1.123-.374-.222-.853-.616-1.053-.88-.33-.417-1.441-1.402-1.796-1.6-.076-.035-.566-.405-1.083-.817a69.697 69.697 0 01-1.46-1.133c-.273-.205-.686-.477-.914-.583-.227-.107-.713-.552-1.068-.98-.367-.435-.919-1.003-1.25-1.25-.325-.262-.676-.565-.792-.713-.2-.232-.843-.704-1.521-1.1-.565-.342-1.152-.834-1.277-1.062-.065-.123-.371-.36-.675-.533-.596-.31-.908-.565-1.423-1.147-.604-.685-.764-.806-1.674-1.233-.493-.232-.912-.49-.914-.553-.014-.068-.28-.224-.596-.341-.328-.123-.671-.346-.775-.519-.195-.307-1.126-1.053-1.958-1.583-.235-.156-1.163-.746-2.052-1.318-1.753-1.132-2.498-1.42-4.038-1.525-1.002-.07-1.453-.39-1.895-1.322-.363-.773-.45-1.508-.23-1.976.07-.152.094-.465.058-.683-.094-.491.428-1.636 1.616-3.64.522-.882 1.322-2.914 1.525-3.05.21-.118.514-.47.7-.768.444-.748.925-1.248 1.432-1.504.24-.119.48-.3.527-.4.048-.102.153-.13.236-.075.082.054.213.007.316-.114.121-.16.1-.215-.061-.199-.131.016.041-.088.394-.216.34-.133.684-.173.736-.087.052.086.121.103.15.04.078-.164 1.006-.037 1.38.185.229.138.289.274.2.495-.077.164-.104.352-.077.427.027.074-.052.176-.169.23-.173.072-.077.164.39.383.19.09 1.082-.527 1.978-.692.715-.143 1.473.182 1.509.106.03-.063.16-.079.3-.014.176.084.177.115.01.144-.182.023-.205.074-.1.277.073.174.174.221.266.156.086-.052.103-.121.04-.15-.063-.03.13-.079.41-.117.293-.032.55.011.584.104.033.093.183.102.344.023.247-.131.272-.12.392.184a.566.566 0 01-.074.552c-.158.173-.124.266.18.47.21.145.405.19.441.115.036-.076.08-.071.112-.01.027.075-.083.178-.225.25-.222.112-.228.124-.009.15.15.009.221.088.186.164a.18.18 0 01-.223.08c-.076-.035-.132-.015-.105.06.027.074.401.065.825-.014.51-.1.854-.078 1.02.062.21.176.266.156.346-.177.063-.233.166-.355.267-.307.089.042.092-.065-.006-.25-.1-.216-.1-.279.008-.181.102.078.29.105.42.058.167-.06.356-.003.58.21.473.408.764.282.556-.263-.087-.242-.012-.237.494 0 .557.262.576.286.273.406-.272.12-.216.13.39.122.388-.004.756-.032.818-.064.061-.033.274-.026.482.025.854.185 1.036.225 1.342.198.175-.01.338.036.359.091.02.056.162.015.31-.1.165-.124.34-.134.443-.024.103.11.309.098.5-.013.185-.098.397-.122.467-.043.071.08.464.033.867-.102.57-.196.695-.199.606-.009-.066.14-.046.195.053.149.087-.052.331-.015.528.093.253.119.565.111.998-.056.354-.127.714-.205.803-.164.088.042.25.026.361-.046.11-.071.509-.163.889-.216.38-.053.821-.139.963-.211.155-.066.336-.058.42.027.083.086.227.076.318-.02a.364.364 0 01.373-.072c.101.048.232.032.262-.031.03-.064.136-.06.214.038.083.085.432.064.78-.05.347-.115.676-.192.745-.175.177.052.403.096.51.1.105.003.337.035.52.106.076.035.187-.036.24-.15.054-.114.246-.194.427-.217.224-.018.313.024.265.125a.155.155 0 00.074.204c.076.036.166-.091.205-.305.06-.326.098-.34.39-.14.172.126.342.16.371.096.03-.063.267-.075.519-.019.251.057.632.035.849-.033.223-.08.48-.068.588.029.23.2.615.072.639-.21.021-.144.096-.14.257.013.127.122.291.168.359.122.067-.045.3-.013.502.082s.459.107.595.047c.123-.065.51-.13.853-.14.343-.008.642-.053.666-.103.107-.228 1.249-.556 1.403-.391.122.134.215.1.34-.165.113-.24.199-.292.32-.19.083.086.34.13.571.1.23-.032.457.013.496.093.04.08.038.018.002-.169-.056-.273-.038-.311.113-.24.152.071.164.046.06-.126-.117-.179-.094-.23.166-.355.278-.131.271-.15-.017-.162a2.52 2.52 0 01-.464-.063c-.081-.023-1.689.442-1.807.463a.362.362 0 01-.316-.117c-.052-.086-.133-.078-.168-.002-.036.076-.18.086-.331.014-.152-.07-.321-.073-.407-.02-.086.051-.28.037-.432-.034-.279-.13-.279-.13.094-.234.484-.143 1.077-.189 1.254-.105.076.035.244.037.363.016 1.348-.34 2.849-.808 3.281-.513.293.2.456.245.504.144.041-.088.091-.096.118-.022.08.223-.51.394-.714.206-.166-.14-.24-.113-.364.184-.107.227-.087.283.016.162.182-.224.458-.187.352.041a.155.155 0 00.073.204c.076.036.162-.016.166-.122a.415.415 0 01.206-.274c.099-.046.32-.158.506-.257.327-.17.327-.17.121.104-.115.146-.142.303-.092.327.051.024.085.148.032.262-.054.114-.158.172-.234.137-.076-.036-.199.06-.264.2-.066.14-.049.301.052.349.291.136 1.172-.13 1.185-.354.01-.12.095-.203.196-.187.119.01.179-.085.186-.298.016-.363.026-.482.096-.696.047-.101-.047-.13-.259-.075-.242.056-.9-.022-.573-.192.228-.125 1.178-.11 1.255-.044.23.232.645.04.718-.311.055-.283.08-.302.198-.061.112.222.162.246.329.154.326-.202 1.515-.4 1.743-.293.152.071.238.02.234-.137.015-.132.058-.189.103-.121.072.11.435.126 1.526.037.206-.011.305-.058.235-.106-.076-.036.03-.063.242-.056.207.02.368-.059.347-.146-.015-.1.04-.151.128-.11.089.042.181-.023.229-.124a.33.33 0 01.283-.176c.15.01.162-.016.035-.075-.1-.048-.109-.129-.035-.187.073-.058.206-.011.302.08.115.116.177.083.179-.086.014-.163-.088-.273-.276-.3-.157-.027-.26-.105-.224-.181.036-.076.154-.098.268-.044.114.053.232.031.268-.044.035-.076.232-.2.455-.28.223-.081.474-.319.569-.52.095-.203.32-.453.486-.544.167-.092.313-.24.317-.345.01-.088.276-.226.58-.284l.579-.114-.284.376c-.345.47-.16.604.267.187l.31-.301-.146.378c-.44 1.168-.434 1.386.122 1.647.304.143.458.308.476.532.02.319-.512 1.288-.801 1.477-.087.052-.073.089.008.08.343-.04.843.736.754 1.157a7.41 7.41 0 00-.122.884c-.044.52-.306 1.046-.602 1.184-.105.06-.355.328-.554.62-.199.293-.467.568-.585.621-.13.047-.517.313-.866.597-1.152.94-2.39 1.471-3.965 1.704-.816.126-1.545.2-1.596.177-.05-.024-.585.096-1.162.272-.577.177-1.111.296-1.2.255-.088-.042-.51.069-.937.254-.427.186-1.26.35-1.847.384-.581.02-1.303.144-1.606.264-.304.12-.596.184-.646.16-.051-.024-.313.008-.568.058-.26.063-.567.058-.694-.002-.126-.06-.488-.013-.804.101-.316.114-.62.203-.683.174-.227-.107-1.614.183-2.357.483-.44.18-.849.296-.9.272-.05-.024-.386.035-.733.15-.342.102-.696.167-.785.125-.088-.041-.592.077-1.106.252-1.048.358-1.017.357-2.84.427-1.174.035-1.71.123-2.428.372-.143.041-.318.052-.381.022s-.287.02-.46.124c-.21.118-.378.116-.45.005-.084-.117-.102-.11-.093.034.016.13-.075.227-.212.255-.15.022-.01.119.382.272.34.129.784.368 1 .531.204.158.501.282.676.271.162-.016.52.044.785.137.416.134.474.207.425.508l-.06.358.224-.28c.158-.204.344-.24.64-.148.227.076.465.095.526.031.067-.076.174-.042.291.137.104.141.535.405.977.582.436.19.841.41.906.503.065.092.217.163.367.172.15.009.221.088.18.177-.042.088.029.168.179.177.194.013.202.063.037.249-.182.192-.15.253.166.402.342.16.355.166.044.236-.187.036-.321.158-.306.258.039.311.58.18.783-.188.083-.177.11-.303.03-.295-.212.024.142-.566.366-.615.1-.015.35.041.566.142.215.101.371.097.356-.002-.015-.1.04-.151.116-.116.076.036.14.128.156.228.008.08.47.344 1.04.58.959.389 1.035.456 1.331 1.042.178.346.36.648.41.671.178.084.776-.237.723-.386-.021-.087-.003-.094.062-.002.052.087.384.135.715.12.65-.035 1.406.228 1.148.384-.087.052-.091.128-.015.163.076.036.207.02.28-.038.086-.052.3-.014.502.081.203.096.638.254.965.345.34.098.587.23.557.293-.095.202-.72.218-.905.022-.096-.091-.19-.12-.227-.044-.083.177.244.5.469.482.112-.009.102.079-.069.277-.212.255-.204.336.133.572.427.308.646.334.77.068.048-.101.205-.105.388-.003.19.089.25.225.17.296-.08.07.006.25.185.395.39.322 1.163.284 1.33-.07.059-.127.194-.218.313-.208.157.027.18-.055.098-.34-.068-.217-.045-.33.043-.289a.161.161 0 01.08.223c-.041.089.072.111.27.05.199-.061.436-.073.55-.02.114.054.314.055.457.014.18-.055.205-.043.088.041a.204.204 0 00-.055.283c.071.11-.077.165-.39.141-.376-.022-.543.07-.661.323-.178.379-.076.489.296.355.204-.074.211-.055.046.099-.195.186-.078.364.17.264.074-.027.4.065.754.2.732.282.982.276.945.027-.01-.112.053-.114.194.014.172.158.253.119.408-.179.154-.329.16-.373-.082-.285-.223.08-.312.039-.493-.2-.259-.37-.327-.618-.155-.722.068-.045.164.077.225.245.094.26.151.302.336.204.142-.073.5.019.93.22.608.286.691.371.539.531-.182.223-.04.382.187.227.24-.15.48.225.28.455-.128.141-.125.266.079.423.357.292.642.178.557-.232-.05-.255-.044-.268.035-.076.06.136.22.257.35.273.202.032.209.05-.004.075-.217.036-.228.093-.14.366.107.297.183.333.86.435.508.068.767.175.827.31.04.112.155.197.254.182.28-.038.445-.486.246-.688-.09-.104-.165-.108-.15-.008.015.1-.048.1-.15-.01-.09-.103-.144-.22-.114-.284.06-.126-.654-.415-.934-.377-.243.025-.43-.202-.31-.423.047-.102.086-.053.108.097.03.23.043.236.138.034.13-.278.463-.261.876.04.172.128.342.161.378.085.035-.076.104-.09.156-.004.058.074.527.356 1.071.611.835.392.988.526 1.02.82.039.28-.015.362-.244.455-.428.154-.465.924-.035 1.126.29.137.297.124.159-.141-.138-.266-.114-.285.325-.265.256.013.513.056.57.099.046.036.17.002.261-.094.25-.238.435-.105.293.199-.09.19-.05.27.189.32.244.038.288.012.19-.142-.078-.13-.073-.173.028-.126.266.125.79-.138.82-.432.026-.251.467-.368.703-.18.05.023.125-.003.16-.08.048-.1.15-.022.28.194.136.203.385.397.63.465.41.115.41.115.061.2-.205.042-.303.12-.202.167.089.041.117.178.064.292-.172.367.8.267 1.214.307.119.01.278.13.38.24.104.142.224.183.316.118.086-.052.268-.044.42.027.151.072.251.057.243-.024-.008-.081.12-.191.276-.226.23-.062.267-.044.158.09-.163.216 1.42 1.021 1.793 1.243.375.222.27.806.143.978-.084.114-.081.24-.005.275a.155.155 0 00.204-.074c.036-.076.18-.085.33-.014.153.071.322.073.402.034.086-.053.35.01.597.141.734.376.905.178.389-.466-.24-.313-.547-.611-.66-.665-.254-.118-.317-.41-.087-.441.362-.047 1.285.387 1.518.712.142.19.314.317.401.297.075-.027.064.03-.052.145-.287.282-.14.428.276.3.36-.11.372-.104.117.209-.187.236-.209.38-.08.564.092.136.125.228.062.199-.152-.072.229.925.393 1.003a.155.155 0 00.205-.074c.035-.076.28-.038.546.086.303.143.598.173.777.087.185-.098.304-.088.32.042.057.274.612.504.625.248.019-.239.258-.157.523.2.123.165.212.206.254.118.041-.089.193-.017.41.177.243.207.375.254.423.152.047-.1.085-.083.102.079.039.312.31.13.362-.246.015-.163.051-.208.092-.096.09.335.799.961 1.022.88.13-.046.14-.103.04-.15-.089-.042-.123-.166-.07-.28.054-.114.153-.129.237-.043.198.201-.004.6-.359.665-.242.056-.172.104.339.298 1.198.439 2.032.537 2.174.234.096-.203.063-.265-.163-.278-.469-.02-1.576-.554-1.733-.844-.118-.21-.089-.305.114-.44.295-.202.886-.079 2.154.409.498.187 1.034.362 1.203.364.194.014.251.056.165.108s.023.15.293.23c.353.104.404.16.232.263-.222.143-.277.195-.462.524-.06.127-.178.148-.268.044-.083-.085-.328-.123-.527-.093-.305.058-.366.122-.323.327.069.28.412.502.495.325.083-.177.854.417 1.199.965.045.067.088.041.098-.078.016-.132.165-.154.468-.043.669.253.933.315 1.081.261.075-.027.19.058.249.194.086.18.193.214.447.133.236-.075.538.005.981.244.539.3.708.333 1.13.16.265-.107.558-.139.648-.066.102.078.225.013.302-.151.107-.228.22-.237.713-.006.316.149.609.38.669.515.06.199.13.216.308.099.148-.085.192-.08.145.021-.125.266.373.422.78.243.199-.092.467-.105.575-.039.171.096.152.103-.061.064-.226-.044-.257-.012-.163.248.06.167.195.277.301.28.112-.009.42.027.702.083.446.101.478.132.238.25-.161.08-.048.101.263.031.809-.145 1.352.08 1.156.497-.089.19-.05.27.126.29.207.02.224-.018.139-.197-.085-.148-.067-.154.099-.015.116.116.342.16.497.126.404-.104.708.07.774.455.036.187.165.34.315.349.194.014.195.045-.021.144-.142.072-.412.054-.589-.029-.189-.09-.32-.073-.305.026.015.1-.076.227-.181.286a2.36 2.36 0 00-.411.316c-.171.167-.157.204.06.136.18-.054.268-.012.284.118.016.131.117.179.342.16.255-.018.287.012.147.147-.116.116-.095.203.095.292.151.07.289.305.325.523l.06.398.294-.263c.164-.154.269-.213.252-.144-.029.063.127.06.338.004.217-.068.398-.06.425.015.027.074.203.095.394.015.192-.08.318-.052.288.012-.029.063.061.198.195.276.151.071.283.087.313.024.029-.064.236-.044.464.063.265.125.434.127.5-.012.053-.114.158-.173.234-.137.076.035.078.13.024.212-.073.09.004.187.193.245a.61.61 0 01.378.378c.036.156.146.315.234.357.089.041.157.259.156.49 0 .231.073.404.172.39.1-.016.173-.074.159-.142-.014-.068.197-.124.454-.111.262 0 .461-.062.453-.143-.033-.293.223-.049.346.348.116.41.819.786 1.134.61.104-.06.181.008.198.17.023.18.073.204.121.103.042-.089.14-.135.216-.1.076.037.072.112-.014.164-.111.071.009.143.324.23.271.08.756.23 1.097.36.328.123.673.177.759.125.154-.098.455.213.353.366-.072.12.022.15.574.223.884.122 1.332.286 1.502.582.098.154.102.31.04.343-.075.027-.067.076-.004.106s.22.026.344-.008c.148-.054.314.054.547.38.498.681 1.318.974 2.043.743.527-.169.576-.208.451-.467-.118-.241-.1-.279.118-.316.498-.074.182-.223-.494-.231-.444-.008-.846-.104-1.151-.31-.261-.168-.569-.267-.706-.238-.162.048-.238-.02-.25-.225-.018-.225-.088-.273-.369-.266-.255.019-.338-.035-.335-.173.009-.15-.048-.161-.233-.063s-.254.081-.246-.069c.004-.106-.112-.254-.251-.319-.24-.113-.223-.15.327-.433.426-.217.594-.246.61-.084.017.162.079.16.238.02.19-.174.215-.162.264.062.072.373.513.75.715.613.111-.071.319.011.587.198.267.187.519.275.706.24.192-.05.325-.003.442.176.09.135.269.28.395.309.151.04.184.133.08.223-.226.218.463.526.854.385.241-.087.323-.064.422.152.072.142.309.361.525.493.71.395.864.56.835.917-.014.194-.061.327-.086.315-.038-.018-.015.132.064.323.062.199.159.353.222.351.062-.001.186.196.286.443.226.57.515.644.962.251.233-.2.413-.254.515-.144.096.092.19.09.256-.018.059-.127.111-.072.16.152.036.186.165.34.278.362.119.01.347.148.526.293.185.164.343.223.379.147.035-.076.091-.096.154-.066.293.199.454.151.596-.153.09-.19.194-.28.252-.206.045.068.157.059.261-.031a.348.348 0 01.374-.072c.114.053.226.044.261-.031.036-.076.188-.005.379.146.173.159.407.284.526.294.176.02.152.071-.119.253-.184.13-.348.315-.364.415-.017.1-.141.135-.255.081-.139-.065-.244-.006-.277.163a.47.47 0 01-.317.314c-.205.043-.185.099.138.266.265.125.591.154.907.04.273-.088.584-.127.698-.074.19.09.714-.205.666-.366-.026-.043.081-.04.226.013.139.066.236.22.209.376-.033.201-.107.228-.273.088-.121-.103-.253-.118-.294-.03-.119.253.517.444.824.248.16-.11.366-.152.454-.11.127.059.109.097-.077.164-.372.134-.35.252.046.361.384.103.537-.026.375-.272-.215-.332.436-.83.834-.658.151.071-.111.565-.287.545-.219-.026-.046.657.22.813.121.072.37.297.549.474.399.434.64.347.621-.203-.017-.424.001-.431.709-.361.401.034.822.123.936.177.114.053.289.043.35-.021.152-.16.63-.028.547.149-.035.075.092.166.305.205.371.066.947.614.858.803a1.382 1.382 0 00-.061.327c-.003.138-.182.223-.413.223-.338-.004-.395-.047-.382-.272.008-.181-.031-.23-.122-.135-.08.071-.28.07-.457-.013-.417-.196-.464-.064-.148.578.217.426.319.505.593.48.181-.024.376.022.415.102.058.073.115.084.15.009.036-.076.256-.02.478.1.272.144.376.285.297.387-.079.102-.021.175.186.195.289.043.471.082 1.421.328.478.132 1.236-.3.857-.478-.114-.053-.141-.128-.079-.16.16-.11-.157-.553-.454-.646-.138-.034-.19-.12-.11-.16a.158.158 0 01.214.04c.045.067.139.064.224-.019.092-.096.208.051.348.41.107.298.25.52.331.48.148-.085 1.038-.207 1.14-.16.037.018.01.175-.073.352-.148.316.062.724.302.574.067-.046.27.05.468.22.274.237.343.254.351.072.015-.163.127-.172.368-.059.19.09.433.096.525 0 .104-.09.247-.1.337.004a.51.51 0 00.416.102c.192-.049.249-.006.235.188-.002.138.039.28.102.31.063.03.117-.053.133-.184.026-.451.31-.102.323.429.018.487 0 .525-.292.589-.224.049-.327.17-.389.434-.095.465.006.513.786.462.337-.027.733.05.873.147.152.103.429.17.616.135.186-.036.43-.03.532.018.189.09.841-.083.67-.179-.063-.03.03-.063.192-.08a.567.567 0 00.412-.285c.101-.215.17-.198.438.02.581.505 1.649.991 1.947.884.316-.114 2.148.684 1.908.834-.073.058-.041.089.064.06.112-.008.259.107.344.255.118.24.131.247.15.009.021-.176.088-.253.202-.199.101.047.141.159.099.248-.041.088-.08.302-.088.452-.014.225-.082.24-.36.109-.19-.09-.378-.116-.402-.065-.065.139-.766.119-.926-.034-.077-.067-.079-.16-.024-.212.068-.045-.041-.142-.218-.226-.177-.083-.327-.091-.319-.01.008.08-.186.067-.425-.015-.53-.187-.801-.005-.437.305.134.109.222.35.188.52-.044.226.001.294.175.252.298-.076 1.641.122 2.02.3.177.083.345.054.399-.06.053-.114.145-.178.221-.143.076.036.111.16.108.298-.003.137.145.315.385.428.266.124.435.126.5-.013.125-.265.378-.147.354.166-.015.132.062.23.162.215.112-.009.135-.09.051-.207-.078-.13.083-.177.49-.156.814.042.839.054.537.5-.174.272-.184.391-.045.425.138.034.134.14.014.331-.103.153-.117.316-.041.351.076.036.168.002.198-.06.06-.127.828-.153 1.461-.056.358.06.661-.322.473-.611-.065-.093-.096-.092-.081.008s-.083.177-.202.167c-.132-.015-.198-.139-.17-.296.044-.226-.032-.292-.372-.36-.238-.05-.509-.13-.617-.196-.114-.054-.393-.216-.653-.353-.252-.119-.375-.253-.275-.268.1-.015.266-.107.376-.21.232-.23 1.215.077 1.757.532.671.577 2.718 1.214 3.163.99.222-.111.223-.08-.014.226-.157.204-.495.431-.787.526-.273.088-.507.225-.518.281-.004.076-.117.085-.23.031-.114-.053-.226-.013-.229.093-.026.22.545.55.754.432.08-.04.239.05.362.216.239.313.623.416.73.188.035-.076-.024-.18-.138-.234-.151-.071-.147-.147.037-.276a.53.53 0 00.214-.455c-.025-.275.308-.458.395-.216.02.055.184.101.358.09.188-.004.383.072.474.208.104.141.312.223.593.216.481-.005 2.512.701 2.132.754-.293.032-.272.382.019.518.189.09.177.115-.132.247-.346.147-.355.297.024.444.113.053.243-.025.271-.15a.292.292 0 01.301-.215c.132.016.28-.069.327-.17.053-.114.266-.107.588.03.266.124.543.192.598.172.056-.02.177.083.287.212.103.14.211.207.241.144.03-.064.3-.014.609.116.366.14.513.256.408.315-.086.052-.091.127-.015.163.076.035.163.014.199-.061.035-.076.168-.03.289.074.134.109.342.16.478.132.125-.035.52.012.859.11.624.184 1.045.011.83-.321-.078-.13.019-.238.397-.385.569-.226.691-.354.487-.543-.148-.146.149-1.041.326-.958.063.03.155-.035.209-.15.053-.113.196-.154.31-.1.114.053.147.146.067.185-.086.052-.048.101.103.11.137.003.435.158.67.315.541.393.616 1.154.129 1.434a.975.975 0 01-.648.098c-.276-.069-.27-.05.028.105.202.095.331.248.302.312-.03.063.049.223.164.34.154.133.171.326.07.541-.083.177-.084.409.012.5.096.091.125.26.078.36-.048.102-.016.364.052.58.08.224.107.792.074 1.255-.038.476-.001.957.077 1.055.084.116.048.423-.076.72-.173.367-.161.573-.015.688.288.243.237.482-.274 1.276-.241.381-.444.78-.422.898l.019.025zm-22.741-15.74c-.086.052-.009.15.143.221.152.072.29.106.302.08.06-.126-.315-.38-.432-.295l-.013-.006zM67.19 23.247a.155.155 0 00.204-.073c.036-.076.04-.151.002-.17-.038-.017-.13.016-.204.074-.086.053-.09.128-.002.17zm-7.836 3.638s-.077.164-.22.237c-.16.079-.103.09.158.027.23-.062.446-.16.475-.224.03-.063-.052-.118-.19-.12-.132-.016-.23.03-.21.086l-.013-.006zm-.03-.462c.076.036.194.014.262-.031.086-.052.047-.101-.103-.11-.27-.018-.367.059-.178.148l.019-.007zm-.653.666c.064.03.212-.024.304-.12.28-.269.165-.385-.16-.152-.16.11-.22.237-.156.267l.012.005zm-.504.088c-.077.164.062.23.405.19.212-.024.198-.061-.042-.174-.164-.077-.333-.08-.363-.016zm-.508.194c-.102-.11-.165-.109-.15-.01.017.163.24.345.294.231.011-.025-.047-.13-.137-.234l-.006.013zm.034-.432c.139.065.227.075.212.007-.014-.069-.14-.128-.253-.119-.119-.01-.111.04.04.112zm-3.364.227c.015.1.049.192.074.204.038.018.093-.034.129-.11a.155.155 0 00-.074-.204c-.076-.036-.131.016-.129.11zm-34.081 1.148c.076.036.163.015.198-.061.036-.076.014-.194-.038-.28-.052-.087-.139-.066-.198.06-.06.127-.032.233.044.268l-.006.013zm2.193.72c-.039-.31-1.242-.444-1.523-.174-.135.122-.279.1-.584-.104-.255-.182-.362-.216-.29-.074.066.123.02.287-.102.415-.201.198-.201.198.128.09.185-.067.46-.061.587-.002.127.06.314.055.393-.016.11-.102.174-.041.224.182.096.354.283.35.45-.005.059-.126.257-.218.414-.191.175.02.305-.026.291-.095l.012-.025zM58.044 65.71c-.136.29.198.401.404.127.078-.102.044-.226-.07-.28-.114-.053-.256.02-.32.159l-.014-.006zm-.869-1.273a.155.155 0 00.074.205c.076.035.151.04.169.002.018-.038-.016-.131-.074-.205-.052-.086-.133-.078-.169-.002zm-2.089-.81c.076.035.207.02.28-.039.087-.052.091-.127.016-.163a.304.304 0 00-.28.038c-.074.058-.091.128-.016.163zm-3.175-2.047c.162.014.202.095.113.284-.155.33.042.437.31.193.141-.135.204-.137.226.013.032.293.628.372.84.117.316-.377-.645-1.09-1.235-.92-.46.124-.586.296-.248.331l-.007-.018zm-1.984-1.858c.176.283.29.337.468.22.086-.052-.01-.175-.232-.263-.29-.137-.34-.13-.236.043zm-.327.17c.015.1.048.193.074.205.025.012.093-.033.128-.11a.155.155 0 00-.074-.204c-.075-.035-.13.016-.128.11zm-8.287-6.02c.139.065.227.076.212.007-.026-.074-.14-.128-.252-.118-.12-.01-.112.04.04.111zm-.473-14.084a.155.155 0 00.073.205.155.155 0 00.205-.074.155.155 0 00-.074-.204.155.155 0 00-.204.074zm-2.173-.402c.233.063.634.128.891.14.238.02.437-.042.422-.141-.01-.112-.135-.14-.308-.068-.372.135-.435.105-.69-.339-.111-.19-.264-.325-.339-.298-.074.027-.072.12 0 .2.114.116.09.167-.132.279-.24.118-.221.142.169.233l-.013-.006zM37.312 49.57c-.113-.053-.154-.196-.09-.335.108-.228.108-.228-.138-.065-.326.233-.453.142-.654-.415-.202-.558-.593-.942-.795-.806-.087.052-.256.019-.372-.097-.377-.347-.355.034.019.487.251.319.312.486.171.621-.165.154-.095.202.314.317.315.086.557.262.668.453.15.27.07.342-.196.154-.05-.023-.12-.01-.155.067-.1.215.194.276.748.181.554-.095.828-.414.499-.568l-.019.006zm.489.538c.035-.075-.016-.13-.116-.115-.1.014-.204.073-.24.15-.035.075.016.13.116.115s.204-.074.24-.15zm.885-.834s-.11-.191-.301-.311c-.267-.156-.316-.149-.212.024.169.264.448.426.52.274l-.007.013zm4.746-8.268c-.067-.217-.93.01-.9.24.024.213.62.292.803.1.085-.084.131-.247.097-.34zm1.035 1.15a.155.155 0 00-.073-.205c-.076-.036-.131.016-.13.11.016.099.05.192.075.204.038.018.093-.034.128-.11zm1.865-.16c.042-.088-.027-.105-.176-.051-.334.12-.6-.035-.476-.3.06-.127.045-.196-.042-.175-.074.027-.208.18-.285.345-.078.164-.207.242-.302.182-.083-.054-.188-.026-.242.087-.077.165-.02.207.337.236.238.019.581-.02.774-.07.18-.054.37-.165.406-.24l.006-.013zm.58-.051a.575.575 0 00-.359.14c-.195.186.394.51.64.347.197-.124-.005-.481-.28-.487zm1.59.823c-.102-.079-.315-.086-.476-.038-.465.168-.413.254.148.209.337-.027.442-.086.328-.17zm4.517 1.457s-.113-.053-.212.025a.28.28 0 01-.345-.055c-.096-.09-.303-.11-.463-.032-.278.132-.259.157.213.27.276.068.583.073.675.008.092-.064.152-.16.145-.21l-.013-.005zm7.857 3.288s-.015-.13-.073-.205c-.053-.086-.134-.078-.17-.002a.155.155 0 00.075.205c.075.035.15.04.168.002zm.548-.607c-.074-.205-.283-.056-.258.187.023.18.049.193.164.077.08-.07.12-.19.094-.264zm5.161 2.716c.036-.076-.04-.143-.178-.146-.132-.015-.25.007-.262.032-.012.025.065.092.178.146.114.053.233.031.262-.032zm4.212 1.484a.155.155 0 00-.204.073c-.036.076-.04.152-.002.17.038.017.13-.017.204-.075.086-.052.078-.133.002-.168zm1.067 9.53s-.016-.13-.074-.204c-.052-.086-.133-.078-.169-.002a.155.155 0 00.074.204c.076.036.151.04.17.002zm8.981-3.84c.036-.077.04-.152.002-.17-.038-.017-.13.016-.204.074-.087.053-.09.128-.002.17.088.04.168.001.204-.075zm3.74 1.107a.155.155 0 00-.204.074c-.036.076-.04.15-.002.169.038.017.13-.016.204-.074.087-.052.09-.127.002-.169zM96.89 62.8c.253.118.474.207.492.169.017-.038-.03-.2-.103-.373-.087-.21-.055-.18.127.09.143.222.278.363.29.337a1.23 1.23 0 01.176-.21c.25-.238-.595-.542-1.041-.38-.26.093-.237.218.071.372l-.012-.005zm-2.16 6.704c.154-.098-.156-.26-.513-.288-.138-.003-.237.044-.228.125.016.162.563.28.754.168l-.013-.005zm7.679-4.422c.278-.132.272-.15-.129-.184-.313-.024-.389-.06-.26-.138.111-.071.085-.114-.109-.128-.151-.009-.322-.105-.375-.222-.046-.099-.244-.27-.421-.352a10.48 10.48 0 01-.766-.406c-.438-.252-1.028-.112-.665.166.102.079.143.222.095.323-.095.202.117.41.699.714.266.124.372.128.35-.021-.017-.162.015-.132.114.053.151.303.681.52.991.42.112-.04.328-.14.489-.219l-.013-.006zm-.71 6.412c.035-.076.04-.15.002-.169-.038-.018-.131.016-.205.074-.086.052-.072.12.004.156.076.036.169.002.199-.06zm7.577-1.706c.215.1.309.098.194.014-.108-.097-.298-.186-.404-.19-.107-.004-.017.069.21.176zm.034.355c-.174.042-.335.09-.347.115-.054.114.096.092.374-.04.265-.138.265-.138-.027-.075zm12.526 4.029c-.052-.087-.139-.066-.199.06-.113.241-.049.302.148.178.068-.045.09-.158.038-.244l.013.006zm1.536 7.512s-.105-.172-.295-.292c-.279-.162-.329-.155-.267.075.068.249.472.407.567.205l-.005.012zm3.953-4.935c.053-.114.032-.232-.032-.262-.063-.03-.13.047-.145.179-.016.131.006.25.031.261.026.012.092-.064.146-.178zm7.818 3.995c-.173-.19-.37-.329-.464-.326-.225.017.284.642.541.655.15.009.123-.097-.077-.33zm.83 1.454a.236.236 0 00-.328.14c-.065.139-.032.2.054.148.086-.052.235-.106.328-.14.087-.02.072-.088-.054-.148zm4.506.233c-.052-.087-.103-.11-.12-.072a1.818 1.818 0 01-.207.242c-.091.096-.126.203-.05.239.076.036.206-.011.297-.107.086-.084.12-.222.08-.302zm3.132 2.041c.036-.076.015-.163-.061-.198-.076-.036-.194-.014-.268.044-.086.052-.065.139.061.198.127.06.232.032.268-.044zm4.731 1.727c-.394.016-.466.106-.201.23.101.048.269.019.361-.078.14-.134.108-.165-.16-.152zm1.68.959a.156.156 0 00-.074-.205c-.076-.035-.131.016-.129.11.015.1.049.192.074.204.026.012.093-.033.129-.11zm14.787 6.248c-.287-.212-.521-.075-.401.228.061.167.048.162.367.172.376.022.384-.16.04-.413l-.006.013zm1.302.58s-.12-.04-.173.073c-.107.228-.075.258.122.134.067-.045.096-.14.051-.207zm3.476 1.045c-.088-.041-.212.024-.259.157-.07.183-.201.198-.561.045-.594-.248-.581-.242-.551-.043.024.212.22.289.814.336.464.033.886-.34.557-.495zm3.405-1.334c.086-.052.053-.145-.074-.204-.126-.06-.207-.02-.204.073.002.094.036.187.073.205.038.018.119-.022.205-.074zM43.091 53.24c.086-.053.015-.163-.137-.235-.152-.07-.27-.05-.268.044.015.1.074.205.137.235.064.03.182.008.268-.044zm-.49.187c-.034-.156-.137-.266-.23-.264-.082.009-.246-.068-.355-.166-.154-.165-.155-.196.082-.24.218-.036.211-.054-.021-.086a2.208 2.208 0 01-.39-.09c-.063-.03-.136.059-.183.191-.034.139.026.275.146.316a.276.276 0 01.2.295c-.015.131.02.255.057.273.039.018.068-.045.066-.139-.015-.1.141-.103.343-.008.304.142.341.129.285-.114v.032zm-3.038-2.57c.048-.1.05-.238.005-.306-.045-.067-.15.023-.232.2-.084.177-.087.314-.005.306.08-.008.185-.098.232-.2zm-.486.838c.114.053.245.038.28-.038.037-.076.016-.163-.06-.199-.076-.036-.194-.014-.268.044-.086.052-.065.14.061.199l-.013-.006zm4.151 1.779c-.035.076.13.215.37.328.368.172.405.159.225-.05-.29-.336-.53-.449-.608-.284l.013.006zm1.06.899c-.065.139-.076.226-.007.212.061-.033.127-.14.119-.253.009-.119-.04-.111-.112.04zM59.3 45.707c-.261.031-.31.101-.32.42-.01.645.426.571.553-.095.055-.313.029-.356-.245-.331l.012.006zm-2.83-.943c-.11-.16-.674.023-.78.25-.042.09.04.112.187.027.142-.072.33-.076.4.003.16.152.311-.07.188-.267l.005-.013zm59.192 26.478c.047-.101.026-.188-.055-.18a.283.283 0 00-.203.136c-.029.063-.008.15.055.18s.155-.035.209-.149l-.006.013zM38.483 51.416a.155.155 0 00.074.204.155.155 0 00.204-.074.155.155 0 00-.074-.204.155.155 0 00-.204.074zm113.059 36.578c-.087.052-.066.14.061.199.24.113.301.049.177-.148-.045-.068-.158-.09-.244-.038l.006-.013zM45.565 54.71c-.614-.304-1.125-.266-1.042.082.041.142.214.3.378.347.163.046.396.109.497.156.101.048.2-.03.196-.155.01-.119.107-.227.208-.211.106.003-.002-.094-.243-.207l.006-.012zm10.456-9.184c.137.002.32.042.408.083.088.042.08-.04-.01-.175-.182-.27-.477-.3-.584-.073-.035.076.041.143.185.165zM23.447 29.322c-.086.053-.078.134-.002.17a.155.155 0 00.204-.075c.036-.075.04-.15.003-.168-.038-.018-.131.015-.205.074zm50.14 31.983c-.277-.036-.674.317-.6.522.08.191.609.378.85.291.52-.188.345-.733-.25-.813zm-.162-.183s-.012.025.001.031c.025.012 0 0 0-.031zm8.385 4.168c-.091.096-.145.179-.12.19.025.013.168-.029.31-.1.155-.067.209-.15.12-.191-.088-.042-.206.011-.31.101zM49.914 26.806c.035-.076.04-.151.002-.169-.038-.018-.131.016-.205.074-.086.052-.09.127-.002.169.089.041.169.002.205-.074zm-3.035 29.478a.155.155 0 00.074.204c.076.036.151.04.169.002.018-.038-.016-.13-.074-.204-.052-.087-.133-.078-.169-.002zM23.91 29.03c.198-.124.184-.161-.255-.506-.345-.286-.351-.273-.235.105.13.447.257.538.49.4zm25.099-1.94c.28-.069.437-.273.273-.35-.228-.107-.587.033-.551.22.022.15.085.18.278.13zm9.442 37.59c-.086.052-.09.127-.002.169.089.041.169.002.205-.074.035-.076.04-.151.002-.169-.038-.018-.131.016-.205.074zm-11.065-7.896c-.065.139-.075.227-.007.212.062-.032.128-.14.119-.253.01-.119-.04-.111-.112.04zm.362-.047c-.067.077-.047.133.053.149.189.027.322-.158.17-.23-.05-.023-.156.005-.223.081zm5.856 4.525c-.036.076.023.18.137.234.114.053.207.02.192-.08-.015-.1-.074-.204-.137-.234-.064-.03-.157.004-.192.08zm-4.499-3.208c.156.49.188.52.403.359.08-.071.616.135.434-.136-.298-.449-1.416-1.421-1.464-1.32-.065.139-.268.506-.366.353-.156-.228-.405.04-.33.339.063.261.101.279.348.148.185-.099.342-.071.508.068.192.183.242.176.248-.068.009-.182.092-.096.2.264l.02-.007z" fill="#000"/></g><defs><clipPath id="clip0_1448_2720"><path fill="#fff" transform="rotate(25.149 10.298 53.848)" d="M0 0h178.806v54.297H0z"/></clipPath></defs></svg>