<svg width="146" height="21" fill="none" xmlns="http://www.w3.org/2000/svg"><path fill-rule="evenodd" clip-rule="evenodd" d="M11.165 13.51c1.082-2.4 2.057-4.6 3.14-6.9.433-.9.866-1.9 1.299-2.8 1.624-3.3 5.846-4.7 9.42-3.2.757.3 1.515.8 2.165 1.4.65.6.866.4 1.407 0 2.382-1.9 5.63-2.5 8.662-1.6 1.083.3 1.949.8 2.707 1.6.541.6.758.5 1.299.1 2.815-2 5.955-2.7 9.203-1.4 2.599.9 4.33 3.3 4.223 5.9.108 3.6 0 7.3 0 10.9.108 1.6-1.191 3-2.924 3.1h-.65c-1.623-.1-2.923-1.4-2.706-3v-9.8c0-1.4-1.191-2.6-2.707-2.7-1.624-.3-3.14.6-3.573 2-.108.4-.216.9-.108 1.4v8.9c.216 1.4-.758 2.8-2.274 3.1-1.624.5-3.248-.3-3.79-1.8-.108-.1-.108-.3-.108-.5-.108-.4-.108-.8-.108-1.2v-9c.108-1.1-.541-2.2-1.624-2.7-1.19-.6-2.598-.4-3.681.3-.866.6-1.3 1.6-1.191 2.6v9.3c.108 1.5-1.083 2.9-2.707 3h-.541c-1.733 0-2.924-1.3-2.924-3.2V6.11c.109-.4-.216-.8-.65-.8a.972.972 0 00-1.082.5l-1.949 3.9c-1.299 2.7-2.598 5.3-3.897 7.9-.325.6-.65 1.1-.975 1.6-1.19 1.6-3.573 2.1-5.413 1-.325-.3-.758-.6-.975-.9-.758-1-1.3-2.1-1.84-3.2-1.95-3.9-3.898-7.8-5.847-11.8-.866-1.3-.433-3 .974-3.7.109-.1.217-.1.325-.2 1.516-.7 3.248-.1 4.006 1.3.108.1.108.2.108.4 1.625 3.6 3.357 7.2 4.873 10.8.108.1.216.3.433.6zm60.198-8.1l-2.382 6.3c-.866 2.5-1.949 4.9-2.815 7.3-.325.9-.866 1.3-1.732 1.4-.866 0-1.624-.5-1.95-1.3-2.165-5.5-4.33-11.1-6.495-16.6-.325-.7-.109-1.5.65-1.9 0 0 .108 0 .108-.1.866-.3 1.732.1 2.057.8 0 .1.108.1.108.3 1.624 4.3 3.356 8.7 4.872 13.1.108.3.217.6.433 1 .758-2.1 1.516-4.1 2.274-6 .974-2.7 1.949-5.3 2.923-7.9.433-1 .758-1.4 1.733-1.3.866 0 1.299.3 1.732 1.4 1.624 4.3 3.248 8.6 4.764 12.9.108.3.216.7.433 1 .866-2.2 1.624-4.3 2.382-6.4.974-2.6 1.949-5.1 2.923-7.7.217-.6.541-1 1.191-1.2.758-.2 1.624.2 1.84 1 .109.3.109.6-.108.9-.54 1.4-1.082 2.9-1.732 4.3-1.624 4.1-3.14 8.1-4.764 12.2-.108.1-.108.2-.108.3-.217.7-.975 1.2-1.84 1.2-.867 0-1.516-.5-1.733-1.3l-2.274-6-2.706-7.2c.54-.1.433-.3.216-.5zm30.966 12a9.262 9.262 0 01-5.197 3c-3.14.6-6.063.3-8.445-1.9-2.382-2.3-2.382-5.9 0-8.2.325-.3.758-.6 1.19-.8 1.517-.8 3.14-1.2 4.873-1.3 2.274-.1 4.547.1 6.821.6.65.2.65 0 .65-.5.216-2.6-1.949-4.9-4.764-5.1h-.433c-2.057-.2-4.006.1-5.955.8-.65.3-1.408.1-1.733-.5v-.1s0-.1-.108-.1c-.325-.6 0-1.3.65-1.6h.108c3.573-1.5 7.579-1.6 11.26-.3 2.382.9 3.898 3 4.006 5.4.217 2.6.217 5.1.109 7.7v4.5c.108.8-.542 1.5-1.3 1.6-.758.1-1.516-.4-1.732-1.1v-2.1zm-5.955-7c-1.624-.1-3.248.3-4.656 1.1-1.732 1.1-2.165 3.3-.974 4.9.216.3.541.6.866.8 1.516 1 3.465 1.4 5.305 1 2.49-.5 4.548-1.6 5.306-4 .108-.8.216-1.6.108-2.4.108-.4-.217-.7-.541-.8h-.109c-1.732-.4-3.464-.6-5.305-.6zm35.296 1.2h-6.929c-.542 0-.65.1-.65.6.541 2.5 1.949 4.5 4.764 5.4 2.815.9 5.955.3 8.12-1.6.325-.3.758-.6 1.299-.6.542 0 .975.3 1.191.8.217.5.109 1-.324 1.4-4.006 3.8-10.503 4-14.833.5-1.733-1.5-2.815-3.5-3.14-5.6-.758-3.3.325-6.7 2.706-9.2 2.382-2.5 6.064-3.5 9.528-2.5 3.682.9 5.739 3.3 6.713 6.6.217.9.325 1.8.325 2.7 0 1.2-.541 1.6-1.841 1.6-2.382-.1-4.655-.1-6.929-.1zm-1.083-2.2h4.764c2.166 0 2.166 0 1.516-1.9-1.083-3.4-4.439-5.3-7.904-4.3-2.707.9-4.547 3.2-4.872 5.8-.108.5.325.4.65.4h5.846zm-18.189-4.4a7.82 7.82 0 014.331-3.8c.866-.4 1.949-.7 2.923-.6.758 0 1.516.5 1.516 1.2.108.8-.325 1.5-1.191 1.7-.325.1-.758.1-1.083.2-3.464.7-6.063 3.5-6.279 6.8-.325 2.8-.109 5.6-.109 8.4.109.8-.541 1.5-1.407 1.6-.217 0-.325 0-.541-.1-.758-.1-1.3-.8-1.191-1.5V2.11c0-1 .649-1.8 1.515-1.8.975 0 1.624.6 1.624 1.8v2.6c-.216.1-.108.1-.108.3zm33.455-2.1c0 1.3-1.191 2.4-2.598 2.4-1.408 0-2.599-1.1-2.599-2.4 0-1.3 1.083-2.4 2.49-2.5h.109c1.407 0 2.598 1 2.598 2.3v.2zm-2.598-2c-1.191 0-2.057.8-2.057 1.9 0 1.1.974 2 2.057 2 1.082-.1 2.057-.9 2.057-1.9 0-1.1-.975-2-2.057-2z" fill="#000"/><path fill-rule="evenodd" clip-rule="evenodd" d="M143.039 1.71c1.299 0 1.515.4 1.082 1.4-.108.3 0 .3.109.5.108.2.216.3 0 .5-.217.1-.325 0-.542-.1l-.325-.3c-.324-.3-.541-.5-.541.1 0 .2-.108.4-.325.4-.216 0-.216-.3-.325-.5v-1c0-.8.109-1.2.867-1zm.649.7c-.108-.3-.325-.3-.541-.3-.217 0-.325.1-.325.3 0 .2.108.3.433.3.217.1.433 0 .433-.3z" fill="#000"/><path fill-rule="evenodd" clip-rule="evenodd" d="M143.688 2.41c0 .2-.216.4-.541.3-.325 0-.433-.1-.433-.3 0-.2.108-.3.324-.3.434 0 .65.1.65.3z" fill="#000"/></svg>