<svg width="177" height="28" fill="none" xmlns="http://www.w3.org/2000/svg"><path fill-rule="evenodd" clip-rule="evenodd" d="M13.549 17.752c1.314-3.154 2.496-6.044 3.81-9.066.526-1.183 1.051-2.497 1.577-3.68C20.906.672 26.031-1.168 30.367.803c.92.394 1.84 1.051 2.628 1.84.788.788 1.051.525 1.708 0C37.593.145 41.535-.643 45.214.539c1.314.395 2.365 1.052 3.285 2.103.657.788.92.657 1.577.131C53.492.145 57.302-.774 61.244.933c3.154 1.183 5.256 4.337 5.124 7.753.132 4.73 0 9.591 0 14.321.132 2.103-1.445 3.942-3.547 4.074h-.788c-1.971-.132-3.548-1.84-3.285-3.942V10.262c0-1.84-1.446-3.416-3.285-3.547a3.72 3.72 0 00-4.336 2.628c-.131.525-.263 1.182-.131 1.84v11.693c.262 1.84-.92 3.679-2.76 4.073-1.97.657-3.941-.394-4.598-2.365-.132-.131-.132-.394-.132-.657-.131-.525-.131-1.05-.131-1.576V10.524c.131-1.445-.657-2.89-1.971-3.547-1.445-.789-3.153-.526-4.467.394-1.051.788-1.577 2.102-1.446 3.416v12.22c.132 1.97-1.313 3.81-3.284 3.941h-.657c-2.103 0-3.548-1.708-3.548-4.204V8.029c.131-.526-.263-1.051-.788-1.051-.526-.132-1.051.131-1.314.657l-2.365 5.124c-1.577 3.547-3.154 6.964-4.73 10.38a30.079 30.079 0 01-1.183 2.102c-1.445 2.102-4.336 2.76-6.57 1.314-.394-.394-.92-.788-1.182-1.183-.92-1.313-1.577-2.759-2.234-4.204A1772.834 1772.834 0 01.541 5.664C-.51 3.956.016 1.722 1.724.802c.131-.131.262-.131.394-.263C3.958-.38 6.06.41 6.979 2.248c.132.13.132.262.132.525 1.97 4.73 4.073 9.46 5.912 14.19.132.132.263.395.526.789zM86.602 7.109l-2.89 8.277c-1.051 3.285-2.365 6.439-3.416 9.592-.395 1.182-1.052 1.708-2.103 1.84-1.05 0-1.97-.658-2.365-1.709-2.628-7.226-5.255-14.584-7.883-21.81-.394-.92-.132-1.972.788-2.497 0 0 .132 0 .132-.132a1.943 1.943 0 012.496 1.052c0 .131.131.131.131.394 1.971 5.65 4.073 11.43 5.913 17.212.131.394.263.788.525 1.314.92-2.76 1.84-5.387 2.76-7.883a941.97 941.97 0 013.547-10.38c.526-1.314.92-1.84 2.103-1.708 1.05 0 1.576.394 2.102 1.839 1.97 5.65 3.942 11.3 5.781 16.95.132.394.263.92.526 1.313 1.05-2.89 1.97-5.65 2.89-8.409 1.183-3.416 2.365-6.7 3.548-10.117.263-.788.657-1.314 1.445-1.576a1.802 1.802 0 012.234 1.313c.131.395.131.789-.132 1.183-.656 1.84-1.313 3.81-2.102 5.65-1.971 5.387-3.81 10.642-5.781 16.03-.131.131-.131.262-.131.394-.263.92-1.183 1.576-2.234 1.576s-1.84-.657-2.102-1.708l-2.76-7.883-3.284-9.46c.657-.132.525-.395.262-.657zm37.579 15.767c-1.577 1.97-3.811 3.416-6.307 3.942-3.81.788-7.358.394-10.249-2.497a7.778 7.778 0 010-10.774c.394-.394.92-.788 1.446-1.051 1.839-1.051 3.81-1.577 5.912-1.708a29.517 29.517 0 018.278.788c.788.263.788 0 .788-.657.263-3.416-2.365-6.438-5.781-6.7h-.526c-2.496-.264-4.861.13-7.226 1.05-.788.394-1.708.132-2.102-.657v-.131s0-.131-.132-.131c-.394-.789 0-1.709.789-2.103h.131c4.336-1.97 9.197-2.102 13.665-.394 2.89 1.183 4.73 3.942 4.861 7.095.263 3.416.263 6.701.132 10.117v5.913c.131 1.051-.657 1.971-1.577 2.102-.92.132-1.84-.525-2.102-1.445v-2.759zm-7.227-9.198c-1.971-.131-3.942.395-5.65 1.446-2.102 1.445-2.628 4.336-1.182 6.438a4.01 4.01 0 001.051 1.051c1.839 1.314 4.204 1.84 6.438 1.314 3.022-.657 5.519-2.102 6.438-5.256.132-1.05.263-2.102.132-3.153.131-.526-.263-.92-.657-1.051h-.132a26.177 26.177 0 00-6.438-.789zm42.834 1.577h-8.41c-.656 0-.788.131-.788.788.657 3.285 2.365 5.913 5.781 7.096 3.417 1.182 7.227.394 9.855-2.103.394-.394.919-.788 1.576-.788s1.183.394 1.446 1.051c.263.657.131 1.314-.394 1.84-4.862 4.992-12.745 5.255-18.001.657a12.53 12.53 0 01-3.81-7.358c-.92-4.336.394-8.804 3.284-12.088 2.891-3.285 7.358-4.6 11.563-3.285 4.467 1.182 6.964 4.336 8.146 8.672a16.29 16.29 0 01.394 3.547c0 1.577-.657 2.102-2.233 2.102-2.891-.13-5.65-.13-8.409-.13zm-1.314-2.89h5.781c2.628 0 2.628 0 1.839-2.497-1.314-4.467-5.387-6.964-9.591-5.65-3.285 1.183-5.519 4.205-5.913 7.62-.131.658.394.527.788.527h7.096zM136.4 6.584c1.051-2.234 2.891-4.074 5.256-4.993 1.051-.526 2.365-.92 3.547-.789.92 0 1.84.657 1.84 1.577.131 1.051-.394 1.971-1.445 2.234-.395.131-.92.131-1.314.263-4.205.92-7.358 4.598-7.621 8.934-.394 3.68-.131 7.358-.131 11.037.131 1.051-.657 1.971-1.709 2.102-.262 0-.394 0-.657-.131-.919-.131-1.576-1.051-1.445-1.97V2.772c0-1.314.789-2.365 1.84-2.365 1.182 0 1.971.789 1.971 2.365V6.19c-.263.132-.132.132-.132.395zm40.6-2.76c0 1.708-1.445 3.154-3.153 3.154s-3.154-1.446-3.154-3.154S172.007.671 173.715.54h.132C175.555.54 177 1.853 177 3.562v.262zm-3.153-2.627c-1.446 0-2.497 1.05-2.497 2.496 0 1.445 1.183 2.628 2.497 2.628 1.314-.132 2.496-1.183 2.496-2.497 0-1.445-1.182-2.627-2.496-2.627z" fill="#000"/><path fill-rule="evenodd" clip-rule="evenodd" d="M173.584 2.248c1.577 0 1.84.525 1.314 1.84-.131.393 0 .393.131.656.132.263.263.394 0 .657-.262.131-.394 0-.656-.131l-.395-.395c-.394-.394-.657-.657-.657.132 0 .263-.131.525-.394.525s-.263-.394-.394-.657V3.562c0-1.052.131-1.577 1.051-1.314zm.789.92c-.132-.395-.395-.395-.657-.395-.263 0-.395.132-.395.394 0 .263.132.395.526.395.263.13.526 0 .526-.395z" fill="#000"/><path fill-rule="evenodd" clip-rule="evenodd" d="M174.373 3.167c0 .263-.263.526-.657.395-.395 0-.526-.132-.526-.395 0-.262.131-.394.394-.394.526 0 .789.132.789.394z" fill="#000"/></svg>