<svg width="140" height="37" fill="none" xmlns="http://www.w3.org/2000/svg"><path d="M0 .034c4.114 1.7 8.12 3.5 12.235 5.2v5.1c-2.382-1-4.764-2-7.146-3.1v10.6c2.382 1 4.764 2 7.146 3.1 0 1.7-.109 3.4 0 5.1-4.115-1.7-8.12-3.5-12.235-5.2V.034zm24.361 0c.108 6.9.108 13.9.108 20.8-4.114 1.7-8.12 3.5-12.126 5.2a40.18 40.18 0 010-5.1c2.382-1 4.764-2.1 7.254-3.1v-10.6c-2.382 1-4.764 2.1-7.254 3.1v-5.1c3.898-1.7 8.012-3.4 12.018-5.2zM33.9 0c3.247 2.2 6.495 4.5 9.744 6.8 3.248-2.3 6.496-4.5 9.744-6.8v20.9h-4.98V9c-1.625 1.1-3.14 2.2-4.764 3.3-1.624-1.1-3.14-2.2-4.764-3.3v11.9H33.9V0zm44.929.181h4.656c3.14 6.9 6.17 13.8 9.31 20.8H87.6c-.542-1.2-.975-2.4-1.516-3.5h-7.796c-.54 1.2-.974 2.3-1.515 3.5h-5.197c2.815-6 5.738-12 8.553-18-.433-1-.866-1.9-1.3-2.8zm3.356 8.2c-.65 1.6-1.407 3.2-2.057 4.8h4.223c-.758-1.6-1.516-3.2-2.166-4.8zM98.97.5c1.949-.5 4.006-.4 5.846.3-.649 1.3-1.299 2.6-1.84 3.8-.866-.3-1.949-.7-2.815-.1-.975.8-.542 2.1-.65 3.2h2.923v3.9h-2.923v9.3h-4.547v-9.3h-2.058V7.7h2.058c-.109-1.4 0-2.7.433-4.1.65-1.5 1.949-2.6 3.573-3.1zM60.426 5.9c2.383-.9 5.09-.9 7.471.1 1.516.8 2.923 1.9 3.79 3.3-1.3.7-2.49 1.4-3.79 2.1-.65-1.3-2.165-2.2-3.681-2.3-2.382 0-4.33 1.8-4.33 4s1.948 4 4.33 4c1.624-.1 3.032-.9 3.681-2.3 1.3.7 2.49 1.4 3.79 2.1-.867 1.4-2.166 2.5-3.681 3.2-3.249 1.4-7.038 1-9.853-1.2-2.166-1.8-3.248-4.4-2.707-7.1.433-2.6 2.382-4.9 4.98-5.9zm45.144 2.44c2.923-3.4 8.229-4 12.018-1.5 2.707 1.7 3.681 4.9 3.465 7.8h-12.451c.758 1.9 2.815 2.9 4.872 2.6.974-.2 1.84-.6 2.49-1.3 1.191.6 2.49 1.2 3.681 1.9-1.299 1.4-2.923 2.3-4.764 2.8-3.464.9-7.145-.2-9.419-2.9-2.166-2.8-2.166-6.6.108-9.4zm3.14 2.8h7.254c-.65-1.3-1.949-2.2-3.465-2.2-1.732-.1-3.139.8-3.789 2.2zm15.028-2.199c2.382-3.3 6.929-4.5 10.827-2.9 2.165.9 3.789 2.6 4.547 4.7.433 1.3.541 2.6.433 3.9h-12.451c.65 1.8 2.599 2.8 4.656 2.6 1.082-.2 2.057-.6 2.815-1.3 1.191.6 2.49 1.2 3.681 1.9-1.516 1.7-3.681 2.8-5.955 3.1-2.923.4-5.847-.6-7.904-2.7-2.273-2.7-2.598-6.4-.649-9.3zm3.573 2.2h7.254c-.65-1.4-2.166-2.3-3.79-2.2-1.624 0-2.923.9-3.464 2.2zM33.859 25.999h1.624v3c.974-1 2.707-1.1 3.79-.1l.324.3c.975 1.4.866 3.2-.216 4.5-1.083 1-2.815 1-3.898 0l-.108-.1v.7h-1.516v-8.3zm2.49 3.6c-1.407.8-1.19 3.5.758 3.5 1.407 0 1.84-1.7 1.407-2.7-.216-.7-1.082-1.2-1.948-.9 0 0-.109.1-.217.1zM51.222 25.9h1.624v8.3h-1.624v-8.3zm21.98 0h1.624v6.5c0 .4.542.5.867.6v1.3c-.65-.1-1.408 0-1.95-.4-.432-.5-.649-1.1-.54-1.7v-6.3zm-10.827.8h1.624v1.7h1.407v1.2H64c-.108 1 0 1.9.108 2.9.217.5.975.5 1.408.6v1.3c-1.083 0-2.49-.1-3.032-1.2-.216-1.2-.325-2.3-.216-3.5H61.4v-1.2h.867c.108-.7.108-1.3.108-1.8z" fill="#000"/><path d="M40.288 28.3h1.84l1.624 4.2c.433-1.4.975-2.8 1.516-4.2H47l-2.923 6.9a2.71 2.71 0 01-1.84 1.5h-.867l-.974-.3c.108-.4.325-.7.433-1.1.433 0 .974.3 1.407 0 .325-.3.542-.7.758-1.1-.866-2-1.84-3.9-2.706-5.9zm14.292 0h1.623c0 .3 0 .7-.108 1 .758-1 2.166-1.4 3.465-.9.758.4 1.19 1.1 1.082 1.9v4h-1.624c0-1.4.109-2.8-.108-4.1-.433-1.1-2.273-.5-2.598.4-.217 1.2-.325 2.5-.217 3.8H54.58v-6.1zm12.639.486c1.3-1 3.248-.8 4.33.5.434.7.65 1.5.542 2.4h-4.547c.216.5.433 1.1 1.082 1.4.975.3 2.058.2 2.816-.4.216.4.433.7.65 1.1-1.408.9-3.249 1-4.656.2-1.516-1.1-1.841-3.1-.65-4.6 0-.3.216-.5.433-.6zm.433 1.7h2.923c-.216-.5-.433-1.2-1.19-1.2-.867 0-1.625.5-1.733 1.2z" fill="#000"/></svg>