<svg width="150" height="31" fill="none" xmlns="http://www.w3.org/2000/svg"><path d="M45.257 21.78c-.974 0-1.624-.8-1.624-1.8v-7.2h3.573v-3.7h-3.573v-4.4h-4.656v4.4h-2.923v3.7h2.923v8.4c0 2.9 1.733 4.5 4.873 4.5 1.407.1 2.706-.3 3.79-1.1l-.867-3.3c-.325.4-.866.6-1.516.5zm12.126-13.1c-4.872-.1-8.987 3.6-9.095 8.1v.3c0 5.2 4.006 8.5 9.311 8.5 2.599.1 5.197-.7 7.255-2.3l-2.166-2.7c-1.3 1-2.923 1.5-4.656 1.6-2.381.2-4.655-1.4-5.088-3.6h12.992v-1c.217-5.3-3.356-8.9-8.553-8.9zm-4.331 6.9c.325-2.2 2.49-3.7 4.872-3.4 1.949.2 3.465 1.6 3.681 3.4h-8.553zm25.444-6.9c-2.273 0-4.547.9-6.171 2.5v-2.1h-4.656v16.1h4.656v-10.9c.974-1.2 2.382-1.8 4.006-1.9 1.949 0 3.248.8 3.248 3v9.8h4.656v-11.3c0-3.2-1.841-5.2-5.739-5.2zm15.808 0c-2.815-.1-5.522.8-7.687 2.5l1.84 3c1.408-1.2 3.14-1.9 5.089-1.9 2.274 0 3.79 1.1 3.79 2.7v2.1c-1.408-1.4-3.465-2.1-5.522-2-2.815 0-6.063 1.4-6.063 5.2 0 2.9 2.598 5.3 5.738 5.3h.216c2.058.1 4.115-.7 5.522-2.1v1.7h4.656v-10.4c.108-4.6-3.573-6.1-7.58-6.1zm3.031 12.7c-.974.9-2.273 1.5-3.68 1.4-1.841 0-3.357-.9-3.357-2.4s1.516-2.5 3.356-2.5c1.408-.1 2.707.5 3.681 1.5v2zm16.566-12.7c-2.165 0-4.114.9-5.413 2.5v-8.2h-4.656v22.3h4.656v-2.1c1.299 1.5 3.248 2.5 5.413 2.5 4.439 0 7.687-3.1 7.687-8.5 0-5.3-3.248-8.5-7.687-8.5zm-1.407 13.1c-1.516 0-3.032-.7-4.006-1.8v-5.7c.974-1.1 2.382-1.8 4.006-1.9 2.706 0 4.439 1.9 4.439 4.7 0 2.9-1.733 4.7-4.439 4.7zm15.374-18.8h-4.656v22.3h4.656V2.98zm10.718 5.7c-4.872-.1-8.987 3.6-9.095 8.1v.3c0 5.2 4.006 8.5 9.311 8.5 2.599.1 5.197-.7 7.255-2.3l-2.058-2.8c-1.299 1-2.923 1.5-4.655 1.6-2.382.2-4.656-1.4-5.089-3.6h12.993v-1c0-5.2-3.465-8.8-8.662-8.8zm-4.223 6.9c.325-2.2 2.491-3.7 4.873-3.4 1.948.2 3.464 1.6 3.681 3.4h-8.554zm14.184-7.3c.109-.1.109-.2.109-.3 0-.3-.217-.5-.758-.5h-.433v1.5h.324v-.6h.109l.324.6h.434l-.434-.7c.109.1.217 0 .325 0zm-.649-.1h-.109v-.5h.109c.108 0 .216 0 .324.1.109.1.109.1.109.2-.109.1-.217.2-.433.2z" fill="#000"/><path d="M149.305 7.58c-.216-.4-.758-.7-1.299-.7-.325 0-.541.1-.758.2-.216.1-.433.3-.541.5-.108.2-.217.5-.217.7 0 .3.109.5.217.7.216.4.758.7 1.299.7.325 0 .541-.1.758-.2.216-.1.433-.3.541-.5.109-.2.217-.5.217-.7-.108-.2-.108-.5-.217-.7zm-.325 1.3c-.108.2-.216.3-.433.4-.216.1-.433.1-.649.1-.217 0-.433 0-.542-.1l-.433-.4c-.216-.4-.216-.8 0-1.2a.82.82 0 01.433-.4c.217-.1.325-.2.542-.1.216 0 .433.1.649.1.217.1.325.2.433.4.217.4.217.8 0 1.2zM29.125 4.68c.108.3.433 1.5.758 2.6l2.49 8.8c.325 1.1.65 2.3.758 2.6.108.5 0 1-.325 1.3l-2.057 1.9-7.038 6.5-2.057 1.9c-.433.3-.974.5-1.407.3-.325-.1-1.624-.4-2.815-.7l-9.528-2.3c-1.191-.3-2.49-.6-2.815-.7-.217-.1-.542-.2-.65-.4-.216-.2-.325-.4-.433-.6-.108-.3-.433-1.5-.758-2.6l-2.49-8.9c-.325-1.1-.65-2.3-.758-2.6l.325-.1.325-.1c.108.3.433 1.5.758 2.6l2.598 8.8c.325 1.1.65 2.3.758 2.6.108.1.108.2.325.3.108.1.216.1.325.2l2.815.7 9.527 2.3c1.191.3 2.49.6 2.815.7.217.1.542 0 .758-.2l2.058-1.9 7.037-6.5 2.057-1.9c.108-.2.217-.4.217-.7-.108-.3-.433-1.5-.758-2.6l-2.599-8.7c-.325-1.1-.65-2.3-.758-2.6-.108-.1-.108-.2-.216-.3 0-.1-.108-.1-.325-.2l-2.815-.7-9.528-2.3c-1.19-.3-2.49-.6-2.815-.7-.216-.1-.541 0-.758.2l-2.273 2-6.93 6.4-1.949 2c-.108.2-.216.4-.216.7l-.325.1-.325.1c-.108-.5 0-1 .325-1.3l2.057-1.9 7.038-6.5 2.057-1.9c.433-.3.974-.5 1.407-.3.325.1 1.624.4 2.815.7l9.528 2.3c1.191.3 2.49.6 2.815.7.217.1.542.2.65.4.108.1.216.3.325.5z" fill="#000"/><path d="M17.215 2.38c.325.1 1.191.7 2.057 1.1l7.038 3.7c.866.5 1.84 1 2.057 1.1.325.2.65.6.65 1v12c0 .4-.217.8-.65 1-.325.1-1.191.7-2.057 1.1l-7.038 3.7c-.866.5-1.84 1-2.057 1.1-.433.2-.866.2-1.191 0-.325-.1-1.19-.7-2.057-1.1l-7.038-3.7-2.057-1.1.108-.3.109-.3 2.057 1.1 7.037 3.7 2.058 1.1c.108.1.216.1.324.1.109 0 .217 0 .325-.1l2.057-1.1 7.038-3.7 2.057-1.1c.108-.1.217-.3.325-.5V9.38c0-.2-.108-.4-.325-.5-.325-.1-1.19-.7-2.057-1.1l-7.038-3.7c-.866-.5-1.84-1-2.057-1.1-.216-.1-.433-.1-.541 0l-2.057 1.1-7.038 3.7c-.866.5-1.84 1-2.057 1.1-.108.1-.217.3-.325.5v11.9c0 .2.108.4.325.5l-.108.3-.217.2c-.433-.2-.65-.6-.758-1V9.38c0-.4.217-.8.65-1 .325-.1 1.19-.7 2.057-1.1l7.038-3.7c.866-.5 1.84-1 2.057-1.1.216-.1.433-.1.65-.1.324-.1.433-.1.649 0z" fill="#000"/><path d="M8.229 6.68l2.057-.5 7.037-1.7c.866-.2 1.84-.5 2.057-.5.434-.1.758 0 1.083.3l1.516 1.4 5.089 4.7 1.515 1.4c.217.3.325.6.325 1-.108.3-.325 1.1-.541 1.9l-1.84 6.5c-.217.8-.542 1.7-.542 1.9-.108.4-.433.6-.758.7-.325.1-1.19.3-2.057.5l-7.038 1.7c-.866.2-1.84.5-2.057.5l-.216-.2-.109-.3 2.057-.5 7.038-1.7c.866-.2 1.84-.5 2.057-.5.108 0 .108-.1.217-.1.108 0 .108-.1.108-.2.108-.3.325-1.1.541-1.9l1.841-6.5c.216-.8.541-1.7.541-1.9 0-.2 0-.3-.108-.5l-1.516-1.4-5.197-4.7-1.515-1.4c-.109-.1-.325-.2-.542-.1-.325.1-1.19.3-2.057.5l-7.038 1.7c-.866.2-1.84.5-2.057.5-.108 0-.108.1-.216.1-.109.1-.109.1-.109.2-.108.3-.324 1.1-.54 1.9l-1.841 6.5c-.217.8-.542 1.7-.542 1.9 0 .2 0 .3.108.5l1.516 1.4 5.089 4.7 1.516 1.4c.108.1.325.2.541.1l.108.3.109.3c-.433.1-.758 0-1.083-.3l-1.516-1.4-5.089-4.7-1.515-1.4a1.6 1.6 0 01-.325-1c.108-.3.325-1.1.541-1.9l1.84-6.5c.217-.8.542-1.7.542-1.9 0-.2.108-.3.325-.5.325-.1.433-.2.65-.3z" fill="#000"/><path d="M6.388 24.78c-5.63-5.2-5.63-13.7 0-19 5.63-5.3 14.833-5.2 20.571 0 5.63 5.2 5.63 13.7 0 18.9-5.738 5.3-14.94 5.3-20.57.1zm20.03-.4c5.305-5 5.305-13.1-.108-18-5.414-4.9-14.184-4.9-19.489.1-5.305 5-5.305 13 .108 18 5.306 4.9 14.076 4.8 19.49-.1z" fill="#000"/><path d="M17.107 5.68l1.516.8 5.197 2.8 1.516.8c.325.2.433.4.433.7v8.8c0 .3-.217.6-.433.7-.217.1-.866.5-1.516.8l-5.197 2.8c-.65.3-1.407.7-1.516.8-.325.1-.65.1-.974 0l-1.516-.8-5.197-2.8-1.516-.8.109-.2.108-.2 1.516.8 5.197 2.8c.65.3 1.407.7 1.515.8.109.1.325.1.433 0 .217-.1.867-.5 1.516-.8l5.197-2.8 1.516-.8c.108-.1.217-.2.217-.4v-8.8c0-.2-.109-.3-.217-.4-.216-.1-.866-.5-1.516-.8l-5.197-2.8c-.65-.3-1.407-.7-1.515-.8a.351.351 0 00-.434 0c-.216.1-.866.5-1.515.8l-5.197 2.8-1.516.8c-.108.1-.217.2-.217.4v8.8c0 .2.109.3.217.4l-.108.2-.109.2c-.216 0-.433-.3-.433-.6v-8.8c0-.3.217-.6.433-.7.217-.1.866-.5 1.516-.8l5.197-2.8 1.516-.8c.108-.1.325-.1.433-.1.216-.1.325-.1.541 0z" fill="#000"/><path d="M8.986 22.18c-4.222-3.9-4.222-10.2 0-14 4.223-3.8 11.044-3.9 15.158 0 4.223 3.9 4.223 10.2 0 14-4.114 3.9-10.935 3.9-15.157 0zm14.834-.3c4.006-3.7 3.897-9.7-.109-13.4-4.006-3.7-10.502-3.6-14.508.1-3.898 3.7-3.898 9.6 0 13.3 4.114 3.7 10.502 3.7 14.617 0z" fill="#000"/></svg>