<svg width="118" height="49" fill="none" xmlns="http://www.w3.org/2000/svg"><path d="M30.965 22.6c-4.222 0-4.547-2.9-4.547-3.8-.108-1.8 1.191-3.3 3.032-3.9 2.815-.9 3.356-1 5.197-1.6v-.5c0-.5 0-1.1-.217-1.6-.433-1.1-1.624-1.7-2.815-1.6-1.3 0-2.49.7-3.14 1.8l-.758-.4c.433-1.6 2.274-3.2 5.306-3.2 2.165 0 3.572.5 4.439 1.8.541 1.1.866 2.4.758 3.7 0 1.2-.109 2.6-.109 3.7 0 .7-.108 1.4-.108 1.8 0 1 .217 1.8 1.083 1.8.433 0 .433-.1.758-.3l.541.5c-.65 1.1-1.949 1.7-3.248 1.8-1.083.1-2.057-.5-2.274-1.5-.974.9-2.382 1.5-3.898 1.5zm3.682-7.5c-1.191.3-2.274.7-3.357 1.2-.866.4-1.407 1.3-1.299 2.2-.108 1.1.758 2 1.84 2.1h.434c.866 0 1.732-.2 2.49-.7l-.108-4.8zM.108 21.8c0-1.4 0-2.6-.108-4.1h.866c-.108.7.217 1.5.758 2 .974.8 2.274 1.2 3.573 1.1 2.923 0 4.33-1 4.33-3.2 0-1.9-1.298-2.7-3.03-3.7l-.217-.2-1.84-1.2C1.84 10.9.65 9.7.65 7.2c0-1.2.541-5.3 6.929-5.3 1.732 0 3.356.1 4.98.4v1.9c0 .9 0 1.2.109 2.3h-.758c0-.7-.217-1.5-.758-2-.975-.6-2.274-.9-3.465-.9-3.464 0-3.79 1.7-3.79 2.8 0 1.7.975 2.3 3.032 3.5l2.274 1.4c1.949 1.2 3.79 2.4 3.79 5.4 0 5.1-5.198 5.7-7.363 5.7-1.949.1-3.79-.1-5.522-.6zM41.792 8.7c1.083.1 2.058 0 3.14-.2.758-.1 1.408-.3 2.057-.6l.325.2v1.2c1.3-.9 2.924-1.4 4.548-1.3 2.815 0 4.547 1.2 5.088 3.4.109.8.217 1.7.217 2.6v4.2c0 2.3.108 3 .65 3.4.433.3.974.4 1.515.4v.7c-.974-.1-2.815-.1-3.79-.1-1.407 0-3.03.1-3.789.1V22c.542 0 1.083-.2 1.516-.5.433-.4.541-1.2.541-3 0-.5.109-1.7.109-2.4 0-1.1 0-2.2-.108-3.2 0-1.5-1.191-2.7-2.816-2.7h-.433c-.974 0-2.057.2-2.923.6v7.5c0 2.3.108 3 .65 3.4.433.3.974.4 1.407.4v.7c-1.299-.1-2.815-.1-3.79-.1-2.056 0-2.706.1-3.897.1v-.7c.65 0 1.191-.2 1.624-.6.433-.5.541-1.7.541-4.1v-4.3c0-1.8-.108-2.5-.324-2.9-.217-.3-.758-.6-1.841-.6l-.217-.9zm19.056 13.1c.65 0 1.191-.2 1.624-.6.433-.5.541-1.7.541-4.1V10h-1.948v-.8c.758-.2 1.407-.6 1.949-1 0-1.3.108-2.5.216-3.8.65-2.9 2.707-4.4 6.172-4.4 1.407 0 2.814.4 3.897 1.2l.108.3-1.515 2h-.433c-.325-1.1-1.516-1.9-2.707-1.8-.541 0-1.083.2-1.516.5-.65.6-.758 1.5-.758 3.4v2.6h3.465V10h-3.465v7.9c0 1.9.109 2.8.325 3.2.433.6 1.84.7 2.49.6v.7c-1.083-.1-2.923-.1-4.222-.1-1.95 0-3.14.1-4.223.1v-.6zm17.757.9c-4.656 0-7.471-2.7-7.471-7.2 0-3.5 2.057-7.6 7.795-7.6 4.656 0 7.471 2.7 7.471 7.2 0 3.5-2.057 7.6-7.796 7.6zm.216-13.2c-.758 0-1.624.2-2.165.7-1.3 1-1.841 2.7-1.841 5.2 0 1 .217 5.7 4.006 5.7.758.1 1.516-.2 2.166-.6 1.299-1 1.84-2.7 1.84-5.2 0-1.1-.216-5.8-4.006-5.8zm9.095-.8c1.083 0 2.273 0 3.356-.2.65-.1 1.3-.2 1.84-.5l.217.1v1.2c.975-.8 2.274-1.3 3.573-1.3.975 0 1.95.3 2.707.9v.3l-1.3 2.2h-.757c-.542-.9-1.516-1.4-2.599-1.3-.65 0-1.19.1-1.732.4v7.3c0 1.9.108 2.8.325 3.1.433.6 1.732.7 2.49.6v.8c-1.083-.1-2.923-.1-4.222-.1-1.408 0-2.815 0-4.223.1v-.7c.65 0 1.191-.2 1.624-.6.433-.5.541-1.7.541-4.1v-4c0-1.8 0-2.5-.324-2.9-.217-.3-.758-.5-1.841-.6l.325-.7zM109.678.9c1.191-.1 2.49-.2 3.681-.4.542-.1 1.083-.2 1.624-.4l.217.1c-.108 1.2-.108 3.8-.108 5.7v11.6c-.109 1 0 2.1.216 3.1.433.4 1.083.6 1.841.5v.7c-1.083 0-2.166.1-3.357.3-.541.1-1.19.2-1.732.4l-.433-.1v-1.2a6.498 6.498 0 01-4.331 1.3c-4.222 0-6.929-2.7-6.929-6.9 0-1.3.216-2.6.758-3.9 1.299-2.6 4.222-4.2 7.362-4 .975 0 2.057.1 3.032.3V5c0-1.8 0-2.7-.325-3.1-.217-.3-.541-.4-1.732-.5l.216-.5zm-.541 19.7c.866.1 1.732-.1 2.49-.5v-9.5c-.866-.7-1.949-1-3.032-1-3.031 0-4.439 1.9-4.439 5.8 0 1.6.542 5.2 4.981 5.2zm-84.235.4c-1.082 1.1-2.598 1.7-4.222 1.7-2.382 0-3.681-.8-4.331-2.6-.217-.9-.217-1.9-.217-2.9 0-2.3 0-4.1.109-6.2v-1h-2.057v-.6c.65-.2 1.299-.6 1.948-1A9.79 9.79 0 0018.947 5h.65v3.2h5.413V10h-5.197v7.5c0 2.3.434 3.5 2.707 3.5.758 0 1.516-.2 2.166-.5l.216.5zM98.31 34.4c-.325 0-.541.1-.758.2-.108.1-.217.3-.217.4 0 .3.109.6.217.9l1.407 3.5c.217.5.433 1 .433 1.3l1.841-4.8c.108-.3.217-.6.217-.9 0-.1-.109-.3-.217-.4-.216-.2-.541-.2-.758-.2v-.5c.325 0 .542 0 .866.1.217 0 .65.1.975.1.649 0 1.299 0 1.949-.1v.4c-.217 0-.866-.1-1.408 1.3l-3.79 9.3c-.54 1.3-1.298 3-3.897 3-.866.1-1.732-.2-2.382-.7V47l.975-1h.216c.325.5.866.9 1.516.8 1.19 0 1.732-1 2.49-2.9l.216-.6-3.14-7.6c0-.1-.108-.2-.108-.3-.108-.2-.216-.5-.216-.5a1.16 1.16 0 00-.974-.5v-.5c.65.1 1.623.1 2.165.1.433 0 .974 0 1.407-.1.325 0 .65 0 .975-.1v.6zm-35.08-.2c.758 0 1.408 0 2.166-.2.433-.1.757-.2 1.19-.3l.217.1v.8c.541-.6 1.408-.9 2.274-.9.65 0 1.299.2 1.732.5v.3l-.758 1.4h-.433c-.325-.5-.974-.9-1.624-.8-.325 0-.758.1-1.083.3V40c-.108.7 0 1.4.217 2 .216.4 1.083.4 1.516.4v.4c-.65-.1-1.84-.1-2.599-.1-.866 0-1.732 0-2.598.1v-.5c.433 0 .758-.1 1.082-.4.325-.3.325-1 .325-2.6v-2.6c0-1.1 0-1.6-.216-1.8-.109-.2-.542-.3-1.083-.3l-.325-.4zm-44.066 8.9c-2.815 0-4.33-.8-4.98-2.5-.325-.9-.434-1.9-.325-2.8v-4.9c0-1.5-.109-1.7-.433-2-.325-.2-.542-.3-.975-.3v-.5c.65.1 1.732.1 2.49.1.867 0 1.733 0 2.49-.1v.5c-.433 0-.757.1-1.082.4-.325.3-.325.9-.325 2.4v4.3c0 2.6.217 4.2 3.357 4.2s3.356-1.7 3.356-4.3v-4.8c0-1.5-.108-1.7-.433-2-.325-.2-.65-.3-.975-.3V30c.65 0 1.408.1 2.166.1s1.516 0 2.273-.1v.5c-.433 0-.757.1-1.082.4-.325.3-.325.9-.325 2.4V37c.108 1.2-.108 2.4-.433 3.5-.325 1.8-2.057 2.6-4.764 2.6zm18.84-.5c.432 0 .757-.1 1.082-.4.325-.4.325-1.1.325-2.7v-2.6c0-1.1 0-1.7-.217-1.9-.108-.2-.433-.3-1.083-.4v-.4c.758 0 1.516 0 2.274-.2.325 0 .758-.2 1.083-.3l.216.2c-.108.6-.108 1.9-.108 3.6v2.6c-.108.7 0 1.3.216 2 .325.3.758.5 1.191.4v.4c-.65-.1-1.624-.1-2.49-.1-.866 0-1.732 0-2.598.1.108.1.108-.3.108-.3zm2.49-10.5c-.65.1-1.192-.3-1.192-.9V31c0-.6.542-1.2 1.191-1.2h.108c.65-.1 1.191.4 1.3 1v.1c0 .7-.65 1.2-1.408 1.2zm39.41 10.5c.433 0 .758-.1 1.083-.4.324-.3.324-1 .324-2.6V37c0-1.1 0-1.7-.216-1.9-.108-.2-.433-.3-1.083-.4v-.5c.758 0 1.516 0 2.274-.2.325-.1.758-.2 1.082-.3l.217.2c-.108.6-.108 1.9-.108 3.6v2.7c-.109.7 0 1.3.216 2 .325.3.758.5 1.191.4v.4c-.65-.1-1.624-.1-2.49-.1-.866 0-1.732 0-2.599.1l.109-.4zm2.382-10.5c-.65.1-1.191-.3-1.3-.9V31c0-.6.542-1.2 1.191-1.2h.109c.65-.1 1.19.3 1.299.9v.2c0 .6-.541 1.2-1.191 1.2h-.108zM71.892 42.6c0-.8 0-1.6-.108-2.4h.65c0 .4.107.8.432 1.2.433.5 1.083.7 1.733.6h.108c1.083 0 1.624-.4 1.624-1.3 0-.7-.433-1-1.3-1.4l-1.407-.8C72.65 38.1 72 37.2 72 36.2c-.108-.9.433-1.8 1.408-2.3.65-.2 1.299-.3 1.948-.3.867 0 1.733.1 2.599.2 0 .4-.108.7-.108 1.1 0 .4 0 .8.108 1.2h-.65c0-.4-.108-.7-.433-1-.433-.4-.974-.5-1.516-.5-.974 0-1.515.4-1.515 1.2 0 .6.541.9.974 1.2h.108l1.3.7c1.082.4 1.948 1.4 1.948 2.5 0 2.4-2.382 2.8-3.789 2.8-.758 0-1.624-.1-2.49-.4zm20.788-.5c-.65.7-1.624 1.1-2.599 1-1.516 0-2.382-.5-2.707-1.7-.108-.6-.108-1.2-.108-1.8 0-1.5 0-2.6.108-4V35h-1.299v-.4l1.3-.6c.757-.6 1.407-1.4 1.84-2.2h.433v2h3.357v1.1h-3.357v4.8c0 1.4.217 2.3 1.733 2.3.54 0 .974-.1 1.407-.4l-.108.5zm-44.824-8.2c-.325 0-.65 0-.975.1-.541 0-1.083.1-1.407.1-.758 0-1.408 0-2.166-.1v.5c.433 0 .867.2.975.5.108.2.216.4.216.5.109.1.109.2.109.3l3.14 7.3.974-.1 3.465-7.2c0-.1.108-.1.108-.2.108-.2.216-.4.325-.5.216-.3.54-.5.974-.5v-.5c-.433 0-1.3.1-1.949.1-.325 0-.65 0-.974-.1-.217 0-.65-.1-.975-.1v.4c.325 0 .542.1.758.2.108.1.217.2.217.4 0 .3-.108.6-.217.9l-1.624 4.3c-.108-.4-.216-.7-.433-1.1l-1.3-3.2c-.108-.3-.216-.6-.216-.9 0-.1 0-.2.108-.3.217-.2.542-.3.867-.3v-.5zm-21.546.3c.65 0 1.3 0 1.949-.1.433-.1.866-.2 1.299-.4l.216.1v.7c.867-.5 1.841-.8 2.816-.9 1.515-.2 2.923.7 3.248 2.1.108.5.108 1.1.108 1.7V40c0 1.5.108 1.9.325 2.2.325.2.65.3.974.2v.4c-.65-.1-1.84-.1-2.49-.1-.866 0-1.624 0-2.49.1v-.4c.325 0 .758-.2.974-.4.217-.2.325-.8.433-1.9v-1.6c0-.7 0-1.4-.108-2.1 0-.9-.758-1.8-1.84-1.8h-.326c-.65 0-1.299.1-1.84.4v4.8c0 1.5.108 1.9.433 2.2.325.2.65.3.974.2v.4c-.757-.1-1.84-.1-2.49-.1-.866 0-1.624 0-2.49.1v-.4c.433 0 .758-.1 1.083-.4.324-.3.324-1.1.324-2.6v-2.6c0-1.1 0-1.6-.216-1.8-.108-.2-.433-.3-1.083-.3l.217-.3zM58.466 43c-3.031 0-4.547-1.6-4.547-4.5 0-.5.108-5 4.656-5 1.19-.1 2.381.4 3.031 1.3.433.7.758 1.6.65 2.4v.5h-6.172c0 .4 0 .8.108 1.2.109 1.5 1.516 2.7 3.14 2.6h.109c.866 0 1.624-.1 2.273-.5l.217.4c-.758 1.2-2.057 1.7-3.465 1.6zm-2.382-6h3.79c0-1.1-.217-2.3-1.95-2.3-1.515 0-1.84 1.4-1.84 2.3z" fill="#000"/></svg>