<svg width="102" height="50" fill="none" xmlns="http://www.w3.org/2000/svg"><path d="M50.237 33.326c-1.407-.3-2.923-.5-4.33-.5-4.115 0-6.605 2.1-6.605 5.1 0 2.7 2.057 4.1 4.548 4.8l.974.3c1.083.3 1.949.8 1.949 1.6 0 .9-.975 1.5-3.248 1.5-1.408 0-2.815-.2-4.223-.6v3.8c1.624.3 3.248.4 4.872.4 3.465 0 7.363-1.4 7.363-5.5 0-2-1.3-3.8-4.223-4.7l-1.19-.4c-.759-.2-2.058-.6-2.058-1.6 0-.8.974-1.3 2.815-1.3 1.191 0 2.382.2 3.465.5l-.108-3.4zm37.787 7.9c0 2.4-2.057 4.3-4.656 4.2-2.598 0-4.655-1.9-4.547-4.3 0-2.3 2.057-4.2 4.656-4.2 2.49 0 4.547 1.9 4.655 4.2-.108 0-.108.1-.108.1zm-4.547-8.5c-5.09.1-9.095 4-8.987 8.6.108 4.7 4.331 8.4 9.311 8.3 4.98-.1 8.987-3.9 8.987-8.5s-4.006-8.4-8.987-8.5c-.108.1-.216.1-.324.1zm-50.13 16.7h-4.439v-16.4h4.44m-10.611.3c-1.3-.4-2.707-.6-4.114-.6-4.98-.2-9.203 3.4-9.42 8v.5c0 5.3 4.44 8.5 9.42 8.5 1.407 0 2.706-.2 4.114-.6v-4.4c-1.191.6-2.49.9-3.79.9-2.598.1-4.763-1.8-4.872-4.2-.108-2.4 1.95-4.4 4.548-4.5h.325c1.299 0 2.598.3 3.789.9m46.664-4.5c-1.299-.4-2.706-.6-4.114-.6-4.98-.2-9.203 3.4-9.42 8v.5c0 5.3 4.44 8.5 9.42 8.5 1.408 0 2.707-.2 4.114-.6v-4.4c-1.19.6-2.49.9-3.789.9-2.598.1-4.764-1.8-4.872-4.2-.108-2.4 1.949-4.4 4.547-4.5h.325c1.3 0 2.599.3 3.79.9M28.8 2.1c0-1.1-.974-2-2.165-2s-2.274.9-2.274 2v21.8c0 1.1.974 2 2.274 2 1.19 0 2.165-.9 2.165-2V2.1zM16.674 9.8c0-1.1-.975-2.1-2.166-2.1-1.19 0-2.273.9-2.273 2.1v9.9c0 1.1.974 2.1 2.273 2.1 1.191 0 2.166-.9 2.166-2.1V9.8zM4.439 15.5c0-1.1-.974-2-2.274-2-1.19 0-2.165.9-2.165 2v4.3c0 1.1.974 2 2.274 2 1.19 0 2.165-.9 2.165-2" fill="#000"/><path d="M24.36 2.1c0-1.1.975-2.1 2.274-2.1 1.3 0 2.274.9 2.274 2.1v21.8c0 1.1-.974 2-2.274 2-1.299 0-2.273-.9-2.273-2V2.1zm12.235 7.7c0-1.1.975-2 2.274-2 1.3 0 2.274.9 2.274 2v9.9c0 1.1-.975 2-2.274 2-1.3 0-2.274-.9-2.274-2V9.8zm12.235 5.7c0-1.1.974-2 2.274-2 1.19 0 2.165.9 2.165 2v4.3c0 1.1-.974 2-2.274 2-1.19 0-2.165-.9-2.165-2M73.146 2.117c0-1.1.974-2.1 2.165-2.1 1.19 0 2.274.9 2.274 2.1v21.7c0 1.1-.975 2.1-2.274 2.1-1.191 0-2.165-.9-2.165-2.1v-21.7zm12.234 7.7c0-1.1.975-2 2.166-2 1.19 0 2.165.9 2.165 2v9.9c0 1.1-.974 2.1-2.165 2.1s-2.166-.9-2.166-2.1v-9.9zm12.127 5.7c0-1.1.974-2 2.273-2 1.191 0 2.166.9 2.166 2v4.3c0 1.1-.975 2-2.274 2-1.191 0-2.165-.9-2.165-2" fill="#000"/><path d="M77.585 2.117c0-1.1-.975-2-2.166-2-1.19 0-2.273.9-2.273 2v21.7c0 1.1.974 2.1 2.273 2.1 1.3 0 2.166-.9 2.166-2.1v-21.7zm-12.235 7.7c0-1.1-.974-2.1-2.165-2.1-1.191.1-2.274 1-2.274 2.1v9.9c0 1.1.974 2 2.274 2 1.19 0 2.165-.9 2.165-2v-9.9zm-12.126 5.7c0-1.1-.975-2-2.274-2-1.19 0-2.165.9-2.165 2v4.3c0 1.1.974 2 2.273 2 1.191 0 2.166-.9 2.166-2" fill="#000"/></svg>