<svg width="243" height="256" fill="none" xmlns="http://www.w3.org/2000/svg"><path d="M187.847 243.331c2.731 6.089-2.184 13.115-12.013 12.647-1.092-.469-3.823-.937-5.461-2.342-6.007-6.089-14.198-8.431-21.843-11.71-10.375-4.216-20.75-7.963-31.125-12.178-5.461-2.342-6.553-5.621-2.185-9.368 1.638-1.405 3.823-2.811 5.461-3.279 8.737-3.747 15.29-8.899 21.842-14.52 4.915-4.216 10.376-7.963 15.837-11.242 4.368-2.81 10.375-1.405 12.013 3.279 5.461 13.115 11.467 26.23 13.652 40.282 1.092 2.342 2.184 5.152 3.822 8.431zm-95.562-99.299c-3.276 3.278-2.184 5.152 2.185 6.557 7.099 2.342 14.197 4.216 21.296 7.026 12.014 4.684 24.027 9.368 36.041 14.52 4.368 1.874 8.191.937 11.467-.468 3.823-1.874 4.369-5.153 3.823-8.431-2.185-8.431-3.277-16.862-1.639-26.699-.546-.936-1.092-3.278-2.73-5.152-2.184-3.279-4.915-6.089-7.645-8.9-4.368-5.152-7.099-6.089-12.56-2.341-10.375 7.025-22.388 11.709-34.948 14.52-7.099 1.405-10.921 5.152-15.29 9.368zM16.382 84.546c2.73 0 4.915-.937 7.099-1.874 6.553-2.342 13.106-5.152 19.658-7.963 9.283-3.747 18.567-7.494 27.304-11.241 3.822-1.405 6.007-3.747 5.46-7.963-.546-3.747-3.822-4.684-7.099-5.62-4.368-1.874-9.283-3.28-13.105-5.621-7.645-5.621-15.29-11.242-22.935-17.33-6.007-4.685-12.013-4.216-15.836 1.404-1.638 2.81-2.184 6.09-2.73 9.368L10.92 57.38c-.546 3.747-2.184 7.962-3.276 11.241 1.092 5.152 1.638 9.837 3.276 14.052 1.639.937 4.369 2.342 5.461 1.874zm220.065 37.003c-10.375-5.153-22.389-8.9-31.126-16.394-2.184-1.874-19.112-3.279-21.842-1.874-1.639.937-3.277 1.874-4.369 3.279-3.276 3.279-3.822 7.494-3.276 12.178.546 4.216 1.092 8.431 1.092 12.647 0 5.621-1.092 11.241-1.092 16.862-.546 7.495 7.099 11.71 15.29 7.963 4.914-2.342 9.829-4.216 14.743-6.558 10.376-4.684 21.297-9.368 31.126-14.52 2.731-1.405 4.915-4.684 6.007-7.494 0-3.747-3.823-4.684-6.553-6.089zM63.89 130.448c-3.823-.937-7.645-1.873-10.375-3.279-9.83-5.62-19.113-11.241-28.396-17.33-7.645-4.684-13.105-3.279-15.29 4.684-2.184 7.494-3.276 15.457-4.914 23.42-1.092 4.683-2.185 9.836-3.277 14.52-.546 1.405-1.638 2.81-1.638 4.215 0 2.342.546 4.684 2.73 6.089 1.639.937 4.915.937 7.1 0 16.927-5.152 32.763-13.583 51.33-16.393 6.006-.937 9.283-4.684 9.829-9.368 0-3.747-2.73-5.621-7.1-6.558zm66.62 65.575c3.277-.936 7.645-1.405 10.375-3.278 2.185-1.406 3.823-4.216 3.823-6.558 0-3.279-3.277-4.216-6.553-4.684-6.553-1.405-13.106-3.279-18.566-5.621-9.283-3.747-18.02-8.431-27.304-13.115-6.552-3.278-12.013-1.873-13.651 4.216-2.184 7.494-5.46 15.457-2.184 23.42 2.184 5.152 1.638 10.304-.547 15.457-.546 1.405-1.092 2.342-1.092 3.747-1.092 4.684 1.638 6.557 6.553 6.089 2.73-.469 5.46-.937 8.191-.937 0 .468.546.937.546 1.405l6.553-2.81c8.191-4.684 15.836-9.368 24.027-13.583 2.73-2.342 6.553-2.811 9.829-3.748zm103.753-37.94c-3.277-3.278-7.099-1.405-10.375 0a438.778 438.778 0 00-21.843 9.368c-7.099 3.279-14.198 7.026-20.751 11.242-4.914 3.279-4.368 7.962.546 11.241 8.737 5.621 16.928 11.71 26.212 17.331 4.368 2.81 8.191 5.621 8.191 10.773 0 3.747 3.276 5.152 7.099 5.62 3.822.469 7.098-.468 8.191-3.747 1.092-2.81 2.184-5.62 3.276-7.962-.546-2.342-.546-3.747-1.092-5.153-1.092-3.747-3.277-7.026-3.823-10.773-1.638-9.836-.546-19.204 4.369-28.572 2.184-3.278 2.73-6.557 0-9.368zm-121.227-40.281c4.368-1.406 8.191-3.748 12.56-4.684 8.191-1.874 15.289-4.684 22.388-7.963 6.007-3.279 12.014-7.494 20.751-4.684 3.822 1.405 8.191-1.874 9.829-5.152 1.092-1.874 1.092-5.621-.546-7.026-2.73-2.342-7.099-4.216-10.921-5.621-3.277-1.405-7.099-1.405-10.922-2.81-10.375-3.747-20.204-7.963-30.579-11.242-11.468-3.747-17.475.937-16.382 11.242 1.092 8.43 1.638 16.862-.547 25.293-.546 4.684-1.638 9.368 4.369 12.647zM89.009 73.304c-4.915-.937-8.191 0-12.014 2.342-5.46 2.81-10.92 5.152-16.928 7.963-4.368 1.873-8.19 3.279-12.56 5.62-4.368 2.343-7.098 6.558-7.644 10.774 0 4.215 2.184 5.62 6.007 7.025 13.651 4.684 25.119 12.179 36.04 20.141 1.638 1.406 4.369 2.342 6.553 1.874 7.645-.468 10.921-4.684 9.83-11.71-1.639-11.241-3.823-22.014-1.093-33.256 2.184-6.089-1.092-9.368-8.191-10.773zm28.396-17.799c5.46 1.405 11.467 1.874 16.927 3.279 7.099 1.874 14.198 4.215 21.297 6.557 9.283 2.81 15.29-.468 14.744-8.43-1.092-5.153-1.092-11.242-2.73-16.863-2.185-8.43-6.007-16.394-13.106-22.483-6.007-5.62-11.467-5.152-16.928 1.405-4.369 5.153-9.829 9.368-15.29 14.052-3.822 3.748-9.283 6.09-11.467 11.242-3.277 5.62-1.638 9.368 6.553 11.241zm65.528 24.357c-1.093 8.9 1.092 11.241 11.467 12.178 1.638 0 2.73.468 4.369.468 4.368.469 7.644-.936 10.375-3.747 2.184-2.342 4.368-4.684 7.099-6.557 4.914-3.28 10.375-6.558 15.836-9.368 4.368-2.81 6.006-5.621 4.914-10.305-1.092-4.215-4.368-5.62-8.737-5.62-3.276-.469-6.553-1.406-9.829-2.343-4.915-1.873-9.829-4.215-14.744-6.557-6.553-2.81-13.106-4.684-19.658-.469-8.737 6.09-9.83 11.242-6.007 19.673 2.184 4.216 3.276 8.9 4.915 12.647zM61.706 184.782c-.547-4.216.546-8.9.546-13.584 0-7.025-3.823-9.367-11.468-6.557-4.914 1.874-10.375 3.747-15.836 4.216-9.829.936-19.112 3.747-28.395 7.025C2.184 177.288 0 179.629 0 183.845c1.092.468 2.184 1.405 3.276 1.874 8.191 4.215 16.382 7.494 24.027 12.178 7.1 4.215 16.382 5.621 21.843 11.71 3.822 4.215 7.645 4.684 11.468 2.342 4.368-2.342 5.46-5.153 4.368-10.305-1.092-4.684-2.73-10.773-3.276-16.862zM54.06 31.617c9.829 6.09 19.112 12.178 28.395 18.736 3.823 2.81 7.099 2.81 10.921 1.873 4.369-.936 5.461-4.215 5.461-7.494V11.008c.546 0 1.092-.469 1.638-.469-1.638-2.81-2.184-7.026-4.914-8.9-3.823-3.278-8.737-.936-12.56.938C75.903 6.324 68.258 9.603 61.16 13.35c-3.277 1.405-6.553 3.278-9.284 5.62-4.914 4.216-3.822 8.9 2.185 12.647z" fill="#0077B5"/></svg>