<svg width="455" height="431" fill="none" xmlns="http://www.w3.org/2000/svg"><g filter="url(#filter0_d_266_20183)"><circle cx="228.849" cy="224.03" r="169.124" fill="#fff"/><circle cx="228.849" cy="224.03" r="165.124" stroke="#DAE1E9" stroke-width="8"/></g><circle cx="228.849" cy="224.031" r="126.752" fill="#DAE1E9" fill-opacity=".2"/><g filter="url(#filter1_d_266_20183)"><circle cx="228.849" cy="224.031" r="84.379" fill="#fff"/></g><path d="M233.145 170.292l12.611 73.555h-72.977l60.366-73.555z" fill="#0033A1"/><path d="M233.143 170.292l44.695 73.555h-32.084l-12.611-73.555z" fill="#CC27B0"/><path d="M172.779 243.846h72.977l4.56 26.584-77.537-26.584z" fill="#0071CE"/><path d="M245.753 243.846h32.084l-27.524 26.584-4.56-26.584z" fill="#E17FD2"/><g filter="url(#filter2_d_266_20183)"><rect x="69.953" y="300.374" width="74.517" height="74.517" rx="8" fill="#fff"/><circle cx="107.211" cy="337.632" r="37.258" fill="#fff"/><g clip-path="url(#clip0_266_20183)" stroke="#54C0E8" stroke-width="2.5" stroke-linecap="round" stroke-linejoin="round"><path d="M83.229 349.625c0 3.785 4.985 6.852 11.134 6.852 6.15 0 11.135-3.067 11.135-6.852m3.427 0c0 3.785 4.984 6.852 11.134 6.852s11.135-3.067 11.135-6.852"/><path d="M83.229 344.482c0 3.786 4.985 6.852 11.134 6.852 6.15 0 11.135-3.066 11.135-6.852m3.427 0c0 3.786 4.984 6.852 11.134 6.852s11.135-3.066 11.135-6.852"/><path d="M83.229 339.344c0 3.786 4.985 6.853 11.134 6.853 6.15 0 11.135-3.067 11.135-6.853m3.427 0c0 3.786 4.984 6.853 11.134 6.853s11.135-3.067 11.135-6.853v15.418c0 3.786-4.985 6.852-11.135 6.852-6.15 0-11.134-3.066-11.134-6.852v-15.418z"/><path d="M83.229 334.207c0 3.786 4.985 6.852 11.134 6.852 6.15 0 11.135-3.066 11.135-6.852"/><path d="M83.229 329.064c0 3.786 4.985 6.853 11.134 6.853 6.15 0 11.135-3.067 11.135-6.853"/><path d="M105.498 323.927c0 3.786-4.985 6.852-11.135 6.852-6.15 0-11.134-3.066-11.134-6.852v30.834c0 3.786 4.985 6.853 11.134 6.853 6.15 0 11.135-3.067 11.135-6.853v-30.834z"/><path d="M94.363 330.781c6.15 0 11.135-3.068 11.135-6.852 0-3.785-4.985-6.852-11.135-6.852-6.15 0-11.134 3.067-11.134 6.852 0 3.784 4.985 6.852 11.134 6.852zm25.696 15.418c6.15 0 11.135-3.068 11.135-6.852 0-3.785-4.985-6.853-11.135-6.853-6.149 0-11.134 3.068-11.134 6.853 0 3.784 4.985 6.852 11.134 6.852z"/></g></g><g filter="url(#filter3_d_266_20183)"><rect x="40" y="123.579" width="74.517" height="74.517" rx="8" fill="#fff"/><circle cx="77.258" cy="160.837" r="37.258" fill="#fff"/><g clip-path="url(#clip1_266_20183)" stroke="#54C0E8" stroke-width="2.5" stroke-linecap="round" stroke-linejoin="round"><path d="M101.301 158.641L77.37 174.542l-23.931-15.901 23.931-16.647 23.931 16.647z"/><path d="M76.941 158.212l12.3 8.998v14.582"/><path d="M94.423 163.835v2.998c0 6.094-7.708 11.036-17.181 11.036-9.474 0-17.178-4.925-17.178-11.036v-2.925"/></g></g><g filter="url(#filter4_d_266_20183)"><rect x="193.417" y="32.259" width="73.786" height="74.517" rx="8" fill="#fff"/><ellipse cx="230.311" cy="69.517" rx="36.893" ry="37.258" fill="#fff"/><g clip-path="url(#clip2_266_20183)" stroke="#54C0E8" stroke-width="2.5" stroke-linecap="round" stroke-linejoin="round"><path d="M206.563 57.495l23.777-12.128 23.777 12.129h-47.554zm11.874.03h-5.089V83.22h5.089V57.525zm32.258 25.697h-40.709v5.14h40.709v-5.14z"/><path d="M254.088 88.36h-47.495v5.139h47.495v-5.14zm-6.815-30.835h-5.089V83.22h5.089V57.525zm-14.418 0h-5.089V83.22h5.089V57.525z"/></g></g><g filter="url(#filter5_d_266_20183)"><rect x="301.54" y="308.41" width="74.517" height="74.517" rx="8" fill="#fff"/><circle cx="338.799" cy="345.668" r="37.258" fill="#fff"/><g clip-path="url(#clip3_266_20183)" stroke="#54C0E8" stroke-width="2.5" stroke-linejoin="round"><path d="M330.221 325.113v-3.439h-3.426v3.439h3.426zm20.569.004v-3.439h-3.426v3.439h3.426z" stroke-linecap="round"/><path d="M350.79 322.348v5.996a11.998 11.998 0 01-7.403 11.078 11.985 11.985 0 01-9.177 0 12.011 12.011 0 01-3.891-2.599 12.011 12.011 0 01-3.512-8.479v-5.996m11.987 17.998v2.754" stroke-linecap="round"/><path d="M336.739 363.838l-2.33-2.326a3.422 3.422 0 01.852-5.042 3.432 3.432 0 011.825-.525h5.995a4.282 4.282 0 100-8.565 4.282 4.282 0 01-4.282-4.283"/><path d="M338.798 369.651a3.426 3.426 0 100-6.852 3.426 3.426 0 000 6.852z" stroke-linecap="round"/></g></g><g filter="url(#filter6_d_266_20183)"><rect x="340.26" y="125.77" width="74.517" height="74.517" rx="8" fill="#fff"/><circle cx="377.518" cy="163.029" r="37.258" fill="#fff"/><g clip-path="url(#clip4_266_20183)" stroke="#54C0E8" stroke-width="2.5" stroke-linecap="round" stroke-linejoin="round"><path d="M383.864 149.825a5.138 5.138 0 10-9.772-2.214v.279l-6.797 6.813a6.85 6.85 0 00-7.571 3.013 6.85 6.85 0 00.663 8.122v14.321h10.278v-14.321a6.772 6.772 0 001.474-6.291l6.813-6.797h.279a5.143 5.143 0 002.214-.505l5.995 5.996 2.42-2.416-5.996-6z"/><path d="M365.527 164.743a3.426 3.426 0 100-6.852 3.426 3.426 0 000 6.852zm35.973 15.416h-47.965v6.852H401.5v-6.852zm-22.269-30.677a1.872 1.872 0 10-.001-3.743 1.872 1.872 0 00.001 3.743zm9.409 7.565l5.636 5.632"/></g></g><defs><filter id="filter0_d_266_20183" x="43.725" y="42.906" width="370.249" height="370.249" filterUnits="userSpaceOnUse" color-interpolation-filters="sRGB"><feFlood flood-opacity="0" result="BackgroundImageFix"/><feColorMatrix in="SourceAlpha" type="matrix" values="0 0 0 0 0 0 0 0 0 0 0 0 0 0 0 0 0 0 127 0" result="hardAlpha"/><feOffset dy="4"/><feGaussianBlur stdDeviation="8"/><feComposite in2="hardAlpha" operator="out"/><feColorMatrix type="matrix" values="0 0 0 0 0.254902 0 0 0 0 0.32549 0 0 0 0 0.392157 0 0 0 0.08 0"/><feBlend mode="normal" in2="BackgroundImageFix" result="effect1_dropShadow_266_20183"/><feBlend mode="normal" in="SourceGraphic" in2="effect1_dropShadow_266_20183" result="shape"/></filter><filter id="filter1_d_266_20183" x="128.47" y="127.651" width="200.759" height="200.759" filterUnits="userSpaceOnUse" color-interpolation-filters="sRGB"><feFlood flood-opacity="0" result="BackgroundImageFix"/><feColorMatrix in="SourceAlpha" type="matrix" values="0 0 0 0 0 0 0 0 0 0 0 0 0 0 0 0 0 0 127 0" result="hardAlpha"/><feOffset dy="4"/><feGaussianBlur stdDeviation="8"/><feComposite in2="hardAlpha" operator="out"/><feColorMatrix type="matrix" values="0 0 0 0 0.254902 0 0 0 0 0.32549 0 0 0 0 0.392157 0 0 0 0.08 0"/><feBlend mode="normal" in2="BackgroundImageFix" result="effect1_dropShadow_266_20183"/><feBlend mode="normal" in="SourceGraphic" in2="effect1_dropShadow_266_20183" result="shape"/></filter><filter id="filter2_d_266_20183" x="29.953" y="268.374" width="154.517" height="154.517" filterUnits="userSpaceOnUse" color-interpolation-filters="sRGB"><feFlood flood-opacity="0" result="BackgroundImageFix"/><feColorMatrix in="SourceAlpha" type="matrix" values="0 0 0 0 0 0 0 0 0 0 0 0 0 0 0 0 0 0 127 0" result="hardAlpha"/><feOffset dy="8"/><feGaussianBlur stdDeviation="20"/><feColorMatrix type="matrix" values="0 0 0 0 0.254902 0 0 0 0 0.32549 0 0 0 0 0.392157 0 0 0 0.16 0"/><feBlend mode="normal" in2="BackgroundImageFix" result="effect1_dropShadow_266_20183"/><feBlend mode="normal" in="SourceGraphic" in2="effect1_dropShadow_266_20183" result="shape"/></filter><filter id="filter3_d_266_20183" x="0" y="91.579" width="154.517" height="154.517" filterUnits="userSpaceOnUse" color-interpolation-filters="sRGB"><feFlood flood-opacity="0" result="BackgroundImageFix"/><feColorMatrix in="SourceAlpha" type="matrix" values="0 0 0 0 0 0 0 0 0 0 0 0 0 0 0 0 0 0 127 0" result="hardAlpha"/><feOffset dy="8"/><feGaussianBlur stdDeviation="20"/><feColorMatrix type="matrix" values="0 0 0 0 0.254902 0 0 0 0 0.32549 0 0 0 0 0.392157 0 0 0 0.16 0"/><feBlend mode="normal" in2="BackgroundImageFix" result="effect1_dropShadow_266_20183"/><feBlend mode="normal" in="SourceGraphic" in2="effect1_dropShadow_266_20183" result="shape"/></filter><filter id="filter4_d_266_20183" x="153.417" y=".259" width="153.786" height="154.517" filterUnits="userSpaceOnUse" color-interpolation-filters="sRGB"><feFlood flood-opacity="0" result="BackgroundImageFix"/><feColorMatrix in="SourceAlpha" type="matrix" values="0 0 0 0 0 0 0 0 0 0 0 0 0 0 0 0 0 0 127 0" result="hardAlpha"/><feOffset dy="8"/><feGaussianBlur stdDeviation="20"/><feColorMatrix type="matrix" values="0 0 0 0 0.254902 0 0 0 0 0.32549 0 0 0 0 0.392157 0 0 0 0.16 0"/><feBlend mode="normal" in2="BackgroundImageFix" result="effect1_dropShadow_266_20183"/><feBlend mode="normal" in="SourceGraphic" in2="effect1_dropShadow_266_20183" result="shape"/></filter><filter id="filter5_d_266_20183" x="261.54" y="276.41" width="154.517" height="154.517" filterUnits="userSpaceOnUse" color-interpolation-filters="sRGB"><feFlood flood-opacity="0" result="BackgroundImageFix"/><feColorMatrix in="SourceAlpha" type="matrix" values="0 0 0 0 0 0 0 0 0 0 0 0 0 0 0 0 0 0 127 0" result="hardAlpha"/><feOffset dy="8"/><feGaussianBlur stdDeviation="20"/><feColorMatrix type="matrix" values="0 0 0 0 0.254902 0 0 0 0 0.32549 0 0 0 0 0.392157 0 0 0 0.16 0"/><feBlend mode="normal" in2="BackgroundImageFix" result="effect1_dropShadow_266_20183"/><feBlend mode="normal" in="SourceGraphic" in2="effect1_dropShadow_266_20183" result="shape"/></filter><filter id="filter6_d_266_20183" x="300.26" y="93.77" width="154.517" height="154.517" filterUnits="userSpaceOnUse" color-interpolation-filters="sRGB"><feFlood flood-opacity="0" result="BackgroundImageFix"/><feColorMatrix in="SourceAlpha" type="matrix" values="0 0 0 0 0 0 0 0 0 0 0 0 0 0 0 0 0 0 127 0" result="hardAlpha"/><feOffset dy="8"/><feGaussianBlur stdDeviation="20"/><feColorMatrix type="matrix" values="0 0 0 0 0.254902 0 0 0 0 0.32549 0 0 0 0 0.392157 0 0 0 0.16 0"/><feBlend mode="normal" in2="BackgroundImageFix" result="effect1_dropShadow_266_20183"/><feBlend mode="normal" in="SourceGraphic" in2="effect1_dropShadow_266_20183" result="shape"/></filter><clipPath id="clip0_266_20183"><path fill="#fff" transform="translate(82.372 312.793)" d="M0 0h49.678v49.678H0z"/></clipPath><clipPath id="clip1_266_20183"><path fill="#fff" transform="translate(52.42 135.998)" d="M0 0h49.678v49.678H0z"/></clipPath><clipPath id="clip2_266_20183"><path fill="#fff" transform="translate(205.715 44.678)" d="M0 0h49.191v49.678H0z"/></clipPath><clipPath id="clip3_266_20183"><path fill="#fff" transform="translate(313.96 320.829)" d="M0 0h49.678v49.678H0z"/></clipPath><clipPath id="clip4_266_20183"><path fill="#fff" transform="translate(352.679 138.19)" d="M0 0h49.678v49.678H0z"/></clipPath></defs></svg>