<svg width="125" height="85" fill="none" xmlns="http://www.w3.org/2000/svg"><g opacity=".3" fill="#fff"><path d="M19.3 51.34c-1.3-.3-2.7-.5-4-.5-3.8 0-6.1 2.1-6.1 5.1 0 2.7 1.9 4.1 4.2 4.8l.9.3c1 .3 1.8.8 1.8 1.6 0 .9-.9 1.5-3 1.5-1.3 0-2.6-.2-3.9-.6v3.8c1.5.3 3 .4 4.5.4 3.2 0 6.8-1.4 6.8-5.5 0-2-1.2-3.8-3.9-4.7l-1.1-.4c-.7-.2-1.9-.6-1.9-1.6 0-.8.9-1.3 2.6-1.3 1.1 0 2.2.2 3.2.5l-.1-3.4zm34.9 7.9c0 2.4-1.9 4.3-4.3 4.2-2.4 0-4.3-1.9-4.2-4.3 0-2.3 1.9-4.2 4.3-4.2 2.3 0 4.2 1.9 4.3 4.2-.1 0-.1.1-.1.1zm-4.2-8.5c-4.7.1-8.4 4-8.3 8.6.1 4.7 4 8.4 8.6 8.3 4.6-.1 8.3-3.9 8.3-8.5s-3.7-8.4-8.3-8.5c-.1.1-.2.1-.3.1zM3.7 67.44H-.4v-16.4h4.1m33.3.3c-1.2-.4-2.5-.6-3.8-.6-4.6-.2-8.5 3.4-8.7 8v.5c0 5.3 4.1 8.5 8.7 8.5 1.3 0 2.5-.2 3.8-.6v-4.4c-1.1.6-2.3.9-3.5.9-2.4.1-4.4-1.8-4.5-4.2-.1-2.4 1.8-4.4 4.2-4.5h.3c1.2 0 2.4.3 3.5.9M-4.6 20.114c0-1.1.9-2.1 2.1-2.1 1.2 0 2.1.9 2.1 2.1v21.8c0 1.1-.9 2-2.1 2-1.2 0-2.1-.9-2.1-2v-21.8zm11.3 7.7c0-1.1.9-2 2.1-2 1.2 0 2.1.9 2.1 2v9.9c0 1.1-.9 2-2.1 2-1.2 0-2.1-.9-2.1-2v-9.9zm11.3 5.7c0-1.1.9-2 2.1-2 1.1 0 2 .9 2 2v4.3c0 1.1-.9 2-2.1 2-1.1 0-2-.9-2-2m22.458-17.683c0-1.1.9-2.1 2-2.1s2.1.9 2.1 2.1v21.7c0 1.1-.9 2.1-2.1 2.1-1.1 0-2-.9-2-2.1v-21.7zm11.3 7.7c0-1.1.9-2 2-2s2 .9 2 2v9.9c0 1.1-.9 2.1-2 2.1s-2-.9-2-2.1v-9.9zm11.2 5.7c0-1.1.9-2 2.1-2 1.1 0 2 .9 2 2v4.3c0 1.1-.9 2-2.1 2-1.1 0-2-.9-2-2"/><path d="M44.558 20.131c0-1.1-.9-2-2-2s-2.1.9-2.1 2v21.7c0 1.1.9 2.1 2.1 2.1 1.2 0 2-.9 2-2.1v-21.7zm-11.3 7.7c0-1.1-.9-2.1-2-2.1-1.1.1-2.1 1-2.1 2.1v9.9c0 1.1.9 2 2.1 2 1.1 0 2-.9 2-2v-9.9zm-11.2 5.7c0-1.1-.9-2-2.1-2-1.1 0-2 .9-2 2v4.3c0 1.1.9 2 2.1 2 1.1 0 2-.9 2-2"/></g></svg>