<svg width="210" height="84" fill="none" xmlns="http://www.w3.org/2000/svg"><g id="Cisco_Logo_White 1"><g id="Cisco_Logo" fill="#fff"><path id="path10" d="M104.3 50.426c-1.3-.3-2.7-.5-4-.5-3.8 0-6.1 2.1-6.1 5.1 0 2.7 1.9 4.1 4.2 4.8l.9.3c1 .3 1.8.8 1.8 1.6 0 .9-.9 1.5-3 1.5-1.3 0-2.6-.2-3.9-.6v3.8c1.5.3 3 .4 4.5.4 3.2 0 6.8-1.4 6.8-5.5 0-2-1.2-3.8-3.9-4.7l-1.1-.4c-.7-.2-1.9-.6-1.9-1.6 0-.8.9-1.3 2.6-1.3 1.1 0 2.2.2 3.2.5l-.1-3.4zm34.9 7.9c0 2.4-1.9 4.3-4.3 4.2-2.4 0-4.3-1.9-4.2-4.3 0-2.3 1.9-4.2 4.3-4.2 2.3 0 4.2 1.9 4.3 4.2-.1 0-.1.1-.1.1zm-4.2-8.5c-4.7.1-8.4 4-8.3 8.6.1 4.7 4 8.4 8.6 8.3 4.6-.1 8.3-3.9 8.3-8.5s-3.7-8.4-8.3-8.5c-.1.1-.2.1-.3.1zm-46.3 16.7h-4.1v-16.4h4.1"/><path id="path12" d="M78.9 50.426c-1.2-.4-2.5-.6-3.8-.6-4.6-.2-8.5 3.4-8.7 8v.5c0 5.3 4.1 8.5 8.7 8.5 1.3 0 2.5-.2 3.8-.6v-4.4c-1.1.6-2.3.9-3.5.9-2.4.1-4.4-1.8-4.5-4.2-.1-2.4 1.8-4.4 4.2-4.5h.3c1.2 0 2.4.3 3.5.9"/><path id="use14" d="M122 50.426c-1.2-.4-2.5-.6-3.8-.6-4.6-.2-8.5 3.4-8.7 8v.5c0 5.3 4.1 8.5 8.7 8.5 1.3 0 2.5-.2 3.8-.6v-4.4c-1.1.6-2.3.9-3.5.9-2.4.1-4.4-1.8-4.5-4.2-.1-2.4 1.8-4.4 4.2-4.5h.3c1.2 0 2.4.3 3.5.9"/><g id="g22"><path id="path16" d="M84.5 19.2c0-1.1-.9-2-2-2s-2.1.9-2.1 2V41c0 1.1.9 2 2.1 2 1.1 0 2-.9 2-2V19.2zm-11.2 7.7c0-1.1-.9-2.1-2-2.1s-2.1.9-2.1 2.1v9.9c0 1.1.9 2.1 2.1 2.1 1.1 0 2-.9 2-2.1v-9.9zM62 32.6c0-1.1-.9-2-2.1-2-1.1 0-2 .9-2 2v4.3c0 1.1.9 2 2.1 2 1.1 0 2-.9 2-2"/><path id="use18" d="M80.4 19.2c0-1.1.9-2.1 2.1-2.1 1.2 0 2.1.9 2.1 2.1V41c0 1.1-.9 2-2.1 2-1.2 0-2.1-.9-2.1-2V19.2zm11.3 7.7c0-1.1.9-2 2.1-2 1.2 0 2.1.9 2.1 2v9.9c0 1.1-.9 2-2.1 2-1.2 0-2.1-.9-2.1-2v-9.9zm11.3 5.7c0-1.1.9-2 2.1-2 1.1 0 2 .9 2 2v4.3c0 1.1-.9 2-2.1 2-1.1 0-2-.9-2-2"/></g><g id="use20"><path id="path16-2" d="M125.458 19.217c0-1.1.9-2.1 2-2.1s2.1.9 2.1 2.1v21.7c0 1.1-.9 2.1-2.1 2.1-1.1 0-2-.9-2-2.1v-21.7zm11.3 7.7c0-1.1.9-2 2-2s2 .9 2 2v9.9c0 1.1-.9 2.1-2 2.1s-2-.9-2-2.1v-9.9zm11.2 5.7c0-1.1.9-2 2.1-2 1.1 0 2 .9 2 2v4.3c0 1.1-.9 2-2.1 2-1.1 0-2-.9-2-2"/><path id="use18-2" d="M129.558 19.217c0-1.1-.9-2-2-2s-2.1.9-2.1 2v21.7c0 1.1.9 2.1 2.1 2.1 1.2 0 2-.9 2-2.1v-21.7zm-11.3 7.7c0-1.1-.9-2.1-2-2.1-1.1.1-2.1 1-2.1 2.1v9.9c0 1.1.9 2 2.1 2 1.1 0 2-.9 2-2v-9.9zm-11.2 5.7c0-1.1-.9-2-2.1-2-1.1 0-2 .9-2 2v4.3c0 1.1.9 2 2.1 2 1.1 0 2-.9 2-2"/></g></g></g></svg>