<svg width="131" height="70" fill="none" xmlns="http://www.w3.org/2000/svg"><path d="M64.556 46.365c-1.809-.417-3.757-.695-5.565-.695-5.287 0-8.487 2.922-8.487 7.095 0 3.757 2.643 5.705 5.843 6.678l1.252.418c1.392.417 2.505 1.113 2.505 2.226 0 1.252-1.253 2.087-4.174 2.087-1.809 0-3.618-.278-5.426-.835v5.287c2.087.417 4.174.556 6.26.556 4.453 0 9.461-1.947 9.461-7.652 0-2.782-1.67-5.286-5.426-6.539l-1.53-.556c-.974-.278-2.644-.835-2.644-2.226 0-1.113 1.252-1.809 3.618-1.809 1.53 0 3.06.279 4.452.696l-.14-4.73zm48.555 10.992c0 3.339-2.643 5.982-5.982 5.843-3.339 0-5.983-2.644-5.844-5.983 0-3.2 2.644-5.843 5.983-5.843 3.2 0 5.843 2.643 5.982 5.843-.139 0-.139.14-.139.14zm-5.843-11.826c-6.539.139-11.687 5.565-11.548 11.965.14 6.539 5.565 11.686 11.965 11.547 6.4-.139 11.548-5.426 11.548-11.826s-5.148-11.686-11.548-11.825c-.139.139-.278.139-.417.139zM42.852 68.765h-5.704V45.948h5.704m-13.635.418a16.819 16.819 0 00-5.287-.835c-6.4-.278-11.826 4.73-12.104 11.13v.696c0 7.373 5.704 11.826 12.104 11.826 1.808 0 3.478-.279 5.287-.835v-6.122c-1.53.835-3.2 1.252-4.87 1.252-3.339.14-6.121-2.504-6.26-5.843-.14-3.34 2.504-6.122 5.843-6.26h.417c1.67 0 3.34.417 4.87 1.251m59.964-6.26a16.819 16.819 0 00-5.287-.835c-6.4-.278-11.826 4.73-12.104 11.13v.696c0 7.373 5.704 11.826 12.104 11.826 1.809 0 3.478-.279 5.287-.835v-6.122c-1.53.835-3.2 1.252-4.87 1.252-3.339.14-6.121-2.504-6.26-5.843-.14-3.34 2.504-6.122 5.843-6.26h.417c1.67 0 3.34.417 4.87 1.251M37.008 2.922A2.79 2.79 0 0034.225.139c-1.53 0-2.921 1.252-2.921 2.783v30.33c0 1.53 1.252 2.782 2.921 2.782a2.79 2.79 0 002.783-2.782V2.922zM21.426 13.634c0-1.53-1.252-2.921-2.783-2.921-1.53 0-2.922 1.252-2.922 2.921v13.774c0 1.53 1.253 2.922 2.922 2.922 1.53 0 2.783-1.252 2.783-2.922V13.634zm-15.722 7.93c0-1.53-1.252-2.782-2.921-2.782A2.79 2.79 0 000 21.565v5.982c0 1.53 1.252 2.783 2.922 2.783a2.79 2.79 0 002.782-2.783" fill="#000"/><path d="M31.303 2.922c0-1.53 1.253-2.922 2.922-2.922 1.67 0 2.922 1.252 2.922 2.922v30.33c0 1.53-1.252 2.782-2.922 2.782-1.67 0-2.922-1.252-2.922-2.782V2.922zm15.722 10.712c0-1.53 1.252-2.782 2.922-2.782 1.67 0 2.921 1.252 2.921 2.782v13.774c0 1.53-1.252 2.783-2.921 2.783-1.67 0-2.922-1.252-2.922-2.783V13.634zm15.721 7.93c0-1.53 1.252-2.782 2.922-2.782a2.79 2.79 0 012.783 2.783v5.982c0 1.53-1.253 2.783-2.922 2.783a2.79 2.79 0 01-2.783-2.783M93.992 2.945c0-1.53 1.252-2.921 2.783-2.921 1.53 0 2.922 1.252 2.922 2.921v30.19c0 1.531-1.253 2.923-2.922 2.923-1.53 0-2.783-1.252-2.783-2.922V2.946zm15.722 10.713a2.79 2.79 0 012.782-2.782 2.79 2.79 0 012.783 2.782v13.774c0 1.53-1.252 2.921-2.783 2.921-1.53 0-2.782-1.252-2.782-2.921V13.658zm15.582 7.93c0-1.53 1.252-2.782 2.922-2.782A2.79 2.79 0 01131 21.588v5.983c0 1.53-1.252 2.782-2.921 2.782a2.79 2.79 0 01-2.783-2.782" fill="#000"/><path d="M99.697 2.945A2.79 2.79 0 0096.913.163c-1.53 0-2.922 1.252-2.922 2.782v30.19c0 1.531 1.252 2.923 2.922 2.923 1.67 0 2.782-1.252 2.782-2.922V2.946zM83.975 13.658c0-1.53-1.252-2.922-2.782-2.922-1.53.14-2.922 1.392-2.922 2.922v13.774c0 1.53 1.252 2.782 2.921 2.782a2.79 2.79 0 002.783-2.782V13.658zm-15.582 7.93c0-1.53-1.252-2.782-2.922-2.782a2.79 2.79 0 00-2.783 2.782v5.983c0 1.53 1.253 2.782 2.922 2.782a2.79 2.79 0 002.783-2.782" fill="#000"/></svg>