<svg width="157" height="22" fill="none" xmlns="http://www.w3.org/2000/svg"><path d="M17.37 15.911c-.366 0-.733.123-1.1.49a8.068 8.068 0 01-5.627 2.324c-1.958 0-3.915-.857-5.138-2.202-1.346-1.468-2.08-3.548-2.08-5.627-.244-4.037 2.936-7.585 6.973-7.707h.367c2.08 0 4.037.734 5.505 2.202.245.245.611.367.978.367.857 0 1.713-.734 1.713-1.59 0-.49-.245-.98-.612-1.346A10.721 10.721 0 0010.765.131c-2.936 0-5.75 1.1-7.707 3.18A11.356 11.356 0 000 11.018c0 2.814 1.101 5.627 3.058 7.707 1.958 2.08 4.771 3.18 7.585 3.18 2.935.123 5.75-1.1 7.829-3.058.367-.245.489-.734.489-1.223 0-.979-.734-1.59-1.59-1.713zM32.54.008c-2.936 0-5.75 1.101-7.83 3.303a11.132 11.132 0 00-3.058 7.707c0 2.814.979 5.505 2.936 7.584 4.282 4.282 11.255 4.404 15.536.123l.122-.123a11.132 11.132 0 003.059-7.706c0-2.814-.98-5.505-2.936-7.585-2.08-2.202-4.894-3.425-7.83-3.303zm7.34 10.888c.244 4.159-2.937 7.584-7.096 7.829h-.367c-2.08 0-3.914-.857-5.382-2.325-1.346-1.467-2.08-3.547-2.08-5.504-.244-4.037 2.936-7.585 7.095-7.707h.367c2.08 0 3.915.856 5.383 2.324 1.345 1.346 2.08 3.303 2.08 5.383zM62.754.13c-.979 0-1.713.734-1.713 1.712v7.462H50.4V1.843c0-.856-.734-1.712-1.713-1.712-.856 0-1.713.734-1.713 1.712v18.105c0 .856.734 1.713 1.713 1.713.856 0 1.713-.734 1.713-1.713v-7.584h10.642v7.584c0 .856.734 1.713 1.713 1.713.856 0 1.712-.734 1.712-1.713V1.843c0-.856-.733-1.712-1.712-1.712zm20.551 18.35h-11.01v-5.995h9.542c.857 0 1.59-.734 1.59-1.59 0-.857-.733-1.59-1.59-1.59h-9.541V3.433h10.887c.856 0 1.59-.612 1.59-1.468 0-.857-.612-1.59-1.468-1.59h-12.6c-.856 0-1.59.733-1.59 1.712v17.86c0 .856.734 1.713 1.59 1.713H83.43c.856 0 1.59-.734 1.468-1.59 0-.98-.735-1.59-1.59-1.59zM113.032.13c-.856 0-1.59.734-1.59 1.712v18.105c0 .856.734 1.713 1.713 1.713.856 0 1.712-.734 1.712-1.713V1.843c-.122-.978-.856-1.712-1.835-1.712zm20.552.122h-14.068c-.857 0-1.591.734-1.591 1.59 0 .857.734 1.59 1.591 1.59h5.382v16.515c0 .979.734 1.713 1.713 1.713.978 0 1.712-.734 1.712-1.713V3.434h5.383c.856 0 1.59-.734 1.59-1.59-.122-.857-.856-1.469-1.712-1.591zM155.113.13c-.611 0-1.223.367-1.467.856l-6.239 9.052-6.239-9.052c-.367-.49-.856-.856-1.468-.856-.856 0-1.713.734-1.713 1.59 0 .367.123.734.367 1.101l7.462 10.398v6.728c0 .979.734 1.713 1.713 1.713.979 0 1.713-.734 1.713-1.713v-6.85l7.339-10.276c.245-.367.367-.734.367-1.101-.244-.856-.978-1.59-1.835-1.59zM99.821 6.37H95.05c-.856-.123-1.59.611-1.713 1.467-.122.857.612 1.59 1.468 1.713h5.015a4.386 4.386 0 014.405 4.404 4.386 4.386 0 01-4.404 4.404h-9.542c-.856.122-1.59.856-1.468 1.712a1.823 1.823 0 001.468 1.468h9.542c4.159 0 7.706-3.303 7.706-7.462s-3.302-7.707-7.462-7.707h-.244z" fill="#fff"/><path d="M94.927 15.544h4.771c.857-.122 1.591-.856 1.468-1.712a1.823 1.823 0 00-1.468-1.468h-4.77a4.386 4.386 0 01-4.404-4.404 4.386 4.386 0 014.403-4.404h9.175c.856-.122 1.59-.856 1.468-1.713a1.823 1.823 0 00-1.468-1.468h-9.175c-4.159 0-7.706 3.303-7.706 7.462 0 4.16 3.303 7.707 7.462 7.707h.244z" fill="#fff"/></svg>