<svg width="100" height="100" fill="none" xmlns="http://www.w3.org/2000/svg"><g id="Icons-15" clip-path="url(#clip0_1448_1915)"><g id="Group"><path id="Vector" d="M25.68 46.325c1.55-11.892 11.488-20.787 23.904-20.787 12.832 0 23.107 8.895 24.705 20.787H100C98.338 20.102 76.798 0 49.6 0 22.835 0 1.63 20.102 0 46.325h25.68z" fill="#FA198C"/><path id="Vector_2" d="M74.193 53.675C72.34 65.774 62.384 74.462 49.585 74.462c-12.385 0-22.02-8.688-23.81-20.787H.016C2.014 79.962 23.06 100 49.57 100c26.941 0 48.338-20.038 50.351-46.325H74.193z" fill="#000"/></g></g><defs><clipPath id="clip0_1448_1915"><path fill="#fff" d="M0 0h100v100H0z"/></clipPath></defs></svg>