<svg width="100" height="84" fill="none" xmlns="http://www.w3.org/2000/svg"><g id="uuid-9b96594c-3336-4424-a508-f3e0d5cedd60" clip-path="url(#clip0_1448_1925)"><path id="Vector" d="M67.51 17.764c9.65 9.389 9.41 23.806-.577 33.52-9.49 9.233-24.36 9.233-33.866 0-9.811-9.543-10.068-24.256-.593-33.489.097-.093.209-.186.305-.28L14.82 0c-.096.093-.208.187-.304.28-19.575 19.041-19.318 49.12.576 68.473 19.574 19.041 50.24 19.041 69.814 0 19.895-19.352 20.151-49.447.576-68.488-.096-.094-.192-.172-.288-.265l-17.99 17.5c.097.093.209.171.305.264z" fill="#000"/><path id="Vector_2" d="M67.206 17.5c-9.876-9.326-24.52-9.326-34.412 0L50 34.237 67.206 17.5z" fill="#FA198C"/></g><defs><clipPath id="clip0_1448_1925"><path fill="#fff" d="M0 0h100v83.03H0z"/></clipPath></defs></svg>