<svg width="65" height="100" fill="none" xmlns="http://www.w3.org/2000/svg"><g clip-path="url(#clip0_1448_1934)"><path d="M17.647 25.757C29.805 27.606 38.522 37.588 38.522 50.4c0 12.404-8.733 22.042-20.875 23.842V100c26.413-1.996 46.534-23.057 46.534-49.6 0-26.967-20.137-48.387-46.534-50.4v25.757z" fill="#000"/><path d="M14.861 35.051C6.538 35.051 0 41.564 0 49.877s6.521 15.088 14.861 15.088 15.091-6.628 15.091-15.088c0-8.46-6.636-14.826-15.09-14.826zm7.456 14.826c0 4.238-3.195 7.446-7.456 7.446-4.26 0-7.21-3.208-7.21-7.446 0-4.238 3.163-7.184 7.21-7.184 4.048 0 7.456 3.159 7.456 7.184z" fill="#FA198C"/></g><defs><clipPath id="clip0_1448_1934"><path fill="#fff" d="M0 0h64.198v100H0z"/></clipPath></defs></svg>