<svg width="210" height="160" fill="none" xmlns="http://www.w3.org/2000/svg"><path d="M98.355 116.16H89.53l.014 16.513c0 4.826-2.069 8.73-6.894 8.73-4.828 0-6.916-3.904-6.916-8.73v-16.497H66.93l-.002 16.497c0 9.536 6.13 17.265 15.667 17.265 9.534 0 15.757-7.729 15.757-17.265l.002-16.513zm88.363-10.063h-8.782v42.989h8.782v-42.989zm6.484 1.586v-1.544h6.844v1.544h-2.503v6.807h-1.836v-6.807h-2.505zm10.388-1.544l1.953 5.742h.023l1.847-5.742H210v8.351h-1.72v-5.918h-.024l-2.046 5.918h-1.416l-2.046-5.86h-.024v5.86h-1.718v-8.351h2.584zm-143.838 9.662c-7.57-1.747-12.345 5.774-12.544 6.177-.097.198-.101.313-.436.305-.277-.006-.308-.305-.308-.305l-.94-5.753h-7.868v32.833h8.82v-17.772c0-1.452 3.91-8.415 11.487-6.624 3.832.908 5.458 2.534 5.458 2.534v-10.003a14.098 14.098 0 00-3.669-1.392zm59.118 8.319a8.803 8.803 0 018.132 5.431 8.804 8.804 0 01-6.414 11.999 8.795 8.795 0 01-9.033-3.743 8.794 8.794 0 011.095-11.109 8.801 8.801 0 016.22-2.578zm-8.548 35.752v-11.814l.003.002.002-4.424s.013-.354.332-.358c.285-.003.348.185.418.358.668 1.664 4.346 8.002 12.506 6.015a17.39 17.39 0 0011.5-22.987 17.385 17.385 0 00-23.958-9.311 17.387 17.387 0 00-9.645 15.565v26.954h8.842zm55.458-26.954a8.805 8.805 0 01-5.431 8.131 8.807 8.807 0 01-5.085.502 8.803 8.803 0 01-3.172-15.948 8.798 8.798 0 0113.688 7.315zm-.251 16.154h8.842v-16.154a17.38 17.38 0 00-19.002-17.306 17.383 17.383 0 00-3.101 34.038c8.161 1.988 11.838-4.351 12.506-6.014.07-.173.132-.361.418-.359.319.005.332.359.332.359M12.426 113.521H8.88v28.035l3.64.093c7.469 0 12.279-.679 12.279-14.108 0-12.877-4.246-14.02-12.374-14.02zm-2.395 35.482H0V106.08h10.764c13.032 0 22.918 2.392 22.918 21.461 0 18.887-10.471 21.462-23.65 21.462zM113.302 20.216C106.623 13.541 100.251 7.178 98.354 0c-1.896 7.177-8.27 13.54-14.947 20.216-10.017 10.01-21.374 21.356-21.374 38.371a36.324 36.324 0 0036.322 36.336 36.325 36.325 0 0033.561-22.432 36.309 36.309 0 002.761-13.904c0-17.014-11.356-28.36-21.375-38.37zm-35.83 46.835c-2.228-.076-10.447-14.243 4.801-29.327l10.09 11.022a.863.863 0 01-.067 1.287c-2.408 2.47-12.67 12.76-13.946 16.32-.263.734-.648.706-.879.698zm20.883 18.672a12.492 12.492 0 01-12.492-12.492 13.017 13.017 0 013.114-8.251c2.252-2.755 9.377-10.501 9.377-10.501s7.015 7.86 9.359 10.474a12.214 12.214 0 013.134 8.278 12.49 12.49 0 01-12.492 12.492zm23.91-20.258c-.269.59-.88 1.572-1.704 1.602-1.47.054-1.627-.7-2.713-2.306-2.384-3.529-23.193-25.276-27.085-29.482-3.423-3.7-.482-6.307.883-7.674 1.711-1.715 6.708-6.708 6.708-6.708s14.899 14.135 21.105 23.794c6.206 9.659 4.067 18.016 2.806 20.774z" fill="#fff"/></svg>