<svg width="116" height="45" fill="none" xmlns="http://www.w3.org/2000/svg"><g clip-path="url(#clip0_197_141)" fill="#fff"><path d="M23.2 14.85c-1.11-.97-1.63-2.11-1.63-3.74 0-2.67 1.72-5.26 4.37-7 0 0 9.32-5.56 11.55 0 .18.42.28.88.28 1.39 0 3.62-4.81 6.64-14.56 9.35m16.4-6.43c1.92-1.94.82-5.39.82-5.39h-.01c-.46-1.29-1.95-3.28-6.81-3.01 0 0-6.41.27-11.77 4.08-3.3 2.02-4.94 4.06-4.94 7 0 1.99.71 3.5 2.15 4.65-4.36 1.08-8.45 1.63-12.22 1.63-2.33 0-4.35-.22-6.07-.61-.94-.24-1.07 1.29 0 1.48 1.58.22 3.32.34 5.22.34 4.42 0 9.1-.66 14.04-1.87 2.14 1.27 4.61 2.05 7.61 2.29C12.55 21.18 4.29 27.7 4.29 34.46c0 1.97.72 3.72 2.04 5.17.9 1.54 4.93 3.58 4.93 3.58 9.93 3.72 20.44-3.04 20.44-3.04.38-.23.76-.45 1.13-.69 3.19-2.11 4.75-4.29 4.75-6.64 0-2.84-2.86-5.19-7.15-5.19-4.29 0-9.17 2.05-14.82 6.15 0 0-.27.21-.03.57 0 0 .19.32.61.28 4.75-3.2 8.58-4.89 11.7-4.89 3.38 0 5.59 1.69 5.59 4.29 0 2.3-1.64 4.74-4.59 6.12-9.7 4.55-16.68 0-16.68 0-1.77-1.31-2.72-3.18-2.72-5.46 0-6.58 7.87-13.34 21.85-15.15l.32-.18v-.61l-.26-.3c-2.67-.49-5.2-1.15-7.28-2.72 7.51-2.18 14.1-5.18 15.49-7.34"/><path d="M39.23 23.41c.88 0 1.46-.37 1.46-.95s-.76-1.08-2.58-1.73c-1.76-.63-2.62-1.47-2.62-2.57 0-1.1.81-2.22 2.04-2.87.84-.43 1.88-.65 3.27-.65.91 0 1.44.07 2.69.28l.09 2.61c-1.42-.84-2.02-1.04-2.95-1.04-.93 0-1.42.28-1.42.78 0 .41.44.82 1.23 1.12l1.35.52c1.76.67 2.58 1.6 2.58 2.92 0 2.12-1.88 3.37-5.04 3.37-1.48 0-2.25-.11-4.11-.6v-3.09c1.14 1.3 2.39 1.9 3.99 1.9m9.68-.63c0 .48.16.65.53.65 1.32 0 2.16-1.53 2.16-3.93 0-1.62-.58-2.68-1.51-2.68-.54 0-.93.22-1.16.63l-.02 5.33zm-.37-8.01l.26.76c1.11-.69 1.65-.86 2.69-.86 2.44 0 4.01 1.75 4.01 4.49 0 3.41-2.25 6.03-5.18 6.03-.44 0-.74-.04-1.42-.21v4.27c0 .91.12 1.34.53 2.4h-4.46c0-.76.02-1.32.02-1.7.05-1.32.05-4.88.05-5.18v-7.06c0-1.27-.09-1.68-.6-2.92h4.09l.01-.02zm12.99 4.13c.6-.19.79-.45.79-1.12 0-.93-.35-1.45-.98-1.45-1.09 0-1.44.73-1.46 3.11l1.65-.54zm-1.33 2.33c.58 1.47 1.23 1.99 2.48 1.99 1.18 0 2.02-.45 3.37-1.79l.02 2.2c-1.72 1.14-2.88 1.53-4.48 1.53-3.32 0-5.64-2.09-5.64-5.12 0-3.03 2.37-5.42 5.55-5.42 1.67 0 3.07.65 3.97 1.83.63.86.79 1.43.81 2.81l-6.08 1.96v.01zm9.93-6.39c.16.67.18.86.23 1.57 1-1.29 1.93-1.81 3.18-1.81.19 0 .32.02.58.09l.02 2.46c-.49-.06-.7-.08-.95-.08-1.49 0-2.44 1.19-2.44 3.04v2.48c0 .97.09 1.38.6 2.33h-4.62c.02-.58.05-1.04.05-1.34.05-.65.07-1.1.07-1.36v-2.63c0-2.81-.07-3.22-.77-4.75h4.05zm9.65 4.9c-1.37.15-2.11.93-2.11 2.22 0 .8.44 1.32 1.14 1.32.32 0 .56-.09.97-.41v-3.13zm-4.92-5.03c1.25-.17 1.81-.22 2.63-.22 2.83 0 4.83.71 5.59 2.01.37.6.53 1.32.53 2.33v2.85c0 1.38.16 2.33.54 3.26h-3.97l-.21-.67c-.93.63-1.58.82-2.55.82-2.14 0-3.57-1.19-3.57-3 0-.89.4-1.64 1.21-2.29 1.18-.95 2.11-1.32 4.57-1.81 0-1.12-.67-1.73-1.88-1.73-.77 0-1.32.17-2.86.84l-.02-2.4-.01.01zm13.39.11l.21.91c1.07-.82 1.86-1.12 2.9-1.12 1.18 0 2.27.54 2.76 1.45.28.48.37.97.37 2.18v3.65c0 1.36.12 1.81.72 3.04h-4.5v-6.61c0-.97-.3-1.42-.93-1.42-.58 0-1.09.37-1.09.8v5.31c0 .69.12 1.08.56 1.92h-4.41v-7.32c0-1.34-.12-1.77-.67-2.79h4.09-.01zm7.43 8.37l4.62-6.48-2.88.02c-.42 0-.72.02-1.39.13v-2.03h9.05v1.7l-4.6 6.5h2.81c.72 0 1.07-.09 1.93-.5v2.35h-9.54v-1.71.02zm15.84-3.45c-1.37.15-2.11.93-2.11 2.22 0 .8.44 1.32 1.14 1.32.32 0 .56-.09.98-.41v-3.13h-.01zm-4.92-5.03c1.25-.17 1.81-.22 2.62-.22 2.83 0 4.83.71 5.6 2.01.37.6.53 1.32.53 2.33v2.85c0 1.38.16 2.33.54 3.26h-3.97l-.21-.67c-.93.63-1.58.82-2.55.82-2.13 0-3.58-1.19-3.58-3 0-.89.39-1.64 1.21-2.29 1.18-.95 2.11-1.32 4.57-1.81 0-1.12-.67-1.73-1.88-1.73-.77 0-1.32.17-2.86.84l-.02-2.4v.01zM59.67 27.34h-1.43c.11.35.16.72.16 1.19v.44h-2.19v-.44c0-.47.03-.89.04-1.19h-1.43c.1.35.16.72.16 1.19v1.93c0 .48-.01.75-.04 1.09h1.31c-.01-.31-.04-.76-.04-1.09v-.84h2.19v.84c0 .48-.02.75-.04 1.09h1.31c-.02-.31-.04-.76-.04-1.09v-1.93c0-.47.02-.89.04-1.19zm11.86-.1c-1.65 0-2.7.88-2.7 2.13s1.11 2.28 2.7 2.28 2.67-1.03 2.67-2.28c0-1.25-1.04-2.13-2.67-2.13zm0 3.67c-.86 0-1.47-.68-1.47-1.54 0-.81.51-1.39 1.47-1.39.9 0 1.44.56 1.44 1.39 0 .83-.57 1.54-1.44 1.54zm18.4-3.57h-1.8c-.41.85-1.26 2.78-1.53 3.46h-.02c-.13-.52-1.21-2.87-1.46-3.46h-1.83c.02.33.07.75.07.96 0 .15-.02.31-.02.48l-.06 1.53c-.02.51-.07.95-.11 1.24h1.14c-.04-.36-.07-.83-.06-1.24l.07-2.08h.02c.48 1.04 1.3 2.65 1.53 3.42l1.38-.1c.27-.76 1.04-2.43 1.5-3.32h.01l.07 2.08c0 .23.02.83-.03 1.24h1.31c-.06-.42-.12-.85-.13-1.24l-.06-1.62v-1.35h.01zm12.84 0h-3.34c.11.35.16.72.16 1.19v1.93c0 .48-.02.75-.04 1.09h3.31l.07-.74c-.38.04-.96.09-1.69.09h-.43v-1.23h.43c.68 0 1.02 0 1.48.03l.04-.71c-.52.03-1.01.03-1.52.03h-.43V28h.43c.6 0 1.16.01 1.58.03l-.06-.68.01-.01zm11.12-.1c-1.27 0-2.07.46-2.07 1.17 0 .62.63.98 1.27 1.26.66.29 1.33.5 1.33.85 0 .27-.41.4-.92.4-.56 0-1.1-.12-1.56-.24v.76c.2.05.89.21 1.65.21 1.25 0 2.06-.52 2.06-1.24 0-.81-.96-1.17-1.72-1.46-.49-.2-.87-.37-.87-.63 0-.23.43-.34.92-.34.49 0 .9.08 1.14.13v-.76c-.24-.04-.62-.11-1.22-.11"/></g><defs><clipPath id="clip0_197_141"><path fill="#fff" d="M0 0h115.86v44.33H0z"/></clipPath></defs></svg>