<svg width="124" height="111" fill="none" xmlns="http://www.w3.org/2000/svg"><g id="uuid-496676aa-fc13-41f2-b1fa-2464ff1ec19e" clip-path="url(#clip0_1448_2718)"><path id="Vector" d="M118.355 78.686c-2.429-1.786-5.378-2.502-8.383-2.755 2.036-3.585-.463-9.924-.674-13.719-.098-1.785-1.53-3.697-3.524-3.528-13.438 1.18-30.723.323-44.203.169-.14-3.585-.42-7.155-1.333-10.613a2.744 2.744 0 00-1.053-1.574h4.198c16.555.183 37.42 1.04 53.835-1.532 3.622-.576 3.931-4.371 2.19-6.747.085-4.891-.828-9.98-.842-14.871-.028-5.608.21-11.175.014-16.755.927-1.813.576-4.259-1.095-5.355-.997-.998-2.556-1.167-3.792-.534-15.979.703-35.876-.169-51.869.168-15.993.338-37.21.9-53.217.366-1.081-1.912-4.002-1.827-5.223.07-1.77.731-2.036 3.19-.885 4.639C1.221 17.19 0 29.054 3.271 39.736c-2.218 1.631-.702 5.637 2.247 6.016.084 0 .155 0 .239.029 1.01 1.335 2.64 1.236 3.82.38 13.38 1.25 32.491.646 46.055.52a2.834 2.834 0 00-1.25 2.36c-.028 3.023-.182 6.354-.196 9.727-9.9-1.7-25.19-1.476-35.272-1.532-10.644-.056-7.05 11.357-5.589 18.863.028.14.084.267.113.394-2.935.548-5.828 1.462-8.734 2.713-.492.21-.843.492-1.096.829-1.348.112-2.555 1.068-2.597 2.924-.113 4.905-.267 9.6-.843 14.477-.42 3.514-.266 6.635 2.177 9.39 2.26 2.53 6.445 2.923 9.562 3.317 5.181.66 11.963 1.068 16.934-.633a3.287 3.287 0 001.194-.717c1.98.605 4.352-.084 5.068-2.642 1.966-6.972 3.005-18.16-.252-24.893-1.657-3.43-7.204-4.428-10.447-4.934a29.85 29.85 0 00-3.665-.337 3.867 3.867 0 00.098-1.94c-.561-3.022-1.109-6.03-1.334-9.08 1.756 0 3.525-.028 5.28-.042 8.607-.014 19.995.28 28.588.351.31.155.66.24 1.053.295.295 3.402.913 6.691 2.12 9.587.436 1.068 1.194 1.7 2.023 1.981-2.823.267-5.533.717-7.85 1.083-1.74.267-2.611 1.391-2.794 2.684-1.235.211-2.387 1.012-2.738 2.39-1.755 6.719-5.223 23.698 4.283 26.341 8.467 2.361 30.933 3.359 30.048-10.542a4.02 4.02 0 00-.252-1.18c.898-5.61.365-15.167-3.103-18.85-2.795-2.966-9.366-2.375-15.165-2.108 1.081-.563 1.84-1.757 1.544-3.458-.463-2.558-.645-5.145-.744-7.745 12.23.239 28.153.464 40.397.112-.07 3.472.029 7.38 1.615 10.065-4.184.196-9.337.618-13.072 2.91-1.46-.043-2.95.73-3.23 2.318-1.165 6.593-2.92 31.556 9.408 28.815.379-.084.702-.225.997-.407 6.262-.043 12.539-1.434 18.857.056 2.163.506 4.887-.647 5.336-3.036 1.629-8.588 4.676-21.689-3.735-27.86l-.014-.041zm-91.087 6.142c1.559.534.843.21.997.9 1.053 4.961.632 11.694-.59 16.853-6.43-.956-14.111 1.827-20.037-1.35-.828-.449.478-6.69.576-7.505.351-3.065.351-6.129-.38-9.067a46.343 46.343 0 0114.127-1.082c1.811.14 3.608.66 5.321 1.251h-.014zm43.248.871c1.236 1.139.716 5.848.632 7.267-.127 2.263-.084 4.358-.604 6.494-1.32 1.209-3.187 2.067-5.771 2.291-4.002.352-8.13-.309-12.118-.787-.224-.815-.28-1.672-.337-2.516-.14-1.925-.056-3.88 0-5.805.085-2.32.113-4.568-.14-6.817.21 0 .421 0 .632-.042 3.664-.619 14.743-2.77 17.678-.085h.028zM9.267 38.388c-3.103-9.98-.744-20.564-.309-30.937 15.08.801 35.315.646 50.409.646 15.684 0 36.27-1.672 51.953.394-1.053 9.024-2.246 19.847-.056 28.59-15.277 2.193-34.837 1.56-50.17 1.42-14.982-.141-36.718-2.165-51.827-.085v-.028zm87.184 62.409c-2.065-4.526-1.924-10.5-2.261-15.687 6.192-.295 12.16-2.516 18.52-.562 4.564 1.406 3.16 10.134 1.91 15.799-5.897-.844-12.328-.633-18.17.45z" fill="#000"/></g><defs><clipPath id="clip0_1448_2718"><path fill="#fff" d="M0 0h124v111H0z"/></clipPath></defs></svg>