<svg width="40" height="40" fill="none" xmlns="http://www.w3.org/2000/svg"><rect x="1" y="1" width="38" height="38" rx="19" stroke="#00BFC8" stroke-width="2"/><path d="M28 28v-5.869c0-2.87-.618-5.082-3.97-5.082a3.479 3.479 0 00-3.136 1.725h-.046v-1.457h-3.176V28h3.31v-5.29c0-1.393.262-2.74 1.987-2.74 1.698 0 1.724 1.59 1.724 2.83V28H28zM12.28 17.317h3.317v10.68H12.28v-10.68zM13.937 12a1.927 1.927 0 00-1.9 2.305 1.932 1.932 0 001.517 1.518 1.926 1.926 0 002.303-1.902A1.922 1.922 0 0013.937 12z" fill="#fff"/></svg>