<svg width="80" height="90" fill="none" xmlns="http://www.w3.org/2000/svg"><path d="M67.317 84.41H7.104a1.53 1.53 0 01-1.525-1.526v-27.76h3.05v26.233h58.688v3.054z" fill="#fff"/><path d="M72.896 90c-3.917 0-7.103-3.192-7.103-7.116 0-3.924 3.186-7.116 7.103-7.116 3.918 0 7.104 3.192 7.104 7.116 0 3.924-3.186 7.115-7.104 7.115zm0-11.178a4.056 4.056 0 00-4.055 4.062 4.066 4.066 0 004.055 4.062 4.066 4.066 0 004.055-4.062 4.057 4.057 0 00-4.055-4.062zM7.104 56.192C3.186 56.192 0 53.001 0 49.077c0-3.925 3.186-7.116 7.104-7.116 3.917 0 7.103 3.191 7.103 7.116 0 3.924-3.186 7.115-7.103 7.115zm0-11.177a4.057 4.057 0 00-4.055 4.062 4.066 4.066 0 004.055 4.061 4.066 4.066 0 004.054-4.061 4.056 4.056 0 00-4.054-4.062zm9.664-30.785c-3.917 0-7.103-3.19-7.103-7.115C9.665 3.191 12.85 0 16.768 0c3.918 0 7.104 3.19 7.104 7.115 0 3.925-3.186 7.116-7.104 7.116zm0-11.177a4.057 4.057 0 00-4.055 4.062 4.066 4.066 0 004.055 4.062 4.066 4.066 0 004.055-4.062 4.057 4.057 0 00-4.055-4.062zm45.824 72.242h-37.18a3.848 3.848 0 01-3.842-3.848v-29.99a3.848 3.848 0 013.842-3.848h37.18a3.848 3.848 0 013.84 3.848v29.99a3.848 3.848 0 01-3.84 3.848zm-37.18-34.632a.788.788 0 00-.793.794v29.99c0 .443.35.794.793.794h37.18a.788.788 0 00.792-.794v-29.99a.788.788 0 00-.792-.794h-37.18z" fill="#fff"/><path d="M75.046 57.093H49.375V54.04h24.146V8.642H22.348V5.588h52.698a1.53 1.53 0 011.524 1.527v48.451a1.53 1.53 0 01-1.524 1.527z" fill="#fff"/><path d="M36.479 39.136h-3.05v-5.467h-3.52v5.467h-3.05v-6.978c0-.84.687-1.527 1.525-1.527h6.57v-.016a1.511 1.511 0 011.525 1.527v6.994zm24.862 0h-3.048V32.02c0-7.833-6.357-14.2-14.192-14.2a14.192 14.192 0 00-10.885 5.084l3.003 2.092a10.631 10.631 0 017.882-3.481c5.884 0 10.67 4.794 10.67 10.688v6.948h-3.049v-6.948c0-4.214-3.414-7.634-7.621-7.634a7.597 7.597 0 00-6.311 3.359c-.23.336-.58.565-.991.641-.397.077-.808 0-1.143-.244l-5.473-3.817a1.536 1.536 0 01-.396-2.108A17.236 17.236 0 0144.1 14.765c9.496 0 17.24 7.742 17.24 17.255v7.116zM43.643 62.62c-3.917 0-7.103-3.19-7.103-7.115 0-3.924 3.186-7.116 7.103-7.116 3.918 0 7.104 3.192 7.104 7.116 0 3.924-3.186 7.116-7.104 7.116zm0-11.192a4.057 4.057 0 00-4.055 4.062 4.066 4.066 0 004.055 4.062 4.066 4.066 0 004.055-4.062 4.056 4.056 0 00-4.055-4.062zM19.97 32.86c-.61 0-1.205-.382-1.433-.992a1.544 1.544 0 01.884-1.97l4.771-1.787a1.54 1.54 0 011.967.886 1.544 1.544 0 01-.885 1.97l-4.771 1.786c-.183.061-.35.092-.534.092v.015zm7.362-11.483c-.335 0-.686-.107-.96-.351l-3.933-3.237a1.53 1.53 0 011.936-2.367l3.933 3.237a1.53 1.53 0 01.213 2.153 1.524 1.524 0 01-1.173.565h-.016zm-2.515 4.78c-.122 0-.26-.016-.396-.046l-4.924-1.313a1.53 1.53 0 01-1.082-1.863 1.527 1.527 0 011.86-1.084l4.923 1.313a1.53 1.53 0 011.082 1.863 1.515 1.515 0 01-1.478 1.13h.015z" fill="#fff"/></svg>