<svg width="210" height="84" fill="none" xmlns="http://www.w3.org/2000/svg"><path d="M79.5 40.6c-3.9 0-4.2-2.9-4.2-3.8-.1-1.8 1.1-3.3 2.8-3.9 2.6-.9 3.1-1 4.8-1.6v-.5c0-.5 0-1.1-.2-1.6-.4-1.1-1.5-1.7-2.6-1.6-1.2 0-2.3.7-2.9 1.8l-.7-.4c.4-1.6 2.1-3.2 4.9-3.2 2 0 3.3.5 4.1 1.8.5 1.1.8 2.4.7 3.7 0 1.2-.1 2.6-.1 3.7 0 .7-.1 1.4-.1 1.8 0 1 .2 1.8 1 1.8.4 0 .4-.1.7-.3l.5.5c-.6 1.1-1.8 1.7-3 1.8-1 .1-1.9-.5-2.1-1.5-.9.9-2.2 1.5-3.6 1.5zm3.4-7.5c-1.1.3-2.1.7-3.1 1.2-.8.4-1.3 1.3-1.2 2.2-.1 1.1.7 2 1.7 2.1h.4c.8 0 1.6-.2 2.3-.7l-.1-4.8zM51 39.8c0-1.4 0-2.6-.1-4.1h.8c-.1.7.2 1.5.7 2 .9.8 2.1 1.2 3.3 1.1 2.7 0 4-1 4-3.2 0-1.9-1.2-2.7-2.8-3.7l-.2-.2-1.7-1.2c-2.4-1.6-3.5-2.8-3.5-5.3 0-1.2.5-5.3 6.4-5.3 1.6 0 3.1.1 4.6.4v1.9c0 .9 0 1.2.1 2.3h-.7c0-.7-.2-1.5-.7-2-.9-.6-2.1-.9-3.2-.9-3.2 0-3.5 1.7-3.5 2.8 0 1.7.9 2.3 2.8 3.5l2.1 1.4c1.8 1.2 3.5 2.4 3.5 5.4 0 5.1-4.8 5.7-6.8 5.7-1.8.1-3.5-.1-5.1-.6zm38.5-13.1c1 .1 1.9 0 2.9-.2.7-.1 1.3-.3 1.9-.6l.3.2v1.2c1.2-.9 2.7-1.4 4.2-1.3 2.6 0 4.2 1.2 4.7 3.4.1.8.2 1.7.2 2.6v4.2c0 2.3.1 3 .6 3.4.4.3.9.4 1.4.4v.7c-.9-.1-2.6-.1-3.5-.1-1.3 0-2.8.1-3.5.1V40c.5 0 1-.2 1.4-.5.4-.4.5-1.2.5-3 0-.5.1-1.7.1-2.4 0-1.1 0-2.2-.1-3.2 0-1.5-1.1-2.7-2.6-2.7h-.4c-.9 0-1.9.2-2.7.6v7.5c0 2.3.1 3 .6 3.4.4.3.9.4 1.3.4v.7c-1.2-.1-2.6-.1-3.5-.1-1.9 0-2.5.1-3.6.1v-.7c.6 0 1.1-.2 1.5-.6.4-.5.5-1.7.5-4.1v-4.3c0-1.8-.1-2.5-.3-2.9-.2-.3-.7-.6-1.7-.6l-.2-.9zm17.6 13.1c.6 0 1.1-.2 1.5-.6.4-.5.5-1.7.5-4.1V28h-1.8v-.8c.7-.2 1.3-.6 1.8-1 0-1.3.1-2.5.2-3.8.6-2.9 2.5-4.4 5.7-4.4 1.3 0 2.6.4 3.6 1.2l.1.3-1.4 2h-.4c-.3-1.1-1.4-1.9-2.5-1.8-.5 0-1 .2-1.4.5-.6.6-.7 1.5-.7 3.4v2.6h3.2V28h-3.2v7.9c0 1.9.1 2.8.3 3.2.4.6 1.7.7 2.3.6v.7c-1-.1-2.7-.1-3.9-.1-1.8 0-2.9.1-3.9.1v-.6zm16.4.9c-4.3 0-6.9-2.7-6.9-7.2 0-3.5 1.9-7.6 7.2-7.6 4.3 0 6.9 2.7 6.9 7.2 0 3.5-1.9 7.6-7.2 7.6zm.2-13.2c-.7 0-1.5.2-2 .7-1.2 1-1.7 2.7-1.7 5.2 0 1 .2 5.7 3.7 5.7.7.1 1.4-.2 2-.6 1.2-1 1.7-2.7 1.7-5.2 0-1.1-.2-5.8-3.7-5.8zm8.4-.8c1 0 2.1 0 3.1-.2.6-.1 1.2-.2 1.7-.5l.2.1v1.2c.9-.8 2.1-1.3 3.3-1.3.9 0 1.8.3 2.5.9v.3l-1.2 2.2h-.7c-.5-.9-1.4-1.4-2.4-1.3-.6 0-1.1.1-1.6.4v7.3c0 1.9.1 2.8.3 3.1.4.6 1.6.7 2.3.6v.8c-1-.1-2.7-.1-3.9-.1-1.3 0-2.6 0-3.9.1v-.7c.6 0 1.1-.2 1.5-.6.4-.5.5-1.7.5-4.1v-4c0-1.8 0-2.5-.3-2.9-.2-.3-.7-.5-1.7-.6l.3-.7zm20.1-7.8c1.1-.1 2.3-.2 3.4-.4.5-.1 1-.2 1.5-.4l.2.1c-.1 1.2-.1 3.8-.1 5.7v11.6c-.1 1 0 2.1.2 3.1.4.4 1 .6 1.7.5v.7c-1 0-2 .1-3.1.3-.5.1-1.1.2-1.6.4l-.4-.1v-1.2c-1.1.9-2.5 1.4-4 1.3-3.9 0-6.4-2.7-6.4-6.9 0-1.3.2-2.6.7-3.9 1.2-2.6 3.9-4.2 6.8-4 .9 0 1.9.1 2.8.3v-3c0-1.8 0-2.7-.3-3.1-.2-.3-.5-.4-1.6-.5l.2-.5zm-.5 19.7c.8.1 1.6-.1 2.3-.5v-9.5c-.8-.7-1.8-1-2.8-1-2.8 0-4.1 1.9-4.1 5.8 0 1.6.5 5.2 4.6 5.2zm-77.8.4c-1 1.1-2.4 1.7-3.9 1.7-2.2 0-3.4-.8-4-2.6-.2-.9-.2-1.9-.2-2.9 0-2.3 0-4.1.1-6.2v-1H64v-.6c.6-.2 1.2-.6 1.8-1 1.1-.9 2-2.1 2.6-3.4h.6v3.2h5V28h-4.8v7.5c0 2.3.4 3.5 2.5 3.5.7 0 1.4-.2 2-.5l.2.5zm67.8 13.4c-.3 0-.5.1-.7.2-.1.1-.2.3-.2.4 0 .3.1.6.2.9l1.3 3.5c.2.5.4 1 .4 1.3l1.7-4.8c.1-.3.2-.6.2-.9 0-.1-.1-.3-.2-.4-.2-.2-.5-.2-.7-.2v-.5c.3 0 .5 0 .8.1.2 0 .6.1.9.1.6 0 1.2 0 1.8-.1v.4c-.2 0-.8-.1-1.3 1.3l-3.5 9.3c-.5 1.3-1.2 3-3.6 3-.8.1-1.6-.2-2.2-.7V65l.9-1h.2c.3.5.8.9 1.4.8 1.1 0 1.6-1 2.3-2.9l.2-.6-2.9-7.6c0-.1-.1-.2-.1-.3-.1-.2-.2-.5-.2-.5-.2-.3-.5-.5-.9-.5v-.5c.6.1 1.5.1 2 .1.4 0 .9 0 1.3-.1.3 0 .6 0 .9-.1v.6zm-32.4-.2c.7 0 1.3 0 2-.2.4-.1.7-.2 1.1-.3l.2.1v.8c.5-.6 1.3-.9 2.1-.9.6 0 1.2.2 1.6.5v.3l-.7 1.4h-.4c-.3-.5-.9-.9-1.5-.8-.3 0-.7.1-1 .3V58c-.1.7 0 1.4.2 2 .2.4 1 .4 1.4.4v.4c-.6-.1-1.7-.1-2.4-.1-.8 0-1.6 0-2.4.1v-.5c.4 0 .7-.1 1-.4.3-.3.3-1 .3-2.6v-2.6c0-1.1 0-1.6-.2-1.8-.1-.2-.5-.3-1-.3l-.3-.4zm-40.7 8.9c-2.6 0-4-.8-4.6-2.5-.3-.9-.4-1.9-.3-2.8v-4.9c0-1.5-.1-1.7-.4-2-.3-.2-.5-.3-.9-.3v-.5c.6.1 1.6.1 2.3.1.8 0 1.6 0 2.3-.1v.5c-.4 0-.7.1-1 .4-.3.3-.3.9-.3 2.4v4.3c0 2.6.2 4.2 3.1 4.2s3.1-1.7 3.1-4.3v-4.8c0-1.5-.1-1.7-.4-2-.3-.2-.6-.3-.9-.3V48c.6 0 1.3.1 2 .1s1.4 0 2.1-.1v.5c-.4 0-.7.1-1 .4-.3.3-.3.9-.3 2.4V55c.1 1.2-.1 2.4-.4 3.5-.3 1.8-1.9 2.6-4.4 2.6zm17.4-.5c.4 0 .7-.1 1-.4.3-.4.3-1.1.3-2.7v-2.6c0-1.1 0-1.7-.2-1.9-.1-.2-.4-.3-1-.4v-.4c.7 0 1.4 0 2.1-.2.3 0 .7-.2 1-.3l.2.2c-.1.6-.1 1.9-.1 3.6v2.6c-.1.7 0 1.3.2 2 .3.3.7.5 1.1.4v.4c-.6-.1-1.5-.1-2.3-.1-.8 0-1.6 0-2.4.1.1.1.1-.3.1-.3zm2.3-10.5c-.6.1-1.1-.3-1.1-.9V49c0-.6.5-1.2 1.1-1.2h.1c.6-.1 1.1.4 1.2 1v.1c0 .7-.6 1.2-1.3 1.2zm36.4 10.5c.4 0 .7-.1 1-.4.3-.3.3-1 .3-2.6V55c0-1.1 0-1.7-.2-1.9-.1-.2-.4-.3-1-.4v-.5c.7 0 1.4 0 2.1-.2.3-.1.7-.2 1-.3l.2.2c-.1.6-.1 1.9-.1 3.6v2.7c-.1.7 0 1.3.2 2 .3.3.7.5 1.1.4v.4c-.6-.1-1.5-.1-2.3-.1-.8 0-1.6 0-2.4.1l.1-.4zm2.2-10.5c-.6.1-1.1-.3-1.2-.9V49c0-.6.5-1.2 1.1-1.2h.1c.6-.1 1.1.3 1.2.9v.2c0 .6-.5 1.2-1.1 1.2h-.1zm-9.6 10.5c0-.8 0-1.6-.1-2.4h.6c0 .4.1.8.4 1.2.4.5 1 .7 1.6.6h.1c1 0 1.5-.4 1.5-1.3 0-.7-.4-1-1.2-1.4l-1.3-.8c-.9-.4-1.5-1.3-1.5-2.3-.1-.9.4-1.8 1.3-2.3.6-.2 1.2-.3 1.8-.3.8 0 1.6.1 2.4.2 0 .4-.1.7-.1 1.1 0 .4 0 .8.1 1.2h-.6c0-.4-.1-.7-.4-1-.4-.4-.9-.5-1.4-.5-.9 0-1.4.4-1.4 1.2 0 .6.5.9.9 1.2h.1l1.2.7c1 .4 1.8 1.4 1.8 2.5 0 2.4-2.2 2.8-3.5 2.8-.7 0-1.5-.1-2.3-.4zm19.2-.5c-.6.7-1.5 1.1-2.4 1-1.4 0-2.2-.5-2.5-1.7-.1-.6-.1-1.2-.1-1.8 0-1.5 0-2.6.1-4V53h-1.2v-.4l1.2-.6c.7-.6 1.3-1.4 1.7-2.2h.4v2h3.1v1.1h-3.1v4.8c0 1.4.2 2.3 1.6 2.3.5 0 .9-.1 1.3-.4l-.1.5zm-41.4-8.2c-.3 0-.6 0-.9.1-.5 0-1 .1-1.3.1-.7 0-1.3 0-2-.1v.5c.4 0 .8.2.9.5.1.2.2.4.2.5.1.1.1.2.1.3l2.9 7.3.9-.1 3.2-7.2c0-.1.1-.1.1-.2.1-.2.2-.4.3-.5.2-.3.5-.5.9-.5v-.5c-.4 0-1.2.1-1.8.1-.3 0-.6 0-.9-.1-.2 0-.6-.1-.9-.1v.4c.3 0 .5.1.7.2.1.1.2.2.2.4 0 .3-.1.6-.2.9L96 58.2c-.1-.4-.2-.7-.4-1.1l-1.2-3.2c-.1-.3-.2-.6-.2-.9 0-.1 0-.2.1-.3.2-.2.5-.3.8-.3v-.5zm-19.9.3c.6 0 1.2 0 1.8-.1.4-.1.8-.2 1.2-.4l.2.1v.7c.8-.5 1.7-.8 2.6-.9 1.4-.2 2.7.7 3 2.1.1.5.1 1.1.1 1.7V58c0 1.5.1 1.9.3 2.2.3.2.6.3.9.2v.4c-.6-.1-1.7-.1-2.3-.1-.8 0-1.5 0-2.3.1v-.4c.3 0 .7-.2.9-.4.2-.2.3-.8.4-1.9v-1.6c0-.7 0-1.4-.1-2.1 0-.9-.7-1.8-1.7-1.8h-.3c-.6 0-1.2.1-1.7.4v4.8c0 1.5.1 1.9.4 2.2.3.2.6.3.9.2v.4c-.7-.1-1.7-.1-2.3-.1-.8 0-1.5 0-2.3.1v-.4c.4 0 .7-.1 1-.4.3-.3.3-1.1.3-2.6v-2.6c0-1.1 0-1.6-.2-1.8-.1-.2-.4-.3-1-.3l.2-.3zm29.7 8.8c-2.8 0-4.2-1.6-4.2-4.5 0-.5.1-5 4.3-5 1.1-.1 2.2.4 2.8 1.3.4.7.7 1.6.6 2.4v.5h-5.7c0 .4 0 .8.1 1.2.1 1.5 1.4 2.7 2.9 2.6h.1c.8 0 1.5-.1 2.1-.5l.2.4c-.7 1.2-1.9 1.7-3.2 1.6zm-2.2-6h3.5c0-1.1-.2-2.3-1.8-2.3-1.4 0-1.7 1.4-1.7 2.3z" fill="#fff"/></svg>