<svg width="210" height="84" fill="none" xmlns="http://www.w3.org/2000/svg"><path d="M40.5 23.674c3.8 1.7 7.5 3.5 11.3 5.2v5.1c-2.2-1-4.4-2-6.6-3.1v10.6c2.2 1 4.4 2 6.6 3.1 0 1.7-.1 3.4 0 5.1-3.8-1.7-7.5-3.5-11.3-5.2v-20.8zm22.5 0c.1 6.9.1 13.9.1 20.8-3.8 1.7-7.5 3.5-11.2 5.2-.1-1.7-.1-3.4 0-5.1 2.2-1 4.4-2.1 6.7-3.1v-10.6c-2.2 1-4.4 2.1-6.7 3.1v-5.1c3.6-1.7 7.4-3.4 11.1-5.2zm8.81-.034c3 2.2 6 4.5 9 6.8 3-2.3 6-4.5 9-6.8v20.9h-4.6v-11.9c-1.5 1.1-2.9 2.2-4.4 3.3-1.5-1.1-2.9-2.2-4.4-3.3v11.9h-4.6v-20.9zm41.497.181h4.3c2.9 6.9 5.7 13.8 8.6 20.8h-4.8c-.5-1.2-.9-2.4-1.4-3.5h-7.2c-.5 1.2-.9 2.3-1.4 3.5h-4.8c2.6-6 5.3-12 7.9-18-.4-1-.8-1.9-1.2-2.8zm3.1 8.2c-.6 1.6-1.3 3.2-1.9 4.8h3.9c-.7-1.6-1.4-3.2-2-4.8zm15.503-7.881c1.8-.5 3.7-.4 5.4.3-.6 1.3-1.2 2.6-1.7 3.8-.8-.3-1.8-.7-2.6-.1-.9.8-.5 2.1-.6 3.2h2.7v3.9h-2.7v9.3h-4.2v-9.3h-1.9v-3.9h1.9c-.1-1.4 0-2.7.4-4.1.6-1.5 1.8-2.6 3.3-3.1zm-35.6 5.4c2.2-.9 4.7-.9 6.9.1 1.4.8 2.7 1.9 3.5 3.3-1.2.7-2.3 1.4-3.5 2.1-.6-1.3-2-2.2-3.4-2.3-2.2 0-4 1.8-4 4s1.8 4 4 4c1.5-.1 2.8-.9 3.4-2.3 1.2.7 2.3 1.4 3.5 2.1-.8 1.4-2 2.5-3.4 3.2-3 1.4-6.5 1-9.1-1.2-2-1.8-3-4.4-2.5-7.1.4-2.6 2.2-4.9 4.6-5.9zm41.696 2.44c2.7-3.4 7.6-4 11.1-1.5 2.5 1.7 3.4 4.9 3.2 7.8h-11.5c.7 1.9 2.6 2.9 4.5 2.6.9-.2 1.7-.6 2.3-1.3 1.1.6 2.3 1.2 3.4 1.9-1.2 1.4-2.7 2.3-4.4 2.8-3.2.9-6.6-.2-8.7-2.9-2-2.8-2-6.6.1-9.4zm2.9 2.8h6.7c-.6-1.3-1.8-2.2-3.2-2.2-1.6-.1-2.9.8-3.5 2.2zm13.879-2.199c2.2-3.3 6.4-4.5 10-2.9 2 .9 3.5 2.6 4.2 4.7.4 1.3.5 2.6.4 3.9h-11.5c.6 1.8 2.4 2.8 4.3 2.6 1-.2 1.9-.6 2.6-1.3 1.1.6 2.3 1.2 3.4 1.9-1.4 1.7-3.4 2.8-5.5 3.1-2.7.4-5.4-.6-7.3-2.7-2.1-2.7-2.4-6.4-.6-9.3zm3.3 2.2h6.7c-.6-1.4-2-2.3-3.5-2.2-1.5 0-2.7.9-3.2 2.2zM71.772 49.639h1.5v3c.9-1 2.5-1.1 3.5-.1l.3.3c.9 1.4.8 3.2-.2 4.5-1 1-2.6 1-3.6 0l-.1-.1v.7h-1.4v-8.3zm2.3 3.6c-1.3.8-1.1 3.5.7 3.5 1.3 0 1.7-1.7 1.3-2.7-.2-.7-1-1.2-1.8-.9 0 0-.1.1-.2.1zM87.81 49.54h1.5v8.3h-1.5v-8.3zm20.3 0h1.5v6.5c0 .4.5.5.8.6v1.3c-.6-.1-1.3 0-1.8-.4-.4-.5-.6-1.1-.5-1.7v-6.3zm-10 .8h1.5v1.7h1.3v1.2h-1.3c-.1 1 0 1.9.1 2.9.2.5.9.5 1.3.6v1.3c-1 0-2.3-.1-2.8-1.2-.2-1.2-.3-2.3-.2-3.5h-.8v-1.2h.8c.1-.7.1-1.3.1-1.8z" fill="#fff"/><path d="M77.71 51.94h1.7l1.5 4.2c.4-1.4.9-2.8 1.4-4.2h1.6l-2.7 6.9c-.3.7-.9 1.3-1.7 1.5h-.8l-.9-.3c.1-.4.3-.7.4-1.1.4 0 .9.3 1.3 0 .3-.3.5-.7.7-1.1-.8-2-1.7-3.9-2.5-5.9zm13.2 0h1.5c0 .3 0 .7-.1 1 .7-1 2-1.4 3.2-.9.7.4 1.1 1.1 1 1.9v4h-1.5c0-1.4.1-2.8-.1-4.1-.4-1.1-2.1-.5-2.4.4-.2 1.2-.3 2.5-.2 3.8h-1.4v-6.1zm11.674.486c1.2-1 3-.8 4 .5.4.7.6 1.5.5 2.4h-4.2c.2.5.4 1.1 1 1.4.9.3 1.9.2 2.6-.4.2.4.4.7.6 1.1-1.3.9-3 1-4.3.2-1.4-1.1-1.7-3.1-.6-4.6 0-.3.2-.5.4-.6zm.4 1.7h2.7c-.2-.5-.4-1.2-1.1-1.2-.8 0-1.5.5-1.6 1.2z" fill="#fff"/></svg>