<svg width="191" height="55" fill="none" xmlns="http://www.w3.org/2000/svg"><path d="M0 .05c5.629 2.518 11.109 5.184 16.738 7.703v7.554c-3.26-1.482-6.518-2.963-9.776-4.592v15.7c3.258 1.482 6.517 2.963 9.776 4.592 0 2.518-.148 5.037 0 7.555C11.109 36.044 5.628 33.377 0 30.859V.05z" fill="#000"/><path d="M33.327.05c.148 10.22.148 20.589.148 30.81-5.628 2.517-11.109 5.184-16.589 7.702a64.274 64.274 0 010-7.555c3.259-1.48 6.517-3.11 9.924-4.591V10.715c-3.259 1.481-6.517 3.11-9.924 4.592V7.753C22.218 5.234 27.846 2.716 33.327.05zM46.377 0c4.443 3.259 8.887 6.665 13.33 10.072C64.151 6.665 68.595 3.407 73.038 0v30.957h-6.813V13.331c-2.222 1.63-4.296 3.259-6.518 4.888-2.221-1.63-4.295-3.259-6.517-4.888v17.626h-6.813V0zm61.465.268h6.369c4.295 10.22 8.443 20.44 12.738 30.81h-7.109c-.741-1.778-1.334-3.556-2.074-5.185h-10.665c-.74 1.777-1.333 3.407-2.074 5.184h-7.11c3.852-8.887 7.851-17.774 11.702-26.662-.592-1.48-1.185-2.814-1.777-4.147zm4.592 12.146c-.889 2.37-1.926 4.74-2.815 7.11h5.777c-1.037-2.37-2.074-4.74-2.962-7.11zM135.397.74c2.666-.74 5.48-.592 7.998.445-.889 1.926-1.777 3.851-2.518 5.629-1.185-.445-2.666-1.037-3.851-.148-1.333 1.184-.741 3.11-.889 4.74h4v5.776h-4v13.775h-6.221V17.182h-2.814v-5.777h2.814c-.148-2.073 0-3.999.593-6.073.888-2.221 2.666-3.85 4.888-4.591zm-52.731 8c3.258-1.334 6.961-1.334 10.22.147 2.074 1.185 4 2.814 5.184 4.888-1.777 1.037-3.406 2.074-5.184 3.11-.889-1.925-2.962-3.258-5.036-3.406-3.259 0-5.925 2.666-5.925 5.925 0 3.258 2.666 5.925 5.925 5.925 2.222-.149 4.147-1.334 5.036-3.407 1.778 1.037 3.407 2.073 5.184 3.11a11.943 11.943 0 01-5.036 4.74c-4.443 2.074-9.628 1.481-13.479-1.777-2.962-2.666-4.443-6.518-3.703-10.517.593-3.85 3.259-7.258 6.814-8.739zm61.76 3.613c4-5.036 11.257-5.924 16.442-2.221 3.703 2.518 5.036 7.257 4.74 11.553h-17.034c1.037 2.814 3.851 4.295 6.665 3.851 1.333-.296 2.518-.889 3.407-1.926 1.629.89 3.407 1.778 5.036 2.815-1.777 2.073-3.999 3.406-6.517 4.147-4.74 1.333-9.776-.296-12.887-4.295-2.962-4.148-2.962-9.776.148-13.924zm4.296 4.148h9.924c-.889-1.926-2.666-3.259-4.74-3.259-2.37-.148-4.295 1.185-5.184 3.259zm20.557-3.258a11.919 11.919 0 0114.812-4.295c2.962 1.333 5.184 3.851 6.221 6.962.593 1.925.741 3.85.593 5.776h-17.034c.888 2.666 3.555 4.148 6.369 3.852 1.481-.297 2.814-.89 3.851-1.926 1.629.889 3.407 1.777 5.036 2.814a13.023 13.023 0 01-8.146 4.592c-4 .592-7.999-.889-10.813-4-3.111-3.999-3.555-9.479-.889-13.775zm4.888 3.26h9.924c-.889-2.075-2.962-3.408-5.184-3.26-2.222 0-3.999 1.334-4.74 3.26zM46.32 38.51h2.222v4.443c1.333-1.48 3.703-1.629 5.184-.148l.444.445a5.794 5.794 0 01-.296 6.665 3.755 3.755 0 01-5.332 0l-.148-.148v1.037H46.32V38.51zm3.407 5.332c-1.926 1.185-1.63 5.184 1.037 5.184 1.925 0 2.518-2.518 1.925-3.999-.296-1.037-1.481-1.777-2.666-1.333 0 0-.148.148-.296.148zm20.349-5.479h2.222v12.294h-2.222V38.363zm30.068 0h2.222v9.628c0 .592.74.74 1.185.889v1.925c-.889-.148-1.926 0-2.666-.592-.593-.741-.89-1.63-.741-2.518v-9.332zm-14.812 1.185h2.222v2.518h1.925v1.778h-1.925c-.148 1.48 0 2.814.148 4.295.296.74 1.333.74 1.925.889v1.925c-1.48 0-3.406-.148-4.147-1.777-.296-1.778-.444-3.407-.296-5.184h-1.185v-1.778h1.185c.148-1.037.148-1.925.148-2.666z" fill="#000"/><path d="M55.115 41.918h2.518l2.222 6.221c.593-2.074 1.333-4.147 2.074-6.221h2.37l-4 10.22c-.444 1.037-1.332 1.926-2.517 2.222h-1.185l-1.333-.444c.148-.593.444-1.037.592-1.63.593 0 1.333.445 1.926 0 .444-.444.74-1.037 1.037-1.629-1.186-2.962-2.519-5.777-3.704-8.739zm19.553 0h2.221c0 .444 0 1.037-.148 1.481 1.037-1.481 2.963-2.073 4.74-1.333 1.037.593 1.63 1.63 1.481 2.814v5.925H80.74c0-2.073.149-4.147-.148-6.073-.592-1.629-3.11-.74-3.555.593-.296 1.777-.444 3.703-.296 5.628h-2.073v-9.035zm17.291.72c1.777-1.481 4.443-1.185 5.924.74a5.739 5.739 0 01.741 3.555h-6.221c.296.741.593 1.63 1.481 2.074 1.333.445 2.814.296 3.851-.592.296.592.593 1.037.889 1.629-1.925 1.333-4.444 1.481-6.37.296-2.073-1.63-2.517-4.592-.888-6.813 0-.445.296-.741.593-.89zm.592 2.518h4c-.297-.74-.593-1.777-1.63-1.777-1.185 0-2.222.74-2.37 1.777z" fill="#000"/></svg>