<svg width="100" height="100" fill="none" xmlns="http://www.w3.org/2000/svg"><g id="uuid-dd9946db-5b74-4577-8299-89abbd8d3e29" clip-path="url(#clip0_1448_1942)"><g id="Group" fill="#000"><path id="Vector" d="M25.55 50c0-.145-.015-.273-.015-.418 0-13.473 10.564-24.035 24.071-24.035.145 0 .273.016.402.016V0h-.402C21.788 0 0 21.785 0 49.582V50h25.55z"/><path id="Vector_2" d="M74.465 50c-.209 13.842-10.612 24.244-24.457 24.453V100c27.93-.209 49.783-22.058 49.992-50H74.45h.015z"/></g><path id="Vector_3" d="M49.88 34.968c-8.362 0-14.907 6.543-14.907 14.903s6.545 15.161 14.906 15.161c8.362 0 15.164-6.656 15.164-15.16 0-8.505-6.658-14.904-15.164-14.904zm7.476 14.903c0 4.26-3.215 7.476-7.477 7.476-4.26 0-7.236-3.215-7.236-7.476 0-4.26 3.184-7.234 7.236-7.234s7.477 3.183 7.477 7.234z" fill="#FA198C"/></g><defs><clipPath id="clip0_1448_1942"><path fill="#fff" d="M0 0h100v100H0z"/></clipPath></defs></svg>