<svg width="245" height="122" fill="none" xmlns="http://www.w3.org/2000/svg"><path id="Vector" d="M148.362 86.841c.98-.52 1.26-.51 2.45 0 1.06.45 14.41 5.64 28.58 13.89 12.38 7.2 25.87 17.59 25.97 18.05.43 1.93 3.9 3.61 5.15 2.89.26-.15 1.66-1.05 2.03-2.19.44-1.36-.2-3.06-.78-4.29-3.13-6.65-11.4-18.93-11.98-19.75-.79-1.1-1.42-2.1-1.42-2.23 0-.13-3.94-6.68-3.95-7.25 0-.22 1.4-.36 3.39-.34 5.01.06 15.65-.13 16.95-.3.62-.08 3.25-.18 5.84-.21 2.59-.04 7.78-.15 8.82-.32s3.88.08 5.22 0c3.26-.21 6.04-.74 7.04-1.35.45-.27 1.17-1.42 1.6-2.57.63-1.67.72-2.38.44-3.61-.22-.99-.2-2.38.04-3.08.28-.8.26-1.25-.1-1.68-.58-.71-.71-9.33-.26-14.33.34-3.89-.06-49.28.03-50.84.12-2.01.38-3.1.91-3.82.66-.88.68-1.06.18-1.57-1.1-1.13-6.92-1.48-25.24-1.52-5.81 0-10.72-.03-10.93-.04-7.99-.47-29.22-.52-29.57-.07-.12.15-1.65.27-3.41.28-1.76 0-3.55.06-3.96.13-.42.07-1.02-.01-1.34-.19-.33-.18-1.34-.17-2.26.02-2.25.45-6.73.5-6.99.07-.12-.2-.41-.18-.68.04-.26.21-1.56.33-2.89.27-7.06-.32-19.36-.38-19.9-.1-.39.21-.95.13-1.53-.19-.76-.42-1.01-.42-1.43 0-.64.61-2.86.61-3.82-.02-.54-.35-1.1-.33-2.53.1-1.15.35-1.98.42-2.25.19-.23-.2-.54-.24-.69-.09-.24.23-5.92.31-10.21.14l-2.45-.09c-1.13-.04-8.47.22-11.12.4-1.04.07-3.67.17-5.84.21-6.24.15-9.78.3-10.67.47-.45.09-6.08.11-12.51.07-6.43-.05-13.13-.05-14.89 0-1.76.05-6.34.1-10.18.12-3.83.02-10.19.21-14.13.41-3.94.21-8.33.44-9.77.51-1.9.09-2.69 0-2.91-.36-.17-.27-.31-.33-.31-.12 0 .22-1 .32-2.36.24-1.3-.07-4.1-.18-6.22-.25-2.97-.09-3.86-.23-3.86-.63 0-.28-.41-.7-.9-.94-1.26-.61-3.22.14-3.55 2.58-.14 1.03-.5 2.42-.8 3.07-.31.65.26 2.39.17 3.28-.32 3.12-.62 18.32-.64 31.19-.02 23.01-.01 28.4.04 31.22.04 2.39-.04 2.79-.65 2.93-1.35.32-1.6 1.33-1.08 4.32.49 2.82 1.34 4.62 2.5 5.27.39.22 2.64.21 5.88-.03 3.41-.24 10.3-.25 19.74-.02 7.98.2 15.11.29 15.83.2 4.4-.55 34.48-.08 52.38.84l51.76 1 .02-.01zM41.072 7.572c.7-.16.92-.1.73.2-.34.53-1.92.51-2.91-.05-.53-.3-.89-.3-1.24-.03-.5.4-4.91.27-4.44-.14.5-.43 6.86-.58 6.86-.16 0 .25.39.31 1 .17v.01zm1.64-1.75c0 .08-.34.14-.75.13-.41-.01-.76-.17-.76-.36 0-.19.34-.24.76-.13.42.12.75.28.75.36zm3.93 1.73c-.57-.49-.7-.48-1.05.07-.22.34-.53.53-.71.42-.17-.11-.2-.36-.08-.55.35-.56-.57-1.46-1.25-1.22-.4.14-.51.07-.33-.22.45-.72 3.36-.45 4.05.37.83.98.28 1.93-.65 1.14l.02-.01zm-3.38-.42c.13-.22.42-.39.64-.38.25 0 .22.22-.07.57-.52.61-.98.46-.57-.19zm9.62-3.69c0 .08-.26.14-.57.13-.31 0-.56-.18-.56-.38s.25-.26.56-.13c.31.13.57.3.57.38zm.37 2.38c0 .51-.85 1.08-1.33.89-.26-.11-.6-.02-.73.2-.14.22-.02.4.25.42.35.02.34.11-.07.37-.55.34-1.51.48-1.51.21 0-.53 1.26-2.45 1.71-2.61.61-.22 1.69.12 1.69.53l-.01-.01zm3.39.14c0 .22-.17.29-.38.16-.21-.14-.65.02-.99.35-.34.33-.85.5-1.13.38-.28-.11-.51-.05-.51.15s-.17.36-.38.36-.37-.16-.37-.34c0-.41 2.33-1.49 3.16-1.47.33 0 .6.19.6.41zm6.24.02c-.12.31-.22.71-.22.9 0 .19-.25.34-.57.33-.31 0-.56-.18-.56-.39 0-.21-.17-.38-.37-.38-.21 0-.38.25-.38.57 0 .33-.16.49-.35.36-.2-.13-.46-.05-.59.15-.41.66-1.04.39-.85-.36.12-.44.02-.66-.23-.58-.58.19-1.61-.51-1.26-.85.15-.15.46-.09.67.13.28.28 1.08.27 2.66-.01 1.96-.36 2.23-.34 2.05.13zm13.07 1.56c-.88.49-1.23.47-1.23-.08 0-.35-.1-.36-.45-.02-.62.61-1.64.53-2.34-.19-.52-.52-.68-.53-1.44-.06-.59.37-1.86.5-4.06.43-1.77-.06-2.99-.17-2.74-.26.5-.17.68-.91.19-.77-.15.05-.28-.08-.28-.29 0-.21 1.15-.35 2.7-.31 1.48.04 2.82-.06 2.98-.2.68-.66 3.32-.05 2.96.68-.12.24.03.14.33-.22.59-.7 1.97-.83 2.34-.22.13.21.56.39.96.4.91.02.95.61.07 1.1l.01.01zm4.05-1.06c0 .82-.32 1.19-1 1.17-.39 0-.41-.21-.07-.95.5-1.09 1.07-1.21 1.07-.23v.01zm12.81.46c0 .44-.66.36-.95-.12-.17-.27-.41-.26-.78.03-.29.23-.53.34-.53.22 0-.12-.51-.07-1.14.09-.86.22-1.13.17-1.13-.22 0-.76-2.12-.64-2.86.15-.45.48-.93.6-1.8.41-.65-.14-1.24-.3-1.31-.36-.07-.05.4-.2 1.04-.32s1.16-.47 1.16-.76c0-.3.18-.53.4-.52.22 0 .29.18.16.38-.13.21-.06.38.14.38.21 0 .47-.14.58-.32.4-.63 4.48-.61 5.78.04.67.34 1.22.75 1.22.92h.02zm2.52-.24c-.14.35-.5.47-1.01.32l-.79-.22.8-.54c.88-.59 1.33-.39 1 .44zm2.01-.84c-.76.45-1.44-.25-.83-.85.35-.35.55-.33.92.04.37.38.35.54-.09.81zm3.77-.28c-.73.45-1.13.44-1.13-.03 0-.21.38-.36.85-.35.69.02.74.1.28.38zm5.18-.65c-.36 0-.66.18-.66.38s-.16.38-.37.37c-.21 0-.37-.25-.37-.55 0-.74.42-.92 1.32-.53.64.27.65.32.09.33h-.01zm9.14.98c0 .37-3.6.25-4.9-.18-.31-.11-.43-.11-.28-.02.34.19 0 .85-.44.84-.16 0-.6-.35-.97-.77-.66-.73-.65-.77.22-1.07.5-.17.95-.18 1.01-.02.06.16.45.21.85.12.41-.09.98.04 1.28.29.4.34.74.36 1.32.06.63-.32.83-.28 1.01.18.12.32.37.49.56.39.18-.11.34-.03.34.19v-.01zm6.47-.94c-.25 0-.44.31-.44.72 0 .77-.42.91-2.92.97-1.35.03-1.6-.08-1.6-.68 0-.78 1.33-1.86 2.25-1.82.43.02.46.09.09.31s-.3.46.28 1c.71.66.81.65.74-.05-.04-.34 1.58-.9 1.84-.64.11.11 0 .2-.24.19zm11.84.68c-1.16-.03-2.1-.22-2.1-.43 0-.57-.63-.47-1.32.2-.4.39-.74.47-.98.23-.43-.45-3.83-.09-4.01.42-.16.47-3.12.55-3.12.08 0-.21.17-.48.38-.6s.3-.37.2-.54c-.32-.52 1.33-.62 7.17-.44 4.09.13 5.61.3 5.72.65.12.34-.43.46-1.94.42v.01zm6.56-.8c0 .32-.17.58-.38.57-.2 0-.37-.17-.37-.36 0-.2.17-.46.37-.58.21-.12.38.04.38.37zm4.9 0c0 .26-.36.32-.92.17-.51-.14-1.03-.08-1.17.14-.13.22-.5.29-.8.17-.31-.13-.72-.23-.91-.24-.19 0-.34-.18-.34-.38 0-.21.93-.36 2.07-.33 1.26.03 2.07.22 2.07.47zm3.39-.39c-.52-.01-.73-.1-.47-.2s.68-.09.94.02c.26.11.05.19-.46.18h-.01zm12.04-.78c-1.23-.06-1.24-.08-.39-.4.61-.22 1.04-.2 1.3.06.27.28-.02.38-.91.35v-.01zm-6.86 74.22c-.55-.39-6.07-2.79-7.18-3.63-.85-.64-2.18.46-2.18.82 0 1.18-.85 1.46-3.59 1.2 0 0-19.83.02-41.15-.15-21.32-.16-81.6-1.61-81.6-1.61l-10.38-.29.14-26.39c.13-23 .46-34.32 1.12-34.96.08-.08.51.06.95.31.62.35.95.35 1.36 0 .38-.3 24.82-.38 27.1-.43 2.28-.05 4.83-.13 5.66-.19.83-.06 5.15-.11 9.61-.11h16.02c4.36 0 9.18-.05 10.74-.09 1.55-.05 4.43-.14 6.4-.2 1.97-.07 5.45-.16 7.73-.22 2.28-.06 4.74-.16 5.47-.21.72-.06 3.52-.16 6.22-.23 2.69-.07 5.01-.2 5.15-.28.27-.16 8.95-.25 19.72-.2 3.52.02 6.4 0 6.4-.02 0-.03 2.12-.06 4.71-.08 2.59-.01 7.85-.07 11.69-.12 3.83-.06 8.16-.11 9.61-.12 4.07-.02 13.31-.2 15.83-.29 12.03-.47 14.42-.45 33.06.2 6.32.22 20.84.62 21.77 1.11.84.44.95.72.91 2.56-.04 2.88.64 60.06-.01 60.24-.84.23-11.34 1.01-19.97 1.33-7.07.26-21.97.14-22.84-.43-.66-.42-2.71-.55-3.15-.18-.27.21-4.97 2.41-5.24 5.89-.1 1.23.23 2.07 1.9 4.94 1.11 1.91 8.84 14.6 8.84 14.79 0 .55-.81.4-1.54-.28l-39.25-22.68h-.03z" fill="#000"/></svg>