<svg width="1025" height="1219" fill="none" xmlns="http://www.w3.org/2000/svg"><g filter="url(#filter0_f_3172_29927)"><circle cx="609.5" cy="609.5" r="309.5" fill="url(#paint0_linear_3172_29927)" fill-opacity=".3"/></g><path opacity=".1" d="M1130 336.369l-36.57 21.273c-2.83-.992-6.51-.845-9.07.439l-56.34-32.558c2.34-1.58 2.47-3.88.4-5.547-.05-.042-.11-.084-.16-.126.05.04.11.082.16.124L1062.76 300h-2.82l-32.88 19.128c-2.91-1.396-7.15-1.378-10.01.053L983.862 300h-2.822l34.68 20.044c-1.94 1.641-1.78 3.859.45 5.416l-55.21 32.117c-2.9-1.394-7.13-1.381-9.986.044l-54.614-31.563c2.602-1.766 2.452-4.425-.443-6.1a.252.252 0 00-.029-.016L930.168 300h-2.822l-33.063 19.236c-2.8-.929-6.377-.769-8.89.486-.055.026-.105.055-.157.084.052-.029.102-.058.157-.087L851.271 300h-2.822l35.61 20.58c-1.697 1.428-1.802 3.302-.323 4.791l-55.545 32.311c-2.793-.927-6.362-.767-8.874.477h-.003l-56.03-32.382c2.45-1.672 2.442-4.142-.016-5.817L797.582 300h-2.824l-32.969 19.178c.058.024.113.05.171.076a4.948 4.948 0 00-.173-.073c-2.864-1.163-6.774-1.076-9.467.26h-.003L718.68 300h-2.825l35.125 20.299c-1.841 1.541-1.825 3.604.042 5.142l-55.33 32.186c-2.861-1.158-6.758-1.074-9.451.254l-55.663-32.172c2.397-1.648 2.42-4.061.073-5.733L664.992 300h-2.822l-32.969 19.178c-1.361-.58-2.974-.869-4.586-.869-1.784 0-3.567.355-5.004 1.063L586.089 300h-2.822l35.001 20.228c-1.888 1.57-1.843 3.686.129 5.234l-55.288 32.165c-1.364-.581-2.979-.869-4.592-.869-1.775 0-3.548.351-4.983 1.055h-.002l-55.48-32.064c2.408-1.662 2.403-4.098 0-5.765a7.52 7.52 0 00-.228-.152c.079.05.158.1.231.15L532.406 300h-2.822l-32.998 19.194c-1.347-.559-2.934-.837-4.515-.837-1.776 0-3.548.351-4.983 1.055L453.501 300h-2.827l35.069 20.265c.029-.024.055-.047.086-.068-.031.023-.057.047-.086.071-1.88 1.554-1.857 3.648.063 5.197l-55.312 32.175c-1.345-.557-2.929-.835-4.51-.835-1.77 0-3.54.349-4.972 1.047l-54.932-31.746c2.544-1.77 2.376-4.405-.498-6.067-.037-.021-.073-.039-.107-.06L399.817 300h-2.824l-33.147 19.283c-1.167-.373-2.462-.559-3.755-.559-1.773 0-3.54.349-4.972 1.047L320.907 300h-2.824l35.685 20.622c-1.72 1.415-1.862 3.279-.43 4.772l-55.584 32.338h-.003c-2.753-.882-6.231-.722-8.709.48l-56.04-32.387c2.417-1.688 2.368-4.166-.145-5.83L267.227 300h-2.814l-33.053 19.228c-2.835-1.116-6.653-1.029-9.315.263L188.316 300h-2.824l35.197 20.341c-1.869 1.528-1.888 3.583-.065 5.129l-55.356 32.204c-2.83-1.113-6.638-1.029-9.302.257L123 338.879v1.633l31.61 18.267c-.954.774-1.431 1.688-1.431 2.601 0 .914.451 1.775 1.35 2.539L123 382.26v1.64l32.859-19.115c2.732 1.378 6.723 1.467 9.605.268l56.141 32.445c-1.742 1.42-1.891 3.289-.451 4.79l-55.587 32.338h-.003c-2.743-.88-6.202-.725-8.677.464h-.003L123 415.508v1.63l32.526 18.798c-1.755 1.417-1.91 3.297-.467 4.801L123 459.385v1.643l33.265-19.349c.034.021.068.042.105.061 2.735 1.582 6.991 1.74 10.015.472l55.031 31.804c-1.928 1.56-1.922 3.678.016 5.24l-55.312 32.175c-2.83-1.174-6.705-1.113-9.417.181h-.003L123 492.134v1.63l32.337 18.688a2.48 2.48 0 01.16-.121c-.055.042-.11.081-.16.123-1.943 1.56-1.938 3.683.002 5.248L123 536.515v1.641l33.706-19.606c1.437.69 3.199 1.034 4.959 1.034 1.594 0 3.188-.284 4.536-.851h.003l55.576 32.12c-1.961 1.575-1.938 3.725.061 5.292l-55.291 32.164c-2.832-1.205-6.747-1.158-9.48.142L123 568.761v1.63l32.699 18.9c-1.97 1.577-1.954 3.73.047 5.302L123 613.64v1.643l34.128-19.85-.013-.008c.005 0 .008.003.013.006 2.74 1.286 6.632 1.333 9.443.141l55.76 32.227c-1.938 1.549-1.954 3.657-.055 5.222l-55.327 32.185c-1.335-.541-2.893-.809-4.45-.809-1.731 0-3.459.334-4.876 1L123 645.39v1.63l33.252 19.215-.003.002c-1.951 1.549-1.972 3.66-.068 5.232L123 690.773v1.641l34.534-20.089c2.751 1.349 6.732 1.412 9.588.194l56.124 32.437c-1.812 1.439-1.959 3.365-.445 4.888l-55.543 32.311c-1.193-.396-2.525-.593-3.857-.593-1.723 0-3.446.33-4.86.995L123 722.016v1.63l34.167 19.748c-1.822 1.438-1.974 3.37-.456 4.896h-.003L123 767.898v1.644l34.936-20.323s.018.013.028.018c2.757 1.591 7.049 1.738 10.078.441l54.706 31.613h-.003c-2.084 1.651-1.979 3.943.31 5.534.068.049.139.094.21.141-.071-.044-.142-.092-.213-.139l-55.209 32.114c-2.837-1.362-6.947-1.375-9.797-.044L123 798.645v1.63l33.666 19.454a5.622 5.622 0 010 .003c-2.1 1.648-2.001 3.945.294 5.541.076.053.155.108.236.16-.081-.052-.16-.102-.236-.157L123 845.029v1.64l35.426-20.606c1.348.559 2.934.837 4.518.837 1.584 0 3.242-.291 4.605-.879l56.424 32.611c-1.002.787-1.503 1.721-1.503 2.659 0 .813.378 1.627 1.133 2.344l-55.474 32.271c-2.746-.966-6.297-.855-8.848.331L123 875.271v1.633l34.894 20.165c-1.886 1.473-2.012 3.463-.383 5.011L123 922.243v1.649l35.772-20.903c1.505.84 3.449 1.257 5.387 1.257 1.625 0 3.254-.294 4.618-.887L214.876 930h2.827l-47.495-27.447c2.392-1.743 2.222-4.281-.508-5.917l55.164-32.093c1.503.837 3.444 1.257 5.381 1.257 1.624 0 3.244-.294 4.608-.882l55.382 32.007c-1.945 1.528-2.003 3.612-.175 5.179L242.107 930h2.824l46.453-27.024c2.764 1.407 6.834 1.485 9.729.236L347.467 930h2.821l-47.74-27.589a4.218 4.218 0 010-.002c2.334-1.691 2.244-4.135-.257-5.778l55.185-32.104c1.464.746 3.294 1.119 5.124 1.119 1.616 0 3.231-.292 4.59-.875.259-.11.506-.233.744-.365a8.723 8.723 0 01-.744.368l55.201 31.899c-2.056 1.625-1.985 3.872.205 5.46.036.026.073.055.112.081a3.621 3.621 0 01-.112-.078L374.692 930h2.825l46.516-27.059c2.735 1.184 6.501 1.19 9.233.019L480.055 930h2.822l-48.174-27.841c2.221-1.598 2.266-3.877.147-5.51l55.275-32.153c-.053-.024-.102-.045-.152-.069.05.021.099.045.152.066 2.727 1.184 6.485 1.192 9.218.026l55.941 32.33c-1.959 1.559-1.975 3.683-.042 5.252L507.281 930h2.824l46.495-27.048c1.44.698 3.212 1.047 4.983 1.047 1.61 0 3.217-.288 4.573-.866h.003l46.487 26.87h2.824l-47.872-27.668c2.319-1.664 2.279-4.066-.11-5.715l55.204-32.111c-.086-.042-.173-.089-.257-.134.087.045.171.089.26.131 2.743 1.331 6.692 1.394 9.538.189l55.943 32.332c-1.862 1.486-1.951 3.489-.27 5.033l-48.034 27.943h2.821l46.495-27.046c2.749 1.486 6.902 1.604 9.858.352l46.191 26.694h2.822l-47.568-27.492c2.423-1.727 2.294-4.26-.378-5.909a9.832 9.832 0 00-.183-.11c.06.037.123.071.183.107l55.168-32.09h.002c2.743 1.483 6.884 1.604 9.839.359l55.58 32.12c-1.87 1.501-1.936 3.525-.205 5.072l-48.037 27.943h2.824l46.514-27.056c2.745 1.449 6.839 1.556 9.768.32l46.262 26.736h2.824l-47.636-27.529c2.418-1.717 2.313-4.226-.304-5.88l55.173-32.096h.002c2.741 1.447 6.826 1.557 9.756.328l55.584 32.125c-1.875 1.515-1.922 3.557-.144 5.109l-48.035 27.943h2.822l46.529-27.067h.003c2.737 1.412 6.781 1.51 9.687.292l46.331 26.775h2.82l-47.698-27.568c1.167-.824 1.751-1.832 1.751-2.843 0-1.076-.66-2.147-1.977-3.006l55.184-32.098c1.47.758 3.31 1.136 5.16 1.136 1.58 0 3.16-.278 4.51-.837l55.58 32.127c-.95.775-1.43 1.686-1.43 2.599 0 .914.45 1.78 1.36 2.544l-48.05 27.946h2.83l46.55-27.08c1.46.735 3.28 1.103 5.09 1.103 1.59 0 3.17-.281 4.51-.838l33.39 19.294v-1.63l-31.93-18.454c1.17-.827 1.76-1.84 1.76-2.856 0-1.016-.64-2.116-1.92-2.964l32.09-18.661v-1.64l-33.58 19.532h-.01c-2.82-1.115-6.63-1.029-9.3.258-.06.028-.12.06-.18.089.06-.032.12-.061.18-.092l-55.49-32.067c2.43-1.701 2.35-4.197-.21-5.859l55.18-32.099c1.47.759 3.32 1.14 5.16 1.14 1.58 0 3.15-.279 4.49-.832l33.76 19.509v-1.631l-32.3-18.666c2.44-1.701 2.37-4.202-.2-5.867l32.5-18.905v-1.643l-34.02 19.787c-2.82-1.084-6.59-.984-9.23.297l-55.49-32.07c1.18-.827 1.78-1.843 1.78-2.861 0-1.092-.68-2.182-2.04-3.045l55.17-32.094c-.09-.047-.17-.094-.26-.144.09.05.17.097.26.142 2.72 1.438 6.78 1.556 9.7.352l34.13 19.719v-1.631l-32.66-18.876c2.47-1.714 2.38-4.25-.25-5.917l32.91-19.144v-1.64l-34.45 20.034c.07.021.12.044.18.07-.06-.023-.11-.044-.18-.068-2.82-1.055-6.55-.945-9.17.331l-55.49-32.064c2.5-1.73 2.39-4.292-.31-5.957l55.17-32.093c1.49.806 3.4 1.21 5.3 1.21 1.57 0 3.13-.273 4.46-.816l34.49 19.937v-1.633l-33.03-19.086c1.21-.832 1.81-1.856 1.81-2.88 0-1.108-.71-2.218-2.11-3.084-.03-.024-.07-.045-.11-.069.04.024.08.045.11.066l33.33-19.388v-1.638l-34.88 20.286c-2.82-1.024-6.52-.901-9.11.37l-55.85-32.277c2.42-1.664 2.4-4.111-.02-5.78l55.21-32.112c2.7 1.31 6.59 1.389 9.42.234l35.23 20.362v-1.633l-33.76-19.512c2.43-1.664 2.42-4.116 0-5.785l-.12-.076c.04.023.08.047.12.073l33.76-19.64v-1.641l-35.24 20.497c-2.86-1.174-6.78-1.095-9.48.238l-55.85-32.277c2.33-1.601 2.42-3.932.26-5.594l55.28-32.153c2.68 1.16 6.34 1.189 9.06.089l35.97 20.785v-1.63l-34.49-19.935c2.34-1.603 2.44-3.937.28-5.604l34.21-19.903v-1.64l-35.61 20.714c-2.89-1.331-7.03-1.3-9.85.097l-55.11-31.849c2.48-1.696 2.44-4.203-.11-5.883l55.18-32.101c1.47.745 3.3 1.115 5.13 1.115 1.54 0 3.08-.265 4.4-.795l35.97 20.787v-1.63l-34.49-19.931c-.03.018-.06.039-.09.06l.09-.063c2.5-1.693 2.46-4.208-.1-5.888l34.59-20.12v-1.644l-36.09 20.998c-2.86-1.113-6.71-1.008-9.37.317l-55.29-31.956c1.23-.835 1.85-1.872 1.85-2.906 0-1.129-.73-2.26-2.19-3.132l55.16-32.091c1.51.838 3.45 1.255 5.39 1.255 1.53 0 3.07-.262 4.38-.79l36.16 20.895v-1.633l-34.67-20.036c1.24-.838 1.86-1.877 1.86-2.919 0-1.126-.73-2.258-2.19-3.129l35-20.357v-1.649zm-32.45 559.976c.01.01.03.018.04.029-.01-.008-.03-.016-.04-.027-.06-.031-.11-.063-.16-.091.05.028.1.06.16.089zm-1.83-384.219zm-.87 6.043zM951.546 364.696c2.659 1.102 6.246 1.115 8.919.042l56.485 32.642c-1.73 1.459-1.81 3.381-.23 4.885l.09.078c-.03-.026-.06-.052-.09-.076l-55.471 32.269h-.003c-2.816-.987-6.477-.847-9.042.423l-56.339-32.558a7.525 7.525 0 01-.423.265c-.055.032-.112.061-.17.092l.17-.094a8.07 8.07 0 00.423-.265c2.31-1.578 2.433-3.87.369-5.529-.036-.031-.076-.06-.115-.092.042.029.079.058.118.09l55.309-32.172zm65.534 114.489l-55.362 32.206c-1.306-.506-2.816-.761-4.327-.761-1.783 0-3.564.354-5.001 1.063l-55.301-31.959c2.541-1.743 2.418-4.35-.364-6.019l55.164-32.091c2.709 1.507 6.827 1.656 9.806.451l55.435 32.036c-1.82 1.52-1.83 3.544-.05 5.074zm.35 76.923l-55.229 32.133c-1.411-.651-3.121-.977-4.831-.977-1.71 0-3.548.352-4.982 1.055l-55.115-31.851c2.452-1.693 2.402-4.192-.142-5.862l55.186-32.101c2.711 1.378 6.679 1.48 9.564.304l55.239 31.926c-1.94 1.617-1.84 3.814.31 5.373zm.47 76.86l-55.319 32.18c-2.851-1.171-6.75-1.095-9.454.226h-.002l-55.855-32.283c2.308-1.601 2.387-3.919.239-5.575l55.275-32.154c2.69 1.166 6.377 1.189 9.097.074.089-.037.178-.074.267-.113-.089.039-.178.079-.267.115l55.979 32.348c-1.88 1.554-1.86 3.636.04 5.182zm.68 71.867c-1.8 1.483-1.87 3.46-.21 4.985l-55.435 32.251c-2.806-1.021-6.488-.903-9.079.352l-55.854-32.28c2.384-1.664 2.368-4.098-.045-5.762l55.207-32.111c2.717 1.315 6.616 1.388 9.454.22l55.962 32.345zm.2 81.879l-55.41 32.23c-2.811-1.047-6.532-.942-9.147.32l-55.484-32.069c2.462-1.728 2.347-4.279-.341-5.938l55.17-32.093c1.495.808 3.398 1.21 5.302 1.21 1.576 0 3.15-.276 4.487-.83l55.593 32.128c-1.83 1.499-1.89 3.504-.17 5.042zm-121.935-6.197c-2.803-1.019-6.477-.903-9.065.346l-55.857-32.282c2.373-1.667 2.352-4.092-.058-5.751-.037-.024-.073-.05-.113-.077.04.024.076.048.113.074l55.207-32.112c2.722 1.318 6.629 1.392 9.469.216l55.962 32.342c-1.815 1.483-1.885 3.465-.22 4.993l.039.037c-.013-.011-.026-.024-.039-.034l-55.438 32.248zm1.445 6.961l-.042.029a6.449 6.449 0 01-.23.129c.078-.042.154-.087.23-.132.013-.007.029-.015.042-.026zm-10.914.082c-.032-.019-.063-.035-.095-.053-.026-.013-.047-.029-.073-.045.026.016.047.029.073.042l.095.056zm-1.188-.846l-55.437 32.251c-2.796-1.018-6.459-.903-9.048.339h-.002l-55.86-32.285c1.17-.824 1.752-1.835 1.752-2.846 0-1.01-.606-2.06-1.82-2.898l55.204-32.111c2.727 1.32 6.648 1.391 9.488.207l55.956 32.34c-1.825 1.483-1.901 3.47-.233 5.003zm-121.889-6.224c-2.835-1.162-6.705-1.094-9.406.203l-55.865-32.285c-.055.036-.113.076-.171.113.058-.04.116-.077.171-.116 2.268-1.599 2.334-3.901.199-5.547l55.275-32.153c1.374.593 3.008.892 4.641.892 1.634 0 3.166-.281 4.508-.84l55.962 32.34h-.002c-1.91 1.554-1.907 3.657.007 5.214l-55.319 32.179zm1.122 6.799c-.026.019-.052.034-.081.053-.037.021-.073.042-.113.063l.113-.066a.732.732 0 00.081-.05zm-11.897-.53l-55.317 32.177c.173.074.346.153.514.234a8.626 8.626 0 00-.517-.231c-2.827-1.163-6.687-1.097-9.388.191l-55.868-32.284s-.028.021-.044.028c.016-.01.029-.021.042-.031 2.26-1.601 2.318-3.893.186-5.536l55.275-32.154c1.374.593 3.008.893 4.642.893 1.633 0 3.18-.284 4.526-.848l55.956 32.337c.035-.026.071-.055.108-.081-.037.029-.073.055-.108.084-1.924 1.554-1.927 3.662-.007 5.221zm-54.09 38.916l-.189.115a4.543 4.543 0 01-.071.039c.024-.013.048-.028.071-.042.063-.036.126-.073.189-.112zm-10.909-6.398c-.095.05-.189.1-.278.155-.074.042-.147.087-.218.129.071-.045.144-.089.218-.131.089-.053.183-.105.278-.153zm-122.542-.191c-.113-.055-.223-.11-.338-.163-2.848-1.312-6.91-1.299-9.722.034l-55.133-31.859a5.167 5.167 0 010-.003c2.373-1.691 2.3-4.155-.215-5.807a4.877 4.877 0 00-.17-.107c.057.034.115.071.17.105l55.186-32.099c-.055-.029-.108-.055-.16-.084.052.029.105.056.16.082 2.743 1.396 6.768 1.485 9.661.267h.002l55.212 31.91c-2.019 1.622-1.935 3.851.242 5.428l-55.233 32.13c.115.053.228.111.338.166zm-77.644-32.324l-55.367 32.208c-2.8-1.092-6.55-1.01-9.202.242l-55.319-31.973c2.431-1.745 2.274-4.299-.472-5.948l55.165-32.088-.066-.039a.716.716 0 00.066.036c2.748 1.533 6.954 1.665 9.939.397h.002l55.393 32.014c-1.909 1.525-1.956 3.594-.139 5.151zm-187.194-38.42c2.195-1.575 2.276-3.814.251-5.447l55.309-32.172c-.029-.01-.055-.023-.084-.037a.997.997 0 01.084.035c2.712 1.126 6.383 1.118 9.071-.021h.003l56.439 32.618c-1.838 1.467-1.948 3.439-.336 4.974l-55.474 32.272c-2.766-.971-6.343-.853-8.898.352-.002 0-.002.002-.002.002l-56.363-32.576zm55.823 39.26l-.024-.011c-.068-.039-.136-.081-.205-.123.066.039.134.081.205.12a.1.1 0 00.024.014zm-1.178-.861l-55.477 32.271c-1.235-.433-2.63-.651-4.025-.651-1.723 0-3.446.331-4.857.995l-56.368-32.576c2.187-1.575 2.263-3.806.238-5.436l55.312-32.172c2.719 1.123 6.401 1.115 9.089-.032l56.434 32.616c-1.851 1.47-1.964 3.446-.346 4.985zm-120.803-82.31l-.029-.016 55.162-32.09h.003l.026.018c2.746 1.586 7.02 1.738 10.046.454.079-.034.16-.068.239-.105-.079.037-.16.074-.239.108l54.714 31.618c-2.064 1.648-1.949 3.927.33 5.512l.021.016-.021-.013-55.209 32.114c-2.848-1.365-6.975-1.375-9.829-.031l-54.64-31.576c2.463-1.767 2.268-4.366-.574-6.009zm-.464-76.891l55.198-32.112h.003c2.74 1.344 6.698 1.415 9.551.21l56.132 32.442c-1.788 1.439-1.925 3.352-.417 4.87l-55.545 32.308c-2.748-.911-6.244-.771-8.748.42l-.155.079c.05-.029.1-.055.152-.081l-56.051-32.393c2.345-1.672 2.303-4.092-.12-5.743zm-.43-76.879l55.222-32.122a2.452 2.452 0 01-.102-.052c.034.018.068.034.102.049 2.73 1.281 6.601 1.334 9.406.155l.166-.071c-.055.027-.108.05-.163.074l55.768 32.23c-1.914 1.548-1.922 3.643-.029 5.202l-55.33 32.186c-1.332-.541-2.892-.812-4.45-.812-1.741 0-3.485.339-4.907 1.019l-55.678-32.18c2.321-1.648 2.313-4.027-.005-5.678zm-.412-76.889l55.209-32.116h.003c2.724 1.309 6.629 1.375 9.461.196l55.59 32.128c-1.935 1.572-1.907 3.709.081 5.271l-55.288 32.161c.061.026.121.053.181.082a2.205 2.205 0 00-.181-.079c-2.845-1.208-6.779-1.155-9.514.157L233.731 479.5c1.169-.824 1.751-1.832 1.751-2.843 0-1.01-.6-2.05-1.801-2.885zm186.342-38.23c-1.922 1.572-1.888 3.701.097 5.26l-55.288 32.164c-1.364-.577-2.976-.868-4.589-.868-1.757 0-3.514.346-4.943 1.034a8.134 8.134 0 00-.533.283c.176-.099.349-.197.533-.283l-55.488-32.07c2.366-1.659 2.353-4.079-.036-5.738a7.106 7.106 0 000-.003l55.209-32.114c1.437.69 3.197 1.037 4.959 1.037 1.576 0 3.149-.278 4.487-.832l55.592 32.13zm-54.803-32.511c.063-.034.131-.068.194-.105.042-.023.084-.047.126-.073a2.126 2.126 0 01-.123.076c-.066.037-.134.068-.197.102zm67.152 32.288l55.222-32.122c2.715 1.27 6.554 1.33 9.357.175l55.786 32.241c-1.88 1.543-1.875 3.622.005 5.171l-55.327 32.185h-.002c-2.843-1.152-6.711-1.076-9.404.231l-55.674-32.175c2.36-1.648 2.368-4.045.037-5.706zm121.535 6.221c.063.034.123.068.189.1 2.716 1.333 6.634 1.412 9.482.239v-.003l56.154 32.455c-1.744 1.431-1.868 3.326-.373 4.828l-55.542 32.314v-.003c-2.769-.919-6.302-.769-8.811.449l-56.044-32.39c2.397-1.67 2.371-4.113-.068-5.778l55.202-32.109c-.066-.031-.126-.068-.189-.102zm66.134-38.425c.047.026.097.053.147.076 2.714 1.331 6.621 1.413 9.467.247h.002l56.159 32.458c-.931.769-1.395 1.67-1.395 2.57 0 .777.346 1.554 1.036 2.25h-.003l-55.542 32.311c-1.193-.397-2.526-.593-3.858-.593-1.77 0-3.54.349-4.972 1.047l-56.038-32.387c1.196-.83 1.794-1.848 1.794-2.872 0-1.024-.616-2.076-1.849-2.916l55.199-32.109-.147-.079v-.003zM817.89 440.8l-55.209 32.119c-1.437-.69-3.199-1.034-4.956-1.034-1.757 0-3.548.352-4.983 1.055h-.003l-54.619-31.565a5.511 5.511 0 010-.003c2.562-1.764 2.397-4.407-.482-6.072l-.029-.015 55.165-32.088.026.015c2.711 1.567 6.912 1.733 9.928.504l54.748 31.639c-1.975 1.641-1.836 3.88.414 5.445zm12.252-5.484l55.309-32.174c2.667 1.107 6.262 1.118 8.937.036l56.479 32.64c-.916.763-1.372 1.656-1.372 2.551 0 .814.378 1.627 1.133 2.344l-55.474 32.272c-1.233-.433-2.628-.648-4.02-.648-1.786 0-3.567.354-5.006 1.063l-56.343-32.563c2.298-1.581 2.413-3.862.357-5.521zm121.774 76.632a6.445 6.445 0 00-.868.601c-1.831 1.52-1.847 3.549-.058 5.084l-55.364 32.207h-.003c-2.84-1.108-6.655-1.008-9.312.294l-55.301-31.96a4.231 4.231 0 010-.002c2.531-1.743 2.4-4.342-.38-6.009-.026-.018-.055-.034-.081-.05.026.016.052.032.081.047l55.165-32.088c2.714 1.51 6.844 1.657 9.823.444l55.43 32.033c.254-.213.543-.412.868-.604.026-.016.055-.029.081-.042-.029.013-.055.029-.081.045zm.097 6.392l-.063-.035c-.042-.026-.084-.049-.126-.076.042.027.084.05.126.074.021.013.042.023.063.037zm-.669 76.214l-55.233 32.132c-1.413-.648-3.123-.973-4.83-.973-1.708 0-3.538.349-4.97 1.047l-55.12-31.854c2.442-1.694 2.386-4.187-.152-5.854l55.186-32.101c1.463.743 3.293 1.115 5.121 1.115 1.566 0 3.126-.273 4.458-.816l55.238 31.923c-1.956 1.617-1.854 3.819.302 5.381zm.456 76.863l-55.314 32.179h-.002c-2.846-1.168-6.735-1.094-9.438.216l-55.858-32.283c2.295-1.601 2.368-3.911.223-5.565l55.275-32.156c2.696 1.168 6.394 1.192 9.116.068l.207-.086c-.068.031-.137.06-.207.089l55.972 32.345c-1.888 1.552-1.878 3.641.026 5.193zm-66.089 38.445l-55.317 32.18c-2.84-1.165-6.721-1.095-9.425.21l-55.862-32.282c-.058.039-.118.081-.181.121.063-.04.123-.082.181-.124 2.284-1.598 2.355-3.906.215-5.557l55.272-32.154h.003c2.698 1.171 6.406 1.192 9.131.061l55.964 32.342.131-.099c-.044.034-.089.068-.131.102-1.898 1.551-1.89 3.646.019 5.2zm-121.784-6.281c-2.864-1.321-6.955-1.3-9.769.057h-.002l-55.121-31.857c2.413-1.693 2.35-4.173-.178-5.835l55.186-32.101c2.727 1.386 6.724 1.483 9.611.286l55.228 31.917c-.947.775-1.419 1.68-1.419 2.589 0 .994.566 1.989 1.696 2.811l-55.23 32.133h-.002zm.661.341zm-66.507 38.228a4.914 4.914 0 00-.252-.121c-2.858-1.318-6.939-1.299-9.75.05h-.003l-55.125-31.86c2.4-1.693 2.334-4.166-.191-5.825l55.185-32.101c-.015-.008-.034-.018-.049-.029.015.008.031.019.049.027 2.733 1.391 6.74 1.483 9.63.28l55.222 31.915c-1.993 1.62-1.901 3.838.268 5.41l-55.233 32.13c.084.04.168.079.249.124zm-77.557-32.283l-55.364 32.209h-.003c-2.814-1.097-6.58-1.01-9.231.255l-55.317-31.967c1.162-.822 1.742-1.827 1.742-2.835 0-1.129-.73-2.255-2.185-3.132l55.162-32.088a.399.399 0 00-.047-.029c.016.008.031.018.05.026 2.738 1.526 6.92 1.662 9.905.412l55.406 32.018c-1.889 1.525-1.925 3.583-.118 5.131zm-119.962.528zm-12.585-.551L432.5 742.116c-2.769-.972-6.359-.854-8.913.362l-56.361-32.576c2.211-1.575 2.298-3.82.268-5.453l55.309-32.174c2.706 1.121 6.367 1.118 9.052-.016L488.3 704.88c-1.828 1.467-1.93 3.434-.32 4.964h-.003zm-121.758-6.195a.665.665 0 00-.097-.047c-2.853-1.371-6.991-1.379-9.844-.024l-54.635-31.576c2.478-1.767 2.289-4.373-.559-6.019l-.029-.016 55.163-32.088s.02.01.028.016c2.743 1.583 7.005 1.737 10.028.462.082-.034.163-.069.242-.105-.082.036-.16.073-.242.107l54.717 31.621c-2.051 1.649-1.93 3.919.346 5.505l-55.209 32.114c.031.016.062.031.094.05h-.003zm-10.442.191a.893.893 0 00-.081.045.3.3 0 00-.053.029 1.09 1.09 0 01.05-.032l.084-.042zm-55.162-114.746a7.593 7.593 0 00-.333-.21c.113.068.228.136.333.21l55.199-32.112c1.445.709 3.228 1.063 5.008 1.063 1.592 0 3.184-.283 4.529-.848l56.138 32.445c-1.775 1.436-1.912 3.347-.409 4.859a3.828 3.828 0 000 .003l-55.542 32.308h-.003c-2.754-.913-6.255-.771-8.762.426l-56.051-32.393c2.361-1.672 2.319-4.097-.107-5.751zm-.428-76.879l55.223-32.124c2.724 1.275 6.582 1.331 9.388.162l55.773 32.233c-1.901 1.546-1.904 3.635-.018 5.192l-55.328 32.185c-1.332-.541-2.892-.811-4.45-.811-1.749 0-3.498.344-4.922 1.026l-55.679-32.177c2.332-1.646 2.334-4.032.011-5.686h.002zm187.696-32.19c.039.021.081.039.12.06 2.725 1.337 6.651 1.415 9.501.234l56.148 32.45c-1.754 1.434-1.88 3.331-.382 4.838l-55.543 32.311h-.002c-2.764-.918-6.289-.771-8.796.439l-56.046-32.39c2.384-1.67 2.355-4.108-.078-5.77l55.198-32.109-.12-.063zm66.614 38.511l.026.016c2.727 1.575 6.957 1.738 9.976.486h.002l54.732 31.628c-2.014 1.646-1.883 3.901.381 5.474l-55.21 32.119c-1.434-.69-3.196-1.034-4.953-1.034-1.757 0-3.514.344-4.941 1.034l-54.627-31.571c2.52-1.766 2.344-4.391-.519-6.048l-.029-.016 55.162-32.088zm-.824-.564zm66.832-37.931l.081.047a.192.192 0 00.029.018c2.72 1.573 6.942 1.736 9.96.491l54.735 31.634c-1.998 1.646-1.865 3.893.393 5.465l-55.212 32.115c.092.047.184.092.273.139a9.926 9.926 0 00-.273-.137c-2.874-1.38-7.051-1.378-9.907.006l-54.625-31.569c-.076.05-.152.103-.23.153.078-.05.154-.103.228-.155 2.533-1.764 2.36-4.395-.506-6.054a.257.257 0 01-.029-.015l55.162-32.088c-.029-.016-.055-.034-.081-.05h.002zm66.664 38.443h.003c2.682 1.113 6.309 1.118 8.987.016l56.462 32.631c-1.777 1.462-1.869 3.407-.272 4.925a5.154 5.154 0 000 .002l-55.477 32.269c-2.793-.979-6.417-.85-8.976.391l-56.353-32.565c2.26-1.578 2.365-3.846.32-5.494l55.306-32.175zm-1.24-6.696l.23-.142a1.777 1.777 0 010 .002c-.078.048-.154.092-.23.14zm11.108-.192a.938.938 0 01.089.05c.079.044.152.092.226.136a143.942 143.942 0 00-.315-.186zm.921.617l55.306-32.177c2.68 1.11 6.294 1.118 8.971.023l56.468 32.634c-1.767 1.462-1.851 3.402-.259 4.914.023.024.047.047.073.071-.026-.024-.05-.045-.073-.068l-55.477 32.269c-1.233-.433-2.628-.648-4.02-.648-1.773 0-3.543.349-4.975 1.047l-56.347-32.566c2.273-1.577 2.381-3.845.333-5.499zm54.275-32.689c.019.01.037.023.058.034.037.023.074.044.113.066l-.116-.064c-.018-.013-.036-.026-.055-.036zm10.82.147a8.175 8.175 0 00.205-.111l-.205.111zM884.9 556.079l-55.366 32.206c-1.306-.509-2.814-.761-4.325-.761-1.77 0-3.54.349-4.974 1.05l-55.304-31.962c2.515-1.746 2.381-4.339-.393-6.003l-.066-.04c.024.013.045.027.068.037l55.165-32.088c1.503.837 3.443 1.255 5.381 1.255 1.563 0 3.126-.271 4.456-.817l55.424 32.031c-1.838 1.52-1.859 3.554-.066 5.092zm.349 76.923l-55.233 32.13c.113.053.228.11.339.166a10.548 10.548 0 00-.339-.163c-2.869-1.323-6.97-1.3-9.784.063l-55.12-31.855c2.426-1.693 2.365-4.179-.165-5.843l55.185-32.101c2.722 1.383 6.709 1.481 9.596.291l55.23 31.921c-1.967 1.622-1.867 3.827.291 5.391zm-132.536-.029l-55.366 32.207c-1.304-.507-2.814-.762-4.322-.762-1.76 0-3.517.344-4.946 1.034l-55.309-31.964c2.489-1.746 2.347-4.329-.417-5.985l-.052-.032a.717.717 0 00.052.029l55.165-32.088c2.73 1.52 6.889 1.662 9.871.425l55.413 32.025c-1.862 1.523-1.89 3.568-.089 5.111zm-132.549-.023a4.277 4.277 0 000 .002l-55.476 32.269c-2.783-.976-6.389-.85-8.948.376l-56.355-32.571c2.234-1.575 2.328-3.83.291-5.473l55.309-32.175c2.695 1.118 6.341 1.118 9.021 0h.002l56.453 32.626c-.955.777-1.432 1.688-1.432 2.602 0 .813.38 1.627 1.135 2.344zm-252.993-5.413l-.029-.016a8.625 8.625 0 00-1.098-.525 8.2 8.2 0 011.101.523l55.162-32.086a4.795 4.795 0 010-.002c.011.005.019.013.029.018 2.735 1.58 6.986 1.735 10.01.47l54.724 31.623c-.963.777-1.442 1.693-1.442 2.612 0 1.024.6 2.048 1.796 2.882l-55.209 32.117c-2.859-1.37-7.005-1.378-9.861-.016l-54.635-31.573c2.494-1.769 2.305-4.379-.548-6.027zm120.161-.186c.171-.126.349-.247.548-.363l.27-.149c-.092.05-.181.1-.27.152a6.108 6.108 0 00-.548.36zm-53.531-32.225c1.17-.824 1.752-1.835 1.752-2.845 0-1.155-.763-2.31-2.287-3.192a.157.157 0 00-.029-.016l55.165-32.088a6.045 6.045 0 01-.514-.331c.16.113.33.223.514.328.008.008.018.013.029.019 2.73 1.577 6.97 1.735 9.991.477l54.73 31.629c-2.025 1.643-1.899 3.906.367 5.484l-55.212 32.114c-2.864-1.373-7.02-1.376-9.876-.008l-54.63-31.571zm120.093-6.534a.935.935 0 01.081-.052c.068-.039.142-.074.21-.11-.071.039-.142.073-.21.113-.029.015-.055.034-.081.049zm10.912-.123c.047.024.091.045.136.071l.225.136a14.916 14.916 0 00-.225-.133 2.226 2.226 0 00-.136-.074zm.658 6.122c2.25-1.578 2.349-3.841.307-5.484l55.308-32.175c2.691 1.116 6.323 1.119 9.003.008h.005l56.455 32.629c-1.793 1.465-1.885 3.415-.285 4.935.047.045.097.089.146.134a4.542 4.542 0 01-.146-.131l-55.475 32.269c-1.232-.433-2.627-.649-4.02-.649-1.759 0-3.516.344-4.943 1.035l-56.355-32.569v-.002zm54.391-44.368c.068-.045.139-.087.21-.129.036-.021.073-.039.11-.058l-.11.061a2.99 2.99 0 00-.21.126zm11.045-.2l.131.071c.016.011.032.019.045.029-.013-.008-.029-.018-.045-.026a3.835 3.835 0 00-.131-.074zm67.952 45.027c2.499-1.748 2.363-4.334-.407-5.995l55.165-32.089c2.725 1.515 6.876 1.659 9.855.431l55.417 32.028c-1.852 1.519-1.878 3.562-.079 5.103l-55.367 32.206c-1.303-.51-2.814-.761-4.324-.761-1.762 0-3.527.346-4.956 1.039l-55.304-31.962zm120.69-6.087c.063-.042.121-.084.189-.121-.068.039-.126.079-.189.121zm-331.971-37.758c-1.765 1.435-1.896 3.339-.396 4.848h.002l-55.545 32.311c-2.758-.913-6.275-.769-8.779.433l-56.046-32.392-.003.002c-.008 0-.013.008-.021.011a.062.062 0 00.021-.013h.003c2.365-1.672 2.334-4.103-.097-5.76l55.201-32.109c2.73 1.337 6.664 1.41 9.514.221l56.146 32.448zm-54.266 120.259c2.222-1.575 2.311-3.822.278-5.463l55.307-32.175h.002c2.701 1.121 6.354 1.119 9.04-.007l56.447 32.623c-1.815 1.467-1.917 3.428-.31 4.956l-55.476 32.272c-2.777-.974-6.373-.853-8.93.367l-56.358-32.573zm133.383.462c1.17-.825 1.755-1.835 1.755-2.846 0-1.129-.729-2.257-2.185-3.129l55.168-32.09c2.732 1.519 6.904 1.659 9.886.417l55.411 32.022c-1.875 1.523-1.909 3.573-.105 5.122l-55.364 32.206c-2.819-1.097-6.598-1.008-9.249.262l-55.314-31.964h-.003zm330.136-115.175zm-12.039-82.496c-1.757 1.462-1.841 3.397-.249 4.906.079.077.16.15.249.226a5.001 5.001 0 01-.252-.223l-55.474 32.269c-1.232-.433-2.63-.648-4.023-.648-1.778 0-3.55.352-4.985 1.055h-.002l-56.345-32.566c2.286-1.577 2.399-3.853.343-5.51l55.309-32.174c1.348.559 2.932.84 4.516.84s3.113-.27 4.44-.811l56.47 32.636h.003zm-133.391-.462c-1.985 1.644-1.849 3.885.404 5.452l-55.207 32.12h-.002c-2.88-1.383-7.068-1.378-9.923.013h-.003l-54.622-31.566-.11.074c.037-.026.073-.053.11-.076 2.546-1.764 2.379-4.402-.496-6.064a.247.247 0 00-.026-.016l55.162-32.088.029.016c2.714 1.57 6.923 1.735 9.942.499l54.742 31.636zm-264.739.258c-.946.771-1.418 1.68-1.418 2.588 0 .908.472 1.816 1.413 2.591l-55.33 32.185c-2.837-1.15-6.697-1.074-9.388.223l-55.676-32.175c2.347-1.646 2.352-4.04.024-5.699l55.222-32.122c2.719 1.276 6.569 1.331 9.373.171l55.78 32.238zm-52.125 274.75c2.447-1.745 2.292-4.307-.456-5.956l-.003-.002 55.168-32.088c2.745 1.528 6.936 1.661 9.923.401.044-.018.089-.036.131-.057-.045.021-.087.042-.131.06l55.398 32.014c-1.899 1.526-1.941 3.589-.126 5.143l-55.367 32.206c-2.808-1.092-6.569-1.011-9.22.249l-55.317-31.97zm132.342-.144c2.386-1.693 2.313-4.161-.207-5.814-.076-.05-.158-.1-.239-.147.081.047.163.094.239.144l55.185-32.098c-.083-.042-.162-.09-.241-.134.081.044.16.089.241.131 2.738 1.394 6.756 1.483 9.648.273l55.22 31.912c-2.009 1.62-1.922 3.846.252 5.421l-55.233 32.13h-.003c-2.853-1.313-6.92-1.3-9.734.044l-55.128-31.862zm264.563.236zM962.261 588.27zm-77.3-261.97l.029.016c2.698 1.559 6.875 1.732 9.891.519l54.758 31.647c-1.948 1.638-1.799 3.864.438 5.424l-55.209 32.116c-2.895-1.391-7.117-1.378-9.973.037l-54.614-31.563c2.586-1.766 2.434-4.42-.454-6.09-.01-.008-.021-.013-.028-.018l55.162-32.088zm-56.156 38.976l54.753 31.644c-1.962 1.641-1.818 3.872.427 5.434l-55.209 32.117h-.003c-2.89-1.389-7.099-1.378-9.954.029l-54.62-31.563c-.12.084-.251.165-.388.244.134-.082.265-.163.388-.247 2.573-1.767 2.416-4.415-.466-6.082a.252.252 0 01-.029-.016l55.162-32.088.029.016c2.706 1.562 6.894 1.732 9.91.512zm-9.947-6.872c.045-.024.087-.048.131-.069a6.447 6.447 0 00-.37.216c.076-.05.158-.098.239-.147zm-55.996-32.361c.073-.045.144-.087.215-.132-.071.045-.142.092-.215.134l-.089.047c.029-.015.06-.031.089-.049zm-10.487.254c2.701 1.326 6.587 1.412 9.433.26l56.169 32.461c-1.707 1.428-1.82 3.307-.336 4.798l-55.545 32.314c-1.193-.396-2.525-.593-3.857-.593-1.784 0-3.564.354-5.001 1.063l-56.036-32.385c2.437-1.672 2.426-4.134-.028-5.806l55.201-32.112zm-66.095 38.449c2.709 1.328 6.606 1.412 9.451.252l56.164 32.458c-1.72 1.43-1.836 3.312-.349 4.809l-55.542 32.313-.003-.002c-2.779-.922-6.33-.769-8.84.462h-.002l-56.036-32.385c1.204-.829 1.807-1.853 1.807-2.879 0-1.027-.616-2.077-1.849-2.917l55.199-32.109c-.084-.042-.162-.084-.241-.126.079.042.16.084.241.124zm-.679-.373zm-55.112-38.609c-.113.076-.226.15-.349.221.123-.071.236-.147.349-.221zm-65.93 32.661l55.22-32.125h.002c2.701 1.268 6.522 1.331 9.323.191l55.794 32.246c-1.854 1.541-1.843 3.612.029 5.153L629.6 396.075c-2.856-1.158-6.743-1.076-9.436.244l-55.665-32.172c2.383-1.646 2.399-4.053.06-5.722zm-10.87 6.323c2.706 1.268 6.535 1.331 9.338.184l55.792 32.243c-.931.766-1.395 1.669-1.395 2.57 0 .9.472 1.816 1.413 2.591l-55.33 32.185c.014.005.027.01.04.018a.124.124 0 00-.04-.016c-2.847-1.155-6.729-1.076-9.419.237l-55.674-32.172.003-.003c2.373-1.646 2.386-4.05.05-5.715l55.222-32.122zm-121.726-6.318s-.003 0-.003-.003l55.209-32.114h.003c2.709 1.302 6.582 1.375 9.409.218l55.606 32.135c-.931.769-1.396 1.67-1.396 2.57 0 .9.507 1.879 1.514 2.672l-55.288 32.164c-1.364-.58-2.977-.869-4.59-.869-1.77 0-3.54.35-4.972 1.048l-55.484-32.064c2.394-1.662 2.389-4.093-.008-5.757zm-10.886 6.331c2.717 1.305 6.601 1.376 9.43.21l55.598 32.133c-1.909 1.572-1.873 3.699.107 5.253l-55.288 32.164h-.002c-2.853-1.213-6.808-1.155-9.543.17h-.003l-55.484-32.069c2.378-1.659 2.368-4.085-.024-5.746a9.665 9.665 0 00-.236-.158l.236.155 55.209-32.114v.002zm-121.697-6.336l55.164-32.088.105.063c2.722 1.569 6.944 1.735 9.965.49l55.047 31.813c-.939.772-1.408 1.677-1.408 2.583 0 .905.488 1.845 1.458 2.627l-55.309 32.175h-.003c-2.848-1.179-6.755-1.11-9.466.205l-54.934-31.75c2.53-1.766 2.357-4.396-.512-6.055a6.768 6.768 0 00-.107-.063zm-10.82 6.42c2.724 1.575 6.957 1.738 9.978.486l55.041 31.81c-1.906 1.556-1.888 3.664.04 5.218l-55.309 32.175c-1.346-.557-2.929-.835-4.511-.835-1.759 0-3.516.344-4.943 1.032l-54.937-31.75c1.178-.827 1.765-1.84 1.765-2.853 0-1.155-.763-2.313-2.289-3.195a7.836 7.836 0 00-.435-.233c.112.055.223.11.327.17l55.165-32.088.108.063zm-121.637-.582c2.407-1.688 2.352-4.161-.158-5.823l55.188-32.103c1.461.737 3.284 1.107 5.104 1.107 1.576 0 3.149-.278 4.484-.832l56.145 32.448c-.944.772-1.416 1.68-1.416 2.588 0 .756.326 1.512.979 2.192l-55.59 32.337c-1.164-.372-2.46-.559-3.755-.559-1.757 0-3.514.344-4.941 1.032l-56.04-32.387zm.915 77.156c2.504-1.766 2.323-4.386-.538-6.037a6.492 6.492 0 00-.107-.063l55.164-32.088.108.063c2.73 1.577 6.975 1.737 9.996.477l55.037 31.808c-1.917 1.559-1.904 3.667.026 5.229l-55.306 32.174c-2.838-1.173-6.724-1.113-9.436.189l-54.942-31.752h-.002zm65.507 38.333l-.115.071a5.728 5.728 0 01-.113.063c.039-.021.076-.042.113-.066.039-.021.076-.044.115-.068zm-66.207 38.519c-.074.042-.15.084-.226.124l.223-.126c.037-.021.076-.042.113-.066-.034.024-.071.045-.11.068zm.514-.333c2.341-1.659 2.315-4.066-.063-5.717l55.209-32.115a11.151 11.151 0 01-.532-.28c-.024-.016-.045-.032-.069-.045.024.013.045.029.069.042.173.1.348.194.532.283h.003c2.732 1.313 6.647 1.376 9.479.19l55.585 32.122c-1.949 1.575-1.922 3.717.068 5.284l-55.291 32.161c-2.837-1.205-6.758-1.155-9.493.15l-55.495-32.072-.002-.003zm.364 76.839c1.151-.822 1.726-1.822 1.726-2.825 0-1.002-.58-2.016-1.742-2.842l55.225-32.125c2.733 1.281 6.614 1.333 9.423.147l55.765 32.23c-1.928 1.546-1.941 3.648-.042 5.21l-55.327 32.185h-.003c-2.819-1.141-6.653-1.076-9.341.2l-55.684-32.18zm.548 76.944c2.329-1.672 2.282-4.085-.134-5.733l55.199-32.112c1.445.709 3.228 1.063 5.009 1.063 1.605 0 3.207-.288 4.56-.861l56.13 32.44c-1.799 1.439-1.943 3.358-.433 4.877l-55.545 32.312c-1.19-.394-2.522-.594-3.855-.594-1.73 0-3.461.336-4.875 1.003h-.002l-56.054-32.395zm55.954 32.448zm-55.036 44.709c2.449-1.77 2.25-4.358-.59-5.999l-.029-.015 55.165-32.091.029.016c2.751 1.591 7.036 1.74 10.062.449.097-.042.189-.087.283-.132-.094.045-.186.092-.283.134l54.708 31.616c-2.074 1.648-1.967 3.935.318 5.523 0 0 .002 0 .002.002l-55.212 32.115c-2.842-1.365-6.96-1.378-9.813-.04l-54.64-31.578zm64.742 108.58h-.003c-2.753-.966-6.315-.853-8.866.339l-56.371-32.579c2.171-1.575 2.244-3.801.228-5.429l55.309-32.172a1.448 1.448 0 01-.116-.05l.116.048c2.722 1.128 6.414 1.118 9.105-.034l56.428 32.613c-1.859 1.47-1.977 3.451-.356 4.992l-55.474 32.272zm56.284 44.995zm65.647-38.797l-55.367 32.208h-.003c-2.793-1.086-6.522-1.01-9.168.226h-.002l-55.325-31.975c2.405-1.743 2.24-4.289-.496-5.93l55.163-32.09c2.758 1.538 6.983 1.664 9.973.383l55.385 32.009c-1.933 1.528-1.988 3.607-.163 5.169h.003zm10.725-6.237c-2.798-1.09-6.537-1.014-9.186.231l-55.325-31.973c1.133-.816 1.7-1.811 1.7-2.806 0-1.129-.729-2.257-2.185-3.132l55.165-32.09c1.505.837 3.443 1.257 5.381 1.257 1.613 0 3.22-.289 4.579-.869l55.387 32.012c-1.922 1.531-1.972 3.602-.152 5.161l-55.364 32.209zm122.967-.021l-55.136-31.863a5.894 5.894 0 01-.54.347 7.513 7.513 0 01-.902.451l55.204 31.902c-2.043 1.625-1.97 3.867.217 5.452l.071.05-.071-.047-55.232 32.127h-.003c-2.835-1.304-6.876-1.299-9.685.021l-55.138-31.865a5.352 5.352 0 010-.002c2.347-1.691 2.26-4.14-.247-5.786l55.186-32.104c1.463.746 3.296 1.119 5.124 1.119 1.61 0 3.218-.289 4.574-.867a8.82 8.82 0 00.902-.451c.191-.113.372-.228.54-.349 2.358-1.691 2.279-4.148-.231-5.796l55.183-32.104h.003c2.748 1.399 6.787 1.486 9.679.26l55.21 31.907c-2.03 1.622-1.952 3.853.228 5.439l-55.233 32.13c-2.843-1.307-6.894-1.297-9.703.029zm66.244 45.286a3.202 3.202 0 01-.115-.071c.039.024.079.045.118.069.044.026.092.049.139.076a2.093 2.093 0 01-.142-.074zm-.17-6.274l.139-.086a.746.746 0 01.084-.045c-.029.016-.055.032-.084.047-.047.027-.092.056-.139.084zm11.14 6.274c-.026.016-.055.029-.082.042.027-.013.056-.029.082-.044.084-.05.162-.097.241-.147-.079.05-.157.102-.241.149zm54.276-39.031l-55.317 32.18c-2.819-1.158-6.661-1.097-9.36.178l-55.872-32.29c2.229-1.601 2.281-3.879.16-5.52l55.272-32.154c2.724 1.179 6.472 1.189 9.202.032l55.946 32.332c-1.948 1.557-1.956 3.675-.031 5.242zm10.778-6.268c-2.825-1.158-6.677-1.095-9.378.186l-55.868-32.288c2.242-1.603 2.3-3.89.171-5.53l55.275-32.154c1.374.596 3.01.892 4.641.892 1.631 0 3.192-.283 4.542-.853l55.952 32.335c-1.938 1.557-1.941 3.67-.019 5.232l-55.316 32.18zm1.038 6.851a6.78 6.78 0 01-.446.239c.152-.076.302-.158.446-.242l.155-.092-.155.095zm121.107-5.649c-1.851 1.486-1.935 3.483-.259 5.022l-55.435 32.25c-1.259-.457-2.693-.687-4.128-.687-1.736 0-3.472.338-4.89 1.01l-55.868-32.287c2.334-1.665 2.3-4.072-.092-5.726l55.204-32.111c2.738 1.325 6.677 1.391 9.52.194l55.948 32.332v.003zm.798-.544c-.05.027-.097.056-.142.084.047-.031.092-.057.139-.086.068-.039.139-.076.21-.113a5.832 5.832 0 00-.207.115zm9.6-.63h-.002c-2.791-1.013-6.441-.903-9.029.334l-.194.094c.063-.034.128-.065.194-.097l-55.865-32.285c2.347-1.664 2.313-4.079-.084-5.733l55.204-32.111a3.31 3.31 0 01-.118-.061c.039.021.079.04.118.058 2.735 1.326 6.664 1.391 9.506.202l55.952 32.338c-1.839 1.488-1.917 3.478-.247 5.013l-55.435 32.251v-.003zm1.367.63c-.077-.044-.155-.089-.236-.131a5.299 5.299 0 01.283.158c-.016-.011-.032-.019-.047-.027zm120.564 5.566l-55.406 32.232h-.002c-2.798-1.045-6.496-.945-9.111.302l-55.495-32.073c2.436-1.727 2.308-4.265-.369-5.919l55.169-32.091c2.741 1.481 6.871 1.602 9.827.365l55.584 32.122c-1.857 1.502-1.922 3.521-.197 5.062zm10.686-6.214c-2.806-1.05-6.514-.945-9.128.307l-55.493-32.069c2.45-1.728 2.329-4.271-.354-5.928l-.183-.11a5.644 5.644 0 00-.278-.15c.094.048.189.095.278.147.063.04.123.077.183.111l55.17-32.091c2.735 1.478 6.855 1.601 9.808.373l55.59 32.125c-1.847 1.501-1.904 3.512-.184 5.053l-55.409 32.232zm121.905 6.214l-55.38 32.214c-2.813-1.079-6.569-.985-9.207.28l-55.492-32.072c2.428-1.714 2.328-4.229-.291-5.888l55.175-32.093s-.024-.013-.034-.021c.01.008.021.013.034.018 2.732 1.444 6.807 1.557 9.737.336h.002l55.586 32.128c-.95.774-1.43 1.688-1.43 2.598 0 .911.43 1.743 1.3 2.5zm66.21-43.536c-1.85 1.514-1.89 3.546-.11 5.087l-55.38 32.214c.1.042.21.084.31.129-.1-.042-.21-.084-.31-.126-2.83-1.084-6.59-.987-9.23.286l-55.49-32.07c2.444-1.714 2.349-4.236-.276-5.898l55.176-32.093c-.09-.048-.18-.095-.26-.145.08.05.17.097.26.142 2.73 1.444 6.79 1.559 9.72.346v-.002l55.59 32.13zm-.36-76.839c.03-.029.07-.055.11-.084-.04.029-.08.058-.11.086-1.82 1.497-1.87 3.5-.16 5.033l-55.41 32.229c-2.81-1.05-6.54-.942-9.16.326l-55.485-32.067c2.476-1.73 2.363-4.284-.328-5.946l55.173-32.09c1.49.805 3.4 1.21 5.3 1.21 1.57 0 3.14-.276 4.47-.825l55.6 32.13v-.002zm-65.71-32.708l.15.084c.06.037.12.071.18.105l-.18-.102-.15-.087zm11.54-.186c-.13.094-.28.184-.43.273l-.09.055c.03-.018.06-.039.09-.058.15-.086.3-.178.43-.27zm53.81-43.94c-1.79 1.481-1.86 3.449-.2 4.972l-55.44 32.248c-1.26-.457-2.69-.685-4.12-.685-1.78 0-3.55.349-4.98 1.05l-55.852-32.28c2.4-1.664 2.387-4.105-.029-5.77-.015-.01-.028-.021-.044-.031l.044.029 55.201-32.114c2.72 1.315 6.6 1.391 9.44.231l55.97 32.35h.01zm-.73-77.052c-1.87 1.549-1.85 3.631.05 5.174l-55.32 32.18c-1.34-.551-2.91-.827-4.48-.827-1.78 0-3.55.352-4.99 1.058l-55.851-32.279c2.321-1.604 2.402-3.925.249-5.584l55.272-32.156c2.69 1.163 6.37 1.189 9.08.081h.01l55.98 32.351v.002zm-.74-77.049c-1.93 1.615-1.82 3.807.33 5.363l-55.23 32.13c-1.42-.648-3.13-.974-4.83-.974-1.71 0-3.57.355-5.01 1.064l-55.108-31.852c2.465-1.693 2.42-4.2-.126-5.872l55.184-32.104c2.71 1.378 6.66 1.483 9.54.315h.01l55.24 31.93zm.01-76.623c-1.8 1.517-1.81 3.533-.03 5.061l-55.37 32.206c-2.85-1.11-6.69-1.005-9.34.312l-55.299-31.959c2.554-1.746 2.436-4.358-.351-6.03l55.16-32.09c1.51.837 3.45 1.254 5.39 1.254 1.54 0 3.08-.265 4.4-.795l55.44 32.041zm-.18-76.732c-1.72 1.457-1.79 3.376-.21 4.875l-55.48 32.272c-1.23-.433-2.63-.651-4.02-.651-1.8 0-3.59.362-5.04 1.081l-56.336-32.56c2.326-1.581 2.449-3.875.383-5.539l55.313-32.172c2.65 1.1 6.23 1.116 8.9.047l56.49 32.645v.002zm11.87-.632l-.2-.116c.07.037.13.074.2.113.01 0 .01.008.02.013-.01-.002-.01-.005-.02-.01z" fill="url(#paint1_radial_3172_29927)"/><defs><radialGradient id="paint1_radial_3172_29927" cx="0" cy="0" r="1" gradientUnits="userSpaceOnUse" gradientTransform="matrix(0 315.001 -503.5 0 626.5 615.001)"><stop stop-color="#fff"/><stop offset="1" stop-color="#fff" stop-opacity="0"/></radialGradient><linearGradient id="paint0_linear_3172_29927" x1="300" y1="574.217" x2="820.398" y2="574.217" gradientUnits="userSpaceOnUse"><stop stop-color="#1E57F7"/><stop offset="1" stop-color="#2BF9EB"/></linearGradient><filter id="filter0_f_3172_29927" x="0" y="0" width="1219" height="1219" filterUnits="userSpaceOnUse" color-interpolation-filters="sRGB"><feFlood flood-opacity="0" result="BackgroundImageFix"/><feBlend mode="normal" in="SourceGraphic" in2="BackgroundImageFix" result="shape"/><feGaussianBlur stdDeviation="150" result="effect1_foregroundBlur_3172_29927"/></filter></defs></svg>