<svg width="77" height="77" fill="none" xmlns="http://www.w3.org/2000/svg"><g clip-path="url(#clip0_1448_2878)" fill="#000"><path d="M76.02 28.65c-.09-3.81-5.42-4.22-6.47-1.27-4.67 2.19-9.19 4.4-14.13 6.12-5.29 1.83-10.71 3.27-15.98 5.15-.55-5.61-1.63-11.26-2.32-16.85-.57-4.56-1.04-9.29-2.1-13.8 1.54-1.03 1.19-3.94-1.1-3.87h-.12c-1.07-1.32-3.54-1.14-4.06.41C1.52 8.94-10.9 48.21 11.66 67.48 23 77.17 40.43 79.53 53.97 73.35c7.55-3.45 13.47-9.05 17.54-16.28 4.76-8.47 4.73-19 4.51-28.42zM52.15 67.44c-11.41 5.94-25.82 3.87-36.07-3.34C-5.85 48.66 5.94 13.3 30.12 8.81c.71 4.97 1.5 9.92 2.03 14.92.61 5.73.66 11.77 1.84 17.39.07.33.2.61.36.86-.34.7-.27 1.56.51 2.26 3.99 3.57 7.64 7.48 11.36 11.33 1.69 1.75 3.4 3.48 5.17 5.14 1.55 1.45 2.88 3.2 4.59 4.39-1.18.83-2.46 1.61-3.84 2.33l.01.01zM60 61.76c-1.68-1.63-3.81-2.42-5.61-4.03-1.81-1.62-3.5-3.38-5.17-5.14-3.07-3.24-6-6.55-9.26-9.58 9.28-2.5 20.9-4.3 29.52-9.48-.03 10.86-2.16 20.91-9.48 28.22v.01z"/><path d="M42.35 6.54c1.82 7.3-1.63 14.76.99 21.99.54 1.5 2.17 2.32 3.65 1.48 7.17-4.08 16.36-5.23 22.75-10.57.42-.35.66-.73.77-1.12.71-.73 1.01-1.8.46-3.1C66.41 4.26 54.6-3.31 42.68 1.45c-2.36.94-2.51 4.28-.33 5.09zm21.73 10.18c-5.57 2.31-11.36 4.58-16.69 7.39-.7-5.67 1.61-11.92-.13-17.28 7.23.4 13.46 2.25 16.82 9.89z"/></g><defs><clipPath id="clip0_1448_2878"><path fill="#fff" d="M0 0h76.09v76.76H0z"/></clipPath></defs></svg>