<svg width="83" height="90" fill="none" xmlns="http://www.w3.org/2000/svg"><path d="M67.992 83.256H8.267A1.53 1.53 0 016.74 81.73V49.508h3.05v30.697h58.201v3.051z" fill="#fff"/><path d="M8.267 50.133C3.707 50.133 0 46.426 0 41.864s3.706-8.269 8.267-8.269c4.56 0 8.266 3.707 8.266 8.27 0 4.561-3.706 8.268-8.266 8.268zm0-13.502A5.225 5.225 0 003.05 41.85c0 2.868 2.35 5.218 5.217 5.218 2.867 0 5.216-2.35 5.216-5.218s-2.35-5.218-5.216-5.218zM74.734 90c-4.56 0-8.267-3.708-8.267-8.27 0-4.562 3.706-8.269 8.267-8.269 4.56 0 8.266 3.707 8.266 8.27C83 86.291 79.294 90 74.734 90zm0-13.503a5.224 5.224 0 00-5.217 5.218c0 2.868 2.35 5.218 5.217 5.218 2.867 0 5.216-2.35 5.216-5.218s-2.35-5.218-5.216-5.218zm-14.2-36.189h-3.05v-6.515c0-7.11-5.78-12.892-12.888-12.892-7.107 0-12.888 5.783-12.888 12.892v6.515h-3.05v-6.515c0-8.788 7.153-15.943 15.938-15.943s15.938 7.155 15.938 15.943v6.515z" fill="#fff"/><path d="M61.556 73.568H27.453a3.646 3.646 0 01-3.645-3.647V42.444a3.646 3.646 0 013.645-3.646h34.103a3.646 3.646 0 013.645 3.646v27.477a3.646 3.646 0 01-3.645 3.647zM27.453 41.834a.596.596 0 00-.595.595v27.477c0 .336.275.595.595.595h34.103a.596.596 0 00.595-.595V42.43a.596.596 0 00-.595-.595H27.453z" fill="#fff"/><path d="M75.664 57.762h-25.47V54.71h23.945V9.779H23.396V6.728h52.268a1.53 1.53 0 011.525 1.525v47.983a1.53 1.53 0 01-1.525 1.526z" fill="#fff"/><path d="M44.505 63.392a7.22 7.22 0 01-7.215-7.217 7.22 7.22 0 017.215-7.216 7.22 7.22 0 017.214 7.216 7.22 7.22 0 01-7.215 7.217zm0-11.382a4.17 4.17 0 00-4.164 4.165 4.16 4.16 0 004.163 4.165 4.16 4.16 0 004.164-4.165 4.16 4.16 0 00-4.163-4.165zM16.64 16.538c-4.56 0-8.267-3.707-8.267-8.27C8.373 3.708 12.08 0 16.64 0s8.266 3.707 8.266 8.269-3.706 8.269-8.266 8.269zm0-13.502a5.224 5.224 0 00-5.216 5.217c0 2.869 2.348 5.218 5.216 5.218 2.867 0 5.216-2.35 5.216-5.218s-2.349-5.217-5.216-5.217z" fill="#fff"/></svg>