<svg width="78" height="369" fill="none" xmlns="http://www.w3.org/2000/svg"><path fill-rule="evenodd" clip-rule="evenodd" d="M51.4 1.369C66.378 5.411 78 14.12 78 21.424c0 5.211-4.602 5.52-8.812.626-5.302-6.371-22.463-12.905-31.275-11.818-5.62.626-11.386 3.734-15.987 8.628-7.02 7.386-10.222 17.02-10.222 31.093 0 15.388 2.883 27.052 12.868 52.074 9.204 23.163 12.632 32.797 15.206 42.748 7.566 29.145 3.901 42.983-15.288 57.592-3.2 2.411-5.774 4.667-5.774 4.894.081.235 2.028 1.867 4.447 3.579 11.695 8.392 16.842 18.261 19.034 36.994 1.173 10.023.081 20.671-3.593 35.362-2.964 12.207-5.065 26.426-5.065 34.745.082 11.818 4.683 24.406 12.868 35.136 5.384 7.069 8.349 9.171 13.26 9.715 3.273.308 3.974.698 4.137 2.102.546 3.653-6.866 5.438-12.795 2.955-1.483-.626-4.838-3.109-7.412-5.601-8.74-8.319-15.75-20.907-18.252-32.879-2.264-10.884-1.091-29.616 3.038-47.179 4.056-17.174 4.683-29.454 2.11-41.815-1.947-9.407-4.366-13.838-10.686-19.738-6.32-5.909-8.812-7.069-13.723-6.525-4.52.544-6.084-.544-6.084-4.123 0-2.411.31-2.719 4.838-4.976 6.239-2.954 20.28-13.911 23.245-18.034 4.365-5.909 5.692-10.957 5.229-19.666-.628-13.132-3.974-24.324-17.625-58.064C6.947 87.49 3.21 75.591 1.491 63.701.318 55.536.946 38.362 2.665 32.064c3.592-13.132 11.622-23.4 22.698-28.837C30.82.508 32.075.272 38.541.037 43.77-.117 47.117.19 51.409 1.36l-.01.009z" fill="#0077B5"/></svg>