<svg width="79" height="65" fill="none" xmlns="http://www.w3.org/2000/svg"><mask id="path-1-outside-1_1448_1873" maskUnits="userSpaceOnUse" x="-1.134" y="-1.506" width="45.195" height="67.017" fill="#000"><path fill="#fff" d="M-1.134-1.506h45.195v67.017H-1.134z"/><path d="M36.538 35.064c-.225-1.254.928-3.797-.616-4.275-4.222-.211-8.441-.462-12.673-.578-.053-.03-.573.057-.608-.002.036-.925.418-1.838.764-2.675 1.972-4.615 6.645-6.698 10.88-8.82 1.393-.728 4.248-1.088 2.63-3.221l.141.318c-1.176-2.303-1.898-4.679-3.174-6.942a1.483 1.483 0 01-.103-.208c-.431-1.04-1.336-2.921-2.16-4.534-.56-1.096-1.839-1.55-2.933-1.045-7.404 3.428-15.829 6.55-19.843 14.025-.264.501-3.227 5.18-2.02 3.72-2.089 5.406-3.317 10.974-3.13 16.771l-.007-.283c-.796 5.715-.996 11.453-1.259 17.25-.006.13.004.255.014.38.15 1.669-1.104 4.72.508 5.355-.47-.16-.936-.816-.572-1.357-.075 2.138 3.564 1.088 5.139 1.495.128.034.257.064.392.07 2.094.116 4.422.544 6.407.575l.084.163c.997-.08 1.436.247 2.37.231.052-.06.394-.054.723-.031.008.17 1.018.04.962.189l.011-.01c.96.11 4.192-.283 4.927-.325.31.1 1.12-.029.634-.098l.655.044-.077.007c.048.02.553.005.735.07.18.066.352.114.537.112.2 0 .406.01.595.03a63.082 63.082 0 01-3.351-.586c1.96.087 3.947.486 6.043.574-.437.046-.863-.004-1.3-.031.61.25 1.676.208 2.586.236.146.008.279.071.412.123.192.072.832-.032 1.001-.057-.3-.066-.923-.103-.865-.174-.038.01-.071.014-.098.018l.054.003c-.115.017-.12.01-.054-.003l-.22-.045c.5-.009 1.412-.144 1.841-.27-.04-.041-.034-.08.033-.1.205.01.149.053-.033.1.06.094.554.22.776.113-1.573-.118 1.424-.805-.403-.942.727.212-.14.185-.93.169-.25-.002-1.36-.481-1.626-.167-.171-.036-.441-.073-.607-.115a2.612 2.612 0 00-.69-.108c-1.225-.016-3.994-.08-3.248-.564.595.041.32.113.246.171l.314.016c-.112-.142.986.026 1.162-.112-.315-.111-.97-.144-1.518-.15l.107.035c-.483.004-1.443 0-1.963-.138.129-.067-.096-.135.257-.14l-.66-.05c-.087.018-.17.042.019.069a2.445 2.445 0 01-.865-.06c-.056-.071-2.392.083-3.174.112a1.8 1.8 0 01-.352-.018c-.324-.038-.892-.067-.951-.075 1.012.033 4.418-.034 3.941-.052-.852.003-5.856-.067-6.415.03-.593-.07.187-.144-.231-.244-1.05-.075-2.6-.209-3.77-.126.256-.032.792-.333 1.35-.21.088-.018.604-.02.597-.105-.676-.153-1.375.038-2.066-.132 0 .011.01.017.009.035-.24-.07-.16-.07-.06-.11-.424-.197-2.703-.09-3.76-.087-.428.086-3.292-.696-2.806-.101l-.626-.065c.34-.096.214-.17.07-.228.095-.375.173-.732.31-.556a1.42 1.42 0 00.06-.664c-.398-.483.08-1.46.069-2.009.095-.17.114.102.186.078.047-1.168.548-3.251.19-4.111.05-.908.158-.903.278-.806l.054-.738c-.11 2.391-.289 4.898-.472 7.37.899-5.285 1.235-11.13.86-15.569a2.107 2.107 0 01.092-.86c.473-1.429.821-5.142.72-5.186C5.787 20.48 16.51 10.606 28.84 6.526c.098-.023.152-.004.14.103.394 1.043.86 2.01 1.281 3.037-.274-.67-.546-1.338-.816-2.008 1.285 2.393 2.458 4.555 3.551 6.667-.104-.418-.06-.523-.376-1.477.343 1.062 1.062 1.98 1.594 2.95-.201.11-.396.213-.536.307-.224-.197-.749.206-1.04.276l.334-.057c-4.005 1.869-8.26 4.165-10.683 7.916-.163-.008-1.475 2.159-.884.962-.722 1.524-1.3 3.213-1.618 4.904-.267 1.434.717 2.8 2.12 2.847l.022.002c3.752.159 7.553.31 11.326.385 1.664.355.425 4.289.737 5.763l.068-.172c-.077 5.891.201 12.58.309 18.668l-.002.039.136 1.618c.045.612.03 1.793.163.963.326-1.634.125-1.735.39-3.117l-.062.036c.61-7.306 1.288-14.67 1.539-22.074h.005z"/></mask><path d="M36.538 35.064c-.225-1.254.928-3.797-.616-4.275-4.222-.211-8.441-.462-12.673-.578-.053-.03-.573.057-.608-.002.036-.925.418-1.838.764-2.675 1.972-4.615 6.645-6.698 10.88-8.82 1.393-.728 4.248-1.088 2.63-3.221l.141.318c-1.176-2.303-1.898-4.679-3.174-6.942a1.483 1.483 0 01-.103-.208c-.431-1.04-1.336-2.921-2.16-4.534-.56-1.096-1.839-1.55-2.933-1.045-7.404 3.428-15.829 6.55-19.843 14.025-.264.501-3.227 5.18-2.02 3.72-2.089 5.406-3.317 10.974-3.13 16.771l-.007-.283c-.796 5.715-.996 11.453-1.259 17.25-.006.13.004.255.014.38.15 1.669-1.104 4.72.508 5.355-.47-.16-.936-.816-.572-1.357-.075 2.138 3.564 1.088 5.139 1.495.128.034.257.064.392.07 2.094.116 4.422.544 6.407.575l.084.163c.997-.08 1.436.247 2.37.231.052-.06.394-.054.723-.031.008.17 1.018.04.962.189l.011-.01c.96.11 4.192-.283 4.927-.325.31.1 1.12-.029.634-.098l.655.044-.077.007c.048.02.553.005.735.07.18.066.352.114.537.112.2 0 .406.01.595.03a63.082 63.082 0 01-3.351-.586c1.96.087 3.947.486 6.043.574-.437.046-.863-.004-1.3-.031.61.25 1.676.208 2.586.236.146.008.279.071.412.123.192.072.832-.032 1.001-.057-.3-.066-.923-.103-.865-.174-.038.01-.071.014-.098.018l.054.003c-.115.017-.12.01-.054-.003l-.22-.045c.5-.009 1.412-.144 1.841-.27-.04-.041-.034-.08.033-.1.205.01.149.053-.033.1.06.094.554.22.776.113-1.573-.118 1.424-.805-.403-.942.727.212-.14.185-.93.169-.25-.002-1.36-.481-1.626-.167-.171-.036-.441-.073-.607-.115a2.612 2.612 0 00-.69-.108c-1.225-.016-3.994-.08-3.248-.564.595.041.32.113.246.171l.314.016c-.112-.142.986.026 1.162-.112-.315-.111-.97-.144-1.518-.15l.107.035c-.483.004-1.443 0-1.963-.138.129-.067-.096-.135.257-.14l-.66-.05c-.087.018-.17.042.019.069a2.445 2.445 0 01-.865-.06c-.056-.071-2.392.083-3.174.112a1.8 1.8 0 01-.352-.018c-.324-.038-.892-.067-.951-.075 1.012.033 4.418-.034 3.941-.052-.852.003-5.856-.067-6.415.03-.593-.07.187-.144-.231-.244-1.05-.075-2.6-.209-3.77-.126.256-.032.792-.333 1.35-.21.088-.018.604-.02.597-.105-.676-.153-1.375.038-2.066-.132 0 .011.01.017.009.035-.24-.07-.16-.07-.06-.11-.424-.197-2.703-.09-3.76-.087-.428.086-3.292-.696-2.806-.101l-.626-.065c.34-.096.214-.17.07-.228.095-.375.173-.732.31-.556a1.42 1.42 0 00.06-.664c-.398-.483.08-1.46.069-2.009.095-.17.114.102.186.078.047-1.168.548-3.251.19-4.111.05-.908.158-.903.278-.806l.054-.738c-.11 2.391-.289 4.898-.472 7.37.899-5.285 1.235-11.13.86-15.569a2.107 2.107 0 01.092-.86c.473-1.429.821-5.142.72-5.186C5.787 20.48 16.51 10.606 28.84 6.526c.098-.023.152-.004.14.103.394 1.043.86 2.01 1.281 3.037-.274-.67-.546-1.338-.816-2.008 1.285 2.393 2.458 4.555 3.551 6.667-.104-.418-.06-.523-.376-1.477.343 1.062 1.062 1.98 1.594 2.95-.201.11-.396.213-.536.307-.224-.197-.749.206-1.04.276l.334-.057c-4.005 1.869-8.26 4.165-10.683 7.916-.163-.008-1.475 2.159-.884.962-.722 1.524-1.3 3.213-1.618 4.904-.267 1.434.717 2.8 2.12 2.847l.022.002c3.752.159 7.553.31 11.326.385 1.664.355.425 4.289.737 5.763l.068-.172c-.077 5.891.201 12.58.309 18.668l-.002.039.136 1.618c.045.612.03 1.793.163.963.326-1.634.125-1.735.39-3.117l-.062.036c.61-7.306 1.288-14.67 1.539-22.074h.005z" fill="#fff"/><path d="M36.538 35.064l-.1 1.998 2.512.126-.443-2.476-1.969.352zm-.616-4.275l.592-1.91-.24-.075-.252-.013-.1 1.998zm-12.673-.578l-1.011 1.726.443.26.513.014.055-2zm-.608-.002l-1.998-.076-.023.596.308.511 1.713-1.03zm.764-2.675l-1.84-.786-.004.011-.005.011 1.848.764zm10.88-8.82l.896 1.787.015-.007.015-.008-.926-1.773zm2.63-3.221l1.593-1.21-3.423 2.018 1.83-.808zm.141.318l-1.78.91 3.6-1.739-1.82.829zm-3.174-6.942l1.742-.982-.006-.01-1.736.992zm-.103-.208l1.866-.718-.009-.024-.01-.024-1.847.766zm-2.16-4.534l-1.783.908.002.003 1.78-.911zm-2.933-1.045l-.838-1.816h-.002l.84 1.816zM8.843 17.107L7.08 16.16l-.004.008-.004.007 1.77.932zm-2.02 3.72l1.865.72-3.407-1.995 1.542 1.275zm-3.13 16.771l-1.998.065 3.998-.118-2 .053zm-.007-.283l2-.053-3.98-.223 1.98.276zm-1.259 17.25l1.998.1v-.01l-1.998-.09zm.014.38l-1.994.16.001.009v.01l1.993-.18zm.508 5.355l-.642 1.894 1.374-3.755-.732 1.86zm-.572-1.357l1.998.07.244-6.998-3.903 5.813 1.66 1.115zm5.139 1.495l.521-1.931-.01-.003-.011-.003-.5 1.937zm.392.07l.111-1.997h-.01l-.1 1.997zm6.407.575l1.776-.92-.55-1.06-1.195-.02-.031 2zm.084.163l-1.776.92.61 1.18 1.326-.107-.16-1.993zm2.37.231l.033 2 .891-.015.585-.672-1.509-1.313zm.723-.031l1.998-.092-.081-1.784-1.783-.12-.134 1.996zm.962.189l-1.872-.704 3.244 2.16-1.372-1.456zm.011-.01l.229-1.988-.924-.106-.676.638 1.371 1.455zm4.927-.325l.616-1.903-.357-.115-.374.021.115 1.997zm.634-.098l.135-1.996-.418 3.975.283-1.98zm.655.044l.195 1.99-.061-3.986-.134 1.996zm-.077.007l-.195-1.99-.554 3.844.75-1.854zm1.272.182l-.013-2h-.01l.023 2zm.595.03l-.218 1.988.515-3.966-.297 1.978zm-3.351-.586l.088-1.998-.498 3.956.41-1.958zm6.043.574l.21 1.989-.126-3.987-.084 1.998zm-1.3-.031l.125-1.996-.885 3.846.76-1.85zm2.586.236l.1-1.997h-.018l-.019-.002-.063 2zm.412.123l-.727 1.863.013.005.013.005.7-1.873zm1.001-.057l.297 1.977.132-3.931-.429 1.954zm-.865-.174l1.548 1.267 3.788-4.627-5.81 1.417.474 1.943zm-.044.02l.29 1.98-.19-3.977-.1 1.998zm-.274-.047l-.036-2-.364 3.96.4-1.96zm1.874-.37l.1-1.997-.337-.017-.324.095.56 1.92zm.743.213l.87 1.8 6.695-3.237-7.415-.558-.15 1.995zm-.403-.942l.149-1.994-.708 3.915.559-1.92zm-.93.169l.042-2h-.034l-.009 2zm-1.626-.167l-.42 1.956 1.175.252.774-.918-1.529-1.29zm-.607-.115l-.533 1.928.02.006.02.005.493-1.939zm-.69-.108l-.025 2h.023l.003-2zm-3.248-.564l.138-1.995-.665-.046-.56.363 1.087 1.678zm.246.171l-1.246-1.565-4.14 3.298 5.286.265.1-1.998zm.314.016l-.1 1.997 4.419.221-2.753-3.463-1.566 1.245zm1.162-.112l1.239 1.57 2.84-2.242-3.41-1.212-.67 1.884zm-1.518-.15l.018-1.999-.618 3.908.6-1.908zm.107.035l.017 2 .583-3.908-.6 1.907zm-1.963-.138l-.927-1.772-4.543 2.378 4.953 1.326.517-1.932zm.257-.14l.028 2 .123-3.994-.15 1.994zm-.66-.05l.152-1.994-.282-.022-.276.058.407 1.958zm.019.069l.255 1.983.022-3.964-.277 1.98zm-.865-.06l-1.566 1.244.43.542.674.16.462-1.946zm-3.174.112l-.074-1.999h-.008l-.007.001.088 1.998zm-.352-.018l.288-1.979-.025-.003-.025-.003-.238 1.985zm-.951-.075l.066-2-.354 3.979.288-1.98zm3.941-.052l.076-1.998-.04-.002h-.042l.006 2zm-6.415.03l-.231 1.986.287.034.285-.05-.34-1.97zm-.231-.244l.465-1.945-.16-.038-.163-.012-.143 1.995zm-3.77-.126l-.25-1.984.39 3.979-.14-1.995zm1.35-.21l-.434 1.953.42.093.42-.087-.406-1.959zm.597-.105l1.994-.155-.114-1.471-1.44-.325-.44 1.95zm-2.066-.132l.478-1.942-2.355-.58-.12 2.422 1.997.1zm.009.035l-.548 1.923 2.42.69.125-2.514-1.997-.1zm-.06-.11l.749 1.854L16.8 58.51l-4.191-1.94-.84 1.814zm-3.76-.087l-.008-2h-.195l-.192.039.394 1.96zm-2.806-.101l-.208 1.99 4.822.502-3.065-3.757-1.55 1.265zm-.626-.065l-.542-1.926.334 3.915.208-1.99zm.07-.228l-1.938-.491-.428 1.69 1.617.655.75-1.855zm.31-.556l-1.576 1.23 2.17 2.782 1.272-3.291-1.865-.72zm.06-.664l1.985-.253-.073-.574-.369-.446-1.542 1.273zm.069-2.009L3.34 53.7l-.264.473.01.542 2-.039zm.186.078l.65 1.89 1.293-.443.055-1.366-1.998-.082zm.19-4.111l-1.998-.112-.025.458.176.423 1.846-.77zm.278-.806l-1.253 1.559 2.974 2.39.274-3.805-1.995-.144zm.054-.738l1.997.091-3.992-.235 1.995.144zm-.472 7.37l-1.995-.148 3.966.483-1.971-.335zm.86-15.569l-1.994.157.001.012 1.993-.169zm.092-.86l1.892.649.003-.01.003-.01-1.898-.629zm.72-5.186l-1.993.167.1 1.182 1.084.48.81-1.83zM28.84 6.526l-.46-1.947-.085.02-.084.028.629 1.899zm.14.103l-1.99-.2-.046.466.165.439 1.872-.705zm1.281 3.037l-1.85.758 3.701-1.515-1.85.757zm-.816-2.008l1.762-.946-3.617 1.696 1.855-.75zm3.551 6.667l-1.776.92 3.717-1.403-1.94.483zm-.376-1.477l1.898-.629-3.802 1.243 1.904-.614zm1.594 2.95l.952 1.76 1.768-.957-.966-1.764-1.754.962zm-.536.307l-1.326 1.498 1.16 1.026 1.284-.866-1.118-1.658zm-1.04.276l-.469-1.944.805 3.916-.336-1.972zm.334-.057l.846 1.813-1.181-3.784.335 1.971zM22.29 24.24l-.1 1.997 1.153.058.627-.97-1.68-1.085zm-.884.962l1.808.856-3.6-1.742 1.792.886zm-1.618 4.904l-1.965-.37-.001.004 1.966.366zm2.12 2.847l.1-1.997h-.016l-.016-.001-.068 1.998zm.022.002l-.1 1.997h.015l.085-1.997zm11.326.385l.417-1.956-.187-.04-.19-.003-.04 2zm.737 5.763l-1.957.413 1.37 6.48 2.446-6.155-1.859-.738zm.068-.172l2 .026-3.858-.765 1.858.739zm.309 18.668l1.998.1.003-.068-.001-.068-2 .035zm-.002.039l-1.997-.1-.007.134.011.134 1.993-.168zm.136 1.618l1.995-.148-.001-.01v-.01l-1.994.168zm.163.963l-1.96-.391-.008.036-.006.037 1.974.318zm.39-3.117l1.964.375.834-4.361-3.819 2.266 1.02 1.72zm-.062.036l-1.993-.166-.322 3.865 3.336-1.979-1.02-1.72zm1.539-22.074l.1-1.997-2.03-.102-.07 2.031 2 .068zm1.974-.352c.003.017-.011-.103.042-.532.037-.3.132-.908.17-1.388.038-.49.061-1.234-.191-1.964a3.04 3.04 0 00-2.014-1.95L35.33 32.7a.923.923 0 01-.368-.233.904.904 0 01-.214-.33c-.028-.079.011-.019-.017.343-.03.373-.084.666-.152 1.21-.051.415-.125 1.084-.01 1.728l3.938-.705zm-2.485-5.92c-4.197-.21-8.457-.463-12.718-.58l-.11 3.999c4.202.114 8.381.363 12.628.575l.2-3.995zm-11.762-.306a2.028 2.028 0 00-.98-.28c-.107-.004-.2 0-.246.003-.088.004-.212.015-.246.017-.075.006-.066.004-.025.004a1.899 1.899 0 011.101.398c.152.116.337.294.491.55l-3.427 2.062a2.025 2.025 0 001.385.952c.187.034.345.037.412.038.15.001.298-.01.364-.015l.106-.008.032-.003h.007-.096a1.803 1.803 0 01-.459-.076 1.971 1.971 0 01-.441-.191l2.022-3.451zm.38 1.8c.02-.502.235-1.074.613-1.988l-3.697-1.528c-.313.759-.862 2.014-.913 3.363l3.997.153zm.604-1.966c1.623-3.798 5.466-5.578 9.937-7.819l-1.792-3.576c-4 2.004-9.502 4.392-11.824 9.823l3.679 1.572zm9.967-7.834c.218-.114.504-.218 1.021-.417.426-.165 1.049-.41 1.59-.764.533-.348 1.325-1.019 1.53-2.159.203-1.138-.288-2.129-.844-2.862l-3.186 2.418c.252.333.012.187.092-.261.08-.45.375-.585.222-.486-.144.094-.396.208-.846.382-.36.14-.953.354-1.43.603l1.85 3.546zm-.126-4.185l.15.338 3.642-1.657a37.433 37.433 0 01-.133-.297l-3.66 1.615zm3.752-1.4c-.545-1.067-.985-2.152-1.485-3.348-.488-1.167-1.027-2.423-1.728-3.666L32.14 9.852c.575 1.02 1.036 2.083 1.521 3.245.474 1.133.983 2.388 1.614 3.624l3.562-1.82zm-3.219-7.024a1.382 1.382 0 01-.012-.022l.004.007a.888.888 0 01.035.081l-3.733 1.436c.086.224.184.397.234.483l3.472-1.985zm.008.018c-.462-1.115-1.395-3.054-2.228-4.68l-3.56 1.823c.819 1.6 1.694 3.425 2.093 4.389l3.695-1.532zM33.4 3.219c-1.032-2.026-3.454-2.921-5.552-1.953l1.676 3.632a.2.2 0 01.158-.01.28.28 0 01.154.147L33.4 3.219zm-5.554-1.952c-3.597 1.665-7.73 3.38-11.39 5.6-3.706 2.248-7.138 5.128-9.375 9.293l3.523 1.893c1.778-3.309 4.565-5.727 7.927-7.766 3.407-2.067 7.188-3.628 10.995-5.39l-1.68-3.63zM7.073 16.175l-.037.063-.12.203-.378.624c-.294.483-.659 1.08-.977 1.617-.297.5-.62 1.056-.783 1.406-.03.065-.126.27-.184.513a2.033 2.033 0 00.053 1.155 2.01 2.01 0 002.512 1.256c.398-.127.66-.352.7-.384.094-.078.17-.153.218-.203.1-.102.199-.217.287-.324l-3.083-2.549c-.062.076-.082.096-.072.085.004-.004.043-.044.107-.097.01-.008.248-.218.63-.34a1.99 1.99 0 012.585 2.023c-.01.145-.035.256-.048.313-.044.183-.104.296-.078.24.062-.133.27-.504.596-1.053.554-.934 1.45-2.38 1.611-2.685l-3.54-1.863zm-2.116 3.931c-2.16 5.59-3.46 11.43-3.262 17.557l3.998-.13c-.177-5.466.978-10.764 2.995-15.986l-3.731-1.44zm.736 17.44l-.007-.284-3.999.107.008.283 3.998-.107zm-3.988-.507C.894 42.867.691 48.715.43 54.474l3.996.182c.265-5.835.462-11.464 1.242-17.065l-3.962-.552zM.43 54.465c-.014.28.009.533.017.64l3.987-.32a8.79 8.79 0 01-.008-.122c-.001-.02 0-.016-.001.002l-3.995-.2zm.019.658c.015.17-.003.474-.074 1.007-.06.444-.169 1.12-.22 1.703-.052.583-.083 1.372.128 2.132.239.86.817 1.756 1.933 2.196l1.465-3.722c.31.122.44.4.456.456l-.008-.048a1.485 1.485 0 01-.01-.146c-.005-.132 0-.3.02-.514.041-.467.117-.907.2-1.524.071-.53.154-1.233.094-1.897l-3.984.357zm3.142 3.283a.996.996 0 01.347.195.85.85 0 01.19.247c.056.108.119.283.119.514 0 .248-.075.494-.21.696l-3.32-2.23c-.683 1.016-.523 2.119-.144 2.854a3.117 3.117 0 001.734 1.512l1.284-3.788zm-3.213.467c-.02.553.079 1.136.374 1.682.296.55.724.934 1.162 1.191.796.467 1.708.56 2.313.591.634.032 1.365.003 1.839-.004.588-.008.853.016.95.041l1-3.873c-.69-.178-1.471-.175-2.006-.167-.648.009-1.118.032-1.581.008-.493-.025-.575-.095-.49-.045a.931.931 0 01.332.357c.104.192.105.34.104.358l-3.997-.139zm6.617 3.496a3.8 3.8 0 00.814.137l.2-3.995a.565.565 0 01.076.008l-.008-.002a1.868 1.868 0 01-.04-.01l-1.042 3.862zm.803.136c.973.054 2.006.18 3.127.31 1.085.124 2.255.25 3.358.268l.063-4c-.88-.014-1.867-.116-2.965-.242-1.063-.122-2.241-.267-3.362-.33l-.221 3.994zm4.74-.502l.085.162 3.552-1.839-.084-.162-3.552 1.839zm2.021 1.236c.224-.018.37.002.658.06.313.062.868.19 1.585.178l-.066-4c-.217.004-.349-.024-.738-.101a6.023 6.023 0 00-1.76-.124l.321 3.987zm3.72-.45a1.945 1.945 0 01-.787.546 1.68 1.68 0 01-.302.081c-.093.016-.143.015-.115.014.042 0 .14.001.283.011l.268-3.99a7.342 7.342 0 00-.648-.02c-.105.003-.271.01-.453.04-.089.016-.24.046-.414.11-.133.049-.518.2-.851.584l3.018 2.625zm-2.785-1.252a2.05 2.05 0 001.209 1.776 2.282 2.282 0 00.659.191c.233.035.484.04.575.043l.145.005c.04.002.025.002-.016-.003a1.803 1.803 0 01-.53-.168 1.949 1.949 0 01-.807-.756 1.974 1.974 0 01-.147-1.694l3.744 1.408a2.031 2.031 0 00-1.004-2.538 2.195 2.195 0 00-.731-.218 3.826 3.826 0 00-.32-.027l-.214-.007c-.155-.005-.154-.008-.111-.002.006.001.193.024.428.132.123.057.364.184.597.434.26.282.495.706.52 1.241l-3.997.183zm4.332 1.553l.011-.01-2.743-2.911-.012.01 2.744 2.911zm-1.589.521c.729.084 2.014-.017 2.951-.1 1.118-.098 1.984-.195 2.32-.215l-.231-3.993c-.4.023-1.517.143-2.439.224-.5.044-.987.081-1.399.101-.205.01-.38.016-.52.016a3.59 3.59 0 01-.165-.003l-.06-.004-.457 3.974zm4.539-.408c.369.119.72.132.898.133.215.002.44-.014.644-.046.097-.015.243-.042.403-.093.077-.024.213-.07.368-.153.095-.05.496-.26.788-.732a2.013 2.013 0 00-.115-2.283c-.329-.43-.736-.6-.834-.642a2.503 2.503 0 00-.618-.165l-.567 3.96c-.008-.002-.04-.006-.088-.018a1.715 1.715 0 01-.281-.091c-.075-.032-.466-.193-.787-.612a1.987 1.987 0 01-.113-2.252c.285-.462.673-.663.75-.703.136-.072.248-.109.296-.124.102-.032.17-.042.176-.043l.017-.003h-.007l.014.001.04.004a1.3 1.3 0 01.248.056l-1.232 3.806zm1.116-.006l.654.044.269-3.99-.654-.045-.269 3.991zm.593-3.942l-.076.008.39 3.98.077-.007-.39-3.98zm-.63 3.852a2.046 2.046 0 00.618.145l.156.01c.037 0 .08.002.11.003a9.41 9.41 0 01.194.01c.004 0-.015 0-.049-.007a1.486 1.486 0 01-.226-.064l1.361-3.76a2.526 2.526 0 00-.39-.106 3.38 3.38 0 00-.254-.038 5.68 5.68 0 00-.363-.027l-.13-.005-.084-.003.013.001a1.886 1.886 0 01.543.133l-1.5 3.708zm.803.097c.249.09.692.237 1.24.231l-.045-4a.851.851 0 01.193.019c.027.006.026.008-.027-.01l-1.361 3.76zm1.23.231c.128 0 .257.006.364.018l.437-3.976a7.26 7.26 0 00-.826-.042l.025 4zm.88-3.948a61.523 61.523 0 01-3.238-.565l-.82 3.915c1.117.234 2.43.45 3.464.606l.594-3.956zm-3.736 3.39c.889.04 1.797.15 2.818.274.996.12 2.091.252 3.229.3l.168-3.996c-.958-.04-1.904-.152-2.916-.275-.986-.12-2.052-.251-3.122-.299l-.177 3.996zm5.921-3.413c-.217.023-.385-.002-.965-.038l-.252 3.992c.296.018.981.093 1.636.024l-.419-3.978zm-1.85 3.808c.643.264 1.359.324 1.835.349.458.024 1.129.026 1.449.037l.125-3.998c-.247-.008-.51-.011-.732-.015a17.778 17.778 0 01-.63-.019 4.425 4.425 0 01-.44-.04c-.113-.019-.13-.031-.088-.014l-1.52 3.7zm3.246.384a1.247 1.247 0 01-.334-.06c-.015-.005-.018-.006.005.003l.044.017.07.028 1.453-3.727-.085-.034a4.136 4.136 0 00-.197-.073 2.764 2.764 0 00-.756-.149l-.2 3.995zm-.19-.002c.415.155.81.152.916.152.181 0 .357-.014.49-.027.268-.026.53-.068.594-.078l-.594-3.955-.181.027a5.137 5.137 0 01-.288.032h-.022c.002 0 .038 0 .097.007.03.004.079.01.139.022.057.012.146.034.252.074l-1.402 3.746zm2.132-3.884c-.249-.055-.644-.101-.716-.112-.102-.014-.075-.014-.002.005a1.874 1.874 0 01.527.238 1.987 1.987 0 01.445 2.916l-3.095-2.534a2.012 2.012 0 00.461 2.966c.306.2.606.273.647.283.183.048.374.075.458.087.052.008.283.038.301.04l.117.018.857-3.907zm-1.768-.163l.095-.02h.006-.004a.335.335 0 01-.03.005l.618 3.952a.561.561 0 01.008-.001l.054-.009c.049-.008.119-.02.201-.04l-.948-3.887zm.276 3.959l.054.002.2-3.995-.054-.002-.2 3.995zm-.137-3.974l.02-.002a1.695 1.695 0 01.194-.009 1.952 1.952 0 01.618.104 1.999 1.999 0 01.614 3.455c-.234.187-.456.274-.481.285a1.935 1.935 0 01-.322.101l-.813-3.916a2.075 2.075 0 00-.4.121c-.028.012-.252.1-.486.288a2.001 2.001 0 00.964 3.541c.215.031.393.019.398.018a2.445 2.445 0 00.276-.029l-.582-3.957zm.637.016l-.22-.045-.8 3.92.22.045.8-3.92zm-.585 3.915c.664-.012 1.754-.17 2.367-.35l-1.121-3.84a7.455 7.455 0 01-1.317.19l.071 4zm3.226-3.679c.145.146.777.852.48 1.897a1.932 1.932 0 01-1.307 1.332l-1.121-3.84c-.222.065-1.124.372-1.42 1.416-.306 1.08.343 1.826.529 2.013l2.839-2.818zm-1.487 3.307a1.731 1.731 0 01-.361-.067c-.055-.016-.495-.135-.877-.546a1.99 1.99 0 01-.232-2.404c.267-.43.623-.628.674-.658a1.764 1.764 0 01.352-.156l.005-.002 1.012 3.87c.079-.02.202-.055.334-.107.064-.025.18-.073.312-.15.068-.04.436-.247.709-.686a2.01 2.01 0 00-.235-2.43c-.39-.418-.843-.544-.918-.566a2.414 2.414 0 00-.575-.093l-.2 3.995zm-1.612-.812c.249.385.564.586.668.651.148.091.285.153.383.192.2.08.402.134.586.168.185.035.411.062.658.056a2.5 2.5 0 001.03-.24l-1.74-3.6c.306-.15.556-.157.617-.159a.819.819 0 01.174.013.85.85 0 01.163.049c.04.016.126.053.235.12.065.04.351.217.585.578l-3.36 2.173zm2.605-2.968c-.055-.004-.065-.007-.043-.003.01.002.12.02.275.085a1.9 1.9 0 01.831.704 1.94 1.94 0 01.19 1.734 1.865 1.865 0 01-.414.649c-.08.08-.144.125-.15.13l.118-.074c.067-.042.259-.16.437-.309.09-.075.252-.22.406-.43.141-.194.414-.634.41-1.258a2.07 2.07 0 00-.718-1.555 2.294 2.294 0 00-.784-.442 3.182 3.182 0 00-.508-.121 5.516 5.516 0 00-.454-.051l-.298 3.989c.076.005.114.01.122.012.016.003-.038-.004-.13-.035a1.712 1.712 0 01-.576-.336 1.932 1.932 0 01-.654-1.434 1.89 1.89 0 01.357-1.125c.12-.164.233-.26.265-.286.06-.05.094-.067-.002-.007-.04.026-.205.126-.342.226a2.718 2.718 0 00-.322.271 2.134 2.134 0 00-.508.78 2.07 2.07 0 00.2 1.85 2.1 2.1 0 00.538.563c.163.117.317.193.435.242.226.096.435.141.575.166.151.027.303.044.444.054l.3-3.989zm-1.112 2.974c.063.018.031.012-.045-.021a1.71 1.71 0 01-.287-.163c-.06-.042-.532-.355-.741-1.009a1.986 1.986 0 01.628-2.137c.314-.257.62-.343.68-.36.106-.032.188-.044.214-.048l.057-.007s-.022.002-.079.003h-.2c-.165-.001-.35-.006-.556-.01l-.086 3.999c.326.007.882.024 1.235-.004.079-.006.294-.024.531-.093.088-.025.417-.121.743-.389a2.021 2.021 0 00.642-2.174c-.213-.667-.698-.995-.782-1.053a2.297 2.297 0 00-.39-.217 3.656 3.656 0 00-.446-.158l-1.118 3.84zm-.363-3.752a1.637 1.637 0 01.294.027l.015.003-.025-.006a4.185 4.185 0 01-.075-.02c-.109-.032-.34-.1-.565-.153a4.238 4.238 0 00-.937-.125c-.27 0-1.197.02-1.87.818l3.058 2.579c-.28.332-.607.48-.814.542-.198.06-.346.062-.394.061-.056 0-.08-.005-.062-.002.016.002.048.008.1.02.118.028.227.06.404.11.074.021.178.05.283.074a2.868 2.868 0 00.57.072l.018-4zm-1.214-.122a6.233 6.233 0 00-.215-.041l-.17-.03a7.396 7.396 0 01-.122-.022l-.027-.005-.986 3.877c.171.043.357.075.455.092.139.024.191.032.226.04l.839-3.911zm-.494-.087a4.597 4.597 0 00-1.22-.18l-.005 4c-.012 0-.006-.002.022.003.028.005.072.014.137.032l1.066-3.855zm-1.196-.18c-.62-.009-1.533-.029-2.182-.097-.402-.042-.428-.078-.287-.017.054.023.224.098.415.262.191.165.547.546.635 1.171a1.9 1.9 0 01-.36 1.407 1.63 1.63 0 01-.41.389l-2.173-3.358a2.378 2.378 0 00-.61.559 2.1 2.1 0 00-.409 1.56c.095.673.48 1.1.72 1.306.24.207.48.322.621.382.489.209 1.092.28 1.442.318.855.089 1.94.11 2.546.117l.052-4zm-3.413 3.43c.132.01.09.014-.02-.012a1.832 1.832 0 01-.535-.224c-.262-.162-1.053-.78-.92-1.913.096-.817.649-1.246.686-1.277.13-.109.244-.172.247-.174l.012-.007a3.09 3.09 0 00-.04.023c-.02.011-.151.084-.292.196l2.492 3.129a1.796 1.796 0 01-.221.15c-.006.004-.012.007 0 0a2.243 2.243 0 00.371-.25c.056-.047.62-.492.718-1.324.135-1.147-.665-1.78-.95-1.956a2.191 2.191 0 00-.652-.267 3.93 3.93 0 00-.62-.084l-.276 3.99zm.284.174l.314.015.2-3.995-.314-.015-.2 3.995zm1.98-3.227a1.975 1.975 0 01-1.169 3.164 1.41 1.41 0 01-.148.018c-.028.002-.012 0 .174.005.123.003.35.01.56 0 .107-.005.27-.016.45-.05.108-.021.549-.103.968-.434l-2.479-3.14c.375-.296.743-.352.759-.355.087-.017.136-.018.116-.017a4.77 4.77 0 01-.274-.002c-.096-.003-.344-.012-.553.003a2.585 2.585 0 00-.266.032 2.16 2.16 0 00-.542.17 2.028 2.028 0 00-1.089 1.266c-.268.919.183 1.604.362 1.83l3.13-2.49zm.265-.751c-.42-.15-.886-.2-1.174-.224a13.6 13.6 0 00-.995-.041l-.035 4c.247.002.493.01.696.028.101.008.174.017.22.025.057.01.027.009-.052-.02l1.34-3.768zm-2.787 3.643l.107.033 1.2-3.815-.107-.034-1.2 3.816zm.69-3.874c-.23.002-.546.002-.854-.013a6.173 6.173 0 01-.404-.031c-.121-.014-.172-.027-.17-.026l-1.035 3.864c.481.129 1.034.17 1.416.188.423.02.828.02 1.081.017l-.034-4zm-1.018 3.634c.174-.091.424-.252.65-.526a2.05 2.05 0 00.467-1.354 1.949 1.949 0 00-.009-.153c-.002-.027.004.031.006.091a1.949 1.949 0 01-.233 1.015 1.97 1.97 0 01-.908.854 1.878 1.878 0 01-.575.158c-.038.003-.056.003-.04.003l-.057-4a3.465 3.465 0 00-.255.012c-.084.008-.23.024-.4.07a2.033 2.033 0 00-1.528 2.062c.003.066.01.132.008.112a1.338 1.338 0 01-.008-.13 1.951 1.951 0 01.443-1.281c.212-.259.442-.403.584-.477l1.855 3.544zm-.52-3.906l-.66-.05-.301 3.988.659.05.302-3.988zm-1.217-.014a2.154 2.154 0 00-.536.176c-.05.023-.475.212-.796.675a2.006 2.006 0 00.184 2.513c.347.371.742.504.802.526.226.08.432.109.494.117l.554-3.96a1.745 1.745 0 01.305.08c.042.014.426.14.767.505a1.993 1.993 0 01.182 2.496c-.316.457-.733.64-.771.658a1.845 1.845 0 01-.346.125l-.026.005-.813-3.916zm.17.043c.01-.001.002.001-.03-.002a.858.858 0 01-.118-.02l-.924 3.891c.373.089.94.181 1.582.099l-.51-3.968zm.955.679a2.013 2.013 0 00-1.016-.681 2.16 2.16 0 00-.319-.067 2.87 2.87 0 00-.28-.023 7.343 7.343 0 00-.402 0c-.268.005-.613.02-.96.037-.731.035-1.456.078-1.836.092l.147 3.998c.403-.015 1.237-.063 1.883-.095a34.502 34.502 0 011.013-.035h.009-.017a1.826 1.826 0 01-.36-.067 1.987 1.987 0 01-.993-.67l3.131-2.489zm-4.828-.641h.014a.147.147 0 01.012.001l-.576 3.959c.243.035.483.047.728.036l-.177-3.996zm-.025-.005a14.592 14.592 0 00-.676-.06l-.251-.016a8.312 8.312 0 01-.062-.004l.023.002.064.008-.575 3.959a2.27 2.27 0 00.179.019l.102.007.246.017a10 10 0 01.474.04l.476-3.972zm-1.256 3.908c.564.02 1.72.01 2.628-.005a92.13 92.13 0 001.17-.025c.128-.004.265-.01.36-.016.02-.002.08-.006.15-.015a1.93 1.93 0 00.268-.054c.03-.008.279-.07.55-.242a2 2 0 00-.726-3.66c-.09-.015-.161-.021-.183-.023a2.763 2.763 0 00-.133-.008l-.152 3.997-.014-.001-.051-.004a1.996 1.996 0 01-1.622-2.844c.24-.508.619-.76.737-.834.27-.171.518-.233.546-.24.134-.038.243-.05.254-.052.034-.005.06-.007.07-.008l.024-.002-.05.002-.152.006c-.254.007-.656.016-1.11.024-.928.015-1.982.022-2.43.007l-.134 3.998zm4.002-4.05c-.425.001-1.838-.015-3.304-.02-.717-.003-1.434-.002-2.012.005a35.29 35.29 0 00-.768.017 5.416 5.416 0 00-.665.057l.68 3.942c-.083.014-.079.007.138-.002.167-.006.393-.011.666-.014a128.17 128.17 0 011.947-.005c1.388.005 2.903.021 3.33.02l-.012-4zm-6.177.043a1.19 1.19 0 01.18.045 1.78 1.78 0 01.43.2 1.958 1.958 0 01.825 1.052 1.983 1.983 0 01-.65 2.176 1.828 1.828 0 01-.171.12l-.024.014.006-.004a2.351 2.351 0 00.333-.23 2.087 2.087 0 00.449-.523 2.026 2.026 0 00-.946-2.91 2.313 2.313 0 00-.43-.142l-.93 3.89a1.783 1.783 0 01-.446-.187 1.913 1.913 0 01-.639-.611 1.977 1.977 0 01.2-2.417c.13-.14.25-.227.299-.262.057-.04.101-.066.11-.072l.008-.004-.007.004-.013.007c-.016.01-.07.04-.133.083a2.18 2.18 0 00-.33.272 2.046 2.046 0 00-.552 1.057 2.013 2.013 0 00.92 2.078 2.094 2.094 0 00.643.267c.154.038.3.058.405.07l.463-3.973zm-.32-.252c-.97-.069-2.704-.222-4.055-.126l.282 3.99c.992-.07 2.36.045 3.487.126l.285-3.99zm-3.663 3.853a2.56 2.56 0 00.389-.08c.087-.023.167-.049.219-.066.126-.04.17-.056.226-.07.109-.03.014.015-.168-.025l.868-3.905c-.74-.164-1.382-.03-1.745.068-.179.048-.352.107-.416.128-.132.043-.03.001.126-.018l.5 3.968zm1.507-.235c-.075.015-.131.022-.145.024a.916.916 0 01-.036.004l.009-.001.032-.002c.049-.004.155-.01.26-.02a3.27 3.27 0 00.488-.082 2.21 2.21 0 00.597-.248c.188-.114 1.071-.705.979-1.894l-3.988.31a1.978 1.978 0 01.939-1.838c.239-.145.445-.196.48-.205.11-.028.173-.03.118-.025a6.21 6.21 0 00-.264.02 2.338 2.338 0 00-.283.04l.814 3.917zm.63-4.015c-.62-.14-1.22-.114-1.51-.108-.374.008-.466-.002-.518-.015l-.956 3.884c.639.157 1.242.137 1.56.13.4-.008.488-.002.544.01l.88-3.901zm-4.504 1.72a2.017 2.017 0 00.208.997v-.001l-.005-.009-.02-.04a1.992 1.992 0 01-.163-.593 1.964 1.964 0 01-.01-.32l3.994.2a2.032 2.032 0 00-.181-.948l-.021-.045-.005-.01-.001-.002.01.023a2.017 2.017 0 01.16.494 1.984 1.984 0 01.03.453l-3.996-.2zm2.555-1.79c-.06-.017.006-.001.105.04.031.014.226.093.439.262.141.112.939.787.713 1.94a1.99 1.99 0 01-.92 1.318c-.155.093-.287.142-.294.145l-.015.005c.018-.006.061-.021.113-.042l-1.497-3.71.04-.015-.005.002c-.003 0-.008.003-.014.005l-.057.02c-.024.01-.171.065-.337.165-.038.023-.76.418-.94 1.339-.226 1.16.575 1.841.727 1.962.223.177.435.266.49.29.15.062.295.104.356.121l1.096-3.847zm.233-.002a2.9 2.9 0 00-.781-.223 6.36 6.36 0 00-.556-.055 18.785 18.785 0 00-1.153-.025c-.396.001-.81.01-1.178.017-.378.007-.697.014-.94.015l.013 4c.286-.001.648-.01 1.008-.016.37-.008.751-.015 1.11-.016.365-.001.672.004.897.017.114.008.177.015.2.018.068.01-.084-.002-.301-.102l1.68-3.63zm-4.996-.232c.282-.057.476-.019.333-.033a5.779 5.779 0 01-.306-.044c-.203-.032-.762-.132-1.07-.18-.325-.05-.857-.129-1.308-.103a2.618 2.618 0 00-.554.089c-.191.053-.637.2-1.02.619a2.072 2.072 0 00-.498 1.822c.1.482.344.81.462.954l3.1-2.529c.056.07.266.334.355.762a1.928 1.928 0 01-.465 1.689c-.35.383-.742.503-.862.536-.155.043-.267.05-.292.052-.038.002.082.002.466.062.4.062.607.105 1.047.176.17.027.362.056.541.074.094.01.47.054.86-.025l-.79-3.921zm-2.204-.13l-.626-.065-.415 3.979.626.065.415-3.978zm-.292 3.85c.136-.038.417-.123.7-.301.187-.118 1.182-.808.943-2.113a2.055 2.055 0 00-.533-1.045 2.164 2.164 0 00-.427-.346 2.669 2.669 0 00-.404-.203l-1.499 3.709a1.575 1.575 0 01-.209-.11 1.837 1.837 0 01-.36-.294 1.946 1.946 0 01-.502-.99c-.233-1.267.74-1.917.858-1.992a1.599 1.599 0 01.35-.166l1.083 3.851zm1.469-1.663c.075-.296.07-.262.04-.193a1.592 1.592 0 01-.152.275c-.075.11-.287.399-.69.607a1.95 1.95 0 01-1.638.073 1.877 1.877 0 01-.766-.578l3.153-2.46a2.123 2.123 0 00-.864-.662 2.05 2.05 0 00-1.726.076c-.43.224-.67.54-.771.687a2.412 2.412 0 00-.228.42c-.126.297-.217.696-.236.774l3.878.981zm.236-.325a3.408 3.408 0 00.179-1.638l-3.968.506a.351.351 0 010-.079.866.866 0 01.058-.23l3.731 1.44zM6.56 55.41c.251.304.29.603.297.696.005.08-.007.087.017-.043a5.85 5.85 0 01.043-.208c.016-.074.043-.19.064-.292.022-.107.049-.242.07-.386.019-.142.039-.33.035-.541l-4 .077c-.002-.112.017-.145-.02.028-.016.076-.089.392-.127.603-.045.243-.101.62-.073 1.035a2.75 2.75 0 00.61 1.577L6.56 55.41zm.271.24a1.83 1.83 0 01-.365.458 1.965 1.965 0 01-1.464.505 1.965 1.965 0 01-1.265-.585 1.862 1.862 0 01-.274-.358c-.02-.034-.047-.084-.02-.033.008.014.06.113.136.224.06.088.254.36.605.581a2.03 2.03 0 001.738.2l-1.3-3.782a1.973 1.973 0 011.688.194 1.924 1.924 0 01.637.654l.023.041-.057-.103a2.141 2.141 0 00-.314-.413 2.035 2.035 0 00-1.31-.61 2.035 2.035 0 00-1.518.529 2.171 2.171 0 00-.43.546l3.49 1.953zm.44-.817c.02-.501.128-1.062.236-2.03.046-.415.086-.885.083-1.338-.004-.414-.042-1.017-.283-1.594L3.615 51.41c-.06-.147-.027-.167-.025.088a7.87 7.87 0 01-.059.861c-.04.365-.09.718-.143 1.123-.048.373-.099.8-.114 1.188l3.996.163zm.187-4.08c.011-.196.023-.296.029-.333.011-.077-.001.084-.112.313-.107.22-.604 1.055-1.714 1.06a1.909 1.909 0 01-.892-.216 1.728 1.728 0 01-.282-.183l2.506-3.118a2.133 2.133 0 00-1.348-.483c-1.165.004-1.715.876-1.87 1.197a2.898 2.898 0 00-.243.827 7.632 7.632 0 00-.068.712l3.994.223zm.277-.774l.053-.738-3.99-.288-.053.738 3.99.288zm-3.94-.973c-.107 2.36-.284 4.84-.468 7.313l3.99.296c.183-2.472.364-5.004.474-7.427l-3.995-.182zm3.498 7.796c.921-5.413 1.274-11.43.882-16.072l-3.986.337c.358 4.236.038 9.907-.839 15.064l3.943.671zm.883-16.06a.533.533 0 01-.002-.087c0-.004 0 .01-.008.032L4.382 39.39a4.1 4.1 0 00-.194 1.666l3.988-.313zm-.004-.075c.308-.929.53-2.4.663-3.503.07-.582.123-1.13.151-1.547.014-.204.025-.405.026-.574 0-.075 0-.199-.013-.332a2.048 2.048 0 00-.248-.82 2.01 2.01 0 00-.948-.868l-1.618 3.658a1.99 1.99 0 01-1.112-1.288c-.042-.155-.053-.275-.056-.3-.007-.074-.005-.112-.005-.08 0 .05-.004.157-.016.33a28.95 28.95 0 01-.132 1.344c-.135 1.122-.323 2.222-.489 2.723l3.797 1.257zm.815-5.983c-1.097-13.07 8.604-22.33 20.48-26.26l-1.256-3.798C15.426 8.857 3.685 19.347 5.001 35.02l3.986-.335zM29.3 8.472a1.731 1.731 0 01-.419.045 1.914 1.914 0 01-.996-.297c-.981-.62-.908-1.645-.893-1.792l3.98.402c.025-.254.078-1.343-.953-1.993a2.086 2.086 0 00-1.089-.32 2.27 2.27 0 00-.549.062l.919 3.893zm-2.19-1.138c.39 1.033.96 2.256 1.301 3.09l3.702-1.516c-.5-1.22-.863-1.931-1.26-2.984l-3.743 1.41zm5.003 1.575c-.273-.667-.544-1.334-.813-2l-3.71 1.499c.272.672.545 1.344.82 2.016l3.702-1.515zm-4.43-.304c1.292 2.403 2.454 4.545 3.538 6.64l3.552-1.84c-1.102-2.13-2.285-4.31-3.565-6.693l-3.524 1.893zm7.255 5.237c-.022-.088-.085-.616-.419-1.623l-3.797 1.257c.298.902.148.583.334 1.331l3.882-.965zm-4.22-.38c.24.749.599 1.398.912 1.922.36.603.582.922.83 1.376l3.508-1.923c-.283-.516-.687-1.142-.905-1.506-.264-.443-.438-.784-.539-1.098l-3.807 1.229zm2.545.578c-.151.081-.46.243-.703.407l2.237 3.316.025-.015.08-.046c.074-.042.152-.084.265-.144l-1.904-3.518zm1.74.568c-.66-.585-1.416-.586-1.799-.536a3.058 3.058 0 00-.816.236c-.139.06-.329.155-.355.167-.104.05-.018 0 .137-.038l.938 3.888c.171-.04.313-.095.404-.132.096-.039.181-.078.241-.107.161-.076.171-.084.228-.109l-.034.012c-.03.01-.11.034-.225.05a1.75 1.75 0 01-1.369-.436l2.65-2.996zm-2.028 3.745l.333-.057-.67-3.943-.334.056.67 3.944zm-.847-3.841c-3.993 1.862-8.75 4.359-11.518 8.643l3.36 2.17c2.078-3.217 5.83-5.314 9.849-7.188l-1.691-3.625zm-9.738 7.73a2.036 2.036 0 00-1.414.476c-.134.11-.234.219-.285.276a5.388 5.388 0 00-.294.366c-.16.213-.346.483-.469.657a6.139 6.139 0 01-.15.21c-.016.023-.017.022-.005.009.006-.007.023-.029.05-.058a1.816 1.816 0 01.455-.357 1.996 1.996 0 012.963 1.504c.044.384-.04.682-.045.703a1.694 1.694 0 01-.052.168c-.02.056-.021.046.055-.108l-3.586-1.772c-.071.145-.16.329-.222.496a2.338 2.338 0 00-.073.235c-.01.039-.096.35-.05.741a2.007 2.007 0 003.27 1.315c.178-.145.303-.3.322-.324a3.66 3.66 0 00.127-.164 13.6 13.6 0 00.215-.3c.152-.216.287-.411.401-.564.06-.08.08-.101.068-.089a1.858 1.858 0 01-.464.35c-.12.065-.495.252-1.017.225l.2-3.995zm-2.791 2.104c-.787 1.66-1.423 3.512-1.776 5.39l3.93.74c.283-1.504.803-3.03 1.46-4.418l-3.614-1.712zM17.82 29.74c-.46 2.467 1.226 5.118 4.018 5.212l.136-3.997c-.036-.002-.085-.012-.144-.092a.504.504 0 01-.078-.39l-3.932-.733zm3.986 5.21v.001h.022v.001h.001l.2-3.995h-.018v-.001h-.002l-.2 3.995zm.037.003c3.754.16 7.574.31 11.37.387l.081-4c-3.749-.075-7.53-.224-11.281-.384l-.17 3.997zm10.994.343c-.588-.125-.749-.62-.737-.577.03.11.062.404.032.98-.03.58-.092 1.082-.147 1.773-.044.549-.097 1.351.05 2.044l3.913-.827c.003.014-.01-.05-.01-.236 0-.175.013-.392.034-.664.038-.472.122-1.253.155-1.884.033-.637.042-1.484-.173-2.258-.233-.84-.863-1.96-2.283-2.263l-.834 3.912zm3.013 4.545l.068-.171-3.717-1.478-.069.172 3.718 1.477zm-3.79-.936c-.079 5.93.202 12.715.308 18.729l4-.07c-.11-6.16-.386-12.754-.309-18.607l-4-.052zm.31 18.594v.029h-.001v.011l3.995.2v-.028h.001V57.7l-3.995-.2zm.003.307l.136 1.617 3.986-.335-.136-1.618-3.986.336zm.135 1.597c.008.111.014.263.021.454.007.168.014.386.026.559.006.078.016.21.038.346.009.054.034.206.096.383a2.01 2.01 0 001.515 1.322 2.008 2.008 0 002.182-1.066c.102-.2.15-.38.166-.436.041-.152.07-.31.088-.428l-3.949-.636c-.014.09-.016.076 0 .016.004-.01.04-.157.133-.336a1.992 1.992 0 013.642.248c.054.155.073.275.075.29.01.057.009.077.005.022-.007-.096-.012-.236-.02-.436a17.6 17.6 0 00-.03-.597l-3.988.295zm4.119 1.207c.185-.93.225-1.458.253-1.927.022-.384.032-.648.14-1.206l-3.93-.751c-.157.825-.179 1.302-.203 1.723-.02.336-.042.674-.183 1.379l3.923.782zm-2.593-5.228l-.061.036 2.04 3.44.062-.036-2.04-3.44zm2.952 1.922c.608-7.28 1.291-14.707 1.544-22.172l-3.997-.136c-.25 7.341-.921 14.644-1.533 21.976l3.986.332zm-.554-20.242h.005l.2-3.995h-.005l-.2 3.995z" fill="#fff" mask="url(#path-1-outside-1_1448_1873)"/><mask id="path-3-outside-2_1448_1873" maskUnits="userSpaceOnUse" x="39.9" y="-.106" width="40.002" height="62.772" fill="#000"><path fill="#fff" d="M39.9-.106h40.002v62.772H39.9z"/><path d="M60.854 28.337l.167-.365a8.36 8.36 0 01.503-.932c.375-.61.825-1.187 1.346-1.75.263-.28.527-.562.813-.837l.43-.414.417-.375a17.25 17.25 0 011.818-1.342c1.275-.819 2.603-1.505 3.831-2.084a69.367 69.367 0 013.324-1.43c.736-.354 1.477-.571 1.914-1.008.46-.407.702-.865.838-1.21.348-.916.22-1.896-.272-2.747l-.36-.64-.236-.392-.471-.77c-.319-.515-.637-1.034-.961-1.555a61.92 61.92 0 01-1.945-3.358c-.266-.505-.485-.986-.694-1.433-.178-.342-.508-1.118-.895-1.556-.11-.05-.539-.502-1.128-.713a2.966 2.966 0 00-1.22-.27c-.422-.005-.825.1-1.23.238-.464.164-.918.322-1.365.481-.393.15-.774.3-1.15.446-.739.303-1.414.637-1.99.999-.276.167-.723.332-1.23.499-.502.184-1.08.353-1.624.547-1.086.37-2.038.764-2.1.92-.2.584-.217.668-.515.823-.293.155-.88.37-2.085 1.345-.302.228-.994 1.24-1.54 1.734a13.93 13.93 0 00-2.026 2.044l-1.916 2.463c-1.243 1.727-1.938 2.808-2.567 3.863-.61 1.062-1.144 2.122-1.55 3.942-.058.218-.483 1.714-.752 3.166-.286 1.452-.428 2.86-.428 2.86-.393 2.172-.447 3.963-.524 5.613-.064 1.638-.175 3.155-.526 4.83.266 3.931-.538 9.088-.665 13.282-.03.706-.067 1.35.172 1.9.234.549.652.977 1.125 1.244.485.274.997.356 1.529.405.59.052.903.096 1.274.143l4.773.68c1.087.106 1.906.113 2.54.24.635.129 2.188-.071 3.28.035l-.281.184c.366.035 1.086.105 1.453.135.366.035.268.098.176.156-.19.12-.374.241.254.375 1.516.189 3.063.351 4.652.493 1.58-.017 3.136-.053 4.67-.1a.921.921 0 01.42-.234c.46-.028.917-.05 1.37-.079.282-.184.198-.398.388-.524.028-.553 1.961-1 1.53-1.531-.175-.156-2.807-.339-3.978-.658-.269-.093.374-.242.656-.425-1.545-.078-1.623-.297-.981-.44l-.727-.07c.093-.064.375-.242.375-.242-3.895-.439-8.24-1.131-12.065-1.08-.819-.006-2.188.072-3.104.123-.458.028-1.447-.14-1.813-.176-.649.149-.565.368-.847.547a146.94 146.94 0 00-2.573-.288l-.732-.07c-.094-.016-.13-.03-.194-.038a.47.47 0 01-.284-.145c-.152-.154-.113-.34-.178-.473-.038-.54-.139-.895-.325-.854.144-2.166-.178-2.613-.1-4.873.09-2.99.238-6.782.395-10.516.05-2.058.157-3.971.414-5.9.077-.721.207-1.41.317-2.068.55-3.03 1.483-5.796 2.816-8.243a22.632 22.632 0 012.278-3.418c.847-1.034 1.813-2.084 2.752-3.061 1.897-1.971 3.925-3.71 6.218-5.18a39.646 39.646 0 013.61-2.039c.637-.296 1.27-.621 1.937-.894.334-.141.656-.295.995-.431.278-.11.557-.227.836-.337.25-.124.55-.21.843-.128.293.071.532.287.655.548.468.844.948 1.7 1.438 2.58 1.094 1.979 2.193 3.976 3.297 5.973.148.256.318.53.297.835a1.14 1.14 0 01-.36.809c-.225.215-.55.3-.842.445l-1.16.513c-1.627.74-3.221 1.532-4.75 2.446-1.524.914-3 1.944-4.239 3.219-1.213 1.224-2.367 2.598-3.088 4.198-.094.2-.168.388-.256.61-.084.24-.178.473-.25.718a5.54 5.54 0 00-.185.727 1.88 1.88 0 00-.036.728c.093.984.965 1.832 1.966 1.978.488.087 1.064.093 1.537.128.414.02.822.052 1.236.079.817.052 1.633.104 2.437.161 1.61.109 3.188.222 4.732.328.384.024.768.055 1.147.08.272.024.538.043.804.068.136.007.27.053.386.116-.766 10.678-1.73 20.797-1.798 23.114-.028-.018.03.019.032.07.01.057-.005.107-.055.161.06.1.296.123.427-.114a.942.942 0 00.04-.1c.013-.136.032-.265.045-.406.025-.276.057-.557.084-.85.053-.586.114-1.206.175-1.848a2.09 2.09 0 01.016-.192c-.11 1.347-.183 2.346-.198 2.877-.028-.018.03.013.033.064.01.046-.005.096-.055.139.062.082.298.111.427-.098l.04-.083c0-.028.002-.056.004-.084.011.012.022.03.027.046.01.046-.005.096-.054.14.055.076.262.097.395-.066a.187.187 0 01-.052.077c.06.093.297.117.427-.11.013-.027.027-.054.04-.093.013-.124.03-.254.043-.383.025-.26.056-.53.082-.811.052-.558.111-1.144.171-1.758.224-2.457.451-5.338.665-8.294.207-2.956.424-5.99.621-8.755.06-.852.12-1.67.183-2.453-.144.02-.293.036-.436.057l-.008.158c-.094-.729-.76-1.294-1.458-1.346-.731-.1-1.415-.19-2.04-.272-1.846-.11-3.716-.226-5.615-.338l-3.112-.19-.705-.035c-.236-.017-.473-.035-.688-.119a1.547 1.547 0 01-.926-.946 1.46 1.46 0 01-.056-.66c.04-.219.11-.43.174-.642.128-.413.297-.84.504-1.283.405-.874.956-1.678 1.587-2.422 2.474-3.086 6.113-4.999 9.847-6.567.31-.126.661-.273 1.043-.43.218-.09.442-.18.672-.277.243-.107.508-.19.752-.325.489-.27.875-.76 1.01-1.33.068-.286.078-.59.015-.883-.062-.291-.197-.57-.337-.854a576.41 576.41 0 01-1.66-3.372c-.5-1.033-.945-1.961-1.26-2.662l3.028 6.005c.162.336.323.662.365 1.02.053.354.005.72-.118 1.059-.13.333-.347.639-.626.88-.274.247-.625.387-.97.529l-1.795.76c-.558.237-1.104.487-1.652.749-2.17 1.035-4.282 2.214-6.05 3.739a19.401 19.401 0 00-2.394 2.54c-.35.453-.67.93-.938 1.426-.131.248-.257.502-.376.757l-.162.382-.124.34c-.134.44-.348.904-.199 1.37.132.454.54.831 1.022.929.241.046.49.042.739.06l.823.04 1.852.11c-.33-.033-.656-.06-.98-.094l2.856.188c.279.009.576.012.884.022-.012 0-.03-.007-.036-.008-.292-.082-.922-.182-1.813-.294-.448-.05-.955-.116-1.516-.183-.543-.062-1.133-.125-1.765-.196-.4-.071-.864-.044-1.168-.376a1.009 1.009 0 01-.268-.568c-.03-.217.051-.428.132-.627l.122-.3-.009-.057z"/></mask><path d="M60.854 28.337l.167-.365a8.36 8.36 0 01.503-.932c.375-.61.825-1.187 1.346-1.75.263-.28.527-.562.813-.837l.43-.414.417-.375a17.25 17.25 0 011.818-1.342c1.275-.819 2.603-1.505 3.831-2.084a69.367 69.367 0 013.324-1.43c.736-.354 1.477-.571 1.914-1.008.46-.407.702-.865.838-1.21.348-.916.22-1.896-.272-2.747l-.36-.64-.236-.392-.471-.77c-.319-.515-.637-1.034-.961-1.555a61.92 61.92 0 01-1.945-3.358c-.266-.505-.485-.986-.694-1.433-.178-.342-.508-1.118-.895-1.556-.11-.05-.539-.502-1.128-.713a2.966 2.966 0 00-1.22-.27c-.422-.005-.825.1-1.23.238-.464.164-.918.322-1.365.481-.393.15-.774.3-1.15.446-.739.303-1.414.637-1.99.999-.276.167-.723.332-1.23.499-.502.184-1.08.353-1.624.547-1.086.37-2.038.764-2.1.92-.2.584-.217.668-.515.823-.293.155-.88.37-2.085 1.345-.302.228-.994 1.24-1.54 1.734a13.93 13.93 0 00-2.026 2.044l-1.916 2.463c-1.243 1.727-1.938 2.808-2.567 3.863-.61 1.062-1.144 2.122-1.55 3.942-.058.218-.483 1.714-.752 3.166-.286 1.452-.428 2.86-.428 2.86-.393 2.172-.447 3.963-.524 5.613-.064 1.638-.175 3.155-.526 4.83.266 3.931-.538 9.088-.665 13.282-.03.706-.067 1.35.172 1.9.234.549.652.977 1.125 1.244.485.274.997.356 1.529.405.59.052.903.096 1.274.143l4.773.68c1.087.106 1.906.113 2.54.24.635.129 2.188-.071 3.28.035l-.281.184c.366.035 1.086.105 1.453.135.366.035.268.098.176.156-.19.12-.374.241.254.375 1.516.189 3.063.351 4.652.493 1.58-.017 3.136-.053 4.67-.1a.921.921 0 01.42-.234c.46-.028.917-.05 1.37-.079.282-.184.198-.398.388-.524.028-.553 1.961-1 1.53-1.531-.175-.156-2.807-.339-3.978-.658-.269-.093.374-.242.656-.425-1.545-.078-1.623-.297-.981-.44l-.727-.07c.093-.064.375-.242.375-.242-3.895-.439-8.24-1.131-12.065-1.08-.819-.006-2.188.072-3.104.123-.458.028-1.447-.14-1.813-.176-.649.149-.565.368-.847.547a146.94 146.94 0 00-2.573-.288l-.732-.07c-.094-.016-.13-.03-.194-.038a.47.47 0 01-.284-.145c-.152-.154-.113-.34-.178-.473-.038-.54-.139-.895-.325-.854.144-2.166-.178-2.613-.1-4.873.09-2.99.238-6.782.395-10.516.05-2.058.157-3.971.414-5.9.077-.721.207-1.41.317-2.068.55-3.03 1.483-5.796 2.816-8.243a22.632 22.632 0 012.278-3.418c.847-1.034 1.813-2.084 2.752-3.061 1.897-1.971 3.925-3.71 6.218-5.18a39.646 39.646 0 013.61-2.039c.637-.296 1.27-.621 1.937-.894.334-.141.656-.295.995-.431.278-.11.557-.227.836-.337.25-.124.55-.21.843-.128.293.071.532.287.655.548.468.844.948 1.7 1.438 2.58 1.094 1.979 2.193 3.976 3.297 5.973.148.256.318.53.297.835a1.14 1.14 0 01-.36.809c-.225.215-.55.3-.842.445l-1.16.513c-1.627.74-3.221 1.532-4.75 2.446-1.524.914-3 1.944-4.239 3.219-1.213 1.224-2.367 2.598-3.088 4.198-.094.2-.168.388-.256.61-.084.24-.178.473-.25.718a5.54 5.54 0 00-.185.727 1.88 1.88 0 00-.036.728c.093.984.965 1.832 1.966 1.978.488.087 1.064.093 1.537.128.414.02.822.052 1.236.079.817.052 1.633.104 2.437.161 1.61.109 3.188.222 4.732.328.384.024.768.055 1.147.08.272.024.538.043.804.068.136.007.27.053.386.116-.766 10.678-1.73 20.797-1.798 23.114-.028-.018.03.019.032.07.01.057-.005.107-.055.161.06.1.296.123.427-.114a.942.942 0 00.04-.1c.013-.136.032-.265.045-.406.025-.276.057-.557.084-.85.053-.586.114-1.206.175-1.848a2.09 2.09 0 01.016-.192c-.11 1.347-.183 2.346-.198 2.877-.028-.018.03.013.033.064.01.046-.005.096-.055.139.062.082.298.111.427-.098l.04-.083c0-.028.002-.056.004-.084.011.012.022.03.027.046.01.046-.005.096-.054.14.055.076.262.097.395-.066a.187.187 0 01-.052.077c.06.093.297.117.427-.11.013-.027.027-.054.04-.093.013-.124.03-.254.043-.383.025-.26.056-.53.082-.811.052-.558.111-1.144.171-1.758.224-2.457.451-5.338.665-8.294.207-2.956.424-5.99.621-8.755.06-.852.12-1.67.183-2.453-.144.02-.293.036-.436.057l-.008.158c-.094-.729-.76-1.294-1.458-1.346-.731-.1-1.415-.19-2.04-.272-1.846-.11-3.716-.226-5.615-.338l-3.112-.19-.705-.035c-.236-.017-.473-.035-.688-.119a1.547 1.547 0 01-.926-.946 1.46 1.46 0 01-.056-.66c.04-.219.11-.43.174-.642.128-.413.297-.84.504-1.283.405-.874.956-1.678 1.587-2.422 2.474-3.086 6.113-4.999 9.847-6.567.31-.126.661-.273 1.043-.43.218-.09.442-.18.672-.277.243-.107.508-.19.752-.325.489-.27.875-.76 1.01-1.33.068-.286.078-.59.015-.883-.062-.291-.197-.57-.337-.854a576.41 576.41 0 01-1.66-3.372c-.5-1.033-.945-1.961-1.26-2.662l3.028 6.005c.162.336.323.662.365 1.02.053.354.005.72-.118 1.059-.13.333-.347.639-.626.88-.274.247-.625.387-.97.529l-1.795.76c-.558.237-1.104.487-1.652.749-2.17 1.035-4.282 2.214-6.05 3.739a19.401 19.401 0 00-2.394 2.54c-.35.453-.67.93-.938 1.426-.131.248-.257.502-.376.757l-.162.382-.124.34c-.134.44-.348.904-.199 1.37.132.454.54.831 1.022.929.241.046.49.042.739.06l.823.04 1.852.11c-.33-.033-.656-.06-.98-.094l2.856.188c.279.009.576.012.884.022-.012 0-.03-.007-.036-.008-.292-.082-.922-.182-1.813-.294-.448-.05-.955-.116-1.516-.183-.543-.062-1.133-.125-1.765-.196-.4-.071-.864-.044-1.168-.376a1.009 1.009 0 01-.268-.568c-.03-.217.051-.428.132-.627l.122-.3-.009-.057z" fill="#fff"/><path d="M60.854 28.337l.167-.365a8.36 8.36 0 01.503-.932c.375-.61.825-1.187 1.346-1.75.263-.28.527-.562.813-.837l.43-.414.417-.375a17.25 17.25 0 011.818-1.342c1.275-.819 2.603-1.505 3.831-2.084a69.367 69.367 0 013.324-1.43c.736-.354 1.477-.571 1.914-1.008.46-.407.702-.865.838-1.21.348-.916.22-1.896-.272-2.747l-.36-.64-.236-.392-.471-.77c-.319-.515-.637-1.034-.961-1.555a61.92 61.92 0 01-1.945-3.358c-.266-.505-.485-.986-.694-1.433-.178-.342-.508-1.118-.895-1.556-.11-.05-.539-.502-1.128-.713a2.966 2.966 0 00-1.22-.27c-.422-.005-.825.1-1.23.238-.464.164-.918.322-1.365.481-.393.15-.774.3-1.15.446-.739.303-1.414.637-1.99.999-.276.167-.723.332-1.23.499-.502.184-1.08.353-1.624.547-1.086.37-2.038.764-2.1.92-.2.584-.217.668-.515.823-.293.155-.88.37-2.085 1.345-.302.228-.994 1.24-1.54 1.734a13.93 13.93 0 00-2.026 2.044l-1.916 2.463c-1.243 1.727-1.938 2.808-2.567 3.863-.61 1.062-1.144 2.122-1.55 3.942-.058.218-.483 1.714-.752 3.166-.286 1.452-.428 2.86-.428 2.86-.393 2.172-.447 3.963-.524 5.613-.064 1.638-.175 3.155-.526 4.83.266 3.931-.538 9.088-.665 13.282-.03.706-.067 1.35.172 1.9.234.549.652.977 1.125 1.244.485.274.997.356 1.529.405.59.052.903.096 1.274.143l4.773.68c1.087.106 1.906.113 2.54.24.635.129 2.188-.071 3.28.035l-.281.184c.366.035 1.086.105 1.453.135.366.035.268.098.176.156-.19.12-.374.241.254.375 1.516.189 3.063.351 4.652.493 1.58-.017 3.136-.053 4.67-.1a.921.921 0 01.42-.234c.46-.028.917-.05 1.37-.079.282-.184.198-.398.388-.524.028-.553 1.961-1 1.53-1.531-.175-.156-2.807-.339-3.978-.658-.269-.093.374-.242.656-.425-1.545-.078-1.623-.297-.981-.44l-.727-.07c.093-.064.375-.242.375-.242-3.895-.439-8.24-1.131-12.065-1.08-.819-.006-2.188.072-3.104.123-.458.028-1.447-.14-1.813-.176-.649.149-.565.368-.847.547a146.94 146.94 0 00-2.573-.288l-.732-.07c-.094-.016-.13-.03-.194-.038a.47.47 0 01-.284-.145c-.152-.154-.113-.34-.178-.473-.038-.54-.139-.895-.325-.854.144-2.166-.178-2.613-.1-4.873.09-2.99.238-6.782.395-10.516.05-2.058.157-3.971.414-5.9.077-.721.207-1.41.317-2.068.55-3.03 1.483-5.796 2.816-8.243a22.632 22.632 0 012.278-3.418c.847-1.034 1.813-2.084 2.752-3.061 1.897-1.971 3.925-3.71 6.218-5.18a39.646 39.646 0 013.61-2.039c.637-.296 1.27-.621 1.937-.894.334-.141.656-.295.995-.431.278-.11.557-.227.836-.337.25-.124.55-.21.843-.128.293.071.532.287.655.548.468.844.948 1.7 1.438 2.58 1.094 1.979 2.193 3.976 3.297 5.973.148.256.318.53.297.835a1.14 1.14 0 01-.36.809c-.225.215-.55.3-.842.445l-1.16.513c-1.627.74-3.221 1.532-4.75 2.446-1.524.914-3 1.944-4.239 3.219-1.213 1.224-2.367 2.598-3.088 4.198-.094.2-.168.388-.256.61-.084.24-.178.473-.25.718a5.54 5.54 0 00-.185.727 1.88 1.88 0 00-.036.728c.093.984.965 1.832 1.966 1.978.488.087 1.064.093 1.537.128.414.02.822.052 1.236.079.817.052 1.633.104 2.437.161 1.61.109 3.188.222 4.732.328.384.024.768.055 1.147.08.272.024.538.043.804.068.136.007.27.053.386.116-.766 10.678-1.73 20.797-1.798 23.114-.028-.018.03.019.032.07.01.057-.005.107-.055.161.06.1.296.123.427-.114a.942.942 0 00.04-.1c.013-.136.032-.265.045-.406.025-.276.057-.557.084-.85.053-.586.114-1.206.175-1.848a2.09 2.09 0 01.016-.192c-.11 1.347-.183 2.346-.198 2.877-.028-.018.03.013.033.064.01.046-.005.096-.055.139.062.082.298.111.427-.098l.04-.083c0-.028.002-.056.004-.084.011.012.022.03.027.046.01.046-.005.096-.054.14.055.076.262.097.395-.066a.187.187 0 01-.052.077c.06.093.297.117.427-.11.013-.027.027-.054.04-.093.013-.124.03-.254.043-.383.025-.26.056-.53.082-.811.052-.558.111-1.144.171-1.758.224-2.457.451-5.338.665-8.294.207-2.956.424-5.99.621-8.755.06-.852.12-1.67.183-2.453-.144.02-.293.036-.436.057l-.008.158c-.094-.729-.76-1.294-1.458-1.346-.731-.1-1.415-.19-2.04-.272-1.846-.11-3.716-.226-5.615-.338l-3.112-.19-.705-.035c-.236-.017-.473-.035-.688-.119a1.547 1.547 0 01-.926-.946 1.46 1.46 0 01-.056-.66c.04-.219.11-.43.174-.642.128-.413.297-.84.504-1.283.405-.874.956-1.678 1.587-2.422 2.474-3.086 6.113-4.999 9.847-6.567.31-.126.661-.273 1.043-.43.218-.09.442-.18.672-.277.243-.107.508-.19.752-.325.489-.27.875-.76 1.01-1.33.068-.286.078-.59.015-.883-.062-.291-.197-.57-.337-.854a576.41 576.41 0 01-1.66-3.372c-.5-1.033-.945-1.961-1.26-2.662l3.028 6.005c.162.336.323.662.365 1.02.053.354.005.72-.118 1.059-.13.333-.347.639-.626.88-.274.247-.625.387-.97.529l-1.795.76c-.558.237-1.104.487-1.652.749-2.17 1.035-4.282 2.214-6.05 3.739a19.401 19.401 0 00-2.394 2.54c-.35.453-.67.93-.938 1.426-.131.248-.257.502-.376.757l-.162.382-.124.34c-.134.44-.348.904-.199 1.37.132.454.54.831 1.022.929.241.046.49.042.739.06l.823.04 1.852.11c-.33-.033-.656-.06-.98-.094l2.856.188c.279.009.576.012.884.022-.012 0-.03-.007-.036-.008-.292-.082-.922-.182-1.813-.294-.448-.05-.955-.116-1.516-.183-.543-.062-1.133-.125-1.765-.196-.4-.071-.864-.044-1.168-.376a1.009 1.009 0 01-.268-.568c-.03-.217.051-.428.132-.627l.122-.3-.009-.057z" stroke="#fff" stroke-width="4" stroke-linejoin="bevel" mask="url(#path-3-outside-2_1448_1873)"/></svg>