<svg width="100" height="100" fill="none" xmlns="http://www.w3.org/2000/svg"><g id="Icons-18" clip-path="url(#clip0_1448_1898)"><g id="Group"><path id="Vector" d="M49.86 0C22.045 0 .26 21.785.26 49.582.261 77.862 22.046 100 49.86 100c28.264 0 50.402-22.154 50.402-50.418C100.261 21.785 78.123 0 49.859 0zm24.87 49.582c0 14.196-10.69 24.887-24.87 24.887-13.715 0-24.068-10.69-24.068-24.887 0-13.473 10.563-24.035 24.067-24.035 13.955 0 24.872 10.562 24.872 24.035z" fill="#000"/><path id="Vector_2" d="M50.149 34.968c-8.36 0-14.904 6.543-14.904 14.903 0 8.505 6.544 15.161 14.904 15.161 8.505 0 15.16-6.656 15.16-15.16-.016-8.345-6.672-14.904-15.16-14.904zm7.475 14.92c0 4.26-3.215 7.475-7.475 7.475-4.132 0-7.235-3.215-7.235-7.476 0-4.051 3.183-7.234 7.235-7.234 4.196 0 7.475 3.167 7.475 7.234z" fill="#FA198C"/></g></g><defs><clipPath id="clip0_1448_1898"><path fill="#fff" d="M0 0h100v100H0z"/></clipPath></defs></svg>