<svg width="18" height="18" fill="none" xmlns="http://www.w3.org/2000/svg"><path fill-rule="evenodd" clip-rule="evenodd" d="M2.701.408C2.943.149 3.267 0 3.634 0c.367 0 .7.14.957.397l3.24 3.24c.263.263.38.598.38.94 0 .348-.129.672-.38.923l-1.94 1.94 4.669 4.669 1.94-1.94c.251-.251.575-.38.923-.38.342 0 .677.117.94.38l3.24 3.24c.257.257.397.59.397.957s-.15.691-.408.933L14.91 18h-.321c-2.009 0-3.907-.38-5.687-1.142l-.004-.002a14.87 14.87 0 01-4.626-3.128 14.867 14.867 0 01-3.128-4.626l-.002-.004C.38 7.318 0 5.42 0 3.411v-.32L2.701.407zm.95 1.231l-2.105 2.09a12.683 12.683 0 001.014 4.76 13.326 13.326 0 002.803 4.148 13.325 13.325 0 004.149 2.803 12.68 12.68 0 004.759 1.014l2.09-2.105-2.93-2.93-2.871 2.872L3.709 7.44 6.58 4.569l-2.93-2.93z" fill="#fff"/></svg>