<svg width="9" height="18" fill="none" xmlns="http://www.w3.org/2000/svg"><g clip-path="url(#clip0_2_3677)"><path d="M2.514 18v-7.8H0V6.6h2.514V4.088c0-.688.093-1.288.28-1.8.2-.513.47-.938.81-1.275a3.306 3.306 0 011.248-.75A4.591 4.591 0 016.434 0c.539 0 1.025.019 1.459.056.433.025.714.05.843.075v2.85H7.154c-.62 0-1.03.144-1.23.432-.2.287-.299.662-.299 1.124V6.6H9l-1.125 3.6h-2.25V18H2.514z" fill="#fff"/></g><defs><clipPath id="clip0_2_3677"><path fill="#fff" d="M0 0h9v18H0z"/></clipPath></defs></svg>