<svg width="18" height="19" fill="none" xmlns="http://www.w3.org/2000/svg"><g clip-path="url(#clip0_2_3708)"><path d="M13.917 14.36c-.22 0-.38.004-.538 0-.43-.015-.69-.254-.693-.697-.01-1.946-.01-3.89 0-5.835 0-.471.267-.672.906-.736-.026-1.807-.732-3.268-2.173-4.29-1.716-1.216-3.553-1.308-5.394-.298-1.661.917-2.71 2.813-2.602 4.542.22.08.48.103.623.249.157.177.248.406.256.645.02 1.875.013 3.75.01 5.624 0 .549-.241.792-.772.796-.53.005-1.05.01-1.575-.005a1.98 1.98 0 01-1.388-.623 2.097 2.097 0 01-.57-1.444c-.007-.972 0-1.945 0-2.917 0-1.231.65-2.024 1.83-2.24.07-.012.138-.018.245-.034.065-2.28.975-4.126 2.807-5.443A5.989 5.989 0 018.861.514c1.686.11 3.128.792 4.292 2.057 1.163 1.264 1.727 2.78 1.755 4.527.713.066 1.341.297 1.702.93.208.357.333.76.364 1.175.051 1.017.02 2.038.017 3.057 0 .94-.562 1.74-1.43 2.005-.209.064-.286.175-.347.365a3.033 3.033 0 01-1.073 1.526 2.894 2.894 0 01-1.74.58 1.804 1.804 0 01-.206 0c-.572-.058-.978.01-1.3.674-.48.982-1.716 1.317-2.748.942-1.032-.375-1.658-1.39-1.565-2.565.08-1.028.936-1.947 1.986-2.127 1.023-.176 2.102.405 2.513 1.41.118.287.262.357.528.335.411-.033.825-.003 1.224-.081.487-.099.835-.432 1.084-.964zM2.98 13.01V8.457c-.343 0-.662-.02-.978.005-.41.033-.69.32-.695.728a127.344 127.344 0 000 3.125c.005.349.263.662.575.688.36.03.723.007 1.098.007zm11.025-4.544v4.556c.318 0 .616.006.908 0 .48-.011.766-.3.77-.79.007-.994.007-1.989 0-2.983-.004-.43-.24-.73-.643-.775-.332-.038-.674-.008-1.032-.008h-.003zm-6.13 7.594c.006.289.12.564.318.769.198.204.465.322.746.33a1.008 1.008 0 00.742-.296 1.064 1.064 0 00.318-.75 1.138 1.138 0 00-.301-.795 1.052 1.052 0 00-1.166-.262 1.079 1.079 0 00-.657 1.004z" fill="#fff"/></g><defs><clipPath id="clip0_2_3708"><path fill="#fff" d="M0 0h18v19H0z"/></clipPath></defs></svg>