<svg width="18" height="19" fill="none" xmlns="http://www.w3.org/2000/svg"><path fill-rule="evenodd" clip-rule="evenodd" d="M9 2.522C7.154 2.522 5.657 4 5.657 5.821c0 1.822 1.497 3.298 3.343 3.298 1.846 0 3.343-1.476 3.343-3.298S10.846 2.522 9 2.522zm3.001 7.103a4.79 4.79 0 001.885-3.804C13.886 3.158 11.698 1 9 1S4.114 3.158 4.114 5.82A4.79 4.79 0 006 9.626C2.504 10.845 0 14.134 0 18h1.543c0-4.064 3.339-7.358 7.457-7.358s7.457 3.294 7.457 7.358H18c0-3.866-2.504-7.155-5.999-8.375z" fill="#fff"/></svg>