<svg width="162" height="23" fill="none" xmlns="http://www.w3.org/2000/svg"><g clip-path="url(#clip0_197_162)" fill="#fff"><path d="M24.05 0h-.75v22.71h.75V0zM1.76 20.85c.07 0 .1-.02.1-.1v-.73c0-.08-.03-.1-.1-.1H.85v.92h.91v.01zm1.07 1.95h-.89l-.6-1.23h-.5v1.23h-.85v-3.59h2c.48 0 .71.23.71.71v.9c0 .4-.16.62-.49.69l.62 1.3v-.01zm.38-3.59h.86v1.38h1.15v-1.38h.85v3.59h-.85v-1.47H4.07v1.47h-.86v-3.59zm9.92 0h2.47v.74h-1.62v.65h1.29v.72h-1.29v.74h1.62v.74h-2.47v-3.59zm2.91 2.88v-.47h.84v.36c0 .07.03.1.1.1h.81c.07 0 .1-.03.1-.1v-.37c0-.08-.04-.11-.14-.13l-.95-.23c-.48-.12-.74-.25-.74-.74v-.59c0-.48.23-.71.71-.71h1.21c.48 0 .71.23.71.71v.43h-.84v-.32c0-.08-.03-.1-.1-.1h-.74c-.07 0-.1.02-.1.1v.33c0 .08.03.11.14.13l.95.23c.48.12.74.25.74.74v.63c0 .48-.23.71-.71.71h-1.28c-.48 0-.71-.23-.71-.71zm-5.03-.06h-.22v-2.07h.22c.8 0 .84.01.84 1.04 0 1.08-.04 1.03-.84 1.03zm.74-2.83H9.9v3.59h1.85c.8 0 .97-.71.97-1.79 0-1.03-.17-1.8-.97-1.8zm-3.56 2.81h-.4c-.31 0-.33-.16-.33-1.02s.02-1.01.33-1.01h.4c.31 0 .33.14.33 1.01s-.02 1.02-.33 1.02zm.35-2.81H7.43c-.85 0-.91.76-.91 1.79 0 1.08.05 1.8.91 1.8h1.11c.85 0 .91-.71.91-1.8 0-1.03-.05-1.79-.91-1.79zm5.59-9.27l-6.7 4.05 3.59 3.84h7.79V15l-4.68-5.07z"/><path d="M14.13 9.93l4.53-2.86V4.31L14.5 0H.01v16.15l1.54 1.67h5.88V2.76l6.7 7.17zm14.98-5.54h2.85v11.26h5.99v2.62h-8.84V4.39zm13.97 0h4.16l4.22 13.88h-3.13l-.85-3.01h-4.76l-.85 3.01h-3.01l4.22-13.88zm3.67 8.24L45.1 6.8l-1.65 5.83h3.3zm6.6-8.24h2.97l5.25 8.94V4.39h2.77v13.88h-2.77l-5.45-9.26v9.26h-2.77V4.39zm14.12 0h7.59c1.88 0 2.77.89 2.77 2.78v8.32c0 1.88-.89 2.78-2.77 2.78h-7.59V4.39zm7.12 11.26c.3 0 .4-.1.4-.4V7.4c0-.3-.1-.4-.4-.4h-4.26v8.64h4.26v.01zm5.62-.16v-1.74h2.78v1.55c0 .3.1.4.4.4h3.69c.3 0 .4-.1.4-.4v-1.66c0-.44-.16-.56-.67-.67l-3.69-.79c-1.74-.38-2.85-1.07-2.85-2.85V7.19c0-1.88.89-2.78 2.77-2.78h4.28c1.88 0 2.77.89 2.77 2.78v1.58h-2.77V7.38c0-.3-.1-.4-.4-.4h-3.41c-.3 0-.4.1-.4.4v1.51c0 .44.16.56.67.67l3.69.79c1.74.38 2.85 1.07 2.85 2.85v2.3c0 1.88-.89 2.78-2.77 2.78h-4.56c-1.88 0-2.78-.89-2.78-2.78v-.01zm12.49 0V7.16c0-1.88.89-2.78 2.77-2.78h4.6c1.88 0 2.77.89 2.77 2.78v2.26h-2.85V7.4c0-.3-.1-.4-.4-.4h-3.65c-.3 0-.4.1-.4.4v7.85c0 .3.1.4.4.4h3.65c.3 0 .4-.1.4-.4v-2.02h2.85v2.26c0 1.88-.89 2.78-2.77 2.78h-4.6c-1.88 0-2.77-.89-2.77-2.78zm15.65-11.1h4.16l4.22 13.88h-3.13l-.85-3.01h-4.76l-.85 3.01h-3.01l4.22-13.88zm3.67 8.24l-1.65-5.83-1.65 5.83h3.3zm6.59-8.24h7.33c1.88 0 2.77.89 2.77 2.78v3.69c0 1.88-.89 2.78-2.77 2.78h-4.48v4.64h-2.85V4.39zm6.86 6.62c.3 0 .4-.1.4-.4V7.4c0-.3-.1-.4-.4-.4h-4v4h4v.01zm5.55-6.62h2.85v13.88h-2.85V4.39zm5.98 0h2.97l5.25 8.94V4.39h2.77v13.88h-2.77l-5.45-9.26v9.26H137V4.39zm13.79 11.1V7.16c0-1.88.89-2.78 2.77-2.78h4.78c1.88 0 2.77.89 2.77 2.78v1.82h-2.85V7.39c0-.3-.1-.4-.4-.4h-3.83c-.3 0-.4.1-.4.4v7.85c0 .3.1.4.4.4h3.83c.3 0 .4-.1.4-.4V13.1h-2.62v-2.5h5.47v4.88c0 1.88-.89 2.78-2.77 2.78h-4.78c-1.88 0-2.77-.89-2.77-2.78v.01z"/></g><defs><clipPath id="clip0_197_162"><path fill="#fff" d="M0 0h161.12v22.8H0z"/></clipPath></defs></svg>