<svg width="15" height="18" fill="none" xmlns="http://www.w3.org/2000/svg"><path fill-rule="evenodd" clip-rule="evenodd" d="M7.5 1.317c-3.38 0-6.136 2.685-6.136 6.015 0 1.543.592 2.948 1.565 4.013L7.5 16.346l4.57-5.001a5.924 5.924 0 001.566-4.013c0-3.33-2.755-6.015-6.136-6.015zM0 7.332C0 3.29 3.35 0 7.5 0S15 3.29 15 7.332a7.21 7.21 0 01-1.907 4.884l-5.082 5.561A.693.693 0 017.5 18a.693.693 0 01-.511-.223l-5.082-5.56A7.215 7.215 0 010 7.331zm7.5-1.625c-.879 0-1.59.688-1.59 1.537S6.62 8.78 7.5 8.78c.879 0 1.59-.687 1.59-1.536S8.38 5.707 7.5 5.707zM4.545 7.244c0-1.576 1.323-2.854 2.955-2.854 1.632 0 2.954 1.278 2.954 2.854S9.133 10.098 7.5 10.098c-1.632 0-2.955-1.278-2.955-2.854z" fill="#fff"/></svg>