<svg width="18" height="15" fill="none" xmlns="http://www.w3.org/2000/svg"><g clip-path="url(#clip0_2_3698)"><path fill-rule="evenodd" clip-rule="evenodd" d="M0 2.661C0 1.191 1.266 0 2.829 0H15.17C16.734 0 18 1.192 18 2.661v9.678C18 13.809 16.734 15 15.171 15H2.83C1.266 15 0 13.809 0 12.339V2.66zm1.567-.232a1.146 1.146 0 00-.024.232v9.678c0 .668.575 1.21 1.286 1.21H15.17c.71 0 1.286-.542 1.286-1.21V2.66c0-.08-.008-.157-.024-.232L9.448 7.123a.811.811 0 01-.896 0L1.567 2.429zm1.202-.976L9 5.64l6.23-4.187-.059-.001H2.77z" fill="#fff"/></g><defs><clipPath id="clip0_2_3698"><path fill="#fff" d="M0 0h18v15H0z"/></clipPath></defs></svg>