<svg width="138" height="26" fill="none" xmlns="http://www.w3.org/2000/svg"><g clip-path="url(#clip0_197_183)" fill="#fff"><path d="M1.97 23.27c.08 0 .11-.02.11-.11v-.82c0-.09-.03-.11-.11-.11H.95v1.03h1.02v.01zm1.2 2.18h-.99l-.67-1.38H.95v1.38H0v-4.02h2.24c.53 0 .79.25.79.79v1c0 .45-.18.7-.55.77l.69 1.45v.01zm.43-4.02h.95v1.54h1.29v-1.54h.96v4.02h-.96v-1.64H4.55v1.64H3.6v-4.02zm11.1 0h2.77v.83h-1.82v.73h1.46v.81h-1.46v.82h1.82v.83H14.7v-4.02zm3.26 3.23v-.53h.94v.41c0 .08.03.11.11.11h.91c.08 0 .11-.03.11-.11v-.42c0-.09-.04-.12-.16-.15l-1.07-.26c-.53-.13-.83-.28-.83-.83v-.66c0-.54.26-.79.79-.79h1.36c.53 0 .79.25.79.79v.48h-.94v-.36c0-.09-.03-.11-.11-.11h-.83c-.08 0-.11.02-.11.11v.37c0 .09.03.12.16.15l1.07.26c.53.13.83.28.83.83v.71c0 .53-.26.79-.79.79h-1.43c-.53 0-.79-.26-.79-.79m-5.64-.07h-.25v-2.32h.25c.89 0 .94.01.94 1.16 0 1.21-.04 1.16-.94 1.16zm.83-3.17h-2.07v4.02h2.07c.9 0 1.09-.79 1.09-2.01 0-1.15-.19-2.01-1.09-2.01zm-3.99 3.15h-.45c-.35 0-.37-.18-.37-1.14s.02-1.13.37-1.13h.45c.35 0 .37.16.37 1.13 0 .97-.02 1.14-.37 1.14zm.39-3.15H8.32c-.96 0-1.02.85-1.02 2 0 1.21.06 2.01 1.02 2.01h1.24c.95 0 1.02-.8 1.02-2.01 0-1.15-.06-2-1.02-2zm6.21-10.34L8.29 15.6l4.01 4.29h8.69v-3.15l-5.22-5.66z"/><path d="M15.77 11.08l5.06-3.19V4.81L16.18 0H.01v18.03l1.72 1.86h6.56V3.08l7.48 8zM39.6 6.94c.29 0 .4-.08.4-.4V3.4c0-.31-.11-.4-.4-.4h-3.71v3.94h3.71zM32.41 0h8.18c1.95 0 2.89.92 2.89 2.89v4.15c0 1.97-.94 2.89-2.89 2.89h-4.7v4.74h-3.48V0zm20.61 6.73c.29 0 .4-.08.4-.4V3.35c0-.31-.1-.4-.4-.4h-3.71v3.77h3.71v.01zm4.4 7.95h-3.63l-2.45-5.05h-2.03v5.05h-3.48V0h8.18c1.95 0 2.89.92 2.89 2.89v3.67c0 1.66-.65 2.56-2.01 2.81l2.54 5.3-.01.01zm23.52-7.74c.29 0 .4-.08.4-.4V3.4c0-.31-.11-.4-.4-.4h-3.71v3.94h3.71zM73.75 0h8.18c1.95 0 2.89.92 2.89 2.89v4.15c0 1.97-.94 2.89-2.89 2.89h-4.7v4.74h-3.48V0zM87 0h10.11v3.02h-6.63v2.66h5.3v2.98h-5.3v3h6.63v3.02H87V0zm19.87 6.73c.29 0 .4-.08.4-.4V3.35c0-.31-.1-.4-.4-.4h-3.71v3.77h3.71v.01zm4.41 7.95h-3.63l-2.45-5.05h-2.03v5.05h-3.48V0h8.18c1.95 0 2.89.92 2.89 2.89v3.67c0 1.66-.65 2.56-2.01 2.81l2.54 5.3-.01.01zm4.9-11.64h-3.81V0h11.13v3.04h-3.84v11.64h-3.48V3.04zm12.87 6.86L124.32 0h3.77l2.73 6.37 2.7-6.37h3.73l-4.72 9.9v4.78h-3.48V9.9zm-96.64 7.62h1.28l2.45 5.42 2.47-5.42h1.28v7.92h-1.06v-6.16l-2.24 5.05h-.9l-2.24-5.05v6.16h-1.04v-7.92zm14.04 4.76l-1.23-3.71-1.25 3.71h2.48zm.32 1h-3.14l-.72 2.16h-1.13l2.75-7.92h1.4l2.75 7.92h-1.19l-.72-2.16zm3.81-5.76h1.18l3.76 6.17v-6.17h1.05v7.92h-1.09l-3.86-6.29v6.29h-1.04v-7.92zm12.55 4.76l-1.23-3.71-1.24 3.71h2.48-.01zm.33 1h-3.14l-.72 2.16h-1.13l2.75-7.92h1.4l2.75 7.92h-1.19l-.72-2.16zm3.45.58v-4.75c0-1.07.51-1.58 1.58-1.58h2.52c1.08 0 1.59.51 1.59 1.58v.85h-1.09v-.81c0-.45-.17-.62-.61-.62h-2.3c-.44 0-.61.17-.61.62v4.69c0 .45.17.62.61.62h2.3c.44 0 .61-.17.61-.62v-1.61h-1.88v-.97h2.97v2.61c0 1.08-.51 1.58-1.59 1.58h-2.52c-1.08 0-1.58-.51-1.58-1.58m8.11-6.35h5.13v.99h-4.04v2.38h3.36v1h-3.36v2.55h4.04v1h-5.13v-7.92zm7.32 0h1.28l2.46 5.42 2.47-5.42h1.27v7.92h-1.06v-6.16l-2.24 5.05h-.89l-2.25-5.05v6.16h-1.04v-7.92zm10.11 0h5.13v.99h-4.04v2.38h3.36v1h-3.36v2.55h4.04v1h-5.13v-7.92zm7.33 0h1.17l3.77 6.17v-6.17h1.04v7.92h-1.08l-3.86-6.29v6.29h-1.04v-7.92zm10.28.98h-2.33v-.98h5.76v.98h-2.35v6.94h-1.08V18.5zM26.94 0h-.84v25.44h.84V0zm39.2 11.48h-1.63c-1.26 0-1.34-.64-1.34-4.15 0-3.51.08-4.13 1.34-4.13h1.63c1.26 0 1.34.58 1.34 4.13s-.08 4.15-1.34 4.15zM67.57 0h-4.54c-3.49 0-3.71 3.11-3.71 7.31 0 4.43.22 7.36 3.71 7.36h4.54c3.49 0 3.71-2.93 3.71-7.36 0-4.2-.22-7.31-3.71-7.31z"/></g><defs><clipPath id="clip0_197_183"><path fill="#fff" d="M0 0h137.25v25.45H0z"/></clipPath></defs></svg>