<svg width="18" height="13" fill="none" xmlns="http://www.w3.org/2000/svg"><g clip-path="url(#clip0_2_3681)"><path d="M17.824 2.799l-.158-.705c-.105-.469-.293-.842-.563-1.119-.34-.373-.685-.59-1.037-.65a11.67 11.67 0 00-.773-.144 44.35 44.35 0 00-2.04-.109C12.517.048 11.83.03 11.198.018A83.036 83.036 0 009.633 0H8.367c-.422 0-.949.006-1.582.018-.62.012-1.3.03-2.039.054-.738.024-1.418.06-2.039.109-.176.024-.44.072-.791.144-.34.06-.68.277-1.02.65-.269.277-.457.65-.562 1.12l-.158.704-.088.938A22.19 22.19 0 000 5.796v1.408c0 .746.03 1.433.088 2.058l.088.921.158.723c.105.469.293.842.562 1.119.34.373.704.59 1.09.65.399.06.698.108.897.144.363.037.885.067 1.564.09.68.025 1.354.043 2.022.055.68.012 1.271.024 1.775.036h1.389c.422 0 .943-.006 1.564-.018.633-.012 1.319-.03 2.057-.054a72.23 72.23 0 002.039-.127 7.92 7.92 0 00.773-.108c.352-.072.698-.295 1.038-.668.269-.277.457-.65.562-1.12l.158-.722.088-.92c.059-.626.088-1.313.088-2.059V5.796c0-.746-.03-1.433-.088-2.059l-.088-.938zM7.137 8.9V3.7l4.869 2.6-4.87 2.6z" fill="#fff"/></g><defs><clipPath id="clip0_2_3681"><path fill="#fff" d="M0 0h18v13H0z"/></clipPath></defs></svg>