<svg width="18" height="18" fill="none" xmlns="http://www.w3.org/2000/svg"><path d="M9 1.617c1.207 0 1.992.006 2.355.018.375 0 .803.011 1.284.035a5.846 5.846 0 011.459.246c.468.129.884.375 1.248.738.363.364.61.78.738 1.248.14.457.223.944.246 1.46.024.48.035.908.035 1.283.012.363.018 1.148.018 2.355s-.006 1.998-.018 2.373c0 .363-.011.785-.035 1.266a6.083 6.083 0 01-.246 1.476 2.8 2.8 0 01-.738 1.23c-.364.364-.78.616-1.248.757a6.441 6.441 0 01-1.46.228c-.48.024-.908.041-1.283.053H6.627a78.11 78.11 0 01-1.266-.053 6.704 6.704 0 01-1.476-.228 2.955 2.955 0 01-1.23-.756 2.955 2.955 0 01-.757-1.23 6.699 6.699 0 01-.228-1.477c-.024-.48-.041-.903-.053-1.266V6.645c.012-.375.03-.803.053-1.284.023-.515.1-1.002.228-1.459a2.94 2.94 0 01.756-1.248 2.8 2.8 0 011.23-.738 6.08 6.08 0 011.477-.246c.48-.024.903-.035 1.266-.035A97.718 97.718 0 019 1.617zM9 0C7.781 0 6.979.006 6.592.018c-.387 0-.82.011-1.301.035a7.625 7.625 0 00-2.057.369 4.384 4.384 0 00-1.722 1.09 4.384 4.384 0 00-1.09 1.722 7.625 7.625 0 00-.37 2.057c-.023.48-.04.914-.052 1.3v4.817c.012.387.03.82.053 1.301.035.738.158 1.424.369 2.057.21.632.574 1.207 1.09 1.722.515.516 1.09.88 1.722 1.09a7.624 7.624 0 002.057.37c.48.023.914.034 1.3.034C6.98 17.994 7.782 18 9 18c1.219 0 2.021-.006 2.408-.018.387 0 .82-.011 1.301-.035a7.623 7.623 0 002.057-.369 4.384 4.384 0 001.722-1.09 4.384 4.384 0 001.09-1.722 7.623 7.623 0 00.37-2.057c.023-.48.034-.914.034-1.3.012-.388.018-1.19.018-2.409 0-1.219-.006-2.021-.018-2.408 0-.387-.011-.82-.035-1.301a7.624 7.624 0 00-.369-2.057 4.384 4.384 0 00-1.09-1.722 4.384 4.384 0 00-1.722-1.09 7.624 7.624 0 00-2.057-.37c-.48-.023-.914-.034-1.3-.034A99.253 99.253 0 009 0zm0 4.377c-.633 0-1.23.123-1.793.37a4.53 4.53 0 00-1.477.983 4.771 4.771 0 00-1 1.477A4.615 4.615 0 004.377 9c0 .633.117 1.23.352 1.793A4.77 4.77 0 005.73 12.27c.422.421.915.755 1.477 1.002.563.234 1.16.351 1.793.351s1.23-.117 1.793-.351a4.77 4.77 0 001.477-1.002c.421-.422.75-.915.984-1.477.246-.563.369-1.16.369-1.793s-.123-1.23-.37-1.793a4.53 4.53 0 00-2.46-2.46A4.424 4.424 0 009 4.376zm0 7.629a2.897 2.897 0 01-2.127-.879A2.897 2.897 0 015.994 9c0-.832.293-1.541.88-2.127A2.897 2.897 0 019 5.994c.832 0 1.541.293 2.127.88.586.585.879 1.294.879 2.126 0 .832-.293 1.541-.879 2.127A2.898 2.898 0 019 12.006zM14.889 4.2c0 .293-.106.545-.317.756-.21.211-.468.316-.773.316-.293 0-.545-.105-.756-.316a1.031 1.031 0 01-.316-.756c0-.305.105-.562.316-.773a1.03 1.03 0 01.756-.317c.305 0 .562.106.773.317.211.21.317.468.317.773z" fill="#fff"/></svg>