<svg width="163" height="24" fill="none" xmlns="http://www.w3.org/2000/svg"><g clip-path="url(#clip0_155_22)" fill="#fff"><path d="M24.32 0h-.76v22.96h.76V0zM1.78 21.08c.07 0 .1-.02.1-.1v-.74c0-.08-.03-.1-.1-.1H.86v.93h.92v.01zm1.09 1.97h-.9l-.61-1.25h-.5v1.25H0v-3.63h2.02c.48 0 .72.23.72.71v.91c0 .41-.16.63-.5.69l.63 1.31v.01zm.38-3.63h.86v1.4h1.17v-1.4h.86v3.63h-.86v-1.48H4.11v1.48h-.86v-3.63zm10.02 0h2.5v.75h-1.64v.66h1.31v.73h-1.31v.74h1.64v.75h-2.5v-3.63zm2.94 2.91v-.48h.85v.37c0 .07.03.1.1.1h.82c.07 0 .1-.03.1-.1v-.38c0-.08-.04-.11-.15-.13l-.96-.23c-.48-.12-.75-.25-.75-.75v-.6c0-.49.23-.71.72-.71h1.22c.48 0 .71.23.71.71v.44h-.85v-.33c0-.08-.03-.1-.1-.1h-.75c-.07 0-.1.02-.1.1v.34c0 .08.03.11.15.13l.96.23c.48.12.75.25.75.75v.64c0 .48-.23.72-.72.72h-1.29c-.48 0-.71-.23-.71-.72zm-5.08-.06h-.22v-2.09h.22c.81 0 .85.01.85 1.05 0 1.1-.04 1.04-.85 1.04zm.75-2.85h-1.87v3.63h1.87c.81 0 .98-.71.98-1.81 0-1.04-.17-1.82-.98-1.82zm-3.6 2.83h-.4c-.31 0-.33-.16-.33-1.02s.02-1.02.33-1.02h.4c.31 0 .33.14.33 1.02s-.02 1.02-.33 1.02zm.35-2.83H7.51c-.86 0-.92.77-.92 1.81 0 1.1.06 1.82.92 1.82h1.12c.86 0 .92-.72.92-1.82s-.06-1.81-.92-1.81zm5.66-9.38l-6.78 4.09 3.63 3.89h7.88v-2.86l-4.73-5.12z"/><path d="M14.29 10.04l4.58-2.9V4.35L14.66 0H0v16.33l1.57 1.69h5.94V2.79l6.78 7.25zm78.38 5.29h-1.48c-1.14 0-1.21-.58-1.21-3.76 0-3.18.07-3.74 1.21-3.74h1.48c1.14 0 1.21.53 1.21 3.74s-.07 3.76-1.21 3.76zm1.3-10.4h-4.11c-3.16 0-3.36 2.82-3.36 6.62 0 4.02.2 6.67 3.36 6.67h4.11c3.16 0 3.36-2.65 3.36-6.67 0-3.81-.2-6.62-3.36-6.62zm-52.43.03h9.12v2.72h-5.98v2.41h4.79v2.68h-4.79v2.71h5.98v2.73h-9.12V4.96zm10.32 0h3.4l2.5 9.9 2.5-9.9h3.31l-4.05 13.25h-3.61L51.86 4.96zm13.4 0h9.12v2.72H68.4v2.41h4.79v2.68H68.4v2.71h5.98v2.73h-9.12V4.96zm11.43 0h3.14v10.48h5.51v2.77h-8.65V4.96zm29.45 6.26c.26 0 .36-.08.36-.36V8.02c0-.28-.1-.36-.36-.36h-3.35v3.56h3.35zm-6.5-6.26h7.38c1.76 0 2.61.83 2.61 2.61v3.75c0 1.78-.85 2.61-2.61 2.61h-4.24v4.28h-3.14V4.96zm12.1 0h3.5l3.26 7.38 3.23-7.38h3.48v13.25h-3.06v-8.05l-2.67 6.36h-2.08l-2.67-6.36v8.05h-2.99V4.96zm16.29 0h9.13v2.72h-5.98v2.41h4.78v2.68h-4.78v2.71h5.98v2.73h-9.13V4.96zm11.43 0h3.2l4.68 7.78V4.96h3.05v13.25h-2.92l-4.96-8.22v8.22h-3.05V4.96zm16.28 2.74h-3.44V4.96h10.05V7.7h-3.47v10.51h-3.14V7.7zM33.38 15.38h-.82V7.65h.82c2.98 0 3.13.04 3.13 3.88 0 4.05-.13 3.85-3.13 3.85zm2.77-10.56h-6.9v13.4h6.9c2.99 0 3.62-2.64 3.62-6.69 0-3.84-.64-6.71-3.62-6.71z"/></g><defs><clipPath id="clip0_155_22"><path fill="#fff" d="M0 0h162.35v23.05H0z"/></clipPath></defs></svg>