<svg width="108" height="29" fill="none" xmlns="http://www.w3.org/2000/svg"><g clip-path="url(#clip0_197_156)"><mask id="mask0_197_156" style="mask-type:luminance" maskUnits="userSpaceOnUse" x="0" y="0" width="108" height="29"><path d="M107.77 0H0v28.45h107.77V0z" fill="#fff"/></mask><g mask="url(#mask0_197_156)"><path fill-rule="evenodd" clip-rule="evenodd" d="M20.47 8.81l-1.08-.96c-.68-.72-1.36-1.44-2.04-2.15l-1.08-.96c-.77-1.06-1.72-1.84-2.63-2.75L12.08.31V.19c-.6.16-1.37 1.25-1.8 1.68l-1.08.96v.24L6.92 5.23c-.5.5-.93 1.19-1.56 1.56v.24h-.12V4.87H1.32v6.35C.88 11.61.44 12 0 12.4v15.57h22.87V11.33l-2.4-2.28v-.24zm-.35 6.47l-.96.48-.12.24-.48.12v.12l-.36.12-.12.24h-.24l-.12.24-.48.12-.12.24h-.24l-.12.24h-.24v.12h-.24v.12l-.36.12c.1.13-.02.02.12.12.17.62.93 1.01 1.32 1.44l.12.36 1.44 1.32c.36.5.66 1.01 1.2 1.32v2.87h-7.18l-.6-.72-.84-.72v-.24l-1.68-1.56v-.24H9.7v3.47H4.07l-.12-.24c-.41-.37-.71-.91-1.2-1.2V8.69H16.4l.72.96 2.99 2.87v2.75l.01.01zm18.68-.84v-.36h-.12l-.24-.72h-.12v-.24h-.12v-.24h-.12v-.24h-.12v-.36h-.12l-.24-.72h-.12v-.24h-.12v-.24h-.12v-.24h-.12v-.36H37l-.24-.72c.77-.07 1.52-.63 1.68-1.32.42-.45.24-2.68.24-3.59 0-1.83.15-3.45-.96-4.19C37.05.21 35.73.3 34.61.3h-6.82v14.97h3.23V10h2.39c.16.73.54 1.23.84 1.8l.12.48h.12v.36h.12l.12.48h.12v.24h.12l.84 1.92h3.35c-.07-.54-.21-.5-.36-.84zm-3.36-7.31h-4.43V3.18h4.43c.1.13-.02.02.12.12 0 1.16.22 2.9-.12 3.83zm9.34 1.92h5.15v6.23h3.23V.31h-3.23v5.75h-5.15V.31h-3.11v14.97h3.11V9.05zm20.96 5.99h.36v-.12h.24v-.12h.24v-.12l.6-.48c.08-.38.27-.68.36-.96V4.5c0-1.88.05-3.58-1.44-3.95-.4-.37-1.53-.24-2.27-.24h-5.87v.12l-.6.12c-.08.04-.68.42-.72.48v.24l-.24.12v.24h-.12c-.33.74-.24 2.17-.24 3.23v6.11c0 1.31-.05 2.57.48 3.35.88 1.3 4.48.96 6.71.96l2.51-.12v-.12zm-1.44-2.76h-5.03V6.17c0-.93-.15-2.27.12-2.99h4.91c.23 1.29.12 3.07.12 4.55s.11 3.26-.12 4.55zm15.92 2.64h.24v-.12h.24v-.12l.6-.48c.08-.38.27-.68.36-.96V4.5c0-1.88.05-3.58-1.44-3.95-.44-.41-1.82-.24-2.63-.24h-7.07v14.97h6.23l3.11-.12v-.12h.36v-.12zm-1.79-2.64h-4.79v-9.1h4.79c.23 1.29.12 3.07.12 4.55s.11 3.26-.12 4.55zm6.23 3h10.06v-2.99h-6.95V9.06h5.63V6.19h-5.63V3.2h6.95V.31H84.66v14.97zm22.99-6.59v-.24h-.12l-.12-.48-.36-.24-.36-.48h-.24v-.12l-.48-.12v-.12l-.84-.12v-.12h-.48v-.12h-.6v-.12h-.48v-.12h-.6v-.12h-.6v-.12h-.48v-.12h-.6v-.12c-.46-.14-.64.05-.96-.24l-.24-.12c0-.74-.08-1.73.12-2.27h4.19c.1.51.13 1.24.12 1.92h2.99c.02-1.89.17-3.68-.96-4.43-1-.67-4.33-.36-5.99-.36-.62 0-1.22-.02-1.68.12h-.48v.12l-.48.12v.12l-.6.48c-.08.33-.27.57-.36.84v3.23c0 .75-.04 1.45.36 1.8.38 1.5 4.08 1.77 5.63 2.28h.6v.12l.84.12v.12l.24.12c.01.95.08 1.9-.24 2.51-1.45 0-3.18.1-4.43-.12v-2.03h-3.11c-.02 1.69-.11 3.73.84 4.43 1.19.87 3.85.6 5.87.6l2.39-.12v-.12h.36v-.12h.24v-.12h.24v-.12l.6-.48c.08-.33.27-.57.36-.84V8.7h-.12l.02-.01zm-92.92 7.9l-1.2-1.08v-.24l-.24-.12-.48-.6-.96-.84v-.24l-1.56-1.44c-.24-.27-.27-.52-.6-.72v10.3c.14-.08.18-.2.24-.24h.24v-.12h.24l.12-.24.48-.12.12-.24.48-.12.12-.24.48-.12.12-.24.48-.12.12-.24.36-.12v-.12l.48-.12.12-.24h.24v-.12h.24l.12-.24h.24v-.12h.24l.12-.24h.24v-.12c.27-.16.16.05.36-.24.14-.1.02.02.12-.12-.48-.28-.7-.82-1.08-1.2m79.38 2.42v-.24s-.17-.12-.24-.24c-.58 0-1.13.04-1.56.12-.07.24.02.1-.12.24-.07 1.7.4 1.62 1.8 1.44.12-.25.43-.8.24-1.32h-.12zm-60.58 3.47h-3.95v-3.71h-1.8v9.22h1.8v-3.83h3.95v3.83h1.92v-9.22h-1.92v3.71zm34.84-.12c-.46-.14-.64.05-.96-.24-.18-.11-.2-.23-.36-.36l.12-1.08.36-.12v-.12h.48v-.12c1.09 0 2.72.2 3.59-.12l.12-1.44c-2.28-.02-5.79-.32-6.23 1.44-.44.46-.26 2.52.12 2.87.64 1.12 3.15 1.04 4.43 1.56.11.56.11.99 0 1.56l-.48.12v.12h-4.07l-.24 1.56h4.79v-.12h.48v-.12l.48-.12v-.12h.24v-.12l.48-.36.12-.48h.12v-.6h.12c.18-.6-.14-1.94-.36-2.15-.29-1.1-2.26-1.1-3.35-1.44zm-25.38.24h-.12l-.24-.72h-.12l-.24-.36c-.34-.08-.57-.27-.84-.36l-2.4-.12v.12c-.31.18-.71-.11-1.08.24-1.55.4-1.58 3.88-.96 5.39v.36h.12l.6.72c.86.18 3.69.6 4.31-.12 1.11-.29 1.41-3.23.96-4.67v-.48h.01zm-1.92 3.71l-.24.36-1.44.12v-.12c-.51-.01-.62-.06-.72-.48-.46-.5-.14-2.35-.12-3.11.14-.12.27-.31.36-.48h.48v-.12c.57-.01 1.16-.04 1.44.24l.36.24c.27.45.18 3.07-.12 3.35zm9.46-5.27l-1.08.36v.12h-.24v.12c-.16.03-1.19-.52-1.44-.6-.82-.25-2.49.21-2.87.48v.12l-.24.12c-.17.23.12.12-.24.36-.16 1.75-.13 3.93-.12 5.87h1.68v-4.55h.12l.12-.72c.34-.07 1.25-.29 1.56 0h.24c.2.13.24 1.04.24 1.44v3.83h1.68c0-1.83-.03-3.79.24-5.27.34-.07 1.25-.29 1.56 0h.24c.2.13.24 1.04.24 1.44v3.83h1.68v-5.51c-.11-.35-.43-.65-.6-.96-.65-.15-1.69-.78-2.75-.48m10.28.96l-.24-.12-.24-.36-.72-.24v-.12l-2.28-.12v.12l-.96.12v.12h-.24l-.24.36-.48.36c-.37.57-.36 1.69-.36 2.63l.12 1.8h.12v.24h.12v.24l.24.12.36.48c.88.59 3.01.39 4.43.36l.24-1.32c-.86.01-2.95.17-3.35-.24l-.36-.12c-.06-.33-.12-.62-.12-1.08 1.33 0 2.93.08 4.07-.12l.12-.6h.12l-.12-2.04c-.24-.21-.1-.28-.24-.48m-3.94 1.93v-.84c.15-.12.39-.43.48-.6.45-.01 1.31-.11 1.56.12l.36.12.24 1.2h-2.64zm21.67-1.8v-.24h-.12l-.24-.36-1.44-.48h-1.56v.12c-.44.13-.85.02-1.2.24-1.15.7-1.08 1.99-1.08 3.83 0 .89.1 1.52.48 2.04h.12c.29.32.02.04.36.24v.12l.48.12v.12h.36v.12h3.59l.24-1.32c-.6 0-2.71.13-2.99-.12-.55-.03-.51-.17-.84-.36 0-.43-.06-.65-.12-.96h3.95s.25-.29.36-.36c0-.78.18-2.06-.12-2.63l-.24-.12m-3.94 1.8c.08-.45.21-.97.36-1.32.45-.08 1.06-.13 1.68-.12.12.14.31.27.48.36.06.33.12.62.12 1.08H74.6zm32.45-1.92l-.24-.12-.24-.36-.72-.24v-.12h-.6v-.12l-2.28.12v.12h-.24v.12h-.36v.12l-.72.6-.36 1.2c-.22.76.08 3.2.36 3.47.39 1.52 3.09 1.24 5.03 1.2l.24-1.32c-1.1.01-3.06.25-3.59-.36-.23-.22-.25-.61-.24-1.08 1.33 0 2.93.08 4.07-.12l.12-.6h.12c.21-.66-.09-1.49-.12-2.04-.24-.21-.1-.28-.24-.48m-3.95 1.93v-.84c.15-.12.39-.43.48-.6.84 0 1.37 0 1.92.24.09.44.24.63.24 1.2h-2.64zm-22.15-2.4v.12l-.72.6c-.03.35-.16.7-.24.96v4.79h1.8v-3.35c0-.42-.08-1.09.12-1.32.07-.29.13-.26.24-.48.51-.1 1.24-.13 1.92-.12l.24-1.44c-1.04 0-2.68-.14-3.35.24m8.02 1.92v.36h-.12v.36h-.12v.36h-.12v.36c-.13.33-.32.61-.36 1.08h-.12l-.96-3.11c-.19-.47-.46-.89-.48-1.56h-2.03l2.51 6.71h2.04l.24-1.08h.12v-.24h.12l.24-1.08h.12v-.24h.12l.12-.72h.12v-.24h.12l.24-1.08h.12v-.24h.12v-.36h.12v-.36h.12v-.24h.12l.12-.72h.12v-.12h-1.92c-.1.79-.46 1.51-.72 2.15m3.35 4.56h1.8v-6.71h-1.8v6.71zm5.03-5.03c.42-.42 1.94-.26 2.75-.24l.24-1.44c-1.04 0-2.91-.2-3.71.12v.12l-.48.12v.12l-.6.48-.36 1.08v1.44c0 3.44 1.54 3.3 4.91 3.23l.24-1.44c-1.02 0-2.15-.04-2.99-.12-.1-.13.02-.02-.12-.12-.17-.79-.57-2.76.12-3.35z" fill="#fff"/></g></g><defs><clipPath id="clip0_197_156"><path fill="#fff" d="M0 0h107.77v28.45H0z"/></clipPath></defs></svg>