<svg width="81" height="69" fill="none" xmlns="http://www.w3.org/2000/svg"><g id="uuid-8c47ee80-18e3-4dea-a22c-a3347d4e599b" clip-path="url(#clip0_1448_2595)"><path id="Vector" d="M21.13 57.331c-.106.18-.21.372-.33.541-.213.294-.473.297-.752.094-.308-.222-.53-.528-.521-.856.006-.89-.523-1.536-1.002-2.193-.459-.621-.788-1.31-.94-2.023-.292-1.375-1.027-2.5-1.866-3.616-.24-.328-.57-.65-.687-1.018-.776-2.423-2.088-4.602-3.398-6.768a237.324 237.324 0 00-4.01-6.443c-.97-1.493-1.824-3.05-2.972-4.454-.3-.368-.657-.697-.965-1.037-.96-1.077-.996-1.056-.277-2.229.445-.735.845-1.003 1.62-.618.674.34.934.089 1.5-.201 1.106-.575 2.328-.979 3.543-1.289.683-.171 1.428-.107 2.072.397 1.108.85 2.313 1.6 3.464 2.401.29.2.507.48.746.744 1.395 1.52 2.713 3.11 3.854 4.79 1.032 1.532 1.819 3.208 2.756 4.787a34.758 34.758 0 001.713 2.59c.538.748 1.303.717 1.654-.09.42-.978 1.047-1.843 1.485-2.799.305-.653.692-1.232 1.12-1.806a46.916 46.916 0 002.772-4.054c.62-1.02 1.457-1.943 2.16-2.942 1.038-1.45 2.092-2.889 3.027-4.395.984-1.582 2.201-2.99 3.477-4.373a54.686 54.686 0 003.021-3.622c.872-1.126 1.89-2.18 2.967-3.14.715-.635 1.299-1.335 1.953-2.01 1.756-1.824 3.455-3.675 5.244-5.466 1.51-1.51 3.482-2.44 5.455-3.303 1.889-.833 3.806-1.593 5.881-1.916.962-.152 1.926-.226 2.867-.165 1.735.103 2.653 1.163 2.456 2.76a18.322 18.322 0 01-2.95 7.96c-.148.228-.373.459-.623.577-.615.3-1.195.528-1.208 1.328 0 .249-.47.493-.718.741-1.272 1.277-2.799 2.333-3.69 3.922-.256.459-.788.846-1.27 1.158-.785.494-1.29 1.19-1.67 1.924a10.422 10.422 0 01-2.213 2.875c-1.097.991-1.714 2.272-2.54 3.428-.83 1.144-1.507 2.386-2.735 3.248a1.13 1.13 0 00-.315.302c-1.192 1.835-2.978 3.274-4.17 5.109-.522.803-.7 1.756-1.4 2.52-.668.73-1.086 1.655-1.66 2.457-.331.475-.612.94-.798 1.476-.165.454-.375.943-.705 1.3-1.785 1.935-2.602 4.305-3.69 6.562-.946 1.953-1.492 4.056-2.805 5.877-.343.478-.423 1.149-.466 1.746-.087 1.13-.66 2.127-.958 3.184-.25.916-1.204 1.406-1.59 2.234l-.113.023.18-.012c-.367.549-.976.574-1.304.199-.804-.954-1.823-1.691-2.652-2.64-1.175-1.345-2.573-2.512-3.927-3.715-.418-.368-.94-.545-1.594-.119-.448.292-1.066.58-1.584.05.104.121.097.149-.034.085.047-.023.08-.056.127-.08l-.013.003z" fill="#000"/></g><defs><clipPath id="clip0_1448_2595"><path fill="#fff" transform="rotate(-11.992 70.384 7.393)" d="M0 0h71.16v54.665H0z"/></clipPath></defs></svg>