<svg width="75" height="86" fill="none" xmlns="http://www.w3.org/2000/svg"><g clip-path="url(#clip0_1448_2885)" fill="#000"><path d="M15.56 26.86c.82-.98 1.65-1.93 2.5-2.85.12.16 1.35 1.74 1.6 2.08 1.15 1.46 2.94 2.22 4.7 1.18 1.55-.91 2.31-3.18 1.24-4.75-.81-1.2-1.79-2.3-2.78-3.39.96-.93 1.92-1.87 2.89-2.81 1.47-1.42-.03-4.51-2.12-3.64-1.53.64-2.97 1.54-4.33 2.58-1.16-1.17-2.48-2.24-3.92-2.49-1.95-.33-3.32 1.08-3.01 3.01.22 1.38 1.19 2.73 2.19 3.94-.98 1.1-1.91 2.23-2.78 3.33-2.09 2.67 1.56 6.5 3.8 3.8l.02.01zm-.09 20.69c.99-1.04 1.09-2.16 1.73-3.33.11-.21.26-.41.41-.61 1.06.9 2.17 1.77 3.26 2.64 1.36 1.09 3.19 1.34 4.52 0 1.19-1.19 1.29-3.35 0-4.52-1.02-.94-2.12-1.77-3.24-2.58 1.45-1.28 2.89-2.61 3.86-4.27 1.16-2-1.07-3.71-2.9-2.9-1.98.86-3.8 2.29-5.49 3.78-.56-.47-1.11-.95-1.62-1.48-1.55-1.58-4.7.01-3.87 2.26.39 1.05.91 2.01 1.52 2.89-1.73 1.71-3.47 3.84-3.39 5.97.09 2.57 3.32 4.18 5.22 2.16l-.01-.01zm7.82 4.98c-1.88.94-2.29 2.96-2.83 4.78-.63 2.1-1.47 4.16-2.26 6.2-.01.03-.03.06-.04.09-1.54-1.58-3.08-3.17-4.7-4.66-1.43-1.31-4.39-.05-3.55 2.07 1.19 2.98 3.48 5.47 5.66 7.79 1.63 1.73 3.74 2.7 5.66.66 1.61-1.71 2.37-4.34 3.21-6.47.52-1.3 1-2.6 1.69-3.82.59-1.05 1.46-1.91 1.65-3.18.39-2.65-1.92-4.74-4.49-3.46zm38.29-32.69c-9.23.3-18.93-1.2-28.07-.15-2.73.31-2.7 3.87 0 4.22 9.16 1.19 19.63 1.93 28.77.42 2.95-.49 2.22-4.58-.7-4.49zm-.35 19.38c-9.65.06-20.37-2.59-29.74.44-2.43.79-2.07 4.57.61 4.53 9.76-.12 19.36.06 29.13.36 3.44.11 3.44-5.36 0-5.33zm-.35 22.05c-9.28.22-18.87-.84-28.08.24-2.78.33-2.74 3.93 0 4.29 9.09 1.2 18.94 1.65 28.08.74 3.31-.33 3.46-5.35 0-5.27z"/><path d="M72.57 78.76c.23-25.34 2.88-50.34-1.2-75.46-.19-1.15-1.13-1.6-2.08-1.53-.21-.07-.44-.12-.69-.13-10.29-.59-20.51.99-30.86.29C27.46 1.25 15.83-.5 5.51.33c-.47.04-.86.19-1.17.42C3.24-.58.7-.14.57 2.06-.48 18.95.24 34.78.24 51.71c0 6.45-.05 12.9-.04 19.35 0 2.06-.46 8.99.22 9.7.07.08.15.13.22.19-.72 1.35 1.52 3.98 3.46 3.88 5.33-.28 11.92-1.38 17.27-1.68 5.53-.31 11.1.08 16.63.3 11.14.43 22.27 1.75 33.41 1.88 3.1.04 3.48-5.48 1.17-6.56l-.01-.01zm-66.47.28c0-.38-.08-.78-.31-1.17-1.49-2.62-.68-7.55-.65-10.47.08-6.78.01-11.23.01-18 0-14.6.54-30.39-.21-44.99.17.05.35.09.56.1 10.33.61 21.92 1.7 32.23 2.54 9.88.8 19.62-.66 29.45-.27.15 12.04 1.04 25.07.95 37.14-.09 12.14-1.88 22.38-.62 34.5-9.84-.21-19.67-.7-29.51-1.01-9.52-.29-22.39-1.04-31.89 1.63H6.1z"/></g><defs><clipPath id="clip0_1448_2885"><path fill="#fff" d="M0 0h74.06v85.32H0z"/></clipPath></defs></svg>