<svg width="169" height="115" fill="none" xmlns="http://www.w3.org/2000/svg"><g id="uuid-c331cf34-270a-4032-ad7a-1f007c6f1a45" clip-path="url(#clip0_1448_2599)"><path id="Vector" fill-rule="evenodd" clip-rule="evenodd" d="M103.413 18.457c-.244.635.637.147.392.782-.71-.188-.196.846-.588.976-.399-.057-.522-.39-.783-.586-.408.245-.538.765-.979.977.196.692.865-.17.784.586-.694-.252-1.314.008-.588.39-.326.62-.416-.602-1.174-.195.073.936 1.215.22 1.37 1.368-.351-.025-.416.236-.783.195.016-.277.033-.553-.196-.586-.522-.065.18 1.09-.587.781.334 1.23-.196 1.164 0 2.149-.384-.138-.522-.52-.588-.977-.244.326-.505 1.058-.978.586.024.936.44.26 1.174.391.155.993-.644.806-.979.39-.212.05-.13.391-.391.391.049.245.391.196.391 0 .49.375-.244.847.196 1.368-.196-.521-1.052-.57-.783.39a.728.728 0 00-.979 0c1.395.383-.253 1.335.392 2.344-.775-.252-.4.643-1.175.39.359 1.075-.816 1.653-.196 2.345-.147.35-.359.032-.587 0-.702.472-.75 1.595-1.958 1.563-.677.561-.343 2.132-1.762 1.953.09.806 0 1.432-.783 1.367.53.586-.424.871-.196 1.758-.277.358-.954-.31-1.37.196.13.26.595-.171.783.39-.449.513-.041.667-.392 1.172.065.26.49.163.783.195-.473.96-.685 2.19-2.35 1.954-.056.512.409.504.784.586-.261.602-.873-.367-1.175.195.13.195.449.204.392.586-.963.081-.89 1.197-1.566 1.563-.057.35.758.008.587-.39.685.69-.416 1.26-.196 2.148-1.199-.196-.26.61-1.37.586.318.765-.726 1.245-1.567 1.562-.081.472.36.424.196.977-.53-.138-.391.39-.783.39.13.196.449.204.392.587-.914-.285-1.379 1.4-1.175 2.344-.563.154-.767.667-1.566.586.563.227-.482 1.383-1.175 1.562.049.725.383.863-.587.782.13.944.424 3.337-1.175 3.515-.514.261-.375.871-.196 1.368h-.587c.58 1.164-.604.87-.392 2.148-.391 0-.252-.529-.783-.39.563.31-.008 2.067-.979 2.148.465.871-1.036 1.514-1.37 2.54-.343 1.05-.163 2.148-1.175 2.344-.024.35.237.415.196.781-1.517.155-.604 2.946-2.35 3.32-.008.334.147.505.392.587-.644.333-1.158.797-.979 1.953-.155-.106-.318-.203-.587-.195-.082.472.359.423.196.976-.767.204-1.093 1.685-.783 1.954-.033.228-.36.162-.588.195.726 1.147-1.705 3.557-1.566 3.125.212 1.498-.547 3.54-1.958 4.493.514 1.408-1.379 2.938-1.37 5.47-.653.626-1.412 1.383-1.175 2.343-.628-.163-.604.31-.979.39.302.286.171 1.002.196 1.563-.188 0-.155-.244-.196-.39-.742 2.425-.473 5.249-1.762 7.227.742.57-.09 1.88.196 2.539.522-.586.432-.325.587.196 1.517-1.148 2.545-1.872 3.524-4.102 6.053-7.48 10.344-17.637 16.446-25.003 1.444-3.507 4.021-5.884 5.677-9.18.172-.155.441-.212.784-.196.595-2.67 3.27-5.754 5.481-8.008-1.084-.269 1.102-.855.784-2.149 1.28-.627 1.223-.48 1.174-1.562 2.146-.725 2.032-3.704 4.112-4.493 1.46-3.296 3.687-5.827 6.265-8.009-.09-.17-.172-.35-.392-.39 8.109-8.985 16.438-20.567 27.605-27.737 2.611.456 2.855 3.271 4.895 4.297.196 2.385 1.256 2.784 1.566 4.883 1.762 1.53-.799 4.224-.979 4.884-.032.13.359.252.392.195-.261.496-1.167 1.367-1.175.977-.498.366.18.683-.196 1.172-.905-.53-.505 1.106-1.566.976.22 2.092-1.321 2.548-1.175 4.102-1.027-.31-.603 2.531-1.762 2.344.661 1.034-.815 2.181-.391 2.93-1.085.252-.743 1.88-1.566 2.93-.319.407-2.578 2.401-1.763 2.54-.163.292-.628.284-.978.39-.033 1.71-1.697 2.702-1.371 4.493-.383.496-1.485 1.286-1.175 2.148-.93.033-1.696 2.247-1.566 3.32-1.444.033-.946 2.264-1.174 2.736-.017.504-.727.317-.979.585 0 .464.334.578.195 1.172-.726-.138-.489.684-.783.977-.187 0-.155-.236-.196-.39-.342 1.082-1.647 1.603-1.37 2.734-.188 0-.155-.236-.196-.39-.465 1.302-1.59 1.904-1.566 4.101-.286.228-.489.228-.783 0 .514 1.083-.588 2.027-1.175 2.15.726 1.293-1.566 1.838-1.175 3.515-1.166 0-.668 1.677-1.762 1.758.408 1.229-1.354 1.375-.783 2.93-.253.236-.31.073-.587 0-.473 1.611-.963 3.687-1.958 4.688.025.496.286.757.783.781.31-.276.498-.675.588-1.172.367.757.979-.57.979-1.367.261.301 1.354-.96 2.349-2.149.604-.716 1.542-1.579 1.958-2.344.106-.187-.123-.61 0-.781 1.028-1.449 2.675-2.368 2.741-3.907 2.284-1.14 2.765-3.809 5.286-5.078-.139-.594.204-.708.196-1.172 1.109-.228 2.235-2.108 2.936-2.93.889-1.034 1.713-1.221 1.958-2.54 2.031-.716 2.268-3.206 4.503-3.71.457-1.368 1.942-1.71 2.154-3.321.522.17 1.191-.48.783-.586 2.259-1.506 3.361-3.256 5.677-4.884.294-.17-.057-.293.196-.781 1.126-.22 2.056-1.204 3.133-2.344 1.786-1.888 4.119-3.15 5.873-5.079 2.921-1.163 4.944-3.166 7.831-4.297 1.363.008 2.048.033 3.329.39-.343.815.954 1.32 1.174 1.563.547.619.824 1.677 1.371 2.344.073.098.514-.097.587 0 .261.342.286 1.254.588 1.563.081.09.522-.098.587 0 .114.163-.392.187-.392.195.123.489 1.232 1.067 1.567 1.368.473 1.668 1.484 2.572 1.174 4.492-.049.318.188.334.196.586.057 2.857-1.99 5.657-2.937 8.595-.318 1.001-.359 2.206-.783 3.125-.032.073-.53.098-.587.196-.93 1.7-1.232 3.89-2.545 5.273-.188 2.54-1.444 3.858-1.958 6.642-.392 0-.253.537-.783.39.065.383.603 1.392-.392 1.172.261.863-.522 1.677-.196 1.954-.089.284-.171-.017-.391 0 .008 1.774-2.292 4.81-1.762 6.446-1.044.447-.482 1.448-.783 1.953.465.448 1.754.073 2.545.195.71 1.986 2.064 3.573 2.937 4.688.089.114-.319.212-.392.196 1.835 1.172 1.68 3.483 1.762 5.664-.481.838-1.338 1.555-2.154 2.344-.318.309-.742.537-.783 1.172-1.183.147-1.329.456-2.153 1.172-.531.138-.392-.391-.783-.391-3.712 1.49-4.242-2.897-7.049-3.906-.244-1.05-1.215-2.271-1.566-2.54-1.191-.903-1.476-2.148-2.741-3.32-3.002-13.112 4.152-24.36 8.419-34.574-.074-.643-.824-.61-1.175-.976-.22.179.016.44-.391.78-.457-.707-.147.123-.979 0-.017.57-1.705 2.882-2.154 2.345-.424.814-1.289 1.35-1.762 1.172-.579.928-.171 2.238-.979 3.516-1.028-.049-1.223.732-1.37 1.563-3.092.488-3.655 4.81-6.853 4.687-.285.888-.824 1.522-1.957 1.563.277 1.31-.726 1.433-.588 3.125-2.684 1.555-4.903 2.263-5.873 6.056-1.273.13-1.346.415-1.567 1.367-.677-.155-.938.106-.783.781-1.329-.22-.783 1.433-2.153 1.172-.041.586-1.15 1.815-2.35 2.344.335.619-1.15 2.149-.978 2.54-2.929 1.294-3.182 5.518-5.874 6.64.171 1.303-1.175 1.335-.979 3.126-.718.13-.685.106-.783.977-4.715 1.668-4.503 8.285-12.138 5.469.171-.472-.759-1.262-1.762-1.172 0-.187.236-.155.391-.195-3.67-2.808-7.056-6.023-5.09-11.915.22-.66.905-1.66 1.174-2.15.89-1.603 1.183-3.947 1.958-5.664.58-1.27 1.33-2.612 1.958-3.906 1.362-2.816 3.198-5.551 4.699-8.595.555-1.123.987-1.953 1.37-3.125 1.216-.822 2.872-5.209 3.72-6.837 1.191-2.287 2.374-4.159 3.328-6.25.253-.554.376-.977.588-1.368.049-.081.277.318.196.39.522-.487 1.329-2.253 1.762-3.124 1.158-2.32 2.626-5.152 3.132-6.25.074-.156-.302-.18-.391-.196.032-.228.358-.163.587-.196.636-3.109 2.928-5.151 2.937-7.813-.498.399-1.485-.081-1.762 1.172-.922-.203-1.102.334-1.371.782-.261-.066-.31-.342-.587-.391-1.248.797-.571 2.303-1.371 3.516-.236.366-1.036.016-.587.781-.596-.74-1.346 1.595-1.762.39-.351.57-.155.774-.783.782 0 .187.236.155.391.195-1.55.741-3.385 2.523-3.719 4.298-.408.244-.8.504-.979.976-.188 0-.155-.236-.196-.39-.995 1.986-1.689 1.986-2.545 3.32-.074.334.155.367.391.391-.383.488-.644 1.848-1.37 1.367.171.155.114.537.391.586-.514.53-1.452.635-2.153.977.032.228.359.163.587.195-.424.554-.783 1.172-1.566 1.368.571 1.204-1.175.618-.979 1.953-.848.081-.571.358-1.175.39.204 1.637-2.822 2.67-2.74 4.688h-.588c.685 1.238-.75-.105-.587 1.563-.767-.179-.49.684-1.37.39.154.676-.294.75-.197 1.368-.49-.806-.897 1.245-.978.195-.645.057.334 1.034.391.391-.228 1.205-1.9 2.662-2.35 4.297h-.782c.603.383-.555 1.75-1.567 1.758-.09.415.278.375.588.391-.84.48-.8 1.302-.784 2.149-1.77-.269-1.297 1.7-2.74 1.758.024.366.13.65.391.781-1.33.602-.938 1.71-2.35 2.149.156.17.213.44.197.78-1.493.563-.93 3.745-3.133 3.908.139.594-.196.716-.196 1.171-1.125-.276-.84.855-1.566.977.008 2.613-1.493 2.955-2.154 5.274-1.207-.195-.212 1.294-1.174.586-.074.334.155.366.391.39-.057.27-.49.164-.783.196-.163.187.065 1.538-.979.977-.375 2.686-2.08 4.566-2.936 7.227-1.142.122-.857 1.148-1.567 2.344-.301.505-1.093.936-1.37 1.563-.506 1.131-1.501 2.36-1.762 3.516h-.783c-.22 1.937-1.403 1.717-2.154 3.125-.277.016-.555.032-.587-.195-1.232 2.156-6.143 1.269-8.027-.196.024-.35-.237-.415-.196-.781-2.904-1.831-4.38-4.257-4.699-7.227-.188-1.775-.302-4.363 0-6.056.163-.927.914-1.815.98-2.734.007-.155-.393-.204-.393-.196.041-.22.539-.333.588-.586.032-.146-.286-.447-.196-.78.58-2.1 1.917-4.607 2.741-7.033.636-1.864 1.118-3.947 1.958-5.47 1.174-2.115 2.928-6.022 3.915-8.594.506-1.318 2.366-4.517 3.329-6.055 1.28-2.05 1.81-4.313 3.132-6.055-.155-.171-.212-.44-.196-.782.188 0 .155.237.196.391 3.182-6.218 6.502-12.143 9.594-17.97-.327.87-.84-.367-.392-.782-.237-.789-.669-.244-1.175-.586v-.78c.58.756.914.373 1.958.194-.171.35-.547.497-.392 1.172.727-.211.213-1.953 1.175-1.367-.138-.61-.522-.252-.979-.195.367-.676.367-.497 0-1.172.449-.122 1.183-.39 1.567 0-.8-1.587-1.632.187-2.35-.977.025.366.13.651.392.782-.947 0 .245.602-.783.78.032.229.358.164.587.196v.39c-.188 0-.155.237-.196.391-.546-.895-1.232-.179-1.958-.586-.146 1.034.514.188.784.586 0 .391-.53.253-.392.782-.212-.05-.13-.39-.392-.39-.554.194.057.83 0 1.171-.766.114-1.134-.17-1.566-.39-.27.309.22 1.53-.587 1.757.032.228.359.163.587.196-.057.268-.49.163-.783.195-.285.74.873.04.587.781-.726.017-.628.293-.979-.195-.04.423-.318 1.074-.391 1.563-.62.22-.44.016-1.175 0-.375.96.653.52.587 1.172-.628.17-.742-.171-.978-.391-.22.155-.261 1.01.195 1.367-.17.578-.155-.586-.783-.195-.318-.032-.4 1.278.196.977-1.42-.18-.726.358-1.762 1.172.171.464 1.093-.448.979.586-.571-.456-.979-.05-.587.586-.245-.09-.4-.253-.392-.586-.171.154-.44.211-.783.195-.139.594.334.57.196 1.172-.155-.106-.319-.203-.588-.195.425 1-.783-.017-.391 1.562-.392.74.122-1.009-.588-.586-.57.163.115.627 0 .977-.18-.212-.726-.057-.587-.586-.742.26.196 1.473-.587 1.953.057.269.49.163.783.196-.22.553-1.012.659 0 .976-.27.643-1.126.7-1.566 1.172-.229-.032-.163-.358-.196-.586-.343.18-.36.684-.588.977 0 .545.53-.464.392.39-.481.106-1.264.212-1.958.587.057.268.49.162.783.195-.18.342-.611.431-1.174.39v1.954c-.612-.138-.253-.521-.196-.977-.286-.594-1.191-.35-1.37.196.244.594.677-.212 1.174 0-.081.374-.563.358-.392.976-.252-.268-.921-.122-1.174-.39.09.366-.27 1.18.391.976-.252.545-.783-.244-.979-.39-.587.594-.138 1.123-.195 2.148-.351-.496-1.485-.212-1.567-.977-.269.057-.163.489-.195.782-.082.464.889-.106.587.586-.538.016-.392-.326-.783 0 .636.301 0 1.864-.783 1.953.22.301.563.48.783.781.081.814-.587-.09-.783-.195-.4.057-.384.53-.783.586.252.399.946.358.783 1.172h-.783c.79.35-.588.806 0 1.563-.408.081-.522-.13-.784-.196.082.375.563.35.392.977-.392.016-1.126.667-.587.977-.147.35-.36.024-.588 0-.367.374.115.35 0 .976-1.052-.325-1.003.505-1.762 1.172.49.464.188.513.196 1.368-.88-.554-.816.48-.783 1.367-.816-.212-.93 2.132-.979.39-.155.693-.75.945-.979 1.563-.35.025-.416-.244-.783-.195.13.195.449.203.392.586-.906-.252-.327.977-1.37.586.064.586.937.366.586 1.367-.342.114-1.15-.236-1.174.196.106.22.758.032 1.174.39-.864.147-.921.773-.391 1.368-.335-.35-.881-.546-1.175 0 .106.44.302-.236.588.195-.392.732-.783.92-.196 1.758-.433-.106-.278.374-.587.39.032.228.358.163.587.196-.44.667-.816 1.4-1.175 2.148-.367-.78-1.011-.138-.783.782-.734.211-.555-.48-1.175-.39-.057.35.188.398.196.194.318.513.04.847.196 1.759-1.02.341-1.11.667-2.154.195.416.236.571.732 1.175.781-.31.147-.294.619-.783.586.04-.155.196-.195.196-.39-.49-.033-.474.439-.783.585.008.318.97 1.1 0 1.172.978.318-.629.871.587.782-.27.31-.963.211-1.175.586-.024.35.237.415.196.781-.432-.513-.653.61-1.175 0-.057.513.27.643.783.586-.872.594-1.802 1.848-1.566 2.93-.342-.48-.432-.39-.391.391h-.783c.138.594-.204.708-.196 1.172-.857.138.155-.391-.392-.391-.391.204.335 1.31-.587 1.367.75 2.938-1.575 3.305-2.545 5.274h-1.37c.578.155.015 1.066-.588 1.172.718.814-1.053 1.604-.587 2.149-1.11.781-2.227 1.554-3.133 2.539-5.45-.358-7.546-4.061-11.16-6.25.22-.717-.938-1.384-1.174-1.954-.914-2.222-.824-6.234.195-8.399-.383-1.229.604-2.279.196-3.711.743.22.8-1.758.783-2.93 2.815-7.04 4.838-15.301 7.636-22.854-.563.594-.416.733-1.37.781.081.375.758.155.587.782-1.917.081-3.157 1.717-3.133 4.297-.595-.423-.155.073-.195.195-.319 1.067-1.811 1.596-1.958 2.93-1.102.586-1.412 1.514-1.762 3.126h-.784c.082 1.188-.611 1.603-.587 2.734-2.284.773-.595 4.883-2.936 6.641.04 2.027-1.216 3.06-1.567 5.08-.187 0-.155-.237-.196-.391-.032 1.888-.979 4.297-1.957 5.86 1.06 1.342-1.248 2.905-.588 4.492-.612-.212-.628-.203-.587.586H6.11c.073-1.034-1.852-.098-1.566-1.172-2.53-1.367-5.368-2.897-4.307-7.032.26-1.001.538-2.263.783-3.125.457-1.62 1.386-3.28 1.958-4.688.367-3.125 2.275-5.461 2.74-8.595 1.232-2.034 2.554-5.55 3.525-7.813h.587c.913-3.386 3.1-5.82 4.307-9.376h.587c1.534-4.614 5.368-8.619 7.44-13.673 1.093-.806 1.852-2.97 2.35-3.711 1.354-.896 1.615-2.304 2.349-3.516.024-.05.302.268.391.195.261-.22-.057-1.79.98-1.563.13-1.806 2.234-3.206 2.349-4.688.824.106.775-.659.979-1.172 1.297.285 1.223-2.205 2.349-1.953.081-1.57 1.542-3.394 2.937-4.297.775-3.068 3.54-4.15 4.503-7.032 3.214-2.897 6.28-7.203 9.593-10.548.506-.504.93-1.343 1.566-1.953.963-.928 2.496-1.58 2.937-2.344.122-.212-.261-.61 0-.781 1.525-.627 2.088-2.214 3.524-2.93.677.105.865.7 1.762.586.22.61-.057.512.196.976 2.822 2.173 4.2 5.177 6.656 6.837.53 2.507-1.468 3.475-1.762 5.274-.032.228-.359.162-.587.195-.718 1.522-2.17 5.095-4.112 7.032-.138 2.06-1.982 3.133-2.936 4.688-.327.529-.253 1.392-.588 1.953-.26.432-.921.635-1.174 1.172-.13.285 0 .863-.196 1.172-.383.586-1.379.953-1.762 1.563-1.265 2.002-.791 5.168-3.328 6.641-.139.602-.139.374 0 .977-.84.537-.628 2.108-1.958 2.148-.098.61.538.871-.392.782-.049 1.09-.514 2.84-1.174 3.125-.025.35.236.415.195.781-.212-.048-.13-.39-.391-.39-.449.268-.074 1.359-.196 1.953-.604-.146-.236.675-.979.39-.22 1.352-.612 2.385-1.762 2.54.082.244.253.399.588.39-.776 1.075-1.24 1.327-1.371 3.126-.261.236-.31.073-.587 0 .114 1.278-.922 2.149-1.175 1.953-.082.472.359.423.196.977-.588.073-.424 1.522-1.566 1.563.489.341.318.358-.196.586.196 1.456-.8 3.182-1.762 4.102-.327 2.124-.898 4.053-2.35 5.469.93 1.09-.864 1.448-.391 2.93-.433.285-.571.862-1.175.976.147 2.247-1.631 5.348-2.74 6.446.652 1.148-.947 2.662-1.371 3.516.628 2.23-1.567 4.045-1.175 6.642-.685.227-.596 1.22-.587 2.148h-.588c.253.464.082 1.351.392 1.758 2.675-.651 2.765-3.882 4.894-5.079-.17-.952.563-1 .392-1.953 1.86-1.27 2.105-4.15 4.111-5.274-.155-.17-.212-.44-.195-.781 2.537-3.15 4.209-6.503 6.265-9.767h.783c-.057-.455-.49-.911.391-.78-.505-.978.865-1.222.783-1.954.278-.017.555-.033.588.195.342-.179.505-.684.196-.977-.229.033-.164.359-.196.586-.27-.056-.163-.488-.196-.78 1.909-.57 2.251-3.745 3.132-4.689.343-.545.514-.187 1.175-.195.033-.423-.163-.619-.587-.586.473-.643.514.065.587-.977.922.204.987-.447 1.37-.781-.489-.342-.212-.252-.195-.977.318-.057.334.187.587.195-.367-.35.155-.496 0-1.171.286-.228.49-.228.783 0 .58-1.205.506-2.068 1.762-2.344-.685-.358-.196-.676 0-1.172.433-.106.278.374.588.39.155-.04.195-.195.391-.195-.587-.456-.155-.757-.196-1.758.4.464.775-.269 1.175.195-.481-.806-.032-.423 0-1.367.261.073.31.342.587.39-.579-.878.76-1.253.588-2.343.767.179.497-.684 1.37-.391-.456-.83.514-1.099 1.175-1.367-.057-.773-.677.22-.587-.586h.783c-.604-.285-.033-1.294.391-.977v-1.367c.18.146.294.358.392.586.465-.318.204-1.36.783-1.563.228.033.163.358.196.586.391-.716.448-1.766 1.37-1.953-.016-.733-.22-.554 0-1.172.67.822.09-.31.392-.586.497.456.408-.562.783-1.172.449.863.563-.31 1.37-.196.098-.61-.603-.439-.391-1.172.375-.366.35.114.979 0 .138-.854-.392.155-.392-.39.204-.708 1.265.138 1.762-.586-.09-.293-.253.081-.587 0 .71-1.481 1.077-2.27 2.35-3.32-.874-.684.627-.302.39-1.173.613-.22.474.31.784.39-.016-.317-.669-1.163 0-1.952.432.43.652-.342 1.175-.391-.922-.318.84-1.237 1.566-2.344.987-1.506 2.072-3.638 3.524-5.47.31-.382 1.436-.309.979-1.171 1.33.057.391-1.31 1.566-.782.025-.35-.237-.415-.196-.781 1.567-1.01 1.428-2.979 3.72-3.516-.31-.488.139-1.327.588-.977-.245-.854.995-2.01.978-1.367.27-.057.164-.488.196-.781 1.346-.35 1.175-2.214 2.741-2.344.098-2.076 3.1-3.215 3.524-4.883 2.717-2.369 5.082-5.087 7.636-7.618h1.957c1.028.732 1.648 2.213 2.741 3.71.539.742 1.428 1.108 1.958 1.759.555.684.751 1.62 1.175 2.344.685 1.18 1.476 3.41-.196 5.079-.253.252-1.15-.09-.587.78-.743-.284-.375.538-.979.391.701.293.057.928-.783.782.832 1.18-.743.512-.588 1.953-.407.082-.522-.13-.783-.195v.586c.172.179.596.016.588.781-.261-.073-.31-.342-.588-.39zM79.136 37.99c-.456-.056-.848-.415-.978.196.505.146.905.993 1.37.586-.18-.342-.065-.977-.392-1.172v.39zm.784 1.172c.293-.032.726.074.783-.195-.8-.44.97-.96.195-1.367-.032.488-.66.057-.783 0 .767.83-.913.732-.195 1.367 0-.106.154-.22.195 0-.122.008-.228.033-.195.196zm-18.796 20.9c-.48-.39-1.044-.496-1.566-.194.49.284.767.472 1.37.195 0 .106.156.22.197 0z" fill="#000"/></g><defs><clipPath id="clip0_1448_2599"><path fill="#fff" transform="translate(0 .878)" d="M0 0h169v114H0z"/></clipPath></defs></svg>