<svg width="99" height="70" fill="none" xmlns="http://www.w3.org/2000/svg"><path d="M20.019 16.095l-3.015-.439c.335-2.193.167-4.554.015-6.641-.26-3.692-.503-7.171 2.284-8.594 3.305-1.694 8.346 2.028 13.234 5.613.823.605 1.615 1.195 2.315 1.68l-1.751 2.466c-.731-.5-1.538-1.105-2.376-1.725-2.726-2.012-8.391-6.188-10.02-5.356-1.006.515-.823 3.026-.64 5.704.152 2.239.335 4.765-.046 7.292zm-4.812 31.302l-.975-.257C8.277 45.536.876 43.554.084 39.167c-.7-3.828 3.107-6.007 6.792-8.125 1.325-.756 2.696-1.543 3.93-2.42l1.766 2.466c-1.355.968-2.787 1.785-4.173 2.587-3.503 2.012-5.604 3.343-5.315 4.962.457 2.496 7.934 4.509 11.955 5.598l.975.257-.807 2.92v-.015zM36.984 66.46c-3.35 0-7.05-5.81-8.559-8.427l2.65-1.498c2.026 3.54 4.889 6.899 5.863 6.899.823-.182 2.178-3.465 2.711-6.597l3 .5c-.335 1.936-1.66 8.275-5.07 9.047-.199.045-.397.06-.61.06l.015.015zm-6.457-39.896c-3.122 0-5.665-2.526-5.665-5.628 0-3.101 2.543-5.628 5.665-5.628s5.665 2.527 5.665 5.628c0 3.102-2.543 5.628-5.665 5.628zm0-8.23a2.61 2.61 0 00-2.62 2.602 2.61 2.61 0 002.62 2.602 2.61 2.61 0 002.62-2.602 2.61 2.61 0 00-2.62-2.602zm-1.34 28.639c-4.325 0-7.843-3.495-7.843-7.791 0-4.297 3.518-7.792 7.843-7.792s7.843 3.495 7.843 7.792c0 4.296-3.518 7.791-7.843 7.791zm0-12.557c-2.635 0-4.797 2.133-4.797 4.766 0 2.632 2.147 4.765 4.797 4.765s4.797-2.133 4.797-4.765c0-2.633-2.147-4.766-4.797-4.766zM64.67 51.709c-.974 0-1.964-.288-2.847-.545-1.523-.439-3.092-.893-4.813-.424l-.807-2.92c2.559-.696 4.828-.045 6.473.44 1.63.468 2.177.574 2.482.226.899-.998-1.538-4.463-3-6.536-.685-.983-1.34-1.906-1.873-2.783l2.62-1.559c.471.787 1.096 1.665 1.75 2.603 2.468 3.51 5.27 7.488 2.787 10.272-.822.923-1.797 1.226-2.771 1.226z" fill="#fff"/><path d="M64.853 57.684c-3.426 0-6.822-.786-9.99-2.33-5.406-2.662-9.457-7.246-11.391-12.935-1.934-5.673-1.538-11.77 1.142-17.14 2.68-5.372 7.295-9.396 13.02-11.332 11.803-3.964 24.657 2.33 28.662 14.055 4.005 11.725-2.345 24.493-14.163 28.472a22.722 22.722 0 01-7.28 1.195v.016zm0-41.892c-2.07 0-4.187.333-6.259 1.03-4.95 1.663-8.954 5.143-11.254 9.803-2.315 4.66-2.665 9.924-.99 14.841s5.178 8.896 9.869 11.196c4.69 2.3 9.99 2.647 14.94.983 10.218-3.434 15.7-14.493 12.244-24.63-2.757-8.079-10.387-13.192-18.534-13.192l-.016-.03z" fill="#fff"/><path d="M90.423 70h-.122c-2.406-.046-4.675-1.12-6.38-3.056L73.64 54.78l2.33-1.952 10.264 12.134c1.112 1.255 2.574 1.966 4.112 1.997 1.386.015 2.787-.56 3.899-1.634 1.112-1.075 1.736-2.557 1.705-4.07-.03-1.483-.7-2.86-1.873-3.888l-11.94-10.47 2.01-2.269 11.94 10.47c1.813 1.588 2.848 3.752 2.91 6.081.06 2.345-.9 4.66-2.62 6.324-1.675 1.604-3.777 2.481-5.955 2.481V70zm-36.306-2.936c-1.812 0-3.32-1.558-4.797-3.07-1.264-1.302-2.696-2.77-4.69-4.07-3.99-2.587-13.646-1.982-17.85-.212-1.827.771-3.274 1.649-4.553 2.436-2.482 1.512-4.614 2.814-7.142 1.361-3.275-1.876-2.36-6.112-1.478-10.212l.29-1.407c.106-.56.259-1.09.411-1.604.396-1.407.61-2.269.228-3.237-4.736-5.764-4.507-12.95-4.37-16.869-1.219-2.693-2.955-4.145-4.356-5.31-1.568-1.316-3.35-2.799-2.36-5.31 1.203-3.056 5.315-3.374 9.29-3.677 1.446-.106 2.923-.227 4.142-.469a25.511 25.511 0 0118.534-7.988c3.243 0 5.97-.711 8.863-2.3 1.447-.801 2.528-1.754 3.487-2.602C49.442 1.042 51.33-.622 53.904.845c3.304 1.906 2.954 6.823 2.665 10.787l-3.046-.212c.198-2.784.503-6.99-1.157-7.943-.533-.302-.747-.317-2.59 1.317-1.02.907-2.299 2.027-4.035 2.98-3.366 1.86-6.564 2.693-10.34 2.693a22.422 22.422 0 00-16.6 7.353 1.516 1.516 0 01-.762.454c-1.523.378-3.32.514-5.056.65-2.756.212-6.183.484-6.686 1.77-.152.378-.121.545 1.493 1.891 1.614 1.347 3.822 3.208 5.33 6.748.091.197.122.424.122.635v.273c-.137 3.782-.366 10.136 3.807 15.068.092.106.168.212.213.348.96 2.103.457 3.903 0 5.492-.121.454-.259.908-.35 1.377l-.304 1.437c-.655 3.04-1.325 6.188.03 6.96.883.514 1.706.09 4.036-1.317 1.294-.787 2.909-1.77 4.965-2.633 4.888-2.057 15.731-2.753 20.696.47 2.284 1.482 3.898 3.146 5.208 4.493 1.92 1.982 2.406 2.315 2.924 2.027.579-.333 1.249-1.815 1.356-4.992l3.045.105c-.137 4.025-1.08 6.476-2.878 7.504-.655.379-1.264.53-1.843.53l-.03-.046z" fill="#fff"/><path d="M55.686 54.916a57.874 57.874 0 00-.472-4.266c-.96-6.536 2.954-12.346 7.111-14.51 1.676-.861 3.183-1.33 4.417-1.709 2.498-.771 2.589-.953 2.589-1.8 0-1.74-2.985-3.283-5.863-4.766a52.095 52.095 0 01-1.584-.832c-4.736-2.541-7.432-5.84-8.24-10.106l3.001-.56c.64 3.359 2.756 5.9 6.686 8.004.517.272 1.035.544 1.553.801 3.685 1.907 7.508 3.889 7.508 7.459 0 3.222-2.513 4.01-4.721 4.69-1.158.363-2.482.772-3.899 1.513-3.29 1.71-6.244 6.445-5.513 11.407a63.8 63.8 0 01.503 4.478l-3.046.227-.03-.03z" fill="#fff"/></svg>