<svg width="87" height="82" fill="none" xmlns="http://www.w3.org/2000/svg"><path d="M65.227 82c-2.032 0-3.759-1.787-5.562-3.65-1.467-1.513-3.285-3.407-5.745-5.01-4.92-3.223-16.823-2.49-21.972-.306-2.246.947-4.018 2.031-5.577 2.994-2.903 1.787-5.424 3.314-8.312 1.65-3.759-2.17-2.674-7.225-1.635-12.097.122-.565.245-1.13.352-1.71.137-.657.32-1.299.488-1.925.474-1.65.81-2.856.245-4.23-5.73-6.98-5.424-15.748-5.256-20.482-1.513-3.406-3.667-5.224-5.41-6.69-1.91-1.604-3.88-3.253-2.765-6.094 1.39-3.528 6.25-3.895 10.956-4.261 1.803-.138 3.667-.29 5.164-.596A30.52 30.52 0 0142.491 9.88c3.988 0 7.365-.885 10.925-2.856 1.787-.992 3.117-2.168 4.293-3.222C59.741 1.983 61.85.12 64.753 1.8c3.85 2.23 3.407 8.11 2.98 13.807l-.031.428c-.489 6.69 2.047 11.027 8.495 14.51.627.335 1.269.671 1.895.992C82.462 33.813 87 36.165 87 40.319c0 3.696-2.78 4.551-5.485 5.391-1.421.443-3.041.947-4.783 1.864-4.095 2.138-7.777 8.064-6.876 14.28 1.1 7.59 1.544 17.152-2.582 19.535-.733.427-1.42.61-2.078.61h.03zM43.484 68.177c4.614 0 9.183.764 12.086 2.673 2.735 1.787 4.676 3.803 6.25 5.437 2.52 2.612 3.147 2.994 3.972 2.52 1.604-.931 2.582-6.4 1.115-16.51-1.13-7.804 3.515-14.77 8.45-17.366 1.986-1.038 3.82-1.603 5.287-2.061 2.994-.932 3.376-1.222 3.376-2.536 0-2.321-3.544-4.17-7.288-6.124-.642-.336-1.299-.672-1.94-1.024-7.441-4.017-10.635-9.53-10.054-17.365l.03-.428c.337-4.551.719-9.714-1.497-10.997-.901-.519-1.36-.305-3.545 1.65-1.222 1.084-2.75 2.444-4.828 3.604-4.034 2.23-7.839 3.238-12.377 3.238a27.534 27.534 0 00-20.398 9.072c-.198.23-.458.382-.748.443-1.819.443-3.988.611-6.082.78-3.606.274-7.7.595-8.403 2.382-.275.687-.138.993 1.894 2.703 1.925 1.62 4.584 3.85 6.372 8.11.091.199.122.413.122.627v.336c-.168 4.368-.443 12.493 4.69 18.618.093.107.154.213.215.336 1.115 2.443.52 4.582 0 6.46-.153.55-.321 1.115-.443 1.71l-.367 1.742c-.856 4.017-1.666 7.805.199 8.889 1.237.718 2.292.199 5.24-1.604 1.574-.962 3.515-2.153 5.975-3.192 2.995-1.267 7.869-2.108 12.697-2.108v-.015z" fill="#fff"/><path d="M56.96 49.468c-4.125 0-7.486-3.36-7.486-7.484 0-4.124 3.361-7.484 7.487-7.484 4.125 0 7.487 3.36 7.487 7.484 0 4.123-3.362 7.484-7.487 7.484zm0-11.975a4.498 4.498 0 00-4.492 4.49 4.498 4.498 0 004.492 4.491 4.499 4.499 0 004.493-4.49 4.499 4.499 0 00-4.492-4.49zm-20.321-3.589c-3.59 0-6.525-2.932-6.525-6.522 0-3.589 2.934-6.521 6.525-6.521 3.59 0 6.524 2.917 6.524 6.521a6.52 6.52 0 01-6.524 6.522zm0-10.05a3.54 3.54 0 00-3.53 3.529 3.54 3.54 0 003.53 3.528 3.54 3.54 0 003.53-3.529 3.54 3.54 0 00-3.53-3.528zm-1.635 34.93c-5.042 0-9.152-4.108-9.152-9.148s4.11-9.15 9.152-9.15c5.042 0 9.152 4.11 9.152 9.15s-4.11 9.148-9.152 9.148zm0-15.303c-3.392 0-6.158 2.764-6.158 6.155 0 3.39 2.766 6.155 6.158 6.155 3.392 0 6.157-2.765 6.157-6.155 0-3.391-2.765-6.156-6.157-6.156zm-7.976-26.255l-2.918-.703c.84-3.513.443-6.384.122-8.69-.413-2.978-.825-6.064 2.765-7.545C31.902-1.728 42.17 7.39 45.212 10.23l-2.048 2.184c-5.546-5.193-12.85-10.249-15.02-9.363-1.283.52-1.39 1.054-.947 4.368.336 2.429.795 5.743-.183 9.79l.015.016zm-8.954 40.565c-2.689-.473-16.165-3.115-17.877-8.92-1.864-6.322 10.039-12.95 12.438-14.218l1.39 2.657C8.952 39.983 2.2 45.07 3.07 48.032c.87 2.978 9.595 5.788 15.524 6.827l-.52 2.948v-.016zm55.908-26.254l-1.88-2.337c3.729-2.994 7.212-7.24 6.464-8.797-1.024-2.108-7.762-1.65-11.995-.672l-.672-2.918c2.14-.504 12.942-2.718 15.371 2.291 2.185 4.537-5.699 11.15-7.288 12.433zM45.134 81.938c-4.828 0-9.381-9.057-10.283-10.981l2.705-1.283c2.276 4.796 5.943 9.637 7.746 9.24 2.017-.458 3.285-5.452 3.5-8.675l2.994.199c-.076 1.053-.825 10.263-5.837 11.394a3.83 3.83 0 01-.84.091l.015.015zm33.554-19c-1.177 0-2.384-.442-3.499-.855-1.956-.718-3.973-1.466-6.555-.763l-.794-2.887c3.53-.962 6.34.076 8.388.84 2.246.84 2.75.87 3.33.214 1.468-1.665-2.077-8.034-5.21-12.005l2.354-1.848c1.512 1.91 8.831 11.638 5.103 15.838-.978 1.1-2.048 1.482-3.117 1.482v-.016z" fill="#fff"/></svg>