<svg width="331" height="58" fill="none" xmlns="http://www.w3.org/2000/svg"><g clip-path="url(#clip0_1373_14)"><path d="M20.37 34.807c0 1.27-.268 2.45-.802 3.54a8.016 8.016 0 01-2.242 2.748c-.965.762-2.108 1.345-3.43 1.763-1.321.418-2.776.627-4.35.627-1.885 0-3.578-.254-5.062-.776C2.999 42.2 1.499 41.334 0 40.139l2.48-4.048c1.187 1.001 2.256 1.733 3.221 2.196.95.463 1.93.687 2.94.687 1.232 0 2.212-.313 2.969-.956.757-.642 1.113-1.493 1.113-2.584 0-.463-.074-.896-.207-1.3-.134-.403-.386-.821-.743-1.254-.356-.418-.86-.896-1.5-1.39a73.693 73.693 0 00-2.449-1.851 62.524 62.524 0 01-2.242-1.673 18.196 18.196 0 01-1.99-1.853 8.452 8.452 0 01-1.44-2.21c-.356-.807-.549-1.748-.549-2.779 0-1.195.253-2.3.743-3.286a7.589 7.589 0 012.034-2.524c.86-.702 1.885-1.24 3.103-1.628 1.202-.389 2.509-.583 3.934-.583 1.5 0 2.94.194 4.335.598a14.56 14.56 0 013.89 1.762L17.4 19.108c-1.53-1.076-3.147-1.628-4.84-1.628-1.024 0-1.885.269-2.553.806-.669.538-1.01 1.21-1.01 2.032 0 .776.297 1.479.89 2.091.595.627 1.619 1.479 3.074 2.614a65.32 65.32 0 013.637 2.838c.965.807 1.723 1.583 2.287 2.3.564.717.935 1.434 1.158 2.181.222.762.326 1.569.326 2.465zm25.46-6.827c0 1.12-.119 2.33-.356 3.63a12.51 12.51 0 01-1.188 3.6c-.564 1.105-1.292 2.017-2.197 2.719-.906.717-2.064 1.075-3.445 1.075-2.316 0-4.142-.926-5.478-2.793-1.336-1.852-2.004-4.407-2.004-7.648 0-3.33.668-5.96 2.034-7.917 1.35-1.956 3.192-2.927 5.508-2.927 2.197 0 3.934.926 5.21 2.748 1.278 1.837 1.916 4.347 1.916 7.514zm8.047-.283c0-2.166-.312-4.138-.92-5.9-.624-1.778-1.485-3.302-2.628-4.586a12.087 12.087 0 00-4.039-2.988c-1.558-.716-3.28-1.075-5.166-1.075-2.079 0-3.905.403-5.479 1.18-1.573.792-3.043 2.031-4.38 3.734l-.044-4.227h-7.408v43.452h7.393V38.93c.728.852 1.426 1.569 2.108 2.151.669.583 1.352 1.06 2.05 1.42a8.201 8.201 0 002.197.776c.772.15 1.603.224 2.479.224 1.96 0 3.8-.403 5.493-1.18a12.979 12.979 0 004.395-3.33c1.232-1.435 2.197-3.108 2.895-5.005.712-1.912 1.054-4.018 1.054-6.288zm3.296 15.101h7.601V.288h-7.601v42.51zm40.026.015V13.805h-7.602v15.61c0 1.389-.059 2.464-.178 3.226a8.547 8.547 0 01-.579 2.061c-1.069 2.39-3.043 3.6-5.909 3.6-2.241 0-3.8-.807-4.691-2.435-.356-.612-.594-1.314-.728-2.09-.133-.778-.207-1.898-.207-3.377V13.805h-7.602v16.476c0 1.12.015 2.076.03 2.838s.074 1.464.148 2.061c.075.598.164 1.135.268 1.599a5.8 5.8 0 00.43 1.329c.698 1.777 1.811 3.122 3.37 4.033 1.56.911 3.474 1.36 5.731 1.36 2.034 0 3.83-.36 5.374-1.076 1.544-.717 3.044-1.882 4.499-3.51l.015 3.883 7.63.015zm32.751-.015V26.352c0-1.12-.015-2.076-.029-2.868-.015-.791-.06-1.478-.149-2.06a14.066 14.066 0 00-.282-1.524 16.453 16.453 0 00-.401-1.3c-.698-1.733-1.811-3.077-3.37-4.018-1.559-.941-3.474-1.42-5.746-1.42-2.034 0-3.83.36-5.374 1.076-1.544.717-3.044 1.897-4.498 3.51l-.015-3.883h-7.646v28.948h7.661V27.189c0-1.345.044-2.405.148-3.152a8.412 8.412 0 01.549-2.121c.49-1.165 1.262-2.031 2.287-2.629 1.024-.597 2.241-.896 3.667-.896 2.242 0 3.8.807 4.691 2.435.342.612.579 1.314.713 2.076.133.762.208 1.897.208 3.36v16.521l7.586.015zm31.445-1.912l-11.58-14.474 9.784-10.545-5.761-2.495-10.184 11.875h-.802V.287h-7.661v42.511h7.661v-15.4l11.461 15.983 7.082-2.495zM191 30.49v-4.735l-23.027-11.621v5.213l17.846 8.738-17.846 8.858v5.093L191 30.49zM170.2 6.62c-1.41 0-2.554 1.166-2.554 2.6 0 1.463 1.144 2.614 2.554 2.614 1.425 0 2.554-1.15 2.554-2.614 0-1.45-1.129-2.6-2.554-2.6zm.015.404c1.143 0 2.064.986 2.064 2.21 0 1.225-.921 2.211-2.064 2.196-1.158 0-2.079-.97-2.079-2.21 0-1.21.921-2.196 2.079-2.196zm-.49 2.464h.312c.371 0 .549.135.623.508.06.389.134.643.193.732h.49c-.044-.09-.119-.269-.178-.717-.059-.433-.223-.657-.49-.702v-.03c.312-.09.564-.328.564-.702 0-.269-.089-.478-.267-.597-.178-.135-.46-.224-.891-.224-.341 0-.579.03-.816.074v2.898h.46v-1.24zm0-1.344c.074-.015.178-.03.327-.03.519 0 .697.254.697.508 0 .359-.326.493-.697.493h-.327v-.971z" fill="#000"/></g><defs><clipPath id="clip0_1373_14"><path fill="#fff" transform="translate(0 .287)" d="M0 0h331v57H0z"/></clipPath></defs></svg>