<svg width="126" height="100" fill="none" xmlns="http://www.w3.org/2000/svg"><g id="uuid-fb1ca0fb-f137-442c-8040-bcf8735a148a" clip-path="url(#clip0_1448_1953)"><path id="Vector" d="M49.603 0C21.787 0 0 21.785 0 49.582S21.787 100 49.603 100c27.816 0 50.407-22.154 50.407-50.418S77.87 0 49.603 0zm24.874 49.582c0 14.196-10.693 24.887-24.874 24.887s-24.07-10.69-24.07-24.887c0-14.196 10.564-24.035 24.07-24.035s24.874 10.562 24.874 24.035z" fill="#000"/><path id="Vector_2" d="M110.236 68.215c-8.361 0-14.905 6.544-14.905 14.904s6.544 15.16 14.905 15.16 15.162-6.655 15.162-15.16c0-8.505-6.656-14.904-15.162-14.904zm7.477 14.904c0 4.26-3.216 7.476-7.477 7.476s-7.235-3.216-7.235-7.476 3.183-7.235 7.235-7.235c4.052 0 7.477 3.183 7.477 7.235z" fill="#FA198C"/></g><defs><clipPath id="clip0_1448_1953"><path fill="#fff" d="M0 0h125.382v100H0z"/></clipPath></defs></svg>