<svg width="135" height="35" fill="none" xmlns="http://www.w3.org/2000/svg"><path d="M0 28.14l1.31-2.063a6.765 6.765 0 004.455 1.843c1.72 0 2.621-.718 2.621-1.763 0-2.614-7.977-.742-7.977-5.86 0-2.175 1.862-4.018 5.19-4.018a7.518 7.518 0 015.111 1.832l-1.204 2.036c-.798-.879-2.239-1.607-3.906-1.607-1.502 0-2.43.717-2.43 1.655 0 2.335 7.976.576 7.976 5.86 0 2.366-1.94 4.155-5.49 4.155-2.268.021-4.29-.72-5.656-2.07zm22.982 1.756v-1.76a6.314 6.314 0 01-2.108 1.542c-.801.36-1.668.55-2.546.553-2.842 0-4.254-1.513-4.254-4.21v-9.413h2.872v8.339c0 2.065 1.037 2.724 2.677 2.724a4.337 4.337 0 001.875-.482 4.37 4.37 0 001.484-1.251v-9.33h2.869v13.288h-2.87zm6.645 0V16.608h2.869v1.929c1.01-1.267 2.595-2.258 4.289-2.258v2.863a3.849 3.849 0 00-.875-.083c-1.228 0-2.84.825-3.414 1.787v9.05h-2.87zm23.702-1.756l1.308-2.063a6.765 6.765 0 004.454 1.843c1.72 0 2.624-.718 2.624-1.763 0-2.614-7.977-.742-7.977-5.86 0-2.175 1.862-4.018 5.19-4.018a7.513 7.513 0 015.109 1.832l-1.202 2.036c-.798-.879-2.242-1.607-3.909-1.607-1.502 0-2.428.717-2.428 1.655 0 2.336 7.977.576 7.977 5.86 0 2.366-1.938 4.155-5.49 4.155-2.269.021-4.292-.72-5.656-2.07zm13.284-4.9c0-4.017 2.813-6.964 6.802-6.964 2.595 0 4.124 1.101 5.052 2.368l-1.883 1.733a3.511 3.511 0 00-1.319-1.165 3.481 3.481 0 00-1.715-.375c-2.377 0-3.988 1.813-3.988 4.4 0 2.588 1.611 4.431 3.988 4.431a3.53 3.53 0 003.034-1.607l1.883 1.786c-.928 1.24-2.457 2.368-5.052 2.368-3.989.016-6.802-2.957-6.802-6.975zm14.467 6.656V16.608h2.867v1.929c1.01-1.267 2.595-2.258 4.289-2.258v2.863a3.849 3.849 0 00-.875-.083c-1.228 0-2.84.825-3.414 1.787v9.05h-2.866zm9.534 0V16.608h2.869v13.288h-2.87zm9.513-1.84v6.828H97.26V16.608h2.867v1.816a5.267 5.267 0 011.865-1.578 5.23 5.23 0 012.371-.564c3.414 0 5.849 2.584 5.849 6.964 0 4.38-2.433 6.99-5.849 6.99-1.668-.005-3.143-.776-4.236-2.18zm7.131-4.821c0-2.587-1.475-4.4-3.741-4.4a4.277 4.277 0 00-1.899.48 4.313 4.313 0 00-1.491 1.279v5.255a4.33 4.33 0 001.483 1.31 4.284 4.284 0 001.907.506c2.266.006 3.741-1.837 3.741-4.425v-.005zm13.538 4.905l1.311-2.063a6.763 6.763 0 004.443 1.843c1.72 0 2.621-.718 2.621-1.763 0-2.614-7.976-.742-7.976-5.86 0-2.175 1.861-4.018 5.19-4.018a7.512 7.512 0 015.121 1.832l-1.204 2.036c-.798-.879-2.239-1.607-3.904-1.607-1.505 0-2.433.717-2.433 1.655 0 2.336 7.977.576 7.977 5.86 0 2.366-1.938 4.155-5.488 4.155-2.271.021-4.289-.72-5.658-2.07zM93.695 13.29c0 .328-.097.65-.278.922a1.637 1.637 0 01-2.537.252 1.664 1.664 0 01-.357-1.81c.125-.303.337-.563.608-.745a1.64 1.64 0 012.081.206c.31.312.483.734.483 1.175zm20.043 13.502v-7.677h-2.183v-2.507h2.183V13.29h2.87v3.321h2.677v2.507h-2.677v6.964c0 .908.436 1.607 1.257 1.607.417.017.832-.06 1.215-.227v2.41a4.552 4.552 0 01-1.954.383c-2.236 0-3.388-1.21-3.388-3.439M23.33 2.308c-8.812 0-16.47 4.484-20.36 11.07l-.463-.174a23.21 23.21 0 018.522-9.627A22.972 22.972 0 0123.33 0c4.354 0 8.618 1.24 12.303 3.576a23.21 23.21 0 018.521 9.627l-.462.174C39.8 6.786 32.154 2.308 23.33 2.308zm25.962 24.106a5.538 5.538 0 01-3.722 1.452c-2.486 0-3.962-1.68-4.18-3.659h10.162v-.718c0-4.18-2.512-7.207-6.474-7.207-3.906 0-6.693 3.11-6.693 6.964 0 4.21 2.925 6.988 6.913 6.988 1.995 0 3.859-.64 5.188-1.81a32.936 32.936 0 01-1.194-2.01zm-4.254-7.767c2.595 0 3.659 1.928 3.741 3.495h-7.424c.107-1.599 1.258-3.495 3.688-3.495h-.005zm88.726-2.229a1.243 1.243 0 011.212 1.489 1.242 1.242 0 01-.971.978 1.23 1.23 0 01-1.27-.53 1.253 1.253 0 01.155-1.572c.232-.233.546-.364.874-.365zm0 2.21a.954.954 0 00.912-.567.965.965 0 00-.671-1.34.95.95 0 00-.994.403.969.969 0 00-.165.54.943.943 0 00.258.676.926.926 0 00.66.288zm-.476-1.631h.417c.298 0 .585.072.585.386a.386.386 0 01-.292.401l.332.52h-.335l-.298-.504h-.077v.504h-.319l-.013-1.307zm.316.535h.157c.08 0 .21 0 .21-.142 0-.141-.13-.139-.21-.139h-.157v.281z" fill="#005677"/></svg>