<svg width="210" height="84" fill="none" xmlns="http://www.w3.org/2000/svg"><path d="M77.777 48.477c-.9 0-1.5-.8-1.5-1.8v-7.2h3.3v-3.7h-3.3v-4.4h-4.3v4.4h-2.7v3.7h2.7v8.4c0 2.9 1.6 4.5 4.5 4.5 1.3.1 2.5-.3 3.5-1.1l-.8-3.3c-.3.4-.8.6-1.4.5zm11.2-13.1c-4.5-.1-8.3 3.6-8.4 8.1v.3c0 5.2 3.7 8.5 8.6 8.5 2.4.1 4.8-.7 6.7-2.3l-2-2.7c-1.2 1-2.7 1.5-4.3 1.6-2.2.2-4.3-1.4-4.7-3.6h12v-1c.2-5.3-3.1-8.9-7.9-8.9zm-4 6.9c.3-2.2 2.3-3.7 4.5-3.4 1.8.2 3.2 1.6 3.4 3.4h-7.9zm23.5-6.9c-2.1 0-4.2.9-5.7 2.5v-2.1h-4.3v16.1h4.3v-10.9c.9-1.2 2.2-1.8 3.7-1.9 1.8 0 3 .8 3 3v9.8h4.3v-11.3c0-3.2-1.7-5.2-5.3-5.2zm14.6 0c-2.6-.1-5.1.8-7.1 2.5l1.7 3c1.3-1.2 2.9-1.9 4.7-1.9 2.1 0 3.5 1.1 3.5 2.7v2.1c-1.3-1.4-3.2-2.1-5.1-2-2.6 0-5.6 1.4-5.6 5.2 0 2.9 2.4 5.3 5.3 5.3h.2c1.9.1 3.8-.7 5.1-2.1v1.7h4.3v-10.4c.1-4.6-3.3-6.1-7-6.1zm2.8 12.7c-.9.9-2.1 1.5-3.4 1.4-1.7 0-3.1-.9-3.1-2.4s1.4-2.5 3.1-2.5c1.3-.1 2.5.5 3.4 1.5v2zm15.3-12.7c-2 0-3.8.9-5 2.5v-8.2h-4.3v22.3h4.3v-2.1c1.2 1.5 3 2.5 5 2.5 4.1 0 7.1-3.1 7.1-8.5 0-5.3-3-8.5-7.1-8.5zm-1.3 13.1c-1.4 0-2.8-.7-3.7-1.8v-5.7c.9-1.1 2.2-1.8 3.7-1.9 2.5 0 4.1 1.9 4.1 4.7 0 2.9-1.6 4.7-4.1 4.7zm14.2-18.8h-4.3v22.3h4.3v-22.3zm9.9 5.7c-4.5-.1-8.3 3.6-8.4 8.1v.3c0 5.2 3.7 8.5 8.6 8.5 2.4.1 4.8-.7 6.7-2.3l-1.9-2.8c-1.2 1-2.7 1.5-4.3 1.6-2.2.2-4.3-1.4-4.7-3.6h12v-1c0-5.2-3.2-8.8-8-8.8zm-3.9 6.9c.3-2.2 2.3-3.7 4.5-3.4 1.8.2 3.2 1.6 3.4 3.4h-7.9zm13.1-7.3c.1-.1.1-.2.1-.3 0-.3-.2-.5-.7-.5h-.4v1.5h.3v-.6h.1l.3.6h.4l-.4-.7c.1.1.2 0 .3 0zm-.6-.1h-.1v-.5h.1c.1 0 .2 0 .3.1.1.1.1.1.1.2-.1.1-.2.2-.4.2z" fill="#fff"/><path d="M173.877 34.277c-.2-.4-.7-.7-1.2-.7-.3 0-.5.1-.7.2-.2.1-.4.3-.5.5-.1.2-.2.5-.2.7 0 .3.1.5.2.7.2.4.7.7 1.2.7.3 0 .5-.1.7-.2.2-.1.4-.3.5-.5.1-.2.2-.5.2-.7-.1-.2-.1-.5-.2-.7zm-.3 1.3c-.1.2-.2.3-.4.4-.2.1-.4.1-.6.1-.2 0-.4 0-.5-.1l-.4-.4c-.2-.4-.2-.8 0-1.2.1-.2.2-.3.4-.4.2-.1.3-.2.5-.1.2 0 .4.1.6.1.2.1.3.2.4.4.2.4.2.8 0 1.2zm-110.7-4.2c.1.3.4 1.5.7 2.6l2.3 8.8c.3 1.1.6 2.3.7 2.6.1.5 0 1-.3 1.3l-1.9 1.9-6.5 6.5-1.9 1.9c-.4.3-.9.5-1.3.3-.3-.1-1.5-.4-2.6-.7l-8.8-2.3c-1.1-.3-2.3-.6-2.6-.7-.2-.1-.5-.2-.6-.4-.2-.2-.3-.4-.4-.6-.1-.3-.4-1.5-.7-2.6l-2.3-8.9c-.3-1.1-.6-2.3-.7-2.6l.3-.1.3-.1c.1.3.4 1.5.7 2.6l2.4 8.8c.3 1.1.6 2.3.7 2.6.1.1.1.2.3.3.1.1.2.1.3.2l2.6.7 8.8 2.3c1.1.3 2.3.6 2.6.7.2.1.5 0 .7-.2l1.9-1.9 6.5-6.5 1.9-1.9c.1-.2.2-.4.2-.7-.1-.3-.4-1.5-.7-2.6l-2.4-8.7c-.3-1.1-.6-2.3-.7-2.6-.1-.1-.1-.2-.2-.3 0-.1-.1-.1-.3-.2l-2.6-.7-8.8-2.3c-1.1-.3-2.3-.6-2.6-.7-.2-.1-.5 0-.7.2l-2.1 2-6.4 6.4-1.8 2c-.1.2-.2.4-.2.7l-.3.1-.3.1c-.1-.5 0-1 .3-1.3l1.9-1.9 6.5-6.5 1.9-1.9c.4-.3.9-.5 1.3-.3.3.1 1.5.4 2.6.7l8.8 2.3c1.1.3 2.3.6 2.6.7.2.1.5.2.6.4.1.1.2.3.3.5z" fill="#fff"/><path d="M51.877 29.077c.3.1 1.1.7 1.9 1.1l6.5 3.7c.8.5 1.7 1 1.9 1.1.3.2.6.6.6 1v12c0 .4-.2.8-.6 1-.3.1-1.1.7-1.9 1.1l-6.5 3.7c-.8.5-1.7 1-1.9 1.1-.4.2-.8.2-1.1 0-.3-.1-1.1-.7-1.9-1.1l-6.5-3.7-1.9-1.1.1-.3.1-.3 1.9 1.1 6.5 3.7 1.9 1.1c.1.1.2.1.3.1.1 0 .2 0 .3-.1l1.9-1.1 6.5-3.7 1.9-1.1c.1-.1.2-.3.3-.5v-11.8c0-.2-.1-.4-.3-.5-.3-.1-1.1-.7-1.9-1.1l-6.5-3.7c-.8-.5-1.7-1-1.9-1.1-.2-.1-.4-.1-.5 0l-1.9 1.1-6.5 3.7c-.8.5-1.7 1-1.9 1.1-.1.1-.2.3-.3.5v11.9c0 .2.1.4.3.5l-.1.3-.2.2c-.4-.2-.6-.6-.7-1v-11.9c0-.4.2-.8.6-1 .3-.1 1.1-.7 1.9-1.1l6.5-3.7c.8-.5 1.7-1 1.9-1.1.2-.1.4-.1.6-.1.3-.1.4-.1.6 0z" fill="#fff"/><path d="M43.577 33.377l1.9-.5 6.5-1.7c.8-.2 1.7-.5 1.9-.5.4-.1.7 0 1 .3l1.4 1.4 4.7 4.7 1.4 1.4c.2.3.3.6.3 1-.1.3-.3 1.1-.5 1.9l-1.7 6.5c-.2.8-.5 1.7-.5 1.9-.1.4-.4.6-.7.7-.3.1-1.1.3-1.9.5l-6.5 1.7c-.8.2-1.7.5-1.9.5l-.2-.2-.1-.3 1.9-.5 6.5-1.7c.8-.2 1.7-.5 1.9-.5.1 0 .1-.1.2-.1s.1-.1.1-.2c.1-.3.3-1.1.5-1.9l1.7-6.5c.2-.8.5-1.7.5-1.9 0-.2 0-.3-.1-.5l-1.4-1.4-4.8-4.7-1.4-1.4c-.1-.1-.3-.2-.5-.1-.3.1-1.1.3-1.9.5l-6.5 1.7c-.8.2-1.7.5-1.9.5-.1 0-.1.1-.2.1-.1.1-.1.1-.1.2-.1.3-.3 1.1-.5 1.9l-1.7 6.5c-.2.8-.5 1.7-.5 1.9 0 .2 0 .3.1.5l1.4 1.4 4.7 4.7 1.4 1.4c.1.1.3.2.5.1l.1.3.1.3c-.4.1-.7 0-1-.3l-1.4-1.4-4.7-4.7-1.4-1.4c-.2-.3-.3-.6-.3-1 .1-.3.3-1.1.5-1.9l1.7-6.5c.2-.8.5-1.7.5-1.9 0-.2.1-.3.3-.5.3-.1.4-.2.6-.3z" fill="#fff"/><path d="M41.877 51.477c-5.2-5.2-5.2-13.7 0-19 5.2-5.3 13.7-5.2 19 0 5.2 5.2 5.2 13.7 0 18.9-5.3 5.3-13.8 5.3-19 .1zm18.5-.4c4.9-5 4.9-13.1-.1-18s-13.1-4.9-18 .1-4.9 13 .1 18c4.9 4.9 13 4.8 18-.1z" fill="#fff"/><path d="M51.777 32.377l1.4.8 4.8 2.8 1.4.8c.3.2.4.4.4.7v8.8c0 .3-.2.6-.4.7-.2.1-.8.5-1.4.8l-4.8 2.8c-.6.3-1.3.7-1.4.8-.3.1-.6.1-.9 0l-1.4-.8-4.8-2.8-1.4-.8.1-.2.1-.2 1.4.8 4.8 2.8c.6.3 1.3.7 1.4.8.1.1.3.1.4 0 .2-.1.8-.5 1.4-.8l4.8-2.8 1.4-.8c.1-.1.2-.2.2-.4v-8.8c0-.2-.1-.3-.2-.4-.2-.1-.8-.5-1.4-.8l-4.8-2.8c-.6-.3-1.3-.7-1.4-.8-.1-.1-.3-.1-.4 0-.2.1-.8.5-1.4.8l-4.8 2.8-1.4.8c-.1.1-.2.2-.2.4v8.8c0 .2.1.3.2.4l-.1.2-.1.2c-.2 0-.4-.3-.4-.6v-8.8c0-.3.2-.6.4-.7.2-.1.8-.5 1.4-.8l4.8-2.8 1.4-.8c.1-.1.3-.1.4-.1.2-.1.3-.1.5 0z" fill="#fff"/><path d="M44.277 48.877c-3.9-3.9-3.9-10.2 0-14 3.9-3.8 10.2-3.9 14 0 3.9 3.9 3.9 10.2 0 14-3.8 3.9-10.1 3.9-14 0zm13.7-.3c3.7-3.7 3.6-9.7-.1-13.4-3.7-3.7-9.7-3.6-13.4.1a9.54 9.54 0 000 13.3c3.8 3.7 9.7 3.7 13.5 0z" fill="#fff"/></svg>