<svg width="82" height="68" fill="none" xmlns="http://www.w3.org/2000/svg"><g id="uuid-b2c7ff33-024d-48a9-9d13-204b7ba23349" clip-path="url(#clip0_1448_2845)" fill="#000"><g id="Group"><path id="Vector" d="M30.058 25.053l.184.297c.069.11.159.161.268.035.058-.06.12-.168.178-.17.275.008.279-.195.251-.354-.026-.195.06-.225.207-.293.09-.044.179-.11.294-.134.275-.029.407-.216.391-.488-.003-.14-.072-.308.186-.233.143.041.292.055.436.06.288.01.394-.161.265-.446l-.11-.237c-.031-.087.012-.113.09-.08.105.053.208.107.323.141.042.01.093-.021.14-.04-.009-.052-.015-.119-.05-.156-.147-.144-.315-.264-.446-.418-.09-.109-.144-.252-.2-.382-.01-.017-.001-.058.005-.085a.266.266 0 01.075.024c.19.176.332.406.601.498.088.028.164.075.239.006.074-.07.027-.146.002-.225-.067-.24-.043-.279.16-.216.162.052.375.226.486.064.212-.343.747-.238.856-.67.238-.147.418-.446.769-.24.076.047.118.02.107-.054-.007-.031 0-.059-.017-.084a1.094 1.094 0 01-.12-.232c-.074-.177.079-.483.263-.526.146-.031.288-.049.433-.08.079-.025.188-.057.215-.109.17-.352.392-.278.645-.116.043.032.17.141.145-.032-.037-.212.114-.329.191-.47.096-.188.101-.18-.108-.462-.027-.042-.038-.118-.014-.156.023-.038.094-.094.136-.084.137.033.274.101.408.148.143.04.189 0 .209-.176a1.693 1.693 0 00-.01-.265c-.003-.08.048-.112.11-.068.11.084.203.004.3-.009.12-.015.264.084.374.168.184.146.373.3.494.495.173.28.382.504.697.615.168.061.288.199.411.322.94.971 1.983 1.82 2.992 2.713.307.268 3.019 2.754 3.422 3.14.107.098.177.231.285.33.29.278.577.571.872.86.834.777 1.682 1.523 2.516 2.3.083.079.154.175.209.283.106.228.247.4.507.44.25.044.382.256.557.407.078.07-.002.225-.075.316-.052.068-.156.109-.22.043-.113-.107-.364-.093-.31-.35.023-.096-.064-.16-.143-.193-.223-.075-.45-.157-.59-.365-.01-.017-.052-.026-.08-.033.005.044-.017.105.004.139.079.128.13.285.24.369.35.242.54.607.78.94.077.105.077.105.188-.116.056-.117.145-.183.28-.137.394.144.715.416.97.716.196.22.434.379.638.594.19.212.462.349.698.52.48.34.927.721 1.217 1.247.084.136.039.235-.18.3-.14.039-.191.07-.146.22.056.223.095.458.15.681.057.224-.068.384-.169.564-.097.166-.25.108-.387.133-.146.031-.278.007-.253.238.023.398-.333.583-.543.853-.017.01-.106-.04-.156-.044-.05-.005-.177-.173-.15.022.025.232.125.452.173.68.023.115.233.245.04.352-.093.058-.215-.044-.303-.13-.04-.046-.08-.092-.132-.118-.106-.076-.246-.037-.289.084a7.78 7.78 0 00-.19.682.485.485 0 01-.267.329c-.085.053-.254-.031-.281.115-.011.078.064.16.08.244.011.076.057.188-.087.183a.476.476 0 00-.451.22c-.056.082-.119.133-.197.063-.14-.113-.179-.042-.233.098-.163.382-.3.467-.648.435-.064-.008-.116-.035-.17-.047-.252-.045-.265-.049-.35.215-.042.12-.093.21-.216.24-.14.04-.29.062-.415.127-.116.06-.36-.013-.347.18.001.268-.37.239-.33.532.04.292-.156.508-.436.587-.36.104-.739.174-.92.567-.934.637-.585.727-1.674.2a3.327 3.327 0 01-.598-.359c-.087-.064-.182-.18-.173-.28-.009-.242-.152-.342-.305-.494-.607-.6-1.318-1.067-1.948-1.63-.893-.8-1.819-1.556-2.716-2.342-.439-.387-.939-.7-1.3-1.171-.499-.256-.913-.623-1.365-.955a13.979 13.979 0 01-1.954-1.755 4.715 4.715 0 00-.57-.541c-.736-.545-1.303-1.253-1.944-1.89-.582-.582-1.15-1.159-1.733-1.74-.31-.313-.633-.607-.91-.941-.616-.749-1.28-1.444-2.039-2.044-.189-.154-.339-.32-.335-.58.001-.19-.158-.314-.222-.475-.07-.169-.02-.411.148-.444.224-.056.306-.248.468-.347.178-.11.308-.262.428-.43.079-.119.2-.076.285.024.031.051.085.1.08.15-.019.235.139.338.313.43.17.083.261.003.319-.15.03-.066.07-.078.135-.048l-.013-.04zm22.143 6.902c.032.05.063.102.107.134.385.338.816.636 1.128 1.066.037.06.159.066.236.077.05.005.12-.015.152-.059.029-.029.016-.127-.009-.147-.42-.34-.847-.687-1.277-1.02-.092-.073-.19-.119-.294-.172l-.042.026c-.007.028 0 .059-.006.086l.005.009zM37.346 21.36c.058.094.101.126.133.177.057.093.157.102.185.015.025-.075.054-.198.02-.236-.119-.115-.257-.206-.4-.305-.011-.017-.05-.004-.073-.002.007.03 0 .058.008.089.04.104.09.203.118.267l.009-.005z"/><path id="Vector_2" d="M30.058 25.053c-.057-.036-.105-.018-.134.048-.058.153-.15.233-.32.15-.174-.092-.323-.2-.312-.43.005-.05-.058-.094-.08-.15.019-.083.055-.176.044-.251-.038-.176.032-.196.178-.169.425.079.711.372.973.68.015.026 0 .095-.014.15l-.084.016a2.753 2.753 0 01-.262-.025l.011-.02z"/></g><g id="Group_2"><path id="Vector_3" d="M28.245 55.148c-.148-.05-.302-.166-.439-.14-.486.088-.873-.12-1.233-.379-.192-.14-.389-.136-.604-.18-.576-.113-1.187-.112-1.729-.4a4.045 4.045 0 00-1.063-.39c-1.028-.199-2.025-.5-3.004-.847-1.368-.483-2.77-.887-4.146-1.365-.867-.299-1.752-.552-2.558-.982a2.183 2.183 0 00-.35-.148c-1.377-.383-2.66-1.013-4.002-1.512-1.13-.42-2.175-1.008-3.3-1.44-.507-.193-1.005-.39-1.503-.588-.16-.067-.123-.16-.027-.29.105-.135-.14-.324.064-.486.11-.09.117-.307.22-.406.266-.235.397-.48.214-.814.14-.38.249-.777.144-1.194-.022-.092.034-.174.108-.243.26-.208.307-.53.458-.8a.485.485 0 00.06-.342c-.065-.313.24-.56.157-.886-.015-.025.08-.12.124-.123.3-.01.394-.161.334-.43-.049-.193-.041-.41.077-.541.142-.17.204-.279.01-.44-.03-.03-.026-.138-.002-.176.163-.23.274-.487.589-.587.196-.063.178-.11.027-.24-.078-.07-.263-.085-.185-.262.064-.145.12-.263.331-.264.32.003.413-.15.255-.368-.242-.333-.264-.484-.05-.71.184-.196.484-.3.452-.656-.004-.044.148-.103.214-.167.278-.254.384-.672.218-.922-.08-.128-.322-.178-.226-.366.057-.117.241-.161.364-.248.119-.074.227-.07.356-.032.835.248 1.685.216 2.54.229.413.003.813.003 1.223.078.334.065.684.06 1.032.092 1.273.119 2.472.518 3.695.843 2.734.733 5.304 1.907 7.903 2.994.471.343 1.049.422 1.563.645.15.072.283.154.064.313-.068.042-.035.115.044.148.468.205.927.415 1.398.607l4.309 1.78a4.1 4.1 0 00.505.17c-.015.491.403.386.671.479.33.114.652.256.978.383.145.064.22-.042.312-.122.117-.096.25-.072.303.072.119.326.371.487.681.59.236.077.48.185.686.328.325.222.66.098.996.09.017-.01.04-.107.052-.162.015-.09.013-.207.143-.111.135.104.359.143.28.415-.031.101.03.24.06.362.053.296.058.305-.262.338-.067.006-.13-.002-.192.013-.11.032-.117.096-.054.198.142.23-.012.419-.126.595-.123.182-.289.331-.417.505-.029.03-.01.135.028.159.145.121.303.224.449.345.145.122.147.239.016.484-.119.226-.108.396.061.48.245.13.516.245.77.37.038.024.061.08.087.123-.05.031-.114.082-.155.072-.284-.06-.413.055-.422.343a.472.472 0 01-.302.445c-.22.1-.315.289-.39.51-.032.08-.086.184-.15.212-.08.025-.183-.028-.27-.056-.028-.007-.061-.022-.097-.023-.196-.032-.248.036-.24.277 0 .095.157.256-.074.28-.12.016-.283 0-.28.174-.003.072.1.162.167.214.19.118.395.203.597.301.3.144.058.188-.046.287-.057.06-.114.177-.094.247.126.51-.2.781-.543 1.005-.264.163-.529.362-.869.325-.022.002-.06.037-.068.042.01.053.02.129.059.152.375.227.83.298 1.167.596.01.016.023.056.017.083-.007.028-.039.071-.044.063-.241-.086-.474-.178-.71-.255a2.944 2.944 0 00-.546-.122c-.085-.006-.212.037-.255.1-.159.238-.32.49-.294.78.003.08.175.15.267.223.035.037.058.094.084.136-.05.032-.1.086-.15.081-.221-.016-.436-.06-.649-.08-.113-.013-.2.17-.117.248.124.124.17.236.141.418-.052.315-.04.354-.299.373-.397.022-.636.264-.807.558-.062.108-.03.218-.209.176-.468-.111-.885-.311-1.231-.662-.064-.066-.126-.146-.202-.193-.07-.038-.205-.085-.25-.045-.235.192-.476.106-.72.034-.385-.127-.786-.244-1.034-.608-.076-.047-.154-.116-.226-.119-.198.005-.368-.043-.493-.189-.2-.229-.235.04-.337.102l-.079.026zm8.515-9.963s.022-.06.015-.09c-.008-.032-.02-.071-.048-.078-.433-.32-.924-.487-1.451-.56-.014-.004-.051.031-.058.059-.012.019-.008.063-.002.072.481.208.965.402 1.455.605.02.012.059 0 .08-.003l.01-.005z"/><path id="Vector_4" d="M36.898 44.171a.766.766 0 01-.667-.222s.025-.075.047-.077c.257-.04.483.02.662.215.005.008-.027.052-.042.084z"/></g><g id="Group_3"><path id="Vector_5" d="M74.7 29.997l.019.2c.01.323-.043.426-.293.534a.367.367 0 01-.175.06 1.422 1.422 0 00-.876.39c-.13.114-.24.218-.417.257-.243.044-.446.134-.516.401-.01.041-.123.087-.155.072-.505-.264-.668.271-1 .418-.073.034-.054.104.005.161.07.075.131.155.175.245.1.22.476.294.367.632-.28-.074-.431-.298-.605-.485-.07-.074-.14-.149-.212-.21-.121-.101-.166-.003-.19.094-.07.208-.186.115-.295.053-.071-.038-.145-.158-.23-.069-.079.084-.007.18.054.26l.105.17c.032.11-.013.208-.13.21-.188-.002-.348-.032-.546.067-.477.236-.993.085-1.42-.169-.702-.413-1.158-1.094-1.659-1.714-.162-.206-.152-.494-.29-.737-.803-1.432-1.828-2.692-2.89-3.916l-2.693-3.085a5.981 5.981 0 01-.375-.473c-1.19-1.735-2.587-3.293-4.018-4.83-1.089-1.172-2.186-2.34-3.141-3.619-.597-.795-1.14-1.635-1.708-2.46-.275-.406-.199-.911.176-1.237.418-.046.435-.55.8-.682.358-.127.394-.62.794-.714.221-.536.747-.732 1.158-1.056.73-.569 1.455-1.146 2.05-1.877.245-.305.538-.592.872-.775.218-.123.306-.342.51-.432.103-.04.281.038.352-.018.089-.066.1-.238.157-.355a.531.531 0 01.13-.151c.44-.354.876-.694 1.32-1.04.08-.06.18-.11.221-.195.207-.445.697-.489 1.05-.718.118-.074.258-.019.372.052.975.702 1.892 1.464 2.725 2.336.897.939 1.657 1.997 2.483 2.992.13.154.253.314.378.46.7.848 1.438 1.662 2.096 2.536.841 1.115 1.754 2.173 2.655 3.25.423.515.81 1.063 1.216 1.588 1.074 1.358 4.627 5.758 5.336 6.601.3.355.623.685.95 1.024.31.313.555.69.677 1.097.126.451.424.82.486 1.299.036.306.307.574.455.87.078.164.052.332-.099.45-.28.231-.539.497-.947.502-.175.003-.316.078-.46.168-.273.168-.449.359-.467.71-.008.253-.129.115-.222.02-.105-.111-.238-.1-.372-.087-.253.027-.48.25-.765.131-.046-.018-.15.023-.174.061-.19.376-.604.373-.918.532-.296.148-.526.384-.852.503-.262.09-.423.096-.619-.088-.113-.107-.216-.255-.416-.236 0-.342-.232-.527-.484-.689-.01-.017-.059 0-.084.017-.017.01-.044.062-.039.07.153.247.282.532.618.582l-.01.042zm-2.404-7.166c.002.175.038.33.178.442.103.09.216.102.23.011.008-.064.02-.14-.012-.192a.508.508 0 00-.408-.242c-.08-.091-.157-.197-.24-.274-.06-.058-.147-.028-.14.04.015.119.052.237.076.352.073-.034.293-.135.319-.15l-.004.013zm-1.787 6.147c.15.318.26.38.462.29.186-.08.177-.227.105-.382.176-.038.42.034.502-.157.045-.099-.096-.27-.15-.413-.015-.026-.005-.067-.007-.09l-.026.016c.304.036.406.314.603.462.038.024.117-.001.173-.024.008-.005.035-.057.025-.074-.1-.162-.24-.311-.305-.494-.09-.239.264-.351.215-.603.073.061.157.103.222.169.163.17.168.178.216.007.07-.208.178-.415.103-.651.33-.016.383.316.584.45.043.032.127.016.175-.002.064-.028.024-.074-.01-.147-.118-.268-.103-.3.102-.274.19.023.314-.006.397-.175.066-.123.078-.236-.001-.364-.153-.247-.27-.514-.42-.775-.068-.11-.174-.186-.268-.281-.059-.058-.12-.043-.135.048-.036.246-.15.233-.317.114-.106-.076-.226-.119-.335-.181l-.094-.647c.057.035.117.057.174.092l.18.064c.014-.055.047-.134.026-.168a7.717 7.717 0 00-.374-.568c-.032-.05-.12-.079-.173-.07-.03.008-.08.097-.085.147.007.125.04.257.061.385-.076-.047-.16-.088-.233-.15-.25-.233-.422-.55-.738-.719a.235.235 0 01.154-.225c.105-.04.207-.104.113-.198-.188-.19-.192-.728-.686-.388-.25-.08-.369-.254-.38-.518.322-.127.342-.152.199-.345-.18-.254-.377-.496-.722-.541-.206-.085-.376-.285-.628-.142-.022-.092-.009-.241-.066-.277a1.575 1.575 0 00-.455-.165c-.027-.007-.105.077-.1.121.033.226.064.466.137.68.05.156.207.259.39.252.106.475.45.803.692 1.195.142.23.265.2.476.105.26-.113.315-.042.478.316-.064-.008-.124-.03-.188-.037-.055-.013-.118-.02-.173-.034-.008.064-.041.143-.02.177.21.246.421.492.652.714.323.294.326.28.32.519-.001.13.02.259.04.387-.23-.01-.335-.181-.452-.332-.263-.331-.469-.721-.853-.943-.43-.24-.418-.81-.811-1.085-.049-.04-.112-.048-.173-.07-.007.064-.037.13-.037.188.006.16.039.328.044.49.004.044-.05.09-.068.136-.024-.02-.057-.035-.082-.056l-.768-.9c-.085-.1-.187-.19-.276-.276-.054-.05-.107-.04-.164.019l-.326.366c-.04-.14-.023-.303-.167-.403l-.397-.566c.231-.178.498-.26.78-.317.124.182.254.373.395.544.071.097.162.205.313.183.006.22.117.362.294.476.024.02.06.022.093.037.013-.055.06-.131.039-.165-.088-.181-.205-.332-.43-.334.021-.119.156-.261.049-.36-.198-.206-.42-.433-.763-.34.038-.128.095-.246.119-.378.032-.196-.058-.4-.214-.385-.393.03-.553-.305-.834-.437-.263-.12-.37-.37-.25-.669.197-.462.137-.883-.186-1.272-.031-.051-.043-.126-.066-.183-.042-.126-.014.033.056-.08.024-.039.157-.051.168-.034.152.247.255.547.462.749.363.34.709.69.997 1.1.058.093.175.092.265.048a.386.386 0 00.122-.146c.062-.109.011-.171-.096-.211-.458-.152-.598-.607-.873-.919-.139-.149.018-.351-.031-.45-.127-.263-.074-.672-.521-.748-.174-.034-.325-.222-.471-.344-.073-.06-.134-.14-.19-.212a.287.287 0 00.007.372c.277.335-.214.415-.206.657.006.066-.092.08-.144-.005-.09-.145-.167-.309-.34-.343-.427-.1-.552-.435-.656-.794.287.046.38.33.586.473.038.023.135.01.173-.025.042-.026.068-.136.052-.162a12.623 12.623 0 00-.574-.644c-.02-.034-.127-.015-.178.016-.043.026-.062.11-.067.159-.007.063.021.128.027.195-.572-.317-1.112-.677-1.506-1.22-.154-.211-.353-.382-.541-.571-.016-.026-.049-.04-.081-.056-.02-.012-.056-.013-.083-.02-.013.056-.052.126-.034.174.052.121.12.232.18.348.015.025 0 .058-.006.086-.03.065-.088.066-.148.008-.483-.477-.85-1.072-1.416-1.475-.05-.193-.101-.373-.295-.477-.07-.038-.115-.034-.143.054-.007.027-.008.063.008.089a.602.602 0 00.45.31c.014.156.033.32.033.473.003.08-.056.117-.127.078-.17-.083-.339-.167-.5-.255 0-.211-.103-.36-.271-.479-.082-.055-.118-.057-.137.026-.007.027-.008.063.008.089.088.18.2.323.421.34.081.454.5.655.74.988.108.156.285.27.269.492l-.009.005c-.19.035-.28-.132-.414-.214-.043-.032-.11-.026-.165-.039-.008.064-.038.13-.023.19.042.222.017.448.334.523.275.065.392.31.431.603.049.44.25.822.547 1.132.375.38.475.94.896 1.28.01.017-.015.127-.05.148-.135.084-.21.212-.102.31.344.328.584.792 1.154.84.108.003.267.128.308.232.255.641.789 1.029 1.244 1.5.022.092.072.155.172.164.105.265.258.475.553.552l-.016-.026c.023.304.18.5.477.564l.099.597c-.101.027-.19.093-.154.189.046.113.149.202.237.288.108.099.234.056.353-.018l.464.219-.015-.026c.301.754.833 1.33 1.391 1.891.37.124.273.69.715.757-.118.285.234.455.177.725.004.233.199.36.292.549l.02.012zm6.158-.878c-.045.193-.105.382-.142.57-.004.05.064.16.095.153.15-.023.322-.011.449-.054.118-.038.041-.237-.053-.332-.11-.12-.178-.29-.36-.318-.015-.214-.132-.365-.326-.47-.01-.016-.058.002-.07.02-.011.02-.03.066-.02.083.089.18.186.356.422.34l.005.008zm-3.086-3.207c-.002.378.47.322.559.62.02.033.117.056.175.055a.568.568 0 00.27-.096.153.153 0 000-.247c-.375-.285-.617-.676-.884-1.052a1.682 1.682 0 00-.48-.491c-.038-.023-.138-.032-.167-.003-.037.035-.056.117-.042.179.027.195.028.406.284.46-.078.267.015.456.28.567l.005.008zm-7.01.887c.087-.03.192-.26.14-.345-.19-.306-.379-.612-.585-.908-.047-.076-.16-.125-.247-.153a.462.462 0 00-.29.026c-.124.065-.053.162.003.234.154.21.31.407.473.613-.12.32.147.39.32.519.044.032.114.012.177.02l.009-.006zm1.386 2.13c.047.076.078.163.147.238.434.531.882 1.066 1.316 1.597a.15.15 0 00.081.055c.014.003.043-.026.058-.059a.233.233 0 00.023-.096c.014-.186-.112-.296-.222-.416-.222-.227-.493-.436-.37-.828.006-.028-.015-.062-.023-.093-.016-.025-.042-.068-.064-.066-.367.015-.548-.296-.817-.447-.01-.017-.064-.008-.075.011-.026.016-.027.052-.045.098l-.009.006zm-5.682-7.351l.657 1.063c.048.077.293.055.367-.015.087-.089.051-.184-.019-.259-.236-.23-.41-.51-.54-.818-.034-.073-.146-.121-.239-.158-.046-.018-.118.038-.169.07-.025.015-.027.051-.057.117zm13.285 8.507c.074-.07.162-.1.166-.15.006-.18-.12-.29-.267-.375-.166-.097-.31-.044-.433.08-.066.064-.057.211.022.244.172.07.358.143.52.196l-.008.005zm-3.865-7.321s-.02-.07-.036-.096c-.151-.188-.342-.306-.596-.242a.195.195 0 00-.132.128c-.013.055.027.16.069.17.211.057.43.086.648.116 0 0 .032-.043.047-.076zm-2.46 5.645s.016-.068.014-.09c-.109-.215-.304-.341-.512-.448-.005-.009-.047.017-.06.036-.02.025-.02.06-.013.091.088.24.333.312.511.448l.069-.042-.009.005zm-5.08-11.4c.101-.064.222-.115.324-.178.026-.016.04-.049.047-.076-.005-.009-.026-.043-.053-.05-.168-.06-.338-.014-.388.134-.01.041.04.104.07.17z"/><path id="Vector_6" d="M67.452 22.944c.037.118.075.236.12.348.161.336.161.336-.292.44h-.058s-.087.03-.121.052l.007-.216c-.02-.165-.008-.336-.053-.485-.037-.118-.136-.221-.216-.313-.026-.042-.102-.031-.162-.053-.008.064-.038.13-.029.183.012.133.041.256.062.385l-.251-.045.016.025c-.076-.294-.164-.569-.544-.557-.1-.009-.142-.077-.172-.164-.056-.224-.065-.466-.259-.628-.203-.157-.228-.294.024-.437.034-.021.031-.196-.01-.264-.183-.276-.39-.536-.589-.8-.053-.086-.14-.15-.195-.221-.09-.109-.101-.278-.041-.257.083.02.176.056.248.117.097.081.197.184.282.285.3.39.597.795.906 1.18.116.151.084.289.045.454-.052.22-.025.227.262.12.096-.036.193-.049.289-.084.141.476.166.496.578.536.144.099.127.262.166.402l-.013-.003z"/><path id="Vector_7" d="M73.293 24.331c.222-.02.314.147.408.3.08.128.007.22-.128.268-.265-.111-.358-.3-.28-.568z"/><path id="Vector_8" d="M70.721 29.035l-.212-.058c-.084-.194-.288-.315-.291-.548.316.075.504.265.508.614l-.005-.008z"/><path id="Vector_9" d="M66.908 21.987l-.21.024c-.09-.414-.267-.776-.59-1.07-.059-.057-.175-.15-.028-.217.06-.037.19.023.258.075.373.299.51.731.57 1.188z"/><path id="Vector_10" d="M61.63 16.032c.35.09.46.421.653.678.022.034-.026.11-.038.165-.033-.015-.06-.022-.085-.042-.257-.206-.476-.446-.533-.787l.008-.005-.005-.009z"/><path id="Vector_11" d="M65.092 21.37c-.182-.03-.352-.265-.35-.49a.302.302 0 01.034-.08c.008-.005.047-.017.053-.009.111.143.22.3.331.442.01.017.001.058-.02.083a.187.187 0 01-.057.059l.009-.006z"/><path id="Vector_12" d="M72.676 27.063c-.312-.183-.493-.495-.748-.737-.065-.066-.153-.094-.242-.144.018-.14.003-.26-.113-.354-.14-.113-.168-.272-.165-.438.338.167.688.162 1.047.058-.036.152-.143.206-.275.24-.132.035-.239.09-.103.252.17.2.33.42.458.646.084.136.1.314.136.468l.005.009z"/><path id="Vector_13" d="M69.609 26.454c.091-.08.03-.16-.022-.245-.053-.085-.116-.187-.014-.25.034-.02.167.061.232.128.125.145.23.316.338.472.016.025.015.061.008.089-.028.088-.072.092-.151.058-.121-.043-.251-.044-.384-.068-.265-.048-.132-.119-.004-.197l-.003.013z"/><path id="Vector_14" d="M71.619 26.987c.297.063.471.25.508.556-.335-.028-.397-.319-.508-.556z"/><path id="Vector_15" d="M71.415 28.218c-.066.006-.123.03-.195.027-.166-.003-.212-.116-.221-.263-.002-.023.03-.066.056-.082.085-.052.248.023.308.139.032.05.03.123.035.19l.026-.016-.009.005z"/><path id="Vector_16" d="M68.775 25.37l-.063-.443a.804.804 0 01.413.345c.026.043-.004.108-.011.172-.028-.007-.059 0-.086-.006l-.262-.062.009-.005z"/><path id="Vector_17" d="M68.342 25.203l.445.149c0 .058.006.125-.001.189-.013.055-.035.115-.056.175-.058-.035-.11-.062-.166-.097-.144-.1-.197-.243-.217-.407l-.005-.009z"/><path id="Vector_18" d="M68.311 24.811l.055.413-.46-.175.016.026c-.006-.067-.026-.137-.027-.195-.004-.197-.004-.197.227-.128.06.021.115.034.184.05l.005.009z"/><path id="Vector_19" d="M67.222 23.732h.058c.096.117.2.229.293.36.021.034-.017.104-.03.16-.056-.014-.114-.013-.157-.045-.154-.116-.28-.262-.173-.47l.009-.005z"/><path id="Vector_20" d="M69.13 22.083a8.828 8.828 0 00-.163-.416c-.057-.13.03-.16.123-.182.061-.014.123-.029.176-.038a.566.566 0 00.188.4c.108.099.12.232.02.318-.043.026-.174-.034-.256-.054-.028-.006-.055-.013-.091-.014l.003-.014z"/><path id="Vector_21" d="M71.21 23.796c.001.058.016.12.008.183-.022.155-.116.212-.23.142-.176-.114-.235-.266-.23-.469l.453.143z"/><path id="Vector_22" d="M69.85 21.956s.148-.009.183.028c.14.172.265.354.392.522-.201.054-.361.023-.423-.21-.037-.117-.092-.224-.143-.345l-.009.005z"/></g></g><defs><clipPath id="clip0_1448_2845"><path fill="#fff" transform="rotate(-31.708 70.263 19.954)" d="M0 0h75.93v32.49H0z"/></clipPath></defs></svg>