<svg width="210" height="84" fill="none" xmlns="http://www.w3.org/2000/svg"><path fill-rule="evenodd" clip-rule="evenodd" d="M47.954 45.092c1-2.4 1.9-4.6 2.9-6.9.4-.9.8-1.9 1.2-2.8 1.5-3.3 5.4-4.7 8.7-3.2.7.3 1.4.8 2 1.4.6.6.8.4 1.3 0 2.2-1.9 5.2-2.5 8-1.6 1 .3 1.8.8 2.5 1.6.5.6.7.5 1.2.1 2.6-2 5.5-2.7 8.5-1.4 2.4.9 4 3.3 3.9 5.9.1 3.6 0 7.3 0 10.9.1 1.6-1.1 3-2.7 3.1h-.6c-1.5-.1-2.7-1.4-2.5-3v-9.8c0-1.4-1.1-2.6-2.5-2.7-1.5-.3-2.9.6-3.3 2-.1.4-.2.9-.1 1.4v8.9c.2 1.4-.7 2.8-2.1 3.1-1.5.5-3-.3-3.5-1.8-.1-.1-.1-.3-.1-.5-.1-.4-.1-.8-.1-1.2v-9c.1-1.1-.5-2.2-1.5-2.7-1.1-.6-2.4-.4-3.4.3-.8.6-1.2 1.6-1.1 2.6v9.3c.1 1.5-1 2.9-2.5 3h-.5c-1.6 0-2.7-1.3-2.7-3.2v-11.2c.1-.4-.2-.8-.6-.8-.4-.1-.8.1-1 .5l-1.8 3.9c-1.2 2.7-2.4 5.3-3.6 7.9-.3.6-.6 1.1-.9 1.6-1.1 1.6-3.3 2.1-5 1-.3-.3-.7-.6-.9-.9-.7-1-1.2-2.1-1.7-3.2-1.8-3.9-3.6-7.8-5.4-11.8-.8-1.3-.4-3 .9-3.7.1-.1.2-.1.3-.2 1.4-.7 3-.1 3.7 1.3.1.1.1.2.1.4 1.5 3.6 3.1 7.2 4.5 10.8.1.1.2.3.4.6zm55.6-8.1l-2.2 6.3c-.8 2.5-1.8 4.9-2.6 7.3-.3.9-.8 1.3-1.6 1.4-.8 0-1.5-.5-1.8-1.3-2-5.5-4-11.1-6-16.6-.3-.7-.1-1.5.6-1.9 0 0 .1 0 .1-.1.8-.3 1.6.1 1.9.8 0 .1.1.1.1.3 1.5 4.3 3.1 8.7 4.5 13.1.1.3.2.6.4 1 .7-2.1 1.4-4.1 2.1-6 .9-2.7 1.8-5.3 2.7-7.9.4-1 .7-1.4 1.6-1.3.8 0 1.2.3 1.6 1.4 1.5 4.3 3 8.6 4.4 12.9.1.3.2.7.4 1 .8-2.2 1.5-4.3 2.2-6.4.9-2.6 1.8-5.1 2.7-7.7.2-.6.5-1 1.1-1.2.7-.2 1.5.2 1.7 1 .1.3.1.6-.1.9-.5 1.4-1 2.9-1.6 4.3-1.5 4.1-2.9 8.1-4.4 12.2-.1.1-.1.2-.1.3-.2.7-.9 1.2-1.7 1.2-.8 0-1.4-.5-1.6-1.3l-2.1-6-2.5-7.2c.5-.1.4-.3.2-.5zm28.6 12c-1.2 1.5-2.9 2.6-4.8 3-2.9.6-5.6.3-7.8-1.9-2.2-2.3-2.2-5.9 0-8.2.3-.3.7-.6 1.1-.8 1.4-.8 2.9-1.2 4.5-1.3 2.1-.1 4.2.1 6.3.6.6.2.6 0 .6-.5.2-2.6-1.8-4.9-4.4-5.1h-.4c-1.9-.2-3.7.1-5.5.8-.6.3-1.3.1-1.6-.5v-.1s0-.1-.1-.1c-.3-.6 0-1.3.6-1.6h.1c3.3-1.5 7-1.6 10.4-.3 2.2.9 3.6 3 3.7 5.4.2 2.6.2 5.1.1 7.7v4.5c.1.8-.5 1.5-1.2 1.6-.7.1-1.4-.4-1.6-1.1v-2.1zm-5.5-7c-1.5-.1-3 .3-4.3 1.1-1.6 1.1-2 3.3-.9 4.9.2.3.5.6.8.8 1.4 1 3.2 1.4 4.9 1 2.3-.5 4.2-1.6 4.9-4 .1-.8.2-1.6.1-2.4.1-.4-.2-.7-.5-.8h-.1c-1.6-.4-3.2-.6-4.9-.6zm32.6 1.2h-6.4c-.5 0-.6.1-.6.6.5 2.5 1.8 4.5 4.4 5.4 2.6.9 5.5.3 7.5-1.6.3-.3.7-.6 1.2-.6s.9.3 1.1.8c.2.5.1 1-.3 1.4-3.7 3.8-9.7 4-13.7.5-1.6-1.5-2.6-3.5-2.9-5.6-.7-3.3.3-6.7 2.5-9.2 2.2-2.5 5.6-3.5 8.8-2.5 3.4.9 5.3 3.3 6.2 6.6.2.9.3 1.8.3 2.7 0 1.2-.5 1.6-1.7 1.6-2.2-.1-4.3-.1-6.4-.1zm-1-2.2h4.4c2 0 2 0 1.4-1.9-1-3.4-4.1-5.3-7.3-4.3-2.5.9-4.2 3.2-4.5 5.8-.1.5.3.4.6.4h5.4zm-16.8-4.4c.8-1.7 2.2-3.1 4-3.8.8-.4 1.8-.7 2.7-.6.7 0 1.4.5 1.4 1.2.1.8-.3 1.5-1.1 1.7-.3.1-.7.1-1 .2-3.2.7-5.6 3.5-5.8 6.8-.3 2.8-.1 5.6-.1 8.4.1.8-.5 1.5-1.3 1.6-.2 0-.3 0-.5-.1-.7-.1-1.2-.8-1.1-1.5v-16.8c0-1 .6-1.8 1.4-1.8.9 0 1.5.6 1.5 1.8v2.6c-.2.1-.1.1-.1.3zm30.9-2.1c0 1.3-1.1 2.4-2.4 2.4-1.3 0-2.4-1.1-2.4-2.4 0-1.3 1-2.4 2.3-2.5h.1c1.3 0 2.4 1 2.4 2.3v.2zm-2.4-2c-1.1 0-1.9.8-1.9 1.9 0 1.1.9 2 1.9 2 1-.1 1.9-.9 1.9-1.9 0-1.1-.9-2-1.9-2z" fill="#fff"/><path fill-rule="evenodd" clip-rule="evenodd" d="M169.754 33.292c1.2 0 1.4.4 1 1.4-.1.3 0 .3.1.5s.2.3 0 .5c-.2.1-.3 0-.5-.1l-.3-.3c-.3-.3-.5-.5-.5.1 0 .2-.1.4-.3.4-.2 0-.2-.3-.3-.5v-1c0-.8.1-1.2.8-1zm.6.7c-.1-.3-.3-.3-.5-.3s-.3.1-.3.3c0 .2.1.3.4.3.2.1.4 0 .4-.3z" fill="#fff"/><path fill-rule="evenodd" clip-rule="evenodd" d="M170.354 33.992c0 .2-.2.4-.5.3-.3 0-.4-.1-.4-.3 0-.2.1-.3.3-.3.4 0 .6.1.6.3z" fill="#fff"/></svg>