<svg width="95" height="76" fill="none" xmlns="http://www.w3.org/2000/svg"><path d="M80.2 33.446l-2.313 2.003 13.811 15.828 2.313-2.002L80.2 33.446zm-20.163-1.041c-.368 0-.72-.122-1.011-.381L26.146 3.342l2.023-2.29 31.868 27.812L91.86.992l2.023 2.29-32.834 28.742c-.29.26-.643.381-1.01.381zM23.603 62.308c-3.37 0-6.71-.794-9.04-2.153-4.473-2.93-7.17-8.44-9.544-13.829l-.46-1.038c-1.272-2.854-1.854-4.152-1.226-6.151.66-2.107 2.038-2.916 4.78-4.534l1.242-.732c5.102-3.038 10.54-5.816 15.857-5.51 7.4.411 13.85 6.364 15.168 13.783 1.716.412 3.432 1.51 4.612 3.007 1.517 1.923 2.053 4.274 1.532 6.655-.766 3.45-2.82 5.022-4.413 5.74-2.022.9-4.52.93-6.65.121a18.235 18.235 0 01-2.481 1.97c-2.497 1.862-5.96 2.686-9.377 2.686v-.015zm.843-30.94c-4.32 0-9.04 2.442-13.513 5.098l-1.257.747c-2.68 1.573-3.125 1.893-3.416 2.809-.26.855-.107 1.297 1.103 4l.475 1.052c1.731 3.923 4.351 9.846 8.35 12.471 3.723 2.168 11.154 2.473 15.045-.443 1.073-.717 1.992-1.48 2.773-2.335a1.562 1.562 0 011.885-.305c1.195.671 3.263 1.022 4.995.26 1.378-.611 2.282-1.832 2.665-3.603.414-1.877-.29-3.267-.95-4.106-1.087-1.374-2.589-2-3.6-2.03a1.521 1.521 0 01-1.486-1.374c-.644-6.396-6.22-11.89-12.44-12.227-.2 0-.4-.015-.614-.015h-.015z" fill="#fff"/><path d="M47.075 61.987c-.153 0-.306-.015-.444-.061a8.95 8.95 0 01-5.853-5.694 1.525 1.525 0 01.966-1.923c.796-.26 1.67.168 1.93.962a5.868 5.868 0 003.846 3.74 1.522 1.522 0 011.01 1.908 1.54 1.54 0 01-1.47 1.083l.015-.015zm-2.359-12.852a1.51 1.51 0 01-1.21-.596 1.51 1.51 0 01.275-2.137 8.964 8.964 0 018.075-1.48 1.522 1.522 0 011.01 1.908 1.517 1.517 0 01-1.914 1.007c-1.824-.565-3.8-.183-5.301.962a1.54 1.54 0 01-.935.32v.016zM41.07 38.42c-.629 0-1.21-.382-1.44-.993a1.536 1.536 0 01.903-1.969l5.899-2.198 4.183-4.137a1.53 1.53 0 012.16 0c.597.596.597 1.573 0 2.153l-4.428 4.38a1.554 1.554 0 01-.536.352l-6.205 2.304a1.649 1.649 0 01-.537.092v.015zm-6.604-7.327c-.107 0-.23 0-.337-.046a1.515 1.515 0 01-1.15-1.832l.935-4.075-5.76-6.259c-.567-.626-.537-1.587.092-2.152a1.545 1.545 0 012.16.092l6.312 6.853c.337.367.475.886.368 1.374l-1.118 4.854a1.547 1.547 0 01-1.487 1.19h-.015zm-9.714-3.359a1.53 1.53 0 01-1.41-.93l-1.485-3.496-6.849-1.954a1.538 1.538 0 01-1.057-1.893 1.545 1.545 0 011.9-1.053l7.553 2.168c.445.122.812.442.98.87l1.778 4.167a1.511 1.511 0 01-.812 2 1.68 1.68 0 01-.598.121zM36.228 76c-.797 0-1.47-.611-1.532-1.405l-.552-7.357-5.454-6.365a1.52 1.52 0 01.168-2.152 1.535 1.535 0 012.16.167l5.792 6.732c.215.244.337.55.368.885l.597 7.846a1.524 1.524 0 01-1.41 1.633h-.122l-.015.016zm-22.966-2a1.516 1.516 0 01-1.425-.977 1.52 1.52 0 01.873-1.97l7.584-2.9 2.942-7.937a1.527 1.527 0 011.976-.9 1.52 1.52 0 01.904 1.954l-3.187 8.593a1.561 1.561 0 01-.888.9l-8.228 3.16a1.767 1.767 0 01-.551.107V74zm-3.907-6.426c-.169 0-.353-.03-.506-.092L1.02 64.72c-.797-.274-1.21-1.16-.935-1.953.276-.794 1.165-1.206 1.961-.932l7.018 2.473 7.247-5.785a1.553 1.553 0 012.16.23 1.525 1.525 0 01-.23 2.151l-7.906 6.32a1.576 1.576 0 01-.965.335l-.015.016z" fill="#fff"/><path d="M91.445 52.172H49.971V49.12h41.474c.26 0 .476-.213.476-.473V3.541c0-.412-.43-.473-.69-.473H28.613c-.275 0-.398.03-.429.045 0 .016-.03.138-.03.413v10.211H25.09V3.526C25.09 1.312 26.407 0 28.629 0h62.617C93.391 0 95 1.51 95 3.526V48.63a3.534 3.534 0 01-3.54 3.526l-.014.015z" fill="#fff"/></svg>