<svg width="73" height="57" fill="none" xmlns="http://www.w3.org/2000/svg"><g id="uuid-08421a36-9710-4c62-be58-af7bd4d9374a" clip-path="url(#clip0_1448_2597)"><path id="Vector" fill-rule="evenodd" clip-rule="evenodd" d="M72.12 3.31c-.07-.66.34-2.42-.17-2.02-.51.41-.02.35-.65.34-.48 0 .33-.42-.09-1-.31-.42-.45-.11-.93.07-.72.28.37-.59-.3-.24-.21.11-.2-.22-.34-.39-.13-.16-1.25 0-1.15-.07l-2.51 1.33c-3.5 1.31-3.01 1.62-6.32 3.36-2.44 1.28-1.95 1.22-4.3 2.65-1.5.92-1.28.75-2.79 1.65-.43.26-.87.51-1.29.79-2.71 1.77-5.28 3.75-7.89 5.66-1.89 1.38-3.91 2.59-5.69 4.13-.21.18-.44.34-.67.5-.83-.85-1.61-1.74-2.46-2.56-1.35-1.33-2.76-2.59-4.14-3.89-1.63-1.55-3.24-3.13-4.88-4.66-.43-.4-.66-1.1-1.2-1.41-.43-.24-.41-.75-1.3-1.59-.08-.07-.97-1.49-1.06-1.5-.34-.03-1.83-2.02-1.97-2.18-.19-.22-.17-.75-.7-.56.13.16.37.3.17.52-.2.23-.34-.02-.47-.12-.67-.55 1.34 1.88.63 1.38-.32-.23-.32-.34-.6-.3-.39.05-.55-.14-.73-.32-1.16-1.16.73 1.09-.41-.1-.32-.34-.34-.33-.3-.27.04.06.13.18 0 0-.06-.08-.16-.21-.34-.44-.33-.42-.91-.58-1.38-.35-.2.1-.28.21-.1.42.2.23.2.39.44.57.2.15.72.22.2.63-.09.07-.06.21.09.26.12.04.25.07.25-.1 0-.57.34-.32.57-.25.33.09-.43-.76-.2-.5.52.58.34.29.86.87 0-.02.01-.03.01-.05-.31-.38-.59-.71-.19-.28.1.11.19.19.19.28.35.42.75.9.31.41-.11-.12-.22-.24-.32-.36-.03.05-.1.11-.25.17-.66.27-.76.57-.64 1.28 0 .02-.04.06-.07.08-1.16-.98.88 1.3-.28.22-.03.12-.04.21-.03.28.25.31.4.51.09.19a.31.31 0 01-.09-.19c-.1-.13-.22-.27-.33-.41 0 .04-.02.07-.06.11-.17.17 1 1.46.86 1.32-.8-.85.14.23-.68-.6-.88-.9-.08.18-1.04-.63l-.02-.01c.04.02.12.04.17-.05.15-.26-.03-.47.13-.35.02.01.04.03.06.04.07.09.16.2.25.31.02-.11-.07-.2-.16-.28.11.03.23.08.31-.03.1-.14-.03-.25-.11-.34-.47-.51-1.07-.81-1.71-1.02-.17-.06-.41-.04-.4.16.03.37-.19.39-.43.47-.39.13-.85.19-.84.79 0 .08-.13.2-.22.24-.67.26-.44.06-.67.67-.08.21-.83.02-.8.16l-.21.21c-.11.23-.1.37.02.55l-.11.31c.09.37.14.32.64.61.98.57-.41-.1.34.76.15.17.44.44.19.61-.3.19-.23-.28-.38-.4-.18-.14-.39-.45-.61-.23-.23.23.09.38.24.53.64.67 1.26 1.37 1.88 2.05 2.26 2.45 4.49 4.92 7.02 7.09.56.48 1.07 1.04 1.58 1.59.65.69 1.34 1.34 2.11 1.92.57.43 1.14.89 1.6 1.43.4.48.93.84 1.28 1.36.07.11.19.15.28.03.06-.07.17-.23.02-.28-.24-.08-.17-.23-.09-.34.14-.18.21.04.31.1.44.29.71.76 1.11 1.11.29.26.57.52.84.8-1.45 1.12-2.92 2.24-4.36 3.38-1.12.88-2.13 1.89-3.26 2.76-.81.61-1.63 1.23-2.35 1.97-.33.34-.67.71-1.03.97-1.78 1.29-2.67 2.44-4.28 3.91-.53.49-.97 1.07-1.44 1.63-.25.3-.65.23-.88.54-.86 1.13-1.93 2.06-2.95 3.04-.16.15.13.38-.13.39-.67.02-.65.86-1.19 1.03-.02 0-.06.08-.05.09.31.47-.12.37-.33.47-.23.11-.49.23-.44.58.05.4.36.18.63.24-.64.8-1.19 1.61-1.86 2.3-.79.81.26-1.54-.46-.66-.58.71-1.03 1.56-1.71 2.16-1.3 1.15.64-1.19-2.07 1.69-.43.46-.78 1-.96 1.63 1-.6.33-.14 1.19-.88-.46.42.36.22-.08.64-.14.13-.26.36-.16.5.15.2.32-.03.47-.11.77-.39-.81 1.03-.07.6.17-.1.28-.36.5-.32.32.07-.17.38.15.51.17-.3.63-.07.79-.41.45-.97.37-.24.96-1.11.52-.77-.02.39.48-.41.45-.73.15-.1.58-.43.42-.31.91-.6 1.31-1.03.1.34-.1.49-.24.66-1.26 1.61-.28-.05-1.58 1.52-.2.25-.41.51-.66.69-.87.62-.34.25-.86 1.14.93-.9 1.21-.72 1.7-1.47.97-1.52-.25.21 1.21-.9 1.19-.91.44 1.2 1.53.17 1.11-1.05 2.17-2.15 3.27-3.2.35-.34.67-.72 1.14-.91-2.06 2.48-4.4 4.68-6.79 7.04.72-.32 1.19-.72 1.64-1.15 2.45-2.38 4.82-4.86 7.54-6.96 1.39-1.07 2.62-2.37 3.99-3.49.74-.61 1.44-1.28 2.23-1.81.35-.24.85-.27 1-.78 0 0 .03-.01.05-.01.56-.04.85-.51 1.23-.83 1.14-.98 2.24-2 3.44-2.9 1.43-1.07 2.23-1.67 3.65-2.75 1.39-1.06 2.83-2.04 4.28-3.03.42-.29.2-.69.61-.3l.48-.1c-.23-.24.33-.19.62-.45.26-.23.52-.3.78 0 .23.27.43.58.68.83 1.34 1.28 1.67 1.89 2.92 3.26 1.17 1.29 2.34 2.59 3.52 3.86.91.97 1.75 2.01 2.65 2.99.88.96 1.78 1.89 2.66 2.85.89.97 1.97 1.73 2.8 2.76.69.85 1.43 1.66 2.22 2.42.6.57.96 1.38 1.71 1.8.12-1-.76-1.42-1.25-1.98-.64-.72-1.02-1.56-.64-2.37.21.33.67.38.93.69-.52-1.46-1.76-2.45-2.39-3.84.54.33.97.77 1.3 1.29.15.23.33.42.54.57.27.18.62.44.6-.33.16.35.39.51.59.7.24.24.43.52.24.89-.03.06-.05.18-.02.21.42.4.69 1.01 1.22 1.21.39.14.63.44.74.69.3.68.89 1 1.41 1.61.09-.86-.24-1.45-.61-1.95-.25-.34-.46-.72-.75-1.05-.66-.73-1.38-1.42-1.92-2.4.86.36 1.35.98 1.72 1.69.15.28.35.53.61.71.41.29 1.18 1.14 1.5 1.5.23.25.31.52.57.65.18.09.11-.3.44-.24.29.05.58 0 .83-.16l.62-.39c.14-.09.18-.27.11-.42a.3.3 0 01.01-.29c.21.05.24.02.25 0 0 0 0 .05.08.18.12.19.15.21.21-.01.06-.19.11-.35.19-.26.07.08.13.06 0 .25-.07.1-.03.33.17.16.09-.07.24-.1.32-.25.07-.15.09-.1 0-.2-.4-.45-.2.03-.53-.48-.13-.2.04-.1.16-.27.15-.22.38-.13.26-.51.5.41.19-.4 1.03.41-.28-.51-.57-.8-1.24-1.55-.52-.59-1.04-1.18-1.55-1.78-.27-.32-.26-.78-.52-1.14-.31-.43-.8-.69-.82-1.44 0-.56-.74-1.1-1.3-1.45-.46-.29-.88-.9-1.23-1.34-.22-.28.1-.59-.55-.35 0 0-.04-.05-.07-.1.14-.12-.09.06.05-.07.21-.18-.06-.24-.09-.37-.02-.12-.16-.57-.21-.46-.15.35-.16.04-.27-.01-.43-.2-.64-.61-.94-.94-.14-.16-.54-.08-.46-.34.13-.41-.11-.34-.33-.42-.22-.09-.56-.13-.65-.27-.23-.4-.93-.35-.88-1.04.01-.14-.29-.55-.59-.57-.42-.03-.63-.31-.89-.56-.14-.13-.16-.48-.48-.36-.16.4.22.6.81 1.02.22.16.27.44.28.71 0 .11.32.25.09.42-.13.1-.29.04-.43-.03-.46-.24-.77-.66-1.08-1.04-.77-.94-1.53-1.88-2.36-2.77-1.17-1.23-1.37-1.74-2.62-2.89-.86-.79-1.44-1.83-2.32-2.6-.31-.28-.48-.59.02-.95.7-.51 1.42-.97 2.14-1.45 1.95-1.29 3.88-2.62 5.79-3.96 2.35-1.65 3.11-1.99 5.5-3.57 1.42-.94 2.85-1.88 4.3-2.77 1.73-1.07.77-.42 2.55-1.42 1.26-.7.3-.31 1.57-.97 1.11-.58.8-.48 1.91-1.07.62-.33 1.09-.88 1.7-1.27.63-.4 1.61-.86 2.39-1.49 1.04-.83 1.03-.37.98-.91-.07-.74-.24-1.9.05-2.16.27-.26-.21-1.05-.26-1.53l.07-.07zM11.8 49.03c.38-.37.76-.75 1.15-1.12-.28.48-.62.9-1.15 1.12zm3.34-9.63c-1.1.93-2.07 2.01-3.16 2.96-.9.78-1.7 1.69-2.54 2.54-.53.53-1.05 1.08-1.58 1.61-.15.14-.36.31-.53.11-.16-.19.07-.35.19-.47 1.72-1.64 3.47-3.25 5.17-4.92.71-.7 1.43-1.38 2.19-2.02.13-.11.28-.27.5-.07-.09.1-.15.19-.23.26h-.01zm38.25 6.23c-.05-.07-.16-.12-.05-.22.06-.06.15-.05.2 0 .28.27.58.54.65.96-.32-.2-.6-.42-.8-.74zm-.51-8.68c.76.66 1.24 1.45 1.88 2.11.66.69 1.28 1.41 1.92 2.12.13.15.51.12.35.37-.2.3-.27.47-.57-.09-.38-.71-1.58-1.82-2.08-2.44-.47-.59-.3-.68-.9-1.17-.28-.23-.71-.38-.59-.89l-.01-.01zm-.54 5.81c.6.28.86.88 1.3 1.29.53.48.97 1.06 1.45 1.6.2.21.55.6.42.68-.3.21-.5-.24-.64-.42-.82-1.03-1.71-1.99-2.55-3-.02-.02 0-.07 0-.15h.02z" fill="#000"/></g><defs><clipPath id="clip0_1448_2597"><path fill="#fff" d="M0 0h72.47v56.37H0z"/></clipPath></defs></svg>